%
M48
M72
T01C0.0276
T02C0.0400
%
T01
X6180Y7305
X8180Y8055
X13180Y7305
X15180Y8055
X20180Y7305
X22180Y8055
X27180Y7305
X29180Y8055
X29180Y9180
X21180Y14680
X14180Y15680
X7180Y16680
T02
X4180Y6180
X5180Y6180
X6180Y6180
X7180Y6180
X8180Y6180
X11180Y6180
X12180Y6180
X13180Y6180
X14180Y6180
X15180Y6180
X18180Y6180
X19180Y6180
X20180Y6180
X21180Y6180
X22180Y6180
X25180Y6180
X26180Y6180
X27180Y6180
X28180Y6180
X29180Y6180
X32180Y6180
X33180Y6180
X34180Y6180
X35180Y6180
X36180Y6180
X37180Y6180
X38180Y6180
X39180Y6180
X40180Y6180
X41180Y6180
X44180Y6180
X45180Y6180
X46180Y6180
X47180Y6180
X48180Y6180
X49180Y6180
X41180Y16180
X40180Y16180
X39180Y16180
X38180Y16180
X37180Y16180
X36180Y16180
X35180Y16180
X34180Y16180
X33180Y16180
X32180Y16180
M30
