G75*
%MOIN*%
%OFA0B0*%
%FSLAX25Y25*%
%IPPOS*%
%LPD*%
%AMOC8*
5,1,8,0,0,1.08239X$1,22.5*
%
%ADD10C,0.00600*%
%ADD11C,0.00500*%
%ADD12C,0.00300*%
%ADD13R,0.02000X0.02000*%
D10*
X0046650Y0045100D02*
X0046650Y0051505D01*
X0049852Y0051505D01*
X0050920Y0050438D01*
X0050920Y0048303D01*
X0049852Y0047235D01*
X0046650Y0047235D01*
X0053095Y0046168D02*
X0054163Y0045100D01*
X0056298Y0045100D01*
X0057366Y0046168D01*
X0057366Y0048303D01*
X0056298Y0049370D01*
X0054163Y0049370D01*
X0053095Y0048303D01*
X0053095Y0046168D01*
X0059541Y0047235D02*
X0061676Y0049370D01*
X0062743Y0049370D01*
X0064912Y0049370D02*
X0067047Y0049370D01*
X0065980Y0050438D02*
X0065980Y0046168D01*
X0067047Y0045100D01*
X0059541Y0045100D02*
X0059541Y0049370D01*
X0059300Y0056800D02*
X0056800Y0059300D01*
X0054300Y0056800D01*
X0049300Y0056800D01*
X0046800Y0059300D01*
X0044300Y0056800D01*
X0039300Y0056800D01*
X0036800Y0059300D01*
X0036800Y0064300D01*
X0039300Y0066800D01*
X0044300Y0066800D01*
X0046800Y0064300D01*
X0049300Y0066800D01*
X0054300Y0066800D01*
X0056800Y0064300D01*
X0056800Y0059300D01*
X0059300Y0056800D02*
X0064300Y0056800D01*
X0066800Y0059300D01*
X0069300Y0056800D01*
X0074300Y0056800D01*
X0076800Y0059300D01*
X0079300Y0056800D01*
X0084300Y0056800D01*
X0086800Y0059300D01*
X0086800Y0064300D01*
X0084300Y0066800D01*
X0079300Y0066800D01*
X0076800Y0064300D01*
X0076800Y0059300D01*
X0076800Y0064300D02*
X0074300Y0066800D01*
X0069300Y0066800D01*
X0066800Y0064300D01*
X0066800Y0059300D01*
X0066800Y0064300D02*
X0064300Y0066800D01*
X0059300Y0066800D01*
X0056800Y0064300D01*
X0046800Y0064300D02*
X0046800Y0059300D01*
X0075654Y0048303D02*
X0079925Y0048303D01*
X0078857Y0051505D02*
X0075654Y0048303D01*
X0078857Y0045100D02*
X0078857Y0051505D01*
X0106800Y0059300D02*
X0109300Y0056800D01*
X0114300Y0056800D01*
X0116800Y0059300D01*
X0119300Y0056800D01*
X0124300Y0056800D01*
X0126800Y0059300D01*
X0126800Y0064300D01*
X0124300Y0066800D01*
X0119300Y0066800D01*
X0116800Y0064300D01*
X0116800Y0059300D01*
X0116800Y0064300D02*
X0114300Y0066800D01*
X0109300Y0066800D01*
X0106800Y0064300D01*
X0106800Y0059300D01*
X0116650Y0051505D02*
X0119852Y0051505D01*
X0120920Y0050438D01*
X0120920Y0048303D01*
X0119852Y0047235D01*
X0116650Y0047235D01*
X0116650Y0045100D02*
X0116650Y0051505D01*
X0123095Y0048303D02*
X0123095Y0046168D01*
X0124163Y0045100D01*
X0126298Y0045100D01*
X0127366Y0046168D01*
X0127366Y0048303D01*
X0126298Y0049370D01*
X0124163Y0049370D01*
X0123095Y0048303D01*
X0129541Y0049370D02*
X0129541Y0045100D01*
X0129541Y0047235D02*
X0131676Y0049370D01*
X0132743Y0049370D01*
X0134912Y0049370D02*
X0137047Y0049370D01*
X0135980Y0050438D02*
X0135980Y0046168D01*
X0137047Y0045100D01*
X0145654Y0046168D02*
X0146722Y0045100D01*
X0148857Y0045100D01*
X0149925Y0046168D01*
X0149925Y0047235D01*
X0148857Y0048303D01*
X0147790Y0048303D01*
X0148857Y0048303D02*
X0149925Y0049370D01*
X0149925Y0050438D01*
X0148857Y0051505D01*
X0146722Y0051505D01*
X0145654Y0050438D01*
X0144300Y0056800D02*
X0139300Y0056800D01*
X0136800Y0059300D01*
X0134300Y0056800D01*
X0129300Y0056800D01*
X0126800Y0059300D01*
X0126800Y0064300D02*
X0129300Y0066800D01*
X0134300Y0066800D01*
X0136800Y0064300D01*
X0139300Y0066800D01*
X0144300Y0066800D01*
X0146800Y0064300D01*
X0149300Y0066800D01*
X0154300Y0066800D01*
X0156800Y0064300D01*
X0156800Y0059300D01*
X0154300Y0056800D01*
X0149300Y0056800D01*
X0146800Y0059300D01*
X0144300Y0056800D01*
X0146800Y0059300D02*
X0146800Y0064300D01*
X0136800Y0064300D02*
X0136800Y0059300D01*
X0176800Y0059300D02*
X0179300Y0056800D01*
X0184300Y0056800D01*
X0186800Y0059300D01*
X0189300Y0056800D01*
X0194300Y0056800D01*
X0196800Y0059300D01*
X0196800Y0064300D01*
X0194300Y0066800D01*
X0189300Y0066800D01*
X0186800Y0064300D01*
X0186800Y0059300D01*
X0186800Y0064300D02*
X0184300Y0066800D01*
X0179300Y0066800D01*
X0176800Y0064300D01*
X0176800Y0059300D01*
X0186650Y0051505D02*
X0189852Y0051505D01*
X0190920Y0050438D01*
X0190920Y0048303D01*
X0189852Y0047235D01*
X0186650Y0047235D01*
X0186650Y0045100D02*
X0186650Y0051505D01*
X0193095Y0048303D02*
X0193095Y0046168D01*
X0194163Y0045100D01*
X0196298Y0045100D01*
X0197366Y0046168D01*
X0197366Y0048303D01*
X0196298Y0049370D01*
X0194163Y0049370D01*
X0193095Y0048303D01*
X0199541Y0049370D02*
X0199541Y0045100D01*
X0199541Y0047235D02*
X0201676Y0049370D01*
X0202743Y0049370D01*
X0204912Y0049370D02*
X0207047Y0049370D01*
X0205980Y0050438D02*
X0205980Y0046168D01*
X0207047Y0045100D01*
X0215654Y0045100D02*
X0219925Y0049370D01*
X0219925Y0050438D01*
X0218857Y0051505D01*
X0216722Y0051505D01*
X0215654Y0050438D01*
X0214300Y0056800D02*
X0209300Y0056800D01*
X0206800Y0059300D01*
X0204300Y0056800D01*
X0199300Y0056800D01*
X0196800Y0059300D01*
X0196800Y0064300D02*
X0199300Y0066800D01*
X0204300Y0066800D01*
X0206800Y0064300D01*
X0209300Y0066800D01*
X0214300Y0066800D01*
X0216800Y0064300D01*
X0219300Y0066800D01*
X0224300Y0066800D01*
X0226800Y0064300D01*
X0226800Y0059300D01*
X0224300Y0056800D01*
X0219300Y0056800D01*
X0216800Y0059300D01*
X0214300Y0056800D01*
X0216800Y0059300D02*
X0216800Y0064300D01*
X0206800Y0064300D02*
X0206800Y0059300D01*
X0215654Y0045100D02*
X0219925Y0045100D01*
X0246800Y0059300D02*
X0249300Y0056800D01*
X0254300Y0056800D01*
X0256800Y0059300D01*
X0259300Y0056800D01*
X0264300Y0056800D01*
X0266800Y0059300D01*
X0266800Y0064300D01*
X0264300Y0066800D01*
X0259300Y0066800D01*
X0256800Y0064300D01*
X0256800Y0059300D01*
X0266800Y0059300D02*
X0269300Y0056800D01*
X0274300Y0056800D01*
X0276800Y0059300D01*
X0279300Y0056800D01*
X0284300Y0056800D01*
X0286800Y0059300D01*
X0289300Y0056800D01*
X0294300Y0056800D01*
X0296800Y0059300D01*
X0296800Y0064300D01*
X0294300Y0066800D01*
X0289300Y0066800D01*
X0286800Y0064300D01*
X0286800Y0059300D01*
X0286800Y0064300D02*
X0284300Y0066800D01*
X0279300Y0066800D01*
X0276800Y0064300D01*
X0276800Y0059300D01*
X0276800Y0064300D02*
X0274300Y0066800D01*
X0269300Y0066800D01*
X0266800Y0064300D01*
X0256800Y0064300D02*
X0254300Y0066800D01*
X0249300Y0066800D01*
X0246800Y0064300D01*
X0246800Y0059300D01*
X0256650Y0051505D02*
X0259852Y0051505D01*
X0260920Y0050438D01*
X0260920Y0048303D01*
X0259852Y0047235D01*
X0256650Y0047235D01*
X0256650Y0045100D02*
X0256650Y0051505D01*
X0263095Y0048303D02*
X0263095Y0046168D01*
X0264163Y0045100D01*
X0266298Y0045100D01*
X0267366Y0046168D01*
X0267366Y0048303D01*
X0266298Y0049370D01*
X0264163Y0049370D01*
X0263095Y0048303D01*
X0269541Y0049370D02*
X0269541Y0045100D01*
X0269541Y0047235D02*
X0271676Y0049370D01*
X0272743Y0049370D01*
X0274912Y0049370D02*
X0277047Y0049370D01*
X0275980Y0050438D02*
X0275980Y0046168D01*
X0277047Y0045100D01*
X0285654Y0045100D02*
X0289925Y0045100D01*
X0287790Y0045100D02*
X0287790Y0051505D01*
X0285654Y0049370D01*
X0316800Y0059300D02*
X0319300Y0056800D01*
X0324300Y0056800D01*
X0326800Y0059300D01*
X0329300Y0056800D01*
X0334300Y0056800D01*
X0336800Y0059300D01*
X0336800Y0064300D01*
X0334300Y0066800D01*
X0329300Y0066800D01*
X0326800Y0064300D01*
X0326800Y0059300D01*
X0326800Y0064300D02*
X0324300Y0066800D01*
X0319300Y0066800D01*
X0316800Y0064300D01*
X0316800Y0059300D01*
X0336800Y0059300D02*
X0339300Y0056800D01*
X0344300Y0056800D01*
X0346800Y0059300D01*
X0349300Y0056800D01*
X0354300Y0056800D01*
X0356800Y0059300D01*
X0359300Y0056800D01*
X0364300Y0056800D01*
X0366800Y0059300D01*
X0366800Y0064300D01*
X0364300Y0066800D01*
X0359300Y0066800D01*
X0356800Y0064300D01*
X0356800Y0059300D01*
X0356800Y0064300D02*
X0354300Y0066800D01*
X0349300Y0066800D01*
X0346800Y0064300D01*
X0346800Y0059300D01*
X0346800Y0064300D02*
X0344300Y0066800D01*
X0339300Y0066800D01*
X0336800Y0064300D01*
X0366800Y0064300D02*
X0369300Y0066800D01*
X0374300Y0066800D01*
X0376800Y0064300D01*
X0379300Y0066800D01*
X0384300Y0066800D01*
X0386800Y0064300D01*
X0389300Y0066800D01*
X0394300Y0066800D01*
X0396800Y0064300D01*
X0396800Y0059300D01*
X0394300Y0056800D01*
X0389300Y0056800D01*
X0386800Y0059300D01*
X0384300Y0056800D01*
X0379300Y0056800D01*
X0376800Y0059300D01*
X0374300Y0056800D01*
X0369300Y0056800D01*
X0366800Y0059300D01*
X0376800Y0059300D02*
X0376800Y0064300D01*
X0386800Y0064300D02*
X0386800Y0059300D01*
X0396800Y0059300D02*
X0399300Y0056800D01*
X0404300Y0056800D01*
X0406800Y0059300D01*
X0409300Y0056800D01*
X0414300Y0056800D01*
X0416800Y0059300D01*
X0416800Y0064300D01*
X0414300Y0066800D01*
X0409300Y0066800D01*
X0406800Y0064300D01*
X0406800Y0059300D01*
X0406800Y0064300D02*
X0404300Y0066800D01*
X0399300Y0066800D01*
X0396800Y0064300D01*
X0436800Y0064300D02*
X0436800Y0059300D01*
X0439300Y0056800D01*
X0444300Y0056800D01*
X0446800Y0059300D01*
X0449300Y0056800D01*
X0454300Y0056800D01*
X0456800Y0059300D01*
X0456800Y0064300D01*
X0454300Y0066800D01*
X0449300Y0066800D01*
X0446800Y0064300D01*
X0446800Y0059300D01*
X0446800Y0064300D02*
X0444300Y0066800D01*
X0439300Y0066800D01*
X0436800Y0064300D01*
X0456800Y0064300D02*
X0459300Y0066800D01*
X0464300Y0066800D01*
X0466800Y0064300D01*
X0469300Y0066800D01*
X0474300Y0066800D01*
X0476800Y0064300D01*
X0479300Y0066800D01*
X0484300Y0066800D01*
X0486800Y0064300D01*
X0489300Y0066800D01*
X0494300Y0066800D01*
X0496800Y0064300D01*
X0496800Y0059300D01*
X0494300Y0056800D01*
X0489300Y0056800D01*
X0486800Y0059300D01*
X0484300Y0056800D01*
X0479300Y0056800D01*
X0476800Y0059300D01*
X0474300Y0056800D01*
X0469300Y0056800D01*
X0466800Y0059300D01*
X0464300Y0056800D01*
X0459300Y0056800D01*
X0456800Y0059300D01*
X0466800Y0059300D02*
X0466800Y0064300D01*
X0476800Y0064300D02*
X0476800Y0059300D01*
X0486800Y0059300D02*
X0486800Y0064300D01*
X0410654Y0107965D02*
X0410654Y0114370D01*
X0413857Y0114370D01*
X0414925Y0113303D01*
X0414925Y0111168D01*
X0413857Y0110100D01*
X0410654Y0110100D01*
X0408479Y0111168D02*
X0408479Y0113303D01*
X0407412Y0114370D01*
X0405277Y0114370D01*
X0404209Y0113303D01*
X0404209Y0111168D01*
X0405277Y0110100D01*
X0407412Y0110100D01*
X0408479Y0111168D01*
X0399899Y0110100D02*
X0399899Y0116505D01*
X0402034Y0116505D02*
X0397763Y0116505D01*
X0399300Y0156800D02*
X0396800Y0159300D01*
X0394300Y0156800D01*
X0389300Y0156800D01*
X0386800Y0159300D01*
X0384300Y0156800D01*
X0379300Y0156800D01*
X0376800Y0159300D01*
X0374300Y0156800D01*
X0369300Y0156800D01*
X0366800Y0159300D01*
X0364300Y0156800D01*
X0359300Y0156800D01*
X0356800Y0159300D01*
X0354300Y0156800D01*
X0349300Y0156800D01*
X0346800Y0159300D01*
X0344300Y0156800D01*
X0339300Y0156800D01*
X0336800Y0159300D01*
X0334300Y0156800D01*
X0329300Y0156800D01*
X0326800Y0159300D01*
X0324300Y0156800D01*
X0319300Y0156800D01*
X0316800Y0159300D01*
X0316800Y0164300D01*
X0319300Y0166800D01*
X0324300Y0166800D01*
X0326800Y0164300D01*
X0329300Y0166800D01*
X0334300Y0166800D01*
X0336800Y0164300D01*
X0336800Y0159300D01*
X0326800Y0159300D02*
X0326800Y0164300D01*
X0336800Y0164300D02*
X0339300Y0166800D01*
X0344300Y0166800D01*
X0346800Y0164300D01*
X0349300Y0166800D01*
X0354300Y0166800D01*
X0356800Y0164300D01*
X0359300Y0166800D01*
X0364300Y0166800D01*
X0366800Y0164300D01*
X0366800Y0159300D01*
X0376800Y0159300D02*
X0376800Y0164300D01*
X0379300Y0166800D01*
X0384300Y0166800D01*
X0386800Y0164300D01*
X0389300Y0166800D01*
X0394300Y0166800D01*
X0396800Y0164300D01*
X0396800Y0159300D01*
X0399300Y0156800D02*
X0404300Y0156800D01*
X0406800Y0159300D01*
X0409300Y0156800D01*
X0414300Y0156800D01*
X0416800Y0159300D01*
X0416800Y0164300D01*
X0414300Y0166800D01*
X0409300Y0166800D01*
X0406800Y0164300D01*
X0406800Y0159300D01*
X0406800Y0164300D02*
X0404300Y0166800D01*
X0399300Y0166800D01*
X0396800Y0164300D01*
X0386800Y0164300D02*
X0386800Y0159300D01*
X0376800Y0164300D02*
X0374300Y0166800D01*
X0369300Y0166800D01*
X0366800Y0164300D01*
X0356800Y0164300D02*
X0356800Y0159300D01*
X0346800Y0159300D02*
X0346800Y0164300D01*
D11*
X0348497Y0154480D02*
X0348497Y0150410D01*
X0345445Y0153463D01*
X0351550Y0153463D01*
X0355445Y0153463D02*
X0356462Y0154480D01*
X0357480Y0154480D01*
X0358497Y0153463D01*
X0359515Y0154480D01*
X0360532Y0154480D01*
X0361550Y0153463D01*
X0361550Y0151428D01*
X0360532Y0150410D01*
X0360532Y0148403D02*
X0361550Y0147386D01*
X0361550Y0145351D01*
X0360532Y0144333D01*
X0360532Y0142326D02*
X0356462Y0142326D01*
X0355445Y0141308D01*
X0355445Y0139273D01*
X0356462Y0138256D01*
X0360532Y0138256D01*
X0361550Y0139273D01*
X0361550Y0141308D01*
X0360532Y0142326D01*
X0358497Y0146368D02*
X0358497Y0147386D01*
X0359515Y0148403D01*
X0360532Y0148403D01*
X0358497Y0147386D02*
X0357480Y0148403D01*
X0356462Y0148403D01*
X0355445Y0147386D01*
X0355445Y0145351D01*
X0356462Y0144333D01*
X0351550Y0145351D02*
X0351550Y0147386D01*
X0350532Y0148403D01*
X0349515Y0148403D01*
X0348497Y0147386D01*
X0348497Y0146368D01*
X0348497Y0147386D02*
X0347480Y0148403D01*
X0346462Y0148403D01*
X0345445Y0147386D01*
X0345445Y0145351D01*
X0346462Y0144333D01*
X0346462Y0142326D02*
X0345445Y0141308D01*
X0345445Y0139273D01*
X0346462Y0138256D01*
X0350532Y0138256D01*
X0351550Y0139273D01*
X0351550Y0141308D01*
X0350532Y0142326D01*
X0346462Y0142326D01*
X0350532Y0144333D02*
X0351550Y0145351D01*
X0356462Y0150410D02*
X0355445Y0151428D01*
X0355445Y0153463D01*
X0358497Y0153463D02*
X0358497Y0152445D01*
X0365445Y0151428D02*
X0366462Y0150410D01*
X0365445Y0151428D02*
X0365445Y0153463D01*
X0366462Y0154480D01*
X0367480Y0154480D01*
X0371550Y0150410D01*
X0371550Y0154480D01*
X0375445Y0154480D02*
X0376462Y0152445D01*
X0378497Y0150410D01*
X0378497Y0153463D01*
X0379515Y0154480D01*
X0380532Y0154480D01*
X0381550Y0153463D01*
X0381550Y0151428D01*
X0380532Y0150410D01*
X0378497Y0150410D01*
X0381550Y0148403D02*
X0381550Y0144333D01*
X0381550Y0146368D02*
X0375445Y0146368D01*
X0377480Y0144333D01*
X0376462Y0142326D02*
X0375445Y0141308D01*
X0375445Y0139273D01*
X0376462Y0138256D01*
X0380532Y0138256D01*
X0381550Y0139273D01*
X0381550Y0141308D01*
X0380532Y0142326D01*
X0376462Y0142326D01*
X0371550Y0141308D02*
X0370532Y0142326D01*
X0366462Y0142326D01*
X0365445Y0141308D01*
X0365445Y0139273D01*
X0366462Y0138256D01*
X0370532Y0138256D01*
X0371550Y0139273D01*
X0371550Y0141308D01*
X0370532Y0144333D02*
X0371550Y0145351D01*
X0371550Y0147386D01*
X0370532Y0148403D01*
X0369515Y0148403D01*
X0368497Y0147386D01*
X0368497Y0146368D01*
X0368497Y0147386D02*
X0367480Y0148403D01*
X0366462Y0148403D01*
X0365445Y0147386D01*
X0365445Y0145351D01*
X0366462Y0144333D01*
X0365445Y0136239D02*
X0365445Y0134204D01*
X0365445Y0135222D02*
X0371550Y0135222D01*
X0371550Y0136239D02*
X0371550Y0134204D01*
X0369515Y0131180D02*
X0369515Y0128127D01*
X0371550Y0128127D02*
X0365445Y0128127D01*
X0365445Y0131180D01*
X0366462Y0132197D01*
X0368497Y0132197D01*
X0369515Y0131180D01*
X0375445Y0131180D02*
X0376462Y0132197D01*
X0378497Y0132197D01*
X0379515Y0131180D01*
X0379515Y0128127D01*
X0381550Y0128127D02*
X0375445Y0128127D01*
X0375445Y0131180D01*
X0375445Y0134204D02*
X0375445Y0136239D01*
X0375445Y0135222D02*
X0381550Y0135222D01*
X0381550Y0136239D02*
X0381550Y0134204D01*
X0385445Y0134204D02*
X0385445Y0136239D01*
X0385445Y0135222D02*
X0391550Y0135222D01*
X0391550Y0136239D02*
X0391550Y0134204D01*
X0389515Y0131180D02*
X0389515Y0128127D01*
X0391550Y0128127D02*
X0385445Y0128127D01*
X0385445Y0131180D01*
X0386462Y0132197D01*
X0388497Y0132197D01*
X0389515Y0131180D01*
X0395445Y0131180D02*
X0396462Y0132197D01*
X0398497Y0132197D01*
X0399515Y0131180D01*
X0399515Y0128127D01*
X0401550Y0128127D02*
X0395445Y0128127D01*
X0395445Y0131180D01*
X0395445Y0134204D02*
X0395445Y0136239D01*
X0395445Y0135222D02*
X0401550Y0135222D01*
X0401550Y0136239D02*
X0401550Y0134204D01*
X0405445Y0134204D02*
X0405445Y0136239D01*
X0405445Y0135222D02*
X0411550Y0135222D01*
X0411550Y0136239D02*
X0411550Y0134204D01*
X0409515Y0131180D02*
X0409515Y0128127D01*
X0411550Y0128127D02*
X0405445Y0128127D01*
X0405445Y0131180D01*
X0406462Y0132197D01*
X0408497Y0132197D01*
X0409515Y0131180D01*
X0410532Y0126120D02*
X0408497Y0126120D01*
X0408497Y0124085D01*
X0406462Y0122050D02*
X0410532Y0122050D01*
X0411550Y0123068D01*
X0411550Y0125103D01*
X0410532Y0126120D01*
X0406462Y0126120D02*
X0405445Y0125103D01*
X0405445Y0123068D01*
X0406462Y0122050D01*
X0401550Y0123068D02*
X0401550Y0125103D01*
X0400532Y0126120D01*
X0398497Y0126120D01*
X0398497Y0124085D01*
X0396462Y0122050D02*
X0400532Y0122050D01*
X0401550Y0123068D01*
X0396462Y0122050D02*
X0395445Y0123068D01*
X0395445Y0125103D01*
X0396462Y0126120D01*
X0391550Y0125103D02*
X0391550Y0123068D01*
X0390532Y0122050D01*
X0386462Y0122050D01*
X0385445Y0123068D01*
X0385445Y0125103D01*
X0386462Y0126120D01*
X0388497Y0126120D02*
X0388497Y0124085D01*
X0388497Y0126120D02*
X0390532Y0126120D01*
X0391550Y0125103D01*
X0381550Y0125103D02*
X0381550Y0123068D01*
X0380532Y0122050D01*
X0376462Y0122050D01*
X0375445Y0123068D01*
X0375445Y0125103D01*
X0376462Y0126120D01*
X0378497Y0126120D02*
X0378497Y0124085D01*
X0378497Y0126120D02*
X0380532Y0126120D01*
X0381550Y0125103D01*
X0371550Y0125103D02*
X0371550Y0123068D01*
X0370532Y0122050D01*
X0366462Y0122050D01*
X0365445Y0123068D01*
X0365445Y0125103D01*
X0366462Y0126120D01*
X0368497Y0126120D02*
X0368497Y0124085D01*
X0368497Y0126120D02*
X0370532Y0126120D01*
X0371550Y0125103D01*
X0361550Y0125103D02*
X0361550Y0123068D01*
X0360532Y0122050D01*
X0356462Y0122050D01*
X0355445Y0123068D01*
X0355445Y0125103D01*
X0356462Y0126120D01*
X0358497Y0126120D02*
X0358497Y0124085D01*
X0358497Y0126120D02*
X0360532Y0126120D01*
X0361550Y0125103D01*
X0361550Y0128127D02*
X0355445Y0128127D01*
X0355445Y0131180D01*
X0356462Y0132197D01*
X0358497Y0132197D01*
X0359515Y0131180D01*
X0359515Y0128127D01*
X0351550Y0128127D02*
X0345445Y0128127D01*
X0345445Y0131180D01*
X0346462Y0132197D01*
X0348497Y0132197D01*
X0349515Y0131180D01*
X0349515Y0128127D01*
X0350532Y0126120D02*
X0348497Y0126120D01*
X0348497Y0124085D01*
X0346462Y0122050D02*
X0350532Y0122050D01*
X0351550Y0123068D01*
X0351550Y0125103D01*
X0350532Y0126120D01*
X0346462Y0126120D02*
X0345445Y0125103D01*
X0345445Y0123068D01*
X0346462Y0122050D01*
X0341550Y0123068D02*
X0341550Y0125103D01*
X0340532Y0126120D01*
X0338497Y0126120D01*
X0338497Y0124085D01*
X0336462Y0122050D02*
X0335445Y0123068D01*
X0335445Y0125103D01*
X0336462Y0126120D01*
X0335445Y0128127D02*
X0335445Y0131180D01*
X0336462Y0132197D01*
X0338497Y0132197D01*
X0339515Y0131180D01*
X0339515Y0128127D01*
X0341550Y0128127D02*
X0335445Y0128127D01*
X0331550Y0128127D02*
X0325445Y0128127D01*
X0325445Y0131180D01*
X0326462Y0132197D01*
X0328497Y0132197D01*
X0329515Y0131180D01*
X0329515Y0128127D01*
X0330532Y0126120D02*
X0328497Y0126120D01*
X0328497Y0124085D01*
X0326462Y0122050D02*
X0325445Y0123068D01*
X0325445Y0125103D01*
X0326462Y0126120D01*
X0330532Y0126120D02*
X0331550Y0125103D01*
X0331550Y0123068D01*
X0330532Y0122050D01*
X0326462Y0122050D01*
X0321550Y0123068D02*
X0321550Y0125103D01*
X0320532Y0126120D01*
X0318497Y0126120D01*
X0318497Y0124085D01*
X0316462Y0122050D02*
X0315445Y0123068D01*
X0315445Y0125103D01*
X0316462Y0126120D01*
X0315445Y0128127D02*
X0315445Y0131180D01*
X0316462Y0132197D01*
X0318497Y0132197D01*
X0319515Y0131180D01*
X0319515Y0128127D01*
X0321550Y0128127D02*
X0315445Y0128127D01*
X0320532Y0122050D02*
X0321550Y0123068D01*
X0320532Y0122050D02*
X0316462Y0122050D01*
X0336462Y0122050D02*
X0340532Y0122050D01*
X0341550Y0123068D01*
X0341550Y0134204D02*
X0341550Y0136239D01*
X0341550Y0135222D02*
X0335445Y0135222D01*
X0335445Y0136239D02*
X0335445Y0134204D01*
X0331550Y0134204D02*
X0331550Y0136239D01*
X0331550Y0135222D02*
X0325445Y0135222D01*
X0325445Y0136239D02*
X0325445Y0134204D01*
X0321550Y0134204D02*
X0321550Y0136239D01*
X0321550Y0135222D02*
X0315445Y0135222D01*
X0315445Y0136239D02*
X0315445Y0134204D01*
X0316462Y0138256D02*
X0320532Y0138256D01*
X0321550Y0139273D01*
X0321550Y0141308D01*
X0320532Y0142326D01*
X0316462Y0142326D01*
X0315445Y0141308D01*
X0315445Y0139273D01*
X0316462Y0138256D01*
X0325445Y0139273D02*
X0326462Y0138256D01*
X0330532Y0138256D01*
X0331550Y0139273D01*
X0331550Y0141308D01*
X0330532Y0142326D01*
X0326462Y0142326D01*
X0325445Y0141308D01*
X0325445Y0139273D01*
X0335445Y0139273D02*
X0336462Y0138256D01*
X0340532Y0138256D01*
X0341550Y0139273D01*
X0341550Y0141308D01*
X0340532Y0142326D01*
X0336462Y0142326D01*
X0335445Y0141308D01*
X0335445Y0139273D01*
X0345445Y0136239D02*
X0345445Y0134204D01*
X0345445Y0135222D02*
X0351550Y0135222D01*
X0351550Y0136239D02*
X0351550Y0134204D01*
X0355445Y0134204D02*
X0355445Y0136239D01*
X0355445Y0135222D02*
X0361550Y0135222D01*
X0361550Y0136239D02*
X0361550Y0134204D01*
X0385445Y0139273D02*
X0386462Y0138256D01*
X0390532Y0138256D01*
X0391550Y0139273D01*
X0391550Y0141308D01*
X0390532Y0142326D01*
X0386462Y0142326D01*
X0385445Y0141308D01*
X0385445Y0139273D01*
X0395445Y0139273D02*
X0396462Y0138256D01*
X0400532Y0138256D01*
X0401550Y0139273D01*
X0401550Y0141308D01*
X0400532Y0142326D01*
X0396462Y0142326D01*
X0395445Y0141308D01*
X0395445Y0139273D01*
X0405445Y0139273D02*
X0406462Y0138256D01*
X0410532Y0138256D01*
X0411550Y0139273D01*
X0411550Y0141308D01*
X0410532Y0142326D01*
X0406462Y0142326D01*
X0405445Y0141308D01*
X0405445Y0139273D01*
X0407480Y0144333D02*
X0405445Y0146368D01*
X0411550Y0146368D01*
X0411550Y0144333D02*
X0411550Y0148403D01*
X0410532Y0150410D02*
X0411550Y0151428D01*
X0411550Y0153463D01*
X0410532Y0154480D01*
X0409515Y0154480D01*
X0408497Y0153463D01*
X0408497Y0152445D01*
X0408497Y0153463D02*
X0407480Y0154480D01*
X0406462Y0154480D01*
X0405445Y0153463D01*
X0405445Y0151428D01*
X0406462Y0150410D01*
X0401550Y0148403D02*
X0401550Y0144333D01*
X0401550Y0146368D02*
X0395445Y0146368D01*
X0397480Y0144333D01*
X0391550Y0144333D02*
X0391550Y0148403D01*
X0391550Y0146368D02*
X0385445Y0146368D01*
X0387480Y0144333D01*
X0388497Y0150410D02*
X0385445Y0150410D01*
X0385445Y0154480D01*
X0387480Y0153463D02*
X0387480Y0152445D01*
X0388497Y0150410D01*
X0390532Y0150410D02*
X0391550Y0151428D01*
X0391550Y0153463D01*
X0390532Y0154480D01*
X0388497Y0154480D01*
X0387480Y0153463D01*
X0395445Y0153463D02*
X0398497Y0150410D01*
X0398497Y0154480D01*
X0395445Y0153463D02*
X0401550Y0153463D01*
X0341550Y0153463D02*
X0341550Y0151428D01*
X0340532Y0150410D01*
X0340532Y0148403D02*
X0339515Y0148403D01*
X0338497Y0147386D01*
X0338497Y0146368D01*
X0338497Y0147386D02*
X0337480Y0148403D01*
X0336462Y0148403D01*
X0335445Y0147386D01*
X0335445Y0145351D01*
X0336462Y0144333D01*
X0340532Y0144333D02*
X0341550Y0145351D01*
X0341550Y0147386D01*
X0340532Y0148403D01*
X0338497Y0150410D02*
X0337480Y0152445D01*
X0337480Y0153463D01*
X0338497Y0154480D01*
X0340532Y0154480D01*
X0341550Y0153463D01*
X0335445Y0154480D02*
X0335445Y0150410D01*
X0338497Y0150410D01*
X0331550Y0151428D02*
X0331550Y0153463D01*
X0330532Y0154480D01*
X0329515Y0154480D01*
X0328497Y0153463D01*
X0328497Y0150410D01*
X0330532Y0150410D01*
X0331550Y0151428D01*
X0328497Y0150410D02*
X0326462Y0152445D01*
X0325445Y0154480D01*
X0321550Y0153463D02*
X0321550Y0151428D01*
X0320532Y0150410D01*
X0320532Y0148403D02*
X0321550Y0147386D01*
X0321550Y0145351D01*
X0320532Y0144333D01*
X0318497Y0146368D02*
X0318497Y0147386D01*
X0319515Y0148403D01*
X0320532Y0148403D01*
X0318497Y0147386D02*
X0317480Y0148403D01*
X0316462Y0148403D01*
X0315445Y0147386D01*
X0315445Y0145351D01*
X0316462Y0144333D01*
X0316462Y0150410D02*
X0317480Y0150410D01*
X0318497Y0151428D01*
X0318497Y0154480D01*
X0316462Y0154480D02*
X0315445Y0153463D01*
X0315445Y0151428D01*
X0316462Y0150410D01*
X0316462Y0154480D02*
X0320532Y0154480D01*
X0321550Y0153463D01*
X0314350Y0157501D02*
X0314350Y0158251D01*
X0313599Y0159002D01*
X0309846Y0159002D01*
X0309846Y0158251D02*
X0309846Y0159753D01*
X0309846Y0161354D02*
X0309846Y0163606D01*
X0310597Y0164356D01*
X0312098Y0164356D01*
X0312849Y0163606D01*
X0312849Y0161354D01*
X0314350Y0161354D02*
X0309846Y0161354D01*
X0314350Y0157501D02*
X0313599Y0156750D01*
X0314350Y0165958D02*
X0311347Y0168960D01*
X0310597Y0168960D01*
X0309846Y0168210D01*
X0309846Y0166708D01*
X0310597Y0165958D01*
X0314350Y0165958D02*
X0314350Y0168960D01*
X0326462Y0148403D02*
X0327480Y0148403D01*
X0328497Y0147386D01*
X0329515Y0148403D01*
X0330532Y0148403D01*
X0331550Y0147386D01*
X0331550Y0145351D01*
X0330532Y0144333D01*
X0328497Y0146368D02*
X0328497Y0147386D01*
X0326462Y0148403D02*
X0325445Y0147386D01*
X0325445Y0145351D01*
X0326462Y0144333D01*
X0345445Y0106506D02*
X0351550Y0106506D01*
X0345445Y0102436D01*
X0351550Y0102436D01*
X0351550Y0100429D02*
X0351550Y0096359D01*
X0345445Y0096359D01*
X0345445Y0100429D01*
X0348497Y0098394D02*
X0348497Y0096359D01*
X0352568Y0094352D02*
X0352568Y0090282D01*
X0355445Y0089273D02*
X0355445Y0091308D01*
X0356462Y0092326D01*
X0360532Y0092326D01*
X0361550Y0091308D01*
X0361550Y0089273D01*
X0360532Y0088256D01*
X0356462Y0088256D01*
X0355445Y0089273D01*
X0355445Y0086239D02*
X0355445Y0084204D01*
X0355445Y0085222D02*
X0361550Y0085222D01*
X0361550Y0086239D02*
X0361550Y0084204D01*
X0359515Y0081180D02*
X0359515Y0078127D01*
X0361550Y0078127D02*
X0355445Y0078127D01*
X0355445Y0081180D01*
X0356462Y0082197D01*
X0358497Y0082197D01*
X0359515Y0081180D01*
X0365445Y0081180D02*
X0366462Y0082197D01*
X0368497Y0082197D01*
X0369515Y0081180D01*
X0369515Y0078127D01*
X0371550Y0078127D02*
X0365445Y0078127D01*
X0365445Y0081180D01*
X0365445Y0084204D02*
X0365445Y0086239D01*
X0365445Y0085222D02*
X0371550Y0085222D01*
X0371550Y0086239D02*
X0371550Y0084204D01*
X0375445Y0084204D02*
X0375445Y0086239D01*
X0375445Y0085222D02*
X0381550Y0085222D01*
X0381550Y0086239D02*
X0381550Y0084204D01*
X0379515Y0081180D02*
X0379515Y0078127D01*
X0381550Y0078127D02*
X0375445Y0078127D01*
X0375445Y0081180D01*
X0376462Y0082197D01*
X0378497Y0082197D01*
X0379515Y0081180D01*
X0385445Y0081180D02*
X0386462Y0082197D01*
X0388497Y0082197D01*
X0389515Y0081180D01*
X0389515Y0078127D01*
X0391550Y0078127D02*
X0385445Y0078127D01*
X0385445Y0081180D01*
X0385445Y0084204D02*
X0385445Y0086239D01*
X0385445Y0085222D02*
X0391550Y0085222D01*
X0391550Y0086239D02*
X0391550Y0084204D01*
X0395445Y0084204D02*
X0395445Y0086239D01*
X0395445Y0085222D02*
X0401550Y0085222D01*
X0401550Y0086239D02*
X0401550Y0084204D01*
X0399515Y0081180D02*
X0399515Y0078127D01*
X0401550Y0078127D02*
X0395445Y0078127D01*
X0395445Y0081180D01*
X0396462Y0082197D01*
X0398497Y0082197D01*
X0399515Y0081180D01*
X0405445Y0081180D02*
X0406462Y0082197D01*
X0408497Y0082197D01*
X0409515Y0081180D01*
X0409515Y0078127D01*
X0411550Y0078127D02*
X0405445Y0078127D01*
X0405445Y0081180D01*
X0405445Y0084204D02*
X0405445Y0086239D01*
X0405445Y0085222D02*
X0411550Y0085222D01*
X0411550Y0086239D02*
X0411550Y0084204D01*
X0410532Y0088256D02*
X0406462Y0088256D01*
X0405445Y0089273D01*
X0405445Y0091308D01*
X0406462Y0092326D01*
X0410532Y0092326D01*
X0411550Y0091308D01*
X0411550Y0089273D01*
X0410532Y0088256D01*
X0401550Y0089273D02*
X0401550Y0091308D01*
X0400532Y0092326D01*
X0396462Y0092326D01*
X0395445Y0091308D01*
X0395445Y0089273D01*
X0396462Y0088256D01*
X0400532Y0088256D01*
X0401550Y0089273D01*
X0391550Y0089273D02*
X0391550Y0091308D01*
X0390532Y0092326D01*
X0386462Y0092326D01*
X0385445Y0091308D01*
X0385445Y0089273D01*
X0386462Y0088256D01*
X0390532Y0088256D01*
X0391550Y0089273D01*
X0381550Y0089273D02*
X0381550Y0091308D01*
X0380532Y0092326D01*
X0376462Y0092326D01*
X0375445Y0091308D01*
X0375445Y0089273D01*
X0376462Y0088256D01*
X0380532Y0088256D01*
X0381550Y0089273D01*
X0371550Y0089273D02*
X0371550Y0091308D01*
X0370532Y0092326D01*
X0366462Y0092326D01*
X0365445Y0091308D01*
X0365445Y0089273D01*
X0366462Y0088256D01*
X0370532Y0088256D01*
X0371550Y0089273D01*
X0370532Y0094333D02*
X0366462Y0094333D01*
X0365445Y0095351D01*
X0365445Y0097386D01*
X0366462Y0098403D01*
X0370532Y0094333D01*
X0371550Y0095351D01*
X0371550Y0097386D01*
X0370532Y0098403D01*
X0366462Y0098403D01*
X0367480Y0100410D02*
X0365445Y0102445D01*
X0371550Y0102445D01*
X0371550Y0100410D02*
X0371550Y0104480D01*
X0375445Y0103463D02*
X0375445Y0101428D01*
X0376462Y0100410D01*
X0376462Y0098403D02*
X0380532Y0094333D01*
X0381550Y0095351D01*
X0381550Y0097386D01*
X0380532Y0098403D01*
X0376462Y0098403D01*
X0375445Y0097386D01*
X0375445Y0095351D01*
X0376462Y0094333D01*
X0380532Y0094333D01*
X0385445Y0095351D02*
X0385445Y0097386D01*
X0386462Y0098403D01*
X0390532Y0094333D01*
X0391550Y0095351D01*
X0391550Y0097386D01*
X0390532Y0098403D01*
X0386462Y0098403D01*
X0386462Y0100410D02*
X0385445Y0101428D01*
X0385445Y0103463D01*
X0386462Y0104480D01*
X0387480Y0104480D01*
X0388497Y0103463D01*
X0389515Y0104480D01*
X0390532Y0104480D01*
X0391550Y0103463D01*
X0391550Y0101428D01*
X0390532Y0100410D01*
X0388497Y0102445D02*
X0388497Y0103463D01*
X0395445Y0103463D02*
X0398497Y0100410D01*
X0398497Y0104480D01*
X0395445Y0103463D02*
X0401550Y0103463D01*
X0405445Y0104480D02*
X0405445Y0100410D01*
X0408497Y0100410D01*
X0407480Y0102445D01*
X0407480Y0103463D01*
X0408497Y0104480D01*
X0410532Y0104480D01*
X0411550Y0103463D01*
X0411550Y0101428D01*
X0410532Y0100410D01*
X0410532Y0098403D02*
X0411550Y0097386D01*
X0411550Y0095351D01*
X0410532Y0094333D01*
X0406462Y0098403D01*
X0410532Y0098403D01*
X0406462Y0098403D02*
X0405445Y0097386D01*
X0405445Y0095351D01*
X0406462Y0094333D01*
X0410532Y0094333D01*
X0401550Y0095351D02*
X0400532Y0094333D01*
X0396462Y0098403D01*
X0400532Y0098403D01*
X0401550Y0097386D01*
X0401550Y0095351D01*
X0400532Y0094333D02*
X0396462Y0094333D01*
X0395445Y0095351D01*
X0395445Y0097386D01*
X0396462Y0098403D01*
X0390532Y0094333D02*
X0386462Y0094333D01*
X0385445Y0095351D01*
X0381550Y0100410D02*
X0377480Y0104480D01*
X0376462Y0104480D01*
X0375445Y0103463D01*
X0381550Y0104480D02*
X0381550Y0100410D01*
X0361550Y0101428D02*
X0360532Y0100410D01*
X0356462Y0104480D01*
X0360532Y0104480D01*
X0361550Y0103463D01*
X0361550Y0101428D01*
X0360532Y0100410D02*
X0356462Y0100410D01*
X0355445Y0101428D01*
X0355445Y0103463D01*
X0356462Y0104480D01*
X0356462Y0098403D02*
X0360532Y0094333D01*
X0361550Y0095351D01*
X0361550Y0097386D01*
X0360532Y0098403D01*
X0356462Y0098403D01*
X0355445Y0097386D01*
X0355445Y0095351D01*
X0356462Y0094333D01*
X0360532Y0094333D01*
X0349515Y0087257D02*
X0348497Y0088275D01*
X0346462Y0088275D01*
X0345445Y0087257D01*
X0345445Y0084204D01*
X0351550Y0084204D01*
X0349515Y0084204D02*
X0349515Y0087257D01*
X0341550Y0087257D02*
X0341550Y0084204D01*
X0335445Y0084204D01*
X0335445Y0087257D01*
X0336462Y0088275D01*
X0340532Y0088275D01*
X0341550Y0087257D01*
X0341550Y0082197D02*
X0335445Y0082197D01*
X0331550Y0082183D02*
X0331550Y0084218D01*
X0330532Y0085236D01*
X0329515Y0085236D01*
X0328497Y0084218D01*
X0328497Y0083201D01*
X0328497Y0084218D02*
X0327480Y0085236D01*
X0326462Y0085236D01*
X0325445Y0084218D01*
X0325445Y0082183D01*
X0326462Y0081166D01*
X0330532Y0081166D02*
X0331550Y0082183D01*
X0331550Y0079145D02*
X0331550Y0078127D01*
X0330532Y0078127D01*
X0330532Y0079145D01*
X0331550Y0079145D01*
X0335445Y0078127D02*
X0341550Y0082197D01*
X0345445Y0081180D02*
X0345445Y0079145D01*
X0346462Y0078127D01*
X0347480Y0078127D01*
X0348497Y0079145D01*
X0348497Y0081180D01*
X0349515Y0082197D01*
X0350532Y0082197D01*
X0351550Y0081180D01*
X0351550Y0079145D01*
X0350532Y0078127D01*
X0351550Y0076120D02*
X0351550Y0072050D01*
X0345445Y0072050D01*
X0345445Y0076120D01*
X0348497Y0074085D02*
X0348497Y0072050D01*
X0341550Y0073068D02*
X0341550Y0075103D01*
X0340532Y0076120D01*
X0338497Y0076120D01*
X0338497Y0074085D01*
X0336462Y0072050D02*
X0335445Y0073068D01*
X0335445Y0075103D01*
X0336462Y0076120D01*
X0335445Y0078127D02*
X0341550Y0078127D01*
X0345445Y0081180D02*
X0346462Y0082197D01*
X0355445Y0075103D02*
X0355445Y0073068D01*
X0356462Y0072050D01*
X0360532Y0072050D01*
X0361550Y0073068D01*
X0361550Y0075103D01*
X0360532Y0076120D01*
X0358497Y0076120D01*
X0358497Y0074085D01*
X0356462Y0076120D02*
X0355445Y0075103D01*
X0365445Y0075103D02*
X0365445Y0073068D01*
X0366462Y0072050D01*
X0370532Y0072050D01*
X0371550Y0073068D01*
X0371550Y0075103D01*
X0370532Y0076120D01*
X0368497Y0076120D01*
X0368497Y0074085D01*
X0366462Y0076120D02*
X0365445Y0075103D01*
X0375445Y0075103D02*
X0375445Y0073068D01*
X0376462Y0072050D01*
X0380532Y0072050D01*
X0381550Y0073068D01*
X0381550Y0075103D01*
X0380532Y0076120D01*
X0378497Y0076120D01*
X0378497Y0074085D01*
X0376462Y0076120D02*
X0375445Y0075103D01*
X0385445Y0075103D02*
X0385445Y0073068D01*
X0386462Y0072050D01*
X0390532Y0072050D01*
X0391550Y0073068D01*
X0391550Y0075103D01*
X0390532Y0076120D01*
X0388497Y0076120D01*
X0388497Y0074085D01*
X0386462Y0076120D02*
X0385445Y0075103D01*
X0395445Y0075103D02*
X0395445Y0073068D01*
X0396462Y0072050D01*
X0400532Y0072050D01*
X0401550Y0073068D01*
X0401550Y0075103D01*
X0400532Y0076120D01*
X0398497Y0076120D01*
X0398497Y0074085D01*
X0396462Y0076120D02*
X0395445Y0075103D01*
X0405445Y0075103D02*
X0405445Y0073068D01*
X0406462Y0072050D01*
X0410532Y0072050D01*
X0411550Y0073068D01*
X0411550Y0075103D01*
X0410532Y0076120D01*
X0408497Y0076120D01*
X0408497Y0074085D01*
X0406462Y0076120D02*
X0405445Y0075103D01*
X0436750Y0073754D02*
X0436750Y0069250D01*
X0439002Y0069250D01*
X0439753Y0070001D01*
X0439753Y0070751D01*
X0439002Y0071502D01*
X0436750Y0071502D01*
X0436750Y0073754D02*
X0439002Y0073754D01*
X0439753Y0073003D01*
X0439753Y0072253D01*
X0439002Y0071502D01*
X0441354Y0069250D02*
X0441354Y0073754D01*
X0442855Y0072253D01*
X0444356Y0073754D01*
X0444356Y0069250D01*
X0445958Y0069250D02*
X0448960Y0069250D01*
X0450562Y0069250D02*
X0453564Y0072253D01*
X0453564Y0073003D01*
X0452814Y0073754D01*
X0451312Y0073754D01*
X0450562Y0073003D01*
X0448960Y0073754D02*
X0445958Y0073754D01*
X0445958Y0069250D01*
X0445958Y0071502D02*
X0447459Y0071502D01*
X0450562Y0069250D02*
X0453564Y0069250D01*
X0455166Y0070001D02*
X0455166Y0070751D01*
X0455916Y0071502D01*
X0457418Y0071502D01*
X0458168Y0070751D01*
X0458168Y0070001D01*
X0457418Y0069250D01*
X0455916Y0069250D01*
X0455166Y0070001D01*
X0455916Y0071502D02*
X0455166Y0072253D01*
X0455166Y0073003D01*
X0455916Y0073754D01*
X0457418Y0073754D01*
X0458168Y0073003D01*
X0458168Y0072253D01*
X0457418Y0071502D01*
X0459770Y0070001D02*
X0459770Y0073003D01*
X0460520Y0073754D01*
X0462022Y0073754D01*
X0462772Y0073003D01*
X0459770Y0070001D01*
X0460520Y0069250D01*
X0462022Y0069250D01*
X0462772Y0070001D01*
X0462772Y0073003D01*
X0341550Y0073068D02*
X0340532Y0072050D01*
X0336462Y0072050D01*
X0331550Y0073068D02*
X0330532Y0072050D01*
X0331550Y0073068D02*
X0331550Y0075103D01*
X0330532Y0076120D01*
X0329515Y0076120D01*
X0328497Y0075103D01*
X0328497Y0074085D01*
X0328497Y0075103D02*
X0327480Y0076120D01*
X0326462Y0076120D01*
X0325445Y0075103D01*
X0325445Y0073068D01*
X0326462Y0072050D01*
X0321550Y0073068D02*
X0320532Y0072050D01*
X0321550Y0073068D02*
X0321550Y0075103D01*
X0320532Y0076120D01*
X0318497Y0076120D01*
X0317480Y0075103D01*
X0317480Y0074085D01*
X0318497Y0072050D01*
X0315445Y0072050D01*
X0315445Y0076120D01*
X0315445Y0078127D02*
X0319515Y0078127D01*
X0321550Y0080162D01*
X0319515Y0082197D01*
X0315445Y0082197D01*
X0325445Y0087243D02*
X0329515Y0087243D01*
X0331550Y0089278D01*
X0329515Y0091313D01*
X0325445Y0091313D01*
X0314350Y0068960D02*
X0314350Y0065958D01*
X0314350Y0067459D02*
X0309846Y0067459D01*
X0311347Y0065958D01*
X0310597Y0064356D02*
X0312098Y0064356D01*
X0312849Y0063606D01*
X0312849Y0061354D01*
X0314350Y0061354D02*
X0309846Y0061354D01*
X0309846Y0063606D01*
X0310597Y0064356D01*
X0309846Y0059753D02*
X0309846Y0058251D01*
X0309846Y0059002D02*
X0313599Y0059002D01*
X0314350Y0058251D01*
X0314350Y0057501D01*
X0313599Y0056750D01*
X0258960Y0069250D02*
X0255958Y0069250D01*
X0257459Y0069250D02*
X0257459Y0073754D01*
X0255958Y0072253D01*
X0254356Y0073003D02*
X0253606Y0073754D01*
X0252105Y0073754D01*
X0251354Y0073003D01*
X0251354Y0070001D01*
X0252105Y0069250D01*
X0253606Y0069250D01*
X0254356Y0070001D01*
X0249753Y0073754D02*
X0246750Y0073754D01*
X0248251Y0073754D02*
X0248251Y0069250D01*
X0188960Y0069250D02*
X0185958Y0069250D01*
X0188960Y0072253D01*
X0188960Y0073003D01*
X0188210Y0073754D01*
X0186708Y0073754D01*
X0185958Y0073003D01*
X0184356Y0073003D02*
X0183606Y0073754D01*
X0182105Y0073754D01*
X0181354Y0073003D01*
X0181354Y0070001D01*
X0182105Y0069250D01*
X0183606Y0069250D01*
X0184356Y0070001D01*
X0179753Y0073754D02*
X0176750Y0073754D01*
X0178251Y0073754D02*
X0178251Y0069250D01*
X0118960Y0070001D02*
X0118210Y0069250D01*
X0116708Y0069250D01*
X0115958Y0070001D01*
X0114356Y0070001D02*
X0113606Y0069250D01*
X0112105Y0069250D01*
X0111354Y0070001D01*
X0111354Y0073003D01*
X0112105Y0073754D01*
X0113606Y0073754D01*
X0114356Y0073003D01*
X0115958Y0073003D02*
X0116708Y0073754D01*
X0118210Y0073754D01*
X0118960Y0073003D01*
X0118960Y0072253D01*
X0118210Y0071502D01*
X0118960Y0070751D01*
X0118960Y0070001D01*
X0118210Y0071502D02*
X0117459Y0071502D01*
X0109753Y0073754D02*
X0106750Y0073754D01*
X0108251Y0073754D02*
X0108251Y0069250D01*
X0048960Y0071502D02*
X0045958Y0071502D01*
X0048210Y0073754D01*
X0048210Y0069250D01*
X0044356Y0070001D02*
X0043606Y0069250D01*
X0042105Y0069250D01*
X0041354Y0070001D01*
X0041354Y0073003D01*
X0042105Y0073754D01*
X0043606Y0073754D01*
X0044356Y0073003D01*
X0039753Y0073754D02*
X0036750Y0073754D01*
X0038251Y0073754D02*
X0038251Y0069250D01*
D12*
X0061079Y0038567D02*
X0061696Y0037950D01*
X0062930Y0037950D01*
X0063548Y0038567D01*
X0063548Y0039802D01*
X0062313Y0039802D01*
X0061079Y0041036D02*
X0061079Y0038567D01*
X0061079Y0041036D02*
X0061696Y0041653D01*
X0062930Y0041653D01*
X0063548Y0041036D01*
X0064762Y0041653D02*
X0064762Y0037950D01*
X0064762Y0039184D02*
X0066614Y0039184D01*
X0067231Y0039802D01*
X0067231Y0041036D01*
X0066614Y0041653D01*
X0064762Y0041653D01*
X0068445Y0041653D02*
X0069680Y0041653D01*
X0069062Y0041653D02*
X0069062Y0037950D01*
X0068445Y0037950D02*
X0069680Y0037950D01*
X0070901Y0038567D02*
X0071518Y0037950D01*
X0072752Y0037950D01*
X0073369Y0038567D01*
X0073369Y0041036D01*
X0072752Y0041653D01*
X0071518Y0041653D01*
X0070901Y0041036D01*
X0070901Y0038567D01*
X0074584Y0038567D02*
X0075201Y0037950D01*
X0076435Y0037950D01*
X0077052Y0038567D01*
X0077052Y0039184D01*
X0076435Y0039802D01*
X0075818Y0039802D01*
X0076435Y0039802D02*
X0077052Y0040419D01*
X0077052Y0041036D01*
X0076435Y0041653D01*
X0075201Y0041653D01*
X0074584Y0041036D01*
X0078267Y0041036D02*
X0078884Y0041653D01*
X0080118Y0041653D01*
X0080736Y0041036D01*
X0080736Y0040419D01*
X0080118Y0039802D01*
X0080736Y0039184D01*
X0080736Y0038567D01*
X0080118Y0037950D01*
X0078884Y0037950D01*
X0078267Y0038567D01*
X0079501Y0039802D02*
X0080118Y0039802D01*
X0131079Y0041036D02*
X0131079Y0038567D01*
X0131696Y0037950D01*
X0132930Y0037950D01*
X0133548Y0038567D01*
X0133548Y0039802D01*
X0132313Y0039802D01*
X0131079Y0041036D02*
X0131696Y0041653D01*
X0132930Y0041653D01*
X0133548Y0041036D01*
X0134762Y0041653D02*
X0134762Y0037950D01*
X0134762Y0039184D02*
X0136614Y0039184D01*
X0137231Y0039802D01*
X0137231Y0041036D01*
X0136614Y0041653D01*
X0134762Y0041653D01*
X0138445Y0041653D02*
X0139680Y0041653D01*
X0139062Y0041653D02*
X0139062Y0037950D01*
X0138445Y0037950D02*
X0139680Y0037950D01*
X0140901Y0038567D02*
X0141518Y0037950D01*
X0142752Y0037950D01*
X0143369Y0038567D01*
X0143369Y0041036D01*
X0142752Y0041653D01*
X0141518Y0041653D01*
X0140901Y0041036D01*
X0140901Y0038567D01*
X0144584Y0038567D02*
X0145201Y0037950D01*
X0146435Y0037950D01*
X0147052Y0038567D01*
X0147052Y0039184D01*
X0146435Y0039802D01*
X0145818Y0039802D01*
X0146435Y0039802D02*
X0147052Y0040419D01*
X0147052Y0041036D01*
X0146435Y0041653D01*
X0145201Y0041653D01*
X0144584Y0041036D01*
X0148267Y0041036D02*
X0148884Y0041653D01*
X0150118Y0041653D01*
X0150736Y0041036D01*
X0150736Y0040419D01*
X0148267Y0037950D01*
X0150736Y0037950D01*
X0201079Y0038567D02*
X0201696Y0037950D01*
X0202930Y0037950D01*
X0203548Y0038567D01*
X0203548Y0039802D01*
X0202313Y0039802D01*
X0201079Y0041036D02*
X0201079Y0038567D01*
X0201079Y0041036D02*
X0201696Y0041653D01*
X0202930Y0041653D01*
X0203548Y0041036D01*
X0204762Y0041653D02*
X0204762Y0037950D01*
X0204762Y0039184D02*
X0206614Y0039184D01*
X0207231Y0039802D01*
X0207231Y0041036D01*
X0206614Y0041653D01*
X0204762Y0041653D01*
X0208445Y0041653D02*
X0209680Y0041653D01*
X0209062Y0041653D02*
X0209062Y0037950D01*
X0208445Y0037950D02*
X0209680Y0037950D01*
X0210901Y0038567D02*
X0211518Y0037950D01*
X0212752Y0037950D01*
X0213369Y0038567D01*
X0213369Y0041036D01*
X0212752Y0041653D01*
X0211518Y0041653D01*
X0210901Y0041036D01*
X0210901Y0038567D01*
X0214584Y0037950D02*
X0217052Y0037950D01*
X0215818Y0037950D02*
X0215818Y0041653D01*
X0214584Y0040419D01*
X0218267Y0039802D02*
X0218267Y0038567D01*
X0218884Y0037950D01*
X0220118Y0037950D01*
X0220736Y0038567D01*
X0220736Y0039184D01*
X0220118Y0039802D01*
X0218267Y0039802D01*
X0219501Y0041036D01*
X0220736Y0041653D01*
X0271079Y0041036D02*
X0271079Y0038567D01*
X0271696Y0037950D01*
X0272930Y0037950D01*
X0273548Y0038567D01*
X0273548Y0039802D01*
X0272313Y0039802D01*
X0271079Y0041036D02*
X0271696Y0041653D01*
X0272930Y0041653D01*
X0273548Y0041036D01*
X0274762Y0041653D02*
X0274762Y0037950D01*
X0274762Y0039184D02*
X0276614Y0039184D01*
X0277231Y0039802D01*
X0277231Y0041036D01*
X0276614Y0041653D01*
X0274762Y0041653D01*
X0278445Y0041653D02*
X0279680Y0041653D01*
X0279062Y0041653D02*
X0279062Y0037950D01*
X0278445Y0037950D02*
X0279680Y0037950D01*
X0280901Y0038567D02*
X0281518Y0037950D01*
X0282752Y0037950D01*
X0283369Y0038567D01*
X0283369Y0041036D01*
X0282752Y0041653D01*
X0281518Y0041653D01*
X0280901Y0041036D01*
X0280901Y0038567D01*
X0284584Y0037950D02*
X0287052Y0037950D01*
X0285818Y0037950D02*
X0285818Y0041653D01*
X0284584Y0040419D01*
X0288267Y0039802D02*
X0288267Y0041653D01*
X0290736Y0041653D01*
X0290118Y0040419D02*
X0290736Y0039802D01*
X0290736Y0038567D01*
X0290118Y0037950D01*
X0288884Y0037950D01*
X0288267Y0038567D01*
X0288267Y0039802D02*
X0289501Y0040419D01*
X0290118Y0040419D01*
X0299199Y0039802D02*
X0301667Y0039802D01*
X0302882Y0040419D02*
X0305351Y0037950D01*
X0302882Y0037950D02*
X0305351Y0040419D01*
X0301050Y0041653D02*
X0301050Y0037950D01*
X0299199Y0039802D02*
X0301050Y0041653D01*
X0310248Y0041653D02*
X0312717Y0041653D01*
X0313931Y0041653D02*
X0313931Y0037950D01*
X0313931Y0039802D02*
X0314548Y0040419D01*
X0315783Y0040419D01*
X0316400Y0039802D01*
X0316400Y0037950D01*
X0317614Y0038567D02*
X0317614Y0039802D01*
X0318232Y0040419D01*
X0319466Y0040419D01*
X0320083Y0039802D01*
X0320083Y0039184D01*
X0317614Y0039184D01*
X0317614Y0038567D02*
X0318232Y0037950D01*
X0319466Y0037950D01*
X0321297Y0037950D02*
X0321297Y0040419D01*
X0321297Y0039184D02*
X0322532Y0040419D01*
X0323149Y0040419D01*
X0324367Y0040419D02*
X0324984Y0040419D01*
X0325601Y0039802D01*
X0326218Y0040419D01*
X0326836Y0039802D01*
X0326836Y0037950D01*
X0325601Y0037950D02*
X0325601Y0039802D01*
X0324367Y0040419D02*
X0324367Y0037950D01*
X0328050Y0038567D02*
X0328050Y0039802D01*
X0328667Y0040419D01*
X0329901Y0040419D01*
X0330519Y0039802D01*
X0330519Y0038567D01*
X0329901Y0037950D01*
X0328667Y0037950D01*
X0328050Y0038567D01*
X0331733Y0038567D02*
X0331733Y0039802D01*
X0332350Y0040419D01*
X0334202Y0040419D01*
X0335416Y0039802D02*
X0335416Y0038567D01*
X0336033Y0037950D01*
X0337268Y0037950D01*
X0337885Y0038567D01*
X0337885Y0039802D01*
X0337268Y0040419D01*
X0336033Y0040419D01*
X0335416Y0039802D01*
X0334202Y0037950D02*
X0332350Y0037950D01*
X0331733Y0038567D01*
X0339099Y0038567D02*
X0339099Y0040419D01*
X0339099Y0038567D02*
X0339717Y0037950D01*
X0341568Y0037950D01*
X0341568Y0040419D01*
X0342782Y0040419D02*
X0344634Y0040419D01*
X0345251Y0039802D01*
X0345251Y0038567D01*
X0344634Y0037950D01*
X0342782Y0037950D01*
X0342782Y0036716D02*
X0342782Y0040419D01*
X0346466Y0041653D02*
X0347083Y0041653D01*
X0347083Y0037950D01*
X0346466Y0037950D02*
X0347700Y0037950D01*
X0348921Y0038567D02*
X0348921Y0039802D01*
X0349538Y0040419D01*
X0350773Y0040419D01*
X0351390Y0039802D01*
X0351390Y0039184D01*
X0348921Y0039184D01*
X0348921Y0038567D02*
X0349538Y0037950D01*
X0350773Y0037950D01*
X0352604Y0037950D02*
X0352604Y0040419D01*
X0353839Y0040419D02*
X0354456Y0040419D01*
X0353839Y0040419D02*
X0352604Y0039184D01*
X0359357Y0039184D02*
X0359357Y0040419D01*
X0360591Y0041653D01*
X0361812Y0041653D02*
X0363046Y0040419D01*
X0364281Y0041653D01*
X0364281Y0037950D01*
X0365495Y0037950D02*
X0365495Y0040419D01*
X0366730Y0041653D01*
X0367964Y0040419D01*
X0367964Y0037950D01*
X0369178Y0037950D02*
X0371647Y0041653D01*
X0372861Y0039802D02*
X0374713Y0039802D01*
X0375330Y0039184D01*
X0375330Y0038567D01*
X0374713Y0037950D01*
X0373479Y0037950D01*
X0372861Y0038567D01*
X0372861Y0039802D01*
X0374096Y0041036D01*
X0375330Y0041653D01*
X0376545Y0039802D02*
X0378396Y0039802D01*
X0379013Y0039184D01*
X0379013Y0038567D01*
X0378396Y0037950D01*
X0377162Y0037950D01*
X0376545Y0038567D01*
X0376545Y0039802D01*
X0377779Y0041036D01*
X0379013Y0041653D01*
X0380228Y0041653D02*
X0382697Y0041653D01*
X0382697Y0041036D01*
X0380228Y0038567D01*
X0380228Y0037950D01*
X0383911Y0038567D02*
X0384528Y0037950D01*
X0385762Y0037950D01*
X0386380Y0038567D01*
X0386380Y0039802D01*
X0385762Y0040419D01*
X0385145Y0040419D01*
X0383911Y0039802D01*
X0383911Y0041653D01*
X0386380Y0041653D01*
X0387594Y0041653D02*
X0388828Y0040419D01*
X0388828Y0039184D01*
X0387594Y0037950D01*
X0393733Y0038567D02*
X0394350Y0039184D01*
X0396201Y0039184D01*
X0396201Y0039802D02*
X0396201Y0037950D01*
X0394350Y0037950D01*
X0393733Y0038567D01*
X0394350Y0040419D02*
X0395584Y0040419D01*
X0396201Y0039802D01*
X0397416Y0040419D02*
X0399267Y0040419D01*
X0399885Y0039802D01*
X0399885Y0037950D01*
X0401099Y0038567D02*
X0401099Y0039802D01*
X0401716Y0040419D01*
X0403568Y0040419D01*
X0403568Y0041653D02*
X0403568Y0037950D01*
X0401716Y0037950D01*
X0401099Y0038567D01*
X0397416Y0037950D02*
X0397416Y0040419D01*
X0408465Y0039802D02*
X0410317Y0039802D01*
X0410934Y0039184D01*
X0410934Y0038567D01*
X0410317Y0037950D01*
X0408465Y0037950D01*
X0408465Y0041653D01*
X0410317Y0041653D01*
X0410934Y0041036D01*
X0410934Y0040419D01*
X0410317Y0039802D01*
X0412148Y0041653D02*
X0413383Y0040419D01*
X0414617Y0041653D01*
X0414617Y0037950D01*
X0415831Y0037950D02*
X0418300Y0037950D01*
X0419515Y0037950D02*
X0421983Y0040419D01*
X0421983Y0041036D01*
X0421366Y0041653D01*
X0420132Y0041653D01*
X0419515Y0041036D01*
X0418300Y0041653D02*
X0415831Y0041653D01*
X0415831Y0037950D01*
X0415831Y0039802D02*
X0417066Y0039802D01*
X0419515Y0037950D02*
X0421983Y0037950D01*
X0423198Y0038567D02*
X0423198Y0039184D01*
X0423815Y0039802D01*
X0425049Y0039802D01*
X0425667Y0039184D01*
X0425667Y0038567D01*
X0425049Y0037950D01*
X0423815Y0037950D01*
X0423198Y0038567D01*
X0423815Y0039802D02*
X0423198Y0040419D01*
X0423198Y0041036D01*
X0423815Y0041653D01*
X0425049Y0041653D01*
X0425667Y0041036D01*
X0425667Y0040419D01*
X0425049Y0039802D01*
X0426881Y0041036D02*
X0427498Y0041653D01*
X0428732Y0041653D01*
X0429350Y0041036D01*
X0426881Y0038567D01*
X0427498Y0037950D01*
X0428732Y0037950D01*
X0429350Y0038567D01*
X0429350Y0041036D01*
X0426881Y0041036D02*
X0426881Y0038567D01*
X0434247Y0037950D02*
X0436716Y0037950D01*
X0437930Y0038567D02*
X0438548Y0037950D01*
X0439782Y0037950D01*
X0440399Y0038567D01*
X0440399Y0039184D01*
X0439782Y0039802D01*
X0438548Y0039802D01*
X0437930Y0040419D01*
X0437930Y0041036D01*
X0438548Y0041653D01*
X0439782Y0041653D01*
X0440399Y0041036D01*
X0441613Y0041653D02*
X0441613Y0037950D01*
X0441613Y0039184D02*
X0443465Y0039184D01*
X0444082Y0039802D01*
X0444082Y0041036D01*
X0443465Y0041653D01*
X0441613Y0041653D01*
X0445297Y0041036D02*
X0445914Y0041653D01*
X0447148Y0041653D01*
X0447765Y0041036D01*
X0447765Y0040419D01*
X0447148Y0039802D01*
X0447765Y0039184D01*
X0447765Y0038567D01*
X0447148Y0037950D01*
X0445914Y0037950D01*
X0445297Y0038567D01*
X0446531Y0039802D02*
X0447148Y0039802D01*
X0448980Y0041036D02*
X0449597Y0041653D01*
X0450831Y0041653D01*
X0451449Y0041036D01*
X0451449Y0040419D01*
X0448980Y0037950D01*
X0451449Y0037950D01*
X0452663Y0039802D02*
X0455132Y0039802D01*
X0456346Y0039184D02*
X0458198Y0039184D01*
X0458815Y0039802D01*
X0458815Y0041036D01*
X0458198Y0041653D01*
X0456346Y0041653D01*
X0456346Y0037950D01*
X0460029Y0038567D02*
X0460646Y0037950D01*
X0461881Y0037950D01*
X0462498Y0038567D01*
X0462498Y0041036D01*
X0461881Y0041653D01*
X0460646Y0041653D01*
X0460029Y0041036D01*
X0460029Y0038567D01*
X0463712Y0037950D02*
X0466181Y0037950D01*
X0464947Y0039802D02*
X0463712Y0039802D01*
X0463712Y0041653D02*
X0463712Y0037950D01*
X0471079Y0037950D02*
X0471079Y0041653D01*
X0471696Y0040419D02*
X0471079Y0039802D01*
X0471696Y0040419D02*
X0472930Y0040419D01*
X0473547Y0039802D01*
X0473547Y0037950D01*
X0474762Y0038567D02*
X0475379Y0039184D01*
X0477231Y0039184D01*
X0477231Y0039802D02*
X0477231Y0037950D01*
X0475379Y0037950D01*
X0474762Y0038567D01*
X0475379Y0040419D02*
X0476613Y0040419D01*
X0477231Y0039802D01*
X0478445Y0040419D02*
X0479679Y0040419D01*
X0479062Y0041036D02*
X0479062Y0038567D01*
X0479679Y0037950D01*
X0484584Y0040419D02*
X0485818Y0037950D01*
X0487052Y0040419D01*
X0488267Y0041036D02*
X0488884Y0041653D01*
X0490118Y0041653D01*
X0490735Y0041036D01*
X0490735Y0040419D01*
X0490118Y0039802D01*
X0490735Y0039184D01*
X0490735Y0038567D01*
X0490118Y0037950D01*
X0488884Y0037950D01*
X0488267Y0038567D01*
X0489501Y0039802D02*
X0490118Y0039802D01*
X0466181Y0041653D02*
X0463712Y0041653D01*
X0436716Y0041653D02*
X0434247Y0041653D01*
X0434247Y0037950D01*
X0434247Y0039802D02*
X0435482Y0039802D01*
X0412148Y0037950D02*
X0412148Y0041653D01*
X0371647Y0037950D02*
X0369178Y0041653D01*
X0367964Y0039802D02*
X0365495Y0039802D01*
X0361812Y0041653D02*
X0361812Y0037950D01*
X0360591Y0037950D02*
X0359357Y0039184D01*
X0311482Y0037950D02*
X0311482Y0041653D01*
D13*
X0321800Y0061800D03*
X0331800Y0061800D03*
X0341800Y0061800D03*
X0351800Y0061800D03*
X0361800Y0061800D03*
X0371800Y0061800D03*
X0381800Y0061800D03*
X0391800Y0061800D03*
X0401800Y0061800D03*
X0411800Y0061800D03*
X0441800Y0061800D03*
X0451800Y0061800D03*
X0461800Y0061800D03*
X0471800Y0061800D03*
X0481800Y0061800D03*
X0491800Y0061800D03*
X0291800Y0061800D03*
X0281800Y0061800D03*
X0271800Y0061800D03*
X0261800Y0061800D03*
X0251800Y0061800D03*
X0221800Y0061800D03*
X0211800Y0061800D03*
X0201800Y0061800D03*
X0191800Y0061800D03*
X0181800Y0061800D03*
X0151800Y0061800D03*
X0141800Y0061800D03*
X0131800Y0061800D03*
X0121800Y0061800D03*
X0111800Y0061800D03*
X0081800Y0061800D03*
X0071800Y0061800D03*
X0061800Y0061800D03*
X0051800Y0061800D03*
X0041800Y0061800D03*
X0321800Y0161800D03*
X0331800Y0161800D03*
X0341800Y0161800D03*
X0351800Y0161800D03*
X0361800Y0161800D03*
X0371800Y0161800D03*
X0381800Y0161800D03*
X0391800Y0161800D03*
X0401800Y0161800D03*
X0411800Y0161800D03*
M02*
