G75*
%MOIN*%
%OFA0B0*%
%FSLAX25Y25*%
%IPPOS*%
%LPD*%
%AMOC8*
5,1,8,0,0,1.08239X$1,22.5*
%
%ADD10C,0.00000*%
%ADD11C,0.01600*%
D10*
X0018099Y0031800D02*
X0501800Y0031800D01*
X0501800Y0076800D01*
X0431800Y0076800D01*
X0431800Y0176721D01*
X0018099Y0176721D01*
X0018099Y0031800D01*
D11*
X0060128Y0089693D02*
X0060774Y0089443D01*
X0061454Y0089316D01*
X0062146Y0089316D01*
X0062826Y0089443D01*
X0063472Y0089693D01*
X0064060Y0090057D01*
X0064571Y0090524D01*
X0064988Y0091076D01*
X0065297Y0091695D01*
X0065486Y0092361D01*
X0065550Y0093050D01*
X0065550Y0133050D01*
X0065486Y0133739D01*
X0065297Y0134405D01*
X0064988Y0135024D01*
X0064571Y0135576D01*
X0064060Y0136043D01*
X0063472Y0136407D01*
X0062826Y0136657D01*
X0062146Y0136784D01*
X0061454Y0136784D01*
X0060774Y0136657D01*
X0060128Y0136407D01*
X0059540Y0136043D01*
X0059029Y0135576D01*
X0058612Y0135024D01*
X0058303Y0134405D01*
X0058114Y0133739D01*
X0058050Y0133050D01*
X0058050Y0093050D01*
X0058114Y0092361D01*
X0058303Y0091695D01*
X0058612Y0091076D01*
X0059029Y0090524D01*
X0059540Y0090057D01*
X0060128Y0089693D01*
X0061291Y0089346D02*
X0062309Y0089346D01*
X0064889Y0090945D02*
X0058711Y0090945D01*
X0058097Y0092543D02*
X0065503Y0092543D01*
X0065550Y0094142D02*
X0058050Y0094142D01*
X0058050Y0095740D02*
X0065550Y0095740D01*
X0065550Y0097339D02*
X0058050Y0097339D01*
X0058050Y0098937D02*
X0065550Y0098937D01*
X0065550Y0100536D02*
X0058050Y0100536D01*
X0058050Y0102134D02*
X0065550Y0102134D01*
X0065550Y0103733D02*
X0058050Y0103733D01*
X0058050Y0105332D02*
X0065550Y0105332D01*
X0065550Y0106930D02*
X0058050Y0106930D01*
X0058050Y0108529D02*
X0065550Y0108529D01*
X0065550Y0110127D02*
X0058050Y0110127D01*
X0058050Y0111726D02*
X0065550Y0111726D01*
X0065550Y0113324D02*
X0058050Y0113324D01*
X0058050Y0114923D02*
X0065550Y0114923D01*
X0065550Y0116521D02*
X0058050Y0116521D01*
X0058050Y0118120D02*
X0065550Y0118120D01*
X0065550Y0119718D02*
X0058050Y0119718D01*
X0058050Y0121317D02*
X0065550Y0121317D01*
X0065550Y0122915D02*
X0058050Y0122915D01*
X0058050Y0124514D02*
X0065550Y0124514D01*
X0065550Y0126112D02*
X0058050Y0126112D01*
X0058050Y0127711D02*
X0065550Y0127711D01*
X0065550Y0129309D02*
X0058050Y0129309D01*
X0058050Y0130908D02*
X0065550Y0130908D01*
X0065550Y0132506D02*
X0058050Y0132506D01*
X0058218Y0134105D02*
X0065382Y0134105D01*
X0064432Y0135703D02*
X0059168Y0135703D01*
X0128050Y0131800D02*
X0128114Y0132489D01*
X0128303Y0133155D01*
X0128612Y0133774D01*
X0129029Y0134326D01*
X0129540Y0134793D01*
X0130128Y0135157D01*
X0130774Y0135407D01*
X0131454Y0135534D01*
X0132146Y0135534D01*
X0132826Y0135407D01*
X0133472Y0135157D01*
X0134060Y0134793D01*
X0134571Y0134326D01*
X0134988Y0133774D01*
X0135297Y0133155D01*
X0135486Y0132489D01*
X0135550Y0131800D01*
X0135550Y0091800D01*
X0135486Y0091111D01*
X0135297Y0090445D01*
X0134988Y0089826D01*
X0134571Y0089274D01*
X0134060Y0088807D01*
X0133472Y0088443D01*
X0132826Y0088193D01*
X0132146Y0088066D01*
X0131454Y0088066D01*
X0130774Y0088193D01*
X0130128Y0088443D01*
X0129540Y0088807D01*
X0129029Y0089274D01*
X0128612Y0089826D01*
X0128303Y0090445D01*
X0128114Y0091111D01*
X0128050Y0091800D01*
X0128050Y0131800D01*
X0128119Y0132506D02*
X0135481Y0132506D01*
X0135550Y0130908D02*
X0128050Y0130908D01*
X0128050Y0129309D02*
X0135550Y0129309D01*
X0135550Y0127711D02*
X0128050Y0127711D01*
X0128050Y0126112D02*
X0135550Y0126112D01*
X0135550Y0124514D02*
X0128050Y0124514D01*
X0128050Y0122915D02*
X0135550Y0122915D01*
X0135550Y0121317D02*
X0128050Y0121317D01*
X0128050Y0119718D02*
X0135550Y0119718D01*
X0135550Y0118120D02*
X0128050Y0118120D01*
X0128050Y0116521D02*
X0135550Y0116521D01*
X0135550Y0114923D02*
X0128050Y0114923D01*
X0128050Y0113324D02*
X0135550Y0113324D01*
X0135550Y0111726D02*
X0128050Y0111726D01*
X0128050Y0110127D02*
X0135550Y0110127D01*
X0135550Y0108529D02*
X0128050Y0108529D01*
X0128050Y0106930D02*
X0135550Y0106930D01*
X0135550Y0105332D02*
X0128050Y0105332D01*
X0128050Y0103733D02*
X0135550Y0103733D01*
X0135550Y0102134D02*
X0128050Y0102134D01*
X0128050Y0100536D02*
X0135550Y0100536D01*
X0135550Y0098937D02*
X0128050Y0098937D01*
X0128050Y0097339D02*
X0135550Y0097339D01*
X0135550Y0095740D02*
X0128050Y0095740D01*
X0128050Y0094142D02*
X0135550Y0094142D01*
X0135550Y0092543D02*
X0128050Y0092543D01*
X0128161Y0090945D02*
X0135439Y0090945D01*
X0134626Y0089346D02*
X0128974Y0089346D01*
X0198050Y0091800D02*
X0198114Y0091111D01*
X0198303Y0090445D01*
X0198612Y0089826D01*
X0199029Y0089274D01*
X0199540Y0088807D01*
X0200128Y0088443D01*
X0200774Y0088193D01*
X0201454Y0088066D01*
X0202146Y0088066D01*
X0202826Y0088193D01*
X0203472Y0088443D01*
X0204060Y0088807D01*
X0204571Y0089274D01*
X0204988Y0089826D01*
X0205297Y0090445D01*
X0205486Y0091111D01*
X0205550Y0091800D01*
X0205550Y0131800D01*
X0205486Y0132489D01*
X0205297Y0133155D01*
X0204988Y0133774D01*
X0204571Y0134326D01*
X0204060Y0134793D01*
X0203472Y0135157D01*
X0202826Y0135407D01*
X0202146Y0135534D01*
X0201454Y0135534D01*
X0200774Y0135407D01*
X0200128Y0135157D01*
X0199540Y0134793D01*
X0199029Y0134326D01*
X0198612Y0133774D01*
X0198303Y0133155D01*
X0198114Y0132489D01*
X0198050Y0131800D01*
X0198050Y0091800D01*
X0198050Y0092543D02*
X0205550Y0092543D01*
X0205550Y0094142D02*
X0198050Y0094142D01*
X0198050Y0095740D02*
X0205550Y0095740D01*
X0205550Y0097339D02*
X0198050Y0097339D01*
X0198050Y0098937D02*
X0205550Y0098937D01*
X0205550Y0100536D02*
X0198050Y0100536D01*
X0198050Y0102134D02*
X0205550Y0102134D01*
X0205550Y0103733D02*
X0198050Y0103733D01*
X0198050Y0105332D02*
X0205550Y0105332D01*
X0205550Y0106930D02*
X0198050Y0106930D01*
X0198050Y0108529D02*
X0205550Y0108529D01*
X0205550Y0110127D02*
X0198050Y0110127D01*
X0198050Y0111726D02*
X0205550Y0111726D01*
X0205550Y0113324D02*
X0198050Y0113324D01*
X0198050Y0114923D02*
X0205550Y0114923D01*
X0205550Y0116521D02*
X0198050Y0116521D01*
X0198050Y0118120D02*
X0205550Y0118120D01*
X0205550Y0119718D02*
X0198050Y0119718D01*
X0198050Y0121317D02*
X0205550Y0121317D01*
X0205550Y0122915D02*
X0198050Y0122915D01*
X0198050Y0124514D02*
X0205550Y0124514D01*
X0205550Y0126112D02*
X0198050Y0126112D01*
X0198050Y0127711D02*
X0205550Y0127711D01*
X0205550Y0129309D02*
X0198050Y0129309D01*
X0198050Y0130908D02*
X0205550Y0130908D01*
X0205481Y0132506D02*
X0198119Y0132506D01*
X0198861Y0134105D02*
X0204739Y0134105D01*
X0268050Y0131800D02*
X0268114Y0132489D01*
X0268303Y0133155D01*
X0268612Y0133774D01*
X0269029Y0134326D01*
X0269540Y0134793D01*
X0270128Y0135157D01*
X0270774Y0135407D01*
X0271454Y0135534D01*
X0272146Y0135534D01*
X0272826Y0135407D01*
X0273472Y0135157D01*
X0274060Y0134793D01*
X0274571Y0134326D01*
X0274988Y0133774D01*
X0275297Y0133155D01*
X0275486Y0132489D01*
X0275550Y0131800D01*
X0275550Y0091800D01*
X0275486Y0091111D01*
X0275297Y0090445D01*
X0274988Y0089826D01*
X0274571Y0089274D01*
X0274060Y0088807D01*
X0273472Y0088443D01*
X0272826Y0088193D01*
X0272146Y0088066D01*
X0271454Y0088066D01*
X0270774Y0088193D01*
X0270128Y0088443D01*
X0269540Y0088807D01*
X0269029Y0089274D01*
X0268612Y0089826D01*
X0268303Y0090445D01*
X0268114Y0091111D01*
X0268050Y0091800D01*
X0268050Y0131800D01*
X0268119Y0132506D02*
X0275481Y0132506D01*
X0275550Y0130908D02*
X0268050Y0130908D01*
X0268050Y0129309D02*
X0275550Y0129309D01*
X0275550Y0127711D02*
X0268050Y0127711D01*
X0268050Y0126112D02*
X0275550Y0126112D01*
X0275550Y0124514D02*
X0268050Y0124514D01*
X0268050Y0122915D02*
X0275550Y0122915D01*
X0275550Y0121317D02*
X0268050Y0121317D01*
X0268050Y0119718D02*
X0275550Y0119718D01*
X0275550Y0118120D02*
X0268050Y0118120D01*
X0268050Y0116521D02*
X0275550Y0116521D01*
X0275550Y0114923D02*
X0268050Y0114923D01*
X0268050Y0113324D02*
X0275550Y0113324D01*
X0275550Y0111726D02*
X0268050Y0111726D01*
X0268050Y0110127D02*
X0275550Y0110127D01*
X0275550Y0108529D02*
X0268050Y0108529D01*
X0268050Y0106930D02*
X0275550Y0106930D01*
X0275550Y0105332D02*
X0268050Y0105332D01*
X0268050Y0103733D02*
X0275550Y0103733D01*
X0275550Y0102134D02*
X0268050Y0102134D01*
X0268050Y0100536D02*
X0275550Y0100536D01*
X0275550Y0098937D02*
X0268050Y0098937D01*
X0268050Y0097339D02*
X0275550Y0097339D01*
X0275550Y0095740D02*
X0268050Y0095740D01*
X0268050Y0094142D02*
X0275550Y0094142D01*
X0275550Y0092543D02*
X0268050Y0092543D01*
X0268161Y0090945D02*
X0275439Y0090945D01*
X0274626Y0089346D02*
X0268974Y0089346D01*
X0205439Y0090945D02*
X0198161Y0090945D01*
X0198974Y0089346D02*
X0204626Y0089346D01*
X0268861Y0134105D02*
X0274739Y0134105D01*
X0134739Y0134105D02*
X0128861Y0134105D01*
M02*
