G75*
%MOIN*%
%OFA0B0*%
%FSLAX25Y25*%
%IPPOS*%
%LPD*%
%AMOC8*
5,1,8,0,0,1.08239X$1,22.5*
%
%ADD10C,0.00600*%
%ADD11C,0.00400*%
D10*
X0044079Y0144100D02*
X0043012Y0145168D01*
X0043012Y0147303D01*
X0044079Y0148370D01*
X0046215Y0148370D01*
X0047282Y0147303D01*
X0047282Y0145168D01*
X0046215Y0144100D01*
X0044079Y0144100D01*
X0049457Y0145168D02*
X0050525Y0144100D01*
X0052660Y0144100D01*
X0053728Y0145168D01*
X0049457Y0149438D01*
X0049457Y0145168D01*
X0053728Y0145168D02*
X0053728Y0149438D01*
X0052660Y0150505D01*
X0050525Y0150505D01*
X0049457Y0149438D01*
X0055903Y0149438D02*
X0060173Y0145168D01*
X0059106Y0144100D01*
X0056970Y0144100D01*
X0055903Y0145168D01*
X0055903Y0149438D01*
X0056970Y0150505D01*
X0059106Y0150505D01*
X0060173Y0149438D01*
X0060173Y0145168D01*
X0062348Y0145168D02*
X0062348Y0147303D01*
X0063416Y0148370D01*
X0065551Y0148370D01*
X0066619Y0147303D01*
X0066619Y0145168D01*
X0065551Y0144100D01*
X0063416Y0144100D01*
X0062348Y0145168D01*
X0068794Y0147303D02*
X0073064Y0147303D01*
X0075239Y0147303D02*
X0079510Y0147303D01*
X0081672Y0148370D02*
X0083807Y0150505D01*
X0081672Y0148370D02*
X0081672Y0146235D01*
X0083807Y0144100D01*
X0085982Y0143032D02*
X0090252Y0143032D01*
X0092414Y0144100D02*
X0094549Y0146235D01*
X0094549Y0148370D01*
X0092414Y0150505D01*
X0096724Y0147303D02*
X0100995Y0147303D01*
X0103170Y0147303D02*
X0107440Y0147303D01*
X0109615Y0147303D02*
X0110683Y0148370D01*
X0112818Y0148370D01*
X0113886Y0147303D01*
X0113886Y0145168D01*
X0112818Y0144100D01*
X0110683Y0144100D01*
X0109615Y0145168D01*
X0109615Y0147303D01*
X0116061Y0145168D02*
X0116061Y0149438D01*
X0117128Y0150505D01*
X0119264Y0150505D01*
X0120331Y0149438D01*
X0120331Y0145168D01*
X0119264Y0144100D01*
X0117128Y0144100D01*
X0116061Y0145168D01*
X0122506Y0145168D02*
X0123574Y0144100D01*
X0125709Y0144100D01*
X0126777Y0145168D01*
X0126777Y0149438D01*
X0125709Y0150505D01*
X0123574Y0150505D01*
X0122506Y0149438D01*
X0122506Y0145168D01*
X0128952Y0145168D02*
X0130019Y0144100D01*
X0132155Y0144100D01*
X0133222Y0145168D01*
X0133222Y0147303D01*
X0132155Y0148370D01*
X0130019Y0148370D01*
X0128952Y0147303D01*
X0128952Y0145168D01*
X0135397Y0147303D02*
X0139668Y0147303D01*
X0141843Y0147303D02*
X0146113Y0147303D01*
X0148288Y0147303D02*
X0152559Y0147303D01*
X0100995Y0156735D02*
X0100995Y0158870D01*
X0098860Y0161005D01*
X0096698Y0157803D02*
X0096698Y0155668D01*
X0095630Y0154600D01*
X0093495Y0154600D01*
X0092427Y0155668D01*
X0092427Y0157803D01*
X0093495Y0158870D01*
X0095630Y0158870D01*
X0096698Y0157803D01*
X0098860Y0154600D02*
X0100995Y0156735D01*
X0083807Y0155668D02*
X0082739Y0154600D01*
X0080604Y0154600D01*
X0079536Y0155668D01*
X0079536Y0157803D01*
X0080604Y0158870D01*
X0082739Y0158870D01*
X0083807Y0157803D01*
X0083807Y0155668D01*
X0077361Y0154600D02*
X0075226Y0156735D01*
X0075226Y0158870D01*
X0077361Y0161005D01*
X0085955Y0165100D02*
X0081685Y0171505D01*
X0088104Y0171505D02*
X0088104Y0165100D01*
X0090279Y0165100D02*
X0094549Y0171505D01*
X0040837Y0147303D02*
X0036566Y0147303D01*
X0034391Y0147303D02*
X0030121Y0147303D01*
X0027946Y0147303D02*
X0023675Y0147303D01*
X0410100Y0114925D02*
X0413303Y0114925D01*
X0414370Y0113857D01*
X0413303Y0112790D01*
X0410100Y0112790D01*
X0410100Y0110654D02*
X0414370Y0110654D01*
X0414370Y0111722D01*
X0413303Y0112790D01*
X0413303Y0108479D02*
X0414370Y0107412D01*
X0414370Y0105277D01*
X0413303Y0104209D01*
X0411168Y0104209D01*
X0410100Y0105277D01*
X0410100Y0107412D01*
X0411168Y0108479D01*
X0413303Y0108479D01*
X0414370Y0102047D02*
X0414370Y0099912D01*
X0415438Y0100980D02*
X0411168Y0100980D01*
X0410100Y0102047D01*
X0410100Y0097750D02*
X0411168Y0096683D01*
X0415438Y0096683D01*
X0414370Y0097750D02*
X0414370Y0095615D01*
X0413303Y0093440D02*
X0414370Y0092372D01*
X0414370Y0090237D01*
X0413303Y0089169D01*
X0411168Y0089169D01*
X0410100Y0090237D01*
X0410100Y0092372D01*
X0411168Y0093440D01*
X0413303Y0093440D01*
X0414370Y0086994D02*
X0413303Y0085927D01*
X0413303Y0082724D01*
X0416505Y0082724D02*
X0410100Y0082724D01*
X0410100Y0085927D01*
X0411168Y0086994D01*
X0412235Y0086994D01*
X0413303Y0085927D01*
X0414370Y0086994D02*
X0415438Y0086994D01*
X0416505Y0085927D01*
X0416505Y0082724D01*
D11*
X0308246Y0130750D02*
X0305177Y0130750D01*
X0308246Y0130750D02*
X0305177Y0133819D01*
X0305177Y0134587D01*
X0305944Y0135354D01*
X0307479Y0135354D01*
X0308246Y0134587D01*
X0309781Y0133819D02*
X0311315Y0130750D01*
X0312850Y0133819D01*
X0312850Y0138250D02*
X0312850Y0142854D01*
X0312083Y0141319D02*
X0310548Y0141319D01*
X0309781Y0140552D01*
X0309781Y0138250D01*
X0307479Y0139017D02*
X0307479Y0142087D01*
X0308246Y0141319D02*
X0306711Y0141319D01*
X0305177Y0141319D02*
X0303642Y0141319D01*
X0304409Y0142087D02*
X0304409Y0139017D01*
X0303642Y0138250D01*
X0302108Y0138250D02*
X0299806Y0138250D01*
X0299038Y0139017D01*
X0299038Y0140552D01*
X0299806Y0141319D01*
X0302108Y0141319D01*
X0302108Y0136715D01*
X0306711Y0138250D02*
X0307479Y0139017D01*
X0312083Y0141319D02*
X0312850Y0140552D01*
X0312083Y0145750D02*
X0310548Y0145750D01*
X0309781Y0146517D01*
X0308246Y0146517D02*
X0307479Y0145750D01*
X0305944Y0145750D01*
X0305177Y0146517D01*
X0303642Y0148052D02*
X0300573Y0148052D01*
X0299038Y0148052D02*
X0296736Y0148052D01*
X0295969Y0147285D01*
X0295969Y0146517D01*
X0296736Y0145750D01*
X0299038Y0145750D01*
X0299038Y0150354D01*
X0296736Y0150354D01*
X0295969Y0149587D01*
X0295969Y0148819D01*
X0296736Y0148052D01*
X0294434Y0149587D02*
X0292900Y0148052D01*
X0292900Y0145750D01*
X0292900Y0148052D02*
X0291365Y0149587D01*
X0291365Y0150354D01*
X0289830Y0148052D02*
X0286761Y0148052D01*
X0285226Y0148819D02*
X0284459Y0148052D01*
X0282924Y0148052D01*
X0282157Y0147285D01*
X0282157Y0146517D01*
X0282924Y0145750D01*
X0284459Y0145750D01*
X0285226Y0146517D01*
X0285226Y0148819D02*
X0285226Y0149587D01*
X0284459Y0150354D01*
X0282924Y0150354D01*
X0282157Y0149587D01*
X0280623Y0148819D02*
X0279088Y0150354D01*
X0277553Y0148819D01*
X0277553Y0145750D01*
X0277553Y0148052D02*
X0280623Y0148052D01*
X0280623Y0148819D02*
X0280623Y0145750D01*
X0282925Y0142854D02*
X0285994Y0138250D01*
X0290598Y0138250D02*
X0287528Y0142854D01*
X0292132Y0141319D02*
X0292132Y0140552D01*
X0292900Y0140552D01*
X0292900Y0141319D01*
X0292132Y0141319D01*
X0292132Y0139017D02*
X0292132Y0138250D01*
X0292900Y0138250D01*
X0292900Y0139017D01*
X0292132Y0139017D01*
X0294434Y0139017D02*
X0295202Y0139785D01*
X0296736Y0139785D01*
X0297504Y0140552D01*
X0296736Y0141319D01*
X0294434Y0141319D01*
X0294434Y0139017D02*
X0295202Y0138250D01*
X0297504Y0138250D01*
X0281390Y0139017D02*
X0280623Y0138250D01*
X0278321Y0138250D01*
X0278321Y0137483D02*
X0278321Y0141319D01*
X0280623Y0141319D01*
X0281390Y0140552D01*
X0281390Y0139017D01*
X0279855Y0136715D02*
X0279088Y0136715D01*
X0278321Y0137483D01*
X0276786Y0138250D02*
X0275251Y0138250D01*
X0276019Y0138250D02*
X0276019Y0141319D01*
X0276786Y0141319D01*
X0276019Y0142854D02*
X0276019Y0143621D01*
X0273717Y0141319D02*
X0272182Y0141319D01*
X0272949Y0142087D02*
X0272949Y0139017D01*
X0272182Y0138250D01*
X0270647Y0138250D02*
X0270647Y0142854D01*
X0269880Y0141319D02*
X0268345Y0141319D01*
X0267578Y0140552D01*
X0267578Y0138250D01*
X0266043Y0139017D02*
X0266043Y0141319D01*
X0266043Y0139017D02*
X0265276Y0138250D01*
X0262974Y0138250D01*
X0262974Y0141319D01*
X0261440Y0141319D02*
X0259138Y0141319D01*
X0258370Y0140552D01*
X0258370Y0139017D01*
X0259138Y0138250D01*
X0261440Y0138250D01*
X0261440Y0142854D01*
X0262207Y0145750D02*
X0263741Y0145750D01*
X0264509Y0146517D01*
X0261440Y0149587D01*
X0261440Y0146517D01*
X0262207Y0145750D01*
X0264509Y0146517D02*
X0264509Y0149587D01*
X0263741Y0150354D01*
X0262207Y0150354D01*
X0261440Y0149587D01*
X0266043Y0146517D02*
X0266043Y0145750D01*
X0266811Y0145750D01*
X0266811Y0146517D01*
X0266043Y0146517D01*
X0268345Y0148052D02*
X0271415Y0148052D01*
X0269113Y0150354D01*
X0269113Y0145750D01*
X0269880Y0141319D02*
X0270647Y0140552D01*
X0256836Y0139017D02*
X0256068Y0139017D01*
X0256068Y0138250D01*
X0256836Y0138250D01*
X0256836Y0139017D01*
X0254534Y0139017D02*
X0254534Y0140552D01*
X0253766Y0141319D01*
X0251464Y0141319D01*
X0249930Y0140552D02*
X0249930Y0139017D01*
X0249162Y0138250D01*
X0247628Y0138250D01*
X0246860Y0139017D01*
X0246860Y0140552D01*
X0247628Y0141319D01*
X0249162Y0141319D01*
X0249930Y0140552D01*
X0251464Y0138250D02*
X0253766Y0138250D01*
X0254534Y0139017D01*
X0245326Y0138250D02*
X0245326Y0141319D01*
X0244558Y0141319D01*
X0243791Y0140552D01*
X0243024Y0141319D01*
X0242257Y0140552D01*
X0242257Y0138250D01*
X0243791Y0138250D02*
X0243791Y0140552D01*
X0240722Y0138250D02*
X0237653Y0142854D01*
X0236118Y0141319D02*
X0236118Y0139017D01*
X0235351Y0138250D01*
X0234583Y0139017D01*
X0233816Y0138250D01*
X0233049Y0139017D01*
X0233049Y0141319D01*
X0230747Y0141319D02*
X0229212Y0141319D01*
X0228445Y0140552D01*
X0228445Y0138250D01*
X0230747Y0138250D01*
X0231514Y0139017D01*
X0230747Y0139785D01*
X0228445Y0139785D01*
X0226910Y0139785D02*
X0225375Y0141319D01*
X0224608Y0141319D01*
X0223073Y0141319D02*
X0221539Y0141319D01*
X0222306Y0142087D02*
X0222306Y0139017D01*
X0221539Y0138250D01*
X0220004Y0138250D02*
X0220004Y0142854D01*
X0219237Y0141319D02*
X0217702Y0141319D01*
X0216935Y0140552D01*
X0216935Y0138250D01*
X0215400Y0139017D02*
X0214633Y0138250D01*
X0213098Y0138250D01*
X0212331Y0139017D01*
X0212331Y0140552D01*
X0213098Y0141319D01*
X0214633Y0141319D01*
X0215400Y0140552D01*
X0215400Y0139017D01*
X0219237Y0141319D02*
X0220004Y0140552D01*
X0226910Y0141319D02*
X0226910Y0138250D01*
X0210796Y0139017D02*
X0210029Y0138250D01*
X0207727Y0138250D01*
X0207727Y0137483D02*
X0207727Y0141319D01*
X0210029Y0141319D01*
X0210796Y0140552D01*
X0210796Y0139017D01*
X0209262Y0136715D02*
X0208494Y0136715D01*
X0207727Y0137483D01*
X0206192Y0139017D02*
X0205425Y0138250D01*
X0203890Y0138250D01*
X0203123Y0139017D01*
X0203123Y0142087D01*
X0203890Y0142854D01*
X0205425Y0142854D01*
X0206192Y0142087D01*
X0206192Y0141319D01*
X0205425Y0140552D01*
X0203123Y0140552D01*
X0201589Y0138250D02*
X0198519Y0142854D01*
X0196217Y0141319D02*
X0194683Y0141319D01*
X0193915Y0140552D01*
X0193915Y0139785D01*
X0196985Y0139785D01*
X0196985Y0140552D02*
X0196985Y0139017D01*
X0196217Y0138250D01*
X0194683Y0138250D01*
X0192381Y0138250D02*
X0190079Y0138250D01*
X0189311Y0139017D01*
X0190079Y0139785D01*
X0191613Y0139785D01*
X0192381Y0140552D01*
X0191613Y0141319D01*
X0189311Y0141319D01*
X0187777Y0141319D02*
X0185475Y0141319D01*
X0184707Y0140552D01*
X0184707Y0139017D01*
X0185475Y0138250D01*
X0187777Y0138250D01*
X0187777Y0136715D02*
X0187777Y0141319D01*
X0183173Y0142087D02*
X0182406Y0142854D01*
X0180871Y0142854D01*
X0180104Y0142087D01*
X0180104Y0141319D01*
X0180871Y0140552D01*
X0180104Y0139785D01*
X0180104Y0139017D01*
X0180871Y0138250D01*
X0182406Y0138250D01*
X0183173Y0139017D01*
X0181638Y0140552D02*
X0180871Y0140552D01*
X0178569Y0142087D02*
X0177802Y0142854D01*
X0176267Y0142854D01*
X0175500Y0142087D01*
X0175500Y0141319D01*
X0178569Y0138250D01*
X0175500Y0138250D01*
X0173965Y0140552D02*
X0170896Y0140552D01*
X0169361Y0141319D02*
X0167059Y0141319D01*
X0166292Y0140552D01*
X0166292Y0139017D01*
X0167059Y0138250D01*
X0169361Y0138250D01*
X0169361Y0136715D02*
X0169361Y0141319D01*
X0164757Y0140552D02*
X0164757Y0139017D01*
X0163990Y0138250D01*
X0162455Y0138250D01*
X0161688Y0139017D01*
X0161688Y0140552D01*
X0162455Y0141319D01*
X0163990Y0141319D01*
X0164757Y0140552D01*
X0160153Y0140552D02*
X0160153Y0139017D01*
X0159386Y0138250D01*
X0157851Y0138250D01*
X0157084Y0139785D02*
X0160153Y0139785D01*
X0160153Y0140552D02*
X0159386Y0141319D01*
X0157851Y0141319D01*
X0157084Y0140552D01*
X0157084Y0139785D01*
X0155549Y0140552D02*
X0152480Y0140552D01*
X0150945Y0141319D02*
X0149411Y0141319D01*
X0150178Y0142087D02*
X0150178Y0139017D01*
X0149411Y0138250D01*
X0147876Y0138250D02*
X0147876Y0142854D01*
X0147109Y0141319D02*
X0145574Y0141319D01*
X0144807Y0140552D01*
X0144807Y0138250D01*
X0143272Y0139017D02*
X0143272Y0140552D01*
X0142505Y0141319D01*
X0140970Y0141319D01*
X0140203Y0140552D01*
X0140203Y0139785D01*
X0143272Y0139785D01*
X0143272Y0139017D02*
X0142505Y0138250D01*
X0140970Y0138250D01*
X0138668Y0138250D02*
X0138668Y0141319D01*
X0138668Y0139785D02*
X0137134Y0141319D01*
X0136366Y0141319D01*
X0134832Y0141319D02*
X0134832Y0138250D01*
X0133297Y0138250D02*
X0133297Y0140552D01*
X0132530Y0141319D01*
X0131762Y0140552D01*
X0131762Y0138250D01*
X0130228Y0139017D02*
X0130228Y0140552D01*
X0129460Y0141319D01*
X0127926Y0141319D01*
X0127158Y0140552D01*
X0127158Y0139017D01*
X0127926Y0138250D01*
X0129460Y0138250D01*
X0130228Y0139017D01*
X0133297Y0140552D02*
X0134064Y0141319D01*
X0134832Y0141319D01*
X0125624Y0140552D02*
X0122554Y0140552D01*
X0121020Y0140552D02*
X0120253Y0141319D01*
X0118718Y0141319D01*
X0117951Y0140552D01*
X0117951Y0138250D01*
X0116416Y0139017D02*
X0115649Y0139785D01*
X0113347Y0139785D01*
X0113347Y0140552D02*
X0113347Y0138250D01*
X0115649Y0138250D01*
X0116416Y0139017D01*
X0115649Y0141319D02*
X0114114Y0141319D01*
X0113347Y0140552D01*
X0111812Y0141319D02*
X0110277Y0141319D01*
X0111045Y0142087D02*
X0111045Y0139017D01*
X0110277Y0138250D01*
X0121020Y0138250D02*
X0121020Y0142854D01*
X0147109Y0141319D02*
X0147876Y0140552D01*
X0183173Y0152483D02*
X0183940Y0151715D01*
X0184707Y0151715D01*
X0183173Y0152483D02*
X0183173Y0156319D01*
X0183173Y0153250D02*
X0185475Y0153250D01*
X0186242Y0154017D01*
X0186242Y0156319D01*
X0187777Y0155552D02*
X0187777Y0154785D01*
X0190846Y0154785D01*
X0190846Y0155552D02*
X0190846Y0154017D01*
X0190079Y0153250D01*
X0188544Y0153250D01*
X0187777Y0155552D02*
X0188544Y0156319D01*
X0190079Y0156319D01*
X0190846Y0155552D01*
X0192381Y0153250D02*
X0193915Y0153250D01*
X0193148Y0153250D02*
X0193148Y0157854D01*
X0193915Y0157854D01*
X0195450Y0156319D02*
X0195450Y0154017D01*
X0196217Y0153250D01*
X0196985Y0154017D01*
X0197752Y0153250D01*
X0198519Y0154017D01*
X0198519Y0156319D01*
X0200054Y0155552D02*
X0200054Y0153250D01*
X0202356Y0153250D01*
X0203123Y0154017D01*
X0202356Y0154785D01*
X0200054Y0154785D01*
X0200054Y0155552D02*
X0200821Y0156319D01*
X0202356Y0156319D01*
X0204658Y0155552D02*
X0207727Y0155552D01*
X0207727Y0153250D02*
X0207727Y0157854D01*
X0204658Y0157854D02*
X0204658Y0153250D01*
X0213866Y0157087D02*
X0214633Y0156319D01*
X0213866Y0157087D02*
X0213866Y0158621D01*
X0216168Y0157087D02*
X0216935Y0157854D01*
X0218470Y0157854D01*
X0219237Y0157087D01*
X0219237Y0156319D01*
X0218470Y0155552D01*
X0216168Y0155552D01*
X0216168Y0154017D02*
X0216168Y0157087D01*
X0216168Y0154017D02*
X0216935Y0153250D01*
X0218470Y0153250D01*
X0219237Y0154017D01*
X0220772Y0153250D02*
X0223073Y0153250D01*
X0223841Y0154017D01*
X0223841Y0155552D01*
X0223073Y0156319D01*
X0220772Y0156319D01*
X0220772Y0152483D01*
X0221539Y0151715D01*
X0222306Y0151715D01*
X0225375Y0154017D02*
X0225375Y0155552D01*
X0226143Y0156319D01*
X0227677Y0156319D01*
X0228445Y0155552D01*
X0228445Y0154017D01*
X0227677Y0153250D01*
X0226143Y0153250D01*
X0225375Y0154017D01*
X0229979Y0153250D02*
X0229979Y0155552D01*
X0230747Y0156319D01*
X0232281Y0156319D01*
X0233049Y0155552D01*
X0234583Y0156319D02*
X0236118Y0156319D01*
X0235351Y0157087D02*
X0235351Y0154017D01*
X0234583Y0153250D01*
X0233049Y0153250D02*
X0233049Y0157854D01*
X0237653Y0156319D02*
X0238420Y0156319D01*
X0239955Y0154785D01*
X0241489Y0154785D02*
X0243791Y0154785D01*
X0244558Y0154017D01*
X0243791Y0153250D01*
X0241489Y0153250D01*
X0241489Y0155552D01*
X0242257Y0156319D01*
X0243791Y0156319D01*
X0246093Y0157854D02*
X0246093Y0153250D01*
X0247628Y0154785D01*
X0249162Y0153250D01*
X0249162Y0157854D01*
X0250697Y0158621D02*
X0250697Y0157087D01*
X0251464Y0156319D01*
X0257603Y0155552D02*
X0257603Y0153250D01*
X0257603Y0155552D02*
X0258370Y0156319D01*
X0260672Y0156319D01*
X0260672Y0153250D01*
X0262207Y0153250D02*
X0262207Y0155552D01*
X0262974Y0156319D01*
X0264509Y0156319D01*
X0265276Y0155552D01*
X0266811Y0155552D02*
X0267578Y0156319D01*
X0269113Y0156319D01*
X0269880Y0155552D01*
X0269880Y0154017D01*
X0269113Y0153250D01*
X0267578Y0153250D01*
X0266811Y0154017D01*
X0266811Y0155552D01*
X0265276Y0157854D02*
X0265276Y0153250D01*
X0272182Y0154017D02*
X0272182Y0157854D01*
X0272949Y0157854D02*
X0271415Y0157854D01*
X0272182Y0154017D02*
X0272949Y0153250D01*
X0273717Y0153250D01*
X0274484Y0154017D01*
X0280623Y0153250D02*
X0283692Y0153250D01*
X0285226Y0153250D02*
X0288296Y0153250D01*
X0285226Y0156319D01*
X0285226Y0157087D01*
X0285994Y0157854D01*
X0287528Y0157854D01*
X0288296Y0157087D01*
X0289830Y0157087D02*
X0292900Y0154017D01*
X0292132Y0153250D01*
X0290598Y0153250D01*
X0289830Y0154017D01*
X0289830Y0157087D01*
X0290598Y0157854D01*
X0292132Y0157854D01*
X0292900Y0157087D01*
X0292900Y0154017D01*
X0294434Y0153250D02*
X0297504Y0153250D01*
X0294434Y0156319D01*
X0294434Y0157087D01*
X0295202Y0157854D01*
X0296736Y0157854D01*
X0297504Y0157087D01*
X0303642Y0156319D02*
X0303642Y0154785D01*
X0305177Y0153250D01*
X0306711Y0154017D02*
X0307479Y0153250D01*
X0309013Y0153250D01*
X0309781Y0154017D01*
X0309781Y0157087D01*
X0309013Y0157854D01*
X0307479Y0157854D01*
X0306711Y0157087D01*
X0305177Y0157854D02*
X0303642Y0156319D01*
X0311315Y0157854D02*
X0312850Y0156319D01*
X0312850Y0154785D01*
X0311315Y0153250D01*
X0310548Y0150354D02*
X0312083Y0150354D01*
X0312850Y0149587D01*
X0312850Y0146517D01*
X0312083Y0145750D01*
X0308246Y0146517D02*
X0308246Y0149587D01*
X0307479Y0150354D01*
X0305944Y0150354D01*
X0305177Y0149587D01*
X0309781Y0149587D02*
X0310548Y0150354D01*
X0294434Y0150354D02*
X0294434Y0149587D01*
X0283692Y0156319D02*
X0282157Y0157854D01*
X0282157Y0153250D01*
X0239955Y0153250D02*
X0239955Y0156319D01*
X0196985Y0140552D02*
X0196217Y0141319D01*
M02*
