G75*
%MOIN*%
%OFA0B0*%
%FSLAX25Y25*%
%IPPOS*%
%LPD*%
%AMOC8*
5,1,8,0,0,1.08239X$1,22.5*
%
%ADD10C,0.06400*%
%ADD11C,0.07400*%
%ADD12R,0.02500X0.05000*%
%ADD13R,0.01600X0.01000*%
%ADD14C,0.01600*%
%ADD15C,0.04362*%
%ADD16C,0.02402*%
%ADD17C,0.02400*%
%ADD18C,0.04756*%
D10*
X0041800Y0055400D02*
X0041800Y0068200D01*
X0051800Y0068200D02*
X0051800Y0055400D01*
X0061800Y0055400D02*
X0061800Y0068200D01*
X0071800Y0068200D02*
X0071800Y0055400D01*
X0081800Y0055400D02*
X0081800Y0068200D01*
X0111800Y0068200D02*
X0111800Y0055400D01*
X0121800Y0055400D02*
X0121800Y0068200D01*
X0131800Y0068200D02*
X0131800Y0055400D01*
X0141800Y0055400D02*
X0141800Y0068200D01*
X0151800Y0068200D02*
X0151800Y0055400D01*
X0181800Y0055400D02*
X0181800Y0068200D01*
X0191800Y0068200D02*
X0191800Y0055400D01*
X0201800Y0055400D02*
X0201800Y0068200D01*
X0211800Y0068200D02*
X0211800Y0055400D01*
X0221800Y0055400D02*
X0221800Y0068200D01*
X0251800Y0068200D02*
X0251800Y0055400D01*
X0261800Y0055400D02*
X0261800Y0068200D01*
X0271800Y0068200D02*
X0271800Y0055400D01*
X0281800Y0055400D02*
X0281800Y0068200D01*
X0291800Y0068200D02*
X0291800Y0055400D01*
X0321800Y0055400D02*
X0321800Y0068200D01*
X0331800Y0068200D02*
X0331800Y0055400D01*
X0341800Y0055400D02*
X0341800Y0068200D01*
X0351800Y0068200D02*
X0351800Y0055400D01*
X0361800Y0055400D02*
X0361800Y0068200D01*
X0371800Y0068200D02*
X0371800Y0055400D01*
X0381800Y0055400D02*
X0381800Y0068200D01*
X0391800Y0068200D02*
X0391800Y0055400D01*
X0401800Y0055400D02*
X0401800Y0068200D01*
X0411800Y0068200D02*
X0411800Y0055400D01*
X0441800Y0055400D02*
X0441800Y0068200D01*
X0451800Y0068200D02*
X0451800Y0055400D01*
X0461800Y0055400D02*
X0461800Y0068200D01*
X0471800Y0068200D02*
X0471800Y0055400D01*
X0481800Y0055400D02*
X0481800Y0068200D01*
X0491800Y0068200D02*
X0491800Y0055400D01*
X0411800Y0155400D02*
X0411800Y0168200D01*
X0401800Y0168200D02*
X0401800Y0155400D01*
X0391800Y0155400D02*
X0391800Y0168200D01*
X0381800Y0168200D02*
X0381800Y0155400D01*
X0371800Y0155400D02*
X0371800Y0168200D01*
X0361800Y0168200D02*
X0361800Y0155400D01*
X0351800Y0155400D02*
X0351800Y0168200D01*
X0341800Y0168200D02*
X0341800Y0155400D01*
X0331800Y0155400D02*
X0331800Y0168200D01*
X0321800Y0168200D02*
X0321800Y0155400D01*
D11*
X0408219Y0126800D02*
X0423019Y0126800D01*
X0423019Y0116800D02*
X0408219Y0116800D01*
X0408219Y0106800D02*
X0423019Y0106800D01*
X0423019Y0096800D02*
X0408219Y0096800D01*
D12*
X0377050Y0098050D03*
X0373050Y0098050D03*
X0369050Y0098050D03*
X0369050Y0083050D03*
X0373050Y0083050D03*
X0377050Y0083050D03*
D13*
X0371050Y0083050D03*
X0375050Y0098050D03*
D14*
X0019899Y0033600D02*
X0019899Y0187480D01*
X0437874Y0187480D01*
X0437874Y0091802D01*
X0438928Y0090748D01*
X0500000Y0090748D01*
X0500000Y0033600D01*
X0019899Y0033600D01*
X0019899Y0034997D02*
X0500000Y0034997D01*
X0500000Y0036596D02*
X0019899Y0036596D01*
X0019899Y0038194D02*
X0500000Y0038194D01*
X0500000Y0039793D02*
X0019899Y0039793D01*
X0019899Y0041391D02*
X0500000Y0041391D01*
X0500000Y0042990D02*
X0019899Y0042990D01*
X0019899Y0044588D02*
X0405052Y0044588D01*
X0405214Y0044426D02*
X0406243Y0044000D01*
X0457357Y0044000D01*
X0458386Y0044426D01*
X0463386Y0049426D01*
X0464174Y0050214D01*
X0464600Y0051243D01*
X0464600Y0051412D01*
X0465869Y0052681D01*
X0466600Y0054445D01*
X0466600Y0069155D01*
X0465869Y0070919D01*
X0464519Y0072269D01*
X0462755Y0073000D01*
X0460845Y0073000D01*
X0459081Y0072269D01*
X0457731Y0070919D01*
X0457000Y0069155D01*
X0457000Y0054445D01*
X0457731Y0052681D01*
X0458226Y0052186D01*
X0455640Y0049600D01*
X0407960Y0049600D01*
X0405374Y0052186D01*
X0405869Y0052681D01*
X0406600Y0054445D01*
X0406600Y0069155D01*
X0405869Y0070919D01*
X0404601Y0072187D01*
X0404601Y0077357D01*
X0404174Y0078387D01*
X0399601Y0082960D01*
X0399601Y0101890D01*
X0401710Y0103999D01*
X0403642Y0103999D01*
X0403726Y0103798D01*
X0405217Y0102307D01*
X0406440Y0101800D01*
X0405217Y0101293D01*
X0403726Y0099802D01*
X0402919Y0097854D01*
X0402919Y0095746D01*
X0403726Y0093798D01*
X0405217Y0092307D01*
X0407165Y0091500D01*
X0408999Y0091500D01*
X0408999Y0072187D01*
X0407731Y0070919D01*
X0407000Y0069155D01*
X0407000Y0054445D01*
X0407731Y0052681D01*
X0409081Y0051331D01*
X0410845Y0050600D01*
X0412755Y0050600D01*
X0414519Y0051331D01*
X0415869Y0052681D01*
X0416600Y0054445D01*
X0416600Y0069155D01*
X0415869Y0070919D01*
X0414601Y0072187D01*
X0414601Y0091500D01*
X0424073Y0091500D01*
X0426021Y0092307D01*
X0427512Y0093798D01*
X0428319Y0095746D01*
X0428319Y0097854D01*
X0427512Y0099802D01*
X0426021Y0101293D01*
X0424797Y0101800D01*
X0426021Y0102307D01*
X0427512Y0103798D01*
X0428319Y0105746D01*
X0428319Y0107854D01*
X0427512Y0109802D01*
X0426021Y0111293D01*
X0424797Y0111800D01*
X0426021Y0112307D01*
X0427512Y0113798D01*
X0428319Y0115746D01*
X0428319Y0117854D01*
X0427512Y0119802D01*
X0426021Y0121293D01*
X0424797Y0121800D01*
X0426021Y0122307D01*
X0427512Y0123798D01*
X0428319Y0125746D01*
X0428319Y0127854D01*
X0427512Y0129802D01*
X0426021Y0131293D01*
X0424073Y0132100D01*
X0407165Y0132100D01*
X0405217Y0131293D01*
X0403726Y0129802D01*
X0403642Y0129601D01*
X0394993Y0129601D01*
X0393963Y0129174D01*
X0370676Y0105887D01*
X0370249Y0104857D01*
X0370249Y0102150D01*
X0367137Y0102150D01*
X0366200Y0101213D01*
X0366200Y0094887D01*
X0366249Y0094838D01*
X0366249Y0093897D01*
X0365908Y0093755D01*
X0364845Y0092692D01*
X0364269Y0091302D01*
X0364269Y0089798D01*
X0364845Y0088408D01*
X0365908Y0087345D01*
X0366249Y0087203D01*
X0366249Y0086262D01*
X0366200Y0086213D01*
X0366200Y0079887D01*
X0367137Y0078950D01*
X0370963Y0078950D01*
X0371050Y0079037D01*
X0371137Y0078950D01*
X0374963Y0078950D01*
X0374966Y0078953D01*
X0375105Y0078873D01*
X0375563Y0078750D01*
X0377050Y0078750D01*
X0378537Y0078750D01*
X0378995Y0078873D01*
X0379405Y0079110D01*
X0379740Y0079445D01*
X0379977Y0079855D01*
X0380100Y0080313D01*
X0380100Y0083050D01*
X0380100Y0085787D01*
X0379977Y0086245D01*
X0379740Y0086655D01*
X0379405Y0086990D01*
X0378995Y0087227D01*
X0378537Y0087350D01*
X0377050Y0087350D01*
X0377050Y0083050D01*
X0377050Y0083050D01*
X0380100Y0083050D01*
X0377050Y0083050D01*
X0377050Y0083050D01*
X0377050Y0087350D01*
X0375851Y0087350D01*
X0375851Y0088140D01*
X0376710Y0088999D01*
X0383607Y0088999D01*
X0384637Y0089426D01*
X0385424Y0090213D01*
X0389174Y0093963D01*
X0389601Y0094993D01*
X0389601Y0103140D01*
X0400460Y0113999D01*
X0403642Y0113999D01*
X0403726Y0113798D01*
X0405217Y0112307D01*
X0406440Y0111800D01*
X0405217Y0111293D01*
X0403726Y0109802D01*
X0403642Y0109601D01*
X0399993Y0109601D01*
X0398963Y0109174D01*
X0398176Y0108387D01*
X0398176Y0108387D01*
X0395213Y0105424D01*
X0394426Y0104637D01*
X0393999Y0103607D01*
X0393999Y0081243D01*
X0394426Y0080213D01*
X0395213Y0079426D01*
X0398999Y0075640D01*
X0398999Y0072187D01*
X0397731Y0070919D01*
X0397000Y0069155D01*
X0397000Y0054445D01*
X0397731Y0052681D01*
X0399000Y0051412D01*
X0399000Y0051243D01*
X0399426Y0050214D01*
X0404426Y0045214D01*
X0405214Y0044426D01*
X0403454Y0046187D02*
X0019899Y0046187D01*
X0019899Y0047785D02*
X0401855Y0047785D01*
X0400257Y0049384D02*
X0019899Y0049384D01*
X0019899Y0050982D02*
X0039457Y0050982D01*
X0039179Y0051124D02*
X0039881Y0050766D01*
X0040629Y0050523D01*
X0041406Y0050400D01*
X0041600Y0050400D01*
X0041600Y0061600D01*
X0042000Y0061600D01*
X0042000Y0062000D01*
X0046800Y0062000D01*
X0046800Y0068594D01*
X0046677Y0069371D01*
X0046434Y0070119D01*
X0046076Y0070821D01*
X0045614Y0071457D01*
X0045057Y0072014D01*
X0044421Y0072476D01*
X0043719Y0072834D01*
X0042971Y0073077D01*
X0042194Y0073200D01*
X0042000Y0073200D01*
X0042000Y0062000D01*
X0041600Y0062000D01*
X0041600Y0073200D01*
X0041406Y0073200D01*
X0040629Y0073077D01*
X0039881Y0072834D01*
X0039179Y0072476D01*
X0038543Y0072014D01*
X0037986Y0071457D01*
X0037524Y0070821D01*
X0037166Y0070119D01*
X0036923Y0069371D01*
X0036800Y0068594D01*
X0036800Y0062000D01*
X0041600Y0062000D01*
X0041600Y0061600D01*
X0036800Y0061600D01*
X0036800Y0055006D01*
X0036923Y0054229D01*
X0037166Y0053481D01*
X0037524Y0052779D01*
X0037986Y0052143D01*
X0038543Y0051586D01*
X0039179Y0051124D01*
X0037668Y0052581D02*
X0019899Y0052581D01*
X0019899Y0054179D02*
X0036939Y0054179D01*
X0036800Y0055778D02*
X0019899Y0055778D01*
X0019899Y0057376D02*
X0036800Y0057376D01*
X0036800Y0058975D02*
X0019899Y0058975D01*
X0019899Y0060573D02*
X0036800Y0060573D01*
X0036800Y0062172D02*
X0019899Y0062172D01*
X0019899Y0063770D02*
X0036800Y0063770D01*
X0036800Y0065369D02*
X0019899Y0065369D01*
X0019899Y0066967D02*
X0036800Y0066967D01*
X0036800Y0068566D02*
X0019899Y0068566D01*
X0019899Y0070164D02*
X0037189Y0070164D01*
X0038292Y0071763D02*
X0019899Y0071763D01*
X0019899Y0073361D02*
X0057883Y0073361D01*
X0057822Y0073509D02*
X0058428Y0072047D01*
X0058643Y0071831D01*
X0057731Y0070919D01*
X0057000Y0069155D01*
X0057000Y0054445D01*
X0057731Y0052681D01*
X0059081Y0051331D01*
X0060845Y0050600D01*
X0062755Y0050600D01*
X0064519Y0051331D01*
X0065869Y0052681D01*
X0066600Y0054445D01*
X0066600Y0069155D01*
X0065869Y0070919D01*
X0065289Y0071499D01*
X0068311Y0071499D01*
X0067731Y0070919D01*
X0067000Y0069155D01*
X0067000Y0054445D01*
X0067731Y0052681D01*
X0069081Y0051331D01*
X0070845Y0050600D01*
X0072755Y0050600D01*
X0074519Y0051331D01*
X0075869Y0052681D01*
X0076600Y0054445D01*
X0076600Y0069155D01*
X0075869Y0070919D01*
X0075289Y0071499D01*
X0078311Y0071499D01*
X0077731Y0070919D01*
X0077000Y0069155D01*
X0077000Y0054445D01*
X0077731Y0052681D01*
X0079081Y0051331D01*
X0080845Y0050600D01*
X0082755Y0050600D01*
X0084519Y0051331D01*
X0085869Y0052681D01*
X0086600Y0054445D01*
X0086600Y0069155D01*
X0085869Y0070919D01*
X0085289Y0071499D01*
X0108028Y0071499D01*
X0107986Y0071457D01*
X0107524Y0070821D01*
X0107166Y0070119D01*
X0106923Y0069371D01*
X0106800Y0068594D01*
X0106800Y0062000D01*
X0111600Y0062000D01*
X0111600Y0061600D01*
X0112000Y0061600D01*
X0112000Y0062000D01*
X0116800Y0062000D01*
X0116800Y0068594D01*
X0116677Y0069371D01*
X0116434Y0070119D01*
X0116076Y0070821D01*
X0115614Y0071457D01*
X0115572Y0071499D01*
X0118311Y0071499D01*
X0117731Y0070919D01*
X0117000Y0069155D01*
X0117000Y0054445D01*
X0117731Y0052681D01*
X0119081Y0051331D01*
X0120845Y0050600D01*
X0122755Y0050600D01*
X0124519Y0051331D01*
X0125869Y0052681D01*
X0126600Y0054445D01*
X0126600Y0069155D01*
X0125869Y0070919D01*
X0125289Y0071499D01*
X0128311Y0071499D01*
X0127731Y0070919D01*
X0127000Y0069155D01*
X0127000Y0054445D01*
X0127731Y0052681D01*
X0129081Y0051331D01*
X0130845Y0050600D01*
X0132755Y0050600D01*
X0134519Y0051331D01*
X0135869Y0052681D01*
X0136600Y0054445D01*
X0136600Y0069155D01*
X0135869Y0070919D01*
X0135289Y0071499D01*
X0138311Y0071499D01*
X0137731Y0070919D01*
X0137000Y0069155D01*
X0137000Y0054445D01*
X0137731Y0052681D01*
X0139081Y0051331D01*
X0140845Y0050600D01*
X0142755Y0050600D01*
X0144519Y0051331D01*
X0145869Y0052681D01*
X0146600Y0054445D01*
X0146600Y0069155D01*
X0145869Y0070919D01*
X0145289Y0071499D01*
X0148311Y0071499D01*
X0147731Y0070919D01*
X0147000Y0069155D01*
X0147000Y0054445D01*
X0147731Y0052681D01*
X0149081Y0051331D01*
X0150845Y0050600D01*
X0152755Y0050600D01*
X0154519Y0051331D01*
X0155869Y0052681D01*
X0156600Y0054445D01*
X0156600Y0069155D01*
X0155869Y0070919D01*
X0155289Y0071499D01*
X0178028Y0071499D01*
X0177986Y0071457D01*
X0177524Y0070821D01*
X0177166Y0070119D01*
X0176923Y0069371D01*
X0176800Y0068594D01*
X0176800Y0062000D01*
X0181600Y0062000D01*
X0181600Y0061600D01*
X0182000Y0061600D01*
X0182000Y0062000D01*
X0186800Y0062000D01*
X0186800Y0068594D01*
X0186677Y0069371D01*
X0186434Y0070119D01*
X0186076Y0070821D01*
X0185614Y0071457D01*
X0185572Y0071499D01*
X0188311Y0071499D01*
X0187731Y0070919D01*
X0187000Y0069155D01*
X0187000Y0054445D01*
X0187731Y0052681D01*
X0189081Y0051331D01*
X0190845Y0050600D01*
X0192755Y0050600D01*
X0194519Y0051331D01*
X0195869Y0052681D01*
X0196600Y0054445D01*
X0196600Y0069155D01*
X0195869Y0070919D01*
X0195289Y0071499D01*
X0198311Y0071499D01*
X0197731Y0070919D01*
X0197000Y0069155D01*
X0197000Y0054445D01*
X0197731Y0052681D01*
X0199081Y0051331D01*
X0200845Y0050600D01*
X0202755Y0050600D01*
X0204519Y0051331D01*
X0205869Y0052681D01*
X0206600Y0054445D01*
X0206600Y0069155D01*
X0205869Y0070919D01*
X0205289Y0071499D01*
X0208311Y0071499D01*
X0207731Y0070919D01*
X0207000Y0069155D01*
X0207000Y0054445D01*
X0207731Y0052681D01*
X0209081Y0051331D01*
X0210845Y0050600D01*
X0212755Y0050600D01*
X0214519Y0051331D01*
X0215869Y0052681D01*
X0216600Y0054445D01*
X0216600Y0069155D01*
X0215869Y0070919D01*
X0215289Y0071499D01*
X0218311Y0071499D01*
X0217731Y0070919D01*
X0217000Y0069155D01*
X0217000Y0054445D01*
X0217731Y0052681D01*
X0219081Y0051331D01*
X0220845Y0050600D01*
X0222755Y0050600D01*
X0224519Y0051331D01*
X0225869Y0052681D01*
X0226600Y0054445D01*
X0226600Y0069155D01*
X0225869Y0070919D01*
X0225289Y0071499D01*
X0248028Y0071499D01*
X0247986Y0071457D01*
X0247524Y0070821D01*
X0247166Y0070119D01*
X0246923Y0069371D01*
X0246800Y0068594D01*
X0246800Y0062000D01*
X0251600Y0062000D01*
X0251600Y0061600D01*
X0252000Y0061600D01*
X0252000Y0062000D01*
X0256800Y0062000D01*
X0256800Y0068594D01*
X0256677Y0069371D01*
X0256434Y0070119D01*
X0256076Y0070821D01*
X0255614Y0071457D01*
X0255572Y0071499D01*
X0258311Y0071499D01*
X0257731Y0070919D01*
X0257000Y0069155D01*
X0257000Y0054445D01*
X0257731Y0052681D01*
X0259081Y0051331D01*
X0260845Y0050600D01*
X0262755Y0050600D01*
X0264519Y0051331D01*
X0265869Y0052681D01*
X0266600Y0054445D01*
X0266600Y0069155D01*
X0265869Y0070919D01*
X0265289Y0071499D01*
X0268311Y0071499D01*
X0267731Y0070919D01*
X0267000Y0069155D01*
X0267000Y0054445D01*
X0267731Y0052681D01*
X0269081Y0051331D01*
X0270845Y0050600D01*
X0272755Y0050600D01*
X0274519Y0051331D01*
X0275869Y0052681D01*
X0276600Y0054445D01*
X0276600Y0069155D01*
X0275869Y0070919D01*
X0275289Y0071499D01*
X0278311Y0071499D01*
X0277731Y0070919D01*
X0277000Y0069155D01*
X0277000Y0054445D01*
X0277731Y0052681D01*
X0279081Y0051331D01*
X0280845Y0050600D01*
X0282755Y0050600D01*
X0284519Y0051331D01*
X0285869Y0052681D01*
X0286600Y0054445D01*
X0286600Y0069155D01*
X0285869Y0070919D01*
X0285289Y0071499D01*
X0288311Y0071499D01*
X0287731Y0070919D01*
X0287000Y0069155D01*
X0287000Y0054445D01*
X0287731Y0052681D01*
X0289081Y0051331D01*
X0290845Y0050600D01*
X0292755Y0050600D01*
X0294519Y0051331D01*
X0295869Y0052681D01*
X0296600Y0054445D01*
X0296600Y0069155D01*
X0295869Y0070919D01*
X0295289Y0071499D01*
X0318311Y0071499D01*
X0317731Y0070919D01*
X0317000Y0069155D01*
X0317000Y0054445D01*
X0317731Y0052681D01*
X0319081Y0051331D01*
X0320845Y0050600D01*
X0322755Y0050600D01*
X0324519Y0051331D01*
X0325869Y0052681D01*
X0326600Y0054445D01*
X0326600Y0069155D01*
X0325869Y0070919D01*
X0325289Y0071499D01*
X0328311Y0071499D01*
X0327731Y0070919D01*
X0327000Y0069155D01*
X0327000Y0054445D01*
X0327731Y0052681D01*
X0329081Y0051331D01*
X0330845Y0050600D01*
X0332755Y0050600D01*
X0334519Y0051331D01*
X0335869Y0052681D01*
X0336600Y0054445D01*
X0336600Y0069155D01*
X0335869Y0070919D01*
X0335162Y0071626D01*
X0335887Y0071926D01*
X0413387Y0149426D01*
X0414174Y0150213D01*
X0414601Y0151243D01*
X0414601Y0151413D01*
X0415869Y0152681D01*
X0416600Y0154445D01*
X0416600Y0169155D01*
X0415869Y0170919D01*
X0414519Y0172269D01*
X0412755Y0173000D01*
X0410845Y0173000D01*
X0409081Y0172269D01*
X0407731Y0170919D01*
X0407000Y0169155D01*
X0407000Y0154445D01*
X0407731Y0152681D01*
X0408225Y0152186D01*
X0333140Y0077101D01*
X0293868Y0077101D01*
X0294053Y0077178D01*
X0294625Y0077749D01*
X0331107Y0077749D01*
X0332137Y0078176D01*
X0332924Y0078963D01*
X0403387Y0149426D01*
X0404174Y0150213D01*
X0404601Y0151243D01*
X0404601Y0151413D01*
X0405869Y0152681D01*
X0406600Y0154445D01*
X0406600Y0169155D01*
X0405869Y0170919D01*
X0404519Y0172269D01*
X0402755Y0173000D01*
X0400845Y0173000D01*
X0399081Y0172269D01*
X0397731Y0170919D01*
X0397000Y0169155D01*
X0397000Y0154445D01*
X0397731Y0152681D01*
X0398225Y0152186D01*
X0329390Y0083351D01*
X0294625Y0083351D01*
X0294053Y0083922D01*
X0292591Y0084528D01*
X0291009Y0084528D01*
X0289547Y0083922D01*
X0288975Y0083351D01*
X0224625Y0083351D01*
X0224053Y0083922D01*
X0222591Y0084528D01*
X0221009Y0084528D01*
X0219547Y0083922D01*
X0218975Y0083351D01*
X0154625Y0083351D01*
X0154053Y0083922D01*
X0152591Y0084528D01*
X0151009Y0084528D01*
X0149547Y0083922D01*
X0148974Y0083350D01*
X0084626Y0083350D01*
X0084053Y0083922D01*
X0082591Y0084528D01*
X0081009Y0084528D01*
X0079547Y0083922D01*
X0078428Y0082803D01*
X0077822Y0081341D01*
X0077822Y0079759D01*
X0078428Y0078297D01*
X0079547Y0077178D01*
X0079732Y0077101D01*
X0064625Y0077101D01*
X0064053Y0077672D01*
X0062591Y0078278D01*
X0061009Y0078278D01*
X0059547Y0077672D01*
X0058428Y0076553D01*
X0057822Y0075091D01*
X0057822Y0073509D01*
X0057822Y0074960D02*
X0019899Y0074960D01*
X0019899Y0076558D02*
X0058433Y0076558D01*
X0060716Y0078157D02*
X0019899Y0078157D01*
X0019899Y0079755D02*
X0077823Y0079755D01*
X0077827Y0081354D02*
X0019899Y0081354D01*
X0019899Y0082952D02*
X0078577Y0082952D01*
X0078567Y0078157D02*
X0062884Y0078157D01*
X0055869Y0070919D02*
X0054519Y0072269D01*
X0052755Y0073000D01*
X0050845Y0073000D01*
X0049081Y0072269D01*
X0047731Y0070919D01*
X0047000Y0069155D01*
X0047000Y0054445D01*
X0047731Y0052681D01*
X0049081Y0051331D01*
X0050845Y0050600D01*
X0052755Y0050600D01*
X0054519Y0051331D01*
X0055869Y0052681D01*
X0056600Y0054445D01*
X0056600Y0069155D01*
X0055869Y0070919D01*
X0056182Y0070164D02*
X0057418Y0070164D01*
X0057000Y0068566D02*
X0056600Y0068566D01*
X0056600Y0066967D02*
X0057000Y0066967D01*
X0057000Y0065369D02*
X0056600Y0065369D01*
X0056600Y0063770D02*
X0057000Y0063770D01*
X0057000Y0062172D02*
X0056600Y0062172D01*
X0056600Y0060573D02*
X0057000Y0060573D01*
X0057000Y0058975D02*
X0056600Y0058975D01*
X0056600Y0057376D02*
X0057000Y0057376D01*
X0057000Y0055778D02*
X0056600Y0055778D01*
X0056490Y0054179D02*
X0057110Y0054179D01*
X0057831Y0052581D02*
X0055769Y0052581D01*
X0053677Y0050982D02*
X0059923Y0050982D01*
X0063677Y0050982D02*
X0069923Y0050982D01*
X0067831Y0052581D02*
X0065769Y0052581D01*
X0066490Y0054179D02*
X0067110Y0054179D01*
X0067000Y0055778D02*
X0066600Y0055778D01*
X0066600Y0057376D02*
X0067000Y0057376D01*
X0067000Y0058975D02*
X0066600Y0058975D01*
X0066600Y0060573D02*
X0067000Y0060573D01*
X0067000Y0062172D02*
X0066600Y0062172D01*
X0066600Y0063770D02*
X0067000Y0063770D01*
X0067000Y0065369D02*
X0066600Y0065369D01*
X0066600Y0066967D02*
X0067000Y0066967D01*
X0067000Y0068566D02*
X0066600Y0068566D01*
X0066182Y0070164D02*
X0067418Y0070164D01*
X0058575Y0071763D02*
X0055025Y0071763D01*
X0048575Y0071763D02*
X0045308Y0071763D01*
X0046411Y0070164D02*
X0047418Y0070164D01*
X0047000Y0068566D02*
X0046800Y0068566D01*
X0046800Y0066967D02*
X0047000Y0066967D01*
X0047000Y0065369D02*
X0046800Y0065369D01*
X0046800Y0063770D02*
X0047000Y0063770D01*
X0047000Y0062172D02*
X0046800Y0062172D01*
X0046800Y0061600D02*
X0042000Y0061600D01*
X0042000Y0050400D01*
X0042194Y0050400D01*
X0042971Y0050523D01*
X0043719Y0050766D01*
X0044421Y0051124D01*
X0045057Y0051586D01*
X0045614Y0052143D01*
X0046076Y0052779D01*
X0046434Y0053481D01*
X0046677Y0054229D01*
X0046800Y0055006D01*
X0046800Y0061600D01*
X0046800Y0060573D02*
X0047000Y0060573D01*
X0047000Y0058975D02*
X0046800Y0058975D01*
X0046800Y0057376D02*
X0047000Y0057376D01*
X0047000Y0055778D02*
X0046800Y0055778D01*
X0046661Y0054179D02*
X0047110Y0054179D01*
X0047831Y0052581D02*
X0045932Y0052581D01*
X0044143Y0050982D02*
X0049923Y0050982D01*
X0042000Y0050982D02*
X0041600Y0050982D01*
X0041600Y0052581D02*
X0042000Y0052581D01*
X0042000Y0054179D02*
X0041600Y0054179D01*
X0041600Y0055778D02*
X0042000Y0055778D01*
X0042000Y0057376D02*
X0041600Y0057376D01*
X0041600Y0058975D02*
X0042000Y0058975D01*
X0042000Y0060573D02*
X0041600Y0060573D01*
X0041600Y0062172D02*
X0042000Y0062172D01*
X0042000Y0063770D02*
X0041600Y0063770D01*
X0041600Y0065369D02*
X0042000Y0065369D01*
X0042000Y0066967D02*
X0041600Y0066967D01*
X0041600Y0068566D02*
X0042000Y0068566D01*
X0042000Y0070164D02*
X0041600Y0070164D01*
X0041600Y0071763D02*
X0042000Y0071763D01*
X0019899Y0084551D02*
X0330590Y0084551D01*
X0332188Y0086149D02*
X0275254Y0086149D01*
X0275103Y0086079D02*
X0275577Y0086300D01*
X0275602Y0086370D01*
X0275677Y0086370D01*
X0276046Y0086739D01*
X0276475Y0087039D01*
X0276487Y0087113D01*
X0276561Y0087125D01*
X0276861Y0087554D01*
X0277230Y0087923D01*
X0277230Y0087998D01*
X0277300Y0088023D01*
X0277521Y0088497D01*
X0277821Y0088925D01*
X0277808Y0088998D01*
X0277872Y0089036D01*
X0278008Y0089541D01*
X0278229Y0090014D01*
X0278203Y0090084D01*
X0278260Y0090132D01*
X0278306Y0090653D01*
X0278441Y0091158D01*
X0278400Y0091229D01*
X0278400Y0091730D01*
X0278452Y0092321D01*
X0278400Y0092382D01*
X0278400Y0131218D01*
X0278452Y0131279D01*
X0278400Y0131870D01*
X0278400Y0132371D01*
X0278441Y0132442D01*
X0278306Y0132947D01*
X0278260Y0133468D01*
X0278203Y0133516D01*
X0278229Y0133586D01*
X0278008Y0134059D01*
X0277872Y0134564D01*
X0277808Y0134602D01*
X0277821Y0134675D01*
X0277521Y0135103D01*
X0277300Y0135577D01*
X0277230Y0135602D01*
X0277230Y0135677D01*
X0276861Y0136046D01*
X0276561Y0136475D01*
X0276487Y0136487D01*
X0276475Y0136561D01*
X0276046Y0136861D01*
X0275677Y0137230D01*
X0275602Y0137230D01*
X0275577Y0137300D01*
X0275103Y0137521D01*
X0274675Y0137821D01*
X0274602Y0137808D01*
X0274564Y0137872D01*
X0274059Y0138008D01*
X0273586Y0138229D01*
X0273516Y0138203D01*
X0273468Y0138260D01*
X0272947Y0138306D01*
X0272442Y0138441D01*
X0272378Y0138404D01*
X0272321Y0138452D01*
X0271800Y0138406D01*
X0271279Y0138452D01*
X0271222Y0138404D01*
X0271158Y0138441D01*
X0270653Y0138306D01*
X0270132Y0138260D01*
X0270084Y0138203D01*
X0270014Y0138229D01*
X0269541Y0138008D01*
X0269036Y0137872D01*
X0268998Y0137808D01*
X0268925Y0137821D01*
X0268497Y0137521D01*
X0268023Y0137300D01*
X0267998Y0137230D01*
X0267923Y0137230D01*
X0267554Y0136861D01*
X0267125Y0136561D01*
X0267113Y0136487D01*
X0267039Y0136475D01*
X0266739Y0136046D01*
X0266370Y0135677D01*
X0266370Y0135602D01*
X0266300Y0135577D01*
X0266079Y0135103D01*
X0265779Y0134675D01*
X0265792Y0134602D01*
X0265728Y0134564D01*
X0265592Y0134059D01*
X0265371Y0133586D01*
X0265397Y0133516D01*
X0265340Y0133468D01*
X0265294Y0132947D01*
X0265159Y0132442D01*
X0265200Y0132371D01*
X0265200Y0131870D01*
X0265148Y0131279D01*
X0265200Y0131218D01*
X0265200Y0092382D01*
X0265148Y0092321D01*
X0265200Y0091730D01*
X0265200Y0091229D01*
X0265159Y0091158D01*
X0265294Y0090653D01*
X0265340Y0090132D01*
X0265397Y0090084D01*
X0265371Y0090014D01*
X0265592Y0089541D01*
X0265728Y0089036D01*
X0265792Y0088998D01*
X0265779Y0088925D01*
X0266079Y0088497D01*
X0266300Y0088023D01*
X0266370Y0087998D01*
X0266370Y0087923D01*
X0266739Y0087554D01*
X0267039Y0087125D01*
X0267113Y0087113D01*
X0267125Y0087039D01*
X0267554Y0086739D01*
X0267923Y0086370D01*
X0267998Y0086370D01*
X0268023Y0086300D01*
X0268497Y0086079D01*
X0268925Y0085779D01*
X0268998Y0085792D01*
X0269036Y0085728D01*
X0269541Y0085592D01*
X0270014Y0085371D01*
X0270084Y0085397D01*
X0270132Y0085340D01*
X0270653Y0085294D01*
X0271158Y0085159D01*
X0271222Y0085196D01*
X0271279Y0085148D01*
X0271800Y0085194D01*
X0272321Y0085148D01*
X0272378Y0085196D01*
X0272442Y0085159D01*
X0272947Y0085294D01*
X0273468Y0085340D01*
X0273516Y0085397D01*
X0273586Y0085371D01*
X0274059Y0085592D01*
X0274564Y0085728D01*
X0274602Y0085792D01*
X0274675Y0085779D01*
X0275103Y0086079D01*
X0277055Y0087748D02*
X0333787Y0087748D01*
X0333195Y0089346D02*
X0335386Y0089346D01*
X0334174Y0090213D02*
X0393387Y0149426D01*
X0394174Y0150213D01*
X0394601Y0151243D01*
X0394601Y0151413D01*
X0395869Y0152681D01*
X0396600Y0154445D01*
X0396600Y0169155D01*
X0395869Y0170919D01*
X0394519Y0172269D01*
X0392755Y0173000D01*
X0390845Y0173000D01*
X0389081Y0172269D01*
X0387731Y0170919D01*
X0387000Y0169155D01*
X0387000Y0154445D01*
X0387731Y0152681D01*
X0388225Y0152186D01*
X0330640Y0094601D01*
X0294625Y0094601D01*
X0294053Y0095172D01*
X0292591Y0095778D01*
X0291009Y0095778D01*
X0289547Y0095172D01*
X0288428Y0094053D01*
X0287822Y0092591D01*
X0287822Y0091009D01*
X0288428Y0089547D01*
X0289547Y0088428D01*
X0291009Y0087822D01*
X0292591Y0087822D01*
X0294053Y0088428D01*
X0294625Y0088999D01*
X0332357Y0088999D01*
X0333387Y0089426D01*
X0334174Y0090213D01*
X0334906Y0090945D02*
X0336984Y0090945D01*
X0336504Y0092543D02*
X0338583Y0092543D01*
X0338103Y0094142D02*
X0340181Y0094142D01*
X0339701Y0095740D02*
X0341780Y0095740D01*
X0341300Y0097339D02*
X0343378Y0097339D01*
X0342898Y0098937D02*
X0344977Y0098937D01*
X0344497Y0100536D02*
X0346575Y0100536D01*
X0346095Y0102134D02*
X0348174Y0102134D01*
X0347694Y0103733D02*
X0349772Y0103733D01*
X0349292Y0105332D02*
X0351371Y0105332D01*
X0350891Y0106930D02*
X0352969Y0106930D01*
X0352489Y0108529D02*
X0354568Y0108529D01*
X0354088Y0110127D02*
X0356166Y0110127D01*
X0355686Y0111726D02*
X0357765Y0111726D01*
X0357285Y0113324D02*
X0359363Y0113324D01*
X0358884Y0114923D02*
X0360962Y0114923D01*
X0360482Y0116521D02*
X0362560Y0116521D01*
X0362081Y0118120D02*
X0364159Y0118120D01*
X0363679Y0119718D02*
X0365757Y0119718D01*
X0365278Y0121317D02*
X0367356Y0121317D01*
X0366876Y0122915D02*
X0368954Y0122915D01*
X0368475Y0124514D02*
X0370553Y0124514D01*
X0370073Y0126112D02*
X0372151Y0126112D01*
X0371672Y0127711D02*
X0373750Y0127711D01*
X0373270Y0129309D02*
X0375348Y0129309D01*
X0374869Y0130908D02*
X0376947Y0130908D01*
X0376467Y0132506D02*
X0378545Y0132506D01*
X0378066Y0134105D02*
X0380144Y0134105D01*
X0379664Y0135703D02*
X0381742Y0135703D01*
X0381263Y0137302D02*
X0383341Y0137302D01*
X0382861Y0138900D02*
X0384939Y0138900D01*
X0384460Y0140499D02*
X0386538Y0140499D01*
X0386058Y0142097D02*
X0388136Y0142097D01*
X0387657Y0143696D02*
X0389735Y0143696D01*
X0389255Y0145294D02*
X0391333Y0145294D01*
X0390854Y0146893D02*
X0392932Y0146893D01*
X0392452Y0148491D02*
X0394530Y0148491D01*
X0394051Y0150090D02*
X0396129Y0150090D01*
X0394877Y0151688D02*
X0397727Y0151688D01*
X0397480Y0153287D02*
X0396120Y0153287D01*
X0396600Y0154885D02*
X0397000Y0154885D01*
X0397000Y0156484D02*
X0396600Y0156484D01*
X0396600Y0158082D02*
X0397000Y0158082D01*
X0397000Y0159681D02*
X0396600Y0159681D01*
X0396600Y0161279D02*
X0397000Y0161279D01*
X0397000Y0162878D02*
X0396600Y0162878D01*
X0396600Y0164476D02*
X0397000Y0164476D01*
X0397000Y0166075D02*
X0396600Y0166075D01*
X0396600Y0167673D02*
X0397000Y0167673D01*
X0397049Y0169272D02*
X0396551Y0169272D01*
X0395889Y0170870D02*
X0397711Y0170870D01*
X0399563Y0172469D02*
X0394037Y0172469D01*
X0389563Y0172469D02*
X0384037Y0172469D01*
X0384519Y0172269D02*
X0382755Y0173000D01*
X0380845Y0173000D01*
X0379081Y0172269D01*
X0377731Y0170919D01*
X0377000Y0169155D01*
X0377000Y0154445D01*
X0377731Y0152681D01*
X0378225Y0152186D01*
X0350640Y0124601D01*
X0297960Y0124601D01*
X0274174Y0148387D01*
X0273387Y0149174D01*
X0272357Y0149601D01*
X0214625Y0149601D01*
X0214053Y0150172D01*
X0212591Y0150778D01*
X0211009Y0150778D01*
X0209547Y0150172D01*
X0208428Y0149053D01*
X0207822Y0147591D01*
X0207822Y0146009D01*
X0208428Y0144547D01*
X0209547Y0143428D01*
X0211009Y0142822D01*
X0212591Y0142822D01*
X0214053Y0143428D01*
X0214625Y0143999D01*
X0270640Y0143999D01*
X0295213Y0119426D01*
X0296243Y0118999D01*
X0352357Y0118999D01*
X0353387Y0119426D01*
X0354174Y0120213D01*
X0383387Y0149426D01*
X0384174Y0150213D01*
X0384601Y0151243D01*
X0384601Y0151413D01*
X0385869Y0152681D01*
X0386600Y0154445D01*
X0386600Y0169155D01*
X0385869Y0170919D01*
X0384519Y0172269D01*
X0385889Y0170870D02*
X0387711Y0170870D01*
X0387049Y0169272D02*
X0386551Y0169272D01*
X0386600Y0167673D02*
X0387000Y0167673D01*
X0387000Y0166075D02*
X0386600Y0166075D01*
X0386600Y0164476D02*
X0387000Y0164476D01*
X0387000Y0162878D02*
X0386600Y0162878D01*
X0386600Y0161279D02*
X0387000Y0161279D01*
X0387000Y0159681D02*
X0386600Y0159681D01*
X0386600Y0158082D02*
X0387000Y0158082D01*
X0387000Y0156484D02*
X0386600Y0156484D01*
X0386600Y0154885D02*
X0387000Y0154885D01*
X0387480Y0153287D02*
X0386120Y0153287D01*
X0384877Y0151688D02*
X0387727Y0151688D01*
X0386129Y0150090D02*
X0384051Y0150090D01*
X0384530Y0148491D02*
X0382452Y0148491D01*
X0382932Y0146893D02*
X0380854Y0146893D01*
X0381333Y0145294D02*
X0379255Y0145294D01*
X0379735Y0143696D02*
X0377657Y0143696D01*
X0378136Y0142097D02*
X0376058Y0142097D01*
X0376538Y0140499D02*
X0374460Y0140499D01*
X0374939Y0138900D02*
X0372861Y0138900D01*
X0373341Y0137302D02*
X0371263Y0137302D01*
X0371742Y0135703D02*
X0369664Y0135703D01*
X0370144Y0134105D02*
X0368066Y0134105D01*
X0368545Y0132506D02*
X0366467Y0132506D01*
X0366947Y0130908D02*
X0364869Y0130908D01*
X0365348Y0129309D02*
X0363270Y0129309D01*
X0363750Y0127711D02*
X0361672Y0127711D01*
X0362151Y0126112D02*
X0360073Y0126112D01*
X0360553Y0124514D02*
X0358475Y0124514D01*
X0358954Y0122915D02*
X0356876Y0122915D01*
X0357356Y0121317D02*
X0355278Y0121317D01*
X0355757Y0119718D02*
X0353679Y0119718D01*
X0354159Y0118120D02*
X0278400Y0118120D01*
X0278400Y0119718D02*
X0294921Y0119718D01*
X0293322Y0121317D02*
X0278400Y0121317D01*
X0278400Y0122915D02*
X0291724Y0122915D01*
X0290125Y0124514D02*
X0278400Y0124514D01*
X0278400Y0126112D02*
X0288527Y0126112D01*
X0286928Y0127711D02*
X0278400Y0127711D01*
X0278400Y0129309D02*
X0285330Y0129309D01*
X0283731Y0130908D02*
X0278400Y0130908D01*
X0278424Y0132506D02*
X0282133Y0132506D01*
X0280534Y0134105D02*
X0277996Y0134105D01*
X0277204Y0135703D02*
X0278936Y0135703D01*
X0277337Y0137302D02*
X0275573Y0137302D01*
X0275739Y0138900D02*
X0064919Y0138900D01*
X0065103Y0138771D02*
X0064675Y0139071D01*
X0064602Y0139058D01*
X0064564Y0139122D01*
X0064059Y0139258D01*
X0063586Y0139479D01*
X0063516Y0139453D01*
X0063468Y0139510D01*
X0062947Y0139556D01*
X0062442Y0139691D01*
X0062378Y0139654D01*
X0062321Y0139702D01*
X0061800Y0139656D01*
X0061279Y0139702D01*
X0061222Y0139654D01*
X0061158Y0139691D01*
X0060653Y0139556D01*
X0060132Y0139510D01*
X0060084Y0139453D01*
X0060014Y0139479D01*
X0059541Y0139258D01*
X0059036Y0139122D01*
X0058998Y0139058D01*
X0058925Y0139071D01*
X0058497Y0138771D01*
X0058023Y0138550D01*
X0057998Y0138480D01*
X0057923Y0138480D01*
X0057554Y0138111D01*
X0057125Y0137811D01*
X0057113Y0137737D01*
X0057039Y0137725D01*
X0056739Y0137296D01*
X0056370Y0136927D01*
X0056370Y0136852D01*
X0056300Y0136827D01*
X0056079Y0136353D01*
X0055779Y0135925D01*
X0055792Y0135852D01*
X0055728Y0135814D01*
X0055592Y0135309D01*
X0055371Y0134836D01*
X0055397Y0134766D01*
X0055340Y0134718D01*
X0055294Y0134197D01*
X0055159Y0133692D01*
X0055200Y0133621D01*
X0055200Y0133120D01*
X0055148Y0132529D01*
X0055200Y0132468D01*
X0055200Y0093632D01*
X0055148Y0093571D01*
X0055200Y0092980D01*
X0055200Y0092479D01*
X0055159Y0092408D01*
X0055294Y0091903D01*
X0055340Y0091382D01*
X0055397Y0091334D01*
X0055371Y0091264D01*
X0055592Y0090791D01*
X0055728Y0090286D01*
X0055792Y0090248D01*
X0055779Y0090175D01*
X0056079Y0089747D01*
X0056300Y0089273D01*
X0056370Y0089248D01*
X0056370Y0089173D01*
X0056739Y0088804D01*
X0057039Y0088375D01*
X0057113Y0088363D01*
X0057125Y0088289D01*
X0057554Y0087989D01*
X0057923Y0087620D01*
X0057998Y0087620D01*
X0058023Y0087550D01*
X0058497Y0087329D01*
X0058925Y0087029D01*
X0058998Y0087042D01*
X0059036Y0086978D01*
X0059541Y0086842D01*
X0060014Y0086621D01*
X0060084Y0086647D01*
X0060132Y0086590D01*
X0060653Y0086544D01*
X0061158Y0086409D01*
X0061229Y0086450D01*
X0061730Y0086450D01*
X0062321Y0086398D01*
X0062382Y0086450D01*
X0062468Y0086450D01*
X0062529Y0086398D01*
X0063120Y0086450D01*
X0063371Y0086450D01*
X0063475Y0086390D01*
X0063699Y0086450D01*
X0063713Y0086450D01*
X0063718Y0086455D01*
X0063980Y0086525D01*
X0064371Y0086559D01*
X0064408Y0086546D01*
X0064452Y0086567D01*
X0064501Y0086571D01*
X0064526Y0086601D01*
X0064882Y0086767D01*
X0065261Y0086868D01*
X0065300Y0086862D01*
X0065340Y0086890D01*
X0065387Y0086902D01*
X0065407Y0086936D01*
X0065728Y0087161D01*
X0066084Y0087327D01*
X0066123Y0087327D01*
X0066158Y0087362D01*
X0066202Y0087382D01*
X0066215Y0087419D01*
X0066493Y0087697D01*
X0066814Y0087922D01*
X0066853Y0087929D01*
X0066881Y0087969D01*
X0066921Y0087997D01*
X0066928Y0088036D01*
X0067153Y0088357D01*
X0067431Y0088635D01*
X0067468Y0088648D01*
X0067488Y0088692D01*
X0067523Y0088727D01*
X0067523Y0088766D01*
X0067688Y0089122D01*
X0067914Y0089443D01*
X0067948Y0089463D01*
X0067960Y0089510D01*
X0067988Y0089550D01*
X0067982Y0089589D01*
X0068083Y0089968D01*
X0068249Y0090324D01*
X0068279Y0090349D01*
X0068283Y0090398D01*
X0068304Y0090442D01*
X0068291Y0090479D01*
X0068325Y0090870D01*
X0068395Y0091132D01*
X0068400Y0091137D01*
X0068400Y0091151D01*
X0068460Y0091375D01*
X0068400Y0091479D01*
X0068400Y0091730D01*
X0068452Y0092321D01*
X0068400Y0092382D01*
X0068400Y0132468D01*
X0068452Y0132529D01*
X0068400Y0133120D01*
X0068400Y0133621D01*
X0068441Y0133692D01*
X0068306Y0134197D01*
X0068260Y0134718D01*
X0068203Y0134766D01*
X0068229Y0134836D01*
X0068008Y0135309D01*
X0067872Y0135814D01*
X0067808Y0135852D01*
X0067821Y0135925D01*
X0067521Y0136353D01*
X0067300Y0136827D01*
X0067230Y0136852D01*
X0067230Y0136927D01*
X0066861Y0137296D01*
X0066561Y0137725D01*
X0066487Y0137737D01*
X0066475Y0137811D01*
X0066046Y0138111D01*
X0065677Y0138480D01*
X0065602Y0138480D01*
X0065577Y0138550D01*
X0065103Y0138771D01*
X0066857Y0137302D02*
X0128027Y0137302D01*
X0128023Y0137300D02*
X0127998Y0137230D01*
X0127923Y0137230D01*
X0127554Y0136861D01*
X0127125Y0136561D01*
X0127113Y0136487D01*
X0127039Y0136475D01*
X0126739Y0136046D01*
X0126370Y0135677D01*
X0126370Y0135602D01*
X0126300Y0135577D01*
X0126079Y0135103D01*
X0125779Y0134675D01*
X0125792Y0134602D01*
X0125728Y0134564D01*
X0125592Y0134059D01*
X0125371Y0133586D01*
X0125397Y0133516D01*
X0125340Y0133468D01*
X0125294Y0132947D01*
X0125159Y0132442D01*
X0125200Y0132371D01*
X0125200Y0131870D01*
X0125148Y0131279D01*
X0125200Y0131218D01*
X0125200Y0092382D01*
X0125148Y0092321D01*
X0125200Y0091730D01*
X0125200Y0091229D01*
X0125159Y0091158D01*
X0125294Y0090653D01*
X0125340Y0090132D01*
X0125397Y0090084D01*
X0125371Y0090014D01*
X0125592Y0089541D01*
X0125728Y0089036D01*
X0125792Y0088998D01*
X0125779Y0088925D01*
X0126079Y0088497D01*
X0126300Y0088023D01*
X0126370Y0087998D01*
X0126370Y0087923D01*
X0126739Y0087554D01*
X0127039Y0087125D01*
X0127113Y0087113D01*
X0127125Y0087039D01*
X0127554Y0086739D01*
X0127923Y0086370D01*
X0127998Y0086370D01*
X0128023Y0086300D01*
X0128497Y0086079D01*
X0128925Y0085779D01*
X0128998Y0085792D01*
X0129036Y0085728D01*
X0129541Y0085592D01*
X0130014Y0085371D01*
X0130084Y0085397D01*
X0130132Y0085340D01*
X0130653Y0085294D01*
X0131158Y0085159D01*
X0131222Y0085196D01*
X0131279Y0085148D01*
X0131800Y0085194D01*
X0132321Y0085148D01*
X0132378Y0085196D01*
X0132442Y0085159D01*
X0132947Y0085294D01*
X0133468Y0085340D01*
X0133516Y0085397D01*
X0133586Y0085371D01*
X0134059Y0085592D01*
X0134564Y0085728D01*
X0134602Y0085792D01*
X0134675Y0085779D01*
X0135103Y0086079D01*
X0135577Y0086300D01*
X0135602Y0086370D01*
X0135677Y0086370D01*
X0136046Y0086739D01*
X0136475Y0087039D01*
X0136487Y0087113D01*
X0136561Y0087125D01*
X0136861Y0087554D01*
X0137230Y0087923D01*
X0137230Y0087998D01*
X0137300Y0088023D01*
X0137521Y0088497D01*
X0137821Y0088925D01*
X0137808Y0088998D01*
X0137872Y0089036D01*
X0138008Y0089541D01*
X0138229Y0090014D01*
X0138203Y0090084D01*
X0138260Y0090132D01*
X0138306Y0090653D01*
X0138441Y0091158D01*
X0138400Y0091229D01*
X0138400Y0091730D01*
X0138452Y0092321D01*
X0138400Y0092382D01*
X0138400Y0131218D01*
X0138452Y0131279D01*
X0138400Y0131870D01*
X0138400Y0132371D01*
X0138441Y0132442D01*
X0138306Y0132947D01*
X0138260Y0133468D01*
X0138203Y0133516D01*
X0138229Y0133586D01*
X0138008Y0134059D01*
X0137872Y0134564D01*
X0137808Y0134602D01*
X0137821Y0134675D01*
X0137521Y0135103D01*
X0137300Y0135577D01*
X0137230Y0135602D01*
X0137230Y0135677D01*
X0136861Y0136046D01*
X0136561Y0136475D01*
X0136487Y0136487D01*
X0136475Y0136561D01*
X0136046Y0136861D01*
X0135677Y0137230D01*
X0135602Y0137230D01*
X0135577Y0137300D01*
X0135103Y0137521D01*
X0134675Y0137821D01*
X0134602Y0137808D01*
X0134564Y0137872D01*
X0134059Y0138008D01*
X0133586Y0138229D01*
X0133516Y0138203D01*
X0133468Y0138260D01*
X0132947Y0138306D01*
X0132442Y0138441D01*
X0132378Y0138404D01*
X0132321Y0138452D01*
X0131800Y0138406D01*
X0131279Y0138452D01*
X0131222Y0138404D01*
X0131158Y0138441D01*
X0130653Y0138306D01*
X0130132Y0138260D01*
X0130084Y0138203D01*
X0130014Y0138229D01*
X0129541Y0138008D01*
X0129036Y0137872D01*
X0128998Y0137808D01*
X0128925Y0137821D01*
X0128497Y0137521D01*
X0128023Y0137300D01*
X0126396Y0135703D02*
X0067902Y0135703D01*
X0068331Y0134105D02*
X0125604Y0134105D01*
X0125176Y0132506D02*
X0068432Y0132506D01*
X0068400Y0130908D02*
X0125200Y0130908D01*
X0125200Y0129309D02*
X0068400Y0129309D01*
X0068400Y0127711D02*
X0125200Y0127711D01*
X0125200Y0126112D02*
X0068400Y0126112D01*
X0068400Y0124514D02*
X0125200Y0124514D01*
X0125200Y0122915D02*
X0068400Y0122915D01*
X0068400Y0121317D02*
X0125200Y0121317D01*
X0125200Y0119718D02*
X0068400Y0119718D01*
X0068400Y0118120D02*
X0125200Y0118120D01*
X0125200Y0116521D02*
X0068400Y0116521D01*
X0068400Y0114923D02*
X0125200Y0114923D01*
X0125200Y0113324D02*
X0068400Y0113324D01*
X0068400Y0111726D02*
X0125200Y0111726D01*
X0125200Y0110127D02*
X0068400Y0110127D01*
X0068400Y0108529D02*
X0125200Y0108529D01*
X0125200Y0106930D02*
X0068400Y0106930D01*
X0068400Y0105332D02*
X0125200Y0105332D01*
X0125200Y0103733D02*
X0068400Y0103733D01*
X0068400Y0102134D02*
X0125200Y0102134D01*
X0125200Y0100536D02*
X0068400Y0100536D01*
X0068400Y0098937D02*
X0125200Y0098937D01*
X0125200Y0097339D02*
X0068400Y0097339D01*
X0068400Y0095740D02*
X0125200Y0095740D01*
X0125200Y0094142D02*
X0068400Y0094142D01*
X0068400Y0092543D02*
X0125200Y0092543D01*
X0125216Y0090945D02*
X0068345Y0090945D01*
X0067846Y0089346D02*
X0125644Y0089346D01*
X0126545Y0087748D02*
X0066566Y0087748D01*
X0057795Y0087748D02*
X0019899Y0087748D01*
X0019899Y0089346D02*
X0056266Y0089346D01*
X0055520Y0090945D02*
X0019899Y0090945D01*
X0019899Y0092543D02*
X0055200Y0092543D01*
X0055200Y0094142D02*
X0019899Y0094142D01*
X0019899Y0095740D02*
X0055200Y0095740D01*
X0055200Y0097339D02*
X0019899Y0097339D01*
X0019899Y0098937D02*
X0055200Y0098937D01*
X0055200Y0100536D02*
X0019899Y0100536D01*
X0019899Y0102134D02*
X0055200Y0102134D01*
X0055200Y0103733D02*
X0019899Y0103733D01*
X0019899Y0105332D02*
X0055200Y0105332D01*
X0055200Y0106930D02*
X0019899Y0106930D01*
X0019899Y0108529D02*
X0055200Y0108529D01*
X0055200Y0110127D02*
X0019899Y0110127D01*
X0019899Y0111726D02*
X0055200Y0111726D01*
X0055200Y0113324D02*
X0019899Y0113324D01*
X0019899Y0114923D02*
X0055200Y0114923D01*
X0055200Y0116521D02*
X0019899Y0116521D01*
X0019899Y0118120D02*
X0055200Y0118120D01*
X0055200Y0119718D02*
X0019899Y0119718D01*
X0019899Y0121317D02*
X0055200Y0121317D01*
X0055200Y0122915D02*
X0019899Y0122915D01*
X0019899Y0124514D02*
X0055200Y0124514D01*
X0055200Y0126112D02*
X0019899Y0126112D01*
X0019899Y0127711D02*
X0055200Y0127711D01*
X0055200Y0129309D02*
X0019899Y0129309D01*
X0019899Y0130908D02*
X0055200Y0130908D01*
X0055168Y0132506D02*
X0019899Y0132506D01*
X0019899Y0134105D02*
X0055269Y0134105D01*
X0055698Y0135703D02*
X0019899Y0135703D01*
X0019899Y0137302D02*
X0056743Y0137302D01*
X0058681Y0138900D02*
X0019899Y0138900D01*
X0019899Y0140499D02*
X0274140Y0140499D01*
X0272542Y0142097D02*
X0019899Y0142097D01*
X0019899Y0143696D02*
X0209279Y0143696D01*
X0208118Y0145294D02*
X0019899Y0145294D01*
X0019899Y0146893D02*
X0207822Y0146893D01*
X0208195Y0148491D02*
X0019899Y0148491D01*
X0019899Y0150090D02*
X0209464Y0150090D01*
X0214136Y0150090D02*
X0284549Y0150090D01*
X0282951Y0151688D02*
X0019899Y0151688D01*
X0019899Y0153287D02*
X0139887Y0153287D01*
X0139547Y0153428D02*
X0141009Y0152822D01*
X0142591Y0152822D01*
X0144053Y0153428D01*
X0144625Y0153999D01*
X0280640Y0153999D01*
X0305213Y0129426D01*
X0306243Y0128999D01*
X0352357Y0128999D01*
X0353387Y0129426D01*
X0354174Y0130213D01*
X0373387Y0149426D01*
X0374174Y0150213D01*
X0374601Y0151243D01*
X0374601Y0151413D01*
X0375869Y0152681D01*
X0376600Y0154445D01*
X0376600Y0169155D01*
X0375869Y0170919D01*
X0374519Y0172269D01*
X0372755Y0173000D01*
X0370845Y0173000D01*
X0369081Y0172269D01*
X0367731Y0170919D01*
X0367000Y0169155D01*
X0367000Y0154445D01*
X0367731Y0152681D01*
X0368225Y0152186D01*
X0350640Y0134601D01*
X0307960Y0134601D01*
X0284174Y0158387D01*
X0283387Y0159174D01*
X0282357Y0159601D01*
X0144625Y0159601D01*
X0144053Y0160172D01*
X0142591Y0160778D01*
X0141009Y0160778D01*
X0139547Y0160172D01*
X0138428Y0159053D01*
X0137822Y0157591D01*
X0137822Y0156009D01*
X0138428Y0154547D01*
X0139547Y0153428D01*
X0138287Y0154885D02*
X0019899Y0154885D01*
X0019899Y0156484D02*
X0137822Y0156484D01*
X0138025Y0158082D02*
X0019899Y0158082D01*
X0019899Y0159681D02*
X0139055Y0159681D01*
X0144545Y0159681D02*
X0294958Y0159681D01*
X0293360Y0161279D02*
X0019899Y0161279D01*
X0019899Y0162878D02*
X0070874Y0162878D01*
X0071009Y0162822D02*
X0072591Y0162822D01*
X0074053Y0163428D01*
X0074625Y0163999D01*
X0290640Y0163999D01*
X0315213Y0139426D01*
X0316243Y0138999D01*
X0352357Y0138999D01*
X0353387Y0139426D01*
X0354174Y0140213D01*
X0354175Y0140215D01*
X0363386Y0149426D01*
X0364174Y0150214D01*
X0364600Y0151243D01*
X0364600Y0151412D01*
X0365869Y0152681D01*
X0366600Y0154445D01*
X0366600Y0169155D01*
X0365869Y0170919D01*
X0364519Y0172269D01*
X0362755Y0173000D01*
X0360845Y0173000D01*
X0359081Y0172269D01*
X0357731Y0170919D01*
X0357000Y0169155D01*
X0357000Y0154445D01*
X0357731Y0152681D01*
X0358226Y0152186D01*
X0350641Y0144601D01*
X0317960Y0144601D01*
X0294174Y0168387D01*
X0293387Y0169174D01*
X0292357Y0169601D01*
X0074625Y0169601D01*
X0074053Y0170172D01*
X0072591Y0170778D01*
X0071009Y0170778D01*
X0069547Y0170172D01*
X0068428Y0169053D01*
X0067822Y0167591D01*
X0067822Y0166009D01*
X0068428Y0164547D01*
X0069547Y0163428D01*
X0071009Y0162822D01*
X0072726Y0162878D02*
X0291761Y0162878D01*
X0296486Y0166075D02*
X0317000Y0166075D01*
X0317000Y0167673D02*
X0294887Y0167673D01*
X0293151Y0169272D02*
X0317049Y0169272D01*
X0317000Y0169155D02*
X0317731Y0170919D01*
X0319081Y0172269D01*
X0320845Y0173000D01*
X0322755Y0173000D01*
X0324519Y0172269D01*
X0325869Y0170919D01*
X0326600Y0169155D01*
X0326600Y0154445D01*
X0325869Y0152681D01*
X0324519Y0151331D01*
X0322755Y0150600D01*
X0320845Y0150600D01*
X0319081Y0151331D01*
X0317731Y0152681D01*
X0317000Y0154445D01*
X0317000Y0169155D01*
X0317711Y0170870D02*
X0019899Y0170870D01*
X0019899Y0169272D02*
X0068646Y0169272D01*
X0067856Y0167673D02*
X0019899Y0167673D01*
X0019899Y0166075D02*
X0067822Y0166075D01*
X0068498Y0164476D02*
X0019899Y0164476D01*
X0019899Y0172469D02*
X0319563Y0172469D01*
X0324037Y0172469D02*
X0329563Y0172469D01*
X0329081Y0172269D02*
X0327731Y0170919D01*
X0327000Y0169155D01*
X0327000Y0154445D01*
X0327731Y0152681D01*
X0329081Y0151331D01*
X0330845Y0150600D01*
X0332755Y0150600D01*
X0334519Y0151331D01*
X0335869Y0152681D01*
X0336600Y0154445D01*
X0336600Y0169155D01*
X0335869Y0170919D01*
X0334519Y0172269D01*
X0332755Y0173000D01*
X0330845Y0173000D01*
X0329081Y0172269D01*
X0327711Y0170870D02*
X0325889Y0170870D01*
X0326551Y0169272D02*
X0327049Y0169272D01*
X0327000Y0167673D02*
X0326600Y0167673D01*
X0326600Y0166075D02*
X0327000Y0166075D01*
X0327000Y0164476D02*
X0326600Y0164476D01*
X0326600Y0162878D02*
X0327000Y0162878D01*
X0327000Y0161279D02*
X0326600Y0161279D01*
X0326600Y0159681D02*
X0327000Y0159681D01*
X0327000Y0158082D02*
X0326600Y0158082D01*
X0326600Y0156484D02*
X0327000Y0156484D01*
X0327000Y0154885D02*
X0326600Y0154885D01*
X0326120Y0153287D02*
X0327480Y0153287D01*
X0328723Y0151688D02*
X0324877Y0151688D01*
X0334877Y0151688D02*
X0338723Y0151688D01*
X0339081Y0151331D02*
X0340845Y0150600D01*
X0342755Y0150600D01*
X0344519Y0151331D01*
X0345869Y0152681D01*
X0346600Y0154445D01*
X0346600Y0169155D01*
X0345869Y0170919D01*
X0344519Y0172269D01*
X0342755Y0173000D01*
X0340845Y0173000D01*
X0339081Y0172269D01*
X0337731Y0170919D01*
X0337000Y0169155D01*
X0337000Y0154445D01*
X0337731Y0152681D01*
X0339081Y0151331D01*
X0337480Y0153287D02*
X0336120Y0153287D01*
X0336600Y0154885D02*
X0337000Y0154885D01*
X0337000Y0156484D02*
X0336600Y0156484D01*
X0336600Y0158082D02*
X0337000Y0158082D01*
X0337000Y0159681D02*
X0336600Y0159681D01*
X0336600Y0161279D02*
X0337000Y0161279D01*
X0337000Y0162878D02*
X0336600Y0162878D01*
X0336600Y0164476D02*
X0337000Y0164476D01*
X0337000Y0166075D02*
X0336600Y0166075D01*
X0336600Y0167673D02*
X0337000Y0167673D01*
X0337049Y0169272D02*
X0336551Y0169272D01*
X0335889Y0170870D02*
X0337711Y0170870D01*
X0339563Y0172469D02*
X0334037Y0172469D01*
X0344037Y0172469D02*
X0349563Y0172469D01*
X0349081Y0172269D02*
X0347731Y0170919D01*
X0347000Y0169155D01*
X0347000Y0154445D01*
X0347731Y0152681D01*
X0349081Y0151331D01*
X0350845Y0150600D01*
X0352755Y0150600D01*
X0354519Y0151331D01*
X0355869Y0152681D01*
X0356600Y0154445D01*
X0356600Y0169155D01*
X0355869Y0170919D01*
X0354519Y0172269D01*
X0352755Y0173000D01*
X0350845Y0173000D01*
X0349081Y0172269D01*
X0347711Y0170870D02*
X0345889Y0170870D01*
X0346551Y0169272D02*
X0347049Y0169272D01*
X0347000Y0167673D02*
X0346600Y0167673D01*
X0346600Y0166075D02*
X0347000Y0166075D01*
X0347000Y0164476D02*
X0346600Y0164476D01*
X0346600Y0162878D02*
X0347000Y0162878D01*
X0347000Y0161279D02*
X0346600Y0161279D01*
X0346600Y0159681D02*
X0347000Y0159681D01*
X0347000Y0158082D02*
X0346600Y0158082D01*
X0346600Y0156484D02*
X0347000Y0156484D01*
X0347000Y0154885D02*
X0346600Y0154885D01*
X0346120Y0153287D02*
X0347480Y0153287D01*
X0348723Y0151688D02*
X0344877Y0151688D01*
X0352933Y0146893D02*
X0315668Y0146893D01*
X0314070Y0148491D02*
X0354532Y0148491D01*
X0356130Y0150090D02*
X0312471Y0150090D01*
X0310873Y0151688D02*
X0318723Y0151688D01*
X0317480Y0153287D02*
X0309274Y0153287D01*
X0307676Y0154885D02*
X0317000Y0154885D01*
X0317000Y0156484D02*
X0306077Y0156484D01*
X0304479Y0158082D02*
X0317000Y0158082D01*
X0317000Y0159681D02*
X0302880Y0159681D01*
X0301281Y0161279D02*
X0317000Y0161279D01*
X0317000Y0162878D02*
X0299683Y0162878D01*
X0298084Y0164476D02*
X0317000Y0164476D01*
X0298155Y0156484D02*
X0286077Y0156484D01*
X0284479Y0158082D02*
X0296557Y0158082D01*
X0299754Y0154885D02*
X0287676Y0154885D01*
X0289274Y0153287D02*
X0301352Y0153287D01*
X0302951Y0151688D02*
X0290873Y0151688D01*
X0292471Y0150090D02*
X0304549Y0150090D01*
X0306148Y0148491D02*
X0294070Y0148491D01*
X0295668Y0146893D02*
X0307746Y0146893D01*
X0309345Y0145294D02*
X0297267Y0145294D01*
X0298865Y0143696D02*
X0310943Y0143696D01*
X0312542Y0142097D02*
X0300464Y0142097D01*
X0302062Y0140499D02*
X0314140Y0140499D01*
X0317267Y0145294D02*
X0351335Y0145294D01*
X0356057Y0142097D02*
X0358136Y0142097D01*
X0357656Y0143696D02*
X0359735Y0143696D01*
X0359254Y0145294D02*
X0361333Y0145294D01*
X0360853Y0146893D02*
X0362932Y0146893D01*
X0362451Y0148491D02*
X0364530Y0148491D01*
X0364050Y0150090D02*
X0366129Y0150090D01*
X0364877Y0151688D02*
X0367727Y0151688D01*
X0367480Y0153287D02*
X0366120Y0153287D01*
X0366600Y0154885D02*
X0367000Y0154885D01*
X0367000Y0156484D02*
X0366600Y0156484D01*
X0366600Y0158082D02*
X0367000Y0158082D01*
X0367000Y0159681D02*
X0366600Y0159681D01*
X0366600Y0161279D02*
X0367000Y0161279D01*
X0367000Y0162878D02*
X0366600Y0162878D01*
X0366600Y0164476D02*
X0367000Y0164476D01*
X0367000Y0166075D02*
X0366600Y0166075D01*
X0366600Y0167673D02*
X0367000Y0167673D01*
X0367049Y0169272D02*
X0366551Y0169272D01*
X0365889Y0170870D02*
X0367711Y0170870D01*
X0369563Y0172469D02*
X0364037Y0172469D01*
X0359563Y0172469D02*
X0354037Y0172469D01*
X0355889Y0170870D02*
X0357711Y0170870D01*
X0357049Y0169272D02*
X0356551Y0169272D01*
X0356600Y0167673D02*
X0357000Y0167673D01*
X0357000Y0166075D02*
X0356600Y0166075D01*
X0356600Y0164476D02*
X0357000Y0164476D01*
X0357000Y0162878D02*
X0356600Y0162878D01*
X0356600Y0161279D02*
X0357000Y0161279D01*
X0357000Y0159681D02*
X0356600Y0159681D01*
X0356600Y0158082D02*
X0357000Y0158082D01*
X0357000Y0156484D02*
X0356600Y0156484D01*
X0356600Y0154885D02*
X0357000Y0154885D01*
X0357480Y0153287D02*
X0356120Y0153287D01*
X0354877Y0151688D02*
X0357729Y0151688D01*
X0370854Y0146893D02*
X0372932Y0146893D01*
X0372452Y0148491D02*
X0374530Y0148491D01*
X0374051Y0150090D02*
X0376129Y0150090D01*
X0374877Y0151688D02*
X0377727Y0151688D01*
X0377480Y0153287D02*
X0376120Y0153287D01*
X0376600Y0154885D02*
X0377000Y0154885D01*
X0377000Y0156484D02*
X0376600Y0156484D01*
X0376600Y0158082D02*
X0377000Y0158082D01*
X0377000Y0159681D02*
X0376600Y0159681D01*
X0376600Y0161279D02*
X0377000Y0161279D01*
X0377000Y0162878D02*
X0376600Y0162878D01*
X0376600Y0164476D02*
X0377000Y0164476D01*
X0377000Y0166075D02*
X0376600Y0166075D01*
X0376600Y0167673D02*
X0377000Y0167673D01*
X0377049Y0169272D02*
X0376551Y0169272D01*
X0375889Y0170870D02*
X0377711Y0170870D01*
X0379563Y0172469D02*
X0374037Y0172469D01*
X0404037Y0172469D02*
X0409563Y0172469D01*
X0407711Y0170870D02*
X0405889Y0170870D01*
X0406551Y0169272D02*
X0407049Y0169272D01*
X0407000Y0167673D02*
X0406600Y0167673D01*
X0406600Y0166075D02*
X0407000Y0166075D01*
X0407000Y0164476D02*
X0406600Y0164476D01*
X0406600Y0162878D02*
X0407000Y0162878D01*
X0407000Y0161279D02*
X0406600Y0161279D01*
X0406600Y0159681D02*
X0407000Y0159681D01*
X0407000Y0158082D02*
X0406600Y0158082D01*
X0406600Y0156484D02*
X0407000Y0156484D01*
X0407000Y0154885D02*
X0406600Y0154885D01*
X0406120Y0153287D02*
X0407480Y0153287D01*
X0407727Y0151688D02*
X0404877Y0151688D01*
X0404051Y0150090D02*
X0406129Y0150090D01*
X0404530Y0148491D02*
X0402452Y0148491D01*
X0402932Y0146893D02*
X0400854Y0146893D01*
X0401333Y0145294D02*
X0399255Y0145294D01*
X0399735Y0143696D02*
X0397657Y0143696D01*
X0398136Y0142097D02*
X0396058Y0142097D01*
X0396538Y0140499D02*
X0394460Y0140499D01*
X0394939Y0138900D02*
X0392861Y0138900D01*
X0393341Y0137302D02*
X0391263Y0137302D01*
X0391742Y0135703D02*
X0389664Y0135703D01*
X0390144Y0134105D02*
X0388066Y0134105D01*
X0388545Y0132506D02*
X0386467Y0132506D01*
X0386947Y0130908D02*
X0384869Y0130908D01*
X0385348Y0129309D02*
X0383270Y0129309D01*
X0383750Y0127711D02*
X0381672Y0127711D01*
X0382151Y0126112D02*
X0380073Y0126112D01*
X0380553Y0124514D02*
X0378475Y0124514D01*
X0378954Y0122915D02*
X0376876Y0122915D01*
X0377356Y0121317D02*
X0375278Y0121317D01*
X0375757Y0119718D02*
X0373679Y0119718D01*
X0374159Y0118120D02*
X0372081Y0118120D01*
X0372560Y0116521D02*
X0370482Y0116521D01*
X0370962Y0114923D02*
X0368884Y0114923D01*
X0369363Y0113324D02*
X0367285Y0113324D01*
X0367765Y0111726D02*
X0365686Y0111726D01*
X0366166Y0110127D02*
X0364088Y0110127D01*
X0364568Y0108529D02*
X0362489Y0108529D01*
X0362969Y0106930D02*
X0360891Y0106930D01*
X0361371Y0105332D02*
X0359292Y0105332D01*
X0359772Y0103733D02*
X0357694Y0103733D01*
X0358174Y0102134D02*
X0356095Y0102134D01*
X0356575Y0100536D02*
X0354497Y0100536D01*
X0354977Y0098937D02*
X0352898Y0098937D01*
X0353378Y0097339D02*
X0351300Y0097339D01*
X0351780Y0095740D02*
X0349701Y0095740D01*
X0350181Y0094142D02*
X0348103Y0094142D01*
X0348583Y0092543D02*
X0346504Y0092543D01*
X0346984Y0090945D02*
X0344906Y0090945D01*
X0345386Y0089346D02*
X0343307Y0089346D01*
X0343787Y0087748D02*
X0341709Y0087748D01*
X0342188Y0086149D02*
X0340110Y0086149D01*
X0340590Y0084551D02*
X0338512Y0084551D01*
X0338991Y0082952D02*
X0336913Y0082952D01*
X0337393Y0081354D02*
X0335315Y0081354D01*
X0335794Y0079755D02*
X0333716Y0079755D01*
X0334196Y0078157D02*
X0332091Y0078157D01*
X0338921Y0074960D02*
X0398999Y0074960D01*
X0398999Y0073361D02*
X0337322Y0073361D01*
X0338543Y0072014D02*
X0339179Y0072476D01*
X0339881Y0072834D01*
X0340629Y0073077D01*
X0341406Y0073200D01*
X0341600Y0073200D01*
X0341600Y0062000D01*
X0342000Y0062000D01*
X0346800Y0062000D01*
X0346800Y0068594D01*
X0346677Y0069371D01*
X0346434Y0070119D01*
X0346076Y0070821D01*
X0345614Y0071457D01*
X0345057Y0072014D01*
X0344421Y0072476D01*
X0343719Y0072834D01*
X0342971Y0073077D01*
X0342194Y0073200D01*
X0342000Y0073200D01*
X0342000Y0062000D01*
X0342000Y0061600D01*
X0346800Y0061600D01*
X0346800Y0055006D01*
X0346677Y0054229D01*
X0346434Y0053481D01*
X0346076Y0052779D01*
X0345614Y0052143D01*
X0345057Y0051586D01*
X0344421Y0051124D01*
X0343719Y0050766D01*
X0342971Y0050523D01*
X0342194Y0050400D01*
X0342000Y0050400D01*
X0342000Y0061600D01*
X0341600Y0061600D01*
X0341600Y0050400D01*
X0341406Y0050400D01*
X0340629Y0050523D01*
X0339881Y0050766D01*
X0339179Y0051124D01*
X0338543Y0051586D01*
X0337986Y0052143D01*
X0337524Y0052779D01*
X0337166Y0053481D01*
X0336923Y0054229D01*
X0336800Y0055006D01*
X0336800Y0061600D01*
X0341600Y0061600D01*
X0341600Y0062000D01*
X0336800Y0062000D01*
X0336800Y0068594D01*
X0336923Y0069371D01*
X0337166Y0070119D01*
X0337524Y0070821D01*
X0337986Y0071457D01*
X0338543Y0072014D01*
X0338292Y0071763D02*
X0335493Y0071763D01*
X0336182Y0070164D02*
X0337189Y0070164D01*
X0336800Y0068566D02*
X0336600Y0068566D01*
X0336600Y0066967D02*
X0336800Y0066967D01*
X0336800Y0065369D02*
X0336600Y0065369D01*
X0336600Y0063770D02*
X0336800Y0063770D01*
X0336800Y0062172D02*
X0336600Y0062172D01*
X0336600Y0060573D02*
X0336800Y0060573D01*
X0336800Y0058975D02*
X0336600Y0058975D01*
X0336600Y0057376D02*
X0336800Y0057376D01*
X0336800Y0055778D02*
X0336600Y0055778D01*
X0336490Y0054179D02*
X0336939Y0054179D01*
X0337668Y0052581D02*
X0335769Y0052581D01*
X0333677Y0050982D02*
X0339457Y0050982D01*
X0341600Y0050982D02*
X0342000Y0050982D01*
X0342000Y0052581D02*
X0341600Y0052581D01*
X0341600Y0054179D02*
X0342000Y0054179D01*
X0342000Y0055778D02*
X0341600Y0055778D01*
X0341600Y0057376D02*
X0342000Y0057376D01*
X0342000Y0058975D02*
X0341600Y0058975D01*
X0341600Y0060573D02*
X0342000Y0060573D01*
X0342000Y0062172D02*
X0341600Y0062172D01*
X0341600Y0063770D02*
X0342000Y0063770D01*
X0342000Y0065369D02*
X0341600Y0065369D01*
X0341600Y0066967D02*
X0342000Y0066967D01*
X0342000Y0068566D02*
X0341600Y0068566D01*
X0341600Y0070164D02*
X0342000Y0070164D01*
X0342000Y0071763D02*
X0341600Y0071763D01*
X0345308Y0071763D02*
X0348575Y0071763D01*
X0349081Y0072269D02*
X0347731Y0070919D01*
X0347000Y0069155D01*
X0347000Y0054445D01*
X0347731Y0052681D01*
X0349081Y0051331D01*
X0350845Y0050600D01*
X0352755Y0050600D01*
X0354519Y0051331D01*
X0355869Y0052681D01*
X0356600Y0054445D01*
X0356600Y0069155D01*
X0355869Y0070919D01*
X0354519Y0072269D01*
X0352755Y0073000D01*
X0350845Y0073000D01*
X0349081Y0072269D01*
X0347418Y0070164D02*
X0346411Y0070164D01*
X0346800Y0068566D02*
X0347000Y0068566D01*
X0347000Y0066967D02*
X0346800Y0066967D01*
X0346800Y0065369D02*
X0347000Y0065369D01*
X0347000Y0063770D02*
X0346800Y0063770D01*
X0346800Y0062172D02*
X0347000Y0062172D01*
X0347000Y0060573D02*
X0346800Y0060573D01*
X0346800Y0058975D02*
X0347000Y0058975D01*
X0347000Y0057376D02*
X0346800Y0057376D01*
X0346800Y0055778D02*
X0347000Y0055778D01*
X0347110Y0054179D02*
X0346661Y0054179D01*
X0345932Y0052581D02*
X0347831Y0052581D01*
X0349923Y0050982D02*
X0344143Y0050982D01*
X0353677Y0050982D02*
X0359923Y0050982D01*
X0359081Y0051331D02*
X0360845Y0050600D01*
X0362755Y0050600D01*
X0364519Y0051331D01*
X0365869Y0052681D01*
X0366600Y0054445D01*
X0366600Y0069155D01*
X0365869Y0070919D01*
X0364519Y0072269D01*
X0362755Y0073000D01*
X0360845Y0073000D01*
X0359081Y0072269D01*
X0357731Y0070919D01*
X0357000Y0069155D01*
X0357000Y0054445D01*
X0357731Y0052681D01*
X0359081Y0051331D01*
X0357831Y0052581D02*
X0355769Y0052581D01*
X0356490Y0054179D02*
X0357110Y0054179D01*
X0357000Y0055778D02*
X0356600Y0055778D01*
X0356600Y0057376D02*
X0357000Y0057376D01*
X0357000Y0058975D02*
X0356600Y0058975D01*
X0356600Y0060573D02*
X0357000Y0060573D01*
X0357000Y0062172D02*
X0356600Y0062172D01*
X0356600Y0063770D02*
X0357000Y0063770D01*
X0357000Y0065369D02*
X0356600Y0065369D01*
X0356600Y0066967D02*
X0357000Y0066967D01*
X0357000Y0068566D02*
X0356600Y0068566D01*
X0356182Y0070164D02*
X0357418Y0070164D01*
X0358575Y0071763D02*
X0355025Y0071763D01*
X0365025Y0071763D02*
X0368575Y0071763D01*
X0369081Y0072269D02*
X0367731Y0070919D01*
X0367000Y0069155D01*
X0367000Y0054445D01*
X0367731Y0052681D01*
X0369081Y0051331D01*
X0370845Y0050600D01*
X0372755Y0050600D01*
X0374519Y0051331D01*
X0375869Y0052681D01*
X0376600Y0054445D01*
X0376600Y0069155D01*
X0375869Y0070919D01*
X0374519Y0072269D01*
X0372755Y0073000D01*
X0370845Y0073000D01*
X0369081Y0072269D01*
X0367418Y0070164D02*
X0366182Y0070164D01*
X0366600Y0068566D02*
X0367000Y0068566D01*
X0367000Y0066967D02*
X0366600Y0066967D01*
X0366600Y0065369D02*
X0367000Y0065369D01*
X0367000Y0063770D02*
X0366600Y0063770D01*
X0366600Y0062172D02*
X0367000Y0062172D01*
X0367000Y0060573D02*
X0366600Y0060573D01*
X0366600Y0058975D02*
X0367000Y0058975D01*
X0367000Y0057376D02*
X0366600Y0057376D01*
X0366600Y0055778D02*
X0367000Y0055778D01*
X0367110Y0054179D02*
X0366490Y0054179D01*
X0365769Y0052581D02*
X0367831Y0052581D01*
X0369923Y0050982D02*
X0363677Y0050982D01*
X0373677Y0050982D02*
X0379923Y0050982D01*
X0379081Y0051331D02*
X0380845Y0050600D01*
X0382755Y0050600D01*
X0384519Y0051331D01*
X0385869Y0052681D01*
X0386600Y0054445D01*
X0386600Y0069155D01*
X0385869Y0070919D01*
X0384519Y0072269D01*
X0382755Y0073000D01*
X0380845Y0073000D01*
X0379081Y0072269D01*
X0377731Y0070919D01*
X0377000Y0069155D01*
X0377000Y0054445D01*
X0377731Y0052681D01*
X0379081Y0051331D01*
X0377831Y0052581D02*
X0375769Y0052581D01*
X0376490Y0054179D02*
X0377110Y0054179D01*
X0377000Y0055778D02*
X0376600Y0055778D01*
X0376600Y0057376D02*
X0377000Y0057376D01*
X0377000Y0058975D02*
X0376600Y0058975D01*
X0376600Y0060573D02*
X0377000Y0060573D01*
X0377000Y0062172D02*
X0376600Y0062172D01*
X0376600Y0063770D02*
X0377000Y0063770D01*
X0377000Y0065369D02*
X0376600Y0065369D01*
X0376600Y0066967D02*
X0377000Y0066967D01*
X0377000Y0068566D02*
X0376600Y0068566D01*
X0376182Y0070164D02*
X0377418Y0070164D01*
X0378575Y0071763D02*
X0375025Y0071763D01*
X0385025Y0071763D02*
X0388575Y0071763D01*
X0389081Y0072269D02*
X0387731Y0070919D01*
X0387000Y0069155D01*
X0387000Y0054445D01*
X0387731Y0052681D01*
X0389081Y0051331D01*
X0390845Y0050600D01*
X0392755Y0050600D01*
X0394519Y0051331D01*
X0395869Y0052681D01*
X0396600Y0054445D01*
X0396600Y0069155D01*
X0395869Y0070919D01*
X0394519Y0072269D01*
X0392755Y0073000D01*
X0390845Y0073000D01*
X0389081Y0072269D01*
X0387418Y0070164D02*
X0386182Y0070164D01*
X0386600Y0068566D02*
X0387000Y0068566D01*
X0387000Y0066967D02*
X0386600Y0066967D01*
X0386600Y0065369D02*
X0387000Y0065369D01*
X0387000Y0063770D02*
X0386600Y0063770D01*
X0386600Y0062172D02*
X0387000Y0062172D01*
X0387000Y0060573D02*
X0386600Y0060573D01*
X0386600Y0058975D02*
X0387000Y0058975D01*
X0387000Y0057376D02*
X0386600Y0057376D01*
X0386600Y0055778D02*
X0387000Y0055778D01*
X0387110Y0054179D02*
X0386490Y0054179D01*
X0385769Y0052581D02*
X0387831Y0052581D01*
X0389923Y0050982D02*
X0383677Y0050982D01*
X0393677Y0050982D02*
X0399108Y0050982D01*
X0397831Y0052581D02*
X0395769Y0052581D01*
X0396490Y0054179D02*
X0397110Y0054179D01*
X0397000Y0055778D02*
X0396600Y0055778D01*
X0396600Y0057376D02*
X0397000Y0057376D01*
X0397000Y0058975D02*
X0396600Y0058975D01*
X0396600Y0060573D02*
X0397000Y0060573D01*
X0397000Y0062172D02*
X0396600Y0062172D01*
X0396600Y0063770D02*
X0397000Y0063770D01*
X0397000Y0065369D02*
X0396600Y0065369D01*
X0396600Y0066967D02*
X0397000Y0066967D01*
X0397000Y0068566D02*
X0396600Y0068566D01*
X0396182Y0070164D02*
X0397418Y0070164D01*
X0398575Y0071763D02*
X0395025Y0071763D01*
X0404601Y0073361D02*
X0408999Y0073361D01*
X0408999Y0074960D02*
X0404601Y0074960D01*
X0404601Y0076558D02*
X0408999Y0076558D01*
X0408999Y0078157D02*
X0404270Y0078157D01*
X0402806Y0079755D02*
X0408999Y0079755D01*
X0408999Y0081354D02*
X0401207Y0081354D01*
X0399609Y0082952D02*
X0408999Y0082952D01*
X0408999Y0084551D02*
X0399601Y0084551D01*
X0399601Y0086149D02*
X0408999Y0086149D01*
X0408999Y0087748D02*
X0399601Y0087748D01*
X0399601Y0089346D02*
X0408999Y0089346D01*
X0408999Y0090945D02*
X0399601Y0090945D01*
X0399601Y0092543D02*
X0404980Y0092543D01*
X0403583Y0094142D02*
X0399601Y0094142D01*
X0399601Y0095740D02*
X0402921Y0095740D01*
X0402919Y0097339D02*
X0399601Y0097339D01*
X0399601Y0098937D02*
X0403368Y0098937D01*
X0404460Y0100536D02*
X0399601Y0100536D01*
X0399845Y0102134D02*
X0405633Y0102134D01*
X0403791Y0103733D02*
X0401444Y0103733D01*
X0396719Y0106930D02*
X0393391Y0106930D01*
X0394989Y0108529D02*
X0398318Y0108529D01*
X0396588Y0110127D02*
X0404051Y0110127D01*
X0406261Y0111726D02*
X0398186Y0111726D01*
X0399785Y0113324D02*
X0404199Y0113324D01*
X0395060Y0116521D02*
X0389232Y0116521D01*
X0387634Y0114923D02*
X0393462Y0114923D01*
X0391863Y0113324D02*
X0386035Y0113324D01*
X0384436Y0111726D02*
X0390265Y0111726D01*
X0388666Y0110127D02*
X0382838Y0110127D01*
X0381239Y0108529D02*
X0387068Y0108529D01*
X0385469Y0106930D02*
X0379641Y0106930D01*
X0378042Y0105332D02*
X0384196Y0105332D01*
X0383999Y0104857D02*
X0384426Y0105887D01*
X0385213Y0106674D01*
X0397713Y0119174D01*
X0398743Y0119601D01*
X0403642Y0119601D01*
X0403726Y0119802D01*
X0405217Y0121293D01*
X0406440Y0121800D01*
X0405217Y0122307D01*
X0403726Y0123798D01*
X0403642Y0123999D01*
X0396710Y0123999D01*
X0375851Y0103140D01*
X0375851Y0102350D01*
X0377050Y0102350D01*
X0377050Y0099613D01*
X0377050Y0102350D01*
X0378537Y0102350D01*
X0378995Y0102227D01*
X0379405Y0101990D01*
X0379740Y0101655D01*
X0379977Y0101245D01*
X0380100Y0100787D01*
X0380100Y0098050D01*
X0377450Y0098050D01*
X0377450Y0098050D01*
X0380100Y0098050D01*
X0380100Y0095313D01*
X0379977Y0094855D01*
X0379830Y0094601D01*
X0381890Y0094601D01*
X0383999Y0096710D01*
X0383999Y0104857D01*
X0383999Y0103733D02*
X0376444Y0103733D01*
X0377050Y0102134D02*
X0377050Y0102134D01*
X0377050Y0100536D02*
X0377050Y0100536D01*
X0377050Y0099613D02*
X0377050Y0099613D01*
X0380100Y0098937D02*
X0383999Y0098937D01*
X0383999Y0097339D02*
X0380100Y0097339D01*
X0380100Y0095740D02*
X0383030Y0095740D01*
X0387754Y0092543D02*
X0393999Y0092543D01*
X0393999Y0090945D02*
X0386156Y0090945D01*
X0384445Y0089346D02*
X0393999Y0089346D01*
X0393999Y0087748D02*
X0375851Y0087748D01*
X0377050Y0086149D02*
X0377050Y0086149D01*
X0377050Y0084551D02*
X0377050Y0084551D01*
X0377050Y0083050D02*
X0377050Y0078750D01*
X0377050Y0083050D01*
X0377050Y0083050D01*
X0377050Y0082952D02*
X0377050Y0082952D01*
X0377050Y0081354D02*
X0377050Y0081354D01*
X0377050Y0079755D02*
X0377050Y0079755D01*
X0379920Y0079755D02*
X0394884Y0079755D01*
X0393999Y0081354D02*
X0380100Y0081354D01*
X0380100Y0082952D02*
X0393999Y0082952D01*
X0393999Y0084551D02*
X0380100Y0084551D01*
X0380003Y0086149D02*
X0393999Y0086149D01*
X0393999Y0094142D02*
X0389248Y0094142D01*
X0389601Y0095740D02*
X0393999Y0095740D01*
X0393999Y0097339D02*
X0389601Y0097339D01*
X0389601Y0098937D02*
X0393999Y0098937D01*
X0393999Y0100536D02*
X0389601Y0100536D01*
X0389601Y0102134D02*
X0393999Y0102134D01*
X0394051Y0103733D02*
X0390194Y0103733D01*
X0391792Y0105332D02*
X0395121Y0105332D01*
X0395213Y0105424D02*
X0395213Y0105424D01*
X0383999Y0102134D02*
X0379156Y0102134D01*
X0380100Y0100536D02*
X0383999Y0100536D01*
X0371719Y0106930D02*
X0370891Y0106930D01*
X0370446Y0105332D02*
X0369292Y0105332D01*
X0370249Y0103733D02*
X0367694Y0103733D01*
X0367122Y0102134D02*
X0366095Y0102134D01*
X0366200Y0100536D02*
X0364497Y0100536D01*
X0362898Y0098937D02*
X0366200Y0098937D01*
X0366200Y0097339D02*
X0361300Y0097339D01*
X0359701Y0095740D02*
X0366200Y0095740D01*
X0366249Y0094142D02*
X0358103Y0094142D01*
X0356504Y0092543D02*
X0364783Y0092543D01*
X0364269Y0090945D02*
X0354906Y0090945D01*
X0353307Y0089346D02*
X0364456Y0089346D01*
X0365505Y0087748D02*
X0351709Y0087748D01*
X0350110Y0086149D02*
X0366200Y0086149D01*
X0366200Y0084551D02*
X0348512Y0084551D01*
X0346913Y0082952D02*
X0366200Y0082952D01*
X0366200Y0081354D02*
X0345315Y0081354D01*
X0343716Y0079755D02*
X0366332Y0079755D01*
X0342118Y0078157D02*
X0396482Y0078157D01*
X0398081Y0076558D02*
X0340519Y0076558D01*
X0327418Y0070164D02*
X0326182Y0070164D01*
X0326600Y0068566D02*
X0327000Y0068566D01*
X0327000Y0066967D02*
X0326600Y0066967D01*
X0326600Y0065369D02*
X0327000Y0065369D01*
X0327000Y0063770D02*
X0326600Y0063770D01*
X0326600Y0062172D02*
X0327000Y0062172D01*
X0327000Y0060573D02*
X0326600Y0060573D01*
X0326600Y0058975D02*
X0327000Y0058975D01*
X0327000Y0057376D02*
X0326600Y0057376D01*
X0326600Y0055778D02*
X0327000Y0055778D01*
X0327110Y0054179D02*
X0326490Y0054179D01*
X0325769Y0052581D02*
X0327831Y0052581D01*
X0329923Y0050982D02*
X0323677Y0050982D01*
X0319923Y0050982D02*
X0293677Y0050982D01*
X0295769Y0052581D02*
X0317831Y0052581D01*
X0317110Y0054179D02*
X0296490Y0054179D01*
X0296600Y0055778D02*
X0317000Y0055778D01*
X0317000Y0057376D02*
X0296600Y0057376D01*
X0296600Y0058975D02*
X0317000Y0058975D01*
X0317000Y0060573D02*
X0296600Y0060573D01*
X0296600Y0062172D02*
X0317000Y0062172D01*
X0317000Y0063770D02*
X0296600Y0063770D01*
X0296600Y0065369D02*
X0317000Y0065369D01*
X0317000Y0066967D02*
X0296600Y0066967D01*
X0296600Y0068566D02*
X0317000Y0068566D01*
X0317418Y0070164D02*
X0296182Y0070164D01*
X0287418Y0070164D02*
X0286182Y0070164D01*
X0286600Y0068566D02*
X0287000Y0068566D01*
X0287000Y0066967D02*
X0286600Y0066967D01*
X0286600Y0065369D02*
X0287000Y0065369D01*
X0287000Y0063770D02*
X0286600Y0063770D01*
X0286600Y0062172D02*
X0287000Y0062172D01*
X0287000Y0060573D02*
X0286600Y0060573D01*
X0286600Y0058975D02*
X0287000Y0058975D01*
X0287000Y0057376D02*
X0286600Y0057376D01*
X0286600Y0055778D02*
X0287000Y0055778D01*
X0287110Y0054179D02*
X0286490Y0054179D01*
X0285769Y0052581D02*
X0287831Y0052581D01*
X0289923Y0050982D02*
X0283677Y0050982D01*
X0279923Y0050982D02*
X0273677Y0050982D01*
X0275769Y0052581D02*
X0277831Y0052581D01*
X0277110Y0054179D02*
X0276490Y0054179D01*
X0276600Y0055778D02*
X0277000Y0055778D01*
X0277000Y0057376D02*
X0276600Y0057376D01*
X0276600Y0058975D02*
X0277000Y0058975D01*
X0277000Y0060573D02*
X0276600Y0060573D01*
X0276600Y0062172D02*
X0277000Y0062172D01*
X0277000Y0063770D02*
X0276600Y0063770D01*
X0276600Y0065369D02*
X0277000Y0065369D01*
X0277000Y0066967D02*
X0276600Y0066967D01*
X0276600Y0068566D02*
X0277000Y0068566D01*
X0277418Y0070164D02*
X0276182Y0070164D01*
X0267418Y0070164D02*
X0266182Y0070164D01*
X0266600Y0068566D02*
X0267000Y0068566D01*
X0267000Y0066967D02*
X0266600Y0066967D01*
X0266600Y0065369D02*
X0267000Y0065369D01*
X0267000Y0063770D02*
X0266600Y0063770D01*
X0266600Y0062172D02*
X0267000Y0062172D01*
X0267000Y0060573D02*
X0266600Y0060573D01*
X0266600Y0058975D02*
X0267000Y0058975D01*
X0267000Y0057376D02*
X0266600Y0057376D01*
X0266600Y0055778D02*
X0267000Y0055778D01*
X0267110Y0054179D02*
X0266490Y0054179D01*
X0265769Y0052581D02*
X0267831Y0052581D01*
X0269923Y0050982D02*
X0263677Y0050982D01*
X0259923Y0050982D02*
X0254143Y0050982D01*
X0254421Y0051124D02*
X0255057Y0051586D01*
X0255614Y0052143D01*
X0256076Y0052779D01*
X0256434Y0053481D01*
X0256677Y0054229D01*
X0256800Y0055006D01*
X0256800Y0061600D01*
X0252000Y0061600D01*
X0252000Y0050400D01*
X0252194Y0050400D01*
X0252971Y0050523D01*
X0253719Y0050766D01*
X0254421Y0051124D01*
X0255932Y0052581D02*
X0257831Y0052581D01*
X0257110Y0054179D02*
X0256661Y0054179D01*
X0256800Y0055778D02*
X0257000Y0055778D01*
X0257000Y0057376D02*
X0256800Y0057376D01*
X0256800Y0058975D02*
X0257000Y0058975D01*
X0257000Y0060573D02*
X0256800Y0060573D01*
X0256800Y0062172D02*
X0257000Y0062172D01*
X0257000Y0063770D02*
X0256800Y0063770D01*
X0256800Y0065369D02*
X0257000Y0065369D01*
X0257000Y0066967D02*
X0256800Y0066967D01*
X0256800Y0068566D02*
X0257000Y0068566D01*
X0257418Y0070164D02*
X0256411Y0070164D01*
X0247189Y0070164D02*
X0226182Y0070164D01*
X0226600Y0068566D02*
X0246800Y0068566D01*
X0246800Y0066967D02*
X0226600Y0066967D01*
X0226600Y0065369D02*
X0246800Y0065369D01*
X0246800Y0063770D02*
X0226600Y0063770D01*
X0226600Y0062172D02*
X0246800Y0062172D01*
X0246800Y0061600D02*
X0246800Y0055006D01*
X0246923Y0054229D01*
X0247166Y0053481D01*
X0247524Y0052779D01*
X0247986Y0052143D01*
X0248543Y0051586D01*
X0249179Y0051124D01*
X0249881Y0050766D01*
X0250629Y0050523D01*
X0251406Y0050400D01*
X0251600Y0050400D01*
X0251600Y0061600D01*
X0246800Y0061600D01*
X0246800Y0060573D02*
X0226600Y0060573D01*
X0226600Y0058975D02*
X0246800Y0058975D01*
X0246800Y0057376D02*
X0226600Y0057376D01*
X0226600Y0055778D02*
X0246800Y0055778D01*
X0246939Y0054179D02*
X0226490Y0054179D01*
X0225769Y0052581D02*
X0247668Y0052581D01*
X0249457Y0050982D02*
X0223677Y0050982D01*
X0219923Y0050982D02*
X0213677Y0050982D01*
X0215769Y0052581D02*
X0217831Y0052581D01*
X0217110Y0054179D02*
X0216490Y0054179D01*
X0216600Y0055778D02*
X0217000Y0055778D01*
X0217000Y0057376D02*
X0216600Y0057376D01*
X0216600Y0058975D02*
X0217000Y0058975D01*
X0217000Y0060573D02*
X0216600Y0060573D01*
X0216600Y0062172D02*
X0217000Y0062172D01*
X0217000Y0063770D02*
X0216600Y0063770D01*
X0216600Y0065369D02*
X0217000Y0065369D01*
X0217000Y0066967D02*
X0216600Y0066967D01*
X0216600Y0068566D02*
X0217000Y0068566D01*
X0217418Y0070164D02*
X0216182Y0070164D01*
X0207418Y0070164D02*
X0206182Y0070164D01*
X0206600Y0068566D02*
X0207000Y0068566D01*
X0207000Y0066967D02*
X0206600Y0066967D01*
X0206600Y0065369D02*
X0207000Y0065369D01*
X0207000Y0063770D02*
X0206600Y0063770D01*
X0206600Y0062172D02*
X0207000Y0062172D01*
X0207000Y0060573D02*
X0206600Y0060573D01*
X0206600Y0058975D02*
X0207000Y0058975D01*
X0207000Y0057376D02*
X0206600Y0057376D01*
X0206600Y0055778D02*
X0207000Y0055778D01*
X0207110Y0054179D02*
X0206490Y0054179D01*
X0205769Y0052581D02*
X0207831Y0052581D01*
X0209923Y0050982D02*
X0203677Y0050982D01*
X0199923Y0050982D02*
X0193677Y0050982D01*
X0195769Y0052581D02*
X0197831Y0052581D01*
X0197110Y0054179D02*
X0196490Y0054179D01*
X0196600Y0055778D02*
X0197000Y0055778D01*
X0197000Y0057376D02*
X0196600Y0057376D01*
X0196600Y0058975D02*
X0197000Y0058975D01*
X0197000Y0060573D02*
X0196600Y0060573D01*
X0196600Y0062172D02*
X0197000Y0062172D01*
X0197000Y0063770D02*
X0196600Y0063770D01*
X0196600Y0065369D02*
X0197000Y0065369D01*
X0197000Y0066967D02*
X0196600Y0066967D01*
X0196600Y0068566D02*
X0197000Y0068566D01*
X0197418Y0070164D02*
X0196182Y0070164D01*
X0187418Y0070164D02*
X0186411Y0070164D01*
X0186800Y0068566D02*
X0187000Y0068566D01*
X0187000Y0066967D02*
X0186800Y0066967D01*
X0186800Y0065369D02*
X0187000Y0065369D01*
X0187000Y0063770D02*
X0186800Y0063770D01*
X0186800Y0062172D02*
X0187000Y0062172D01*
X0186800Y0061600D02*
X0182000Y0061600D01*
X0182000Y0050400D01*
X0182194Y0050400D01*
X0182971Y0050523D01*
X0183719Y0050766D01*
X0184421Y0051124D01*
X0185057Y0051586D01*
X0185614Y0052143D01*
X0186076Y0052779D01*
X0186434Y0053481D01*
X0186677Y0054229D01*
X0186800Y0055006D01*
X0186800Y0061600D01*
X0186800Y0060573D02*
X0187000Y0060573D01*
X0187000Y0058975D02*
X0186800Y0058975D01*
X0186800Y0057376D02*
X0187000Y0057376D01*
X0187000Y0055778D02*
X0186800Y0055778D01*
X0186661Y0054179D02*
X0187110Y0054179D01*
X0187831Y0052581D02*
X0185932Y0052581D01*
X0184143Y0050982D02*
X0189923Y0050982D01*
X0182000Y0050982D02*
X0181600Y0050982D01*
X0181600Y0050400D02*
X0181600Y0061600D01*
X0176800Y0061600D01*
X0176800Y0055006D01*
X0176923Y0054229D01*
X0177166Y0053481D01*
X0177524Y0052779D01*
X0177986Y0052143D01*
X0178543Y0051586D01*
X0179179Y0051124D01*
X0179881Y0050766D01*
X0180629Y0050523D01*
X0181406Y0050400D01*
X0181600Y0050400D01*
X0181600Y0052581D02*
X0182000Y0052581D01*
X0182000Y0054179D02*
X0181600Y0054179D01*
X0181600Y0055778D02*
X0182000Y0055778D01*
X0182000Y0057376D02*
X0181600Y0057376D01*
X0181600Y0058975D02*
X0182000Y0058975D01*
X0182000Y0060573D02*
X0181600Y0060573D01*
X0176800Y0060573D02*
X0156600Y0060573D01*
X0156600Y0058975D02*
X0176800Y0058975D01*
X0176800Y0057376D02*
X0156600Y0057376D01*
X0156600Y0055778D02*
X0176800Y0055778D01*
X0176939Y0054179D02*
X0156490Y0054179D01*
X0155769Y0052581D02*
X0177668Y0052581D01*
X0179457Y0050982D02*
X0153677Y0050982D01*
X0149923Y0050982D02*
X0143677Y0050982D01*
X0145769Y0052581D02*
X0147831Y0052581D01*
X0147110Y0054179D02*
X0146490Y0054179D01*
X0146600Y0055778D02*
X0147000Y0055778D01*
X0147000Y0057376D02*
X0146600Y0057376D01*
X0146600Y0058975D02*
X0147000Y0058975D01*
X0147000Y0060573D02*
X0146600Y0060573D01*
X0146600Y0062172D02*
X0147000Y0062172D01*
X0147000Y0063770D02*
X0146600Y0063770D01*
X0146600Y0065369D02*
X0147000Y0065369D01*
X0147000Y0066967D02*
X0146600Y0066967D01*
X0146600Y0068566D02*
X0147000Y0068566D01*
X0147418Y0070164D02*
X0146182Y0070164D01*
X0137418Y0070164D02*
X0136182Y0070164D01*
X0136600Y0068566D02*
X0137000Y0068566D01*
X0137000Y0066967D02*
X0136600Y0066967D01*
X0136600Y0065369D02*
X0137000Y0065369D01*
X0137000Y0063770D02*
X0136600Y0063770D01*
X0136600Y0062172D02*
X0137000Y0062172D01*
X0137000Y0060573D02*
X0136600Y0060573D01*
X0136600Y0058975D02*
X0137000Y0058975D01*
X0137000Y0057376D02*
X0136600Y0057376D01*
X0136600Y0055778D02*
X0137000Y0055778D01*
X0137110Y0054179D02*
X0136490Y0054179D01*
X0135769Y0052581D02*
X0137831Y0052581D01*
X0139923Y0050982D02*
X0133677Y0050982D01*
X0129923Y0050982D02*
X0123677Y0050982D01*
X0125769Y0052581D02*
X0127831Y0052581D01*
X0127110Y0054179D02*
X0126490Y0054179D01*
X0126600Y0055778D02*
X0127000Y0055778D01*
X0127000Y0057376D02*
X0126600Y0057376D01*
X0126600Y0058975D02*
X0127000Y0058975D01*
X0127000Y0060573D02*
X0126600Y0060573D01*
X0126600Y0062172D02*
X0127000Y0062172D01*
X0127000Y0063770D02*
X0126600Y0063770D01*
X0126600Y0065369D02*
X0127000Y0065369D01*
X0127000Y0066967D02*
X0126600Y0066967D01*
X0126600Y0068566D02*
X0127000Y0068566D01*
X0127418Y0070164D02*
X0126182Y0070164D01*
X0117418Y0070164D02*
X0116411Y0070164D01*
X0116800Y0068566D02*
X0117000Y0068566D01*
X0117000Y0066967D02*
X0116800Y0066967D01*
X0116800Y0065369D02*
X0117000Y0065369D01*
X0117000Y0063770D02*
X0116800Y0063770D01*
X0116800Y0062172D02*
X0117000Y0062172D01*
X0116800Y0061600D02*
X0112000Y0061600D01*
X0112000Y0050400D01*
X0112194Y0050400D01*
X0112971Y0050523D01*
X0113719Y0050766D01*
X0114421Y0051124D01*
X0115057Y0051586D01*
X0115614Y0052143D01*
X0116076Y0052779D01*
X0116434Y0053481D01*
X0116677Y0054229D01*
X0116800Y0055006D01*
X0116800Y0061600D01*
X0116800Y0060573D02*
X0117000Y0060573D01*
X0117000Y0058975D02*
X0116800Y0058975D01*
X0116800Y0057376D02*
X0117000Y0057376D01*
X0117000Y0055778D02*
X0116800Y0055778D01*
X0116661Y0054179D02*
X0117110Y0054179D01*
X0117831Y0052581D02*
X0115932Y0052581D01*
X0114143Y0050982D02*
X0119923Y0050982D01*
X0112000Y0050982D02*
X0111600Y0050982D01*
X0111600Y0050400D02*
X0111600Y0061600D01*
X0106800Y0061600D01*
X0106800Y0055006D01*
X0106923Y0054229D01*
X0107166Y0053481D01*
X0107524Y0052779D01*
X0107986Y0052143D01*
X0108543Y0051586D01*
X0109179Y0051124D01*
X0109881Y0050766D01*
X0110629Y0050523D01*
X0111406Y0050400D01*
X0111600Y0050400D01*
X0111600Y0052581D02*
X0112000Y0052581D01*
X0112000Y0054179D02*
X0111600Y0054179D01*
X0111600Y0055778D02*
X0112000Y0055778D01*
X0112000Y0057376D02*
X0111600Y0057376D01*
X0111600Y0058975D02*
X0112000Y0058975D01*
X0112000Y0060573D02*
X0111600Y0060573D01*
X0106800Y0060573D02*
X0086600Y0060573D01*
X0086600Y0058975D02*
X0106800Y0058975D01*
X0106800Y0057376D02*
X0086600Y0057376D01*
X0086600Y0055778D02*
X0106800Y0055778D01*
X0106939Y0054179D02*
X0086490Y0054179D01*
X0085769Y0052581D02*
X0107668Y0052581D01*
X0109457Y0050982D02*
X0083677Y0050982D01*
X0079923Y0050982D02*
X0073677Y0050982D01*
X0075769Y0052581D02*
X0077831Y0052581D01*
X0077110Y0054179D02*
X0076490Y0054179D01*
X0076600Y0055778D02*
X0077000Y0055778D01*
X0077000Y0057376D02*
X0076600Y0057376D01*
X0076600Y0058975D02*
X0077000Y0058975D01*
X0077000Y0060573D02*
X0076600Y0060573D01*
X0076600Y0062172D02*
X0077000Y0062172D01*
X0077000Y0063770D02*
X0076600Y0063770D01*
X0076600Y0065369D02*
X0077000Y0065369D01*
X0077000Y0066967D02*
X0076600Y0066967D01*
X0076600Y0068566D02*
X0077000Y0068566D01*
X0077418Y0070164D02*
X0076182Y0070164D01*
X0086182Y0070164D02*
X0107189Y0070164D01*
X0106800Y0068566D02*
X0086600Y0068566D01*
X0086600Y0066967D02*
X0106800Y0066967D01*
X0106800Y0065369D02*
X0086600Y0065369D01*
X0086600Y0063770D02*
X0106800Y0063770D01*
X0106800Y0062172D02*
X0086600Y0062172D01*
X0128346Y0086149D02*
X0019899Y0086149D01*
X0135254Y0086149D02*
X0198346Y0086149D01*
X0198497Y0086079D02*
X0198925Y0085779D01*
X0198998Y0085792D01*
X0199036Y0085728D01*
X0199541Y0085592D01*
X0200014Y0085371D01*
X0200084Y0085397D01*
X0200132Y0085340D01*
X0200653Y0085294D01*
X0201158Y0085159D01*
X0201222Y0085196D01*
X0201279Y0085148D01*
X0201800Y0085194D01*
X0202321Y0085148D01*
X0202378Y0085196D01*
X0202442Y0085159D01*
X0202947Y0085294D01*
X0203468Y0085340D01*
X0203516Y0085397D01*
X0203586Y0085371D01*
X0204059Y0085592D01*
X0204564Y0085728D01*
X0204602Y0085792D01*
X0204675Y0085779D01*
X0205103Y0086079D01*
X0205577Y0086300D01*
X0205602Y0086370D01*
X0205677Y0086370D01*
X0206046Y0086739D01*
X0206475Y0087039D01*
X0206487Y0087113D01*
X0206561Y0087125D01*
X0206861Y0087554D01*
X0207230Y0087923D01*
X0207230Y0087998D01*
X0207300Y0088023D01*
X0207521Y0088497D01*
X0207821Y0088925D01*
X0207808Y0088998D01*
X0207872Y0089036D01*
X0208008Y0089541D01*
X0208229Y0090014D01*
X0208203Y0090084D01*
X0208260Y0090132D01*
X0208306Y0090653D01*
X0208441Y0091158D01*
X0208400Y0091229D01*
X0208400Y0091730D01*
X0208452Y0092321D01*
X0208400Y0092382D01*
X0208400Y0131218D01*
X0208452Y0131279D01*
X0208400Y0131870D01*
X0208400Y0132371D01*
X0208441Y0132442D01*
X0208306Y0132947D01*
X0208260Y0133468D01*
X0208203Y0133516D01*
X0208229Y0133586D01*
X0208008Y0134059D01*
X0207872Y0134564D01*
X0207808Y0134602D01*
X0207821Y0134675D01*
X0207521Y0135103D01*
X0207300Y0135577D01*
X0207230Y0135602D01*
X0207230Y0135677D01*
X0206861Y0136046D01*
X0206561Y0136475D01*
X0206487Y0136487D01*
X0206475Y0136561D01*
X0206046Y0136861D01*
X0205677Y0137230D01*
X0205602Y0137230D01*
X0205577Y0137300D01*
X0205103Y0137521D01*
X0204675Y0137821D01*
X0204602Y0137808D01*
X0204564Y0137872D01*
X0204059Y0138008D01*
X0203586Y0138229D01*
X0203516Y0138203D01*
X0203468Y0138260D01*
X0202947Y0138306D01*
X0202442Y0138441D01*
X0202378Y0138404D01*
X0202321Y0138452D01*
X0201800Y0138406D01*
X0201279Y0138452D01*
X0201222Y0138404D01*
X0201158Y0138441D01*
X0200653Y0138306D01*
X0200132Y0138260D01*
X0200084Y0138203D01*
X0200014Y0138229D01*
X0199541Y0138008D01*
X0199036Y0137872D01*
X0198998Y0137808D01*
X0198925Y0137821D01*
X0198497Y0137521D01*
X0198023Y0137300D01*
X0197998Y0137230D01*
X0197923Y0137230D01*
X0197554Y0136861D01*
X0197125Y0136561D01*
X0197113Y0136487D01*
X0197039Y0136475D01*
X0196739Y0136046D01*
X0196370Y0135677D01*
X0196370Y0135602D01*
X0196300Y0135577D01*
X0196079Y0135103D01*
X0195779Y0134675D01*
X0195792Y0134602D01*
X0195728Y0134564D01*
X0195592Y0134059D01*
X0195371Y0133586D01*
X0195397Y0133516D01*
X0195340Y0133468D01*
X0195294Y0132947D01*
X0195159Y0132442D01*
X0195200Y0132371D01*
X0195200Y0131870D01*
X0195148Y0131279D01*
X0195200Y0131218D01*
X0195200Y0092382D01*
X0195148Y0092321D01*
X0195200Y0091730D01*
X0195200Y0091229D01*
X0195159Y0091158D01*
X0195294Y0090653D01*
X0195340Y0090132D01*
X0195397Y0090084D01*
X0195371Y0090014D01*
X0195592Y0089541D01*
X0195728Y0089036D01*
X0195792Y0088998D01*
X0195779Y0088925D01*
X0196079Y0088497D01*
X0196300Y0088023D01*
X0196370Y0087998D01*
X0196370Y0087923D01*
X0196739Y0087554D01*
X0197039Y0087125D01*
X0197113Y0087113D01*
X0197125Y0087039D01*
X0197554Y0086739D01*
X0197923Y0086370D01*
X0197998Y0086370D01*
X0198023Y0086300D01*
X0198497Y0086079D01*
X0196545Y0087748D02*
X0137055Y0087748D01*
X0137956Y0089346D02*
X0195644Y0089346D01*
X0195216Y0090945D02*
X0138384Y0090945D01*
X0138400Y0092543D02*
X0195200Y0092543D01*
X0195200Y0094142D02*
X0138400Y0094142D01*
X0138400Y0095740D02*
X0195200Y0095740D01*
X0195200Y0097339D02*
X0138400Y0097339D01*
X0138400Y0098937D02*
X0195200Y0098937D01*
X0195200Y0100536D02*
X0138400Y0100536D01*
X0138400Y0102134D02*
X0195200Y0102134D01*
X0195200Y0103733D02*
X0138400Y0103733D01*
X0138400Y0105332D02*
X0195200Y0105332D01*
X0195200Y0106930D02*
X0138400Y0106930D01*
X0138400Y0108529D02*
X0195200Y0108529D01*
X0195200Y0110127D02*
X0138400Y0110127D01*
X0138400Y0111726D02*
X0195200Y0111726D01*
X0195200Y0113324D02*
X0138400Y0113324D01*
X0138400Y0114923D02*
X0195200Y0114923D01*
X0195200Y0116521D02*
X0138400Y0116521D01*
X0138400Y0118120D02*
X0195200Y0118120D01*
X0195200Y0119718D02*
X0138400Y0119718D01*
X0138400Y0121317D02*
X0195200Y0121317D01*
X0195200Y0122915D02*
X0138400Y0122915D01*
X0138400Y0124514D02*
X0195200Y0124514D01*
X0195200Y0126112D02*
X0138400Y0126112D01*
X0138400Y0127711D02*
X0195200Y0127711D01*
X0195200Y0129309D02*
X0138400Y0129309D01*
X0138400Y0130908D02*
X0195200Y0130908D01*
X0195176Y0132506D02*
X0138424Y0132506D01*
X0137996Y0134105D02*
X0195604Y0134105D01*
X0196396Y0135703D02*
X0137204Y0135703D01*
X0135573Y0137302D02*
X0198027Y0137302D01*
X0205573Y0137302D02*
X0268027Y0137302D01*
X0266396Y0135703D02*
X0207204Y0135703D01*
X0207996Y0134105D02*
X0265604Y0134105D01*
X0265176Y0132506D02*
X0208424Y0132506D01*
X0208400Y0130908D02*
X0265200Y0130908D01*
X0265200Y0129309D02*
X0208400Y0129309D01*
X0208400Y0127711D02*
X0265200Y0127711D01*
X0265200Y0126112D02*
X0208400Y0126112D01*
X0208400Y0124514D02*
X0265200Y0124514D01*
X0265200Y0122915D02*
X0208400Y0122915D01*
X0208400Y0121317D02*
X0265200Y0121317D01*
X0265200Y0119718D02*
X0208400Y0119718D01*
X0208400Y0118120D02*
X0265200Y0118120D01*
X0265200Y0116521D02*
X0208400Y0116521D01*
X0208400Y0114923D02*
X0265200Y0114923D01*
X0265200Y0113324D02*
X0208400Y0113324D01*
X0208400Y0111726D02*
X0265200Y0111726D01*
X0265200Y0110127D02*
X0208400Y0110127D01*
X0208400Y0108529D02*
X0265200Y0108529D01*
X0265200Y0106930D02*
X0208400Y0106930D01*
X0208400Y0105332D02*
X0265200Y0105332D01*
X0265200Y0103733D02*
X0208400Y0103733D01*
X0208400Y0102134D02*
X0265200Y0102134D01*
X0265200Y0100536D02*
X0208400Y0100536D01*
X0208400Y0098937D02*
X0265200Y0098937D01*
X0265200Y0097339D02*
X0208400Y0097339D01*
X0208400Y0095740D02*
X0265200Y0095740D01*
X0265200Y0094142D02*
X0208400Y0094142D01*
X0208400Y0092543D02*
X0265200Y0092543D01*
X0265216Y0090945D02*
X0208384Y0090945D01*
X0207956Y0089346D02*
X0265644Y0089346D01*
X0266545Y0087748D02*
X0207055Y0087748D01*
X0205254Y0086149D02*
X0268346Y0086149D01*
X0277956Y0089346D02*
X0288628Y0089346D01*
X0287848Y0090945D02*
X0278384Y0090945D01*
X0278400Y0092543D02*
X0287822Y0092543D01*
X0288516Y0094142D02*
X0278400Y0094142D01*
X0278400Y0095740D02*
X0290918Y0095740D01*
X0292682Y0095740D02*
X0331780Y0095740D01*
X0333378Y0097339D02*
X0278400Y0097339D01*
X0278400Y0098937D02*
X0334977Y0098937D01*
X0336575Y0100536D02*
X0278400Y0100536D01*
X0278400Y0102134D02*
X0338174Y0102134D01*
X0339772Y0103733D02*
X0278400Y0103733D01*
X0278400Y0105332D02*
X0341371Y0105332D01*
X0342969Y0106930D02*
X0278400Y0106930D01*
X0278400Y0108529D02*
X0344568Y0108529D01*
X0346166Y0110127D02*
X0278400Y0110127D01*
X0278400Y0111726D02*
X0347765Y0111726D01*
X0349363Y0113324D02*
X0278400Y0113324D01*
X0278400Y0114923D02*
X0350962Y0114923D01*
X0352560Y0116521D02*
X0278400Y0116521D01*
X0296449Y0126112D02*
X0352151Y0126112D01*
X0353750Y0127711D02*
X0294850Y0127711D01*
X0293252Y0129309D02*
X0305495Y0129309D01*
X0303731Y0130908D02*
X0291653Y0130908D01*
X0290055Y0132506D02*
X0302133Y0132506D01*
X0300534Y0134105D02*
X0288456Y0134105D01*
X0286858Y0135703D02*
X0298936Y0135703D01*
X0297337Y0137302D02*
X0285259Y0137302D01*
X0283661Y0138900D02*
X0295739Y0138900D01*
X0294140Y0140499D02*
X0282062Y0140499D01*
X0280464Y0142097D02*
X0292542Y0142097D01*
X0290943Y0143696D02*
X0278865Y0143696D01*
X0277267Y0145294D02*
X0289345Y0145294D01*
X0287746Y0146893D02*
X0275668Y0146893D01*
X0274070Y0148491D02*
X0286148Y0148491D01*
X0281352Y0153287D02*
X0143713Y0153287D01*
X0214321Y0143696D02*
X0270943Y0143696D01*
X0303661Y0138900D02*
X0354939Y0138900D01*
X0354459Y0140499D02*
X0356538Y0140499D01*
X0362861Y0138900D02*
X0364939Y0138900D01*
X0364460Y0140499D02*
X0366538Y0140499D01*
X0366058Y0142097D02*
X0368136Y0142097D01*
X0367657Y0143696D02*
X0369735Y0143696D01*
X0369255Y0145294D02*
X0371333Y0145294D01*
X0363341Y0137302D02*
X0361263Y0137302D01*
X0361742Y0135703D02*
X0359664Y0135703D01*
X0360144Y0134105D02*
X0358066Y0134105D01*
X0358545Y0132506D02*
X0356467Y0132506D01*
X0356947Y0130908D02*
X0354869Y0130908D01*
X0354174Y0130213D02*
X0354174Y0130213D01*
X0353105Y0129309D02*
X0355348Y0129309D01*
X0351742Y0135703D02*
X0306858Y0135703D01*
X0305259Y0137302D02*
X0353341Y0137302D01*
X0386876Y0122915D02*
X0387704Y0122915D01*
X0388475Y0124514D02*
X0389303Y0124514D01*
X0390073Y0126112D02*
X0390901Y0126112D01*
X0391672Y0127711D02*
X0392500Y0127711D01*
X0393270Y0129309D02*
X0394289Y0129309D01*
X0394869Y0130908D02*
X0404831Y0130908D01*
X0398066Y0134105D02*
X0437874Y0134105D01*
X0437874Y0135703D02*
X0399664Y0135703D01*
X0401263Y0137302D02*
X0437874Y0137302D01*
X0437874Y0138900D02*
X0402861Y0138900D01*
X0404460Y0140499D02*
X0437874Y0140499D01*
X0437874Y0142097D02*
X0406058Y0142097D01*
X0407657Y0143696D02*
X0437874Y0143696D01*
X0437874Y0145294D02*
X0409255Y0145294D01*
X0410854Y0146893D02*
X0437874Y0146893D01*
X0437874Y0148491D02*
X0412452Y0148491D01*
X0414051Y0150090D02*
X0437874Y0150090D01*
X0437874Y0151688D02*
X0414877Y0151688D01*
X0416120Y0153287D02*
X0437874Y0153287D01*
X0437874Y0154885D02*
X0416600Y0154885D01*
X0416600Y0156484D02*
X0437874Y0156484D01*
X0437874Y0158082D02*
X0416600Y0158082D01*
X0416600Y0159681D02*
X0437874Y0159681D01*
X0437874Y0161279D02*
X0416600Y0161279D01*
X0416600Y0162878D02*
X0437874Y0162878D01*
X0437874Y0164476D02*
X0416600Y0164476D01*
X0416600Y0166075D02*
X0437874Y0166075D01*
X0437874Y0167673D02*
X0416600Y0167673D01*
X0416551Y0169272D02*
X0437874Y0169272D01*
X0437874Y0170870D02*
X0415889Y0170870D01*
X0414037Y0172469D02*
X0437874Y0172469D01*
X0437874Y0174068D02*
X0019899Y0174068D01*
X0019899Y0175666D02*
X0437874Y0175666D01*
X0437874Y0177265D02*
X0019899Y0177265D01*
X0019899Y0178863D02*
X0437874Y0178863D01*
X0437874Y0180462D02*
X0019899Y0180462D01*
X0019899Y0182060D02*
X0437874Y0182060D01*
X0437874Y0183659D02*
X0019899Y0183659D01*
X0019899Y0185257D02*
X0437874Y0185257D01*
X0437874Y0186856D02*
X0019899Y0186856D01*
X0156182Y0070164D02*
X0177189Y0070164D01*
X0176800Y0068566D02*
X0156600Y0068566D01*
X0156600Y0066967D02*
X0176800Y0066967D01*
X0176800Y0065369D02*
X0156600Y0065369D01*
X0156600Y0063770D02*
X0176800Y0063770D01*
X0176800Y0062172D02*
X0156600Y0062172D01*
X0251600Y0060573D02*
X0252000Y0060573D01*
X0252000Y0058975D02*
X0251600Y0058975D01*
X0251600Y0057376D02*
X0252000Y0057376D01*
X0252000Y0055778D02*
X0251600Y0055778D01*
X0251600Y0054179D02*
X0252000Y0054179D01*
X0252000Y0052581D02*
X0251600Y0052581D01*
X0251600Y0050982D02*
X0252000Y0050982D01*
X0372489Y0108529D02*
X0373318Y0108529D01*
X0374088Y0110127D02*
X0374916Y0110127D01*
X0375686Y0111726D02*
X0376515Y0111726D01*
X0377285Y0113324D02*
X0378113Y0113324D01*
X0378884Y0114923D02*
X0379712Y0114923D01*
X0380482Y0116521D02*
X0381310Y0116521D01*
X0382081Y0118120D02*
X0382909Y0118120D01*
X0383679Y0119718D02*
X0384507Y0119718D01*
X0385278Y0121317D02*
X0386106Y0121317D01*
X0390831Y0118120D02*
X0396659Y0118120D01*
X0394028Y0121317D02*
X0405273Y0121317D01*
X0404608Y0122915D02*
X0395626Y0122915D01*
X0392429Y0119718D02*
X0403691Y0119718D01*
X0425964Y0121317D02*
X0437874Y0121317D01*
X0437874Y0122915D02*
X0426629Y0122915D01*
X0427809Y0124514D02*
X0437874Y0124514D01*
X0437874Y0126112D02*
X0428319Y0126112D01*
X0428319Y0127711D02*
X0437874Y0127711D01*
X0437874Y0129309D02*
X0427716Y0129309D01*
X0426407Y0130908D02*
X0437874Y0130908D01*
X0437874Y0132506D02*
X0396467Y0132506D01*
X0427547Y0119718D02*
X0437874Y0119718D01*
X0437874Y0118120D02*
X0428209Y0118120D01*
X0428319Y0116521D02*
X0437874Y0116521D01*
X0437874Y0114923D02*
X0427978Y0114923D01*
X0427038Y0113324D02*
X0437874Y0113324D01*
X0437874Y0111726D02*
X0424977Y0111726D01*
X0427187Y0110127D02*
X0437874Y0110127D01*
X0437874Y0108529D02*
X0428040Y0108529D01*
X0428319Y0106930D02*
X0437874Y0106930D01*
X0437874Y0105332D02*
X0428147Y0105332D01*
X0427447Y0103733D02*
X0437874Y0103733D01*
X0437874Y0102134D02*
X0425605Y0102134D01*
X0426778Y0100536D02*
X0437874Y0100536D01*
X0437874Y0098937D02*
X0427870Y0098937D01*
X0428319Y0097339D02*
X0437874Y0097339D01*
X0437874Y0095740D02*
X0428317Y0095740D01*
X0427655Y0094142D02*
X0437874Y0094142D01*
X0437874Y0092543D02*
X0426258Y0092543D01*
X0414601Y0090945D02*
X0438732Y0090945D01*
X0414601Y0089346D02*
X0500000Y0089346D01*
X0500000Y0087748D02*
X0414601Y0087748D01*
X0414601Y0086149D02*
X0500000Y0086149D01*
X0500000Y0084551D02*
X0414601Y0084551D01*
X0414601Y0082952D02*
X0500000Y0082952D01*
X0500000Y0081354D02*
X0414601Y0081354D01*
X0414601Y0079755D02*
X0500000Y0079755D01*
X0500000Y0078157D02*
X0414601Y0078157D01*
X0414601Y0076558D02*
X0500000Y0076558D01*
X0500000Y0074960D02*
X0414601Y0074960D01*
X0414601Y0073361D02*
X0500000Y0073361D01*
X0500000Y0071763D02*
X0495025Y0071763D01*
X0494519Y0072269D02*
X0495869Y0070919D01*
X0496600Y0069155D01*
X0496600Y0054445D01*
X0495869Y0052681D01*
X0494519Y0051331D01*
X0492755Y0050600D01*
X0490845Y0050600D01*
X0489081Y0051331D01*
X0487731Y0052681D01*
X0487000Y0054445D01*
X0487000Y0069155D01*
X0487731Y0070919D01*
X0489081Y0072269D01*
X0490845Y0073000D01*
X0492755Y0073000D01*
X0494519Y0072269D01*
X0496182Y0070164D02*
X0500000Y0070164D01*
X0500000Y0068566D02*
X0496600Y0068566D01*
X0496600Y0066967D02*
X0500000Y0066967D01*
X0500000Y0065369D02*
X0496600Y0065369D01*
X0496600Y0063770D02*
X0500000Y0063770D01*
X0500000Y0062172D02*
X0496600Y0062172D01*
X0496600Y0060573D02*
X0500000Y0060573D01*
X0500000Y0058975D02*
X0496600Y0058975D01*
X0496600Y0057376D02*
X0500000Y0057376D01*
X0500000Y0055778D02*
X0496600Y0055778D01*
X0496490Y0054179D02*
X0500000Y0054179D01*
X0500000Y0052581D02*
X0495769Y0052581D01*
X0493677Y0050982D02*
X0500000Y0050982D01*
X0500000Y0049384D02*
X0463343Y0049384D01*
X0464492Y0050982D02*
X0469923Y0050982D01*
X0469081Y0051331D02*
X0470845Y0050600D01*
X0472755Y0050600D01*
X0474519Y0051331D01*
X0475869Y0052681D01*
X0476600Y0054445D01*
X0476600Y0069155D01*
X0475869Y0070919D01*
X0474519Y0072269D01*
X0472755Y0073000D01*
X0470845Y0073000D01*
X0469081Y0072269D01*
X0467731Y0070919D01*
X0467000Y0069155D01*
X0467000Y0054445D01*
X0467731Y0052681D01*
X0469081Y0051331D01*
X0467831Y0052581D02*
X0465769Y0052581D01*
X0466490Y0054179D02*
X0467110Y0054179D01*
X0467000Y0055778D02*
X0466600Y0055778D01*
X0466600Y0057376D02*
X0467000Y0057376D01*
X0467000Y0058975D02*
X0466600Y0058975D01*
X0466600Y0060573D02*
X0467000Y0060573D01*
X0467000Y0062172D02*
X0466600Y0062172D01*
X0466600Y0063770D02*
X0467000Y0063770D01*
X0467000Y0065369D02*
X0466600Y0065369D01*
X0466600Y0066967D02*
X0467000Y0066967D01*
X0467000Y0068566D02*
X0466600Y0068566D01*
X0466182Y0070164D02*
X0467418Y0070164D01*
X0468575Y0071763D02*
X0465025Y0071763D01*
X0458575Y0071763D02*
X0455308Y0071763D01*
X0455057Y0072014D02*
X0454421Y0072476D01*
X0453719Y0072834D01*
X0452971Y0073077D01*
X0452194Y0073200D01*
X0452000Y0073200D01*
X0452000Y0062000D01*
X0456800Y0062000D01*
X0456800Y0068594D01*
X0456677Y0069371D01*
X0456434Y0070119D01*
X0456076Y0070821D01*
X0455614Y0071457D01*
X0455057Y0072014D01*
X0456411Y0070164D02*
X0457418Y0070164D01*
X0457000Y0068566D02*
X0456800Y0068566D01*
X0456800Y0066967D02*
X0457000Y0066967D01*
X0457000Y0065369D02*
X0456800Y0065369D01*
X0456800Y0063770D02*
X0457000Y0063770D01*
X0457000Y0062172D02*
X0456800Y0062172D01*
X0456800Y0061600D02*
X0452000Y0061600D01*
X0452000Y0062000D01*
X0451600Y0062000D01*
X0451600Y0073200D01*
X0451406Y0073200D01*
X0450629Y0073077D01*
X0449881Y0072834D01*
X0449179Y0072476D01*
X0448543Y0072014D01*
X0447986Y0071457D01*
X0447524Y0070821D01*
X0447166Y0070119D01*
X0446923Y0069371D01*
X0446800Y0068594D01*
X0446800Y0062000D01*
X0451600Y0062000D01*
X0451600Y0061600D01*
X0452000Y0061600D01*
X0452000Y0050400D01*
X0452194Y0050400D01*
X0452971Y0050523D01*
X0453719Y0050766D01*
X0454421Y0051124D01*
X0455057Y0051586D01*
X0455614Y0052143D01*
X0456076Y0052779D01*
X0456434Y0053481D01*
X0456677Y0054229D01*
X0456800Y0055006D01*
X0456800Y0061600D01*
X0456800Y0060573D02*
X0457000Y0060573D01*
X0457000Y0058975D02*
X0456800Y0058975D01*
X0456800Y0057376D02*
X0457000Y0057376D01*
X0457000Y0055778D02*
X0456800Y0055778D01*
X0456661Y0054179D02*
X0457110Y0054179D01*
X0457831Y0052581D02*
X0455932Y0052581D01*
X0457022Y0050982D02*
X0454143Y0050982D01*
X0452000Y0050982D02*
X0451600Y0050982D01*
X0451600Y0050400D02*
X0451600Y0061600D01*
X0446800Y0061600D01*
X0446800Y0055006D01*
X0446923Y0054229D01*
X0447166Y0053481D01*
X0447524Y0052779D01*
X0447986Y0052143D01*
X0448543Y0051586D01*
X0449179Y0051124D01*
X0449881Y0050766D01*
X0450629Y0050523D01*
X0451406Y0050400D01*
X0451600Y0050400D01*
X0451600Y0052581D02*
X0452000Y0052581D01*
X0452000Y0054179D02*
X0451600Y0054179D01*
X0451600Y0055778D02*
X0452000Y0055778D01*
X0452000Y0057376D02*
X0451600Y0057376D01*
X0451600Y0058975D02*
X0452000Y0058975D01*
X0452000Y0060573D02*
X0451600Y0060573D01*
X0451600Y0062172D02*
X0452000Y0062172D01*
X0452000Y0063770D02*
X0451600Y0063770D01*
X0451600Y0065369D02*
X0452000Y0065369D01*
X0452000Y0066967D02*
X0451600Y0066967D01*
X0451600Y0068566D02*
X0452000Y0068566D01*
X0452000Y0070164D02*
X0451600Y0070164D01*
X0451600Y0071763D02*
X0452000Y0071763D01*
X0448292Y0071763D02*
X0445025Y0071763D01*
X0444519Y0072269D02*
X0442755Y0073000D01*
X0440845Y0073000D01*
X0439081Y0072269D01*
X0437731Y0070919D01*
X0437000Y0069155D01*
X0437000Y0054445D01*
X0437731Y0052681D01*
X0439081Y0051331D01*
X0440845Y0050600D01*
X0442755Y0050600D01*
X0444519Y0051331D01*
X0445869Y0052681D01*
X0446600Y0054445D01*
X0446600Y0069155D01*
X0445869Y0070919D01*
X0444519Y0072269D01*
X0446182Y0070164D02*
X0447189Y0070164D01*
X0446800Y0068566D02*
X0446600Y0068566D01*
X0446600Y0066967D02*
X0446800Y0066967D01*
X0446800Y0065369D02*
X0446600Y0065369D01*
X0446600Y0063770D02*
X0446800Y0063770D01*
X0446800Y0062172D02*
X0446600Y0062172D01*
X0446600Y0060573D02*
X0446800Y0060573D01*
X0446800Y0058975D02*
X0446600Y0058975D01*
X0446600Y0057376D02*
X0446800Y0057376D01*
X0446800Y0055778D02*
X0446600Y0055778D01*
X0446490Y0054179D02*
X0446939Y0054179D01*
X0447668Y0052581D02*
X0445769Y0052581D01*
X0443677Y0050982D02*
X0449457Y0050982D01*
X0439923Y0050982D02*
X0413677Y0050982D01*
X0415769Y0052581D02*
X0437831Y0052581D01*
X0437110Y0054179D02*
X0416490Y0054179D01*
X0416600Y0055778D02*
X0437000Y0055778D01*
X0437000Y0057376D02*
X0416600Y0057376D01*
X0416600Y0058975D02*
X0437000Y0058975D01*
X0437000Y0060573D02*
X0416600Y0060573D01*
X0416600Y0062172D02*
X0437000Y0062172D01*
X0437000Y0063770D02*
X0416600Y0063770D01*
X0416600Y0065369D02*
X0437000Y0065369D01*
X0437000Y0066967D02*
X0416600Y0066967D01*
X0416600Y0068566D02*
X0437000Y0068566D01*
X0437418Y0070164D02*
X0416182Y0070164D01*
X0415025Y0071763D02*
X0438575Y0071763D01*
X0408575Y0071763D02*
X0405025Y0071763D01*
X0406182Y0070164D02*
X0407418Y0070164D01*
X0407000Y0068566D02*
X0406600Y0068566D01*
X0406600Y0066967D02*
X0407000Y0066967D01*
X0407000Y0065369D02*
X0406600Y0065369D01*
X0406600Y0063770D02*
X0407000Y0063770D01*
X0407000Y0062172D02*
X0406600Y0062172D01*
X0406600Y0060573D02*
X0407000Y0060573D01*
X0407000Y0058975D02*
X0406600Y0058975D01*
X0406600Y0057376D02*
X0407000Y0057376D01*
X0407000Y0055778D02*
X0406600Y0055778D01*
X0406490Y0054179D02*
X0407110Y0054179D01*
X0407831Y0052581D02*
X0405769Y0052581D01*
X0406578Y0050982D02*
X0409923Y0050982D01*
X0458548Y0044588D02*
X0500000Y0044588D01*
X0500000Y0046187D02*
X0460146Y0046187D01*
X0461745Y0047785D02*
X0500000Y0047785D01*
X0489923Y0050982D02*
X0483677Y0050982D01*
X0484519Y0051331D02*
X0485869Y0052681D01*
X0486600Y0054445D01*
X0486600Y0069155D01*
X0485869Y0070919D01*
X0484519Y0072269D01*
X0482755Y0073000D01*
X0480845Y0073000D01*
X0479081Y0072269D01*
X0477731Y0070919D01*
X0477000Y0069155D01*
X0477000Y0054445D01*
X0477731Y0052681D01*
X0479081Y0051331D01*
X0480845Y0050600D01*
X0482755Y0050600D01*
X0484519Y0051331D01*
X0485769Y0052581D02*
X0487831Y0052581D01*
X0487110Y0054179D02*
X0486490Y0054179D01*
X0486600Y0055778D02*
X0487000Y0055778D01*
X0487000Y0057376D02*
X0486600Y0057376D01*
X0486600Y0058975D02*
X0487000Y0058975D01*
X0487000Y0060573D02*
X0486600Y0060573D01*
X0486600Y0062172D02*
X0487000Y0062172D01*
X0487000Y0063770D02*
X0486600Y0063770D01*
X0486600Y0065369D02*
X0487000Y0065369D01*
X0487000Y0066967D02*
X0486600Y0066967D01*
X0486600Y0068566D02*
X0487000Y0068566D01*
X0487418Y0070164D02*
X0486182Y0070164D01*
X0485025Y0071763D02*
X0488575Y0071763D01*
X0478575Y0071763D02*
X0475025Y0071763D01*
X0476182Y0070164D02*
X0477418Y0070164D01*
X0477000Y0068566D02*
X0476600Y0068566D01*
X0476600Y0066967D02*
X0477000Y0066967D01*
X0477000Y0065369D02*
X0476600Y0065369D01*
X0476600Y0063770D02*
X0477000Y0063770D01*
X0477000Y0062172D02*
X0476600Y0062172D01*
X0476600Y0060573D02*
X0477000Y0060573D01*
X0477000Y0058975D02*
X0476600Y0058975D01*
X0476600Y0057376D02*
X0477000Y0057376D01*
X0477000Y0055778D02*
X0476600Y0055778D01*
X0476490Y0054179D02*
X0477110Y0054179D01*
X0477831Y0052581D02*
X0475769Y0052581D01*
X0473677Y0050982D02*
X0479923Y0050982D01*
D15*
X0368050Y0090550D03*
D16*
X0369050Y0091550D01*
X0369050Y0098050D01*
X0373050Y0098050D02*
X0373050Y0104300D01*
X0395550Y0126800D01*
X0415619Y0126800D01*
X0415619Y0116800D02*
X0399300Y0116800D01*
X0386800Y0104300D01*
X0386800Y0095550D01*
X0383050Y0091800D01*
X0375550Y0091800D01*
X0373050Y0089300D01*
X0373050Y0083050D01*
X0369050Y0083050D02*
X0369050Y0089550D01*
X0368050Y0090550D01*
X0396800Y0081800D02*
X0396800Y0103050D01*
X0400550Y0106800D01*
X0415619Y0106800D01*
X0415619Y0096800D02*
X0411800Y0092981D01*
X0411800Y0061800D01*
X0401800Y0061800D02*
X0401800Y0076800D01*
X0396800Y0081800D01*
X0334300Y0074300D02*
X0271800Y0074300D01*
X0201800Y0074300D01*
X0131800Y0074300D01*
X0061800Y0074300D01*
X0151800Y0080550D02*
X0221800Y0080550D01*
X0291800Y0080550D01*
X0330550Y0080550D01*
X0401800Y0151800D01*
X0401800Y0161800D01*
X0391800Y0161800D02*
X0391800Y0151800D01*
X0331800Y0091800D01*
X0291800Y0091800D01*
X0334300Y0074300D02*
X0411800Y0151800D01*
X0411800Y0161800D01*
X0381800Y0161800D02*
X0381800Y0151800D01*
X0351800Y0121800D01*
X0296800Y0121800D01*
X0271800Y0146800D01*
X0211800Y0146800D01*
X0141800Y0156800D02*
X0281800Y0156800D01*
X0306800Y0131800D01*
X0351800Y0131800D01*
X0371800Y0151800D01*
X0371800Y0161800D01*
X0351800Y0141800D02*
X0316800Y0141800D01*
X0291800Y0166800D01*
X0071800Y0166800D01*
D17*
X0081800Y0080550D02*
X0151800Y0080550D01*
X0351800Y0141800D02*
X0361800Y0151800D01*
X0361800Y0161800D01*
X0401800Y0061800D02*
X0401800Y0051800D01*
X0406800Y0046800D01*
X0456800Y0046800D01*
X0461800Y0051800D01*
X0461800Y0061800D01*
D18*
X0291800Y0080550D03*
X0271800Y0074300D03*
X0291800Y0091800D03*
X0221800Y0080550D03*
X0201800Y0074300D03*
X0151800Y0080550D03*
X0131800Y0074300D03*
X0081800Y0080550D03*
X0061800Y0074300D03*
X0211800Y0146800D03*
X0141800Y0156800D03*
X0071800Y0166800D03*
M02*
