G75*
%MOIN*%
%OFA0B0*%
%FSLAX25Y25*%
%IPPOS*%
%LPD*%
%AMOC8*
5,1,8,0,0,1.08239X$1,22.5*
%
%ADD10C,0.06400*%
%ADD11C,0.07400*%
%ADD12C,0.01600*%
%ADD13C,0.04362*%
%ADD14C,0.02400*%
%ADD15C,0.04756*%
%ADD16C,0.02402*%
D10*
X0041800Y0055400D02*
X0041800Y0068200D01*
X0051800Y0068200D02*
X0051800Y0055400D01*
X0061800Y0055400D02*
X0061800Y0068200D01*
X0071800Y0068200D02*
X0071800Y0055400D01*
X0081800Y0055400D02*
X0081800Y0068200D01*
X0111800Y0068200D02*
X0111800Y0055400D01*
X0121800Y0055400D02*
X0121800Y0068200D01*
X0131800Y0068200D02*
X0131800Y0055400D01*
X0141800Y0055400D02*
X0141800Y0068200D01*
X0151800Y0068200D02*
X0151800Y0055400D01*
X0181800Y0055400D02*
X0181800Y0068200D01*
X0191800Y0068200D02*
X0191800Y0055400D01*
X0201800Y0055400D02*
X0201800Y0068200D01*
X0211800Y0068200D02*
X0211800Y0055400D01*
X0221800Y0055400D02*
X0221800Y0068200D01*
X0251800Y0068200D02*
X0251800Y0055400D01*
X0261800Y0055400D02*
X0261800Y0068200D01*
X0271800Y0068200D02*
X0271800Y0055400D01*
X0281800Y0055400D02*
X0281800Y0068200D01*
X0291800Y0068200D02*
X0291800Y0055400D01*
X0321800Y0055400D02*
X0321800Y0068200D01*
X0331800Y0068200D02*
X0331800Y0055400D01*
X0341800Y0055400D02*
X0341800Y0068200D01*
X0351800Y0068200D02*
X0351800Y0055400D01*
X0361800Y0055400D02*
X0361800Y0068200D01*
X0371800Y0068200D02*
X0371800Y0055400D01*
X0381800Y0055400D02*
X0381800Y0068200D01*
X0391800Y0068200D02*
X0391800Y0055400D01*
X0401800Y0055400D02*
X0401800Y0068200D01*
X0411800Y0068200D02*
X0411800Y0055400D01*
X0441800Y0055400D02*
X0441800Y0068200D01*
X0451800Y0068200D02*
X0451800Y0055400D01*
X0461800Y0055400D02*
X0461800Y0068200D01*
X0471800Y0068200D02*
X0471800Y0055400D01*
X0481800Y0055400D02*
X0481800Y0068200D01*
X0491800Y0068200D02*
X0491800Y0055400D01*
X0411800Y0155400D02*
X0411800Y0168200D01*
X0401800Y0168200D02*
X0401800Y0155400D01*
X0391800Y0155400D02*
X0391800Y0168200D01*
X0381800Y0168200D02*
X0381800Y0155400D01*
X0371800Y0155400D02*
X0371800Y0168200D01*
X0361800Y0168200D02*
X0361800Y0155400D01*
X0351800Y0155400D02*
X0351800Y0168200D01*
X0341800Y0168200D02*
X0341800Y0155400D01*
X0331800Y0155400D02*
X0331800Y0168200D01*
X0321800Y0168200D02*
X0321800Y0155400D01*
D11*
X0408219Y0126800D02*
X0423019Y0126800D01*
X0423019Y0116800D02*
X0408219Y0116800D01*
X0408219Y0106800D02*
X0423019Y0106800D01*
X0423019Y0096800D02*
X0408219Y0096800D01*
D12*
X0019899Y0033600D02*
X0019899Y0187480D01*
X0437874Y0187480D01*
X0437874Y0091802D01*
X0438928Y0090748D01*
X0500000Y0090748D01*
X0500000Y0033600D01*
X0019899Y0033600D01*
X0019899Y0034997D02*
X0500000Y0034997D01*
X0500000Y0036596D02*
X0019899Y0036596D01*
X0019899Y0038194D02*
X0500000Y0038194D01*
X0500000Y0039793D02*
X0019899Y0039793D01*
X0019899Y0041391D02*
X0500000Y0041391D01*
X0500000Y0042990D02*
X0019899Y0042990D01*
X0019899Y0044588D02*
X0415052Y0044588D01*
X0415214Y0044426D02*
X0416243Y0044000D01*
X0467357Y0044000D01*
X0468386Y0044426D01*
X0473386Y0049426D01*
X0474174Y0050214D01*
X0474600Y0051243D01*
X0474600Y0051412D01*
X0475869Y0052681D01*
X0476600Y0054445D01*
X0476600Y0069155D01*
X0475869Y0070919D01*
X0474519Y0072269D01*
X0472755Y0073000D01*
X0470845Y0073000D01*
X0469081Y0072269D01*
X0467731Y0070919D01*
X0467000Y0069155D01*
X0467000Y0054445D01*
X0467731Y0052681D01*
X0468226Y0052186D01*
X0465640Y0049600D01*
X0417960Y0049600D01*
X0415374Y0052186D01*
X0415869Y0052681D01*
X0416600Y0054445D01*
X0416600Y0069155D01*
X0415869Y0070919D01*
X0414519Y0072269D01*
X0412755Y0073000D01*
X0410845Y0073000D01*
X0409081Y0072269D01*
X0407731Y0070919D01*
X0407000Y0069155D01*
X0407000Y0054445D01*
X0407731Y0052681D01*
X0409000Y0051412D01*
X0409000Y0051243D01*
X0409426Y0050214D01*
X0414426Y0045214D01*
X0415214Y0044426D01*
X0413454Y0046187D02*
X0019899Y0046187D01*
X0019899Y0047785D02*
X0411855Y0047785D01*
X0410257Y0049384D02*
X0019899Y0049384D01*
X0019899Y0050982D02*
X0039923Y0050982D01*
X0039081Y0051331D02*
X0040845Y0050600D01*
X0042755Y0050600D01*
X0044519Y0051331D01*
X0045869Y0052681D01*
X0046600Y0054445D01*
X0046600Y0069155D01*
X0045869Y0070919D01*
X0044519Y0072269D01*
X0042755Y0073000D01*
X0040845Y0073000D01*
X0039081Y0072269D01*
X0037731Y0070919D01*
X0037000Y0069155D01*
X0037000Y0054445D01*
X0037731Y0052681D01*
X0039081Y0051331D01*
X0037831Y0052581D02*
X0019899Y0052581D01*
X0019899Y0054179D02*
X0037110Y0054179D01*
X0037000Y0055778D02*
X0019899Y0055778D01*
X0019899Y0057376D02*
X0037000Y0057376D01*
X0037000Y0058975D02*
X0019899Y0058975D01*
X0019899Y0060573D02*
X0037000Y0060573D01*
X0037000Y0062172D02*
X0019899Y0062172D01*
X0019899Y0063770D02*
X0037000Y0063770D01*
X0037000Y0065369D02*
X0019899Y0065369D01*
X0019899Y0066967D02*
X0037000Y0066967D01*
X0037000Y0068566D02*
X0019899Y0068566D01*
X0019899Y0070164D02*
X0037418Y0070164D01*
X0038575Y0071763D02*
X0019899Y0071763D01*
X0019899Y0073361D02*
X0057883Y0073361D01*
X0057822Y0073509D02*
X0058428Y0072047D01*
X0058643Y0071831D01*
X0057731Y0070919D01*
X0057000Y0069155D01*
X0057000Y0054445D01*
X0057731Y0052681D01*
X0059081Y0051331D01*
X0060845Y0050600D01*
X0062755Y0050600D01*
X0064519Y0051331D01*
X0065869Y0052681D01*
X0066600Y0054445D01*
X0066600Y0069155D01*
X0065869Y0070919D01*
X0064957Y0071831D01*
X0065172Y0072047D01*
X0065778Y0073509D01*
X0065778Y0075091D01*
X0065172Y0076553D01*
X0064053Y0077672D01*
X0062591Y0078278D01*
X0061009Y0078278D01*
X0059547Y0077672D01*
X0058428Y0076553D01*
X0057822Y0075091D01*
X0057822Y0073509D01*
X0057822Y0074960D02*
X0019899Y0074960D01*
X0019899Y0076558D02*
X0058433Y0076558D01*
X0060716Y0078157D02*
X0019899Y0078157D01*
X0019899Y0079755D02*
X0068999Y0079755D01*
X0068999Y0078157D02*
X0062884Y0078157D01*
X0065167Y0076558D02*
X0068999Y0076558D01*
X0068999Y0074960D02*
X0065778Y0074960D01*
X0065717Y0073361D02*
X0068999Y0073361D01*
X0068999Y0072187D02*
X0067731Y0070919D01*
X0067000Y0069155D01*
X0067000Y0054445D01*
X0067731Y0052681D01*
X0069081Y0051331D01*
X0070845Y0050600D01*
X0072755Y0050600D01*
X0074519Y0051331D01*
X0075869Y0052681D01*
X0076600Y0054445D01*
X0076600Y0069155D01*
X0075869Y0070919D01*
X0074601Y0072187D01*
X0074601Y0080640D01*
X0084174Y0090213D01*
X0084601Y0091243D01*
X0084601Y0163975D01*
X0085172Y0164547D01*
X0085778Y0166009D01*
X0085778Y0167591D01*
X0085172Y0169053D01*
X0084053Y0170172D01*
X0082591Y0170778D01*
X0081009Y0170778D01*
X0079547Y0170172D01*
X0078428Y0169053D01*
X0077822Y0167591D01*
X0077822Y0166009D01*
X0078428Y0164547D01*
X0078999Y0163975D01*
X0078999Y0092960D01*
X0070213Y0084174D01*
X0069426Y0083387D01*
X0068999Y0082357D01*
X0068999Y0072187D01*
X0068575Y0071763D02*
X0065025Y0071763D01*
X0066182Y0070164D02*
X0067418Y0070164D01*
X0067000Y0068566D02*
X0066600Y0068566D01*
X0066600Y0066967D02*
X0067000Y0066967D01*
X0067000Y0065369D02*
X0066600Y0065369D01*
X0066600Y0063770D02*
X0067000Y0063770D01*
X0067000Y0062172D02*
X0066600Y0062172D01*
X0066600Y0060573D02*
X0067000Y0060573D01*
X0067000Y0058975D02*
X0066600Y0058975D01*
X0066600Y0057376D02*
X0067000Y0057376D01*
X0067000Y0055778D02*
X0066600Y0055778D01*
X0066490Y0054179D02*
X0067110Y0054179D01*
X0067831Y0052581D02*
X0065769Y0052581D01*
X0063677Y0050982D02*
X0069923Y0050982D01*
X0073677Y0050982D02*
X0079923Y0050982D01*
X0079081Y0051331D02*
X0080845Y0050600D01*
X0082755Y0050600D01*
X0084519Y0051331D01*
X0085869Y0052681D01*
X0086600Y0054445D01*
X0086600Y0069155D01*
X0085869Y0070919D01*
X0084600Y0072188D01*
X0084600Y0077724D01*
X0085172Y0078297D01*
X0085778Y0079759D01*
X0085778Y0081341D01*
X0085172Y0082803D01*
X0084053Y0083922D01*
X0082591Y0084528D01*
X0081009Y0084528D01*
X0079547Y0083922D01*
X0078428Y0082803D01*
X0077822Y0081341D01*
X0077822Y0079759D01*
X0078428Y0078297D01*
X0079000Y0077724D01*
X0079000Y0072188D01*
X0077731Y0070919D01*
X0077000Y0069155D01*
X0077000Y0054445D01*
X0077731Y0052681D01*
X0079081Y0051331D01*
X0077831Y0052581D02*
X0075769Y0052581D01*
X0076490Y0054179D02*
X0077110Y0054179D01*
X0077000Y0055778D02*
X0076600Y0055778D01*
X0076600Y0057376D02*
X0077000Y0057376D01*
X0077000Y0058975D02*
X0076600Y0058975D01*
X0076600Y0060573D02*
X0077000Y0060573D01*
X0077000Y0062172D02*
X0076600Y0062172D01*
X0076600Y0063770D02*
X0077000Y0063770D01*
X0077000Y0065369D02*
X0076600Y0065369D01*
X0076600Y0066967D02*
X0077000Y0066967D01*
X0077000Y0068566D02*
X0076600Y0068566D01*
X0076182Y0070164D02*
X0077418Y0070164D01*
X0078575Y0071763D02*
X0075025Y0071763D01*
X0074601Y0073361D02*
X0079000Y0073361D01*
X0079000Y0074960D02*
X0074601Y0074960D01*
X0074601Y0076558D02*
X0079000Y0076558D01*
X0078567Y0078157D02*
X0074601Y0078157D01*
X0074601Y0079755D02*
X0077823Y0079755D01*
X0077827Y0081354D02*
X0075315Y0081354D01*
X0076913Y0082952D02*
X0078577Y0082952D01*
X0078512Y0084551D02*
X0123264Y0084551D01*
X0123422Y0084353D02*
X0123591Y0084334D01*
X0123722Y0084213D01*
X0123753Y0084045D01*
X0124314Y0083663D01*
X0124812Y0083201D01*
X0124982Y0083208D01*
X0125129Y0083107D01*
X0125185Y0082947D01*
X0125797Y0082652D01*
X0126358Y0082270D01*
X0126525Y0082301D01*
X0126685Y0082224D01*
X0126765Y0082074D01*
X0127414Y0081874D01*
X0128025Y0081579D01*
X0128186Y0081635D01*
X0128356Y0081583D01*
X0128457Y0081446D01*
X0129128Y0081345D01*
X0129777Y0081145D01*
X0129928Y0081224D01*
X0130103Y0081198D01*
X0130224Y0081077D01*
X0130903Y0081077D01*
X0131574Y0080976D01*
X0131711Y0081077D01*
X0131889Y0081077D01*
X0132026Y0080976D01*
X0132697Y0081077D01*
X0133376Y0081077D01*
X0133497Y0081198D01*
X0133672Y0081224D01*
X0133823Y0081145D01*
X0134472Y0081345D01*
X0135143Y0081446D01*
X0135244Y0081583D01*
X0135414Y0081635D01*
X0135575Y0081579D01*
X0136186Y0081874D01*
X0136835Y0082074D01*
X0136915Y0082224D01*
X0137075Y0082301D01*
X0137242Y0082270D01*
X0137803Y0082652D01*
X0138415Y0082947D01*
X0138471Y0083107D01*
X0138618Y0083208D01*
X0138788Y0083201D01*
X0139286Y0083663D01*
X0139847Y0084045D01*
X0139878Y0084213D01*
X0140009Y0084334D01*
X0140178Y0084353D01*
X0140601Y0084884D01*
X0141099Y0085345D01*
X0141105Y0085516D01*
X0141216Y0085655D01*
X0141381Y0085699D01*
X0141720Y0086287D01*
X0142143Y0086817D01*
X0142124Y0086987D01*
X0142213Y0087141D01*
X0142369Y0087209D01*
X0142617Y0087841D01*
X0142957Y0088428D01*
X0142913Y0088593D01*
X0142978Y0088759D01*
X0143122Y0088849D01*
X0143273Y0089511D01*
X0143521Y0090143D01*
X0143453Y0090299D01*
X0143492Y0090472D01*
X0143622Y0090584D01*
X0143672Y0091261D01*
X0143823Y0091922D01*
X0143733Y0092067D01*
X0143740Y0092160D01*
X0143801Y0092221D01*
X0143801Y0092975D01*
X0143857Y0093727D01*
X0143801Y0093792D01*
X0143801Y0132308D01*
X0143857Y0132373D01*
X0143801Y0133125D01*
X0143801Y0133879D01*
X0143740Y0133940D01*
X0143733Y0134033D01*
X0143823Y0134178D01*
X0143672Y0134839D01*
X0143622Y0135516D01*
X0143492Y0135628D01*
X0143453Y0135801D01*
X0143521Y0135957D01*
X0143273Y0136589D01*
X0143122Y0137251D01*
X0142978Y0137341D01*
X0142913Y0137507D01*
X0142957Y0137672D01*
X0142617Y0138259D01*
X0142369Y0138891D01*
X0142213Y0138959D01*
X0142124Y0139113D01*
X0142143Y0139283D01*
X0141720Y0139813D01*
X0141381Y0140401D01*
X0141216Y0140445D01*
X0141105Y0140584D01*
X0141099Y0140755D01*
X0140601Y0141216D01*
X0140178Y0141747D01*
X0140009Y0141766D01*
X0139878Y0141887D01*
X0139847Y0142055D01*
X0139286Y0142437D01*
X0138788Y0142899D01*
X0138618Y0142892D01*
X0138471Y0142992D01*
X0138415Y0143153D01*
X0137803Y0143448D01*
X0137242Y0143830D01*
X0137075Y0143799D01*
X0136915Y0143876D01*
X0136835Y0144026D01*
X0136186Y0144226D01*
X0135575Y0144521D01*
X0135414Y0144465D01*
X0135244Y0144517D01*
X0135143Y0144654D01*
X0134472Y0144755D01*
X0133823Y0144955D01*
X0133672Y0144876D01*
X0133497Y0144902D01*
X0133376Y0145023D01*
X0132697Y0145023D01*
X0132026Y0145124D01*
X0131889Y0145023D01*
X0131711Y0145023D01*
X0131574Y0145124D01*
X0130903Y0145023D01*
X0130224Y0145023D01*
X0130103Y0144902D01*
X0129928Y0144876D01*
X0129777Y0144955D01*
X0129128Y0144755D01*
X0128457Y0144654D01*
X0128356Y0144517D01*
X0128186Y0144465D01*
X0128025Y0144521D01*
X0127414Y0144226D01*
X0126765Y0144026D01*
X0126685Y0143876D01*
X0126525Y0143799D01*
X0126358Y0143830D01*
X0125797Y0143448D01*
X0125185Y0143153D01*
X0125129Y0142992D01*
X0124982Y0142892D01*
X0124812Y0142899D01*
X0124314Y0142437D01*
X0123753Y0142055D01*
X0123722Y0141887D01*
X0123591Y0141766D01*
X0123422Y0141747D01*
X0122999Y0141216D01*
X0122501Y0140755D01*
X0122495Y0140584D01*
X0122384Y0140445D01*
X0122219Y0140401D01*
X0121880Y0139813D01*
X0121457Y0139283D01*
X0121476Y0139113D01*
X0121387Y0138959D01*
X0121231Y0138891D01*
X0120983Y0138259D01*
X0120643Y0137672D01*
X0120687Y0137507D01*
X0120622Y0137341D01*
X0120478Y0137251D01*
X0120327Y0136589D01*
X0120079Y0135957D01*
X0120147Y0135801D01*
X0120108Y0135628D01*
X0119978Y0135516D01*
X0119928Y0134839D01*
X0119777Y0134178D01*
X0119867Y0134033D01*
X0119860Y0133940D01*
X0119799Y0133879D01*
X0119799Y0133125D01*
X0119743Y0132373D01*
X0119799Y0132308D01*
X0119799Y0093792D01*
X0119743Y0093727D01*
X0119799Y0092975D01*
X0119799Y0092221D01*
X0119860Y0092160D01*
X0119867Y0092067D01*
X0119777Y0091922D01*
X0119928Y0091261D01*
X0119978Y0090584D01*
X0120108Y0090472D01*
X0120147Y0090299D01*
X0120079Y0090143D01*
X0120327Y0089511D01*
X0120478Y0088849D01*
X0120622Y0088759D01*
X0120687Y0088593D01*
X0120643Y0088428D01*
X0120983Y0087841D01*
X0121231Y0087209D01*
X0121387Y0087141D01*
X0121476Y0086987D01*
X0121457Y0086817D01*
X0121880Y0086287D01*
X0122219Y0085699D01*
X0122384Y0085655D01*
X0122495Y0085516D01*
X0122501Y0085345D01*
X0122999Y0084884D01*
X0123422Y0084353D01*
X0125183Y0082952D02*
X0085023Y0082952D01*
X0085773Y0081354D02*
X0129067Y0081354D01*
X0134533Y0081354D02*
X0138999Y0081354D01*
X0138999Y0082357D02*
X0138999Y0072187D01*
X0137731Y0070919D01*
X0137000Y0069155D01*
X0137000Y0054445D01*
X0137731Y0052681D01*
X0139081Y0051331D01*
X0140845Y0050600D01*
X0142755Y0050600D01*
X0144519Y0051331D01*
X0145869Y0052681D01*
X0146600Y0054445D01*
X0146600Y0069155D01*
X0145869Y0070919D01*
X0144601Y0072187D01*
X0144601Y0080640D01*
X0154174Y0090213D01*
X0154601Y0091243D01*
X0154601Y0153975D01*
X0155172Y0154547D01*
X0155778Y0156009D01*
X0155778Y0157591D01*
X0155172Y0159053D01*
X0154053Y0160172D01*
X0152591Y0160778D01*
X0151009Y0160778D01*
X0149547Y0160172D01*
X0148428Y0159053D01*
X0147822Y0157591D01*
X0147822Y0156009D01*
X0148428Y0154547D01*
X0148999Y0153975D01*
X0148999Y0092960D01*
X0140213Y0084174D01*
X0139426Y0083387D01*
X0138999Y0082357D01*
X0139246Y0082952D02*
X0138417Y0082952D01*
X0140336Y0084551D02*
X0140590Y0084551D01*
X0141641Y0086149D02*
X0142188Y0086149D01*
X0142581Y0087748D02*
X0143787Y0087748D01*
X0143235Y0089346D02*
X0145385Y0089346D01*
X0146984Y0090945D02*
X0143649Y0090945D01*
X0143801Y0092543D02*
X0148583Y0092543D01*
X0148999Y0094142D02*
X0143801Y0094142D01*
X0143801Y0095740D02*
X0148999Y0095740D01*
X0148999Y0097339D02*
X0143801Y0097339D01*
X0143801Y0098937D02*
X0148999Y0098937D01*
X0148999Y0100536D02*
X0143801Y0100536D01*
X0143801Y0102134D02*
X0148999Y0102134D01*
X0148999Y0103733D02*
X0143801Y0103733D01*
X0143801Y0105332D02*
X0148999Y0105332D01*
X0148999Y0106930D02*
X0143801Y0106930D01*
X0143801Y0108529D02*
X0148999Y0108529D01*
X0148999Y0110127D02*
X0143801Y0110127D01*
X0143801Y0111726D02*
X0148999Y0111726D01*
X0148999Y0113324D02*
X0143801Y0113324D01*
X0143801Y0114923D02*
X0148999Y0114923D01*
X0148999Y0116521D02*
X0143801Y0116521D01*
X0143801Y0118120D02*
X0148999Y0118120D01*
X0148999Y0119718D02*
X0143801Y0119718D01*
X0143801Y0121317D02*
X0148999Y0121317D01*
X0148999Y0122915D02*
X0143801Y0122915D01*
X0143801Y0124514D02*
X0148999Y0124514D01*
X0148999Y0126112D02*
X0143801Y0126112D01*
X0143801Y0127711D02*
X0148999Y0127711D01*
X0148999Y0129309D02*
X0143801Y0129309D01*
X0143801Y0130908D02*
X0148999Y0130908D01*
X0148999Y0132506D02*
X0143847Y0132506D01*
X0143777Y0134105D02*
X0148999Y0134105D01*
X0148999Y0135703D02*
X0143475Y0135703D01*
X0143041Y0137302D02*
X0148999Y0137302D01*
X0148999Y0138900D02*
X0142349Y0138900D01*
X0141174Y0140499D02*
X0148999Y0140499D01*
X0148999Y0142097D02*
X0139784Y0142097D01*
X0137439Y0143696D02*
X0148999Y0143696D01*
X0148999Y0145294D02*
X0084601Y0145294D01*
X0084601Y0143696D02*
X0126161Y0143696D01*
X0123816Y0142097D02*
X0084601Y0142097D01*
X0084601Y0140499D02*
X0122426Y0140499D01*
X0121251Y0138900D02*
X0084601Y0138900D01*
X0084601Y0137302D02*
X0120559Y0137302D01*
X0120125Y0135703D02*
X0084601Y0135703D01*
X0084601Y0134105D02*
X0119822Y0134105D01*
X0119753Y0132506D02*
X0084601Y0132506D01*
X0084601Y0130908D02*
X0119799Y0130908D01*
X0119799Y0129309D02*
X0084601Y0129309D01*
X0084601Y0127711D02*
X0119799Y0127711D01*
X0119799Y0126112D02*
X0084601Y0126112D01*
X0084601Y0124514D02*
X0119799Y0124514D01*
X0119799Y0122915D02*
X0084601Y0122915D01*
X0084601Y0121317D02*
X0119799Y0121317D01*
X0119799Y0119718D02*
X0084601Y0119718D01*
X0084601Y0118120D02*
X0119799Y0118120D01*
X0119799Y0116521D02*
X0084601Y0116521D01*
X0084601Y0114923D02*
X0119799Y0114923D01*
X0119799Y0113324D02*
X0084601Y0113324D01*
X0084601Y0111726D02*
X0119799Y0111726D01*
X0119799Y0110127D02*
X0084601Y0110127D01*
X0084601Y0108529D02*
X0119799Y0108529D01*
X0119799Y0106930D02*
X0084601Y0106930D01*
X0084601Y0105332D02*
X0119799Y0105332D01*
X0119799Y0103733D02*
X0084601Y0103733D01*
X0084601Y0102134D02*
X0119799Y0102134D01*
X0119799Y0100536D02*
X0084601Y0100536D01*
X0084601Y0098937D02*
X0119799Y0098937D01*
X0119799Y0097339D02*
X0084601Y0097339D01*
X0084601Y0095740D02*
X0119799Y0095740D01*
X0119799Y0094142D02*
X0084601Y0094142D01*
X0084601Y0092543D02*
X0119799Y0092543D01*
X0119951Y0090945D02*
X0084477Y0090945D01*
X0083307Y0089346D02*
X0120365Y0089346D01*
X0121019Y0087748D02*
X0081709Y0087748D01*
X0080110Y0086149D02*
X0121959Y0086149D01*
X0138999Y0079755D02*
X0085777Y0079755D01*
X0085032Y0078157D02*
X0130716Y0078157D01*
X0131009Y0078278D02*
X0129547Y0077672D01*
X0128428Y0076553D01*
X0127822Y0075091D01*
X0127822Y0073509D01*
X0128428Y0072047D01*
X0128643Y0071831D01*
X0127731Y0070919D01*
X0127000Y0069155D01*
X0127000Y0054445D01*
X0127731Y0052681D01*
X0129081Y0051331D01*
X0130845Y0050600D01*
X0132755Y0050600D01*
X0134519Y0051331D01*
X0135869Y0052681D01*
X0136600Y0054445D01*
X0136600Y0069155D01*
X0135869Y0070919D01*
X0134957Y0071831D01*
X0135172Y0072047D01*
X0135778Y0073509D01*
X0135778Y0075091D01*
X0135172Y0076553D01*
X0134053Y0077672D01*
X0132591Y0078278D01*
X0131009Y0078278D01*
X0132884Y0078157D02*
X0138999Y0078157D01*
X0138999Y0076558D02*
X0135167Y0076558D01*
X0135778Y0074960D02*
X0138999Y0074960D01*
X0138999Y0073361D02*
X0135717Y0073361D01*
X0135025Y0071763D02*
X0138575Y0071763D01*
X0137418Y0070164D02*
X0136182Y0070164D01*
X0136600Y0068566D02*
X0137000Y0068566D01*
X0137000Y0066967D02*
X0136600Y0066967D01*
X0136600Y0065369D02*
X0137000Y0065369D01*
X0137000Y0063770D02*
X0136600Y0063770D01*
X0136600Y0062172D02*
X0137000Y0062172D01*
X0137000Y0060573D02*
X0136600Y0060573D01*
X0136600Y0058975D02*
X0137000Y0058975D01*
X0137000Y0057376D02*
X0136600Y0057376D01*
X0136600Y0055778D02*
X0137000Y0055778D01*
X0137110Y0054179D02*
X0136490Y0054179D01*
X0135769Y0052581D02*
X0137831Y0052581D01*
X0139923Y0050982D02*
X0133677Y0050982D01*
X0129923Y0050982D02*
X0124143Y0050982D01*
X0124421Y0051124D02*
X0125057Y0051586D01*
X0125614Y0052143D01*
X0126076Y0052779D01*
X0126434Y0053481D01*
X0126677Y0054229D01*
X0126800Y0055006D01*
X0126800Y0061600D01*
X0122000Y0061600D01*
X0122000Y0062000D01*
X0126800Y0062000D01*
X0126800Y0068594D01*
X0126677Y0069371D01*
X0126434Y0070119D01*
X0126076Y0070821D01*
X0125614Y0071457D01*
X0125057Y0072014D01*
X0124421Y0072476D01*
X0123719Y0072834D01*
X0122971Y0073077D01*
X0122194Y0073200D01*
X0122000Y0073200D01*
X0122000Y0062000D01*
X0121600Y0062000D01*
X0121600Y0073200D01*
X0121406Y0073200D01*
X0120629Y0073077D01*
X0119881Y0072834D01*
X0119179Y0072476D01*
X0118543Y0072014D01*
X0117986Y0071457D01*
X0117524Y0070821D01*
X0117166Y0070119D01*
X0116923Y0069371D01*
X0116800Y0068594D01*
X0116800Y0062000D01*
X0121600Y0062000D01*
X0121600Y0061600D01*
X0122000Y0061600D01*
X0122000Y0050400D01*
X0122194Y0050400D01*
X0122971Y0050523D01*
X0123719Y0050766D01*
X0124421Y0051124D01*
X0125932Y0052581D02*
X0127831Y0052581D01*
X0127110Y0054179D02*
X0126661Y0054179D01*
X0126800Y0055778D02*
X0127000Y0055778D01*
X0127000Y0057376D02*
X0126800Y0057376D01*
X0126800Y0058975D02*
X0127000Y0058975D01*
X0127000Y0060573D02*
X0126800Y0060573D01*
X0126800Y0062172D02*
X0127000Y0062172D01*
X0127000Y0063770D02*
X0126800Y0063770D01*
X0126800Y0065369D02*
X0127000Y0065369D01*
X0127000Y0066967D02*
X0126800Y0066967D01*
X0126800Y0068566D02*
X0127000Y0068566D01*
X0127418Y0070164D02*
X0126411Y0070164D01*
X0125308Y0071763D02*
X0128575Y0071763D01*
X0127883Y0073361D02*
X0084600Y0073361D01*
X0084600Y0074960D02*
X0127822Y0074960D01*
X0128433Y0076558D02*
X0084600Y0076558D01*
X0085025Y0071763D02*
X0108575Y0071763D01*
X0109081Y0072269D02*
X0107731Y0070919D01*
X0107000Y0069155D01*
X0107000Y0054445D01*
X0107731Y0052681D01*
X0109081Y0051331D01*
X0110845Y0050600D01*
X0112755Y0050600D01*
X0114519Y0051331D01*
X0115869Y0052681D01*
X0116600Y0054445D01*
X0116600Y0069155D01*
X0115869Y0070919D01*
X0114519Y0072269D01*
X0112755Y0073000D01*
X0110845Y0073000D01*
X0109081Y0072269D01*
X0107418Y0070164D02*
X0086182Y0070164D01*
X0086600Y0068566D02*
X0107000Y0068566D01*
X0107000Y0066967D02*
X0086600Y0066967D01*
X0086600Y0065369D02*
X0107000Y0065369D01*
X0107000Y0063770D02*
X0086600Y0063770D01*
X0086600Y0062172D02*
X0107000Y0062172D01*
X0107000Y0060573D02*
X0086600Y0060573D01*
X0086600Y0058975D02*
X0107000Y0058975D01*
X0107000Y0057376D02*
X0086600Y0057376D01*
X0086600Y0055778D02*
X0107000Y0055778D01*
X0107110Y0054179D02*
X0086490Y0054179D01*
X0085769Y0052581D02*
X0107831Y0052581D01*
X0109923Y0050982D02*
X0083677Y0050982D01*
X0059923Y0050982D02*
X0054143Y0050982D01*
X0054421Y0051124D02*
X0055057Y0051586D01*
X0055614Y0052143D01*
X0056076Y0052779D01*
X0056434Y0053481D01*
X0056677Y0054229D01*
X0056800Y0055006D01*
X0056800Y0061600D01*
X0052000Y0061600D01*
X0052000Y0062000D01*
X0056800Y0062000D01*
X0056800Y0068594D01*
X0056677Y0069371D01*
X0056434Y0070119D01*
X0056076Y0070821D01*
X0055614Y0071457D01*
X0055057Y0072014D01*
X0054421Y0072476D01*
X0053719Y0072834D01*
X0052971Y0073077D01*
X0052194Y0073200D01*
X0052000Y0073200D01*
X0052000Y0062000D01*
X0051600Y0062000D01*
X0051600Y0073200D01*
X0051406Y0073200D01*
X0050629Y0073077D01*
X0049881Y0072834D01*
X0049179Y0072476D01*
X0048543Y0072014D01*
X0047986Y0071457D01*
X0047524Y0070821D01*
X0047166Y0070119D01*
X0046923Y0069371D01*
X0046800Y0068594D01*
X0046800Y0062000D01*
X0051600Y0062000D01*
X0051600Y0061600D01*
X0052000Y0061600D01*
X0052000Y0050400D01*
X0052194Y0050400D01*
X0052971Y0050523D01*
X0053719Y0050766D01*
X0054421Y0051124D01*
X0055932Y0052581D02*
X0057831Y0052581D01*
X0057110Y0054179D02*
X0056661Y0054179D01*
X0056800Y0055778D02*
X0057000Y0055778D01*
X0057000Y0057376D02*
X0056800Y0057376D01*
X0056800Y0058975D02*
X0057000Y0058975D01*
X0057000Y0060573D02*
X0056800Y0060573D01*
X0056800Y0062172D02*
X0057000Y0062172D01*
X0057000Y0063770D02*
X0056800Y0063770D01*
X0056800Y0065369D02*
X0057000Y0065369D01*
X0057000Y0066967D02*
X0056800Y0066967D01*
X0056800Y0068566D02*
X0057000Y0068566D01*
X0057418Y0070164D02*
X0056411Y0070164D01*
X0055308Y0071763D02*
X0058575Y0071763D01*
X0052000Y0071763D02*
X0051600Y0071763D01*
X0051600Y0070164D02*
X0052000Y0070164D01*
X0052000Y0068566D02*
X0051600Y0068566D01*
X0051600Y0066967D02*
X0052000Y0066967D01*
X0052000Y0065369D02*
X0051600Y0065369D01*
X0051600Y0063770D02*
X0052000Y0063770D01*
X0052000Y0062172D02*
X0051600Y0062172D01*
X0051600Y0061600D02*
X0046800Y0061600D01*
X0046800Y0055006D01*
X0046923Y0054229D01*
X0047166Y0053481D01*
X0047524Y0052779D01*
X0047986Y0052143D01*
X0048543Y0051586D01*
X0049179Y0051124D01*
X0049881Y0050766D01*
X0050629Y0050523D01*
X0051406Y0050400D01*
X0051600Y0050400D01*
X0051600Y0061600D01*
X0051600Y0060573D02*
X0052000Y0060573D01*
X0052000Y0058975D02*
X0051600Y0058975D01*
X0051600Y0057376D02*
X0052000Y0057376D01*
X0052000Y0055778D02*
X0051600Y0055778D01*
X0051600Y0054179D02*
X0052000Y0054179D01*
X0052000Y0052581D02*
X0051600Y0052581D01*
X0051600Y0050982D02*
X0052000Y0050982D01*
X0049457Y0050982D02*
X0043677Y0050982D01*
X0045769Y0052581D02*
X0047668Y0052581D01*
X0046939Y0054179D02*
X0046490Y0054179D01*
X0046600Y0055778D02*
X0046800Y0055778D01*
X0046800Y0057376D02*
X0046600Y0057376D01*
X0046600Y0058975D02*
X0046800Y0058975D01*
X0046800Y0060573D02*
X0046600Y0060573D01*
X0046600Y0062172D02*
X0046800Y0062172D01*
X0046800Y0063770D02*
X0046600Y0063770D01*
X0046600Y0065369D02*
X0046800Y0065369D01*
X0046800Y0066967D02*
X0046600Y0066967D01*
X0046600Y0068566D02*
X0046800Y0068566D01*
X0047189Y0070164D02*
X0046182Y0070164D01*
X0045025Y0071763D02*
X0048292Y0071763D01*
X0055185Y0082947D02*
X0055797Y0082652D01*
X0056358Y0082270D01*
X0056525Y0082301D01*
X0056685Y0082224D01*
X0056765Y0082074D01*
X0057414Y0081874D01*
X0058025Y0081579D01*
X0058186Y0081635D01*
X0058356Y0081583D01*
X0058457Y0081446D01*
X0059128Y0081345D01*
X0059777Y0081145D01*
X0059928Y0081224D01*
X0060103Y0081198D01*
X0060224Y0081077D01*
X0060903Y0081077D01*
X0061574Y0080976D01*
X0061711Y0081077D01*
X0061889Y0081077D01*
X0062026Y0080976D01*
X0062697Y0081077D01*
X0063376Y0081077D01*
X0063497Y0081198D01*
X0063672Y0081224D01*
X0063823Y0081145D01*
X0064472Y0081345D01*
X0065143Y0081446D01*
X0065244Y0081583D01*
X0065414Y0081635D01*
X0065575Y0081579D01*
X0066186Y0081874D01*
X0066835Y0082074D01*
X0066915Y0082224D01*
X0067075Y0082301D01*
X0067242Y0082270D01*
X0067803Y0082652D01*
X0068415Y0082947D01*
X0068471Y0083107D01*
X0068618Y0083208D01*
X0068788Y0083201D01*
X0069286Y0083663D01*
X0069847Y0084045D01*
X0069878Y0084213D01*
X0070009Y0084334D01*
X0070178Y0084353D01*
X0070601Y0084884D01*
X0071099Y0085345D01*
X0071105Y0085516D01*
X0071216Y0085655D01*
X0071381Y0085699D01*
X0071720Y0086287D01*
X0072143Y0086817D01*
X0072124Y0086987D01*
X0072213Y0087141D01*
X0072369Y0087209D01*
X0072617Y0087841D01*
X0072957Y0088428D01*
X0072913Y0088593D01*
X0072978Y0088759D01*
X0073122Y0088849D01*
X0073273Y0089511D01*
X0073521Y0090143D01*
X0073453Y0090299D01*
X0073492Y0090472D01*
X0073622Y0090584D01*
X0073672Y0091261D01*
X0073823Y0091922D01*
X0073733Y0092067D01*
X0073740Y0092160D01*
X0073801Y0092221D01*
X0073801Y0092975D01*
X0073857Y0093727D01*
X0073801Y0093792D01*
X0073801Y0132308D01*
X0073857Y0132373D01*
X0073801Y0133125D01*
X0073801Y0133879D01*
X0073740Y0133940D01*
X0073733Y0134033D01*
X0073823Y0134178D01*
X0073672Y0134839D01*
X0073622Y0135516D01*
X0073492Y0135628D01*
X0073453Y0135801D01*
X0073521Y0135957D01*
X0073273Y0136589D01*
X0073122Y0137251D01*
X0072978Y0137341D01*
X0072913Y0137507D01*
X0072957Y0137672D01*
X0072617Y0138259D01*
X0072369Y0138891D01*
X0072213Y0138959D01*
X0072124Y0139113D01*
X0072143Y0139283D01*
X0071720Y0139813D01*
X0071381Y0140401D01*
X0071216Y0140445D01*
X0071105Y0140584D01*
X0071099Y0140755D01*
X0070601Y0141216D01*
X0070178Y0141747D01*
X0070009Y0141766D01*
X0069878Y0141887D01*
X0069847Y0142055D01*
X0069286Y0142437D01*
X0068788Y0142899D01*
X0068618Y0142892D01*
X0068471Y0142992D01*
X0068415Y0143153D01*
X0067803Y0143448D01*
X0067242Y0143830D01*
X0067075Y0143799D01*
X0066915Y0143876D01*
X0066835Y0144026D01*
X0066186Y0144226D01*
X0065575Y0144521D01*
X0065414Y0144465D01*
X0065244Y0144517D01*
X0065143Y0144654D01*
X0064472Y0144755D01*
X0063823Y0144955D01*
X0063672Y0144876D01*
X0063497Y0144902D01*
X0063376Y0145023D01*
X0062697Y0145023D01*
X0062026Y0145124D01*
X0061889Y0145023D01*
X0061711Y0145023D01*
X0061574Y0145124D01*
X0060903Y0145023D01*
X0060224Y0145023D01*
X0060103Y0144902D01*
X0059928Y0144876D01*
X0059777Y0144955D01*
X0059128Y0144755D01*
X0058457Y0144654D01*
X0058356Y0144517D01*
X0058186Y0144465D01*
X0058025Y0144521D01*
X0057414Y0144226D01*
X0056765Y0144026D01*
X0056685Y0143876D01*
X0056525Y0143799D01*
X0056358Y0143830D01*
X0055797Y0143448D01*
X0055185Y0143153D01*
X0055129Y0142992D01*
X0054982Y0142892D01*
X0054812Y0142899D01*
X0054314Y0142437D01*
X0053753Y0142055D01*
X0053722Y0141887D01*
X0053591Y0141766D01*
X0053422Y0141747D01*
X0052999Y0141216D01*
X0052501Y0140755D01*
X0052495Y0140584D01*
X0052384Y0140445D01*
X0052219Y0140401D01*
X0051880Y0139813D01*
X0051457Y0139283D01*
X0051476Y0139113D01*
X0051387Y0138959D01*
X0051231Y0138891D01*
X0050983Y0138259D01*
X0050643Y0137672D01*
X0050687Y0137507D01*
X0050622Y0137341D01*
X0050478Y0137251D01*
X0050327Y0136589D01*
X0050079Y0135957D01*
X0050147Y0135801D01*
X0050108Y0135628D01*
X0049978Y0135516D01*
X0049928Y0134839D01*
X0049777Y0134178D01*
X0049867Y0134033D01*
X0049860Y0133940D01*
X0049799Y0133879D01*
X0049799Y0133125D01*
X0049743Y0132373D01*
X0049799Y0132308D01*
X0049799Y0093792D01*
X0049743Y0093727D01*
X0049799Y0092975D01*
X0049799Y0092221D01*
X0049860Y0092160D01*
X0049867Y0092067D01*
X0049777Y0091922D01*
X0049928Y0091261D01*
X0049978Y0090584D01*
X0050108Y0090472D01*
X0050147Y0090299D01*
X0050079Y0090143D01*
X0050327Y0089511D01*
X0050478Y0088849D01*
X0050622Y0088759D01*
X0050687Y0088593D01*
X0050643Y0088428D01*
X0050983Y0087841D01*
X0051231Y0087209D01*
X0051387Y0087141D01*
X0051476Y0086987D01*
X0051457Y0086817D01*
X0051880Y0086287D01*
X0052219Y0085699D01*
X0052384Y0085655D01*
X0052495Y0085516D01*
X0052501Y0085345D01*
X0052999Y0084884D01*
X0053422Y0084353D01*
X0053591Y0084334D01*
X0053722Y0084213D01*
X0053753Y0084045D01*
X0054314Y0083663D01*
X0054812Y0083201D01*
X0054982Y0083208D01*
X0055129Y0083107D01*
X0055185Y0082947D01*
X0055183Y0082952D02*
X0019899Y0082952D01*
X0019899Y0081354D02*
X0059067Y0081354D01*
X0064533Y0081354D02*
X0068999Y0081354D01*
X0069246Y0082952D02*
X0068417Y0082952D01*
X0070336Y0084551D02*
X0070590Y0084551D01*
X0071641Y0086149D02*
X0072188Y0086149D01*
X0072581Y0087748D02*
X0073787Y0087748D01*
X0073235Y0089346D02*
X0075385Y0089346D01*
X0076984Y0090945D02*
X0073649Y0090945D01*
X0073801Y0092543D02*
X0078583Y0092543D01*
X0078999Y0094142D02*
X0073801Y0094142D01*
X0073801Y0095740D02*
X0078999Y0095740D01*
X0078999Y0097339D02*
X0073801Y0097339D01*
X0073801Y0098937D02*
X0078999Y0098937D01*
X0078999Y0100536D02*
X0073801Y0100536D01*
X0073801Y0102134D02*
X0078999Y0102134D01*
X0078999Y0103733D02*
X0073801Y0103733D01*
X0073801Y0105332D02*
X0078999Y0105332D01*
X0078999Y0106930D02*
X0073801Y0106930D01*
X0073801Y0108529D02*
X0078999Y0108529D01*
X0078999Y0110127D02*
X0073801Y0110127D01*
X0073801Y0111726D02*
X0078999Y0111726D01*
X0078999Y0113324D02*
X0073801Y0113324D01*
X0073801Y0114923D02*
X0078999Y0114923D01*
X0078999Y0116521D02*
X0073801Y0116521D01*
X0073801Y0118120D02*
X0078999Y0118120D01*
X0078999Y0119718D02*
X0073801Y0119718D01*
X0073801Y0121317D02*
X0078999Y0121317D01*
X0078999Y0122915D02*
X0073801Y0122915D01*
X0073801Y0124514D02*
X0078999Y0124514D01*
X0078999Y0126112D02*
X0073801Y0126112D01*
X0073801Y0127711D02*
X0078999Y0127711D01*
X0078999Y0129309D02*
X0073801Y0129309D01*
X0073801Y0130908D02*
X0078999Y0130908D01*
X0078999Y0132506D02*
X0073847Y0132506D01*
X0073777Y0134105D02*
X0078999Y0134105D01*
X0078999Y0135703D02*
X0073475Y0135703D01*
X0073041Y0137302D02*
X0078999Y0137302D01*
X0078999Y0138900D02*
X0072349Y0138900D01*
X0071174Y0140499D02*
X0078999Y0140499D01*
X0078999Y0142097D02*
X0069784Y0142097D01*
X0067439Y0143696D02*
X0078999Y0143696D01*
X0078999Y0145294D02*
X0019899Y0145294D01*
X0019899Y0143696D02*
X0056161Y0143696D01*
X0053816Y0142097D02*
X0019899Y0142097D01*
X0019899Y0140499D02*
X0052426Y0140499D01*
X0051251Y0138900D02*
X0019899Y0138900D01*
X0019899Y0137302D02*
X0050559Y0137302D01*
X0050125Y0135703D02*
X0019899Y0135703D01*
X0019899Y0134105D02*
X0049822Y0134105D01*
X0049753Y0132506D02*
X0019899Y0132506D01*
X0019899Y0130908D02*
X0049799Y0130908D01*
X0049799Y0129309D02*
X0019899Y0129309D01*
X0019899Y0127711D02*
X0049799Y0127711D01*
X0049799Y0126112D02*
X0019899Y0126112D01*
X0019899Y0124514D02*
X0049799Y0124514D01*
X0049799Y0122915D02*
X0019899Y0122915D01*
X0019899Y0121317D02*
X0049799Y0121317D01*
X0049799Y0119718D02*
X0019899Y0119718D01*
X0019899Y0118120D02*
X0049799Y0118120D01*
X0049799Y0116521D02*
X0019899Y0116521D01*
X0019899Y0114923D02*
X0049799Y0114923D01*
X0049799Y0113324D02*
X0019899Y0113324D01*
X0019899Y0111726D02*
X0049799Y0111726D01*
X0049799Y0110127D02*
X0019899Y0110127D01*
X0019899Y0108529D02*
X0049799Y0108529D01*
X0049799Y0106930D02*
X0019899Y0106930D01*
X0019899Y0105332D02*
X0049799Y0105332D01*
X0049799Y0103733D02*
X0019899Y0103733D01*
X0019899Y0102134D02*
X0049799Y0102134D01*
X0049799Y0100536D02*
X0019899Y0100536D01*
X0019899Y0098937D02*
X0049799Y0098937D01*
X0049799Y0097339D02*
X0019899Y0097339D01*
X0019899Y0095740D02*
X0049799Y0095740D01*
X0049799Y0094142D02*
X0019899Y0094142D01*
X0019899Y0092543D02*
X0049799Y0092543D01*
X0049951Y0090945D02*
X0019899Y0090945D01*
X0019899Y0089346D02*
X0050365Y0089346D01*
X0051019Y0087748D02*
X0019899Y0087748D01*
X0019899Y0086149D02*
X0051959Y0086149D01*
X0053264Y0084551D02*
X0019899Y0084551D01*
X0115025Y0071763D02*
X0118292Y0071763D01*
X0117189Y0070164D02*
X0116182Y0070164D01*
X0116600Y0068566D02*
X0116800Y0068566D01*
X0116800Y0066967D02*
X0116600Y0066967D01*
X0116600Y0065369D02*
X0116800Y0065369D01*
X0116800Y0063770D02*
X0116600Y0063770D01*
X0116600Y0062172D02*
X0116800Y0062172D01*
X0116800Y0061600D02*
X0116800Y0055006D01*
X0116923Y0054229D01*
X0117166Y0053481D01*
X0117524Y0052779D01*
X0117986Y0052143D01*
X0118543Y0051586D01*
X0119179Y0051124D01*
X0119881Y0050766D01*
X0120629Y0050523D01*
X0121406Y0050400D01*
X0121600Y0050400D01*
X0121600Y0061600D01*
X0116800Y0061600D01*
X0116800Y0060573D02*
X0116600Y0060573D01*
X0116600Y0058975D02*
X0116800Y0058975D01*
X0116800Y0057376D02*
X0116600Y0057376D01*
X0116600Y0055778D02*
X0116800Y0055778D01*
X0116939Y0054179D02*
X0116490Y0054179D01*
X0115769Y0052581D02*
X0117668Y0052581D01*
X0119457Y0050982D02*
X0113677Y0050982D01*
X0121600Y0050982D02*
X0122000Y0050982D01*
X0122000Y0052581D02*
X0121600Y0052581D01*
X0121600Y0054179D02*
X0122000Y0054179D01*
X0122000Y0055778D02*
X0121600Y0055778D01*
X0121600Y0057376D02*
X0122000Y0057376D01*
X0122000Y0058975D02*
X0121600Y0058975D01*
X0121600Y0060573D02*
X0122000Y0060573D01*
X0122000Y0062172D02*
X0121600Y0062172D01*
X0121600Y0063770D02*
X0122000Y0063770D01*
X0122000Y0065369D02*
X0121600Y0065369D01*
X0121600Y0066967D02*
X0122000Y0066967D01*
X0122000Y0068566D02*
X0121600Y0068566D01*
X0121600Y0070164D02*
X0122000Y0070164D01*
X0122000Y0071763D02*
X0121600Y0071763D01*
X0144601Y0073361D02*
X0148999Y0073361D01*
X0148999Y0072187D02*
X0147731Y0070919D01*
X0147000Y0069155D01*
X0147000Y0054445D01*
X0147731Y0052681D01*
X0149081Y0051331D01*
X0150845Y0050600D01*
X0152755Y0050600D01*
X0154519Y0051331D01*
X0155869Y0052681D01*
X0156600Y0054445D01*
X0156600Y0069155D01*
X0155869Y0070919D01*
X0154601Y0072187D01*
X0154601Y0077725D01*
X0155172Y0078297D01*
X0155778Y0079759D01*
X0155778Y0081341D01*
X0155172Y0082803D01*
X0154053Y0083922D01*
X0152591Y0084528D01*
X0151009Y0084528D01*
X0149547Y0083922D01*
X0148428Y0082803D01*
X0147822Y0081341D01*
X0147822Y0079759D01*
X0148428Y0078297D01*
X0148999Y0077725D01*
X0148999Y0072187D01*
X0148575Y0071763D02*
X0145025Y0071763D01*
X0146182Y0070164D02*
X0147418Y0070164D01*
X0147000Y0068566D02*
X0146600Y0068566D01*
X0146600Y0066967D02*
X0147000Y0066967D01*
X0147000Y0065369D02*
X0146600Y0065369D01*
X0146600Y0063770D02*
X0147000Y0063770D01*
X0147000Y0062172D02*
X0146600Y0062172D01*
X0146600Y0060573D02*
X0147000Y0060573D01*
X0147000Y0058975D02*
X0146600Y0058975D01*
X0146600Y0057376D02*
X0147000Y0057376D01*
X0147000Y0055778D02*
X0146600Y0055778D01*
X0146490Y0054179D02*
X0147110Y0054179D01*
X0147831Y0052581D02*
X0145769Y0052581D01*
X0143677Y0050982D02*
X0149923Y0050982D01*
X0153677Y0050982D02*
X0179923Y0050982D01*
X0179081Y0051331D02*
X0180845Y0050600D01*
X0182755Y0050600D01*
X0184519Y0051331D01*
X0185869Y0052681D01*
X0186600Y0054445D01*
X0186600Y0069155D01*
X0185869Y0070919D01*
X0184519Y0072269D01*
X0182755Y0073000D01*
X0180845Y0073000D01*
X0179081Y0072269D01*
X0177731Y0070919D01*
X0177000Y0069155D01*
X0177000Y0054445D01*
X0177731Y0052681D01*
X0179081Y0051331D01*
X0177831Y0052581D02*
X0155769Y0052581D01*
X0156490Y0054179D02*
X0177110Y0054179D01*
X0177000Y0055778D02*
X0156600Y0055778D01*
X0156600Y0057376D02*
X0177000Y0057376D01*
X0177000Y0058975D02*
X0156600Y0058975D01*
X0156600Y0060573D02*
X0177000Y0060573D01*
X0177000Y0062172D02*
X0156600Y0062172D01*
X0156600Y0063770D02*
X0177000Y0063770D01*
X0177000Y0065369D02*
X0156600Y0065369D01*
X0156600Y0066967D02*
X0177000Y0066967D01*
X0177000Y0068566D02*
X0156600Y0068566D01*
X0156182Y0070164D02*
X0177418Y0070164D01*
X0178575Y0071763D02*
X0155025Y0071763D01*
X0154601Y0073361D02*
X0197883Y0073361D01*
X0197822Y0073509D02*
X0198428Y0072047D01*
X0198643Y0071831D01*
X0197731Y0070919D01*
X0197000Y0069155D01*
X0197000Y0054445D01*
X0197731Y0052681D01*
X0199081Y0051331D01*
X0200845Y0050600D01*
X0202755Y0050600D01*
X0204519Y0051331D01*
X0205869Y0052681D01*
X0206600Y0054445D01*
X0206600Y0069155D01*
X0205869Y0070919D01*
X0204957Y0071831D01*
X0205172Y0072047D01*
X0205778Y0073509D01*
X0205778Y0075091D01*
X0205172Y0076553D01*
X0204053Y0077672D01*
X0202591Y0078278D01*
X0201009Y0078278D01*
X0199547Y0077672D01*
X0198428Y0076553D01*
X0197822Y0075091D01*
X0197822Y0073509D01*
X0197822Y0074960D02*
X0154601Y0074960D01*
X0154601Y0076558D02*
X0198433Y0076558D01*
X0200716Y0078157D02*
X0155032Y0078157D01*
X0155777Y0079755D02*
X0208999Y0079755D01*
X0208999Y0078157D02*
X0202884Y0078157D01*
X0205167Y0076558D02*
X0208999Y0076558D01*
X0208999Y0074960D02*
X0205778Y0074960D01*
X0205717Y0073361D02*
X0208999Y0073361D01*
X0208999Y0072187D02*
X0207731Y0070919D01*
X0207000Y0069155D01*
X0207000Y0054445D01*
X0207731Y0052681D01*
X0209081Y0051331D01*
X0210845Y0050600D01*
X0212755Y0050600D01*
X0214519Y0051331D01*
X0215869Y0052681D01*
X0216600Y0054445D01*
X0216600Y0069155D01*
X0215869Y0070919D01*
X0214601Y0072187D01*
X0214601Y0080640D01*
X0224174Y0090213D01*
X0224601Y0091243D01*
X0224601Y0143975D01*
X0225172Y0144547D01*
X0225778Y0146009D01*
X0225778Y0147591D01*
X0225172Y0149053D01*
X0224053Y0150172D01*
X0222591Y0150778D01*
X0221009Y0150778D01*
X0219547Y0150172D01*
X0218428Y0149053D01*
X0217822Y0147591D01*
X0217822Y0146009D01*
X0218428Y0144547D01*
X0218999Y0143975D01*
X0218999Y0092960D01*
X0210213Y0084174D01*
X0209426Y0083387D01*
X0208999Y0082357D01*
X0208999Y0072187D01*
X0208575Y0071763D02*
X0205025Y0071763D01*
X0206182Y0070164D02*
X0207418Y0070164D01*
X0207000Y0068566D02*
X0206600Y0068566D01*
X0206600Y0066967D02*
X0207000Y0066967D01*
X0207000Y0065369D02*
X0206600Y0065369D01*
X0206600Y0063770D02*
X0207000Y0063770D01*
X0207000Y0062172D02*
X0206600Y0062172D01*
X0206600Y0060573D02*
X0207000Y0060573D01*
X0207000Y0058975D02*
X0206600Y0058975D01*
X0206600Y0057376D02*
X0207000Y0057376D01*
X0207000Y0055778D02*
X0206600Y0055778D01*
X0206490Y0054179D02*
X0207110Y0054179D01*
X0207831Y0052581D02*
X0205769Y0052581D01*
X0203677Y0050982D02*
X0209923Y0050982D01*
X0213677Y0050982D02*
X0219923Y0050982D01*
X0219081Y0051331D02*
X0220845Y0050600D01*
X0222755Y0050600D01*
X0224519Y0051331D01*
X0225869Y0052681D01*
X0226600Y0054445D01*
X0226600Y0069155D01*
X0225869Y0070919D01*
X0224601Y0072187D01*
X0224601Y0077725D01*
X0225172Y0078297D01*
X0225778Y0079759D01*
X0225778Y0081341D01*
X0225172Y0082803D01*
X0224053Y0083922D01*
X0222591Y0084528D01*
X0221009Y0084528D01*
X0219547Y0083922D01*
X0218428Y0082803D01*
X0217822Y0081341D01*
X0217822Y0079759D01*
X0218428Y0078297D01*
X0218999Y0077725D01*
X0218999Y0072187D01*
X0217731Y0070919D01*
X0217000Y0069155D01*
X0217000Y0054445D01*
X0217731Y0052681D01*
X0219081Y0051331D01*
X0217831Y0052581D02*
X0215769Y0052581D01*
X0216490Y0054179D02*
X0217110Y0054179D01*
X0217000Y0055778D02*
X0216600Y0055778D01*
X0216600Y0057376D02*
X0217000Y0057376D01*
X0217000Y0058975D02*
X0216600Y0058975D01*
X0216600Y0060573D02*
X0217000Y0060573D01*
X0217000Y0062172D02*
X0216600Y0062172D01*
X0216600Y0063770D02*
X0217000Y0063770D01*
X0217000Y0065369D02*
X0216600Y0065369D01*
X0216600Y0066967D02*
X0217000Y0066967D01*
X0217000Y0068566D02*
X0216600Y0068566D01*
X0216182Y0070164D02*
X0217418Y0070164D01*
X0218575Y0071763D02*
X0215025Y0071763D01*
X0214601Y0073361D02*
X0218999Y0073361D01*
X0218999Y0074960D02*
X0214601Y0074960D01*
X0214601Y0076558D02*
X0218999Y0076558D01*
X0218567Y0078157D02*
X0214601Y0078157D01*
X0214601Y0079755D02*
X0217823Y0079755D01*
X0217827Y0081354D02*
X0215315Y0081354D01*
X0216913Y0082952D02*
X0218577Y0082952D01*
X0218512Y0084551D02*
X0263264Y0084551D01*
X0263422Y0084353D02*
X0263591Y0084334D01*
X0263722Y0084213D01*
X0263753Y0084045D01*
X0264314Y0083663D01*
X0264812Y0083201D01*
X0264982Y0083208D01*
X0265129Y0083107D01*
X0265185Y0082947D01*
X0265797Y0082652D01*
X0266358Y0082270D01*
X0266525Y0082301D01*
X0266685Y0082224D01*
X0266765Y0082074D01*
X0267414Y0081874D01*
X0268025Y0081579D01*
X0268186Y0081635D01*
X0268356Y0081583D01*
X0268457Y0081446D01*
X0269128Y0081345D01*
X0269777Y0081145D01*
X0269928Y0081224D01*
X0270103Y0081198D01*
X0270224Y0081077D01*
X0270903Y0081077D01*
X0271574Y0080976D01*
X0271711Y0081077D01*
X0271889Y0081077D01*
X0272026Y0080976D01*
X0272697Y0081077D01*
X0273376Y0081077D01*
X0273497Y0081198D01*
X0273672Y0081224D01*
X0273823Y0081145D01*
X0274472Y0081345D01*
X0275143Y0081446D01*
X0275244Y0081583D01*
X0275414Y0081635D01*
X0275575Y0081579D01*
X0276186Y0081874D01*
X0276835Y0082074D01*
X0276915Y0082224D01*
X0277075Y0082301D01*
X0277242Y0082270D01*
X0277803Y0082652D01*
X0278415Y0082947D01*
X0278471Y0083107D01*
X0278618Y0083208D01*
X0278788Y0083201D01*
X0279286Y0083663D01*
X0279847Y0084045D01*
X0279878Y0084213D01*
X0280009Y0084334D01*
X0280178Y0084353D01*
X0280601Y0084884D01*
X0281099Y0085345D01*
X0281105Y0085516D01*
X0281216Y0085655D01*
X0281381Y0085699D01*
X0281720Y0086287D01*
X0282143Y0086817D01*
X0282124Y0086987D01*
X0282213Y0087141D01*
X0282369Y0087209D01*
X0282617Y0087841D01*
X0282957Y0088428D01*
X0282913Y0088593D01*
X0282978Y0088759D01*
X0283122Y0088849D01*
X0283273Y0089511D01*
X0283521Y0090143D01*
X0283453Y0090299D01*
X0283492Y0090472D01*
X0283622Y0090584D01*
X0283672Y0091261D01*
X0283823Y0091922D01*
X0283733Y0092067D01*
X0283740Y0092160D01*
X0283801Y0092221D01*
X0283801Y0092975D01*
X0283857Y0093727D01*
X0283801Y0093792D01*
X0283801Y0132308D01*
X0283857Y0132373D01*
X0283801Y0133125D01*
X0283801Y0133879D01*
X0283740Y0133940D01*
X0283733Y0134033D01*
X0283823Y0134178D01*
X0283672Y0134839D01*
X0283622Y0135516D01*
X0283492Y0135628D01*
X0283453Y0135801D01*
X0283521Y0135957D01*
X0283273Y0136589D01*
X0283122Y0137251D01*
X0282978Y0137341D01*
X0282913Y0137507D01*
X0282957Y0137672D01*
X0282617Y0138259D01*
X0282369Y0138891D01*
X0282213Y0138959D01*
X0282124Y0139113D01*
X0282143Y0139283D01*
X0281720Y0139813D01*
X0281381Y0140401D01*
X0281216Y0140445D01*
X0281105Y0140584D01*
X0281099Y0140755D01*
X0280601Y0141216D01*
X0280178Y0141747D01*
X0280009Y0141766D01*
X0279878Y0141887D01*
X0279847Y0142055D01*
X0279286Y0142437D01*
X0278788Y0142899D01*
X0278618Y0142892D01*
X0278471Y0142992D01*
X0278415Y0143153D01*
X0277803Y0143448D01*
X0277242Y0143830D01*
X0277075Y0143799D01*
X0276915Y0143876D01*
X0276835Y0144026D01*
X0276186Y0144226D01*
X0275575Y0144521D01*
X0275414Y0144465D01*
X0275244Y0144517D01*
X0275143Y0144654D01*
X0274472Y0144755D01*
X0273823Y0144955D01*
X0273672Y0144876D01*
X0273497Y0144902D01*
X0273376Y0145023D01*
X0272697Y0145023D01*
X0272026Y0145124D01*
X0271889Y0145023D01*
X0271711Y0145023D01*
X0271574Y0145124D01*
X0270903Y0145023D01*
X0270224Y0145023D01*
X0270103Y0144902D01*
X0269928Y0144876D01*
X0269777Y0144955D01*
X0269128Y0144755D01*
X0268457Y0144654D01*
X0268356Y0144517D01*
X0268186Y0144465D01*
X0268025Y0144521D01*
X0267414Y0144226D01*
X0266765Y0144026D01*
X0266685Y0143876D01*
X0266525Y0143799D01*
X0266358Y0143830D01*
X0265797Y0143448D01*
X0265185Y0143153D01*
X0265129Y0142992D01*
X0264982Y0142892D01*
X0264812Y0142899D01*
X0264314Y0142437D01*
X0263753Y0142055D01*
X0263722Y0141887D01*
X0263591Y0141766D01*
X0263422Y0141747D01*
X0262999Y0141216D01*
X0262501Y0140755D01*
X0262495Y0140584D01*
X0262384Y0140445D01*
X0262219Y0140401D01*
X0261880Y0139813D01*
X0261457Y0139283D01*
X0261476Y0139113D01*
X0261387Y0138959D01*
X0261231Y0138891D01*
X0260983Y0138259D01*
X0260643Y0137672D01*
X0260687Y0137507D01*
X0260622Y0137341D01*
X0260478Y0137251D01*
X0260327Y0136589D01*
X0260079Y0135957D01*
X0260147Y0135801D01*
X0260108Y0135628D01*
X0259978Y0135516D01*
X0259928Y0134839D01*
X0259777Y0134178D01*
X0259867Y0134033D01*
X0259860Y0133940D01*
X0259799Y0133879D01*
X0259799Y0133125D01*
X0259743Y0132373D01*
X0259799Y0132308D01*
X0259799Y0093792D01*
X0259743Y0093727D01*
X0259799Y0092975D01*
X0259799Y0092221D01*
X0259860Y0092160D01*
X0259867Y0092067D01*
X0259777Y0091922D01*
X0259928Y0091261D01*
X0259978Y0090584D01*
X0260108Y0090472D01*
X0260147Y0090299D01*
X0260079Y0090143D01*
X0260327Y0089511D01*
X0260478Y0088849D01*
X0260622Y0088759D01*
X0260687Y0088593D01*
X0260643Y0088428D01*
X0260983Y0087841D01*
X0261231Y0087209D01*
X0261387Y0087141D01*
X0261476Y0086987D01*
X0261457Y0086817D01*
X0261880Y0086287D01*
X0262219Y0085699D01*
X0262384Y0085655D01*
X0262495Y0085516D01*
X0262501Y0085345D01*
X0262999Y0084884D01*
X0263422Y0084353D01*
X0265183Y0082952D02*
X0225023Y0082952D01*
X0225773Y0081354D02*
X0269067Y0081354D01*
X0274533Y0081354D02*
X0278999Y0081354D01*
X0278999Y0082357D02*
X0278999Y0072187D01*
X0277731Y0070919D01*
X0277000Y0069155D01*
X0277000Y0054445D01*
X0277731Y0052681D01*
X0279081Y0051331D01*
X0280845Y0050600D01*
X0282755Y0050600D01*
X0284519Y0051331D01*
X0285869Y0052681D01*
X0286600Y0054445D01*
X0286600Y0069155D01*
X0285869Y0070919D01*
X0284601Y0072187D01*
X0284601Y0080640D01*
X0291783Y0087822D01*
X0292591Y0087822D01*
X0294053Y0088428D01*
X0295172Y0089547D01*
X0295778Y0091009D01*
X0295778Y0092591D01*
X0295172Y0094053D01*
X0294053Y0095172D01*
X0292591Y0095778D01*
X0291009Y0095778D01*
X0289547Y0095172D01*
X0288428Y0094053D01*
X0287822Y0092591D01*
X0287822Y0091783D01*
X0280213Y0084174D01*
X0279426Y0083387D01*
X0278999Y0082357D01*
X0279246Y0082952D02*
X0278417Y0082952D01*
X0280336Y0084551D02*
X0280590Y0084551D01*
X0281641Y0086149D02*
X0282188Y0086149D01*
X0282581Y0087748D02*
X0283787Y0087748D01*
X0283235Y0089346D02*
X0285385Y0089346D01*
X0286984Y0090945D02*
X0283649Y0090945D01*
X0283801Y0092543D02*
X0287822Y0092543D01*
X0288516Y0094142D02*
X0283801Y0094142D01*
X0283801Y0095740D02*
X0290918Y0095740D01*
X0292682Y0095740D02*
X0376780Y0095740D01*
X0375277Y0094238D02*
X0375052Y0094331D01*
X0373548Y0094331D01*
X0372158Y0093755D01*
X0371095Y0092692D01*
X0370519Y0091302D01*
X0370519Y0089798D01*
X0371095Y0088408D01*
X0372158Y0087345D01*
X0373548Y0086769D01*
X0375052Y0086769D01*
X0376442Y0087345D01*
X0377505Y0088408D01*
X0377602Y0088641D01*
X0388387Y0099426D01*
X0389174Y0100213D01*
X0389601Y0101243D01*
X0389601Y0109390D01*
X0394210Y0113999D01*
X0403642Y0113999D01*
X0403726Y0113798D01*
X0405217Y0112307D01*
X0406440Y0111800D01*
X0405217Y0111293D01*
X0403726Y0109802D01*
X0402919Y0107854D01*
X0402919Y0105746D01*
X0403726Y0103798D01*
X0405217Y0102307D01*
X0406440Y0101800D01*
X0405217Y0101293D01*
X0403726Y0099802D01*
X0402919Y0097854D01*
X0402919Y0095746D01*
X0403726Y0093798D01*
X0405217Y0092307D01*
X0407165Y0091500D01*
X0424073Y0091500D01*
X0426021Y0092307D01*
X0427512Y0093798D01*
X0428319Y0095746D01*
X0428319Y0097854D01*
X0427512Y0099802D01*
X0426021Y0101293D01*
X0424797Y0101800D01*
X0426021Y0102307D01*
X0427512Y0103798D01*
X0428319Y0105746D01*
X0428319Y0107854D01*
X0427512Y0109802D01*
X0426021Y0111293D01*
X0424797Y0111800D01*
X0426021Y0112307D01*
X0427512Y0113798D01*
X0428319Y0115746D01*
X0428319Y0117854D01*
X0427512Y0119802D01*
X0426021Y0121293D01*
X0424797Y0121800D01*
X0426021Y0122307D01*
X0427512Y0123798D01*
X0428319Y0125746D01*
X0428319Y0127854D01*
X0427512Y0129802D01*
X0426021Y0131293D01*
X0424073Y0132100D01*
X0407165Y0132100D01*
X0405217Y0131293D01*
X0403726Y0129802D01*
X0402919Y0127854D01*
X0402919Y0125746D01*
X0403726Y0123798D01*
X0405217Y0122307D01*
X0406440Y0121800D01*
X0405217Y0121293D01*
X0403726Y0119802D01*
X0403642Y0119601D01*
X0392493Y0119601D01*
X0391463Y0119174D01*
X0384426Y0112137D01*
X0383999Y0111107D01*
X0383999Y0102960D01*
X0375277Y0094238D01*
X0373091Y0094142D02*
X0295084Y0094142D01*
X0295778Y0092543D02*
X0371033Y0092543D01*
X0370519Y0090945D02*
X0295752Y0090945D01*
X0294972Y0089346D02*
X0370706Y0089346D01*
X0371755Y0087748D02*
X0291709Y0087748D01*
X0290110Y0086149D02*
X0500000Y0086149D01*
X0500000Y0084551D02*
X0288512Y0084551D01*
X0289547Y0083922D02*
X0288428Y0082803D01*
X0287822Y0081341D01*
X0287822Y0079759D01*
X0288428Y0078297D01*
X0288999Y0077725D01*
X0288999Y0072187D01*
X0287731Y0070919D01*
X0287000Y0069155D01*
X0287000Y0054445D01*
X0287731Y0052681D01*
X0289081Y0051331D01*
X0290845Y0050600D01*
X0292755Y0050600D01*
X0294519Y0051331D01*
X0295869Y0052681D01*
X0296600Y0054445D01*
X0296600Y0069155D01*
X0295869Y0070919D01*
X0294601Y0072187D01*
X0294601Y0077725D01*
X0295172Y0078297D01*
X0295778Y0079759D01*
X0295778Y0081341D01*
X0295172Y0082803D01*
X0294053Y0083922D01*
X0292591Y0084528D01*
X0291009Y0084528D01*
X0289547Y0083922D01*
X0288577Y0082952D02*
X0286913Y0082952D01*
X0287827Y0081354D02*
X0285315Y0081354D01*
X0284601Y0079755D02*
X0287823Y0079755D01*
X0288567Y0078157D02*
X0284601Y0078157D01*
X0284601Y0076558D02*
X0288999Y0076558D01*
X0288999Y0074960D02*
X0284601Y0074960D01*
X0284601Y0073361D02*
X0288999Y0073361D01*
X0288575Y0071763D02*
X0285025Y0071763D01*
X0286182Y0070164D02*
X0287418Y0070164D01*
X0287000Y0068566D02*
X0286600Y0068566D01*
X0286600Y0066967D02*
X0287000Y0066967D01*
X0287000Y0065369D02*
X0286600Y0065369D01*
X0286600Y0063770D02*
X0287000Y0063770D01*
X0287000Y0062172D02*
X0286600Y0062172D01*
X0286600Y0060573D02*
X0287000Y0060573D01*
X0287000Y0058975D02*
X0286600Y0058975D01*
X0286600Y0057376D02*
X0287000Y0057376D01*
X0287000Y0055778D02*
X0286600Y0055778D01*
X0286490Y0054179D02*
X0287110Y0054179D01*
X0287831Y0052581D02*
X0285769Y0052581D01*
X0283677Y0050982D02*
X0289923Y0050982D01*
X0293677Y0050982D02*
X0319923Y0050982D01*
X0319081Y0051331D02*
X0320845Y0050600D01*
X0322755Y0050600D01*
X0324519Y0051331D01*
X0325869Y0052681D01*
X0326600Y0054445D01*
X0326600Y0069155D01*
X0325869Y0070919D01*
X0324519Y0072269D01*
X0322755Y0073000D01*
X0320845Y0073000D01*
X0319081Y0072269D01*
X0317731Y0070919D01*
X0317000Y0069155D01*
X0317000Y0054445D01*
X0317731Y0052681D01*
X0319081Y0051331D01*
X0317831Y0052581D02*
X0295769Y0052581D01*
X0296490Y0054179D02*
X0317110Y0054179D01*
X0317000Y0055778D02*
X0296600Y0055778D01*
X0296600Y0057376D02*
X0317000Y0057376D01*
X0317000Y0058975D02*
X0296600Y0058975D01*
X0296600Y0060573D02*
X0317000Y0060573D01*
X0317000Y0062172D02*
X0296600Y0062172D01*
X0296600Y0063770D02*
X0317000Y0063770D01*
X0317000Y0065369D02*
X0296600Y0065369D01*
X0296600Y0066967D02*
X0317000Y0066967D01*
X0317000Y0068566D02*
X0296600Y0068566D01*
X0296182Y0070164D02*
X0317418Y0070164D01*
X0318575Y0071763D02*
X0295025Y0071763D01*
X0294601Y0073361D02*
X0500000Y0073361D01*
X0500000Y0071763D02*
X0495025Y0071763D01*
X0494519Y0072269D02*
X0495869Y0070919D01*
X0496600Y0069155D01*
X0496600Y0054445D01*
X0495869Y0052681D01*
X0494519Y0051331D01*
X0492755Y0050600D01*
X0490845Y0050600D01*
X0489081Y0051331D01*
X0487731Y0052681D01*
X0487000Y0054445D01*
X0487000Y0069155D01*
X0487731Y0070919D01*
X0489081Y0072269D01*
X0490845Y0073000D01*
X0492755Y0073000D01*
X0494519Y0072269D01*
X0496182Y0070164D02*
X0500000Y0070164D01*
X0500000Y0068566D02*
X0496600Y0068566D01*
X0496600Y0066967D02*
X0500000Y0066967D01*
X0500000Y0065369D02*
X0496600Y0065369D01*
X0496600Y0063770D02*
X0500000Y0063770D01*
X0500000Y0062172D02*
X0496600Y0062172D01*
X0496600Y0060573D02*
X0500000Y0060573D01*
X0500000Y0058975D02*
X0496600Y0058975D01*
X0496600Y0057376D02*
X0500000Y0057376D01*
X0500000Y0055778D02*
X0496600Y0055778D01*
X0496490Y0054179D02*
X0500000Y0054179D01*
X0500000Y0052581D02*
X0495769Y0052581D01*
X0493677Y0050982D02*
X0500000Y0050982D01*
X0500000Y0049384D02*
X0473343Y0049384D01*
X0474492Y0050982D02*
X0479923Y0050982D01*
X0479081Y0051331D02*
X0480845Y0050600D01*
X0482755Y0050600D01*
X0484519Y0051331D01*
X0485869Y0052681D01*
X0486600Y0054445D01*
X0486600Y0069155D01*
X0485869Y0070919D01*
X0484519Y0072269D01*
X0482755Y0073000D01*
X0480845Y0073000D01*
X0479081Y0072269D01*
X0477731Y0070919D01*
X0477000Y0069155D01*
X0477000Y0054445D01*
X0477731Y0052681D01*
X0479081Y0051331D01*
X0477831Y0052581D02*
X0475769Y0052581D01*
X0476490Y0054179D02*
X0477110Y0054179D01*
X0477000Y0055778D02*
X0476600Y0055778D01*
X0476600Y0057376D02*
X0477000Y0057376D01*
X0477000Y0058975D02*
X0476600Y0058975D01*
X0476600Y0060573D02*
X0477000Y0060573D01*
X0477000Y0062172D02*
X0476600Y0062172D01*
X0476600Y0063770D02*
X0477000Y0063770D01*
X0477000Y0065369D02*
X0476600Y0065369D01*
X0476600Y0066967D02*
X0477000Y0066967D01*
X0477000Y0068566D02*
X0476600Y0068566D01*
X0476182Y0070164D02*
X0477418Y0070164D01*
X0478575Y0071763D02*
X0475025Y0071763D01*
X0468575Y0071763D02*
X0465025Y0071763D01*
X0464519Y0072269D02*
X0465869Y0070919D01*
X0466600Y0069155D01*
X0466600Y0054445D01*
X0465869Y0052681D01*
X0464519Y0051331D01*
X0462755Y0050600D01*
X0460845Y0050600D01*
X0459081Y0051331D01*
X0457731Y0052681D01*
X0457000Y0054445D01*
X0457000Y0069155D01*
X0457731Y0070919D01*
X0459081Y0072269D01*
X0460845Y0073000D01*
X0462755Y0073000D01*
X0464519Y0072269D01*
X0466182Y0070164D02*
X0467418Y0070164D01*
X0467000Y0068566D02*
X0466600Y0068566D01*
X0466600Y0066967D02*
X0467000Y0066967D01*
X0467000Y0065369D02*
X0466600Y0065369D01*
X0466600Y0063770D02*
X0467000Y0063770D01*
X0467000Y0062172D02*
X0466600Y0062172D01*
X0466600Y0060573D02*
X0467000Y0060573D01*
X0467000Y0058975D02*
X0466600Y0058975D01*
X0466600Y0057376D02*
X0467000Y0057376D01*
X0467000Y0055778D02*
X0466600Y0055778D01*
X0466490Y0054179D02*
X0467110Y0054179D01*
X0467831Y0052581D02*
X0465769Y0052581D01*
X0467022Y0050982D02*
X0463677Y0050982D01*
X0459923Y0050982D02*
X0453677Y0050982D01*
X0454519Y0051331D02*
X0455869Y0052681D01*
X0456600Y0054445D01*
X0456600Y0069155D01*
X0455869Y0070919D01*
X0454519Y0072269D01*
X0452755Y0073000D01*
X0450845Y0073000D01*
X0449081Y0072269D01*
X0447731Y0070919D01*
X0447000Y0069155D01*
X0447000Y0054445D01*
X0447731Y0052681D01*
X0449081Y0051331D01*
X0450845Y0050600D01*
X0452755Y0050600D01*
X0454519Y0051331D01*
X0455769Y0052581D02*
X0457831Y0052581D01*
X0457110Y0054179D02*
X0456490Y0054179D01*
X0456600Y0055778D02*
X0457000Y0055778D01*
X0457000Y0057376D02*
X0456600Y0057376D01*
X0456600Y0058975D02*
X0457000Y0058975D01*
X0457000Y0060573D02*
X0456600Y0060573D01*
X0456600Y0062172D02*
X0457000Y0062172D01*
X0457000Y0063770D02*
X0456600Y0063770D01*
X0456600Y0065369D02*
X0457000Y0065369D01*
X0457000Y0066967D02*
X0456600Y0066967D01*
X0456600Y0068566D02*
X0457000Y0068566D01*
X0457418Y0070164D02*
X0456182Y0070164D01*
X0455025Y0071763D02*
X0458575Y0071763D01*
X0448575Y0071763D02*
X0445308Y0071763D01*
X0445057Y0072014D02*
X0445614Y0071457D01*
X0446076Y0070821D01*
X0446434Y0070119D01*
X0446677Y0069371D01*
X0446800Y0068594D01*
X0446800Y0062000D01*
X0442000Y0062000D01*
X0442000Y0061600D01*
X0446800Y0061600D01*
X0446800Y0055006D01*
X0446677Y0054229D01*
X0446434Y0053481D01*
X0446076Y0052779D01*
X0445614Y0052143D01*
X0445057Y0051586D01*
X0444421Y0051124D01*
X0443719Y0050766D01*
X0442971Y0050523D01*
X0442194Y0050400D01*
X0442000Y0050400D01*
X0442000Y0061600D01*
X0441600Y0061600D01*
X0441600Y0050400D01*
X0441406Y0050400D01*
X0440629Y0050523D01*
X0439881Y0050766D01*
X0439179Y0051124D01*
X0438543Y0051586D01*
X0437986Y0052143D01*
X0437524Y0052779D01*
X0437166Y0053481D01*
X0436923Y0054229D01*
X0436800Y0055006D01*
X0436800Y0061600D01*
X0441600Y0061600D01*
X0441600Y0062000D01*
X0441600Y0073200D01*
X0441406Y0073200D01*
X0440629Y0073077D01*
X0439881Y0072834D01*
X0439179Y0072476D01*
X0438543Y0072014D01*
X0437986Y0071457D01*
X0437524Y0070821D01*
X0437166Y0070119D01*
X0436923Y0069371D01*
X0436800Y0068594D01*
X0436800Y0062000D01*
X0441600Y0062000D01*
X0442000Y0062000D01*
X0442000Y0073200D01*
X0442194Y0073200D01*
X0442971Y0073077D01*
X0443719Y0072834D01*
X0444421Y0072476D01*
X0445057Y0072014D01*
X0446411Y0070164D02*
X0447418Y0070164D01*
X0447000Y0068566D02*
X0446800Y0068566D01*
X0446800Y0066967D02*
X0447000Y0066967D01*
X0447000Y0065369D02*
X0446800Y0065369D01*
X0446800Y0063770D02*
X0447000Y0063770D01*
X0447000Y0062172D02*
X0446800Y0062172D01*
X0446800Y0060573D02*
X0447000Y0060573D01*
X0447000Y0058975D02*
X0446800Y0058975D01*
X0446800Y0057376D02*
X0447000Y0057376D01*
X0447000Y0055778D02*
X0446800Y0055778D01*
X0446661Y0054179D02*
X0447110Y0054179D01*
X0447831Y0052581D02*
X0445932Y0052581D01*
X0444143Y0050982D02*
X0449923Y0050982D01*
X0442000Y0050982D02*
X0441600Y0050982D01*
X0441600Y0052581D02*
X0442000Y0052581D01*
X0442000Y0054179D02*
X0441600Y0054179D01*
X0441600Y0055778D02*
X0442000Y0055778D01*
X0442000Y0057376D02*
X0441600Y0057376D01*
X0441600Y0058975D02*
X0442000Y0058975D01*
X0442000Y0060573D02*
X0441600Y0060573D01*
X0441600Y0062172D02*
X0442000Y0062172D01*
X0442000Y0063770D02*
X0441600Y0063770D01*
X0441600Y0065369D02*
X0442000Y0065369D01*
X0442000Y0066967D02*
X0441600Y0066967D01*
X0441600Y0068566D02*
X0442000Y0068566D01*
X0442000Y0070164D02*
X0441600Y0070164D01*
X0441600Y0071763D02*
X0442000Y0071763D01*
X0438292Y0071763D02*
X0415025Y0071763D01*
X0416182Y0070164D02*
X0437189Y0070164D01*
X0436800Y0068566D02*
X0416600Y0068566D01*
X0416600Y0066967D02*
X0436800Y0066967D01*
X0436800Y0065369D02*
X0416600Y0065369D01*
X0416600Y0063770D02*
X0436800Y0063770D01*
X0436800Y0062172D02*
X0416600Y0062172D01*
X0416600Y0060573D02*
X0436800Y0060573D01*
X0436800Y0058975D02*
X0416600Y0058975D01*
X0416600Y0057376D02*
X0436800Y0057376D01*
X0436800Y0055778D02*
X0416600Y0055778D01*
X0416490Y0054179D02*
X0436939Y0054179D01*
X0437668Y0052581D02*
X0415769Y0052581D01*
X0416578Y0050982D02*
X0439457Y0050982D01*
X0409108Y0050982D02*
X0403677Y0050982D01*
X0404519Y0051331D02*
X0405869Y0052681D01*
X0406600Y0054445D01*
X0406600Y0069155D01*
X0405869Y0070919D01*
X0404519Y0072269D01*
X0402755Y0073000D01*
X0400845Y0073000D01*
X0399081Y0072269D01*
X0397731Y0070919D01*
X0397000Y0069155D01*
X0397000Y0054445D01*
X0397731Y0052681D01*
X0399081Y0051331D01*
X0400845Y0050600D01*
X0402755Y0050600D01*
X0404519Y0051331D01*
X0405769Y0052581D02*
X0407831Y0052581D01*
X0407110Y0054179D02*
X0406490Y0054179D01*
X0406600Y0055778D02*
X0407000Y0055778D01*
X0407000Y0057376D02*
X0406600Y0057376D01*
X0406600Y0058975D02*
X0407000Y0058975D01*
X0407000Y0060573D02*
X0406600Y0060573D01*
X0406600Y0062172D02*
X0407000Y0062172D01*
X0407000Y0063770D02*
X0406600Y0063770D01*
X0406600Y0065369D02*
X0407000Y0065369D01*
X0407000Y0066967D02*
X0406600Y0066967D01*
X0406600Y0068566D02*
X0407000Y0068566D01*
X0407418Y0070164D02*
X0406182Y0070164D01*
X0405025Y0071763D02*
X0408575Y0071763D01*
X0398575Y0071763D02*
X0395025Y0071763D01*
X0394519Y0072269D02*
X0395869Y0070919D01*
X0396600Y0069155D01*
X0396600Y0054445D01*
X0395869Y0052681D01*
X0394519Y0051331D01*
X0392755Y0050600D01*
X0390845Y0050600D01*
X0389081Y0051331D01*
X0387731Y0052681D01*
X0387000Y0054445D01*
X0387000Y0069155D01*
X0387731Y0070919D01*
X0389081Y0072269D01*
X0390845Y0073000D01*
X0392755Y0073000D01*
X0394519Y0072269D01*
X0396182Y0070164D02*
X0397418Y0070164D01*
X0397000Y0068566D02*
X0396600Y0068566D01*
X0396600Y0066967D02*
X0397000Y0066967D01*
X0397000Y0065369D02*
X0396600Y0065369D01*
X0396600Y0063770D02*
X0397000Y0063770D01*
X0397000Y0062172D02*
X0396600Y0062172D01*
X0396600Y0060573D02*
X0397000Y0060573D01*
X0397000Y0058975D02*
X0396600Y0058975D01*
X0396600Y0057376D02*
X0397000Y0057376D01*
X0397000Y0055778D02*
X0396600Y0055778D01*
X0396490Y0054179D02*
X0397110Y0054179D01*
X0397831Y0052581D02*
X0395769Y0052581D01*
X0393677Y0050982D02*
X0399923Y0050982D01*
X0389923Y0050982D02*
X0383677Y0050982D01*
X0384519Y0051331D02*
X0385869Y0052681D01*
X0386600Y0054445D01*
X0386600Y0069155D01*
X0385869Y0070919D01*
X0384519Y0072269D01*
X0382755Y0073000D01*
X0380845Y0073000D01*
X0379081Y0072269D01*
X0377731Y0070919D01*
X0377000Y0069155D01*
X0377000Y0054445D01*
X0377731Y0052681D01*
X0379081Y0051331D01*
X0380845Y0050600D01*
X0382755Y0050600D01*
X0384519Y0051331D01*
X0385769Y0052581D02*
X0387831Y0052581D01*
X0387110Y0054179D02*
X0386490Y0054179D01*
X0386600Y0055778D02*
X0387000Y0055778D01*
X0387000Y0057376D02*
X0386600Y0057376D01*
X0386600Y0058975D02*
X0387000Y0058975D01*
X0387000Y0060573D02*
X0386600Y0060573D01*
X0386600Y0062172D02*
X0387000Y0062172D01*
X0387000Y0063770D02*
X0386600Y0063770D01*
X0386600Y0065369D02*
X0387000Y0065369D01*
X0387000Y0066967D02*
X0386600Y0066967D01*
X0386600Y0068566D02*
X0387000Y0068566D01*
X0387418Y0070164D02*
X0386182Y0070164D01*
X0385025Y0071763D02*
X0388575Y0071763D01*
X0378575Y0071763D02*
X0375025Y0071763D01*
X0374519Y0072269D02*
X0375869Y0070919D01*
X0376600Y0069155D01*
X0376600Y0054445D01*
X0375869Y0052681D01*
X0374519Y0051331D01*
X0372755Y0050600D01*
X0370845Y0050600D01*
X0369081Y0051331D01*
X0367731Y0052681D01*
X0367000Y0054445D01*
X0367000Y0069155D01*
X0367731Y0070919D01*
X0369081Y0072269D01*
X0370845Y0073000D01*
X0372755Y0073000D01*
X0374519Y0072269D01*
X0376182Y0070164D02*
X0377418Y0070164D01*
X0377000Y0068566D02*
X0376600Y0068566D01*
X0376600Y0066967D02*
X0377000Y0066967D01*
X0377000Y0065369D02*
X0376600Y0065369D01*
X0376600Y0063770D02*
X0377000Y0063770D01*
X0377000Y0062172D02*
X0376600Y0062172D01*
X0376600Y0060573D02*
X0377000Y0060573D01*
X0377000Y0058975D02*
X0376600Y0058975D01*
X0376600Y0057376D02*
X0377000Y0057376D01*
X0377000Y0055778D02*
X0376600Y0055778D01*
X0376490Y0054179D02*
X0377110Y0054179D01*
X0377831Y0052581D02*
X0375769Y0052581D01*
X0373677Y0050982D02*
X0379923Y0050982D01*
X0369923Y0050982D02*
X0363677Y0050982D01*
X0364519Y0051331D02*
X0365869Y0052681D01*
X0366600Y0054445D01*
X0366600Y0069155D01*
X0365869Y0070919D01*
X0364519Y0072269D01*
X0362755Y0073000D01*
X0360845Y0073000D01*
X0359081Y0072269D01*
X0357731Y0070919D01*
X0357000Y0069155D01*
X0357000Y0054445D01*
X0357731Y0052681D01*
X0359081Y0051331D01*
X0360845Y0050600D01*
X0362755Y0050600D01*
X0364519Y0051331D01*
X0365769Y0052581D02*
X0367831Y0052581D01*
X0367110Y0054179D02*
X0366490Y0054179D01*
X0366600Y0055778D02*
X0367000Y0055778D01*
X0367000Y0057376D02*
X0366600Y0057376D01*
X0366600Y0058975D02*
X0367000Y0058975D01*
X0367000Y0060573D02*
X0366600Y0060573D01*
X0366600Y0062172D02*
X0367000Y0062172D01*
X0367000Y0063770D02*
X0366600Y0063770D01*
X0366600Y0065369D02*
X0367000Y0065369D01*
X0367000Y0066967D02*
X0366600Y0066967D01*
X0366600Y0068566D02*
X0367000Y0068566D01*
X0367418Y0070164D02*
X0366182Y0070164D01*
X0365025Y0071763D02*
X0368575Y0071763D01*
X0358575Y0071763D02*
X0355025Y0071763D01*
X0354519Y0072269D02*
X0355869Y0070919D01*
X0356600Y0069155D01*
X0356600Y0054445D01*
X0355869Y0052681D01*
X0354519Y0051331D01*
X0352755Y0050600D01*
X0350845Y0050600D01*
X0349081Y0051331D01*
X0347731Y0052681D01*
X0347000Y0054445D01*
X0347000Y0069155D01*
X0347731Y0070919D01*
X0349081Y0072269D01*
X0350845Y0073000D01*
X0352755Y0073000D01*
X0354519Y0072269D01*
X0356182Y0070164D02*
X0357418Y0070164D01*
X0357000Y0068566D02*
X0356600Y0068566D01*
X0356600Y0066967D02*
X0357000Y0066967D01*
X0357000Y0065369D02*
X0356600Y0065369D01*
X0356600Y0063770D02*
X0357000Y0063770D01*
X0357000Y0062172D02*
X0356600Y0062172D01*
X0356600Y0060573D02*
X0357000Y0060573D01*
X0357000Y0058975D02*
X0356600Y0058975D01*
X0356600Y0057376D02*
X0357000Y0057376D01*
X0357000Y0055778D02*
X0356600Y0055778D01*
X0356490Y0054179D02*
X0357110Y0054179D01*
X0357831Y0052581D02*
X0355769Y0052581D01*
X0353677Y0050982D02*
X0359923Y0050982D01*
X0349923Y0050982D02*
X0343677Y0050982D01*
X0344519Y0051331D02*
X0345869Y0052681D01*
X0346600Y0054445D01*
X0346600Y0069155D01*
X0345869Y0070919D01*
X0344519Y0072269D01*
X0342755Y0073000D01*
X0340845Y0073000D01*
X0339081Y0072269D01*
X0337731Y0070919D01*
X0337000Y0069155D01*
X0337000Y0054445D01*
X0337731Y0052681D01*
X0339081Y0051331D01*
X0340845Y0050600D01*
X0342755Y0050600D01*
X0344519Y0051331D01*
X0345769Y0052581D02*
X0347831Y0052581D01*
X0347110Y0054179D02*
X0346490Y0054179D01*
X0346600Y0055778D02*
X0347000Y0055778D01*
X0347000Y0057376D02*
X0346600Y0057376D01*
X0346600Y0058975D02*
X0347000Y0058975D01*
X0347000Y0060573D02*
X0346600Y0060573D01*
X0346600Y0062172D02*
X0347000Y0062172D01*
X0347000Y0063770D02*
X0346600Y0063770D01*
X0346600Y0065369D02*
X0347000Y0065369D01*
X0347000Y0066967D02*
X0346600Y0066967D01*
X0346600Y0068566D02*
X0347000Y0068566D01*
X0347418Y0070164D02*
X0346182Y0070164D01*
X0345025Y0071763D02*
X0348575Y0071763D01*
X0338575Y0071763D02*
X0335308Y0071763D01*
X0335057Y0072014D02*
X0335614Y0071457D01*
X0336076Y0070821D01*
X0336434Y0070119D01*
X0336677Y0069371D01*
X0336800Y0068594D01*
X0336800Y0062000D01*
X0332000Y0062000D01*
X0332000Y0061600D01*
X0336800Y0061600D01*
X0336800Y0055006D01*
X0336677Y0054229D01*
X0336434Y0053481D01*
X0336076Y0052779D01*
X0335614Y0052143D01*
X0335057Y0051586D01*
X0334421Y0051124D01*
X0333719Y0050766D01*
X0332971Y0050523D01*
X0332194Y0050400D01*
X0332000Y0050400D01*
X0332000Y0061600D01*
X0331600Y0061600D01*
X0331600Y0050400D01*
X0331406Y0050400D01*
X0330629Y0050523D01*
X0329881Y0050766D01*
X0329179Y0051124D01*
X0328543Y0051586D01*
X0327986Y0052143D01*
X0327524Y0052779D01*
X0327166Y0053481D01*
X0326923Y0054229D01*
X0326800Y0055006D01*
X0326800Y0061600D01*
X0331600Y0061600D01*
X0331600Y0062000D01*
X0331600Y0073200D01*
X0331406Y0073200D01*
X0330629Y0073077D01*
X0329881Y0072834D01*
X0329179Y0072476D01*
X0328543Y0072014D01*
X0327986Y0071457D01*
X0327524Y0070821D01*
X0327166Y0070119D01*
X0326923Y0069371D01*
X0326800Y0068594D01*
X0326800Y0062000D01*
X0331600Y0062000D01*
X0332000Y0062000D01*
X0332000Y0073200D01*
X0332194Y0073200D01*
X0332971Y0073077D01*
X0333719Y0072834D01*
X0334421Y0072476D01*
X0335057Y0072014D01*
X0336411Y0070164D02*
X0337418Y0070164D01*
X0337000Y0068566D02*
X0336800Y0068566D01*
X0336800Y0066967D02*
X0337000Y0066967D01*
X0337000Y0065369D02*
X0336800Y0065369D01*
X0336800Y0063770D02*
X0337000Y0063770D01*
X0337000Y0062172D02*
X0336800Y0062172D01*
X0336800Y0060573D02*
X0337000Y0060573D01*
X0337000Y0058975D02*
X0336800Y0058975D01*
X0336800Y0057376D02*
X0337000Y0057376D01*
X0337000Y0055778D02*
X0336800Y0055778D01*
X0336661Y0054179D02*
X0337110Y0054179D01*
X0337831Y0052581D02*
X0335932Y0052581D01*
X0334143Y0050982D02*
X0339923Y0050982D01*
X0332000Y0050982D02*
X0331600Y0050982D01*
X0331600Y0052581D02*
X0332000Y0052581D01*
X0332000Y0054179D02*
X0331600Y0054179D01*
X0331600Y0055778D02*
X0332000Y0055778D01*
X0332000Y0057376D02*
X0331600Y0057376D01*
X0331600Y0058975D02*
X0332000Y0058975D01*
X0332000Y0060573D02*
X0331600Y0060573D01*
X0331600Y0062172D02*
X0332000Y0062172D01*
X0332000Y0063770D02*
X0331600Y0063770D01*
X0331600Y0065369D02*
X0332000Y0065369D01*
X0332000Y0066967D02*
X0331600Y0066967D01*
X0331600Y0068566D02*
X0332000Y0068566D01*
X0332000Y0070164D02*
X0331600Y0070164D01*
X0331600Y0071763D02*
X0332000Y0071763D01*
X0328292Y0071763D02*
X0325025Y0071763D01*
X0326182Y0070164D02*
X0327189Y0070164D01*
X0326800Y0068566D02*
X0326600Y0068566D01*
X0326600Y0066967D02*
X0326800Y0066967D01*
X0326800Y0065369D02*
X0326600Y0065369D01*
X0326600Y0063770D02*
X0326800Y0063770D01*
X0326800Y0062172D02*
X0326600Y0062172D01*
X0326600Y0060573D02*
X0326800Y0060573D01*
X0326800Y0058975D02*
X0326600Y0058975D01*
X0326600Y0057376D02*
X0326800Y0057376D01*
X0326800Y0055778D02*
X0326600Y0055778D01*
X0326490Y0054179D02*
X0326939Y0054179D01*
X0327668Y0052581D02*
X0325769Y0052581D01*
X0323677Y0050982D02*
X0329457Y0050982D01*
X0279923Y0050982D02*
X0273677Y0050982D01*
X0274519Y0051331D02*
X0275869Y0052681D01*
X0276600Y0054445D01*
X0276600Y0069155D01*
X0275869Y0070919D01*
X0274957Y0071831D01*
X0275172Y0072047D01*
X0275778Y0073509D01*
X0275778Y0075091D01*
X0275172Y0076553D01*
X0274053Y0077672D01*
X0272591Y0078278D01*
X0271009Y0078278D01*
X0269547Y0077672D01*
X0268428Y0076553D01*
X0267822Y0075091D01*
X0267822Y0073509D01*
X0268428Y0072047D01*
X0268643Y0071831D01*
X0267731Y0070919D01*
X0267000Y0069155D01*
X0267000Y0054445D01*
X0267731Y0052681D01*
X0269081Y0051331D01*
X0270845Y0050600D01*
X0272755Y0050600D01*
X0274519Y0051331D01*
X0275769Y0052581D02*
X0277831Y0052581D01*
X0277110Y0054179D02*
X0276490Y0054179D01*
X0276600Y0055778D02*
X0277000Y0055778D01*
X0277000Y0057376D02*
X0276600Y0057376D01*
X0276600Y0058975D02*
X0277000Y0058975D01*
X0277000Y0060573D02*
X0276600Y0060573D01*
X0276600Y0062172D02*
X0277000Y0062172D01*
X0277000Y0063770D02*
X0276600Y0063770D01*
X0276600Y0065369D02*
X0277000Y0065369D01*
X0277000Y0066967D02*
X0276600Y0066967D01*
X0276600Y0068566D02*
X0277000Y0068566D01*
X0277418Y0070164D02*
X0276182Y0070164D01*
X0275025Y0071763D02*
X0278575Y0071763D01*
X0278999Y0073361D02*
X0275717Y0073361D01*
X0275778Y0074960D02*
X0278999Y0074960D01*
X0278999Y0076558D02*
X0275167Y0076558D01*
X0272884Y0078157D02*
X0278999Y0078157D01*
X0278999Y0079755D02*
X0225777Y0079755D01*
X0225032Y0078157D02*
X0270716Y0078157D01*
X0268433Y0076558D02*
X0224601Y0076558D01*
X0224601Y0074960D02*
X0267822Y0074960D01*
X0267883Y0073361D02*
X0224601Y0073361D01*
X0225025Y0071763D02*
X0248575Y0071763D01*
X0249081Y0072269D02*
X0247731Y0070919D01*
X0247000Y0069155D01*
X0247000Y0054445D01*
X0247731Y0052681D01*
X0249081Y0051331D01*
X0250845Y0050600D01*
X0252755Y0050600D01*
X0254519Y0051331D01*
X0255869Y0052681D01*
X0256600Y0054445D01*
X0256600Y0069155D01*
X0255869Y0070919D01*
X0254519Y0072269D01*
X0252755Y0073000D01*
X0250845Y0073000D01*
X0249081Y0072269D01*
X0247418Y0070164D02*
X0226182Y0070164D01*
X0226600Y0068566D02*
X0247000Y0068566D01*
X0247000Y0066967D02*
X0226600Y0066967D01*
X0226600Y0065369D02*
X0247000Y0065369D01*
X0247000Y0063770D02*
X0226600Y0063770D01*
X0226600Y0062172D02*
X0247000Y0062172D01*
X0247000Y0060573D02*
X0226600Y0060573D01*
X0226600Y0058975D02*
X0247000Y0058975D01*
X0247000Y0057376D02*
X0226600Y0057376D01*
X0226600Y0055778D02*
X0247000Y0055778D01*
X0247110Y0054179D02*
X0226490Y0054179D01*
X0225769Y0052581D02*
X0247831Y0052581D01*
X0249923Y0050982D02*
X0223677Y0050982D01*
X0199923Y0050982D02*
X0194143Y0050982D01*
X0194421Y0051124D02*
X0195057Y0051586D01*
X0195614Y0052143D01*
X0196076Y0052779D01*
X0196434Y0053481D01*
X0196677Y0054229D01*
X0196800Y0055006D01*
X0196800Y0061600D01*
X0192000Y0061600D01*
X0192000Y0062000D01*
X0196800Y0062000D01*
X0196800Y0068594D01*
X0196677Y0069371D01*
X0196434Y0070119D01*
X0196076Y0070821D01*
X0195614Y0071457D01*
X0195057Y0072014D01*
X0194421Y0072476D01*
X0193719Y0072834D01*
X0192971Y0073077D01*
X0192194Y0073200D01*
X0192000Y0073200D01*
X0192000Y0062000D01*
X0191600Y0062000D01*
X0191600Y0073200D01*
X0191406Y0073200D01*
X0190629Y0073077D01*
X0189881Y0072834D01*
X0189179Y0072476D01*
X0188543Y0072014D01*
X0187986Y0071457D01*
X0187524Y0070821D01*
X0187166Y0070119D01*
X0186923Y0069371D01*
X0186800Y0068594D01*
X0186800Y0062000D01*
X0191600Y0062000D01*
X0191600Y0061600D01*
X0192000Y0061600D01*
X0192000Y0050400D01*
X0192194Y0050400D01*
X0192971Y0050523D01*
X0193719Y0050766D01*
X0194421Y0051124D01*
X0195932Y0052581D02*
X0197831Y0052581D01*
X0197110Y0054179D02*
X0196661Y0054179D01*
X0196800Y0055778D02*
X0197000Y0055778D01*
X0197000Y0057376D02*
X0196800Y0057376D01*
X0196800Y0058975D02*
X0197000Y0058975D01*
X0197000Y0060573D02*
X0196800Y0060573D01*
X0196800Y0062172D02*
X0197000Y0062172D01*
X0197000Y0063770D02*
X0196800Y0063770D01*
X0196800Y0065369D02*
X0197000Y0065369D01*
X0197000Y0066967D02*
X0196800Y0066967D01*
X0196800Y0068566D02*
X0197000Y0068566D01*
X0197418Y0070164D02*
X0196411Y0070164D01*
X0195308Y0071763D02*
X0198575Y0071763D01*
X0192000Y0071763D02*
X0191600Y0071763D01*
X0191600Y0070164D02*
X0192000Y0070164D01*
X0192000Y0068566D02*
X0191600Y0068566D01*
X0191600Y0066967D02*
X0192000Y0066967D01*
X0192000Y0065369D02*
X0191600Y0065369D01*
X0191600Y0063770D02*
X0192000Y0063770D01*
X0192000Y0062172D02*
X0191600Y0062172D01*
X0191600Y0061600D02*
X0186800Y0061600D01*
X0186800Y0055006D01*
X0186923Y0054229D01*
X0187166Y0053481D01*
X0187524Y0052779D01*
X0187986Y0052143D01*
X0188543Y0051586D01*
X0189179Y0051124D01*
X0189881Y0050766D01*
X0190629Y0050523D01*
X0191406Y0050400D01*
X0191600Y0050400D01*
X0191600Y0061600D01*
X0191600Y0060573D02*
X0192000Y0060573D01*
X0192000Y0058975D02*
X0191600Y0058975D01*
X0191600Y0057376D02*
X0192000Y0057376D01*
X0192000Y0055778D02*
X0191600Y0055778D01*
X0191600Y0054179D02*
X0192000Y0054179D01*
X0192000Y0052581D02*
X0191600Y0052581D01*
X0191600Y0050982D02*
X0192000Y0050982D01*
X0189457Y0050982D02*
X0183677Y0050982D01*
X0185769Y0052581D02*
X0187668Y0052581D01*
X0186939Y0054179D02*
X0186490Y0054179D01*
X0186600Y0055778D02*
X0186800Y0055778D01*
X0186800Y0057376D02*
X0186600Y0057376D01*
X0186600Y0058975D02*
X0186800Y0058975D01*
X0186800Y0060573D02*
X0186600Y0060573D01*
X0186600Y0062172D02*
X0186800Y0062172D01*
X0186800Y0063770D02*
X0186600Y0063770D01*
X0186600Y0065369D02*
X0186800Y0065369D01*
X0186800Y0066967D02*
X0186600Y0066967D01*
X0186600Y0068566D02*
X0186800Y0068566D01*
X0187189Y0070164D02*
X0186182Y0070164D01*
X0185025Y0071763D02*
X0188292Y0071763D01*
X0195185Y0082947D02*
X0195797Y0082652D01*
X0196358Y0082270D01*
X0196525Y0082301D01*
X0196685Y0082224D01*
X0196765Y0082074D01*
X0197414Y0081874D01*
X0198025Y0081579D01*
X0198186Y0081635D01*
X0198356Y0081583D01*
X0198457Y0081446D01*
X0199128Y0081345D01*
X0199777Y0081145D01*
X0199928Y0081224D01*
X0200103Y0081198D01*
X0200224Y0081077D01*
X0200903Y0081077D01*
X0201574Y0080976D01*
X0201711Y0081077D01*
X0201889Y0081077D01*
X0202026Y0080976D01*
X0202697Y0081077D01*
X0203376Y0081077D01*
X0203497Y0081198D01*
X0203672Y0081224D01*
X0203823Y0081145D01*
X0204472Y0081345D01*
X0205143Y0081446D01*
X0205244Y0081583D01*
X0205414Y0081635D01*
X0205575Y0081579D01*
X0206186Y0081874D01*
X0206835Y0082074D01*
X0206915Y0082224D01*
X0207075Y0082301D01*
X0207242Y0082270D01*
X0207803Y0082652D01*
X0208415Y0082947D01*
X0208471Y0083107D01*
X0208618Y0083208D01*
X0208788Y0083201D01*
X0209286Y0083663D01*
X0209847Y0084045D01*
X0209878Y0084213D01*
X0210009Y0084334D01*
X0210178Y0084353D01*
X0210601Y0084884D01*
X0211099Y0085345D01*
X0211105Y0085516D01*
X0211216Y0085655D01*
X0211381Y0085699D01*
X0211720Y0086287D01*
X0212143Y0086817D01*
X0212124Y0086987D01*
X0212213Y0087141D01*
X0212369Y0087209D01*
X0212617Y0087841D01*
X0212957Y0088428D01*
X0212913Y0088593D01*
X0212978Y0088759D01*
X0213122Y0088849D01*
X0213273Y0089511D01*
X0213521Y0090143D01*
X0213453Y0090299D01*
X0213492Y0090472D01*
X0213622Y0090584D01*
X0213672Y0091261D01*
X0213823Y0091922D01*
X0213733Y0092067D01*
X0213740Y0092160D01*
X0213801Y0092221D01*
X0213801Y0092975D01*
X0213857Y0093727D01*
X0213801Y0093792D01*
X0213801Y0132308D01*
X0213857Y0132373D01*
X0213801Y0133125D01*
X0213801Y0133879D01*
X0213740Y0133940D01*
X0213733Y0134033D01*
X0213823Y0134178D01*
X0213672Y0134839D01*
X0213622Y0135516D01*
X0213492Y0135628D01*
X0213453Y0135801D01*
X0213521Y0135957D01*
X0213273Y0136589D01*
X0213122Y0137251D01*
X0212978Y0137341D01*
X0212913Y0137507D01*
X0212957Y0137672D01*
X0212617Y0138259D01*
X0212369Y0138891D01*
X0212213Y0138959D01*
X0212124Y0139113D01*
X0212143Y0139283D01*
X0211720Y0139813D01*
X0211381Y0140401D01*
X0211216Y0140445D01*
X0211105Y0140584D01*
X0211099Y0140755D01*
X0210601Y0141216D01*
X0210178Y0141747D01*
X0210009Y0141766D01*
X0209878Y0141887D01*
X0209847Y0142055D01*
X0209286Y0142437D01*
X0208788Y0142899D01*
X0208618Y0142892D01*
X0208471Y0142992D01*
X0208415Y0143153D01*
X0207803Y0143448D01*
X0207242Y0143830D01*
X0207075Y0143799D01*
X0206915Y0143876D01*
X0206835Y0144026D01*
X0206186Y0144226D01*
X0205575Y0144521D01*
X0205414Y0144465D01*
X0205244Y0144517D01*
X0205143Y0144654D01*
X0204472Y0144755D01*
X0203823Y0144955D01*
X0203672Y0144876D01*
X0203497Y0144902D01*
X0203376Y0145023D01*
X0202697Y0145023D01*
X0202026Y0145124D01*
X0201889Y0145023D01*
X0201711Y0145023D01*
X0201574Y0145124D01*
X0200903Y0145023D01*
X0200224Y0145023D01*
X0200103Y0144902D01*
X0199928Y0144876D01*
X0199777Y0144955D01*
X0199128Y0144755D01*
X0198457Y0144654D01*
X0198356Y0144517D01*
X0198186Y0144465D01*
X0198025Y0144521D01*
X0197414Y0144226D01*
X0196765Y0144026D01*
X0196685Y0143876D01*
X0196525Y0143799D01*
X0196358Y0143830D01*
X0195797Y0143448D01*
X0195185Y0143153D01*
X0195129Y0142992D01*
X0194982Y0142892D01*
X0194812Y0142899D01*
X0194314Y0142437D01*
X0193753Y0142055D01*
X0193722Y0141887D01*
X0193591Y0141766D01*
X0193422Y0141747D01*
X0192999Y0141216D01*
X0192501Y0140755D01*
X0192495Y0140584D01*
X0192384Y0140445D01*
X0192219Y0140401D01*
X0191880Y0139813D01*
X0191457Y0139283D01*
X0191476Y0139113D01*
X0191387Y0138959D01*
X0191231Y0138891D01*
X0190983Y0138259D01*
X0190643Y0137672D01*
X0190687Y0137507D01*
X0190622Y0137341D01*
X0190478Y0137251D01*
X0190327Y0136589D01*
X0190079Y0135957D01*
X0190147Y0135801D01*
X0190108Y0135628D01*
X0189978Y0135516D01*
X0189928Y0134839D01*
X0189777Y0134178D01*
X0189867Y0134033D01*
X0189860Y0133940D01*
X0189799Y0133879D01*
X0189799Y0133125D01*
X0189743Y0132373D01*
X0189799Y0132308D01*
X0189799Y0093792D01*
X0189743Y0093727D01*
X0189799Y0092975D01*
X0189799Y0092221D01*
X0189860Y0092160D01*
X0189867Y0092067D01*
X0189777Y0091922D01*
X0189928Y0091261D01*
X0189978Y0090584D01*
X0190108Y0090472D01*
X0190147Y0090299D01*
X0190079Y0090143D01*
X0190327Y0089511D01*
X0190478Y0088849D01*
X0190622Y0088759D01*
X0190687Y0088593D01*
X0190643Y0088428D01*
X0190983Y0087841D01*
X0191231Y0087209D01*
X0191387Y0087141D01*
X0191476Y0086987D01*
X0191457Y0086817D01*
X0191880Y0086287D01*
X0192219Y0085699D01*
X0192384Y0085655D01*
X0192495Y0085516D01*
X0192501Y0085345D01*
X0192999Y0084884D01*
X0193422Y0084353D01*
X0193591Y0084334D01*
X0193722Y0084213D01*
X0193753Y0084045D01*
X0194314Y0083663D01*
X0194812Y0083201D01*
X0194982Y0083208D01*
X0195129Y0083107D01*
X0195185Y0082947D01*
X0195183Y0082952D02*
X0155023Y0082952D01*
X0155773Y0081354D02*
X0199067Y0081354D01*
X0204533Y0081354D02*
X0208999Y0081354D01*
X0209246Y0082952D02*
X0208417Y0082952D01*
X0210336Y0084551D02*
X0210590Y0084551D01*
X0211641Y0086149D02*
X0212188Y0086149D01*
X0212581Y0087748D02*
X0213787Y0087748D01*
X0213235Y0089346D02*
X0215385Y0089346D01*
X0216984Y0090945D02*
X0213649Y0090945D01*
X0213801Y0092543D02*
X0218583Y0092543D01*
X0218999Y0094142D02*
X0213801Y0094142D01*
X0213801Y0095740D02*
X0218999Y0095740D01*
X0218999Y0097339D02*
X0213801Y0097339D01*
X0213801Y0098937D02*
X0218999Y0098937D01*
X0218999Y0100536D02*
X0213801Y0100536D01*
X0213801Y0102134D02*
X0218999Y0102134D01*
X0218999Y0103733D02*
X0213801Y0103733D01*
X0213801Y0105332D02*
X0218999Y0105332D01*
X0218999Y0106930D02*
X0213801Y0106930D01*
X0213801Y0108529D02*
X0218999Y0108529D01*
X0218999Y0110127D02*
X0213801Y0110127D01*
X0213801Y0111726D02*
X0218999Y0111726D01*
X0218999Y0113324D02*
X0213801Y0113324D01*
X0213801Y0114923D02*
X0218999Y0114923D01*
X0218999Y0116521D02*
X0213801Y0116521D01*
X0213801Y0118120D02*
X0218999Y0118120D01*
X0218999Y0119718D02*
X0213801Y0119718D01*
X0213801Y0121317D02*
X0218999Y0121317D01*
X0218999Y0122915D02*
X0213801Y0122915D01*
X0213801Y0124514D02*
X0218999Y0124514D01*
X0218999Y0126112D02*
X0213801Y0126112D01*
X0213801Y0127711D02*
X0218999Y0127711D01*
X0218999Y0129309D02*
X0213801Y0129309D01*
X0213801Y0130908D02*
X0218999Y0130908D01*
X0218999Y0132506D02*
X0213847Y0132506D01*
X0213777Y0134105D02*
X0218999Y0134105D01*
X0218999Y0135703D02*
X0213475Y0135703D01*
X0213041Y0137302D02*
X0218999Y0137302D01*
X0218999Y0138900D02*
X0212349Y0138900D01*
X0211174Y0140499D02*
X0218999Y0140499D01*
X0218999Y0142097D02*
X0209784Y0142097D01*
X0207439Y0143696D02*
X0218999Y0143696D01*
X0218118Y0145294D02*
X0154601Y0145294D01*
X0154601Y0143696D02*
X0196161Y0143696D01*
X0193816Y0142097D02*
X0154601Y0142097D01*
X0154601Y0140499D02*
X0192426Y0140499D01*
X0191251Y0138900D02*
X0154601Y0138900D01*
X0154601Y0137302D02*
X0190559Y0137302D01*
X0190125Y0135703D02*
X0154601Y0135703D01*
X0154601Y0134105D02*
X0189822Y0134105D01*
X0189753Y0132506D02*
X0154601Y0132506D01*
X0154601Y0130908D02*
X0189799Y0130908D01*
X0189799Y0129309D02*
X0154601Y0129309D01*
X0154601Y0127711D02*
X0189799Y0127711D01*
X0189799Y0126112D02*
X0154601Y0126112D01*
X0154601Y0124514D02*
X0189799Y0124514D01*
X0189799Y0122915D02*
X0154601Y0122915D01*
X0154601Y0121317D02*
X0189799Y0121317D01*
X0189799Y0119718D02*
X0154601Y0119718D01*
X0154601Y0118120D02*
X0189799Y0118120D01*
X0189799Y0116521D02*
X0154601Y0116521D01*
X0154601Y0114923D02*
X0189799Y0114923D01*
X0189799Y0113324D02*
X0154601Y0113324D01*
X0154601Y0111726D02*
X0189799Y0111726D01*
X0189799Y0110127D02*
X0154601Y0110127D01*
X0154601Y0108529D02*
X0189799Y0108529D01*
X0189799Y0106930D02*
X0154601Y0106930D01*
X0154601Y0105332D02*
X0189799Y0105332D01*
X0189799Y0103733D02*
X0154601Y0103733D01*
X0154601Y0102134D02*
X0189799Y0102134D01*
X0189799Y0100536D02*
X0154601Y0100536D01*
X0154601Y0098937D02*
X0189799Y0098937D01*
X0189799Y0097339D02*
X0154601Y0097339D01*
X0154601Y0095740D02*
X0189799Y0095740D01*
X0189799Y0094142D02*
X0154601Y0094142D01*
X0154601Y0092543D02*
X0189799Y0092543D01*
X0189951Y0090945D02*
X0154477Y0090945D01*
X0153307Y0089346D02*
X0190365Y0089346D01*
X0191019Y0087748D02*
X0151709Y0087748D01*
X0150110Y0086149D02*
X0191959Y0086149D01*
X0193264Y0084551D02*
X0148512Y0084551D01*
X0148577Y0082952D02*
X0146913Y0082952D01*
X0147827Y0081354D02*
X0145315Y0081354D01*
X0144601Y0079755D02*
X0147823Y0079755D01*
X0148567Y0078157D02*
X0144601Y0078157D01*
X0144601Y0076558D02*
X0148999Y0076558D01*
X0148999Y0074960D02*
X0144601Y0074960D01*
X0220110Y0086149D02*
X0261959Y0086149D01*
X0261019Y0087748D02*
X0221709Y0087748D01*
X0223307Y0089346D02*
X0260365Y0089346D01*
X0259951Y0090945D02*
X0224477Y0090945D01*
X0224601Y0092543D02*
X0259799Y0092543D01*
X0259799Y0094142D02*
X0224601Y0094142D01*
X0224601Y0095740D02*
X0259799Y0095740D01*
X0259799Y0097339D02*
X0224601Y0097339D01*
X0224601Y0098937D02*
X0259799Y0098937D01*
X0259799Y0100536D02*
X0224601Y0100536D01*
X0224601Y0102134D02*
X0259799Y0102134D01*
X0259799Y0103733D02*
X0224601Y0103733D01*
X0224601Y0105332D02*
X0259799Y0105332D01*
X0259799Y0106930D02*
X0224601Y0106930D01*
X0224601Y0108529D02*
X0259799Y0108529D01*
X0259799Y0110127D02*
X0224601Y0110127D01*
X0224601Y0111726D02*
X0259799Y0111726D01*
X0259799Y0113324D02*
X0224601Y0113324D01*
X0224601Y0114923D02*
X0259799Y0114923D01*
X0259799Y0116521D02*
X0224601Y0116521D01*
X0224601Y0118120D02*
X0259799Y0118120D01*
X0259799Y0119718D02*
X0224601Y0119718D01*
X0224601Y0121317D02*
X0259799Y0121317D01*
X0259799Y0122915D02*
X0224601Y0122915D01*
X0224601Y0124514D02*
X0259799Y0124514D01*
X0259799Y0126112D02*
X0224601Y0126112D01*
X0224601Y0127711D02*
X0259799Y0127711D01*
X0259799Y0129309D02*
X0224601Y0129309D01*
X0224601Y0130908D02*
X0259799Y0130908D01*
X0259753Y0132506D02*
X0224601Y0132506D01*
X0224601Y0134105D02*
X0259822Y0134105D01*
X0260125Y0135703D02*
X0224601Y0135703D01*
X0224601Y0137302D02*
X0260559Y0137302D01*
X0261251Y0138900D02*
X0224601Y0138900D01*
X0224601Y0140499D02*
X0262426Y0140499D01*
X0263816Y0142097D02*
X0224601Y0142097D01*
X0224601Y0143696D02*
X0266161Y0143696D01*
X0277439Y0143696D02*
X0437874Y0143696D01*
X0437874Y0145294D02*
X0225482Y0145294D01*
X0225778Y0146893D02*
X0437874Y0146893D01*
X0437874Y0148491D02*
X0225405Y0148491D01*
X0224136Y0150090D02*
X0437874Y0150090D01*
X0437874Y0151688D02*
X0414877Y0151688D01*
X0414519Y0151331D02*
X0415869Y0152681D01*
X0416600Y0154445D01*
X0416600Y0169155D01*
X0415869Y0170919D01*
X0414519Y0172269D01*
X0412755Y0173000D01*
X0410845Y0173000D01*
X0409081Y0172269D01*
X0407731Y0170919D01*
X0407000Y0169155D01*
X0407000Y0154445D01*
X0407731Y0152681D01*
X0409081Y0151331D01*
X0410845Y0150600D01*
X0412755Y0150600D01*
X0414519Y0151331D01*
X0416120Y0153287D02*
X0437874Y0153287D01*
X0437874Y0154885D02*
X0416600Y0154885D01*
X0416600Y0156484D02*
X0437874Y0156484D01*
X0437874Y0158082D02*
X0416600Y0158082D01*
X0416600Y0159681D02*
X0437874Y0159681D01*
X0437874Y0161279D02*
X0416600Y0161279D01*
X0416600Y0162878D02*
X0437874Y0162878D01*
X0437874Y0164476D02*
X0416600Y0164476D01*
X0416600Y0166075D02*
X0437874Y0166075D01*
X0437874Y0167673D02*
X0416600Y0167673D01*
X0416551Y0169272D02*
X0437874Y0169272D01*
X0437874Y0170870D02*
X0415889Y0170870D01*
X0414037Y0172469D02*
X0437874Y0172469D01*
X0437874Y0174068D02*
X0019899Y0174068D01*
X0019899Y0175666D02*
X0437874Y0175666D01*
X0437874Y0177265D02*
X0019899Y0177265D01*
X0019899Y0178863D02*
X0437874Y0178863D01*
X0437874Y0180462D02*
X0019899Y0180462D01*
X0019899Y0182060D02*
X0437874Y0182060D01*
X0437874Y0183659D02*
X0019899Y0183659D01*
X0019899Y0185257D02*
X0437874Y0185257D01*
X0437874Y0186856D02*
X0019899Y0186856D01*
X0019899Y0172469D02*
X0319563Y0172469D01*
X0319081Y0172269D02*
X0320845Y0173000D01*
X0322755Y0173000D01*
X0324519Y0172269D01*
X0325869Y0170919D01*
X0326600Y0169155D01*
X0326600Y0154445D01*
X0325869Y0152681D01*
X0324519Y0151331D01*
X0322755Y0150600D01*
X0320845Y0150600D01*
X0319081Y0151331D01*
X0317731Y0152681D01*
X0317000Y0154445D01*
X0317000Y0169155D01*
X0317731Y0170919D01*
X0319081Y0172269D01*
X0317711Y0170870D02*
X0019899Y0170870D01*
X0019899Y0169272D02*
X0078646Y0169272D01*
X0077856Y0167673D02*
X0019899Y0167673D01*
X0019899Y0166075D02*
X0077822Y0166075D01*
X0078498Y0164476D02*
X0019899Y0164476D01*
X0019899Y0162878D02*
X0078999Y0162878D01*
X0078999Y0161279D02*
X0019899Y0161279D01*
X0019899Y0159681D02*
X0078999Y0159681D01*
X0078999Y0158082D02*
X0019899Y0158082D01*
X0019899Y0156484D02*
X0078999Y0156484D01*
X0078999Y0154885D02*
X0019899Y0154885D01*
X0019899Y0153287D02*
X0078999Y0153287D01*
X0078999Y0151688D02*
X0019899Y0151688D01*
X0019899Y0150090D02*
X0078999Y0150090D01*
X0078999Y0148491D02*
X0019899Y0148491D01*
X0019899Y0146893D02*
X0078999Y0146893D01*
X0084601Y0146893D02*
X0148999Y0146893D01*
X0148999Y0148491D02*
X0084601Y0148491D01*
X0084601Y0150090D02*
X0148999Y0150090D01*
X0148999Y0151688D02*
X0084601Y0151688D01*
X0084601Y0153287D02*
X0148999Y0153287D01*
X0148287Y0154885D02*
X0084601Y0154885D01*
X0084601Y0156484D02*
X0147822Y0156484D01*
X0148025Y0158082D02*
X0084601Y0158082D01*
X0084601Y0159681D02*
X0149055Y0159681D01*
X0154545Y0159681D02*
X0317000Y0159681D01*
X0317000Y0161279D02*
X0084601Y0161279D01*
X0084601Y0162878D02*
X0317000Y0162878D01*
X0317000Y0164476D02*
X0085102Y0164476D01*
X0085778Y0166075D02*
X0317000Y0166075D01*
X0317000Y0167673D02*
X0085744Y0167673D01*
X0084954Y0169272D02*
X0317049Y0169272D01*
X0324037Y0172469D02*
X0329563Y0172469D01*
X0329081Y0172269D02*
X0327731Y0170919D01*
X0327000Y0169155D01*
X0327000Y0154445D01*
X0327731Y0152681D01*
X0329081Y0151331D01*
X0330845Y0150600D01*
X0332755Y0150600D01*
X0334519Y0151331D01*
X0335869Y0152681D01*
X0336600Y0154445D01*
X0336600Y0169155D01*
X0335869Y0170919D01*
X0334519Y0172269D01*
X0332755Y0173000D01*
X0330845Y0173000D01*
X0329081Y0172269D01*
X0327711Y0170870D02*
X0325889Y0170870D01*
X0326551Y0169272D02*
X0327049Y0169272D01*
X0327000Y0167673D02*
X0326600Y0167673D01*
X0326600Y0166075D02*
X0327000Y0166075D01*
X0327000Y0164476D02*
X0326600Y0164476D01*
X0326600Y0162878D02*
X0327000Y0162878D01*
X0327000Y0161279D02*
X0326600Y0161279D01*
X0326600Y0159681D02*
X0327000Y0159681D01*
X0327000Y0158082D02*
X0326600Y0158082D01*
X0326600Y0156484D02*
X0327000Y0156484D01*
X0327000Y0154885D02*
X0326600Y0154885D01*
X0326120Y0153287D02*
X0327480Y0153287D01*
X0328723Y0151688D02*
X0324877Y0151688D01*
X0334877Y0151688D02*
X0338723Y0151688D01*
X0339081Y0151331D02*
X0340845Y0150600D01*
X0342755Y0150600D01*
X0344519Y0151331D01*
X0345869Y0152681D01*
X0346600Y0154445D01*
X0346600Y0169155D01*
X0345869Y0170919D01*
X0344519Y0172269D01*
X0342755Y0173000D01*
X0340845Y0173000D01*
X0339081Y0172269D01*
X0337731Y0170919D01*
X0337000Y0169155D01*
X0337000Y0154445D01*
X0337731Y0152681D01*
X0339081Y0151331D01*
X0337480Y0153287D02*
X0336120Y0153287D01*
X0336600Y0154885D02*
X0337000Y0154885D01*
X0337000Y0156484D02*
X0336600Y0156484D01*
X0336600Y0158082D02*
X0337000Y0158082D01*
X0337000Y0159681D02*
X0336600Y0159681D01*
X0336600Y0161279D02*
X0337000Y0161279D01*
X0337000Y0162878D02*
X0336600Y0162878D01*
X0336600Y0164476D02*
X0337000Y0164476D01*
X0337000Y0166075D02*
X0336600Y0166075D01*
X0336600Y0167673D02*
X0337000Y0167673D01*
X0337049Y0169272D02*
X0336551Y0169272D01*
X0335889Y0170870D02*
X0337711Y0170870D01*
X0339563Y0172469D02*
X0334037Y0172469D01*
X0344037Y0172469D02*
X0349563Y0172469D01*
X0349081Y0172269D02*
X0347731Y0170919D01*
X0347000Y0169155D01*
X0347000Y0154445D01*
X0347731Y0152681D01*
X0349081Y0151331D01*
X0350845Y0150600D01*
X0352755Y0150600D01*
X0354519Y0151331D01*
X0355869Y0152681D01*
X0356600Y0154445D01*
X0356600Y0169155D01*
X0355869Y0170919D01*
X0354519Y0172269D01*
X0352755Y0173000D01*
X0350845Y0173000D01*
X0349081Y0172269D01*
X0347711Y0170870D02*
X0345889Y0170870D01*
X0346551Y0169272D02*
X0347049Y0169272D01*
X0347000Y0167673D02*
X0346600Y0167673D01*
X0346600Y0166075D02*
X0347000Y0166075D01*
X0347000Y0164476D02*
X0346600Y0164476D01*
X0346600Y0162878D02*
X0347000Y0162878D01*
X0347000Y0161279D02*
X0346600Y0161279D01*
X0346600Y0159681D02*
X0347000Y0159681D01*
X0347000Y0158082D02*
X0346600Y0158082D01*
X0346600Y0156484D02*
X0347000Y0156484D01*
X0347000Y0154885D02*
X0346600Y0154885D01*
X0346120Y0153287D02*
X0347480Y0153287D01*
X0348723Y0151688D02*
X0344877Y0151688D01*
X0354877Y0151688D02*
X0358723Y0151688D01*
X0359081Y0151331D02*
X0360845Y0150600D01*
X0362755Y0150600D01*
X0364519Y0151331D01*
X0365869Y0152681D01*
X0366600Y0154445D01*
X0366600Y0169155D01*
X0365869Y0170919D01*
X0364519Y0172269D01*
X0362755Y0173000D01*
X0360845Y0173000D01*
X0359081Y0172269D01*
X0357731Y0170919D01*
X0357000Y0169155D01*
X0357000Y0154445D01*
X0357731Y0152681D01*
X0359081Y0151331D01*
X0357480Y0153287D02*
X0356120Y0153287D01*
X0356600Y0154885D02*
X0357000Y0154885D01*
X0357000Y0156484D02*
X0356600Y0156484D01*
X0356600Y0158082D02*
X0357000Y0158082D01*
X0357000Y0159681D02*
X0356600Y0159681D01*
X0356600Y0161279D02*
X0357000Y0161279D01*
X0357000Y0162878D02*
X0356600Y0162878D01*
X0356600Y0164476D02*
X0357000Y0164476D01*
X0357000Y0166075D02*
X0356600Y0166075D01*
X0356600Y0167673D02*
X0357000Y0167673D01*
X0357049Y0169272D02*
X0356551Y0169272D01*
X0355889Y0170870D02*
X0357711Y0170870D01*
X0359563Y0172469D02*
X0354037Y0172469D01*
X0364037Y0172469D02*
X0369563Y0172469D01*
X0369081Y0172269D02*
X0367731Y0170919D01*
X0367000Y0169155D01*
X0367000Y0154445D01*
X0367731Y0152681D01*
X0369081Y0151331D01*
X0370845Y0150600D01*
X0372755Y0150600D01*
X0374519Y0151331D01*
X0375869Y0152681D01*
X0376600Y0154445D01*
X0376600Y0169155D01*
X0375869Y0170919D01*
X0374519Y0172269D01*
X0372755Y0173000D01*
X0370845Y0173000D01*
X0369081Y0172269D01*
X0367711Y0170870D02*
X0365889Y0170870D01*
X0366551Y0169272D02*
X0367049Y0169272D01*
X0367000Y0167673D02*
X0366600Y0167673D01*
X0366600Y0166075D02*
X0367000Y0166075D01*
X0367000Y0164476D02*
X0366600Y0164476D01*
X0366600Y0162878D02*
X0367000Y0162878D01*
X0367000Y0161279D02*
X0366600Y0161279D01*
X0366600Y0159681D02*
X0367000Y0159681D01*
X0367000Y0158082D02*
X0366600Y0158082D01*
X0366600Y0156484D02*
X0367000Y0156484D01*
X0367000Y0154885D02*
X0366600Y0154885D01*
X0366120Y0153287D02*
X0367480Y0153287D01*
X0368723Y0151688D02*
X0364877Y0151688D01*
X0374877Y0151688D02*
X0378723Y0151688D01*
X0379081Y0151331D02*
X0380845Y0150600D01*
X0382755Y0150600D01*
X0384519Y0151331D01*
X0385869Y0152681D01*
X0386600Y0154445D01*
X0386600Y0169155D01*
X0385869Y0170919D01*
X0384519Y0172269D01*
X0382755Y0173000D01*
X0380845Y0173000D01*
X0379081Y0172269D01*
X0377731Y0170919D01*
X0377000Y0169155D01*
X0377000Y0154445D01*
X0377731Y0152681D01*
X0379081Y0151331D01*
X0377480Y0153287D02*
X0376120Y0153287D01*
X0376600Y0154885D02*
X0377000Y0154885D01*
X0377000Y0156484D02*
X0376600Y0156484D01*
X0376600Y0158082D02*
X0377000Y0158082D01*
X0377000Y0159681D02*
X0376600Y0159681D01*
X0376600Y0161279D02*
X0377000Y0161279D01*
X0377000Y0162878D02*
X0376600Y0162878D01*
X0376600Y0164476D02*
X0377000Y0164476D01*
X0377000Y0166075D02*
X0376600Y0166075D01*
X0376600Y0167673D02*
X0377000Y0167673D01*
X0377049Y0169272D02*
X0376551Y0169272D01*
X0375889Y0170870D02*
X0377711Y0170870D01*
X0379563Y0172469D02*
X0374037Y0172469D01*
X0384037Y0172469D02*
X0389563Y0172469D01*
X0389081Y0172269D02*
X0387731Y0170919D01*
X0387000Y0169155D01*
X0387000Y0154445D01*
X0387731Y0152681D01*
X0389081Y0151331D01*
X0390845Y0150600D01*
X0392755Y0150600D01*
X0394519Y0151331D01*
X0395869Y0152681D01*
X0396600Y0154445D01*
X0396600Y0169155D01*
X0395869Y0170919D01*
X0394519Y0172269D01*
X0392755Y0173000D01*
X0390845Y0173000D01*
X0389081Y0172269D01*
X0387711Y0170870D02*
X0385889Y0170870D01*
X0386551Y0169272D02*
X0387049Y0169272D01*
X0387000Y0167673D02*
X0386600Y0167673D01*
X0386600Y0166075D02*
X0387000Y0166075D01*
X0387000Y0164476D02*
X0386600Y0164476D01*
X0386600Y0162878D02*
X0387000Y0162878D01*
X0387000Y0161279D02*
X0386600Y0161279D01*
X0386600Y0159681D02*
X0387000Y0159681D01*
X0387000Y0158082D02*
X0386600Y0158082D01*
X0386600Y0156484D02*
X0387000Y0156484D01*
X0387000Y0154885D02*
X0386600Y0154885D01*
X0386120Y0153287D02*
X0387480Y0153287D01*
X0388723Y0151688D02*
X0384877Y0151688D01*
X0394877Y0151688D02*
X0398723Y0151688D01*
X0399081Y0151331D02*
X0400845Y0150600D01*
X0402755Y0150600D01*
X0404519Y0151331D01*
X0405869Y0152681D01*
X0406600Y0154445D01*
X0406600Y0169155D01*
X0405869Y0170919D01*
X0404519Y0172269D01*
X0402755Y0173000D01*
X0400845Y0173000D01*
X0399081Y0172269D01*
X0397731Y0170919D01*
X0397000Y0169155D01*
X0397000Y0154445D01*
X0397731Y0152681D01*
X0399081Y0151331D01*
X0397480Y0153287D02*
X0396120Y0153287D01*
X0396600Y0154885D02*
X0397000Y0154885D01*
X0397000Y0156484D02*
X0396600Y0156484D01*
X0396600Y0158082D02*
X0397000Y0158082D01*
X0397000Y0159681D02*
X0396600Y0159681D01*
X0396600Y0161279D02*
X0397000Y0161279D01*
X0397000Y0162878D02*
X0396600Y0162878D01*
X0396600Y0164476D02*
X0397000Y0164476D01*
X0397000Y0166075D02*
X0396600Y0166075D01*
X0396600Y0167673D02*
X0397000Y0167673D01*
X0397049Y0169272D02*
X0396551Y0169272D01*
X0395889Y0170870D02*
X0397711Y0170870D01*
X0399563Y0172469D02*
X0394037Y0172469D01*
X0404037Y0172469D02*
X0409563Y0172469D01*
X0407711Y0170870D02*
X0405889Y0170870D01*
X0406551Y0169272D02*
X0407049Y0169272D01*
X0407000Y0167673D02*
X0406600Y0167673D01*
X0406600Y0166075D02*
X0407000Y0166075D01*
X0407000Y0164476D02*
X0406600Y0164476D01*
X0406600Y0162878D02*
X0407000Y0162878D01*
X0407000Y0161279D02*
X0406600Y0161279D01*
X0406600Y0159681D02*
X0407000Y0159681D01*
X0407000Y0158082D02*
X0406600Y0158082D01*
X0406600Y0156484D02*
X0407000Y0156484D01*
X0407000Y0154885D02*
X0406600Y0154885D01*
X0406120Y0153287D02*
X0407480Y0153287D01*
X0408723Y0151688D02*
X0404877Y0151688D01*
X0437874Y0142097D02*
X0279784Y0142097D01*
X0281174Y0140499D02*
X0437874Y0140499D01*
X0437874Y0138900D02*
X0282349Y0138900D01*
X0283041Y0137302D02*
X0437874Y0137302D01*
X0437874Y0135703D02*
X0283475Y0135703D01*
X0283777Y0134105D02*
X0437874Y0134105D01*
X0437874Y0132506D02*
X0283847Y0132506D01*
X0283801Y0130908D02*
X0404831Y0130908D01*
X0403522Y0129309D02*
X0283801Y0129309D01*
X0283801Y0127711D02*
X0402919Y0127711D01*
X0402919Y0126112D02*
X0283801Y0126112D01*
X0283801Y0124514D02*
X0403429Y0124514D01*
X0404608Y0122915D02*
X0283801Y0122915D01*
X0283801Y0121317D02*
X0405273Y0121317D01*
X0403691Y0119718D02*
X0283801Y0119718D01*
X0283801Y0118120D02*
X0390409Y0118120D01*
X0388810Y0116521D02*
X0283801Y0116521D01*
X0283801Y0114923D02*
X0387212Y0114923D01*
X0385613Y0113324D02*
X0283801Y0113324D01*
X0283801Y0111726D02*
X0384255Y0111726D01*
X0383999Y0110127D02*
X0283801Y0110127D01*
X0283801Y0108529D02*
X0383999Y0108529D01*
X0383999Y0106930D02*
X0283801Y0106930D01*
X0283801Y0105332D02*
X0383999Y0105332D01*
X0383999Y0103733D02*
X0283801Y0103733D01*
X0283801Y0102134D02*
X0383174Y0102134D01*
X0381575Y0100536D02*
X0283801Y0100536D01*
X0283801Y0098937D02*
X0379977Y0098937D01*
X0378378Y0097339D02*
X0283801Y0097339D01*
X0295023Y0082952D02*
X0500000Y0082952D01*
X0500000Y0081354D02*
X0295773Y0081354D01*
X0295777Y0079755D02*
X0500000Y0079755D01*
X0500000Y0078157D02*
X0295032Y0078157D01*
X0294601Y0076558D02*
X0500000Y0076558D01*
X0500000Y0074960D02*
X0294601Y0074960D01*
X0268575Y0071763D02*
X0265308Y0071763D01*
X0265057Y0072014D02*
X0264421Y0072476D01*
X0263719Y0072834D01*
X0262971Y0073077D01*
X0262194Y0073200D01*
X0262000Y0073200D01*
X0262000Y0062000D01*
X0266800Y0062000D01*
X0266800Y0068594D01*
X0266677Y0069371D01*
X0266434Y0070119D01*
X0266076Y0070821D01*
X0265614Y0071457D01*
X0265057Y0072014D01*
X0266411Y0070164D02*
X0267418Y0070164D01*
X0267000Y0068566D02*
X0266800Y0068566D01*
X0266800Y0066967D02*
X0267000Y0066967D01*
X0267000Y0065369D02*
X0266800Y0065369D01*
X0266800Y0063770D02*
X0267000Y0063770D01*
X0267000Y0062172D02*
X0266800Y0062172D01*
X0266800Y0061600D02*
X0262000Y0061600D01*
X0262000Y0062000D01*
X0261600Y0062000D01*
X0261600Y0073200D01*
X0261406Y0073200D01*
X0260629Y0073077D01*
X0259881Y0072834D01*
X0259179Y0072476D01*
X0258543Y0072014D01*
X0257986Y0071457D01*
X0257524Y0070821D01*
X0257166Y0070119D01*
X0256923Y0069371D01*
X0256800Y0068594D01*
X0256800Y0062000D01*
X0261600Y0062000D01*
X0261600Y0061600D01*
X0262000Y0061600D01*
X0262000Y0050400D01*
X0262194Y0050400D01*
X0262971Y0050523D01*
X0263719Y0050766D01*
X0264421Y0051124D01*
X0265057Y0051586D01*
X0265614Y0052143D01*
X0266076Y0052779D01*
X0266434Y0053481D01*
X0266677Y0054229D01*
X0266800Y0055006D01*
X0266800Y0061600D01*
X0266800Y0060573D02*
X0267000Y0060573D01*
X0267000Y0058975D02*
X0266800Y0058975D01*
X0266800Y0057376D02*
X0267000Y0057376D01*
X0267000Y0055778D02*
X0266800Y0055778D01*
X0266661Y0054179D02*
X0267110Y0054179D01*
X0267831Y0052581D02*
X0265932Y0052581D01*
X0264143Y0050982D02*
X0269923Y0050982D01*
X0262000Y0050982D02*
X0261600Y0050982D01*
X0261600Y0050400D02*
X0261600Y0061600D01*
X0256800Y0061600D01*
X0256800Y0055006D01*
X0256923Y0054229D01*
X0257166Y0053481D01*
X0257524Y0052779D01*
X0257986Y0052143D01*
X0258543Y0051586D01*
X0259179Y0051124D01*
X0259881Y0050766D01*
X0260629Y0050523D01*
X0261406Y0050400D01*
X0261600Y0050400D01*
X0261600Y0052581D02*
X0262000Y0052581D01*
X0262000Y0054179D02*
X0261600Y0054179D01*
X0261600Y0055778D02*
X0262000Y0055778D01*
X0262000Y0057376D02*
X0261600Y0057376D01*
X0261600Y0058975D02*
X0262000Y0058975D01*
X0262000Y0060573D02*
X0261600Y0060573D01*
X0261600Y0062172D02*
X0262000Y0062172D01*
X0262000Y0063770D02*
X0261600Y0063770D01*
X0261600Y0065369D02*
X0262000Y0065369D01*
X0262000Y0066967D02*
X0261600Y0066967D01*
X0261600Y0068566D02*
X0262000Y0068566D01*
X0262000Y0070164D02*
X0261600Y0070164D01*
X0261600Y0071763D02*
X0262000Y0071763D01*
X0258292Y0071763D02*
X0255025Y0071763D01*
X0256182Y0070164D02*
X0257189Y0070164D01*
X0256800Y0068566D02*
X0256600Y0068566D01*
X0256600Y0066967D02*
X0256800Y0066967D01*
X0256800Y0065369D02*
X0256600Y0065369D01*
X0256600Y0063770D02*
X0256800Y0063770D01*
X0256800Y0062172D02*
X0256600Y0062172D01*
X0256600Y0060573D02*
X0256800Y0060573D01*
X0256800Y0058975D02*
X0256600Y0058975D01*
X0256600Y0057376D02*
X0256800Y0057376D01*
X0256800Y0055778D02*
X0256600Y0055778D01*
X0256490Y0054179D02*
X0256939Y0054179D01*
X0257668Y0052581D02*
X0255769Y0052581D01*
X0253677Y0050982D02*
X0259457Y0050982D01*
X0376845Y0087748D02*
X0500000Y0087748D01*
X0500000Y0089346D02*
X0378307Y0089346D01*
X0379906Y0090945D02*
X0438732Y0090945D01*
X0437874Y0092543D02*
X0426258Y0092543D01*
X0427655Y0094142D02*
X0437874Y0094142D01*
X0437874Y0095740D02*
X0428317Y0095740D01*
X0428319Y0097339D02*
X0437874Y0097339D01*
X0437874Y0098937D02*
X0427870Y0098937D01*
X0426778Y0100536D02*
X0437874Y0100536D01*
X0437874Y0102134D02*
X0425605Y0102134D01*
X0427447Y0103733D02*
X0437874Y0103733D01*
X0437874Y0105332D02*
X0428147Y0105332D01*
X0428319Y0106930D02*
X0437874Y0106930D01*
X0437874Y0108529D02*
X0428040Y0108529D01*
X0427187Y0110127D02*
X0437874Y0110127D01*
X0437874Y0111726D02*
X0424977Y0111726D01*
X0427038Y0113324D02*
X0437874Y0113324D01*
X0437874Y0114923D02*
X0427978Y0114923D01*
X0428319Y0116521D02*
X0437874Y0116521D01*
X0437874Y0118120D02*
X0428209Y0118120D01*
X0427547Y0119718D02*
X0437874Y0119718D01*
X0437874Y0121317D02*
X0425964Y0121317D01*
X0426629Y0122915D02*
X0437874Y0122915D01*
X0437874Y0124514D02*
X0427809Y0124514D01*
X0428319Y0126112D02*
X0437874Y0126112D01*
X0437874Y0127711D02*
X0428319Y0127711D01*
X0427716Y0129309D02*
X0437874Y0129309D01*
X0437874Y0130908D02*
X0426407Y0130908D01*
X0406261Y0111726D02*
X0391936Y0111726D01*
X0390338Y0110127D02*
X0404051Y0110127D01*
X0403198Y0108529D02*
X0389601Y0108529D01*
X0389601Y0106930D02*
X0402919Y0106930D01*
X0403090Y0105332D02*
X0389601Y0105332D01*
X0389601Y0103733D02*
X0403791Y0103733D01*
X0405633Y0102134D02*
X0389601Y0102134D01*
X0389308Y0100536D02*
X0404460Y0100536D01*
X0403368Y0098937D02*
X0387898Y0098937D01*
X0386300Y0097339D02*
X0402919Y0097339D01*
X0402921Y0095740D02*
X0384701Y0095740D01*
X0383103Y0094142D02*
X0403583Y0094142D01*
X0404980Y0092543D02*
X0381504Y0092543D01*
X0393535Y0113324D02*
X0404199Y0113324D01*
X0318723Y0151688D02*
X0154601Y0151688D01*
X0154601Y0150090D02*
X0219464Y0150090D01*
X0218195Y0148491D02*
X0154601Y0148491D01*
X0154601Y0146893D02*
X0217822Y0146893D01*
X0155778Y0156484D02*
X0317000Y0156484D01*
X0317000Y0158082D02*
X0155575Y0158082D01*
X0155313Y0154885D02*
X0317000Y0154885D01*
X0317480Y0153287D02*
X0154601Y0153287D01*
X0468548Y0044588D02*
X0500000Y0044588D01*
X0500000Y0046187D02*
X0470146Y0046187D01*
X0471745Y0047785D02*
X0500000Y0047785D01*
X0489923Y0050982D02*
X0483677Y0050982D01*
X0485769Y0052581D02*
X0487831Y0052581D01*
X0487110Y0054179D02*
X0486490Y0054179D01*
X0486600Y0055778D02*
X0487000Y0055778D01*
X0487000Y0057376D02*
X0486600Y0057376D01*
X0486600Y0058975D02*
X0487000Y0058975D01*
X0487000Y0060573D02*
X0486600Y0060573D01*
X0486600Y0062172D02*
X0487000Y0062172D01*
X0487000Y0063770D02*
X0486600Y0063770D01*
X0486600Y0065369D02*
X0487000Y0065369D01*
X0487000Y0066967D02*
X0486600Y0066967D01*
X0486600Y0068566D02*
X0487000Y0068566D01*
X0487418Y0070164D02*
X0486182Y0070164D01*
X0485025Y0071763D02*
X0488575Y0071763D01*
D13*
X0374300Y0090550D03*
X0368050Y0090550D03*
D14*
X0411800Y0061800D02*
X0411800Y0051800D01*
X0416800Y0046800D01*
X0466800Y0046800D01*
X0471800Y0051800D01*
X0471800Y0061800D01*
X0081800Y0061800D02*
X0081800Y0080550D01*
D15*
X0081800Y0080550D03*
X0061800Y0074300D03*
X0131800Y0074300D03*
X0151800Y0080550D03*
X0201800Y0074300D03*
X0221800Y0080550D03*
X0271800Y0074300D03*
X0291800Y0080550D03*
X0291800Y0091800D03*
X0221800Y0146800D03*
X0151800Y0156800D03*
X0081800Y0166800D03*
D16*
X0081800Y0091800D01*
X0071800Y0081800D01*
X0071800Y0061800D01*
X0061800Y0061800D02*
X0061800Y0074300D01*
X0131800Y0074300D02*
X0131800Y0061800D01*
X0141800Y0061800D02*
X0141800Y0081800D01*
X0151800Y0091800D01*
X0151800Y0156800D01*
X0221800Y0146800D02*
X0221800Y0091800D01*
X0211800Y0081800D01*
X0211800Y0061800D01*
X0201800Y0061800D02*
X0201800Y0074300D01*
X0221800Y0080550D02*
X0221800Y0061800D01*
X0271800Y0061800D02*
X0271800Y0074300D01*
X0281800Y0081800D02*
X0281800Y0061800D01*
X0291800Y0061800D02*
X0291800Y0080550D01*
X0281800Y0081800D02*
X0291800Y0091800D01*
X0374300Y0090550D02*
X0375550Y0090550D01*
X0386800Y0101800D01*
X0386800Y0110550D01*
X0393050Y0116800D01*
X0415619Y0116800D01*
X0151800Y0080550D02*
X0151800Y0061800D01*
M02*
