G75*
%MOIN*%
%OFA0B0*%
%FSLAX25Y25*%
%IPPOS*%
%LPD*%
%AMOC8*
5,1,8,0,0,1.08239X$1,22.5*
%
%ADD10C,0.00000*%
%ADD11C,0.01600*%
D10*
X0018099Y0031800D02*
X0501800Y0031800D01*
X0501800Y0092548D01*
X0439674Y0092548D01*
X0439674Y0189280D01*
X0018099Y0189280D01*
X0018099Y0031800D01*
D11*
X0059780Y0087501D02*
X0060775Y0087234D01*
X0061800Y0087144D01*
X0062825Y0087234D01*
X0063820Y0087501D01*
X0064753Y0087936D01*
X0065596Y0088526D01*
X0066324Y0089254D01*
X0066914Y0090097D01*
X0067349Y0091030D01*
X0067616Y0092025D01*
X0067706Y0093050D01*
X0067706Y0133050D01*
X0067616Y0134075D01*
X0067349Y0135070D01*
X0066914Y0136003D01*
X0066324Y0136846D01*
X0065596Y0137574D01*
X0064753Y0138164D01*
X0063820Y0138599D01*
X0062825Y0138866D01*
X0061800Y0138956D01*
X0060775Y0138866D01*
X0059780Y0138599D01*
X0058847Y0138164D01*
X0058004Y0137574D01*
X0057276Y0136846D01*
X0056686Y0136003D01*
X0056251Y0135070D01*
X0055984Y0134075D01*
X0055894Y0133050D01*
X0055894Y0093050D01*
X0055984Y0092025D01*
X0056251Y0091030D01*
X0056686Y0090097D01*
X0057276Y0089254D01*
X0058004Y0088526D01*
X0058847Y0087936D01*
X0059780Y0087501D01*
X0059250Y0087748D02*
X0064350Y0087748D01*
X0066389Y0089346D02*
X0057211Y0089346D01*
X0056290Y0090945D02*
X0067310Y0090945D01*
X0067661Y0092543D02*
X0055939Y0092543D01*
X0055894Y0094142D02*
X0067706Y0094142D01*
X0067706Y0095740D02*
X0055894Y0095740D01*
X0055894Y0097339D02*
X0067706Y0097339D01*
X0067706Y0098937D02*
X0055894Y0098937D01*
X0055894Y0100536D02*
X0067706Y0100536D01*
X0067706Y0102134D02*
X0055894Y0102134D01*
X0055894Y0103733D02*
X0067706Y0103733D01*
X0067706Y0105332D02*
X0055894Y0105332D01*
X0055894Y0106930D02*
X0067706Y0106930D01*
X0067706Y0108529D02*
X0055894Y0108529D01*
X0055894Y0110127D02*
X0067706Y0110127D01*
X0067706Y0111726D02*
X0055894Y0111726D01*
X0055894Y0113324D02*
X0067706Y0113324D01*
X0067706Y0114923D02*
X0055894Y0114923D01*
X0055894Y0116521D02*
X0067706Y0116521D01*
X0067706Y0118120D02*
X0055894Y0118120D01*
X0055894Y0119718D02*
X0067706Y0119718D01*
X0067706Y0121317D02*
X0055894Y0121317D01*
X0055894Y0122915D02*
X0067706Y0122915D01*
X0067706Y0124514D02*
X0055894Y0124514D01*
X0055894Y0126112D02*
X0067706Y0126112D01*
X0067706Y0127711D02*
X0055894Y0127711D01*
X0055894Y0129309D02*
X0067706Y0129309D01*
X0067706Y0130908D02*
X0055894Y0130908D01*
X0055894Y0132506D02*
X0067706Y0132506D01*
X0067608Y0134105D02*
X0055992Y0134105D01*
X0056546Y0135703D02*
X0067054Y0135703D01*
X0065868Y0137302D02*
X0057732Y0137302D01*
X0061168Y0138900D02*
X0062432Y0138900D01*
X0125894Y0133050D02*
X0125984Y0134075D01*
X0126251Y0135070D01*
X0126686Y0136003D01*
X0127276Y0136846D01*
X0128004Y0137574D01*
X0128847Y0138164D01*
X0129780Y0138599D01*
X0130775Y0138866D01*
X0131800Y0138956D01*
X0132825Y0138866D01*
X0133820Y0138599D01*
X0134753Y0138164D01*
X0135596Y0137574D01*
X0136324Y0136846D01*
X0136914Y0136003D01*
X0137349Y0135070D01*
X0137616Y0134075D01*
X0137706Y0133050D01*
X0137706Y0093050D01*
X0137616Y0092025D01*
X0137349Y0091030D01*
X0136914Y0090097D01*
X0136324Y0089254D01*
X0135596Y0088526D01*
X0134753Y0087936D01*
X0133820Y0087501D01*
X0132825Y0087234D01*
X0131800Y0087144D01*
X0130775Y0087234D01*
X0129780Y0087501D01*
X0128847Y0087936D01*
X0128004Y0088526D01*
X0127276Y0089254D01*
X0126686Y0090097D01*
X0126251Y0091030D01*
X0125984Y0092025D01*
X0125894Y0093050D01*
X0125894Y0133050D01*
X0125894Y0132506D02*
X0137706Y0132506D01*
X0137706Y0130908D02*
X0125894Y0130908D01*
X0125894Y0129309D02*
X0137706Y0129309D01*
X0137706Y0127711D02*
X0125894Y0127711D01*
X0125894Y0126112D02*
X0137706Y0126112D01*
X0137706Y0124514D02*
X0125894Y0124514D01*
X0125894Y0122915D02*
X0137706Y0122915D01*
X0137706Y0121317D02*
X0125894Y0121317D01*
X0125894Y0119718D02*
X0137706Y0119718D01*
X0137706Y0118120D02*
X0125894Y0118120D01*
X0125894Y0116521D02*
X0137706Y0116521D01*
X0137706Y0114923D02*
X0125894Y0114923D01*
X0125894Y0113324D02*
X0137706Y0113324D01*
X0137706Y0111726D02*
X0125894Y0111726D01*
X0125894Y0110127D02*
X0137706Y0110127D01*
X0137706Y0108529D02*
X0125894Y0108529D01*
X0125894Y0106930D02*
X0137706Y0106930D01*
X0137706Y0105332D02*
X0125894Y0105332D01*
X0125894Y0103733D02*
X0137706Y0103733D01*
X0137706Y0102134D02*
X0125894Y0102134D01*
X0125894Y0100536D02*
X0137706Y0100536D01*
X0137706Y0098937D02*
X0125894Y0098937D01*
X0125894Y0097339D02*
X0137706Y0097339D01*
X0137706Y0095740D02*
X0125894Y0095740D01*
X0125894Y0094142D02*
X0137706Y0094142D01*
X0137661Y0092543D02*
X0125939Y0092543D01*
X0126290Y0090945D02*
X0137310Y0090945D01*
X0136389Y0089346D02*
X0127211Y0089346D01*
X0129250Y0087748D02*
X0134350Y0087748D01*
X0195894Y0093050D02*
X0195984Y0092025D01*
X0196251Y0091030D01*
X0196686Y0090097D01*
X0197276Y0089254D01*
X0198004Y0088526D01*
X0198847Y0087936D01*
X0199780Y0087501D01*
X0200775Y0087234D01*
X0201800Y0087144D01*
X0202825Y0087234D01*
X0203820Y0087501D01*
X0204753Y0087936D01*
X0205596Y0088526D01*
X0206324Y0089254D01*
X0206914Y0090097D01*
X0207349Y0091030D01*
X0207616Y0092025D01*
X0207706Y0093050D01*
X0207706Y0133050D01*
X0207616Y0134075D01*
X0207349Y0135070D01*
X0206914Y0136003D01*
X0206324Y0136846D01*
X0205596Y0137574D01*
X0204753Y0138164D01*
X0203820Y0138599D01*
X0202825Y0138866D01*
X0201800Y0138956D01*
X0200775Y0138866D01*
X0199780Y0138599D01*
X0198847Y0138164D01*
X0198004Y0137574D01*
X0197276Y0136846D01*
X0196686Y0136003D01*
X0196251Y0135070D01*
X0195984Y0134075D01*
X0195894Y0133050D01*
X0195894Y0093050D01*
X0195939Y0092543D02*
X0207661Y0092543D01*
X0207706Y0094142D02*
X0195894Y0094142D01*
X0195894Y0095740D02*
X0207706Y0095740D01*
X0207706Y0097339D02*
X0195894Y0097339D01*
X0195894Y0098937D02*
X0207706Y0098937D01*
X0207706Y0100536D02*
X0195894Y0100536D01*
X0195894Y0102134D02*
X0207706Y0102134D01*
X0207706Y0103733D02*
X0195894Y0103733D01*
X0195894Y0105332D02*
X0207706Y0105332D01*
X0207706Y0106930D02*
X0195894Y0106930D01*
X0195894Y0108529D02*
X0207706Y0108529D01*
X0207706Y0110127D02*
X0195894Y0110127D01*
X0195894Y0111726D02*
X0207706Y0111726D01*
X0207706Y0113324D02*
X0195894Y0113324D01*
X0195894Y0114923D02*
X0207706Y0114923D01*
X0207706Y0116521D02*
X0195894Y0116521D01*
X0195894Y0118120D02*
X0207706Y0118120D01*
X0207706Y0119718D02*
X0195894Y0119718D01*
X0195894Y0121317D02*
X0207706Y0121317D01*
X0207706Y0122915D02*
X0195894Y0122915D01*
X0195894Y0124514D02*
X0207706Y0124514D01*
X0207706Y0126112D02*
X0195894Y0126112D01*
X0195894Y0127711D02*
X0207706Y0127711D01*
X0207706Y0129309D02*
X0195894Y0129309D01*
X0195894Y0130908D02*
X0207706Y0130908D01*
X0207706Y0132506D02*
X0195894Y0132506D01*
X0195992Y0134105D02*
X0207608Y0134105D01*
X0207054Y0135703D02*
X0196546Y0135703D01*
X0197732Y0137302D02*
X0205868Y0137302D01*
X0202432Y0138900D02*
X0201168Y0138900D01*
X0137608Y0134105D02*
X0125992Y0134105D01*
X0126546Y0135703D02*
X0137054Y0135703D01*
X0135868Y0137302D02*
X0127732Y0137302D01*
X0131168Y0138900D02*
X0132432Y0138900D01*
X0196290Y0090945D02*
X0207310Y0090945D01*
X0206389Y0089346D02*
X0197211Y0089346D01*
X0199250Y0087748D02*
X0204350Y0087748D01*
X0265894Y0093050D02*
X0265984Y0092025D01*
X0266251Y0091030D01*
X0266686Y0090097D01*
X0267276Y0089254D01*
X0268004Y0088526D01*
X0268847Y0087936D01*
X0269780Y0087501D01*
X0270775Y0087234D01*
X0271800Y0087144D01*
X0272825Y0087234D01*
X0273820Y0087501D01*
X0274753Y0087936D01*
X0275596Y0088526D01*
X0276324Y0089254D01*
X0276914Y0090097D01*
X0277349Y0091030D01*
X0277616Y0092025D01*
X0277706Y0093050D01*
X0277706Y0133050D01*
X0277616Y0134075D01*
X0277349Y0135070D01*
X0276914Y0136003D01*
X0276324Y0136846D01*
X0275596Y0137574D01*
X0274753Y0138164D01*
X0273820Y0138599D01*
X0272825Y0138866D01*
X0271800Y0138956D01*
X0270775Y0138866D01*
X0269780Y0138599D01*
X0268847Y0138164D01*
X0268004Y0137574D01*
X0267276Y0136846D01*
X0266686Y0136003D01*
X0266251Y0135070D01*
X0265984Y0134075D01*
X0265894Y0133050D01*
X0265894Y0093050D01*
X0265939Y0092543D02*
X0277661Y0092543D01*
X0277706Y0094142D02*
X0265894Y0094142D01*
X0265894Y0095740D02*
X0277706Y0095740D01*
X0277706Y0097339D02*
X0265894Y0097339D01*
X0265894Y0098937D02*
X0277706Y0098937D01*
X0277706Y0100536D02*
X0265894Y0100536D01*
X0265894Y0102134D02*
X0277706Y0102134D01*
X0277706Y0103733D02*
X0265894Y0103733D01*
X0265894Y0105332D02*
X0277706Y0105332D01*
X0277706Y0106930D02*
X0265894Y0106930D01*
X0265894Y0108529D02*
X0277706Y0108529D01*
X0277706Y0110127D02*
X0265894Y0110127D01*
X0265894Y0111726D02*
X0277706Y0111726D01*
X0277706Y0113324D02*
X0265894Y0113324D01*
X0265894Y0114923D02*
X0277706Y0114923D01*
X0277706Y0116521D02*
X0265894Y0116521D01*
X0265894Y0118120D02*
X0277706Y0118120D01*
X0277706Y0119718D02*
X0265894Y0119718D01*
X0265894Y0121317D02*
X0277706Y0121317D01*
X0277706Y0122915D02*
X0265894Y0122915D01*
X0265894Y0124514D02*
X0277706Y0124514D01*
X0277706Y0126112D02*
X0265894Y0126112D01*
X0265894Y0127711D02*
X0277706Y0127711D01*
X0277706Y0129309D02*
X0265894Y0129309D01*
X0265894Y0130908D02*
X0277706Y0130908D01*
X0277706Y0132506D02*
X0265894Y0132506D01*
X0265992Y0134105D02*
X0277608Y0134105D01*
X0277054Y0135703D02*
X0266546Y0135703D01*
X0267732Y0137302D02*
X0275868Y0137302D01*
X0272432Y0138900D02*
X0271168Y0138900D01*
X0266290Y0090945D02*
X0277310Y0090945D01*
X0276389Y0089346D02*
X0267211Y0089346D01*
X0269250Y0087748D02*
X0274350Y0087748D01*
M02*
