G75*
%MOIN*%
%OFA0B0*%
%FSLAX25Y25*%
%IPPOS*%
%LPD*%
%AMOC8*
5,1,8,0,0,1.08239X$1,22.5*
%
%ADD10C,0.00600*%
%ADD11C,0.07200*%
%ADD12C,0.08200*%
%ADD13C,0.05556*%
D10*
X0029230Y0044264D02*
X0030297Y0044264D01*
X0030297Y0045332D01*
X0029230Y0045332D01*
X0029230Y0044264D01*
X0032432Y0044264D02*
X0033500Y0044264D01*
X0033500Y0045332D01*
X0032432Y0045332D01*
X0032432Y0044264D01*
X0032432Y0047487D02*
X0033500Y0047487D01*
X0033500Y0048554D01*
X0032432Y0048554D01*
X0032432Y0047487D01*
X0030297Y0047487D02*
X0030297Y0048554D01*
X0029230Y0048554D01*
X0029230Y0047487D01*
X0030297Y0047487D01*
X0033500Y0050710D02*
X0027095Y0054980D01*
X0030297Y0057155D02*
X0030297Y0061425D01*
X0029230Y0063601D02*
X0027095Y0065736D01*
X0033500Y0065736D01*
X0033500Y0063601D02*
X0033500Y0067871D01*
X0030297Y0076492D02*
X0030297Y0080762D01*
X0027095Y0089383D02*
X0027095Y0091518D01*
X0027095Y0090450D02*
X0033500Y0090450D01*
X0033500Y0089383D02*
X0033500Y0091518D01*
X0033500Y0093680D02*
X0029230Y0093680D01*
X0029230Y0096882D01*
X0030297Y0097950D01*
X0033500Y0097950D01*
X0033500Y0102260D02*
X0029230Y0100125D01*
X0029230Y0104395D02*
X0033500Y0102260D01*
X0032432Y0106571D02*
X0031365Y0107638D01*
X0031365Y0110841D01*
X0030297Y0110841D02*
X0033500Y0110841D01*
X0033500Y0107638D01*
X0032432Y0106571D01*
X0029230Y0107638D02*
X0029230Y0109773D01*
X0030297Y0110841D01*
X0027095Y0113016D02*
X0027095Y0114084D01*
X0033500Y0114084D01*
X0033500Y0115151D02*
X0033500Y0113016D01*
X0033500Y0117313D02*
X0033500Y0119448D01*
X0033500Y0118381D02*
X0029230Y0118381D01*
X0029230Y0117313D01*
X0027095Y0118381D02*
X0026027Y0118381D01*
X0030297Y0121610D02*
X0029230Y0122678D01*
X0029230Y0125880D01*
X0027095Y0125880D02*
X0033500Y0125880D01*
X0033500Y0122678D01*
X0032432Y0121610D01*
X0030297Y0121610D01*
X0032432Y0128056D02*
X0032432Y0129123D01*
X0033500Y0129123D01*
X0033500Y0128056D01*
X0032432Y0128056D01*
X0033500Y0131278D02*
X0027095Y0131278D01*
X0033500Y0135549D01*
X0027095Y0135549D01*
X0030297Y0137724D02*
X0029230Y0138791D01*
X0029230Y0140927D01*
X0030297Y0141994D01*
X0031365Y0141994D01*
X0031365Y0137724D01*
X0032432Y0137724D02*
X0030297Y0137724D01*
X0032432Y0137724D02*
X0033500Y0138791D01*
X0033500Y0140927D01*
X0029230Y0144169D02*
X0029230Y0146304D01*
X0028162Y0145237D02*
X0032432Y0145237D01*
X0033500Y0146304D01*
X0032432Y0148466D02*
X0029230Y0148466D01*
X0032432Y0148466D02*
X0033500Y0149534D01*
X0032432Y0150601D01*
X0033500Y0151669D01*
X0032432Y0152737D01*
X0029230Y0152737D01*
X0030297Y0154912D02*
X0032432Y0154912D01*
X0033500Y0155979D01*
X0033500Y0158115D01*
X0032432Y0159182D01*
X0030297Y0159182D01*
X0029230Y0158115D01*
X0029230Y0155979D01*
X0030297Y0154912D01*
X0029230Y0161357D02*
X0033500Y0161357D01*
X0031365Y0161357D02*
X0029230Y0163492D01*
X0029230Y0164560D01*
X0031365Y0166729D02*
X0029230Y0169931D01*
X0031365Y0166729D02*
X0033500Y0169931D01*
X0033500Y0166729D02*
X0027095Y0166729D01*
D11*
X0041800Y0068200D02*
X0041800Y0055400D01*
X0051800Y0055400D02*
X0051800Y0068200D01*
X0061800Y0068200D02*
X0061800Y0055400D01*
X0071800Y0055400D02*
X0071800Y0068200D01*
X0081800Y0068200D02*
X0081800Y0055400D01*
X0111800Y0055400D02*
X0111800Y0068200D01*
X0121800Y0068200D02*
X0121800Y0055400D01*
X0131800Y0055400D02*
X0131800Y0068200D01*
X0141800Y0068200D02*
X0141800Y0055400D01*
X0151800Y0055400D02*
X0151800Y0068200D01*
X0181800Y0068200D02*
X0181800Y0055400D01*
X0191800Y0055400D02*
X0191800Y0068200D01*
X0201800Y0068200D02*
X0201800Y0055400D01*
X0211800Y0055400D02*
X0211800Y0068200D01*
X0221800Y0068200D02*
X0221800Y0055400D01*
X0251800Y0055400D02*
X0251800Y0068200D01*
X0261800Y0068200D02*
X0261800Y0055400D01*
X0271800Y0055400D02*
X0271800Y0068200D01*
X0281800Y0068200D02*
X0281800Y0055400D01*
X0291800Y0055400D02*
X0291800Y0068200D01*
X0321800Y0068200D02*
X0321800Y0055400D01*
X0331800Y0055400D02*
X0331800Y0068200D01*
X0341800Y0068200D02*
X0341800Y0055400D01*
X0351800Y0055400D02*
X0351800Y0068200D01*
X0361800Y0068200D02*
X0361800Y0055400D01*
X0371800Y0055400D02*
X0371800Y0068200D01*
X0381800Y0068200D02*
X0381800Y0055400D01*
X0391800Y0055400D02*
X0391800Y0068200D01*
X0401800Y0068200D02*
X0401800Y0055400D01*
X0411800Y0055400D02*
X0411800Y0068200D01*
X0441800Y0068200D02*
X0441800Y0055400D01*
X0451800Y0055400D02*
X0451800Y0068200D01*
X0461800Y0068200D02*
X0461800Y0055400D01*
X0471800Y0055400D02*
X0471800Y0068200D01*
X0481800Y0068200D02*
X0481800Y0055400D01*
X0491800Y0055400D02*
X0491800Y0068200D01*
X0411800Y0155400D02*
X0411800Y0168200D01*
X0401800Y0168200D02*
X0401800Y0155400D01*
X0391800Y0155400D02*
X0391800Y0168200D01*
X0381800Y0168200D02*
X0381800Y0155400D01*
X0371800Y0155400D02*
X0371800Y0168200D01*
X0361800Y0168200D02*
X0361800Y0155400D01*
X0351800Y0155400D02*
X0351800Y0168200D01*
X0341800Y0168200D02*
X0341800Y0155400D01*
X0331800Y0155400D02*
X0331800Y0168200D01*
X0321800Y0168200D02*
X0321800Y0155400D01*
D12*
X0408219Y0126800D02*
X0423019Y0126800D01*
X0423019Y0116800D02*
X0408219Y0116800D01*
X0408219Y0106800D02*
X0423019Y0106800D01*
X0423019Y0096800D02*
X0408219Y0096800D01*
D13*
X0291800Y0091800D03*
X0291800Y0080550D03*
X0271800Y0074300D03*
X0221800Y0080550D03*
X0201800Y0074300D03*
X0151800Y0080550D03*
X0131800Y0074300D03*
X0081800Y0080550D03*
X0061800Y0074300D03*
X0221800Y0146800D03*
X0151800Y0156800D03*
X0081800Y0166800D03*
M02*
