%
M48
M72
T01C0.0236
T02C0.0276
T03C0.0400
T04C0.0440
%
T01
X36805Y9055
X37430Y9055
T02
X29180Y9180
X29180Y8055
X27180Y7430
X22180Y8055
X20180Y7430
X15180Y8055
X13180Y7430
X8180Y8055
X6180Y7430
X22180Y14680
X15180Y15680
X8180Y16680
T03
X4180Y6180
X5180Y6180
X6180Y6180
X7180Y6180
X8180Y6180
X11180Y6180
X12180Y6180
X13180Y6180
X14180Y6180
X15180Y6180
X18180Y6180
X19180Y6180
X20180Y6180
X21180Y6180
X22180Y6180
X25180Y6180
X26180Y6180
X27180Y6180
X28180Y6180
X29180Y6180
X32180Y6180
X33180Y6180
X34180Y6180
X35180Y6180
X36180Y6180
X37180Y6180
X38180Y6180
X39180Y6180
X40180Y6180
X41180Y6180
X44180Y6180
X45180Y6180
X46180Y6180
X47180Y6180
X48180Y6180
X49180Y6180
X41180Y16180
X40180Y16180
X39180Y16180
X38180Y16180
X37180Y16180
X36180Y16180
X35180Y16180
X34180Y16180
X33180Y16180
X32180Y16180
T04
X41562Y12680
X41562Y11680
X41562Y10680
X41562Y9680
M30
