G75*
%MOIN*%
%OFA0B0*%
%FSLAX25Y25*%
%IPPOS*%
%LPD*%
%AMOC8*
5,1,8,0,0,1.08239X$1,22.5*
%
%ADD10C,0.06000*%
%ADD11C,0.01600*%
%ADD12C,0.02400*%
%ADD13C,0.04356*%
%ADD14C,0.02402*%
D10*
X0041800Y0058800D02*
X0041800Y0064800D01*
X0051800Y0064800D02*
X0051800Y0058800D01*
X0061800Y0058800D02*
X0061800Y0064800D01*
X0071800Y0064800D02*
X0071800Y0058800D01*
X0081800Y0058800D02*
X0081800Y0064800D01*
X0111800Y0064800D02*
X0111800Y0058800D01*
X0121800Y0058800D02*
X0121800Y0064800D01*
X0131800Y0064800D02*
X0131800Y0058800D01*
X0141800Y0058800D02*
X0141800Y0064800D01*
X0151800Y0064800D02*
X0151800Y0058800D01*
X0181800Y0058800D02*
X0181800Y0064800D01*
X0191800Y0064800D02*
X0191800Y0058800D01*
X0201800Y0058800D02*
X0201800Y0064800D01*
X0211800Y0064800D02*
X0211800Y0058800D01*
X0221800Y0058800D02*
X0221800Y0064800D01*
X0251800Y0064800D02*
X0251800Y0058800D01*
X0261800Y0058800D02*
X0261800Y0064800D01*
X0271800Y0064800D02*
X0271800Y0058800D01*
X0281800Y0058800D02*
X0281800Y0064800D01*
X0291800Y0064800D02*
X0291800Y0058800D01*
X0321800Y0058800D02*
X0321800Y0064800D01*
X0331800Y0064800D02*
X0331800Y0058800D01*
X0341800Y0058800D02*
X0341800Y0064800D01*
X0351800Y0064800D02*
X0351800Y0058800D01*
X0361800Y0058800D02*
X0361800Y0064800D01*
X0371800Y0064800D02*
X0371800Y0058800D01*
X0381800Y0058800D02*
X0381800Y0064800D01*
X0391800Y0064800D02*
X0391800Y0058800D01*
X0401800Y0058800D02*
X0401800Y0064800D01*
X0411800Y0064800D02*
X0411800Y0058800D01*
X0441800Y0058800D02*
X0441800Y0064800D01*
X0451800Y0064800D02*
X0451800Y0058800D01*
X0461800Y0058800D02*
X0461800Y0064800D01*
X0471800Y0064800D02*
X0471800Y0058800D01*
X0481800Y0058800D02*
X0481800Y0064800D01*
X0491800Y0064800D02*
X0491800Y0058800D01*
X0411800Y0158800D02*
X0411800Y0164800D01*
X0401800Y0164800D02*
X0401800Y0158800D01*
X0391800Y0158800D02*
X0391800Y0164800D01*
X0381800Y0164800D02*
X0381800Y0158800D01*
X0371800Y0158800D02*
X0371800Y0164800D01*
X0361800Y0164800D02*
X0361800Y0158800D01*
X0351800Y0158800D02*
X0351800Y0164800D01*
X0341800Y0164800D02*
X0341800Y0158800D01*
X0331800Y0158800D02*
X0331800Y0164800D01*
X0321800Y0164800D02*
X0321800Y0158800D01*
D11*
X0022899Y0171921D02*
X0022899Y0036600D01*
X0497000Y0036600D01*
X0497000Y0072000D01*
X0430845Y0072000D01*
X0429081Y0072731D01*
X0427731Y0074081D01*
X0427000Y0075845D01*
X0427000Y0171921D01*
X0022899Y0171921D01*
X0022899Y0170870D02*
X0427000Y0170870D01*
X0427000Y0169272D02*
X0413024Y0169272D01*
X0412715Y0169400D02*
X0410885Y0169400D01*
X0409194Y0168700D01*
X0407900Y0167406D01*
X0407200Y0165715D01*
X0407200Y0157885D01*
X0407900Y0156194D01*
X0409194Y0154900D01*
X0410885Y0154200D01*
X0412715Y0154200D01*
X0414406Y0154900D01*
X0415700Y0156194D01*
X0416400Y0157885D01*
X0416400Y0165715D01*
X0415700Y0167406D01*
X0414406Y0168700D01*
X0412715Y0169400D01*
X0410576Y0169272D02*
X0403024Y0169272D01*
X0402715Y0169400D02*
X0400885Y0169400D01*
X0399194Y0168700D01*
X0397900Y0167406D01*
X0397200Y0165715D01*
X0397200Y0157885D01*
X0397900Y0156194D01*
X0399194Y0154900D01*
X0400885Y0154200D01*
X0402715Y0154200D01*
X0404406Y0154900D01*
X0405700Y0156194D01*
X0406400Y0157885D01*
X0406400Y0165715D01*
X0405700Y0167406D01*
X0404406Y0168700D01*
X0402715Y0169400D01*
X0400576Y0169272D02*
X0393024Y0169272D01*
X0392715Y0169400D02*
X0390885Y0169400D01*
X0389194Y0168700D01*
X0387900Y0167406D01*
X0387200Y0165715D01*
X0387200Y0157885D01*
X0387900Y0156194D01*
X0389194Y0154900D01*
X0390885Y0154200D01*
X0392715Y0154200D01*
X0394406Y0154900D01*
X0395700Y0156194D01*
X0396400Y0157885D01*
X0396400Y0165715D01*
X0395700Y0167406D01*
X0394406Y0168700D01*
X0392715Y0169400D01*
X0390576Y0169272D02*
X0383024Y0169272D01*
X0382715Y0169400D02*
X0380885Y0169400D01*
X0379194Y0168700D01*
X0377900Y0167406D01*
X0377200Y0165715D01*
X0377200Y0157885D01*
X0377900Y0156194D01*
X0379194Y0154900D01*
X0380885Y0154200D01*
X0382715Y0154200D01*
X0384406Y0154900D01*
X0385700Y0156194D01*
X0386400Y0157885D01*
X0386400Y0165715D01*
X0385700Y0167406D01*
X0384406Y0168700D01*
X0382715Y0169400D01*
X0380576Y0169272D02*
X0373024Y0169272D01*
X0372715Y0169400D02*
X0370885Y0169400D01*
X0369194Y0168700D01*
X0367900Y0167406D01*
X0367200Y0165715D01*
X0367200Y0157885D01*
X0367900Y0156194D01*
X0369194Y0154900D01*
X0370885Y0154200D01*
X0372715Y0154200D01*
X0374406Y0154900D01*
X0375700Y0156194D01*
X0376400Y0157885D01*
X0376400Y0165715D01*
X0375700Y0167406D01*
X0374406Y0168700D01*
X0372715Y0169400D01*
X0370576Y0169272D02*
X0363024Y0169272D01*
X0362715Y0169400D02*
X0360885Y0169400D01*
X0359194Y0168700D01*
X0357900Y0167406D01*
X0357200Y0165715D01*
X0357200Y0157885D01*
X0357900Y0156194D01*
X0359194Y0154900D01*
X0360885Y0154200D01*
X0362715Y0154200D01*
X0364406Y0154900D01*
X0365700Y0156194D01*
X0366400Y0157885D01*
X0366400Y0165715D01*
X0365700Y0167406D01*
X0364406Y0168700D01*
X0362715Y0169400D01*
X0360576Y0169272D02*
X0353024Y0169272D01*
X0352715Y0169400D02*
X0350885Y0169400D01*
X0349194Y0168700D01*
X0347900Y0167406D01*
X0347200Y0165715D01*
X0347200Y0157885D01*
X0347900Y0156194D01*
X0349194Y0154900D01*
X0350885Y0154200D01*
X0352715Y0154200D01*
X0354406Y0154900D01*
X0355700Y0156194D01*
X0356400Y0157885D01*
X0356400Y0165715D01*
X0355700Y0167406D01*
X0354406Y0168700D01*
X0352715Y0169400D01*
X0350576Y0169272D02*
X0343024Y0169272D01*
X0342715Y0169400D02*
X0340885Y0169400D01*
X0339194Y0168700D01*
X0337900Y0167406D01*
X0337200Y0165715D01*
X0337200Y0157885D01*
X0337900Y0156194D01*
X0339194Y0154900D01*
X0340885Y0154200D01*
X0342715Y0154200D01*
X0344406Y0154900D01*
X0345700Y0156194D01*
X0346400Y0157885D01*
X0346400Y0165715D01*
X0345700Y0167406D01*
X0344406Y0168700D01*
X0342715Y0169400D01*
X0340576Y0169272D02*
X0333024Y0169272D01*
X0332715Y0169400D02*
X0330885Y0169400D01*
X0329194Y0168700D01*
X0327900Y0167406D01*
X0327200Y0165715D01*
X0327200Y0157885D01*
X0327900Y0156194D01*
X0329194Y0154900D01*
X0330885Y0154200D01*
X0332715Y0154200D01*
X0334406Y0154900D01*
X0335700Y0156194D01*
X0336400Y0157885D01*
X0336400Y0165715D01*
X0335700Y0167406D01*
X0334406Y0168700D01*
X0332715Y0169400D01*
X0330576Y0169272D02*
X0323024Y0169272D01*
X0322715Y0169400D02*
X0320885Y0169400D01*
X0319194Y0168700D01*
X0317900Y0167406D01*
X0317200Y0165715D01*
X0317200Y0157885D01*
X0317900Y0156194D01*
X0319194Y0154900D01*
X0320885Y0154200D01*
X0322715Y0154200D01*
X0324406Y0154900D01*
X0325700Y0156194D01*
X0326400Y0157885D01*
X0326400Y0165715D01*
X0325700Y0167406D01*
X0324406Y0168700D01*
X0322715Y0169400D01*
X0320576Y0169272D02*
X0022899Y0169272D01*
X0022899Y0167673D02*
X0318168Y0167673D01*
X0317349Y0166075D02*
X0022899Y0166075D01*
X0022899Y0164476D02*
X0317200Y0164476D01*
X0317200Y0162878D02*
X0022899Y0162878D01*
X0022899Y0161279D02*
X0317200Y0161279D01*
X0317200Y0159681D02*
X0022899Y0159681D01*
X0022899Y0158082D02*
X0317200Y0158082D01*
X0317780Y0156484D02*
X0022899Y0156484D01*
X0022899Y0154885D02*
X0319230Y0154885D01*
X0324370Y0154885D02*
X0329230Y0154885D01*
X0327780Y0156484D02*
X0325820Y0156484D01*
X0326400Y0158082D02*
X0327200Y0158082D01*
X0327200Y0159681D02*
X0326400Y0159681D01*
X0326400Y0161279D02*
X0327200Y0161279D01*
X0327200Y0162878D02*
X0326400Y0162878D01*
X0326400Y0164476D02*
X0327200Y0164476D01*
X0327349Y0166075D02*
X0326251Y0166075D01*
X0325432Y0167673D02*
X0328168Y0167673D01*
X0335432Y0167673D02*
X0338168Y0167673D01*
X0337349Y0166075D02*
X0336251Y0166075D01*
X0336400Y0164476D02*
X0337200Y0164476D01*
X0337200Y0162878D02*
X0336400Y0162878D01*
X0336400Y0161279D02*
X0337200Y0161279D01*
X0337200Y0159681D02*
X0336400Y0159681D01*
X0336400Y0158082D02*
X0337200Y0158082D01*
X0337780Y0156484D02*
X0335820Y0156484D01*
X0334370Y0154885D02*
X0339230Y0154885D01*
X0344370Y0154885D02*
X0349230Y0154885D01*
X0347780Y0156484D02*
X0345820Y0156484D01*
X0346400Y0158082D02*
X0347200Y0158082D01*
X0347200Y0159681D02*
X0346400Y0159681D01*
X0346400Y0161279D02*
X0347200Y0161279D01*
X0347200Y0162878D02*
X0346400Y0162878D01*
X0346400Y0164476D02*
X0347200Y0164476D01*
X0347349Y0166075D02*
X0346251Y0166075D01*
X0345432Y0167673D02*
X0348168Y0167673D01*
X0355432Y0167673D02*
X0358168Y0167673D01*
X0357349Y0166075D02*
X0356251Y0166075D01*
X0356400Y0164476D02*
X0357200Y0164476D01*
X0357200Y0162878D02*
X0356400Y0162878D01*
X0356400Y0161279D02*
X0357200Y0161279D01*
X0357200Y0159681D02*
X0356400Y0159681D01*
X0356400Y0158082D02*
X0357200Y0158082D01*
X0357780Y0156484D02*
X0355820Y0156484D01*
X0354370Y0154885D02*
X0359230Y0154885D01*
X0364370Y0154885D02*
X0369230Y0154885D01*
X0367780Y0156484D02*
X0365820Y0156484D01*
X0366400Y0158082D02*
X0367200Y0158082D01*
X0367200Y0159681D02*
X0366400Y0159681D01*
X0366400Y0161279D02*
X0367200Y0161279D01*
X0367200Y0162878D02*
X0366400Y0162878D01*
X0366400Y0164476D02*
X0367200Y0164476D01*
X0367349Y0166075D02*
X0366251Y0166075D01*
X0365432Y0167673D02*
X0368168Y0167673D01*
X0375432Y0167673D02*
X0378168Y0167673D01*
X0377349Y0166075D02*
X0376251Y0166075D01*
X0376400Y0164476D02*
X0377200Y0164476D01*
X0377200Y0162878D02*
X0376400Y0162878D01*
X0376400Y0161279D02*
X0377200Y0161279D01*
X0377200Y0159681D02*
X0376400Y0159681D01*
X0376400Y0158082D02*
X0377200Y0158082D01*
X0377780Y0156484D02*
X0375820Y0156484D01*
X0374370Y0154885D02*
X0379230Y0154885D01*
X0384370Y0154885D02*
X0389230Y0154885D01*
X0387780Y0156484D02*
X0385820Y0156484D01*
X0386400Y0158082D02*
X0387200Y0158082D01*
X0387200Y0159681D02*
X0386400Y0159681D01*
X0386400Y0161279D02*
X0387200Y0161279D01*
X0387200Y0162878D02*
X0386400Y0162878D01*
X0386400Y0164476D02*
X0387200Y0164476D01*
X0387349Y0166075D02*
X0386251Y0166075D01*
X0385432Y0167673D02*
X0388168Y0167673D01*
X0395432Y0167673D02*
X0398168Y0167673D01*
X0397349Y0166075D02*
X0396251Y0166075D01*
X0396400Y0164476D02*
X0397200Y0164476D01*
X0397200Y0162878D02*
X0396400Y0162878D01*
X0396400Y0161279D02*
X0397200Y0161279D01*
X0397200Y0159681D02*
X0396400Y0159681D01*
X0396400Y0158082D02*
X0397200Y0158082D01*
X0397780Y0156484D02*
X0395820Y0156484D01*
X0394370Y0154885D02*
X0399230Y0154885D01*
X0404370Y0154885D02*
X0409230Y0154885D01*
X0407780Y0156484D02*
X0405820Y0156484D01*
X0406400Y0158082D02*
X0407200Y0158082D01*
X0407200Y0159681D02*
X0406400Y0159681D01*
X0406400Y0161279D02*
X0407200Y0161279D01*
X0407200Y0162878D02*
X0406400Y0162878D01*
X0406400Y0164476D02*
X0407200Y0164476D01*
X0407349Y0166075D02*
X0406251Y0166075D01*
X0405432Y0167673D02*
X0408168Y0167673D01*
X0415432Y0167673D02*
X0427000Y0167673D01*
X0427000Y0166075D02*
X0416251Y0166075D01*
X0416400Y0164476D02*
X0427000Y0164476D01*
X0427000Y0162878D02*
X0416400Y0162878D01*
X0416400Y0161279D02*
X0427000Y0161279D01*
X0427000Y0159681D02*
X0416400Y0159681D01*
X0416400Y0158082D02*
X0427000Y0158082D01*
X0427000Y0156484D02*
X0415820Y0156484D01*
X0414370Y0154885D02*
X0427000Y0154885D01*
X0427000Y0153287D02*
X0022899Y0153287D01*
X0022899Y0151688D02*
X0427000Y0151688D01*
X0427000Y0150090D02*
X0022899Y0150090D01*
X0022899Y0148491D02*
X0427000Y0148491D01*
X0427000Y0146893D02*
X0022899Y0146893D01*
X0022899Y0145294D02*
X0070364Y0145294D01*
X0071049Y0145578D02*
X0069660Y0145003D01*
X0068597Y0143940D01*
X0068022Y0142551D01*
X0068022Y0141049D01*
X0068597Y0139660D01*
X0069000Y0139257D01*
X0069000Y0068505D01*
X0067900Y0067406D01*
X0067200Y0065715D01*
X0067200Y0057885D01*
X0067900Y0056194D01*
X0069194Y0054900D01*
X0070885Y0054200D01*
X0072715Y0054200D01*
X0074406Y0054900D01*
X0075700Y0056194D01*
X0076400Y0057885D01*
X0076400Y0065715D01*
X0075700Y0067406D01*
X0074600Y0068505D01*
X0074600Y0139257D01*
X0075003Y0139660D01*
X0075578Y0141049D01*
X0075578Y0142551D01*
X0075003Y0143940D01*
X0073940Y0145003D01*
X0072551Y0145578D01*
X0071049Y0145578D01*
X0073236Y0145294D02*
X0427000Y0145294D01*
X0427000Y0143696D02*
X0075104Y0143696D01*
X0075578Y0142097D02*
X0427000Y0142097D01*
X0427000Y0140499D02*
X0075350Y0140499D01*
X0074600Y0138900D02*
X0427000Y0138900D01*
X0427000Y0137302D02*
X0074600Y0137302D01*
X0074600Y0135703D02*
X0427000Y0135703D01*
X0427000Y0134105D02*
X0144838Y0134105D01*
X0145003Y0133940D02*
X0143940Y0135003D01*
X0142551Y0135578D01*
X0141049Y0135578D01*
X0139660Y0135003D01*
X0138597Y0133940D01*
X0138022Y0132551D01*
X0138022Y0131049D01*
X0138597Y0129660D01*
X0138999Y0129258D01*
X0138999Y0068505D01*
X0137900Y0067406D01*
X0137200Y0065715D01*
X0137200Y0057885D01*
X0137900Y0056194D01*
X0139194Y0054900D01*
X0140885Y0054200D01*
X0142715Y0054200D01*
X0144406Y0054900D01*
X0145700Y0056194D01*
X0146400Y0057885D01*
X0146400Y0065715D01*
X0145700Y0067406D01*
X0144601Y0068505D01*
X0144601Y0129258D01*
X0145003Y0129660D01*
X0145578Y0131049D01*
X0145578Y0132551D01*
X0145003Y0133940D01*
X0145578Y0132506D02*
X0427000Y0132506D01*
X0427000Y0130908D02*
X0145520Y0130908D01*
X0144652Y0129309D02*
X0427000Y0129309D01*
X0427000Y0127711D02*
X0144601Y0127711D01*
X0144601Y0126112D02*
X0427000Y0126112D01*
X0427000Y0124514D02*
X0214429Y0124514D01*
X0213940Y0125003D02*
X0212551Y0125578D01*
X0211049Y0125578D01*
X0209660Y0125003D01*
X0208597Y0123940D01*
X0208022Y0122551D01*
X0208022Y0121049D01*
X0208597Y0119660D01*
X0208999Y0119258D01*
X0208999Y0068505D01*
X0207900Y0067406D01*
X0207200Y0065715D01*
X0207200Y0057885D01*
X0207900Y0056194D01*
X0209194Y0054900D01*
X0210885Y0054200D01*
X0212715Y0054200D01*
X0214406Y0054900D01*
X0215700Y0056194D01*
X0216400Y0057885D01*
X0216400Y0065715D01*
X0215700Y0067406D01*
X0214601Y0068505D01*
X0214601Y0119258D01*
X0215003Y0119660D01*
X0215578Y0121049D01*
X0215578Y0122551D01*
X0215003Y0123940D01*
X0213940Y0125003D01*
X0215427Y0122915D02*
X0427000Y0122915D01*
X0427000Y0121317D02*
X0215578Y0121317D01*
X0215027Y0119718D02*
X0427000Y0119718D01*
X0427000Y0118120D02*
X0214601Y0118120D01*
X0214601Y0116521D02*
X0427000Y0116521D01*
X0427000Y0114923D02*
X0284020Y0114923D01*
X0283940Y0115003D02*
X0282551Y0115578D01*
X0281049Y0115578D01*
X0279660Y0115003D01*
X0278597Y0113940D01*
X0278022Y0112551D01*
X0278022Y0111049D01*
X0278597Y0109660D01*
X0278999Y0109258D01*
X0278999Y0068505D01*
X0277900Y0067406D01*
X0277200Y0065715D01*
X0277200Y0057885D01*
X0277900Y0056194D01*
X0279194Y0054900D01*
X0280885Y0054200D01*
X0282715Y0054200D01*
X0284406Y0054900D01*
X0285700Y0056194D01*
X0286400Y0057885D01*
X0286400Y0065715D01*
X0285700Y0067406D01*
X0284601Y0068505D01*
X0284601Y0109258D01*
X0285003Y0109660D01*
X0285578Y0111049D01*
X0285578Y0112551D01*
X0285003Y0113940D01*
X0283940Y0115003D01*
X0285258Y0113324D02*
X0427000Y0113324D01*
X0427000Y0111726D02*
X0285578Y0111726D01*
X0285196Y0110127D02*
X0427000Y0110127D01*
X0427000Y0108529D02*
X0284601Y0108529D01*
X0284601Y0106930D02*
X0427000Y0106930D01*
X0427000Y0105332D02*
X0293146Y0105332D01*
X0292551Y0105578D02*
X0291049Y0105578D01*
X0289660Y0105003D01*
X0288597Y0103940D01*
X0288022Y0102551D01*
X0288022Y0101049D01*
X0288597Y0099660D01*
X0288999Y0099258D01*
X0288999Y0068505D01*
X0287900Y0067406D01*
X0287200Y0065715D01*
X0287200Y0057885D01*
X0287900Y0056194D01*
X0289194Y0054900D01*
X0290885Y0054200D01*
X0292715Y0054200D01*
X0294406Y0054900D01*
X0295700Y0056194D01*
X0296400Y0057885D01*
X0296400Y0065715D01*
X0295700Y0067406D01*
X0294601Y0068505D01*
X0294601Y0099258D01*
X0295003Y0099660D01*
X0295578Y0101049D01*
X0295578Y0102551D01*
X0295003Y0103940D01*
X0293940Y0105003D01*
X0292551Y0105578D01*
X0290454Y0105332D02*
X0284601Y0105332D01*
X0284601Y0103733D02*
X0288511Y0103733D01*
X0288022Y0102134D02*
X0284601Y0102134D01*
X0284601Y0100536D02*
X0288234Y0100536D01*
X0288999Y0098937D02*
X0284601Y0098937D01*
X0284601Y0097339D02*
X0288999Y0097339D01*
X0288999Y0095740D02*
X0284601Y0095740D01*
X0284601Y0094142D02*
X0288999Y0094142D01*
X0288999Y0092543D02*
X0284601Y0092543D01*
X0284601Y0090945D02*
X0288999Y0090945D01*
X0288999Y0089346D02*
X0284601Y0089346D01*
X0284601Y0087748D02*
X0288999Y0087748D01*
X0288999Y0086149D02*
X0284601Y0086149D01*
X0284601Y0084551D02*
X0288999Y0084551D01*
X0288999Y0082952D02*
X0284601Y0082952D01*
X0284601Y0081354D02*
X0288999Y0081354D01*
X0288999Y0079755D02*
X0284601Y0079755D01*
X0284601Y0078157D02*
X0288999Y0078157D01*
X0288999Y0076558D02*
X0284601Y0076558D01*
X0284601Y0074960D02*
X0288999Y0074960D01*
X0288999Y0073361D02*
X0284601Y0073361D01*
X0284601Y0071763D02*
X0288999Y0071763D01*
X0288999Y0070164D02*
X0284601Y0070164D01*
X0284601Y0068566D02*
X0288999Y0068566D01*
X0287719Y0066967D02*
X0285881Y0066967D01*
X0286400Y0065369D02*
X0287200Y0065369D01*
X0287200Y0063770D02*
X0286400Y0063770D01*
X0286400Y0062172D02*
X0287200Y0062172D01*
X0287200Y0060573D02*
X0286400Y0060573D01*
X0286400Y0058975D02*
X0287200Y0058975D01*
X0287411Y0057376D02*
X0286189Y0057376D01*
X0285283Y0055778D02*
X0288317Y0055778D01*
X0295283Y0055778D02*
X0318317Y0055778D01*
X0317900Y0056194D02*
X0319194Y0054900D01*
X0320885Y0054200D01*
X0322715Y0054200D01*
X0324406Y0054900D01*
X0325700Y0056194D01*
X0326400Y0057885D01*
X0326400Y0065715D01*
X0325700Y0067406D01*
X0324406Y0068700D01*
X0322715Y0069400D01*
X0320885Y0069400D01*
X0319194Y0068700D01*
X0317900Y0067406D01*
X0317200Y0065715D01*
X0317200Y0057885D01*
X0317900Y0056194D01*
X0317411Y0057376D02*
X0296189Y0057376D01*
X0296400Y0058975D02*
X0317200Y0058975D01*
X0317200Y0060573D02*
X0296400Y0060573D01*
X0296400Y0062172D02*
X0317200Y0062172D01*
X0317200Y0063770D02*
X0296400Y0063770D01*
X0296400Y0065369D02*
X0317200Y0065369D01*
X0317719Y0066967D02*
X0295881Y0066967D01*
X0294601Y0068566D02*
X0319060Y0068566D01*
X0324540Y0068566D02*
X0328817Y0068566D01*
X0328673Y0068461D02*
X0328139Y0067927D01*
X0327695Y0067316D01*
X0327352Y0066643D01*
X0327118Y0065924D01*
X0327000Y0065178D01*
X0327000Y0062000D01*
X0331600Y0062000D01*
X0331600Y0069600D01*
X0331422Y0069600D01*
X0330676Y0069482D01*
X0329957Y0069248D01*
X0329284Y0068905D01*
X0328673Y0068461D01*
X0327517Y0066967D02*
X0325881Y0066967D01*
X0326400Y0065369D02*
X0327030Y0065369D01*
X0327000Y0063770D02*
X0326400Y0063770D01*
X0326400Y0062172D02*
X0327000Y0062172D01*
X0327000Y0061600D02*
X0327000Y0058422D01*
X0327118Y0057676D01*
X0327352Y0056957D01*
X0327695Y0056284D01*
X0328139Y0055673D01*
X0328673Y0055139D01*
X0329284Y0054695D01*
X0329957Y0054352D01*
X0330676Y0054118D01*
X0331422Y0054000D01*
X0331600Y0054000D01*
X0331600Y0061600D01*
X0332000Y0061600D01*
X0332000Y0062000D01*
X0336600Y0062000D01*
X0336600Y0065178D01*
X0336482Y0065924D01*
X0336248Y0066643D01*
X0335905Y0067316D01*
X0335461Y0067927D01*
X0334927Y0068461D01*
X0334316Y0068905D01*
X0333643Y0069248D01*
X0332924Y0069482D01*
X0332178Y0069600D01*
X0332000Y0069600D01*
X0332000Y0062000D01*
X0331600Y0062000D01*
X0331600Y0061600D01*
X0327000Y0061600D01*
X0327000Y0060573D02*
X0326400Y0060573D01*
X0326400Y0058975D02*
X0327000Y0058975D01*
X0327216Y0057376D02*
X0326189Y0057376D01*
X0325283Y0055778D02*
X0328063Y0055778D01*
X0330488Y0054179D02*
X0263112Y0054179D01*
X0262924Y0054118D02*
X0263643Y0054352D01*
X0264316Y0054695D01*
X0264927Y0055139D01*
X0265461Y0055673D01*
X0265905Y0056284D01*
X0266248Y0056957D01*
X0266482Y0057676D01*
X0266600Y0058422D01*
X0266600Y0061600D01*
X0262000Y0061600D01*
X0262000Y0062000D01*
X0266600Y0062000D01*
X0266600Y0065178D01*
X0266482Y0065924D01*
X0266248Y0066643D01*
X0265905Y0067316D01*
X0265461Y0067927D01*
X0264927Y0068461D01*
X0264316Y0068905D01*
X0263643Y0069248D01*
X0262924Y0069482D01*
X0262178Y0069600D01*
X0262000Y0069600D01*
X0262000Y0062000D01*
X0261600Y0062000D01*
X0261600Y0069600D01*
X0261422Y0069600D01*
X0260676Y0069482D01*
X0259957Y0069248D01*
X0259284Y0068905D01*
X0258673Y0068461D01*
X0258139Y0067927D01*
X0257695Y0067316D01*
X0257352Y0066643D01*
X0257118Y0065924D01*
X0257000Y0065178D01*
X0257000Y0062000D01*
X0261600Y0062000D01*
X0261600Y0061600D01*
X0262000Y0061600D01*
X0262000Y0054000D01*
X0262178Y0054000D01*
X0262924Y0054118D01*
X0262000Y0054179D02*
X0261600Y0054179D01*
X0261600Y0054000D02*
X0261600Y0061600D01*
X0257000Y0061600D01*
X0257000Y0058422D01*
X0257118Y0057676D01*
X0257352Y0056957D01*
X0257695Y0056284D01*
X0258139Y0055673D01*
X0258673Y0055139D01*
X0259284Y0054695D01*
X0259957Y0054352D01*
X0260676Y0054118D01*
X0261422Y0054000D01*
X0261600Y0054000D01*
X0260488Y0054179D02*
X0193112Y0054179D01*
X0192924Y0054118D02*
X0193643Y0054352D01*
X0194316Y0054695D01*
X0194927Y0055139D01*
X0195461Y0055673D01*
X0195905Y0056284D01*
X0196248Y0056957D01*
X0196482Y0057676D01*
X0196600Y0058422D01*
X0196600Y0061600D01*
X0192000Y0061600D01*
X0192000Y0062000D01*
X0196600Y0062000D01*
X0196600Y0065178D01*
X0196482Y0065924D01*
X0196248Y0066643D01*
X0195905Y0067316D01*
X0195461Y0067927D01*
X0194927Y0068461D01*
X0194316Y0068905D01*
X0193643Y0069248D01*
X0192924Y0069482D01*
X0192178Y0069600D01*
X0192000Y0069600D01*
X0192000Y0062000D01*
X0191600Y0062000D01*
X0191600Y0069600D01*
X0191422Y0069600D01*
X0190676Y0069482D01*
X0189957Y0069248D01*
X0189284Y0068905D01*
X0188673Y0068461D01*
X0188139Y0067927D01*
X0187695Y0067316D01*
X0187352Y0066643D01*
X0187118Y0065924D01*
X0187000Y0065178D01*
X0187000Y0062000D01*
X0191600Y0062000D01*
X0191600Y0061600D01*
X0192000Y0061600D01*
X0192000Y0054000D01*
X0192178Y0054000D01*
X0192924Y0054118D01*
X0192000Y0054179D02*
X0191600Y0054179D01*
X0191600Y0054000D02*
X0191600Y0061600D01*
X0187000Y0061600D01*
X0187000Y0058422D01*
X0187118Y0057676D01*
X0187352Y0056957D01*
X0187695Y0056284D01*
X0188139Y0055673D01*
X0188673Y0055139D01*
X0189284Y0054695D01*
X0189957Y0054352D01*
X0190676Y0054118D01*
X0191422Y0054000D01*
X0191600Y0054000D01*
X0190488Y0054179D02*
X0123112Y0054179D01*
X0122924Y0054118D02*
X0123643Y0054352D01*
X0124316Y0054695D01*
X0124927Y0055139D01*
X0125461Y0055673D01*
X0125905Y0056284D01*
X0126248Y0056957D01*
X0126482Y0057676D01*
X0126600Y0058422D01*
X0126600Y0061600D01*
X0122000Y0061600D01*
X0122000Y0062000D01*
X0126600Y0062000D01*
X0126600Y0065178D01*
X0126482Y0065924D01*
X0126248Y0066643D01*
X0125905Y0067316D01*
X0125461Y0067927D01*
X0124927Y0068461D01*
X0124316Y0068905D01*
X0123643Y0069248D01*
X0122924Y0069482D01*
X0122178Y0069600D01*
X0122000Y0069600D01*
X0122000Y0062000D01*
X0121600Y0062000D01*
X0121600Y0069600D01*
X0121422Y0069600D01*
X0120676Y0069482D01*
X0119957Y0069248D01*
X0119284Y0068905D01*
X0118673Y0068461D01*
X0118139Y0067927D01*
X0117695Y0067316D01*
X0117352Y0066643D01*
X0117118Y0065924D01*
X0117000Y0065178D01*
X0117000Y0062000D01*
X0121600Y0062000D01*
X0121600Y0061600D01*
X0122000Y0061600D01*
X0122000Y0054000D01*
X0122178Y0054000D01*
X0122924Y0054118D01*
X0122000Y0054179D02*
X0121600Y0054179D01*
X0121600Y0054000D02*
X0121600Y0061600D01*
X0117000Y0061600D01*
X0117000Y0058422D01*
X0117118Y0057676D01*
X0117352Y0056957D01*
X0117695Y0056284D01*
X0118139Y0055673D01*
X0118673Y0055139D01*
X0119284Y0054695D01*
X0119957Y0054352D01*
X0120676Y0054118D01*
X0121422Y0054000D01*
X0121600Y0054000D01*
X0120488Y0054179D02*
X0053112Y0054179D01*
X0052924Y0054118D02*
X0053643Y0054352D01*
X0054316Y0054695D01*
X0054927Y0055139D01*
X0055461Y0055673D01*
X0055905Y0056284D01*
X0056248Y0056957D01*
X0056482Y0057676D01*
X0056600Y0058422D01*
X0056600Y0061600D01*
X0052000Y0061600D01*
X0052000Y0062000D01*
X0056600Y0062000D01*
X0056600Y0065178D01*
X0056482Y0065924D01*
X0056248Y0066643D01*
X0055905Y0067316D01*
X0055461Y0067927D01*
X0054927Y0068461D01*
X0054316Y0068905D01*
X0053643Y0069248D01*
X0052924Y0069482D01*
X0052178Y0069600D01*
X0052000Y0069600D01*
X0052000Y0062000D01*
X0051600Y0062000D01*
X0051600Y0069600D01*
X0051422Y0069600D01*
X0050676Y0069482D01*
X0049957Y0069248D01*
X0049284Y0068905D01*
X0048673Y0068461D01*
X0048139Y0067927D01*
X0047695Y0067316D01*
X0047352Y0066643D01*
X0047118Y0065924D01*
X0047000Y0065178D01*
X0047000Y0062000D01*
X0051600Y0062000D01*
X0051600Y0061600D01*
X0052000Y0061600D01*
X0052000Y0054000D01*
X0052178Y0054000D01*
X0052924Y0054118D01*
X0052000Y0054179D02*
X0051600Y0054179D01*
X0051600Y0054000D02*
X0051600Y0061600D01*
X0047000Y0061600D01*
X0047000Y0058422D01*
X0047118Y0057676D01*
X0047352Y0056957D01*
X0047695Y0056284D01*
X0048139Y0055673D01*
X0048673Y0055139D01*
X0049284Y0054695D01*
X0049957Y0054352D01*
X0050676Y0054118D01*
X0051422Y0054000D01*
X0051600Y0054000D01*
X0050488Y0054179D02*
X0022899Y0054179D01*
X0022899Y0052581D02*
X0409000Y0052581D01*
X0409000Y0051243D02*
X0409426Y0050214D01*
X0414426Y0045214D01*
X0415214Y0044426D01*
X0416243Y0044000D01*
X0467357Y0044000D01*
X0468386Y0044426D01*
X0473386Y0049426D01*
X0474174Y0050214D01*
X0474600Y0051243D01*
X0474600Y0055095D01*
X0475700Y0056194D01*
X0476400Y0057885D01*
X0476400Y0065715D01*
X0475700Y0067406D01*
X0474406Y0068700D01*
X0472715Y0069400D01*
X0470885Y0069400D01*
X0469194Y0068700D01*
X0467900Y0067406D01*
X0467200Y0065715D01*
X0467200Y0057885D01*
X0467900Y0056194D01*
X0469000Y0055095D01*
X0469000Y0052960D01*
X0465640Y0049600D01*
X0417960Y0049600D01*
X0414600Y0052960D01*
X0414600Y0055095D01*
X0415700Y0056194D01*
X0416400Y0057885D01*
X0416400Y0065715D01*
X0415700Y0067406D01*
X0414406Y0068700D01*
X0412715Y0069400D01*
X0410885Y0069400D01*
X0409194Y0068700D01*
X0407900Y0067406D01*
X0407200Y0065715D01*
X0407200Y0057885D01*
X0407900Y0056194D01*
X0409000Y0055095D01*
X0409000Y0051243D01*
X0409108Y0050982D02*
X0022899Y0050982D01*
X0022899Y0049384D02*
X0410257Y0049384D01*
X0411855Y0047785D02*
X0022899Y0047785D01*
X0022899Y0046187D02*
X0413454Y0046187D01*
X0415052Y0044588D02*
X0022899Y0044588D01*
X0022899Y0042990D02*
X0497000Y0042990D01*
X0497000Y0044588D02*
X0468548Y0044588D01*
X0470146Y0046187D02*
X0497000Y0046187D01*
X0497000Y0047785D02*
X0471745Y0047785D01*
X0473343Y0049384D02*
X0497000Y0049384D01*
X0497000Y0050982D02*
X0474492Y0050982D01*
X0474600Y0052581D02*
X0497000Y0052581D01*
X0497000Y0054179D02*
X0474600Y0054179D01*
X0475283Y0055778D02*
X0478317Y0055778D01*
X0477900Y0056194D02*
X0479194Y0054900D01*
X0480885Y0054200D01*
X0482715Y0054200D01*
X0484406Y0054900D01*
X0485700Y0056194D01*
X0486400Y0057885D01*
X0486400Y0065715D01*
X0485700Y0067406D01*
X0484406Y0068700D01*
X0482715Y0069400D01*
X0480885Y0069400D01*
X0479194Y0068700D01*
X0477900Y0067406D01*
X0477200Y0065715D01*
X0477200Y0057885D01*
X0477900Y0056194D01*
X0477411Y0057376D02*
X0476189Y0057376D01*
X0476400Y0058975D02*
X0477200Y0058975D01*
X0477200Y0060573D02*
X0476400Y0060573D01*
X0476400Y0062172D02*
X0477200Y0062172D01*
X0477200Y0063770D02*
X0476400Y0063770D01*
X0476400Y0065369D02*
X0477200Y0065369D01*
X0477719Y0066967D02*
X0475881Y0066967D01*
X0474540Y0068566D02*
X0479060Y0068566D01*
X0484540Y0068566D02*
X0489060Y0068566D01*
X0489194Y0068700D02*
X0487900Y0067406D01*
X0487200Y0065715D01*
X0487200Y0057885D01*
X0487900Y0056194D01*
X0489194Y0054900D01*
X0490885Y0054200D01*
X0492715Y0054200D01*
X0494406Y0054900D01*
X0495700Y0056194D01*
X0496400Y0057885D01*
X0496400Y0065715D01*
X0495700Y0067406D01*
X0494406Y0068700D01*
X0492715Y0069400D01*
X0490885Y0069400D01*
X0489194Y0068700D01*
X0487719Y0066967D02*
X0485881Y0066967D01*
X0486400Y0065369D02*
X0487200Y0065369D01*
X0487200Y0063770D02*
X0486400Y0063770D01*
X0486400Y0062172D02*
X0487200Y0062172D01*
X0487200Y0060573D02*
X0486400Y0060573D01*
X0486400Y0058975D02*
X0487200Y0058975D01*
X0487411Y0057376D02*
X0486189Y0057376D01*
X0485283Y0055778D02*
X0488317Y0055778D01*
X0495283Y0055778D02*
X0497000Y0055778D01*
X0497000Y0057376D02*
X0496189Y0057376D01*
X0496400Y0058975D02*
X0497000Y0058975D01*
X0497000Y0060573D02*
X0496400Y0060573D01*
X0496400Y0062172D02*
X0497000Y0062172D01*
X0497000Y0063770D02*
X0496400Y0063770D01*
X0496400Y0065369D02*
X0497000Y0065369D01*
X0497000Y0066967D02*
X0495881Y0066967D01*
X0497000Y0068566D02*
X0494540Y0068566D01*
X0497000Y0070164D02*
X0294601Y0070164D01*
X0294601Y0071763D02*
X0497000Y0071763D01*
X0469060Y0068566D02*
X0464540Y0068566D01*
X0464406Y0068700D02*
X0462715Y0069400D01*
X0460885Y0069400D01*
X0459194Y0068700D01*
X0457900Y0067406D01*
X0457200Y0065715D01*
X0457200Y0057885D01*
X0457900Y0056194D01*
X0459194Y0054900D01*
X0460885Y0054200D01*
X0462715Y0054200D01*
X0464406Y0054900D01*
X0465700Y0056194D01*
X0466400Y0057885D01*
X0466400Y0065715D01*
X0465700Y0067406D01*
X0464406Y0068700D01*
X0465881Y0066967D02*
X0467719Y0066967D01*
X0467200Y0065369D02*
X0466400Y0065369D01*
X0466400Y0063770D02*
X0467200Y0063770D01*
X0467200Y0062172D02*
X0466400Y0062172D01*
X0466400Y0060573D02*
X0467200Y0060573D01*
X0467200Y0058975D02*
X0466400Y0058975D01*
X0466189Y0057376D02*
X0467411Y0057376D01*
X0468317Y0055778D02*
X0465283Y0055778D01*
X0469000Y0054179D02*
X0443112Y0054179D01*
X0442924Y0054118D02*
X0443643Y0054352D01*
X0444316Y0054695D01*
X0444927Y0055139D01*
X0445461Y0055673D01*
X0445905Y0056284D01*
X0446248Y0056957D01*
X0446482Y0057676D01*
X0446600Y0058422D01*
X0446600Y0061600D01*
X0442000Y0061600D01*
X0442000Y0062000D01*
X0446600Y0062000D01*
X0446600Y0065178D01*
X0446482Y0065924D01*
X0446248Y0066643D01*
X0445905Y0067316D01*
X0445461Y0067927D01*
X0444927Y0068461D01*
X0444316Y0068905D01*
X0443643Y0069248D01*
X0442924Y0069482D01*
X0442178Y0069600D01*
X0442000Y0069600D01*
X0442000Y0062000D01*
X0441600Y0062000D01*
X0441600Y0069600D01*
X0441422Y0069600D01*
X0440676Y0069482D01*
X0439957Y0069248D01*
X0439284Y0068905D01*
X0438673Y0068461D01*
X0438139Y0067927D01*
X0437695Y0067316D01*
X0437352Y0066643D01*
X0437118Y0065924D01*
X0437000Y0065178D01*
X0437000Y0062000D01*
X0441600Y0062000D01*
X0441600Y0061600D01*
X0442000Y0061600D01*
X0442000Y0054000D01*
X0442178Y0054000D01*
X0442924Y0054118D01*
X0442000Y0054179D02*
X0441600Y0054179D01*
X0441600Y0054000D02*
X0441600Y0061600D01*
X0437000Y0061600D01*
X0437000Y0058422D01*
X0437118Y0057676D01*
X0437352Y0056957D01*
X0437695Y0056284D01*
X0438139Y0055673D01*
X0438673Y0055139D01*
X0439284Y0054695D01*
X0439957Y0054352D01*
X0440676Y0054118D01*
X0441422Y0054000D01*
X0441600Y0054000D01*
X0440488Y0054179D02*
X0414600Y0054179D01*
X0414979Y0052581D02*
X0468621Y0052581D01*
X0467022Y0050982D02*
X0416578Y0050982D01*
X0409000Y0054179D02*
X0333112Y0054179D01*
X0332924Y0054118D02*
X0333643Y0054352D01*
X0334316Y0054695D01*
X0334927Y0055139D01*
X0335461Y0055673D01*
X0335905Y0056284D01*
X0336248Y0056957D01*
X0336482Y0057676D01*
X0336600Y0058422D01*
X0336600Y0061600D01*
X0332000Y0061600D01*
X0332000Y0054000D01*
X0332178Y0054000D01*
X0332924Y0054118D01*
X0332000Y0054179D02*
X0331600Y0054179D01*
X0331600Y0055778D02*
X0332000Y0055778D01*
X0332000Y0057376D02*
X0331600Y0057376D01*
X0331600Y0058975D02*
X0332000Y0058975D01*
X0332000Y0060573D02*
X0331600Y0060573D01*
X0331600Y0062172D02*
X0332000Y0062172D01*
X0332000Y0063770D02*
X0331600Y0063770D01*
X0331600Y0065369D02*
X0332000Y0065369D01*
X0332000Y0066967D02*
X0331600Y0066967D01*
X0331600Y0068566D02*
X0332000Y0068566D01*
X0334783Y0068566D02*
X0339060Y0068566D01*
X0339194Y0068700D02*
X0337900Y0067406D01*
X0337200Y0065715D01*
X0337200Y0057885D01*
X0337900Y0056194D01*
X0339194Y0054900D01*
X0340885Y0054200D01*
X0342715Y0054200D01*
X0344406Y0054900D01*
X0345700Y0056194D01*
X0346400Y0057885D01*
X0346400Y0065715D01*
X0345700Y0067406D01*
X0344406Y0068700D01*
X0342715Y0069400D01*
X0340885Y0069400D01*
X0339194Y0068700D01*
X0337719Y0066967D02*
X0336083Y0066967D01*
X0336570Y0065369D02*
X0337200Y0065369D01*
X0337200Y0063770D02*
X0336600Y0063770D01*
X0336600Y0062172D02*
X0337200Y0062172D01*
X0337200Y0060573D02*
X0336600Y0060573D01*
X0336600Y0058975D02*
X0337200Y0058975D01*
X0337411Y0057376D02*
X0336384Y0057376D01*
X0335537Y0055778D02*
X0338317Y0055778D01*
X0345283Y0055778D02*
X0348317Y0055778D01*
X0347900Y0056194D02*
X0349194Y0054900D01*
X0350885Y0054200D01*
X0352715Y0054200D01*
X0354406Y0054900D01*
X0355700Y0056194D01*
X0356400Y0057885D01*
X0356400Y0065715D01*
X0355700Y0067406D01*
X0354406Y0068700D01*
X0352715Y0069400D01*
X0350885Y0069400D01*
X0349194Y0068700D01*
X0347900Y0067406D01*
X0347200Y0065715D01*
X0347200Y0057885D01*
X0347900Y0056194D01*
X0347411Y0057376D02*
X0346189Y0057376D01*
X0346400Y0058975D02*
X0347200Y0058975D01*
X0347200Y0060573D02*
X0346400Y0060573D01*
X0346400Y0062172D02*
X0347200Y0062172D01*
X0347200Y0063770D02*
X0346400Y0063770D01*
X0346400Y0065369D02*
X0347200Y0065369D01*
X0347719Y0066967D02*
X0345881Y0066967D01*
X0344540Y0068566D02*
X0349060Y0068566D01*
X0354540Y0068566D02*
X0359060Y0068566D01*
X0359194Y0068700D02*
X0357900Y0067406D01*
X0357200Y0065715D01*
X0357200Y0057885D01*
X0357900Y0056194D01*
X0359194Y0054900D01*
X0360885Y0054200D01*
X0362715Y0054200D01*
X0364406Y0054900D01*
X0365700Y0056194D01*
X0366400Y0057885D01*
X0366400Y0065715D01*
X0365700Y0067406D01*
X0364406Y0068700D01*
X0362715Y0069400D01*
X0360885Y0069400D01*
X0359194Y0068700D01*
X0357719Y0066967D02*
X0355881Y0066967D01*
X0356400Y0065369D02*
X0357200Y0065369D01*
X0357200Y0063770D02*
X0356400Y0063770D01*
X0356400Y0062172D02*
X0357200Y0062172D01*
X0357200Y0060573D02*
X0356400Y0060573D01*
X0356400Y0058975D02*
X0357200Y0058975D01*
X0357411Y0057376D02*
X0356189Y0057376D01*
X0355283Y0055778D02*
X0358317Y0055778D01*
X0365283Y0055778D02*
X0368317Y0055778D01*
X0367900Y0056194D02*
X0369194Y0054900D01*
X0370885Y0054200D01*
X0372715Y0054200D01*
X0374406Y0054900D01*
X0375700Y0056194D01*
X0376400Y0057885D01*
X0376400Y0065715D01*
X0375700Y0067406D01*
X0374406Y0068700D01*
X0372715Y0069400D01*
X0370885Y0069400D01*
X0369194Y0068700D01*
X0367900Y0067406D01*
X0367200Y0065715D01*
X0367200Y0057885D01*
X0367900Y0056194D01*
X0367411Y0057376D02*
X0366189Y0057376D01*
X0366400Y0058975D02*
X0367200Y0058975D01*
X0367200Y0060573D02*
X0366400Y0060573D01*
X0366400Y0062172D02*
X0367200Y0062172D01*
X0367200Y0063770D02*
X0366400Y0063770D01*
X0366400Y0065369D02*
X0367200Y0065369D01*
X0367719Y0066967D02*
X0365881Y0066967D01*
X0364540Y0068566D02*
X0369060Y0068566D01*
X0374540Y0068566D02*
X0379060Y0068566D01*
X0379194Y0068700D02*
X0377900Y0067406D01*
X0377200Y0065715D01*
X0377200Y0057885D01*
X0377900Y0056194D01*
X0379194Y0054900D01*
X0380885Y0054200D01*
X0382715Y0054200D01*
X0384406Y0054900D01*
X0385700Y0056194D01*
X0386400Y0057885D01*
X0386400Y0065715D01*
X0385700Y0067406D01*
X0384406Y0068700D01*
X0382715Y0069400D01*
X0380885Y0069400D01*
X0379194Y0068700D01*
X0377719Y0066967D02*
X0375881Y0066967D01*
X0376400Y0065369D02*
X0377200Y0065369D01*
X0377200Y0063770D02*
X0376400Y0063770D01*
X0376400Y0062172D02*
X0377200Y0062172D01*
X0377200Y0060573D02*
X0376400Y0060573D01*
X0376400Y0058975D02*
X0377200Y0058975D01*
X0377411Y0057376D02*
X0376189Y0057376D01*
X0375283Y0055778D02*
X0378317Y0055778D01*
X0385283Y0055778D02*
X0388317Y0055778D01*
X0387900Y0056194D02*
X0389194Y0054900D01*
X0390885Y0054200D01*
X0392715Y0054200D01*
X0394406Y0054900D01*
X0395700Y0056194D01*
X0396400Y0057885D01*
X0396400Y0065715D01*
X0395700Y0067406D01*
X0394406Y0068700D01*
X0392715Y0069400D01*
X0390885Y0069400D01*
X0389194Y0068700D01*
X0387900Y0067406D01*
X0387200Y0065715D01*
X0387200Y0057885D01*
X0387900Y0056194D01*
X0387411Y0057376D02*
X0386189Y0057376D01*
X0386400Y0058975D02*
X0387200Y0058975D01*
X0387200Y0060573D02*
X0386400Y0060573D01*
X0386400Y0062172D02*
X0387200Y0062172D01*
X0387200Y0063770D02*
X0386400Y0063770D01*
X0386400Y0065369D02*
X0387200Y0065369D01*
X0387719Y0066967D02*
X0385881Y0066967D01*
X0384540Y0068566D02*
X0389060Y0068566D01*
X0394540Y0068566D02*
X0399060Y0068566D01*
X0399194Y0068700D02*
X0397900Y0067406D01*
X0397200Y0065715D01*
X0397200Y0057885D01*
X0397900Y0056194D01*
X0399194Y0054900D01*
X0400885Y0054200D01*
X0402715Y0054200D01*
X0404406Y0054900D01*
X0405700Y0056194D01*
X0406400Y0057885D01*
X0406400Y0065715D01*
X0405700Y0067406D01*
X0404406Y0068700D01*
X0402715Y0069400D01*
X0400885Y0069400D01*
X0399194Y0068700D01*
X0397719Y0066967D02*
X0395881Y0066967D01*
X0396400Y0065369D02*
X0397200Y0065369D01*
X0397200Y0063770D02*
X0396400Y0063770D01*
X0396400Y0062172D02*
X0397200Y0062172D01*
X0397200Y0060573D02*
X0396400Y0060573D01*
X0396400Y0058975D02*
X0397200Y0058975D01*
X0397411Y0057376D02*
X0396189Y0057376D01*
X0395283Y0055778D02*
X0398317Y0055778D01*
X0405283Y0055778D02*
X0408317Y0055778D01*
X0407411Y0057376D02*
X0406189Y0057376D01*
X0406400Y0058975D02*
X0407200Y0058975D01*
X0407200Y0060573D02*
X0406400Y0060573D01*
X0406400Y0062172D02*
X0407200Y0062172D01*
X0407200Y0063770D02*
X0406400Y0063770D01*
X0406400Y0065369D02*
X0407200Y0065369D01*
X0407719Y0066967D02*
X0405881Y0066967D01*
X0404540Y0068566D02*
X0409060Y0068566D01*
X0414540Y0068566D02*
X0438817Y0068566D01*
X0437517Y0066967D02*
X0415881Y0066967D01*
X0416400Y0065369D02*
X0437030Y0065369D01*
X0437000Y0063770D02*
X0416400Y0063770D01*
X0416400Y0062172D02*
X0437000Y0062172D01*
X0437000Y0060573D02*
X0416400Y0060573D01*
X0416400Y0058975D02*
X0437000Y0058975D01*
X0437216Y0057376D02*
X0416189Y0057376D01*
X0415283Y0055778D02*
X0438063Y0055778D01*
X0441600Y0055778D02*
X0442000Y0055778D01*
X0442000Y0057376D02*
X0441600Y0057376D01*
X0441600Y0058975D02*
X0442000Y0058975D01*
X0442000Y0060573D02*
X0441600Y0060573D01*
X0441600Y0062172D02*
X0442000Y0062172D01*
X0442000Y0063770D02*
X0441600Y0063770D01*
X0441600Y0065369D02*
X0442000Y0065369D01*
X0442000Y0066967D02*
X0441600Y0066967D01*
X0441600Y0068566D02*
X0442000Y0068566D01*
X0444783Y0068566D02*
X0449060Y0068566D01*
X0449194Y0068700D02*
X0447900Y0067406D01*
X0447200Y0065715D01*
X0447200Y0057885D01*
X0447900Y0056194D01*
X0449194Y0054900D01*
X0450885Y0054200D01*
X0452715Y0054200D01*
X0454406Y0054900D01*
X0455700Y0056194D01*
X0456400Y0057885D01*
X0456400Y0065715D01*
X0455700Y0067406D01*
X0454406Y0068700D01*
X0452715Y0069400D01*
X0450885Y0069400D01*
X0449194Y0068700D01*
X0447719Y0066967D02*
X0446083Y0066967D01*
X0446570Y0065369D02*
X0447200Y0065369D01*
X0447200Y0063770D02*
X0446600Y0063770D01*
X0446600Y0062172D02*
X0447200Y0062172D01*
X0447200Y0060573D02*
X0446600Y0060573D01*
X0446600Y0058975D02*
X0447200Y0058975D01*
X0447411Y0057376D02*
X0446384Y0057376D01*
X0445537Y0055778D02*
X0448317Y0055778D01*
X0455283Y0055778D02*
X0458317Y0055778D01*
X0457411Y0057376D02*
X0456189Y0057376D01*
X0456400Y0058975D02*
X0457200Y0058975D01*
X0457200Y0060573D02*
X0456400Y0060573D01*
X0456400Y0062172D02*
X0457200Y0062172D01*
X0457200Y0063770D02*
X0456400Y0063770D01*
X0456400Y0065369D02*
X0457200Y0065369D01*
X0457719Y0066967D02*
X0455881Y0066967D01*
X0454540Y0068566D02*
X0459060Y0068566D01*
X0428450Y0073361D02*
X0294601Y0073361D01*
X0294601Y0074960D02*
X0427367Y0074960D01*
X0427000Y0076558D02*
X0294601Y0076558D01*
X0294601Y0078157D02*
X0427000Y0078157D01*
X0427000Y0079755D02*
X0294601Y0079755D01*
X0294601Y0081354D02*
X0427000Y0081354D01*
X0427000Y0082952D02*
X0294601Y0082952D01*
X0294601Y0084551D02*
X0427000Y0084551D01*
X0427000Y0086149D02*
X0294601Y0086149D01*
X0294601Y0087748D02*
X0427000Y0087748D01*
X0427000Y0089346D02*
X0294601Y0089346D01*
X0294601Y0090945D02*
X0427000Y0090945D01*
X0427000Y0092543D02*
X0294601Y0092543D01*
X0294601Y0094142D02*
X0427000Y0094142D01*
X0427000Y0095740D02*
X0294601Y0095740D01*
X0294601Y0097339D02*
X0427000Y0097339D01*
X0427000Y0098937D02*
X0294601Y0098937D01*
X0295366Y0100536D02*
X0427000Y0100536D01*
X0427000Y0102134D02*
X0295578Y0102134D01*
X0295089Y0103733D02*
X0427000Y0103733D01*
X0279580Y0114923D02*
X0214601Y0114923D01*
X0214601Y0113324D02*
X0278342Y0113324D01*
X0278022Y0111726D02*
X0214601Y0111726D01*
X0214601Y0110127D02*
X0278404Y0110127D01*
X0278999Y0108529D02*
X0214601Y0108529D01*
X0214601Y0106930D02*
X0278999Y0106930D01*
X0278999Y0105332D02*
X0223146Y0105332D01*
X0222551Y0105578D02*
X0221049Y0105578D01*
X0219660Y0105003D01*
X0218597Y0103940D01*
X0218022Y0102551D01*
X0218022Y0101049D01*
X0218597Y0099660D01*
X0218999Y0099258D01*
X0218999Y0068505D01*
X0217900Y0067406D01*
X0217200Y0065715D01*
X0217200Y0057885D01*
X0217900Y0056194D01*
X0219194Y0054900D01*
X0220885Y0054200D01*
X0222715Y0054200D01*
X0224406Y0054900D01*
X0225700Y0056194D01*
X0226400Y0057885D01*
X0226400Y0065715D01*
X0225700Y0067406D01*
X0224601Y0068505D01*
X0224601Y0099258D01*
X0225003Y0099660D01*
X0225578Y0101049D01*
X0225578Y0102551D01*
X0225003Y0103940D01*
X0223940Y0105003D01*
X0222551Y0105578D01*
X0220454Y0105332D02*
X0214601Y0105332D01*
X0214601Y0103733D02*
X0218511Y0103733D01*
X0218022Y0102134D02*
X0214601Y0102134D01*
X0214601Y0100536D02*
X0218234Y0100536D01*
X0218999Y0098937D02*
X0214601Y0098937D01*
X0214601Y0097339D02*
X0218999Y0097339D01*
X0218999Y0095740D02*
X0214601Y0095740D01*
X0214601Y0094142D02*
X0218999Y0094142D01*
X0218999Y0092543D02*
X0214601Y0092543D01*
X0214601Y0090945D02*
X0218999Y0090945D01*
X0218999Y0089346D02*
X0214601Y0089346D01*
X0214601Y0087748D02*
X0218999Y0087748D01*
X0218999Y0086149D02*
X0214601Y0086149D01*
X0214601Y0084551D02*
X0218999Y0084551D01*
X0218999Y0082952D02*
X0214601Y0082952D01*
X0214601Y0081354D02*
X0218999Y0081354D01*
X0218999Y0079755D02*
X0214601Y0079755D01*
X0214601Y0078157D02*
X0218999Y0078157D01*
X0218999Y0076558D02*
X0214601Y0076558D01*
X0214601Y0074960D02*
X0218999Y0074960D01*
X0218999Y0073361D02*
X0214601Y0073361D01*
X0214601Y0071763D02*
X0218999Y0071763D01*
X0218999Y0070164D02*
X0214601Y0070164D01*
X0214601Y0068566D02*
X0218999Y0068566D01*
X0217719Y0066967D02*
X0215881Y0066967D01*
X0216400Y0065369D02*
X0217200Y0065369D01*
X0217200Y0063770D02*
X0216400Y0063770D01*
X0216400Y0062172D02*
X0217200Y0062172D01*
X0217200Y0060573D02*
X0216400Y0060573D01*
X0216400Y0058975D02*
X0217200Y0058975D01*
X0217411Y0057376D02*
X0216189Y0057376D01*
X0215283Y0055778D02*
X0218317Y0055778D01*
X0225283Y0055778D02*
X0248317Y0055778D01*
X0247900Y0056194D02*
X0249194Y0054900D01*
X0250885Y0054200D01*
X0252715Y0054200D01*
X0254406Y0054900D01*
X0255700Y0056194D01*
X0256400Y0057885D01*
X0256400Y0065715D01*
X0255700Y0067406D01*
X0254406Y0068700D01*
X0252715Y0069400D01*
X0250885Y0069400D01*
X0249194Y0068700D01*
X0247900Y0067406D01*
X0247200Y0065715D01*
X0247200Y0057885D01*
X0247900Y0056194D01*
X0247411Y0057376D02*
X0226189Y0057376D01*
X0226400Y0058975D02*
X0247200Y0058975D01*
X0247200Y0060573D02*
X0226400Y0060573D01*
X0226400Y0062172D02*
X0247200Y0062172D01*
X0247200Y0063770D02*
X0226400Y0063770D01*
X0226400Y0065369D02*
X0247200Y0065369D01*
X0247719Y0066967D02*
X0225881Y0066967D01*
X0224601Y0068566D02*
X0249060Y0068566D01*
X0254540Y0068566D02*
X0258817Y0068566D01*
X0257517Y0066967D02*
X0255881Y0066967D01*
X0256400Y0065369D02*
X0257030Y0065369D01*
X0257000Y0063770D02*
X0256400Y0063770D01*
X0256400Y0062172D02*
X0257000Y0062172D01*
X0257000Y0060573D02*
X0256400Y0060573D01*
X0256400Y0058975D02*
X0257000Y0058975D01*
X0257216Y0057376D02*
X0256189Y0057376D01*
X0255283Y0055778D02*
X0258063Y0055778D01*
X0261600Y0055778D02*
X0262000Y0055778D01*
X0262000Y0057376D02*
X0261600Y0057376D01*
X0261600Y0058975D02*
X0262000Y0058975D01*
X0262000Y0060573D02*
X0261600Y0060573D01*
X0261600Y0062172D02*
X0262000Y0062172D01*
X0262000Y0063770D02*
X0261600Y0063770D01*
X0261600Y0065369D02*
X0262000Y0065369D01*
X0262000Y0066967D02*
X0261600Y0066967D01*
X0261600Y0068566D02*
X0262000Y0068566D01*
X0264783Y0068566D02*
X0268999Y0068566D01*
X0268999Y0068505D02*
X0267900Y0067406D01*
X0267200Y0065715D01*
X0267200Y0057885D01*
X0267900Y0056194D01*
X0269194Y0054900D01*
X0270885Y0054200D01*
X0272715Y0054200D01*
X0274406Y0054900D01*
X0275700Y0056194D01*
X0276400Y0057885D01*
X0276400Y0065715D01*
X0275700Y0067406D01*
X0274601Y0068505D01*
X0274601Y0089258D01*
X0275003Y0089660D01*
X0275578Y0091049D01*
X0275578Y0092551D01*
X0275003Y0093940D01*
X0273940Y0095003D01*
X0272551Y0095578D01*
X0271049Y0095578D01*
X0269660Y0095003D01*
X0268597Y0093940D01*
X0268022Y0092551D01*
X0268022Y0091049D01*
X0268597Y0089660D01*
X0268999Y0089258D01*
X0268999Y0068505D01*
X0268999Y0070164D02*
X0224601Y0070164D01*
X0224601Y0071763D02*
X0268999Y0071763D01*
X0268999Y0073361D02*
X0224601Y0073361D01*
X0224601Y0074960D02*
X0268999Y0074960D01*
X0268999Y0076558D02*
X0224601Y0076558D01*
X0224601Y0078157D02*
X0268999Y0078157D01*
X0268999Y0079755D02*
X0224601Y0079755D01*
X0224601Y0081354D02*
X0268999Y0081354D01*
X0268999Y0082952D02*
X0224601Y0082952D01*
X0224601Y0084551D02*
X0268999Y0084551D01*
X0268999Y0086149D02*
X0224601Y0086149D01*
X0224601Y0087748D02*
X0268999Y0087748D01*
X0268911Y0089346D02*
X0224601Y0089346D01*
X0224601Y0090945D02*
X0268065Y0090945D01*
X0268022Y0092543D02*
X0224601Y0092543D01*
X0224601Y0094142D02*
X0268799Y0094142D01*
X0274801Y0094142D02*
X0278999Y0094142D01*
X0278999Y0095740D02*
X0224601Y0095740D01*
X0224601Y0097339D02*
X0278999Y0097339D01*
X0278999Y0098937D02*
X0224601Y0098937D01*
X0225366Y0100536D02*
X0278999Y0100536D01*
X0278999Y0102134D02*
X0225578Y0102134D01*
X0225089Y0103733D02*
X0278999Y0103733D01*
X0278999Y0092543D02*
X0275578Y0092543D01*
X0275535Y0090945D02*
X0278999Y0090945D01*
X0278999Y0089346D02*
X0274689Y0089346D01*
X0274601Y0087748D02*
X0278999Y0087748D01*
X0278999Y0086149D02*
X0274601Y0086149D01*
X0274601Y0084551D02*
X0278999Y0084551D01*
X0278999Y0082952D02*
X0274601Y0082952D01*
X0274601Y0081354D02*
X0278999Y0081354D01*
X0278999Y0079755D02*
X0274601Y0079755D01*
X0274601Y0078157D02*
X0278999Y0078157D01*
X0278999Y0076558D02*
X0274601Y0076558D01*
X0274601Y0074960D02*
X0278999Y0074960D01*
X0278999Y0073361D02*
X0274601Y0073361D01*
X0274601Y0071763D02*
X0278999Y0071763D01*
X0278999Y0070164D02*
X0274601Y0070164D01*
X0274601Y0068566D02*
X0278999Y0068566D01*
X0277719Y0066967D02*
X0275881Y0066967D01*
X0276400Y0065369D02*
X0277200Y0065369D01*
X0277200Y0063770D02*
X0276400Y0063770D01*
X0276400Y0062172D02*
X0277200Y0062172D01*
X0277200Y0060573D02*
X0276400Y0060573D01*
X0276400Y0058975D02*
X0277200Y0058975D01*
X0277411Y0057376D02*
X0276189Y0057376D01*
X0275283Y0055778D02*
X0278317Y0055778D01*
X0268317Y0055778D02*
X0265537Y0055778D01*
X0266384Y0057376D02*
X0267411Y0057376D01*
X0267200Y0058975D02*
X0266600Y0058975D01*
X0266600Y0060573D02*
X0267200Y0060573D01*
X0267200Y0062172D02*
X0266600Y0062172D01*
X0266600Y0063770D02*
X0267200Y0063770D01*
X0267200Y0065369D02*
X0266570Y0065369D01*
X0266083Y0066967D02*
X0267719Y0066967D01*
X0208999Y0068566D02*
X0204601Y0068566D01*
X0204601Y0068505D02*
X0204601Y0089258D01*
X0205003Y0089660D01*
X0205578Y0091049D01*
X0205578Y0092551D01*
X0205003Y0093940D01*
X0203940Y0095003D01*
X0202551Y0095578D01*
X0201049Y0095578D01*
X0199660Y0095003D01*
X0198597Y0093940D01*
X0198022Y0092551D01*
X0198022Y0091049D01*
X0198597Y0089660D01*
X0198999Y0089258D01*
X0198999Y0068505D01*
X0197900Y0067406D01*
X0197200Y0065715D01*
X0197200Y0057885D01*
X0197900Y0056194D01*
X0199194Y0054900D01*
X0200885Y0054200D01*
X0202715Y0054200D01*
X0204406Y0054900D01*
X0205700Y0056194D01*
X0206400Y0057885D01*
X0206400Y0065715D01*
X0205700Y0067406D01*
X0204601Y0068505D01*
X0204601Y0070164D02*
X0208999Y0070164D01*
X0208999Y0071763D02*
X0204601Y0071763D01*
X0204601Y0073361D02*
X0208999Y0073361D01*
X0208999Y0074960D02*
X0204601Y0074960D01*
X0204601Y0076558D02*
X0208999Y0076558D01*
X0208999Y0078157D02*
X0204601Y0078157D01*
X0204601Y0079755D02*
X0208999Y0079755D01*
X0208999Y0081354D02*
X0204601Y0081354D01*
X0204601Y0082952D02*
X0208999Y0082952D01*
X0208999Y0084551D02*
X0204601Y0084551D01*
X0204601Y0086149D02*
X0208999Y0086149D01*
X0208999Y0087748D02*
X0204601Y0087748D01*
X0204689Y0089346D02*
X0208999Y0089346D01*
X0208999Y0090945D02*
X0205535Y0090945D01*
X0205578Y0092543D02*
X0208999Y0092543D01*
X0208999Y0094142D02*
X0204801Y0094142D01*
X0208999Y0095740D02*
X0154601Y0095740D01*
X0154601Y0094142D02*
X0198799Y0094142D01*
X0198022Y0092543D02*
X0154601Y0092543D01*
X0154601Y0090945D02*
X0198065Y0090945D01*
X0198911Y0089346D02*
X0154601Y0089346D01*
X0154601Y0087748D02*
X0198999Y0087748D01*
X0198999Y0086149D02*
X0154601Y0086149D01*
X0154601Y0084551D02*
X0198999Y0084551D01*
X0198999Y0082952D02*
X0154601Y0082952D01*
X0154601Y0081354D02*
X0198999Y0081354D01*
X0198999Y0079755D02*
X0154601Y0079755D01*
X0154601Y0078157D02*
X0198999Y0078157D01*
X0198999Y0076558D02*
X0154601Y0076558D01*
X0154601Y0074960D02*
X0198999Y0074960D01*
X0198999Y0073361D02*
X0154601Y0073361D01*
X0154601Y0071763D02*
X0198999Y0071763D01*
X0198999Y0070164D02*
X0154601Y0070164D01*
X0154601Y0068566D02*
X0179060Y0068566D01*
X0179194Y0068700D02*
X0177900Y0067406D01*
X0177200Y0065715D01*
X0177200Y0057885D01*
X0177900Y0056194D01*
X0179194Y0054900D01*
X0180885Y0054200D01*
X0182715Y0054200D01*
X0184406Y0054900D01*
X0185700Y0056194D01*
X0186400Y0057885D01*
X0186400Y0065715D01*
X0185700Y0067406D01*
X0184406Y0068700D01*
X0182715Y0069400D01*
X0180885Y0069400D01*
X0179194Y0068700D01*
X0177719Y0066967D02*
X0155881Y0066967D01*
X0155700Y0067406D02*
X0154601Y0068505D01*
X0154601Y0099258D01*
X0155003Y0099660D01*
X0155578Y0101049D01*
X0155578Y0102551D01*
X0155003Y0103940D01*
X0153940Y0105003D01*
X0152551Y0105578D01*
X0151049Y0105578D01*
X0149660Y0105003D01*
X0148597Y0103940D01*
X0148022Y0102551D01*
X0148022Y0101049D01*
X0148597Y0099660D01*
X0148999Y0099258D01*
X0148999Y0068505D01*
X0147900Y0067406D01*
X0147200Y0065715D01*
X0147200Y0057885D01*
X0147900Y0056194D01*
X0149194Y0054900D01*
X0150885Y0054200D01*
X0152715Y0054200D01*
X0154406Y0054900D01*
X0155700Y0056194D01*
X0156400Y0057885D01*
X0156400Y0065715D01*
X0155700Y0067406D01*
X0156400Y0065369D02*
X0177200Y0065369D01*
X0177200Y0063770D02*
X0156400Y0063770D01*
X0156400Y0062172D02*
X0177200Y0062172D01*
X0177200Y0060573D02*
X0156400Y0060573D01*
X0156400Y0058975D02*
X0177200Y0058975D01*
X0177411Y0057376D02*
X0156189Y0057376D01*
X0155283Y0055778D02*
X0178317Y0055778D01*
X0185283Y0055778D02*
X0188063Y0055778D01*
X0187216Y0057376D02*
X0186189Y0057376D01*
X0186400Y0058975D02*
X0187000Y0058975D01*
X0187000Y0060573D02*
X0186400Y0060573D01*
X0186400Y0062172D02*
X0187000Y0062172D01*
X0187000Y0063770D02*
X0186400Y0063770D01*
X0186400Y0065369D02*
X0187030Y0065369D01*
X0187517Y0066967D02*
X0185881Y0066967D01*
X0184540Y0068566D02*
X0188817Y0068566D01*
X0191600Y0068566D02*
X0192000Y0068566D01*
X0192000Y0066967D02*
X0191600Y0066967D01*
X0191600Y0065369D02*
X0192000Y0065369D01*
X0192000Y0063770D02*
X0191600Y0063770D01*
X0191600Y0062172D02*
X0192000Y0062172D01*
X0192000Y0060573D02*
X0191600Y0060573D01*
X0191600Y0058975D02*
X0192000Y0058975D01*
X0192000Y0057376D02*
X0191600Y0057376D01*
X0191600Y0055778D02*
X0192000Y0055778D01*
X0195537Y0055778D02*
X0198317Y0055778D01*
X0197411Y0057376D02*
X0196384Y0057376D01*
X0196600Y0058975D02*
X0197200Y0058975D01*
X0197200Y0060573D02*
X0196600Y0060573D01*
X0196600Y0062172D02*
X0197200Y0062172D01*
X0197200Y0063770D02*
X0196600Y0063770D01*
X0196570Y0065369D02*
X0197200Y0065369D01*
X0197719Y0066967D02*
X0196083Y0066967D01*
X0194783Y0068566D02*
X0198999Y0068566D01*
X0205881Y0066967D02*
X0207719Y0066967D01*
X0207200Y0065369D02*
X0206400Y0065369D01*
X0206400Y0063770D02*
X0207200Y0063770D01*
X0207200Y0062172D02*
X0206400Y0062172D01*
X0206400Y0060573D02*
X0207200Y0060573D01*
X0207200Y0058975D02*
X0206400Y0058975D01*
X0206189Y0057376D02*
X0207411Y0057376D01*
X0208317Y0055778D02*
X0205283Y0055778D01*
X0148317Y0055778D02*
X0145283Y0055778D01*
X0146189Y0057376D02*
X0147411Y0057376D01*
X0147200Y0058975D02*
X0146400Y0058975D01*
X0146400Y0060573D02*
X0147200Y0060573D01*
X0147200Y0062172D02*
X0146400Y0062172D01*
X0146400Y0063770D02*
X0147200Y0063770D01*
X0147200Y0065369D02*
X0146400Y0065369D01*
X0145881Y0066967D02*
X0147719Y0066967D01*
X0148999Y0068566D02*
X0144601Y0068566D01*
X0144601Y0070164D02*
X0148999Y0070164D01*
X0148999Y0071763D02*
X0144601Y0071763D01*
X0144601Y0073361D02*
X0148999Y0073361D01*
X0148999Y0074960D02*
X0144601Y0074960D01*
X0144601Y0076558D02*
X0148999Y0076558D01*
X0148999Y0078157D02*
X0144601Y0078157D01*
X0144601Y0079755D02*
X0148999Y0079755D01*
X0148999Y0081354D02*
X0144601Y0081354D01*
X0144601Y0082952D02*
X0148999Y0082952D01*
X0148999Y0084551D02*
X0144601Y0084551D01*
X0144601Y0086149D02*
X0148999Y0086149D01*
X0148999Y0087748D02*
X0144601Y0087748D01*
X0144601Y0089346D02*
X0148999Y0089346D01*
X0148999Y0090945D02*
X0144601Y0090945D01*
X0144601Y0092543D02*
X0148999Y0092543D01*
X0148999Y0094142D02*
X0144601Y0094142D01*
X0144601Y0095740D02*
X0148999Y0095740D01*
X0148999Y0097339D02*
X0144601Y0097339D01*
X0144601Y0098937D02*
X0148999Y0098937D01*
X0148234Y0100536D02*
X0144601Y0100536D01*
X0144601Y0102134D02*
X0148022Y0102134D01*
X0148511Y0103733D02*
X0144601Y0103733D01*
X0144601Y0105332D02*
X0150454Y0105332D01*
X0153146Y0105332D02*
X0208999Y0105332D01*
X0208999Y0106930D02*
X0144601Y0106930D01*
X0144601Y0108529D02*
X0208999Y0108529D01*
X0208999Y0110127D02*
X0144601Y0110127D01*
X0144601Y0111726D02*
X0208999Y0111726D01*
X0208999Y0113324D02*
X0144601Y0113324D01*
X0144601Y0114923D02*
X0208999Y0114923D01*
X0208999Y0116521D02*
X0144601Y0116521D01*
X0144601Y0118120D02*
X0208999Y0118120D01*
X0208573Y0119718D02*
X0144601Y0119718D01*
X0144601Y0121317D02*
X0208022Y0121317D01*
X0208173Y0122915D02*
X0144601Y0122915D01*
X0144601Y0124514D02*
X0209171Y0124514D01*
X0208999Y0103733D02*
X0155089Y0103733D01*
X0155578Y0102134D02*
X0208999Y0102134D01*
X0208999Y0100536D02*
X0155366Y0100536D01*
X0154601Y0098937D02*
X0208999Y0098937D01*
X0208999Y0097339D02*
X0154601Y0097339D01*
X0138999Y0097339D02*
X0084600Y0097339D01*
X0084600Y0098937D02*
X0138999Y0098937D01*
X0138999Y0100536D02*
X0085366Y0100536D01*
X0085578Y0101049D02*
X0085003Y0099660D01*
X0084600Y0099257D01*
X0084600Y0068505D01*
X0085700Y0067406D01*
X0086400Y0065715D01*
X0086400Y0057885D01*
X0085700Y0056194D01*
X0084406Y0054900D01*
X0082715Y0054200D01*
X0080885Y0054200D01*
X0079194Y0054900D01*
X0077900Y0056194D01*
X0077200Y0057885D01*
X0077200Y0065715D01*
X0077900Y0067406D01*
X0079000Y0068505D01*
X0079000Y0099257D01*
X0078597Y0099660D01*
X0078022Y0101049D01*
X0078022Y0102551D01*
X0078597Y0103940D01*
X0079660Y0105003D01*
X0081049Y0105578D01*
X0082551Y0105578D01*
X0083940Y0105003D01*
X0085003Y0103940D01*
X0085578Y0102551D01*
X0085578Y0101049D01*
X0085578Y0102134D02*
X0138999Y0102134D01*
X0138999Y0103733D02*
X0085089Y0103733D01*
X0083146Y0105332D02*
X0138999Y0105332D01*
X0138999Y0106930D02*
X0074600Y0106930D01*
X0074600Y0105332D02*
X0080454Y0105332D01*
X0078511Y0103733D02*
X0074600Y0103733D01*
X0074600Y0102134D02*
X0078022Y0102134D01*
X0078234Y0100536D02*
X0074600Y0100536D01*
X0074600Y0098937D02*
X0079000Y0098937D01*
X0079000Y0097339D02*
X0074600Y0097339D01*
X0074600Y0095740D02*
X0079000Y0095740D01*
X0079000Y0094142D02*
X0074600Y0094142D01*
X0074600Y0092543D02*
X0079000Y0092543D01*
X0079000Y0090945D02*
X0074600Y0090945D01*
X0074600Y0089346D02*
X0079000Y0089346D01*
X0079000Y0087748D02*
X0074600Y0087748D01*
X0074600Y0086149D02*
X0079000Y0086149D01*
X0079000Y0084551D02*
X0074600Y0084551D01*
X0074600Y0082952D02*
X0079000Y0082952D01*
X0079000Y0081354D02*
X0074600Y0081354D01*
X0074600Y0079755D02*
X0079000Y0079755D01*
X0079000Y0078157D02*
X0074600Y0078157D01*
X0074600Y0076558D02*
X0079000Y0076558D01*
X0079000Y0074960D02*
X0074600Y0074960D01*
X0074600Y0073361D02*
X0079000Y0073361D01*
X0079000Y0071763D02*
X0074600Y0071763D01*
X0074600Y0070164D02*
X0079000Y0070164D01*
X0079000Y0068566D02*
X0074600Y0068566D01*
X0075881Y0066967D02*
X0077719Y0066967D01*
X0077200Y0065369D02*
X0076400Y0065369D01*
X0076400Y0063770D02*
X0077200Y0063770D01*
X0077200Y0062172D02*
X0076400Y0062172D01*
X0076400Y0060573D02*
X0077200Y0060573D01*
X0077200Y0058975D02*
X0076400Y0058975D01*
X0076189Y0057376D02*
X0077411Y0057376D01*
X0078317Y0055778D02*
X0075283Y0055778D01*
X0068317Y0055778D02*
X0065283Y0055778D01*
X0065700Y0056194D02*
X0066400Y0057885D01*
X0066400Y0065715D01*
X0065700Y0067406D01*
X0064600Y0068505D01*
X0064600Y0089257D01*
X0065003Y0089660D01*
X0065578Y0091049D01*
X0065578Y0092551D01*
X0065003Y0093940D01*
X0063940Y0095003D01*
X0062551Y0095578D01*
X0061049Y0095578D01*
X0059660Y0095003D01*
X0058597Y0093940D01*
X0058022Y0092551D01*
X0058022Y0091049D01*
X0058597Y0089660D01*
X0059000Y0089257D01*
X0059000Y0068505D01*
X0057900Y0067406D01*
X0057200Y0065715D01*
X0057200Y0057885D01*
X0057900Y0056194D01*
X0059194Y0054900D01*
X0060885Y0054200D01*
X0062715Y0054200D01*
X0064406Y0054900D01*
X0065700Y0056194D01*
X0066189Y0057376D02*
X0067411Y0057376D01*
X0067200Y0058975D02*
X0066400Y0058975D01*
X0066400Y0060573D02*
X0067200Y0060573D01*
X0067200Y0062172D02*
X0066400Y0062172D01*
X0066400Y0063770D02*
X0067200Y0063770D01*
X0067200Y0065369D02*
X0066400Y0065369D01*
X0065881Y0066967D02*
X0067719Y0066967D01*
X0069000Y0068566D02*
X0064600Y0068566D01*
X0064600Y0070164D02*
X0069000Y0070164D01*
X0069000Y0071763D02*
X0064600Y0071763D01*
X0064600Y0073361D02*
X0069000Y0073361D01*
X0069000Y0074960D02*
X0064600Y0074960D01*
X0064600Y0076558D02*
X0069000Y0076558D01*
X0069000Y0078157D02*
X0064600Y0078157D01*
X0064600Y0079755D02*
X0069000Y0079755D01*
X0069000Y0081354D02*
X0064600Y0081354D01*
X0064600Y0082952D02*
X0069000Y0082952D01*
X0069000Y0084551D02*
X0064600Y0084551D01*
X0064600Y0086149D02*
X0069000Y0086149D01*
X0069000Y0087748D02*
X0064600Y0087748D01*
X0064689Y0089346D02*
X0069000Y0089346D01*
X0069000Y0090945D02*
X0065535Y0090945D01*
X0065578Y0092543D02*
X0069000Y0092543D01*
X0069000Y0094142D02*
X0064801Y0094142D01*
X0069000Y0095740D02*
X0022899Y0095740D01*
X0022899Y0094142D02*
X0058799Y0094142D01*
X0058022Y0092543D02*
X0022899Y0092543D01*
X0022899Y0090945D02*
X0058065Y0090945D01*
X0058911Y0089346D02*
X0022899Y0089346D01*
X0022899Y0087748D02*
X0059000Y0087748D01*
X0059000Y0086149D02*
X0022899Y0086149D01*
X0022899Y0084551D02*
X0059000Y0084551D01*
X0059000Y0082952D02*
X0022899Y0082952D01*
X0022899Y0081354D02*
X0059000Y0081354D01*
X0059000Y0079755D02*
X0022899Y0079755D01*
X0022899Y0078157D02*
X0059000Y0078157D01*
X0059000Y0076558D02*
X0022899Y0076558D01*
X0022899Y0074960D02*
X0059000Y0074960D01*
X0059000Y0073361D02*
X0022899Y0073361D01*
X0022899Y0071763D02*
X0059000Y0071763D01*
X0059000Y0070164D02*
X0022899Y0070164D01*
X0022899Y0068566D02*
X0039060Y0068566D01*
X0039194Y0068700D02*
X0037900Y0067406D01*
X0037200Y0065715D01*
X0037200Y0057885D01*
X0037900Y0056194D01*
X0039194Y0054900D01*
X0040885Y0054200D01*
X0042715Y0054200D01*
X0044406Y0054900D01*
X0045700Y0056194D01*
X0046400Y0057885D01*
X0046400Y0065715D01*
X0045700Y0067406D01*
X0044406Y0068700D01*
X0042715Y0069400D01*
X0040885Y0069400D01*
X0039194Y0068700D01*
X0037719Y0066967D02*
X0022899Y0066967D01*
X0022899Y0065369D02*
X0037200Y0065369D01*
X0037200Y0063770D02*
X0022899Y0063770D01*
X0022899Y0062172D02*
X0037200Y0062172D01*
X0037200Y0060573D02*
X0022899Y0060573D01*
X0022899Y0058975D02*
X0037200Y0058975D01*
X0037411Y0057376D02*
X0022899Y0057376D01*
X0022899Y0055778D02*
X0038317Y0055778D01*
X0045283Y0055778D02*
X0048063Y0055778D01*
X0047216Y0057376D02*
X0046189Y0057376D01*
X0046400Y0058975D02*
X0047000Y0058975D01*
X0047000Y0060573D02*
X0046400Y0060573D01*
X0046400Y0062172D02*
X0047000Y0062172D01*
X0047000Y0063770D02*
X0046400Y0063770D01*
X0046400Y0065369D02*
X0047030Y0065369D01*
X0047517Y0066967D02*
X0045881Y0066967D01*
X0044540Y0068566D02*
X0048817Y0068566D01*
X0051600Y0068566D02*
X0052000Y0068566D01*
X0052000Y0066967D02*
X0051600Y0066967D01*
X0051600Y0065369D02*
X0052000Y0065369D01*
X0052000Y0063770D02*
X0051600Y0063770D01*
X0051600Y0062172D02*
X0052000Y0062172D01*
X0052000Y0060573D02*
X0051600Y0060573D01*
X0051600Y0058975D02*
X0052000Y0058975D01*
X0052000Y0057376D02*
X0051600Y0057376D01*
X0051600Y0055778D02*
X0052000Y0055778D01*
X0055537Y0055778D02*
X0058317Y0055778D01*
X0057411Y0057376D02*
X0056384Y0057376D01*
X0056600Y0058975D02*
X0057200Y0058975D01*
X0057200Y0060573D02*
X0056600Y0060573D01*
X0056600Y0062172D02*
X0057200Y0062172D01*
X0057200Y0063770D02*
X0056600Y0063770D01*
X0056570Y0065369D02*
X0057200Y0065369D01*
X0057719Y0066967D02*
X0056083Y0066967D01*
X0054783Y0068566D02*
X0059000Y0068566D01*
X0084600Y0068566D02*
X0109060Y0068566D01*
X0109194Y0068700D02*
X0107900Y0067406D01*
X0107200Y0065715D01*
X0107200Y0057885D01*
X0107900Y0056194D01*
X0109194Y0054900D01*
X0110885Y0054200D01*
X0112715Y0054200D01*
X0114406Y0054900D01*
X0115700Y0056194D01*
X0116400Y0057885D01*
X0116400Y0065715D01*
X0115700Y0067406D01*
X0114406Y0068700D01*
X0112715Y0069400D01*
X0110885Y0069400D01*
X0109194Y0068700D01*
X0107719Y0066967D02*
X0085881Y0066967D01*
X0086400Y0065369D02*
X0107200Y0065369D01*
X0107200Y0063770D02*
X0086400Y0063770D01*
X0086400Y0062172D02*
X0107200Y0062172D01*
X0107200Y0060573D02*
X0086400Y0060573D01*
X0086400Y0058975D02*
X0107200Y0058975D01*
X0107411Y0057376D02*
X0086189Y0057376D01*
X0085283Y0055778D02*
X0108317Y0055778D01*
X0115283Y0055778D02*
X0118063Y0055778D01*
X0117216Y0057376D02*
X0116189Y0057376D01*
X0116400Y0058975D02*
X0117000Y0058975D01*
X0117000Y0060573D02*
X0116400Y0060573D01*
X0116400Y0062172D02*
X0117000Y0062172D01*
X0117000Y0063770D02*
X0116400Y0063770D01*
X0116400Y0065369D02*
X0117030Y0065369D01*
X0117517Y0066967D02*
X0115881Y0066967D01*
X0114540Y0068566D02*
X0118817Y0068566D01*
X0121600Y0068566D02*
X0122000Y0068566D01*
X0122000Y0066967D02*
X0121600Y0066967D01*
X0121600Y0065369D02*
X0122000Y0065369D01*
X0122000Y0063770D02*
X0121600Y0063770D01*
X0121600Y0062172D02*
X0122000Y0062172D01*
X0122000Y0060573D02*
X0121600Y0060573D01*
X0121600Y0058975D02*
X0122000Y0058975D01*
X0122000Y0057376D02*
X0121600Y0057376D01*
X0121600Y0055778D02*
X0122000Y0055778D01*
X0125537Y0055778D02*
X0128317Y0055778D01*
X0127900Y0056194D02*
X0129194Y0054900D01*
X0130885Y0054200D01*
X0132715Y0054200D01*
X0134406Y0054900D01*
X0135700Y0056194D01*
X0136400Y0057885D01*
X0136400Y0065715D01*
X0135700Y0067406D01*
X0134601Y0068505D01*
X0134601Y0089258D01*
X0135003Y0089660D01*
X0135578Y0091049D01*
X0135578Y0092551D01*
X0135003Y0093940D01*
X0133940Y0095003D01*
X0132551Y0095578D01*
X0131049Y0095578D01*
X0129660Y0095003D01*
X0128597Y0093940D01*
X0128022Y0092551D01*
X0128022Y0091049D01*
X0128597Y0089660D01*
X0128999Y0089258D01*
X0128999Y0068505D01*
X0127900Y0067406D01*
X0127200Y0065715D01*
X0127200Y0057885D01*
X0127900Y0056194D01*
X0127411Y0057376D02*
X0126384Y0057376D01*
X0126600Y0058975D02*
X0127200Y0058975D01*
X0127200Y0060573D02*
X0126600Y0060573D01*
X0126600Y0062172D02*
X0127200Y0062172D01*
X0127200Y0063770D02*
X0126600Y0063770D01*
X0126570Y0065369D02*
X0127200Y0065369D01*
X0127719Y0066967D02*
X0126083Y0066967D01*
X0124783Y0068566D02*
X0128999Y0068566D01*
X0128999Y0070164D02*
X0084600Y0070164D01*
X0084600Y0071763D02*
X0128999Y0071763D01*
X0128999Y0073361D02*
X0084600Y0073361D01*
X0084600Y0074960D02*
X0128999Y0074960D01*
X0128999Y0076558D02*
X0084600Y0076558D01*
X0084600Y0078157D02*
X0128999Y0078157D01*
X0128999Y0079755D02*
X0084600Y0079755D01*
X0084600Y0081354D02*
X0128999Y0081354D01*
X0128999Y0082952D02*
X0084600Y0082952D01*
X0084600Y0084551D02*
X0128999Y0084551D01*
X0128999Y0086149D02*
X0084600Y0086149D01*
X0084600Y0087748D02*
X0128999Y0087748D01*
X0128911Y0089346D02*
X0084600Y0089346D01*
X0084600Y0090945D02*
X0128065Y0090945D01*
X0128022Y0092543D02*
X0084600Y0092543D01*
X0084600Y0094142D02*
X0128799Y0094142D01*
X0134801Y0094142D02*
X0138999Y0094142D01*
X0138999Y0095740D02*
X0084600Y0095740D01*
X0069000Y0097339D02*
X0022899Y0097339D01*
X0022899Y0098937D02*
X0069000Y0098937D01*
X0069000Y0100536D02*
X0022899Y0100536D01*
X0022899Y0102134D02*
X0069000Y0102134D01*
X0069000Y0103733D02*
X0022899Y0103733D01*
X0022899Y0105332D02*
X0069000Y0105332D01*
X0069000Y0106930D02*
X0022899Y0106930D01*
X0022899Y0108529D02*
X0069000Y0108529D01*
X0069000Y0110127D02*
X0022899Y0110127D01*
X0022899Y0111726D02*
X0069000Y0111726D01*
X0069000Y0113324D02*
X0022899Y0113324D01*
X0022899Y0114923D02*
X0069000Y0114923D01*
X0069000Y0116521D02*
X0022899Y0116521D01*
X0022899Y0118120D02*
X0069000Y0118120D01*
X0069000Y0119718D02*
X0022899Y0119718D01*
X0022899Y0121317D02*
X0069000Y0121317D01*
X0069000Y0122915D02*
X0022899Y0122915D01*
X0022899Y0124514D02*
X0069000Y0124514D01*
X0069000Y0126112D02*
X0022899Y0126112D01*
X0022899Y0127711D02*
X0069000Y0127711D01*
X0069000Y0129309D02*
X0022899Y0129309D01*
X0022899Y0130908D02*
X0069000Y0130908D01*
X0069000Y0132506D02*
X0022899Y0132506D01*
X0022899Y0134105D02*
X0069000Y0134105D01*
X0069000Y0135703D02*
X0022899Y0135703D01*
X0022899Y0137302D02*
X0069000Y0137302D01*
X0069000Y0138900D02*
X0022899Y0138900D01*
X0022899Y0140499D02*
X0068250Y0140499D01*
X0068022Y0142097D02*
X0022899Y0142097D01*
X0022899Y0143696D02*
X0068496Y0143696D01*
X0074600Y0134105D02*
X0138762Y0134105D01*
X0138022Y0132506D02*
X0074600Y0132506D01*
X0074600Y0130908D02*
X0138080Y0130908D01*
X0138948Y0129309D02*
X0074600Y0129309D01*
X0074600Y0127711D02*
X0138999Y0127711D01*
X0138999Y0126112D02*
X0074600Y0126112D01*
X0074600Y0124514D02*
X0138999Y0124514D01*
X0138999Y0122915D02*
X0074600Y0122915D01*
X0074600Y0121317D02*
X0138999Y0121317D01*
X0138999Y0119718D02*
X0074600Y0119718D01*
X0074600Y0118120D02*
X0138999Y0118120D01*
X0138999Y0116521D02*
X0074600Y0116521D01*
X0074600Y0114923D02*
X0138999Y0114923D01*
X0138999Y0113324D02*
X0074600Y0113324D01*
X0074600Y0111726D02*
X0138999Y0111726D01*
X0138999Y0110127D02*
X0074600Y0110127D01*
X0074600Y0108529D02*
X0138999Y0108529D01*
X0138999Y0092543D02*
X0135578Y0092543D01*
X0135535Y0090945D02*
X0138999Y0090945D01*
X0138999Y0089346D02*
X0134689Y0089346D01*
X0134601Y0087748D02*
X0138999Y0087748D01*
X0138999Y0086149D02*
X0134601Y0086149D01*
X0134601Y0084551D02*
X0138999Y0084551D01*
X0138999Y0082952D02*
X0134601Y0082952D01*
X0134601Y0081354D02*
X0138999Y0081354D01*
X0138999Y0079755D02*
X0134601Y0079755D01*
X0134601Y0078157D02*
X0138999Y0078157D01*
X0138999Y0076558D02*
X0134601Y0076558D01*
X0134601Y0074960D02*
X0138999Y0074960D01*
X0138999Y0073361D02*
X0134601Y0073361D01*
X0134601Y0071763D02*
X0138999Y0071763D01*
X0138999Y0070164D02*
X0134601Y0070164D01*
X0134601Y0068566D02*
X0138999Y0068566D01*
X0137719Y0066967D02*
X0135881Y0066967D01*
X0136400Y0065369D02*
X0137200Y0065369D01*
X0137200Y0063770D02*
X0136400Y0063770D01*
X0136400Y0062172D02*
X0137200Y0062172D01*
X0137200Y0060573D02*
X0136400Y0060573D01*
X0136400Y0058975D02*
X0137200Y0058975D01*
X0137411Y0057376D02*
X0136189Y0057376D01*
X0135283Y0055778D02*
X0138317Y0055778D01*
X0022899Y0041391D02*
X0497000Y0041391D01*
X0497000Y0039793D02*
X0022899Y0039793D01*
X0022899Y0038194D02*
X0497000Y0038194D01*
D12*
X0471800Y0051800D02*
X0466800Y0046800D01*
X0416800Y0046800D01*
X0411800Y0051800D01*
X0411800Y0061800D01*
X0471800Y0061800D02*
X0471800Y0051800D01*
X0081800Y0061800D02*
X0081800Y0101800D01*
X0061800Y0091800D02*
X0061800Y0061800D01*
X0071800Y0061800D02*
X0071800Y0141800D01*
D13*
X0071800Y0141800D03*
X0141800Y0131800D03*
X0211800Y0121800D03*
X0221800Y0101800D03*
X0201800Y0091800D03*
X0151800Y0101800D03*
X0131800Y0091800D03*
X0081800Y0101800D03*
X0061800Y0091800D03*
X0271800Y0091800D03*
X0291800Y0101800D03*
X0281800Y0111800D03*
D14*
X0281800Y0061800D01*
X0271800Y0061800D02*
X0271800Y0091800D01*
X0291800Y0101800D02*
X0291800Y0061800D01*
X0221800Y0061800D02*
X0221800Y0101800D01*
X0201800Y0091800D02*
X0201800Y0061800D01*
X0211800Y0061800D02*
X0211800Y0121800D01*
X0151800Y0101800D02*
X0151800Y0061800D01*
X0141800Y0061800D02*
X0141800Y0131800D01*
X0131800Y0091800D02*
X0131800Y0061800D01*
M02*
