G75*
%MOIN*%
%OFA0B0*%
%FSLAX25Y25*%
%IPPOS*%
%LPD*%
%AMOC8*
5,1,8,0,0,1.08239X$1,22.5*
%
%ADD10C,0.06000*%
%ADD11C,0.01600*%
%ADD12C,0.02400*%
%ADD13C,0.02402*%
%ADD14C,0.04356*%
D10*
X0041800Y0058800D02*
X0041800Y0064800D01*
X0051800Y0064800D02*
X0051800Y0058800D01*
X0061800Y0058800D02*
X0061800Y0064800D01*
X0071800Y0064800D02*
X0071800Y0058800D01*
X0081800Y0058800D02*
X0081800Y0064800D01*
X0111800Y0064800D02*
X0111800Y0058800D01*
X0121800Y0058800D02*
X0121800Y0064800D01*
X0131800Y0064800D02*
X0131800Y0058800D01*
X0141800Y0058800D02*
X0141800Y0064800D01*
X0151800Y0064800D02*
X0151800Y0058800D01*
X0181800Y0058800D02*
X0181800Y0064800D01*
X0191800Y0064800D02*
X0191800Y0058800D01*
X0201800Y0058800D02*
X0201800Y0064800D01*
X0211800Y0064800D02*
X0211800Y0058800D01*
X0221800Y0058800D02*
X0221800Y0064800D01*
X0251800Y0064800D02*
X0251800Y0058800D01*
X0261800Y0058800D02*
X0261800Y0064800D01*
X0271800Y0064800D02*
X0271800Y0058800D01*
X0281800Y0058800D02*
X0281800Y0064800D01*
X0291800Y0064800D02*
X0291800Y0058800D01*
X0321800Y0058800D02*
X0321800Y0064800D01*
X0331800Y0064800D02*
X0331800Y0058800D01*
X0341800Y0058800D02*
X0341800Y0064800D01*
X0351800Y0064800D02*
X0351800Y0058800D01*
X0361800Y0058800D02*
X0361800Y0064800D01*
X0371800Y0064800D02*
X0371800Y0058800D01*
X0381800Y0058800D02*
X0381800Y0064800D01*
X0391800Y0064800D02*
X0391800Y0058800D01*
X0401800Y0058800D02*
X0401800Y0064800D01*
X0411800Y0064800D02*
X0411800Y0058800D01*
X0441800Y0058800D02*
X0441800Y0064800D01*
X0451800Y0064800D02*
X0451800Y0058800D01*
X0461800Y0058800D02*
X0461800Y0064800D01*
X0471800Y0064800D02*
X0471800Y0058800D01*
X0481800Y0058800D02*
X0481800Y0064800D01*
X0491800Y0064800D02*
X0491800Y0058800D01*
X0411800Y0158800D02*
X0411800Y0164800D01*
X0401800Y0164800D02*
X0401800Y0158800D01*
X0391800Y0158800D02*
X0391800Y0164800D01*
X0381800Y0164800D02*
X0381800Y0158800D01*
X0371800Y0158800D02*
X0371800Y0164800D01*
X0361800Y0164800D02*
X0361800Y0158800D01*
X0351800Y0158800D02*
X0351800Y0164800D01*
X0341800Y0164800D02*
X0341800Y0158800D01*
X0331800Y0158800D02*
X0331800Y0164800D01*
X0321800Y0164800D02*
X0321800Y0158800D01*
D11*
X0022899Y0171921D02*
X0022899Y0036600D01*
X0497000Y0036600D01*
X0497000Y0072000D01*
X0430845Y0072000D01*
X0429081Y0072731D01*
X0427731Y0074081D01*
X0427000Y0075845D01*
X0427000Y0171921D01*
X0022899Y0171921D01*
X0022899Y0170870D02*
X0427000Y0170870D01*
X0427000Y0169272D02*
X0413024Y0169272D01*
X0412715Y0169400D02*
X0410885Y0169400D01*
X0409194Y0168700D01*
X0407900Y0167406D01*
X0407200Y0165715D01*
X0407200Y0157885D01*
X0407900Y0156194D01*
X0408999Y0155095D01*
X0408999Y0152960D01*
X0350640Y0094601D01*
X0274342Y0094601D01*
X0273940Y0095003D01*
X0272551Y0095578D01*
X0271049Y0095578D01*
X0269660Y0095003D01*
X0269258Y0094601D01*
X0204342Y0094601D01*
X0203940Y0095003D01*
X0202551Y0095578D01*
X0201049Y0095578D01*
X0199660Y0095003D01*
X0199258Y0094601D01*
X0134342Y0094601D01*
X0133940Y0095003D01*
X0132551Y0095578D01*
X0131049Y0095578D01*
X0129660Y0095003D01*
X0129257Y0094600D01*
X0064343Y0094600D01*
X0063940Y0095003D01*
X0062551Y0095578D01*
X0061049Y0095578D01*
X0059660Y0095003D01*
X0058597Y0093940D01*
X0058022Y0092551D01*
X0058022Y0091049D01*
X0058597Y0089660D01*
X0059660Y0088597D01*
X0061049Y0088022D01*
X0062551Y0088022D01*
X0063940Y0088597D01*
X0064343Y0089000D01*
X0129257Y0089000D01*
X0129660Y0088597D01*
X0131049Y0088022D01*
X0132551Y0088022D01*
X0133940Y0088597D01*
X0134342Y0088999D01*
X0199258Y0088999D01*
X0199660Y0088597D01*
X0201049Y0088022D01*
X0202551Y0088022D01*
X0203940Y0088597D01*
X0204342Y0088999D01*
X0269258Y0088999D01*
X0269660Y0088597D01*
X0271049Y0088022D01*
X0272551Y0088022D01*
X0273940Y0088597D01*
X0274342Y0088999D01*
X0352357Y0088999D01*
X0353387Y0089426D01*
X0354174Y0090213D01*
X0413387Y0149426D01*
X0414174Y0150213D01*
X0414601Y0151243D01*
X0414601Y0155095D01*
X0415700Y0156194D01*
X0416400Y0157885D01*
X0416400Y0165715D01*
X0415700Y0167406D01*
X0414406Y0168700D01*
X0412715Y0169400D01*
X0410576Y0169272D02*
X0403024Y0169272D01*
X0402715Y0169400D02*
X0400885Y0169400D01*
X0399194Y0168700D01*
X0397900Y0167406D01*
X0397200Y0165715D01*
X0397200Y0157885D01*
X0397900Y0156194D01*
X0398999Y0155095D01*
X0398999Y0152960D01*
X0350640Y0104601D01*
X0294342Y0104601D01*
X0293940Y0105003D01*
X0292551Y0105578D01*
X0291049Y0105578D01*
X0289660Y0105003D01*
X0289258Y0104601D01*
X0224342Y0104601D01*
X0223940Y0105003D01*
X0222551Y0105578D01*
X0221049Y0105578D01*
X0219660Y0105003D01*
X0219258Y0104601D01*
X0154342Y0104601D01*
X0153940Y0105003D01*
X0152551Y0105578D01*
X0151049Y0105578D01*
X0149660Y0105003D01*
X0149257Y0104600D01*
X0084343Y0104600D01*
X0083940Y0105003D01*
X0082551Y0105578D01*
X0081049Y0105578D01*
X0079660Y0105003D01*
X0078597Y0103940D01*
X0078022Y0102551D01*
X0078022Y0101049D01*
X0078597Y0099660D01*
X0079660Y0098597D01*
X0081049Y0098022D01*
X0082551Y0098022D01*
X0083940Y0098597D01*
X0084343Y0099000D01*
X0149257Y0099000D01*
X0149660Y0098597D01*
X0151049Y0098022D01*
X0152551Y0098022D01*
X0153940Y0098597D01*
X0154342Y0098999D01*
X0219258Y0098999D01*
X0219660Y0098597D01*
X0221049Y0098022D01*
X0222551Y0098022D01*
X0223940Y0098597D01*
X0224342Y0098999D01*
X0289258Y0098999D01*
X0289660Y0098597D01*
X0291049Y0098022D01*
X0292551Y0098022D01*
X0293940Y0098597D01*
X0294342Y0098999D01*
X0352357Y0098999D01*
X0353387Y0099426D01*
X0403387Y0149426D01*
X0404174Y0150213D01*
X0404601Y0151243D01*
X0404601Y0155095D01*
X0405700Y0156194D01*
X0406400Y0157885D01*
X0406400Y0165715D01*
X0405700Y0167406D01*
X0404406Y0168700D01*
X0402715Y0169400D01*
X0400576Y0169272D02*
X0393024Y0169272D01*
X0392715Y0169400D02*
X0390885Y0169400D01*
X0389194Y0168700D01*
X0387900Y0167406D01*
X0387200Y0165715D01*
X0387200Y0157885D01*
X0387900Y0156194D01*
X0388999Y0155095D01*
X0388999Y0152960D01*
X0350640Y0114601D01*
X0284342Y0114601D01*
X0283940Y0115003D01*
X0282551Y0115578D01*
X0281049Y0115578D01*
X0279660Y0115003D01*
X0278597Y0113940D01*
X0278022Y0112551D01*
X0278022Y0111049D01*
X0278597Y0109660D01*
X0279660Y0108597D01*
X0281049Y0108022D01*
X0282551Y0108022D01*
X0283940Y0108597D01*
X0284342Y0108999D01*
X0352357Y0108999D01*
X0353387Y0109426D01*
X0393387Y0149426D01*
X0394174Y0150213D01*
X0394601Y0151243D01*
X0394601Y0155095D01*
X0395700Y0156194D01*
X0396400Y0157885D01*
X0396400Y0165715D01*
X0395700Y0167406D01*
X0394406Y0168700D01*
X0392715Y0169400D01*
X0390576Y0169272D02*
X0383024Y0169272D01*
X0382715Y0169400D02*
X0380885Y0169400D01*
X0379194Y0168700D01*
X0377900Y0167406D01*
X0377200Y0165715D01*
X0377200Y0157885D01*
X0377900Y0156194D01*
X0378999Y0155095D01*
X0378999Y0152960D01*
X0350640Y0124601D01*
X0214342Y0124601D01*
X0213940Y0125003D01*
X0212551Y0125578D01*
X0211049Y0125578D01*
X0209660Y0125003D01*
X0208597Y0123940D01*
X0208022Y0122551D01*
X0208022Y0121049D01*
X0208597Y0119660D01*
X0209660Y0118597D01*
X0211049Y0118022D01*
X0212551Y0118022D01*
X0213940Y0118597D01*
X0214342Y0118999D01*
X0352357Y0118999D01*
X0353387Y0119426D01*
X0383387Y0149426D01*
X0384174Y0150213D01*
X0384601Y0151243D01*
X0384601Y0155095D01*
X0385700Y0156194D01*
X0386400Y0157885D01*
X0386400Y0165715D01*
X0385700Y0167406D01*
X0384406Y0168700D01*
X0382715Y0169400D01*
X0380576Y0169272D02*
X0373024Y0169272D01*
X0372715Y0169400D02*
X0370885Y0169400D01*
X0369194Y0168700D01*
X0367900Y0167406D01*
X0367200Y0165715D01*
X0367200Y0157885D01*
X0367900Y0156194D01*
X0368999Y0155095D01*
X0368999Y0152960D01*
X0350640Y0134601D01*
X0144342Y0134601D01*
X0143940Y0135003D01*
X0142551Y0135578D01*
X0141049Y0135578D01*
X0139660Y0135003D01*
X0138597Y0133940D01*
X0138022Y0132551D01*
X0138022Y0131049D01*
X0138597Y0129660D01*
X0139660Y0128597D01*
X0141049Y0128022D01*
X0142551Y0128022D01*
X0143940Y0128597D01*
X0144342Y0128999D01*
X0352357Y0128999D01*
X0353387Y0129426D01*
X0373387Y0149426D01*
X0374174Y0150213D01*
X0374601Y0151243D01*
X0374601Y0155095D01*
X0375700Y0156194D01*
X0376400Y0157885D01*
X0376400Y0165715D01*
X0375700Y0167406D01*
X0374406Y0168700D01*
X0372715Y0169400D01*
X0370576Y0169272D02*
X0363024Y0169272D01*
X0362715Y0169400D02*
X0360885Y0169400D01*
X0359194Y0168700D01*
X0357900Y0167406D01*
X0357200Y0165715D01*
X0357200Y0157885D01*
X0357900Y0156194D01*
X0359000Y0155095D01*
X0359000Y0152960D01*
X0350640Y0144600D01*
X0074343Y0144600D01*
X0073940Y0145003D01*
X0072551Y0145578D01*
X0071049Y0145578D01*
X0069660Y0145003D01*
X0068597Y0143940D01*
X0068022Y0142551D01*
X0068022Y0141049D01*
X0068597Y0139660D01*
X0069660Y0138597D01*
X0071049Y0138022D01*
X0072551Y0138022D01*
X0073940Y0138597D01*
X0074343Y0139000D01*
X0352357Y0139000D01*
X0353386Y0139426D01*
X0363386Y0149426D01*
X0364174Y0150214D01*
X0364600Y0151243D01*
X0364600Y0155095D01*
X0365700Y0156194D01*
X0366400Y0157885D01*
X0366400Y0165715D01*
X0365700Y0167406D01*
X0364406Y0168700D01*
X0362715Y0169400D01*
X0360576Y0169272D02*
X0353024Y0169272D01*
X0352715Y0169400D02*
X0350885Y0169400D01*
X0349194Y0168700D01*
X0347900Y0167406D01*
X0347200Y0165715D01*
X0347200Y0157885D01*
X0347900Y0156194D01*
X0349194Y0154900D01*
X0350885Y0154200D01*
X0352715Y0154200D01*
X0354406Y0154900D01*
X0355700Y0156194D01*
X0356400Y0157885D01*
X0356400Y0165715D01*
X0355700Y0167406D01*
X0354406Y0168700D01*
X0352715Y0169400D01*
X0350576Y0169272D02*
X0343024Y0169272D01*
X0342715Y0169400D02*
X0340885Y0169400D01*
X0339194Y0168700D01*
X0337900Y0167406D01*
X0337200Y0165715D01*
X0337200Y0157885D01*
X0337900Y0156194D01*
X0339194Y0154900D01*
X0340885Y0154200D01*
X0342715Y0154200D01*
X0344406Y0154900D01*
X0345700Y0156194D01*
X0346400Y0157885D01*
X0346400Y0165715D01*
X0345700Y0167406D01*
X0344406Y0168700D01*
X0342715Y0169400D01*
X0340576Y0169272D02*
X0333024Y0169272D01*
X0332715Y0169400D02*
X0330885Y0169400D01*
X0329194Y0168700D01*
X0327900Y0167406D01*
X0327200Y0165715D01*
X0327200Y0157885D01*
X0327900Y0156194D01*
X0329194Y0154900D01*
X0330885Y0154200D01*
X0332715Y0154200D01*
X0334406Y0154900D01*
X0335700Y0156194D01*
X0336400Y0157885D01*
X0336400Y0165715D01*
X0335700Y0167406D01*
X0334406Y0168700D01*
X0332715Y0169400D01*
X0330576Y0169272D02*
X0323024Y0169272D01*
X0322715Y0169400D02*
X0320885Y0169400D01*
X0319194Y0168700D01*
X0317900Y0167406D01*
X0317200Y0165715D01*
X0317200Y0157885D01*
X0317900Y0156194D01*
X0319194Y0154900D01*
X0320885Y0154200D01*
X0322715Y0154200D01*
X0324406Y0154900D01*
X0325700Y0156194D01*
X0326400Y0157885D01*
X0326400Y0165715D01*
X0325700Y0167406D01*
X0324406Y0168700D01*
X0322715Y0169400D01*
X0320576Y0169272D02*
X0022899Y0169272D01*
X0022899Y0167673D02*
X0318168Y0167673D01*
X0317349Y0166075D02*
X0022899Y0166075D01*
X0022899Y0164476D02*
X0317200Y0164476D01*
X0317200Y0162878D02*
X0022899Y0162878D01*
X0022899Y0161279D02*
X0317200Y0161279D01*
X0317200Y0159681D02*
X0022899Y0159681D01*
X0022899Y0158082D02*
X0317200Y0158082D01*
X0317780Y0156484D02*
X0022899Y0156484D01*
X0022899Y0154885D02*
X0319230Y0154885D01*
X0324370Y0154885D02*
X0329230Y0154885D01*
X0327780Y0156484D02*
X0325820Y0156484D01*
X0326400Y0158082D02*
X0327200Y0158082D01*
X0327200Y0159681D02*
X0326400Y0159681D01*
X0326400Y0161279D02*
X0327200Y0161279D01*
X0327200Y0162878D02*
X0326400Y0162878D01*
X0326400Y0164476D02*
X0327200Y0164476D01*
X0327349Y0166075D02*
X0326251Y0166075D01*
X0325432Y0167673D02*
X0328168Y0167673D01*
X0335432Y0167673D02*
X0338168Y0167673D01*
X0337349Y0166075D02*
X0336251Y0166075D01*
X0336400Y0164476D02*
X0337200Y0164476D01*
X0337200Y0162878D02*
X0336400Y0162878D01*
X0336400Y0161279D02*
X0337200Y0161279D01*
X0337200Y0159681D02*
X0336400Y0159681D01*
X0336400Y0158082D02*
X0337200Y0158082D01*
X0337780Y0156484D02*
X0335820Y0156484D01*
X0334370Y0154885D02*
X0339230Y0154885D01*
X0344370Y0154885D02*
X0349230Y0154885D01*
X0347780Y0156484D02*
X0345820Y0156484D01*
X0346400Y0158082D02*
X0347200Y0158082D01*
X0347200Y0159681D02*
X0346400Y0159681D01*
X0346400Y0161279D02*
X0347200Y0161279D01*
X0347200Y0162878D02*
X0346400Y0162878D01*
X0346400Y0164476D02*
X0347200Y0164476D01*
X0347349Y0166075D02*
X0346251Y0166075D01*
X0345432Y0167673D02*
X0348168Y0167673D01*
X0355432Y0167673D02*
X0358168Y0167673D01*
X0357349Y0166075D02*
X0356251Y0166075D01*
X0356400Y0164476D02*
X0357200Y0164476D01*
X0357200Y0162878D02*
X0356400Y0162878D01*
X0356400Y0161279D02*
X0357200Y0161279D01*
X0357200Y0159681D02*
X0356400Y0159681D01*
X0356400Y0158082D02*
X0357200Y0158082D01*
X0357780Y0156484D02*
X0355820Y0156484D01*
X0354370Y0154885D02*
X0359000Y0154885D01*
X0359000Y0153287D02*
X0022899Y0153287D01*
X0022899Y0151688D02*
X0357729Y0151688D01*
X0356130Y0150090D02*
X0022899Y0150090D01*
X0022899Y0148491D02*
X0354532Y0148491D01*
X0352933Y0146893D02*
X0022899Y0146893D01*
X0022899Y0145294D02*
X0070364Y0145294D01*
X0068496Y0143696D02*
X0022899Y0143696D01*
X0022899Y0142097D02*
X0068022Y0142097D01*
X0068250Y0140499D02*
X0022899Y0140499D01*
X0022899Y0138900D02*
X0069357Y0138900D01*
X0074243Y0138900D02*
X0354939Y0138900D01*
X0354459Y0140499D02*
X0356538Y0140499D01*
X0356057Y0142097D02*
X0358136Y0142097D01*
X0357656Y0143696D02*
X0359735Y0143696D01*
X0359254Y0145294D02*
X0361333Y0145294D01*
X0360853Y0146893D02*
X0362932Y0146893D01*
X0362451Y0148491D02*
X0364530Y0148491D01*
X0364050Y0150090D02*
X0366129Y0150090D01*
X0364600Y0151688D02*
X0367727Y0151688D01*
X0368999Y0153287D02*
X0364600Y0153287D01*
X0364600Y0154885D02*
X0368999Y0154885D01*
X0367780Y0156484D02*
X0365820Y0156484D01*
X0366400Y0158082D02*
X0367200Y0158082D01*
X0367200Y0159681D02*
X0366400Y0159681D01*
X0366400Y0161279D02*
X0367200Y0161279D01*
X0367200Y0162878D02*
X0366400Y0162878D01*
X0366400Y0164476D02*
X0367200Y0164476D01*
X0367349Y0166075D02*
X0366251Y0166075D01*
X0365432Y0167673D02*
X0368168Y0167673D01*
X0375432Y0167673D02*
X0378168Y0167673D01*
X0377349Y0166075D02*
X0376251Y0166075D01*
X0376400Y0164476D02*
X0377200Y0164476D01*
X0377200Y0162878D02*
X0376400Y0162878D01*
X0376400Y0161279D02*
X0377200Y0161279D01*
X0377200Y0159681D02*
X0376400Y0159681D01*
X0376400Y0158082D02*
X0377200Y0158082D01*
X0377780Y0156484D02*
X0375820Y0156484D01*
X0374601Y0154885D02*
X0378999Y0154885D01*
X0378999Y0153287D02*
X0374601Y0153287D01*
X0374601Y0151688D02*
X0377727Y0151688D01*
X0376129Y0150090D02*
X0374051Y0150090D01*
X0374530Y0148491D02*
X0372452Y0148491D01*
X0372932Y0146893D02*
X0370854Y0146893D01*
X0371333Y0145294D02*
X0369255Y0145294D01*
X0369735Y0143696D02*
X0367657Y0143696D01*
X0368136Y0142097D02*
X0366058Y0142097D01*
X0366538Y0140499D02*
X0364460Y0140499D01*
X0364939Y0138900D02*
X0362861Y0138900D01*
X0363341Y0137302D02*
X0361263Y0137302D01*
X0361742Y0135703D02*
X0359664Y0135703D01*
X0360144Y0134105D02*
X0358066Y0134105D01*
X0358545Y0132506D02*
X0356467Y0132506D01*
X0356947Y0130908D02*
X0354869Y0130908D01*
X0355348Y0129309D02*
X0353105Y0129309D01*
X0353750Y0127711D02*
X0022899Y0127711D01*
X0022899Y0129309D02*
X0138948Y0129309D01*
X0138080Y0130908D02*
X0022899Y0130908D01*
X0022899Y0132506D02*
X0138022Y0132506D01*
X0138762Y0134105D02*
X0022899Y0134105D01*
X0022899Y0135703D02*
X0351742Y0135703D01*
X0353341Y0137302D02*
X0022899Y0137302D01*
X0022899Y0126112D02*
X0352151Y0126112D01*
X0356876Y0122915D02*
X0358954Y0122915D01*
X0358475Y0124514D02*
X0360553Y0124514D01*
X0360073Y0126112D02*
X0362151Y0126112D01*
X0361672Y0127711D02*
X0363750Y0127711D01*
X0363270Y0129309D02*
X0365348Y0129309D01*
X0364869Y0130908D02*
X0366947Y0130908D01*
X0366467Y0132506D02*
X0368545Y0132506D01*
X0368066Y0134105D02*
X0370144Y0134105D01*
X0369664Y0135703D02*
X0371742Y0135703D01*
X0371263Y0137302D02*
X0373341Y0137302D01*
X0372861Y0138900D02*
X0374939Y0138900D01*
X0374460Y0140499D02*
X0376538Y0140499D01*
X0376058Y0142097D02*
X0378136Y0142097D01*
X0377657Y0143696D02*
X0379735Y0143696D01*
X0379255Y0145294D02*
X0381333Y0145294D01*
X0380854Y0146893D02*
X0382932Y0146893D01*
X0382452Y0148491D02*
X0384530Y0148491D01*
X0384051Y0150090D02*
X0386129Y0150090D01*
X0384601Y0151688D02*
X0387727Y0151688D01*
X0388999Y0153287D02*
X0384601Y0153287D01*
X0384601Y0154885D02*
X0388999Y0154885D01*
X0387780Y0156484D02*
X0385820Y0156484D01*
X0386400Y0158082D02*
X0387200Y0158082D01*
X0387200Y0159681D02*
X0386400Y0159681D01*
X0386400Y0161279D02*
X0387200Y0161279D01*
X0387200Y0162878D02*
X0386400Y0162878D01*
X0386400Y0164476D02*
X0387200Y0164476D01*
X0387349Y0166075D02*
X0386251Y0166075D01*
X0385432Y0167673D02*
X0388168Y0167673D01*
X0395432Y0167673D02*
X0398168Y0167673D01*
X0397349Y0166075D02*
X0396251Y0166075D01*
X0396400Y0164476D02*
X0397200Y0164476D01*
X0397200Y0162878D02*
X0396400Y0162878D01*
X0396400Y0161279D02*
X0397200Y0161279D01*
X0397200Y0159681D02*
X0396400Y0159681D01*
X0396400Y0158082D02*
X0397200Y0158082D01*
X0397780Y0156484D02*
X0395820Y0156484D01*
X0394601Y0154885D02*
X0398999Y0154885D01*
X0398999Y0153287D02*
X0394601Y0153287D01*
X0394601Y0151688D02*
X0397727Y0151688D01*
X0396129Y0150090D02*
X0394051Y0150090D01*
X0394530Y0148491D02*
X0392452Y0148491D01*
X0392932Y0146893D02*
X0390854Y0146893D01*
X0391333Y0145294D02*
X0389255Y0145294D01*
X0389735Y0143696D02*
X0387657Y0143696D01*
X0388136Y0142097D02*
X0386058Y0142097D01*
X0386538Y0140499D02*
X0384460Y0140499D01*
X0384939Y0138900D02*
X0382861Y0138900D01*
X0383341Y0137302D02*
X0381263Y0137302D01*
X0381742Y0135703D02*
X0379664Y0135703D01*
X0380144Y0134105D02*
X0378066Y0134105D01*
X0378545Y0132506D02*
X0376467Y0132506D01*
X0376947Y0130908D02*
X0374869Y0130908D01*
X0375348Y0129309D02*
X0373270Y0129309D01*
X0373750Y0127711D02*
X0371672Y0127711D01*
X0372151Y0126112D02*
X0370073Y0126112D01*
X0370553Y0124514D02*
X0368475Y0124514D01*
X0368954Y0122915D02*
X0366876Y0122915D01*
X0367356Y0121317D02*
X0365278Y0121317D01*
X0365757Y0119718D02*
X0363679Y0119718D01*
X0364159Y0118120D02*
X0362081Y0118120D01*
X0362560Y0116521D02*
X0360482Y0116521D01*
X0360962Y0114923D02*
X0358884Y0114923D01*
X0359363Y0113324D02*
X0357285Y0113324D01*
X0357765Y0111726D02*
X0355686Y0111726D01*
X0356166Y0110127D02*
X0354088Y0110127D01*
X0354568Y0108529D02*
X0283774Y0108529D01*
X0279826Y0108529D02*
X0022899Y0108529D01*
X0022899Y0110127D02*
X0278404Y0110127D01*
X0278022Y0111726D02*
X0022899Y0111726D01*
X0022899Y0113324D02*
X0278342Y0113324D01*
X0279580Y0114923D02*
X0022899Y0114923D01*
X0022899Y0116521D02*
X0352560Y0116521D01*
X0350962Y0114923D02*
X0284020Y0114923D01*
X0290454Y0105332D02*
X0223146Y0105332D01*
X0220454Y0105332D02*
X0153146Y0105332D01*
X0150454Y0105332D02*
X0083146Y0105332D01*
X0080454Y0105332D02*
X0022899Y0105332D01*
X0022899Y0106930D02*
X0352969Y0106930D01*
X0351371Y0105332D02*
X0293146Y0105332D01*
X0294280Y0098937D02*
X0354977Y0098937D01*
X0354497Y0100536D02*
X0356575Y0100536D01*
X0356095Y0102134D02*
X0358174Y0102134D01*
X0357694Y0103733D02*
X0359772Y0103733D01*
X0359292Y0105332D02*
X0361371Y0105332D01*
X0360891Y0106930D02*
X0362969Y0106930D01*
X0362489Y0108529D02*
X0364568Y0108529D01*
X0364088Y0110127D02*
X0366166Y0110127D01*
X0365686Y0111726D02*
X0367765Y0111726D01*
X0367285Y0113324D02*
X0369363Y0113324D01*
X0368884Y0114923D02*
X0370962Y0114923D01*
X0370482Y0116521D02*
X0372560Y0116521D01*
X0372081Y0118120D02*
X0374159Y0118120D01*
X0373679Y0119718D02*
X0375757Y0119718D01*
X0375278Y0121317D02*
X0377356Y0121317D01*
X0376876Y0122915D02*
X0378954Y0122915D01*
X0378475Y0124514D02*
X0380553Y0124514D01*
X0380073Y0126112D02*
X0382151Y0126112D01*
X0381672Y0127711D02*
X0383750Y0127711D01*
X0383270Y0129309D02*
X0385348Y0129309D01*
X0384869Y0130908D02*
X0386947Y0130908D01*
X0386467Y0132506D02*
X0388545Y0132506D01*
X0388066Y0134105D02*
X0390144Y0134105D01*
X0389664Y0135703D02*
X0391742Y0135703D01*
X0391263Y0137302D02*
X0393341Y0137302D01*
X0392861Y0138900D02*
X0394939Y0138900D01*
X0394460Y0140499D02*
X0396538Y0140499D01*
X0396058Y0142097D02*
X0398136Y0142097D01*
X0397657Y0143696D02*
X0399735Y0143696D01*
X0399255Y0145294D02*
X0401333Y0145294D01*
X0400854Y0146893D02*
X0402932Y0146893D01*
X0402452Y0148491D02*
X0404530Y0148491D01*
X0404051Y0150090D02*
X0406129Y0150090D01*
X0404601Y0151688D02*
X0407727Y0151688D01*
X0408999Y0153287D02*
X0404601Y0153287D01*
X0404601Y0154885D02*
X0408999Y0154885D01*
X0407780Y0156484D02*
X0405820Y0156484D01*
X0406400Y0158082D02*
X0407200Y0158082D01*
X0407200Y0159681D02*
X0406400Y0159681D01*
X0406400Y0161279D02*
X0407200Y0161279D01*
X0407200Y0162878D02*
X0406400Y0162878D01*
X0406400Y0164476D02*
X0407200Y0164476D01*
X0407349Y0166075D02*
X0406251Y0166075D01*
X0405432Y0167673D02*
X0408168Y0167673D01*
X0415432Y0167673D02*
X0427000Y0167673D01*
X0427000Y0166075D02*
X0416251Y0166075D01*
X0416400Y0164476D02*
X0427000Y0164476D01*
X0427000Y0162878D02*
X0416400Y0162878D01*
X0416400Y0161279D02*
X0427000Y0161279D01*
X0427000Y0159681D02*
X0416400Y0159681D01*
X0416400Y0158082D02*
X0427000Y0158082D01*
X0427000Y0156484D02*
X0415820Y0156484D01*
X0414601Y0154885D02*
X0427000Y0154885D01*
X0427000Y0153287D02*
X0414601Y0153287D01*
X0414601Y0151688D02*
X0427000Y0151688D01*
X0427000Y0150090D02*
X0414051Y0150090D01*
X0413387Y0149426D02*
X0413387Y0149426D01*
X0412452Y0148491D02*
X0427000Y0148491D01*
X0427000Y0146893D02*
X0410854Y0146893D01*
X0409255Y0145294D02*
X0427000Y0145294D01*
X0427000Y0143696D02*
X0407657Y0143696D01*
X0406058Y0142097D02*
X0427000Y0142097D01*
X0427000Y0140499D02*
X0404460Y0140499D01*
X0402861Y0138900D02*
X0427000Y0138900D01*
X0427000Y0137302D02*
X0401263Y0137302D01*
X0399664Y0135703D02*
X0427000Y0135703D01*
X0427000Y0134105D02*
X0398066Y0134105D01*
X0396467Y0132506D02*
X0427000Y0132506D01*
X0427000Y0130908D02*
X0394869Y0130908D01*
X0393270Y0129309D02*
X0427000Y0129309D01*
X0427000Y0127711D02*
X0391672Y0127711D01*
X0390073Y0126112D02*
X0427000Y0126112D01*
X0427000Y0124514D02*
X0388475Y0124514D01*
X0386876Y0122915D02*
X0427000Y0122915D01*
X0427000Y0121317D02*
X0385278Y0121317D01*
X0383679Y0119718D02*
X0427000Y0119718D01*
X0427000Y0118120D02*
X0382081Y0118120D01*
X0380482Y0116521D02*
X0427000Y0116521D01*
X0427000Y0114923D02*
X0378883Y0114923D01*
X0377285Y0113324D02*
X0427000Y0113324D01*
X0427000Y0111726D02*
X0375686Y0111726D01*
X0374088Y0110127D02*
X0427000Y0110127D01*
X0427000Y0108529D02*
X0372489Y0108529D01*
X0370891Y0106930D02*
X0427000Y0106930D01*
X0427000Y0105332D02*
X0369292Y0105332D01*
X0367694Y0103733D02*
X0427000Y0103733D01*
X0427000Y0102134D02*
X0366095Y0102134D01*
X0364497Y0100536D02*
X0427000Y0100536D01*
X0427000Y0098937D02*
X0362898Y0098937D01*
X0361300Y0097339D02*
X0427000Y0097339D01*
X0427000Y0095740D02*
X0359701Y0095740D01*
X0358103Y0094142D02*
X0427000Y0094142D01*
X0427000Y0092543D02*
X0356504Y0092543D01*
X0354906Y0090945D02*
X0427000Y0090945D01*
X0427000Y0089346D02*
X0353195Y0089346D01*
X0354174Y0090213D02*
X0354174Y0090213D01*
X0351780Y0095740D02*
X0022899Y0095740D01*
X0022899Y0094142D02*
X0058799Y0094142D01*
X0058022Y0092543D02*
X0022899Y0092543D01*
X0022899Y0090945D02*
X0058065Y0090945D01*
X0058911Y0089346D02*
X0022899Y0089346D01*
X0022899Y0087748D02*
X0427000Y0087748D01*
X0427000Y0086149D02*
X0022899Y0086149D01*
X0022899Y0084551D02*
X0427000Y0084551D01*
X0427000Y0082952D02*
X0022899Y0082952D01*
X0022899Y0081354D02*
X0427000Y0081354D01*
X0427000Y0079755D02*
X0022899Y0079755D01*
X0022899Y0078157D02*
X0427000Y0078157D01*
X0427000Y0076558D02*
X0022899Y0076558D01*
X0022899Y0074960D02*
X0427367Y0074960D01*
X0428450Y0073361D02*
X0022899Y0073361D01*
X0022899Y0071763D02*
X0497000Y0071763D01*
X0497000Y0070164D02*
X0022899Y0070164D01*
X0022899Y0068566D02*
X0038817Y0068566D01*
X0038673Y0068461D02*
X0038139Y0067927D01*
X0037695Y0067316D01*
X0037352Y0066643D01*
X0037118Y0065924D01*
X0037000Y0065178D01*
X0037000Y0062000D01*
X0041600Y0062000D01*
X0041600Y0069600D01*
X0041422Y0069600D01*
X0040676Y0069482D01*
X0039957Y0069248D01*
X0039284Y0068905D01*
X0038673Y0068461D01*
X0037517Y0066967D02*
X0022899Y0066967D01*
X0022899Y0065369D02*
X0037030Y0065369D01*
X0037000Y0063770D02*
X0022899Y0063770D01*
X0022899Y0062172D02*
X0037000Y0062172D01*
X0037000Y0061600D02*
X0037000Y0058422D01*
X0037118Y0057676D01*
X0037352Y0056957D01*
X0037695Y0056284D01*
X0038139Y0055673D01*
X0038673Y0055139D01*
X0039284Y0054695D01*
X0039957Y0054352D01*
X0040676Y0054118D01*
X0041422Y0054000D01*
X0041600Y0054000D01*
X0041600Y0061600D01*
X0042000Y0061600D01*
X0042000Y0062000D01*
X0046600Y0062000D01*
X0046600Y0065178D01*
X0046482Y0065924D01*
X0046248Y0066643D01*
X0045905Y0067316D01*
X0045461Y0067927D01*
X0044927Y0068461D01*
X0044316Y0068905D01*
X0043643Y0069248D01*
X0042924Y0069482D01*
X0042178Y0069600D01*
X0042000Y0069600D01*
X0042000Y0062000D01*
X0041600Y0062000D01*
X0041600Y0061600D01*
X0037000Y0061600D01*
X0037000Y0060573D02*
X0022899Y0060573D01*
X0022899Y0058975D02*
X0037000Y0058975D01*
X0037216Y0057376D02*
X0022899Y0057376D01*
X0022899Y0055778D02*
X0038063Y0055778D01*
X0040488Y0054179D02*
X0022899Y0054179D01*
X0022899Y0052581D02*
X0399000Y0052581D01*
X0399000Y0051243D02*
X0399426Y0050214D01*
X0404426Y0045214D01*
X0405214Y0044426D01*
X0406243Y0044000D01*
X0457357Y0044000D01*
X0458386Y0044426D01*
X0463386Y0049426D01*
X0464174Y0050214D01*
X0464600Y0051243D01*
X0464600Y0055095D01*
X0465700Y0056194D01*
X0466400Y0057885D01*
X0466400Y0065715D01*
X0465700Y0067406D01*
X0464406Y0068700D01*
X0462715Y0069400D01*
X0460885Y0069400D01*
X0459194Y0068700D01*
X0457900Y0067406D01*
X0457200Y0065715D01*
X0457200Y0057885D01*
X0457900Y0056194D01*
X0459000Y0055095D01*
X0459000Y0052960D01*
X0455640Y0049600D01*
X0407960Y0049600D01*
X0404600Y0052960D01*
X0404600Y0055095D01*
X0405700Y0056194D01*
X0406400Y0057885D01*
X0406400Y0065715D01*
X0405700Y0067406D01*
X0404406Y0068700D01*
X0402715Y0069400D01*
X0400885Y0069400D01*
X0399194Y0068700D01*
X0397900Y0067406D01*
X0397200Y0065715D01*
X0397200Y0057885D01*
X0397900Y0056194D01*
X0399000Y0055095D01*
X0399000Y0051243D01*
X0399108Y0050982D02*
X0022899Y0050982D01*
X0022899Y0049384D02*
X0400257Y0049384D01*
X0401855Y0047785D02*
X0022899Y0047785D01*
X0022899Y0046187D02*
X0403454Y0046187D01*
X0405052Y0044588D02*
X0022899Y0044588D01*
X0022899Y0042990D02*
X0497000Y0042990D01*
X0497000Y0044588D02*
X0458548Y0044588D01*
X0460146Y0046187D02*
X0497000Y0046187D01*
X0497000Y0047785D02*
X0461745Y0047785D01*
X0463343Y0049384D02*
X0497000Y0049384D01*
X0497000Y0050982D02*
X0464492Y0050982D01*
X0464600Y0052581D02*
X0497000Y0052581D01*
X0497000Y0054179D02*
X0464600Y0054179D01*
X0465283Y0055778D02*
X0468317Y0055778D01*
X0467900Y0056194D02*
X0469194Y0054900D01*
X0470885Y0054200D01*
X0472715Y0054200D01*
X0474406Y0054900D01*
X0475700Y0056194D01*
X0476400Y0057885D01*
X0476400Y0065715D01*
X0475700Y0067406D01*
X0474406Y0068700D01*
X0472715Y0069400D01*
X0470885Y0069400D01*
X0469194Y0068700D01*
X0467900Y0067406D01*
X0467200Y0065715D01*
X0467200Y0057885D01*
X0467900Y0056194D01*
X0467411Y0057376D02*
X0466189Y0057376D01*
X0466400Y0058975D02*
X0467200Y0058975D01*
X0467200Y0060573D02*
X0466400Y0060573D01*
X0466400Y0062172D02*
X0467200Y0062172D01*
X0467200Y0063770D02*
X0466400Y0063770D01*
X0466400Y0065369D02*
X0467200Y0065369D01*
X0467719Y0066967D02*
X0465881Y0066967D01*
X0464540Y0068566D02*
X0469060Y0068566D01*
X0474540Y0068566D02*
X0479060Y0068566D01*
X0479194Y0068700D02*
X0477900Y0067406D01*
X0477200Y0065715D01*
X0477200Y0057885D01*
X0477900Y0056194D01*
X0479194Y0054900D01*
X0480885Y0054200D01*
X0482715Y0054200D01*
X0484406Y0054900D01*
X0485700Y0056194D01*
X0486400Y0057885D01*
X0486400Y0065715D01*
X0485700Y0067406D01*
X0484406Y0068700D01*
X0482715Y0069400D01*
X0480885Y0069400D01*
X0479194Y0068700D01*
X0477719Y0066967D02*
X0475881Y0066967D01*
X0476400Y0065369D02*
X0477200Y0065369D01*
X0477200Y0063770D02*
X0476400Y0063770D01*
X0476400Y0062172D02*
X0477200Y0062172D01*
X0477200Y0060573D02*
X0476400Y0060573D01*
X0476400Y0058975D02*
X0477200Y0058975D01*
X0477411Y0057376D02*
X0476189Y0057376D01*
X0475283Y0055778D02*
X0478317Y0055778D01*
X0485283Y0055778D02*
X0488317Y0055778D01*
X0487900Y0056194D02*
X0489194Y0054900D01*
X0490885Y0054200D01*
X0492715Y0054200D01*
X0494406Y0054900D01*
X0495700Y0056194D01*
X0496400Y0057885D01*
X0496400Y0065715D01*
X0495700Y0067406D01*
X0494406Y0068700D01*
X0492715Y0069400D01*
X0490885Y0069400D01*
X0489194Y0068700D01*
X0487900Y0067406D01*
X0487200Y0065715D01*
X0487200Y0057885D01*
X0487900Y0056194D01*
X0487411Y0057376D02*
X0486189Y0057376D01*
X0486400Y0058975D02*
X0487200Y0058975D01*
X0487200Y0060573D02*
X0486400Y0060573D01*
X0486400Y0062172D02*
X0487200Y0062172D01*
X0487200Y0063770D02*
X0486400Y0063770D01*
X0486400Y0065369D02*
X0487200Y0065369D01*
X0487719Y0066967D02*
X0485881Y0066967D01*
X0484540Y0068566D02*
X0489060Y0068566D01*
X0494540Y0068566D02*
X0497000Y0068566D01*
X0497000Y0066967D02*
X0495881Y0066967D01*
X0496400Y0065369D02*
X0497000Y0065369D01*
X0497000Y0063770D02*
X0496400Y0063770D01*
X0496400Y0062172D02*
X0497000Y0062172D01*
X0497000Y0060573D02*
X0496400Y0060573D01*
X0496400Y0058975D02*
X0497000Y0058975D01*
X0497000Y0057376D02*
X0496189Y0057376D01*
X0497000Y0055778D02*
X0495283Y0055778D01*
X0497000Y0041391D02*
X0022899Y0041391D01*
X0022899Y0039793D02*
X0497000Y0039793D01*
X0497000Y0038194D02*
X0022899Y0038194D01*
X0041600Y0054179D02*
X0042000Y0054179D01*
X0042000Y0054000D02*
X0042178Y0054000D01*
X0042924Y0054118D01*
X0043643Y0054352D01*
X0044316Y0054695D01*
X0044927Y0055139D01*
X0045461Y0055673D01*
X0045905Y0056284D01*
X0046248Y0056957D01*
X0046482Y0057676D01*
X0046600Y0058422D01*
X0046600Y0061600D01*
X0042000Y0061600D01*
X0042000Y0054000D01*
X0043112Y0054179D02*
X0110488Y0054179D01*
X0110676Y0054118D02*
X0111422Y0054000D01*
X0111600Y0054000D01*
X0111600Y0061600D01*
X0112000Y0061600D01*
X0112000Y0062000D01*
X0116600Y0062000D01*
X0116600Y0065178D01*
X0116482Y0065924D01*
X0116248Y0066643D01*
X0115905Y0067316D01*
X0115461Y0067927D01*
X0114927Y0068461D01*
X0114316Y0068905D01*
X0113643Y0069248D01*
X0112924Y0069482D01*
X0112178Y0069600D01*
X0112000Y0069600D01*
X0112000Y0062000D01*
X0111600Y0062000D01*
X0111600Y0069600D01*
X0111422Y0069600D01*
X0110676Y0069482D01*
X0109957Y0069248D01*
X0109284Y0068905D01*
X0108673Y0068461D01*
X0108139Y0067927D01*
X0107695Y0067316D01*
X0107352Y0066643D01*
X0107118Y0065924D01*
X0107000Y0065178D01*
X0107000Y0062000D01*
X0111600Y0062000D01*
X0111600Y0061600D01*
X0107000Y0061600D01*
X0107000Y0058422D01*
X0107118Y0057676D01*
X0107352Y0056957D01*
X0107695Y0056284D01*
X0108139Y0055673D01*
X0108673Y0055139D01*
X0109284Y0054695D01*
X0109957Y0054352D01*
X0110676Y0054118D01*
X0111600Y0054179D02*
X0112000Y0054179D01*
X0112000Y0054000D02*
X0112178Y0054000D01*
X0112924Y0054118D01*
X0113643Y0054352D01*
X0114316Y0054695D01*
X0114927Y0055139D01*
X0115461Y0055673D01*
X0115905Y0056284D01*
X0116248Y0056957D01*
X0116482Y0057676D01*
X0116600Y0058422D01*
X0116600Y0061600D01*
X0112000Y0061600D01*
X0112000Y0054000D01*
X0113112Y0054179D02*
X0180488Y0054179D01*
X0180676Y0054118D02*
X0181422Y0054000D01*
X0181600Y0054000D01*
X0181600Y0061600D01*
X0182000Y0061600D01*
X0182000Y0062000D01*
X0186600Y0062000D01*
X0186600Y0065178D01*
X0186482Y0065924D01*
X0186248Y0066643D01*
X0185905Y0067316D01*
X0185461Y0067927D01*
X0184927Y0068461D01*
X0184316Y0068905D01*
X0183643Y0069248D01*
X0182924Y0069482D01*
X0182178Y0069600D01*
X0182000Y0069600D01*
X0182000Y0062000D01*
X0181600Y0062000D01*
X0181600Y0069600D01*
X0181422Y0069600D01*
X0180676Y0069482D01*
X0179957Y0069248D01*
X0179284Y0068905D01*
X0178673Y0068461D01*
X0178139Y0067927D01*
X0177695Y0067316D01*
X0177352Y0066643D01*
X0177118Y0065924D01*
X0177000Y0065178D01*
X0177000Y0062000D01*
X0181600Y0062000D01*
X0181600Y0061600D01*
X0177000Y0061600D01*
X0177000Y0058422D01*
X0177118Y0057676D01*
X0177352Y0056957D01*
X0177695Y0056284D01*
X0178139Y0055673D01*
X0178673Y0055139D01*
X0179284Y0054695D01*
X0179957Y0054352D01*
X0180676Y0054118D01*
X0181600Y0054179D02*
X0182000Y0054179D01*
X0182000Y0054000D02*
X0182178Y0054000D01*
X0182924Y0054118D01*
X0183643Y0054352D01*
X0184316Y0054695D01*
X0184927Y0055139D01*
X0185461Y0055673D01*
X0185905Y0056284D01*
X0186248Y0056957D01*
X0186482Y0057676D01*
X0186600Y0058422D01*
X0186600Y0061600D01*
X0182000Y0061600D01*
X0182000Y0054000D01*
X0183112Y0054179D02*
X0250488Y0054179D01*
X0250676Y0054118D02*
X0251422Y0054000D01*
X0251600Y0054000D01*
X0251600Y0061600D01*
X0252000Y0061600D01*
X0252000Y0062000D01*
X0256600Y0062000D01*
X0256600Y0065178D01*
X0256482Y0065924D01*
X0256248Y0066643D01*
X0255905Y0067316D01*
X0255461Y0067927D01*
X0254927Y0068461D01*
X0254316Y0068905D01*
X0253643Y0069248D01*
X0252924Y0069482D01*
X0252178Y0069600D01*
X0252000Y0069600D01*
X0252000Y0062000D01*
X0251600Y0062000D01*
X0251600Y0069600D01*
X0251422Y0069600D01*
X0250676Y0069482D01*
X0249957Y0069248D01*
X0249284Y0068905D01*
X0248673Y0068461D01*
X0248139Y0067927D01*
X0247695Y0067316D01*
X0247352Y0066643D01*
X0247118Y0065924D01*
X0247000Y0065178D01*
X0247000Y0062000D01*
X0251600Y0062000D01*
X0251600Y0061600D01*
X0247000Y0061600D01*
X0247000Y0058422D01*
X0247118Y0057676D01*
X0247352Y0056957D01*
X0247695Y0056284D01*
X0248139Y0055673D01*
X0248673Y0055139D01*
X0249284Y0054695D01*
X0249957Y0054352D01*
X0250676Y0054118D01*
X0251600Y0054179D02*
X0252000Y0054179D01*
X0252000Y0054000D02*
X0252178Y0054000D01*
X0252924Y0054118D01*
X0253643Y0054352D01*
X0254316Y0054695D01*
X0254927Y0055139D01*
X0255461Y0055673D01*
X0255905Y0056284D01*
X0256248Y0056957D01*
X0256482Y0057676D01*
X0256600Y0058422D01*
X0256600Y0061600D01*
X0252000Y0061600D01*
X0252000Y0054000D01*
X0253112Y0054179D02*
X0340488Y0054179D01*
X0340676Y0054118D02*
X0341422Y0054000D01*
X0341600Y0054000D01*
X0341600Y0061600D01*
X0342000Y0061600D01*
X0342000Y0062000D01*
X0346600Y0062000D01*
X0346600Y0065178D01*
X0346482Y0065924D01*
X0346248Y0066643D01*
X0345905Y0067316D01*
X0345461Y0067927D01*
X0344927Y0068461D01*
X0344316Y0068905D01*
X0343643Y0069248D01*
X0342924Y0069482D01*
X0342178Y0069600D01*
X0342000Y0069600D01*
X0342000Y0062000D01*
X0341600Y0062000D01*
X0341600Y0069600D01*
X0341422Y0069600D01*
X0340676Y0069482D01*
X0339957Y0069248D01*
X0339284Y0068905D01*
X0338673Y0068461D01*
X0338139Y0067927D01*
X0337695Y0067316D01*
X0337352Y0066643D01*
X0337118Y0065924D01*
X0337000Y0065178D01*
X0337000Y0062000D01*
X0341600Y0062000D01*
X0341600Y0061600D01*
X0337000Y0061600D01*
X0337000Y0058422D01*
X0337118Y0057676D01*
X0337352Y0056957D01*
X0337695Y0056284D01*
X0338139Y0055673D01*
X0338673Y0055139D01*
X0339284Y0054695D01*
X0339957Y0054352D01*
X0340676Y0054118D01*
X0341600Y0054179D02*
X0342000Y0054179D01*
X0342000Y0054000D02*
X0342178Y0054000D01*
X0342924Y0054118D01*
X0343643Y0054352D01*
X0344316Y0054695D01*
X0344927Y0055139D01*
X0345461Y0055673D01*
X0345905Y0056284D01*
X0346248Y0056957D01*
X0346482Y0057676D01*
X0346600Y0058422D01*
X0346600Y0061600D01*
X0342000Y0061600D01*
X0342000Y0054000D01*
X0343112Y0054179D02*
X0399000Y0054179D01*
X0398317Y0055778D02*
X0395283Y0055778D01*
X0395700Y0056194D02*
X0396400Y0057885D01*
X0396400Y0065715D01*
X0395700Y0067406D01*
X0394406Y0068700D01*
X0392715Y0069400D01*
X0390885Y0069400D01*
X0389194Y0068700D01*
X0387900Y0067406D01*
X0387200Y0065715D01*
X0387200Y0057885D01*
X0387900Y0056194D01*
X0389194Y0054900D01*
X0390885Y0054200D01*
X0392715Y0054200D01*
X0394406Y0054900D01*
X0395700Y0056194D01*
X0396189Y0057376D02*
X0397411Y0057376D01*
X0397200Y0058975D02*
X0396400Y0058975D01*
X0396400Y0060573D02*
X0397200Y0060573D01*
X0397200Y0062172D02*
X0396400Y0062172D01*
X0396400Y0063770D02*
X0397200Y0063770D01*
X0397200Y0065369D02*
X0396400Y0065369D01*
X0395881Y0066967D02*
X0397719Y0066967D01*
X0399060Y0068566D02*
X0394540Y0068566D01*
X0389060Y0068566D02*
X0384540Y0068566D01*
X0384406Y0068700D02*
X0382715Y0069400D01*
X0380885Y0069400D01*
X0379194Y0068700D01*
X0377900Y0067406D01*
X0377200Y0065715D01*
X0377200Y0057885D01*
X0377900Y0056194D01*
X0379194Y0054900D01*
X0380885Y0054200D01*
X0382715Y0054200D01*
X0384406Y0054900D01*
X0385700Y0056194D01*
X0386400Y0057885D01*
X0386400Y0065715D01*
X0385700Y0067406D01*
X0384406Y0068700D01*
X0385881Y0066967D02*
X0387719Y0066967D01*
X0387200Y0065369D02*
X0386400Y0065369D01*
X0386400Y0063770D02*
X0387200Y0063770D01*
X0387200Y0062172D02*
X0386400Y0062172D01*
X0386400Y0060573D02*
X0387200Y0060573D01*
X0387200Y0058975D02*
X0386400Y0058975D01*
X0386189Y0057376D02*
X0387411Y0057376D01*
X0388317Y0055778D02*
X0385283Y0055778D01*
X0378317Y0055778D02*
X0375283Y0055778D01*
X0375700Y0056194D02*
X0376400Y0057885D01*
X0376400Y0065715D01*
X0375700Y0067406D01*
X0374406Y0068700D01*
X0372715Y0069400D01*
X0370885Y0069400D01*
X0369194Y0068700D01*
X0367900Y0067406D01*
X0367200Y0065715D01*
X0367200Y0057885D01*
X0367900Y0056194D01*
X0369194Y0054900D01*
X0370885Y0054200D01*
X0372715Y0054200D01*
X0374406Y0054900D01*
X0375700Y0056194D01*
X0376189Y0057376D02*
X0377411Y0057376D01*
X0377200Y0058975D02*
X0376400Y0058975D01*
X0376400Y0060573D02*
X0377200Y0060573D01*
X0377200Y0062172D02*
X0376400Y0062172D01*
X0376400Y0063770D02*
X0377200Y0063770D01*
X0377200Y0065369D02*
X0376400Y0065369D01*
X0375881Y0066967D02*
X0377719Y0066967D01*
X0379060Y0068566D02*
X0374540Y0068566D01*
X0369060Y0068566D02*
X0364540Y0068566D01*
X0364406Y0068700D02*
X0362715Y0069400D01*
X0360885Y0069400D01*
X0359194Y0068700D01*
X0357900Y0067406D01*
X0357200Y0065715D01*
X0357200Y0057885D01*
X0357900Y0056194D01*
X0359194Y0054900D01*
X0360885Y0054200D01*
X0362715Y0054200D01*
X0364406Y0054900D01*
X0365700Y0056194D01*
X0366400Y0057885D01*
X0366400Y0065715D01*
X0365700Y0067406D01*
X0364406Y0068700D01*
X0365881Y0066967D02*
X0367719Y0066967D01*
X0367200Y0065369D02*
X0366400Y0065369D01*
X0366400Y0063770D02*
X0367200Y0063770D01*
X0367200Y0062172D02*
X0366400Y0062172D01*
X0366400Y0060573D02*
X0367200Y0060573D01*
X0367200Y0058975D02*
X0366400Y0058975D01*
X0366189Y0057376D02*
X0367411Y0057376D01*
X0368317Y0055778D02*
X0365283Y0055778D01*
X0358317Y0055778D02*
X0355283Y0055778D01*
X0355700Y0056194D02*
X0356400Y0057885D01*
X0356400Y0065715D01*
X0355700Y0067406D01*
X0354406Y0068700D01*
X0352715Y0069400D01*
X0350885Y0069400D01*
X0349194Y0068700D01*
X0347900Y0067406D01*
X0347200Y0065715D01*
X0347200Y0057885D01*
X0347900Y0056194D01*
X0349194Y0054900D01*
X0350885Y0054200D01*
X0352715Y0054200D01*
X0354406Y0054900D01*
X0355700Y0056194D01*
X0356189Y0057376D02*
X0357411Y0057376D01*
X0357200Y0058975D02*
X0356400Y0058975D01*
X0356400Y0060573D02*
X0357200Y0060573D01*
X0357200Y0062172D02*
X0356400Y0062172D01*
X0356400Y0063770D02*
X0357200Y0063770D01*
X0357200Y0065369D02*
X0356400Y0065369D01*
X0355881Y0066967D02*
X0357719Y0066967D01*
X0359060Y0068566D02*
X0354540Y0068566D01*
X0349060Y0068566D02*
X0344783Y0068566D01*
X0346083Y0066967D02*
X0347719Y0066967D01*
X0347200Y0065369D02*
X0346570Y0065369D01*
X0346600Y0063770D02*
X0347200Y0063770D01*
X0347200Y0062172D02*
X0346600Y0062172D01*
X0346600Y0060573D02*
X0347200Y0060573D01*
X0347200Y0058975D02*
X0346600Y0058975D01*
X0346384Y0057376D02*
X0347411Y0057376D01*
X0348317Y0055778D02*
X0345537Y0055778D01*
X0342000Y0055778D02*
X0341600Y0055778D01*
X0341600Y0057376D02*
X0342000Y0057376D01*
X0342000Y0058975D02*
X0341600Y0058975D01*
X0341600Y0060573D02*
X0342000Y0060573D01*
X0342000Y0062172D02*
X0341600Y0062172D01*
X0341600Y0063770D02*
X0342000Y0063770D01*
X0342000Y0065369D02*
X0341600Y0065369D01*
X0341600Y0066967D02*
X0342000Y0066967D01*
X0342000Y0068566D02*
X0341600Y0068566D01*
X0338817Y0068566D02*
X0334540Y0068566D01*
X0334406Y0068700D02*
X0332715Y0069400D01*
X0330885Y0069400D01*
X0329194Y0068700D01*
X0327900Y0067406D01*
X0327200Y0065715D01*
X0327200Y0057885D01*
X0327900Y0056194D01*
X0329194Y0054900D01*
X0330885Y0054200D01*
X0332715Y0054200D01*
X0334406Y0054900D01*
X0335700Y0056194D01*
X0336400Y0057885D01*
X0336400Y0065715D01*
X0335700Y0067406D01*
X0334406Y0068700D01*
X0335881Y0066967D02*
X0337517Y0066967D01*
X0337030Y0065369D02*
X0336400Y0065369D01*
X0336400Y0063770D02*
X0337000Y0063770D01*
X0337000Y0062172D02*
X0336400Y0062172D01*
X0336400Y0060573D02*
X0337000Y0060573D01*
X0337000Y0058975D02*
X0336400Y0058975D01*
X0336189Y0057376D02*
X0337216Y0057376D01*
X0338063Y0055778D02*
X0335283Y0055778D01*
X0328317Y0055778D02*
X0325283Y0055778D01*
X0325700Y0056194D02*
X0326400Y0057885D01*
X0326400Y0065715D01*
X0325700Y0067406D01*
X0324406Y0068700D01*
X0322715Y0069400D01*
X0320885Y0069400D01*
X0319194Y0068700D01*
X0317900Y0067406D01*
X0317200Y0065715D01*
X0317200Y0057885D01*
X0317900Y0056194D01*
X0319194Y0054900D01*
X0320885Y0054200D01*
X0322715Y0054200D01*
X0324406Y0054900D01*
X0325700Y0056194D01*
X0326189Y0057376D02*
X0327411Y0057376D01*
X0327200Y0058975D02*
X0326400Y0058975D01*
X0326400Y0060573D02*
X0327200Y0060573D01*
X0327200Y0062172D02*
X0326400Y0062172D01*
X0326400Y0063770D02*
X0327200Y0063770D01*
X0327200Y0065369D02*
X0326400Y0065369D01*
X0325881Y0066967D02*
X0327719Y0066967D01*
X0329060Y0068566D02*
X0324540Y0068566D01*
X0319060Y0068566D02*
X0294540Y0068566D01*
X0294406Y0068700D02*
X0292715Y0069400D01*
X0290885Y0069400D01*
X0289194Y0068700D01*
X0287900Y0067406D01*
X0287200Y0065715D01*
X0287200Y0057885D01*
X0287900Y0056194D01*
X0289194Y0054900D01*
X0290885Y0054200D01*
X0292715Y0054200D01*
X0294406Y0054900D01*
X0295700Y0056194D01*
X0296400Y0057885D01*
X0296400Y0065715D01*
X0295700Y0067406D01*
X0294406Y0068700D01*
X0295881Y0066967D02*
X0317719Y0066967D01*
X0317200Y0065369D02*
X0296400Y0065369D01*
X0296400Y0063770D02*
X0317200Y0063770D01*
X0317200Y0062172D02*
X0296400Y0062172D01*
X0296400Y0060573D02*
X0317200Y0060573D01*
X0317200Y0058975D02*
X0296400Y0058975D01*
X0296189Y0057376D02*
X0317411Y0057376D01*
X0318317Y0055778D02*
X0295283Y0055778D01*
X0288317Y0055778D02*
X0285283Y0055778D01*
X0285700Y0056194D02*
X0286400Y0057885D01*
X0286400Y0065715D01*
X0285700Y0067406D01*
X0284406Y0068700D01*
X0282715Y0069400D01*
X0280885Y0069400D01*
X0279194Y0068700D01*
X0277900Y0067406D01*
X0277200Y0065715D01*
X0277200Y0057885D01*
X0277900Y0056194D01*
X0279194Y0054900D01*
X0280885Y0054200D01*
X0282715Y0054200D01*
X0284406Y0054900D01*
X0285700Y0056194D01*
X0286189Y0057376D02*
X0287411Y0057376D01*
X0287200Y0058975D02*
X0286400Y0058975D01*
X0286400Y0060573D02*
X0287200Y0060573D01*
X0287200Y0062172D02*
X0286400Y0062172D01*
X0286400Y0063770D02*
X0287200Y0063770D01*
X0287200Y0065369D02*
X0286400Y0065369D01*
X0285881Y0066967D02*
X0287719Y0066967D01*
X0289060Y0068566D02*
X0284540Y0068566D01*
X0279060Y0068566D02*
X0274540Y0068566D01*
X0274406Y0068700D02*
X0272715Y0069400D01*
X0270885Y0069400D01*
X0269194Y0068700D01*
X0267900Y0067406D01*
X0267200Y0065715D01*
X0267200Y0057885D01*
X0267900Y0056194D01*
X0269194Y0054900D01*
X0270885Y0054200D01*
X0272715Y0054200D01*
X0274406Y0054900D01*
X0275700Y0056194D01*
X0276400Y0057885D01*
X0276400Y0065715D01*
X0275700Y0067406D01*
X0274406Y0068700D01*
X0275881Y0066967D02*
X0277719Y0066967D01*
X0277200Y0065369D02*
X0276400Y0065369D01*
X0276400Y0063770D02*
X0277200Y0063770D01*
X0277200Y0062172D02*
X0276400Y0062172D01*
X0276400Y0060573D02*
X0277200Y0060573D01*
X0277200Y0058975D02*
X0276400Y0058975D01*
X0276189Y0057376D02*
X0277411Y0057376D01*
X0278317Y0055778D02*
X0275283Y0055778D01*
X0268317Y0055778D02*
X0265283Y0055778D01*
X0265700Y0056194D02*
X0266400Y0057885D01*
X0266400Y0065715D01*
X0265700Y0067406D01*
X0264406Y0068700D01*
X0262715Y0069400D01*
X0260885Y0069400D01*
X0259194Y0068700D01*
X0257900Y0067406D01*
X0257200Y0065715D01*
X0257200Y0057885D01*
X0257900Y0056194D01*
X0259194Y0054900D01*
X0260885Y0054200D01*
X0262715Y0054200D01*
X0264406Y0054900D01*
X0265700Y0056194D01*
X0266189Y0057376D02*
X0267411Y0057376D01*
X0267200Y0058975D02*
X0266400Y0058975D01*
X0266400Y0060573D02*
X0267200Y0060573D01*
X0267200Y0062172D02*
X0266400Y0062172D01*
X0266400Y0063770D02*
X0267200Y0063770D01*
X0267200Y0065369D02*
X0266400Y0065369D01*
X0265881Y0066967D02*
X0267719Y0066967D01*
X0269060Y0068566D02*
X0264540Y0068566D01*
X0259060Y0068566D02*
X0254783Y0068566D01*
X0256083Y0066967D02*
X0257719Y0066967D01*
X0257200Y0065369D02*
X0256570Y0065369D01*
X0256600Y0063770D02*
X0257200Y0063770D01*
X0257200Y0062172D02*
X0256600Y0062172D01*
X0256600Y0060573D02*
X0257200Y0060573D01*
X0257200Y0058975D02*
X0256600Y0058975D01*
X0256384Y0057376D02*
X0257411Y0057376D01*
X0258317Y0055778D02*
X0255537Y0055778D01*
X0252000Y0055778D02*
X0251600Y0055778D01*
X0251600Y0057376D02*
X0252000Y0057376D01*
X0252000Y0058975D02*
X0251600Y0058975D01*
X0251600Y0060573D02*
X0252000Y0060573D01*
X0252000Y0062172D02*
X0251600Y0062172D01*
X0251600Y0063770D02*
X0252000Y0063770D01*
X0252000Y0065369D02*
X0251600Y0065369D01*
X0251600Y0066967D02*
X0252000Y0066967D01*
X0252000Y0068566D02*
X0251600Y0068566D01*
X0248817Y0068566D02*
X0224540Y0068566D01*
X0224406Y0068700D02*
X0222715Y0069400D01*
X0220885Y0069400D01*
X0219194Y0068700D01*
X0217900Y0067406D01*
X0217200Y0065715D01*
X0217200Y0057885D01*
X0217900Y0056194D01*
X0219194Y0054900D01*
X0220885Y0054200D01*
X0222715Y0054200D01*
X0224406Y0054900D01*
X0225700Y0056194D01*
X0226400Y0057885D01*
X0226400Y0065715D01*
X0225700Y0067406D01*
X0224406Y0068700D01*
X0225881Y0066967D02*
X0247517Y0066967D01*
X0247030Y0065369D02*
X0226400Y0065369D01*
X0226400Y0063770D02*
X0247000Y0063770D01*
X0247000Y0062172D02*
X0226400Y0062172D01*
X0226400Y0060573D02*
X0247000Y0060573D01*
X0247000Y0058975D02*
X0226400Y0058975D01*
X0226189Y0057376D02*
X0247216Y0057376D01*
X0248063Y0055778D02*
X0225283Y0055778D01*
X0218317Y0055778D02*
X0215283Y0055778D01*
X0215700Y0056194D02*
X0216400Y0057885D01*
X0216400Y0065715D01*
X0215700Y0067406D01*
X0214406Y0068700D01*
X0212715Y0069400D01*
X0210885Y0069400D01*
X0209194Y0068700D01*
X0207900Y0067406D01*
X0207200Y0065715D01*
X0207200Y0057885D01*
X0207900Y0056194D01*
X0209194Y0054900D01*
X0210885Y0054200D01*
X0212715Y0054200D01*
X0214406Y0054900D01*
X0215700Y0056194D01*
X0216189Y0057376D02*
X0217411Y0057376D01*
X0217200Y0058975D02*
X0216400Y0058975D01*
X0216400Y0060573D02*
X0217200Y0060573D01*
X0217200Y0062172D02*
X0216400Y0062172D01*
X0216400Y0063770D02*
X0217200Y0063770D01*
X0217200Y0065369D02*
X0216400Y0065369D01*
X0215881Y0066967D02*
X0217719Y0066967D01*
X0219060Y0068566D02*
X0214540Y0068566D01*
X0209060Y0068566D02*
X0204540Y0068566D01*
X0204406Y0068700D02*
X0202715Y0069400D01*
X0200885Y0069400D01*
X0199194Y0068700D01*
X0197900Y0067406D01*
X0197200Y0065715D01*
X0197200Y0057885D01*
X0197900Y0056194D01*
X0199194Y0054900D01*
X0200885Y0054200D01*
X0202715Y0054200D01*
X0204406Y0054900D01*
X0205700Y0056194D01*
X0206400Y0057885D01*
X0206400Y0065715D01*
X0205700Y0067406D01*
X0204406Y0068700D01*
X0205881Y0066967D02*
X0207719Y0066967D01*
X0207200Y0065369D02*
X0206400Y0065369D01*
X0206400Y0063770D02*
X0207200Y0063770D01*
X0207200Y0062172D02*
X0206400Y0062172D01*
X0206400Y0060573D02*
X0207200Y0060573D01*
X0207200Y0058975D02*
X0206400Y0058975D01*
X0206189Y0057376D02*
X0207411Y0057376D01*
X0208317Y0055778D02*
X0205283Y0055778D01*
X0198317Y0055778D02*
X0195283Y0055778D01*
X0195700Y0056194D02*
X0196400Y0057885D01*
X0196400Y0065715D01*
X0195700Y0067406D01*
X0194406Y0068700D01*
X0192715Y0069400D01*
X0190885Y0069400D01*
X0189194Y0068700D01*
X0187900Y0067406D01*
X0187200Y0065715D01*
X0187200Y0057885D01*
X0187900Y0056194D01*
X0189194Y0054900D01*
X0190885Y0054200D01*
X0192715Y0054200D01*
X0194406Y0054900D01*
X0195700Y0056194D01*
X0196189Y0057376D02*
X0197411Y0057376D01*
X0197200Y0058975D02*
X0196400Y0058975D01*
X0196400Y0060573D02*
X0197200Y0060573D01*
X0197200Y0062172D02*
X0196400Y0062172D01*
X0196400Y0063770D02*
X0197200Y0063770D01*
X0197200Y0065369D02*
X0196400Y0065369D01*
X0195881Y0066967D02*
X0197719Y0066967D01*
X0199060Y0068566D02*
X0194540Y0068566D01*
X0189060Y0068566D02*
X0184783Y0068566D01*
X0186083Y0066967D02*
X0187719Y0066967D01*
X0187200Y0065369D02*
X0186570Y0065369D01*
X0186600Y0063770D02*
X0187200Y0063770D01*
X0187200Y0062172D02*
X0186600Y0062172D01*
X0186600Y0060573D02*
X0187200Y0060573D01*
X0187200Y0058975D02*
X0186600Y0058975D01*
X0186384Y0057376D02*
X0187411Y0057376D01*
X0188317Y0055778D02*
X0185537Y0055778D01*
X0182000Y0055778D02*
X0181600Y0055778D01*
X0181600Y0057376D02*
X0182000Y0057376D01*
X0182000Y0058975D02*
X0181600Y0058975D01*
X0181600Y0060573D02*
X0182000Y0060573D01*
X0182000Y0062172D02*
X0181600Y0062172D01*
X0181600Y0063770D02*
X0182000Y0063770D01*
X0182000Y0065369D02*
X0181600Y0065369D01*
X0181600Y0066967D02*
X0182000Y0066967D01*
X0182000Y0068566D02*
X0181600Y0068566D01*
X0178817Y0068566D02*
X0154540Y0068566D01*
X0154406Y0068700D02*
X0152715Y0069400D01*
X0150885Y0069400D01*
X0149194Y0068700D01*
X0147900Y0067406D01*
X0147200Y0065715D01*
X0147200Y0057885D01*
X0147900Y0056194D01*
X0149194Y0054900D01*
X0150885Y0054200D01*
X0152715Y0054200D01*
X0154406Y0054900D01*
X0155700Y0056194D01*
X0156400Y0057885D01*
X0156400Y0065715D01*
X0155700Y0067406D01*
X0154406Y0068700D01*
X0155881Y0066967D02*
X0177517Y0066967D01*
X0177030Y0065369D02*
X0156400Y0065369D01*
X0156400Y0063770D02*
X0177000Y0063770D01*
X0177000Y0062172D02*
X0156400Y0062172D01*
X0156400Y0060573D02*
X0177000Y0060573D01*
X0177000Y0058975D02*
X0156400Y0058975D01*
X0156189Y0057376D02*
X0177216Y0057376D01*
X0178063Y0055778D02*
X0155283Y0055778D01*
X0148317Y0055778D02*
X0145283Y0055778D01*
X0145700Y0056194D02*
X0146400Y0057885D01*
X0146400Y0065715D01*
X0145700Y0067406D01*
X0144406Y0068700D01*
X0142715Y0069400D01*
X0140885Y0069400D01*
X0139194Y0068700D01*
X0137900Y0067406D01*
X0137200Y0065715D01*
X0137200Y0057885D01*
X0137900Y0056194D01*
X0139194Y0054900D01*
X0140885Y0054200D01*
X0142715Y0054200D01*
X0144406Y0054900D01*
X0145700Y0056194D01*
X0146189Y0057376D02*
X0147411Y0057376D01*
X0147200Y0058975D02*
X0146400Y0058975D01*
X0146400Y0060573D02*
X0147200Y0060573D01*
X0147200Y0062172D02*
X0146400Y0062172D01*
X0146400Y0063770D02*
X0147200Y0063770D01*
X0147200Y0065369D02*
X0146400Y0065369D01*
X0145881Y0066967D02*
X0147719Y0066967D01*
X0149060Y0068566D02*
X0144540Y0068566D01*
X0139060Y0068566D02*
X0134540Y0068566D01*
X0134406Y0068700D02*
X0132715Y0069400D01*
X0130885Y0069400D01*
X0129194Y0068700D01*
X0127900Y0067406D01*
X0127200Y0065715D01*
X0127200Y0057885D01*
X0127900Y0056194D01*
X0129194Y0054900D01*
X0130885Y0054200D01*
X0132715Y0054200D01*
X0134406Y0054900D01*
X0135700Y0056194D01*
X0136400Y0057885D01*
X0136400Y0065715D01*
X0135700Y0067406D01*
X0134406Y0068700D01*
X0135881Y0066967D02*
X0137719Y0066967D01*
X0137200Y0065369D02*
X0136400Y0065369D01*
X0136400Y0063770D02*
X0137200Y0063770D01*
X0137200Y0062172D02*
X0136400Y0062172D01*
X0136400Y0060573D02*
X0137200Y0060573D01*
X0137200Y0058975D02*
X0136400Y0058975D01*
X0136189Y0057376D02*
X0137411Y0057376D01*
X0138317Y0055778D02*
X0135283Y0055778D01*
X0128317Y0055778D02*
X0125283Y0055778D01*
X0125700Y0056194D02*
X0124406Y0054900D01*
X0122715Y0054200D01*
X0120885Y0054200D01*
X0119194Y0054900D01*
X0117900Y0056194D01*
X0117200Y0057885D01*
X0117200Y0065715D01*
X0117900Y0067406D01*
X0119194Y0068700D01*
X0120885Y0069400D01*
X0122715Y0069400D01*
X0124406Y0068700D01*
X0125700Y0067406D01*
X0126400Y0065715D01*
X0126400Y0057885D01*
X0125700Y0056194D01*
X0126189Y0057376D02*
X0127411Y0057376D01*
X0127200Y0058975D02*
X0126400Y0058975D01*
X0126400Y0060573D02*
X0127200Y0060573D01*
X0127200Y0062172D02*
X0126400Y0062172D01*
X0126400Y0063770D02*
X0127200Y0063770D01*
X0127200Y0065369D02*
X0126400Y0065369D01*
X0125881Y0066967D02*
X0127719Y0066967D01*
X0129060Y0068566D02*
X0124540Y0068566D01*
X0119060Y0068566D02*
X0114783Y0068566D01*
X0116083Y0066967D02*
X0117719Y0066967D01*
X0117200Y0065369D02*
X0116570Y0065369D01*
X0116600Y0063770D02*
X0117200Y0063770D01*
X0117200Y0062172D02*
X0116600Y0062172D01*
X0116600Y0060573D02*
X0117200Y0060573D01*
X0117200Y0058975D02*
X0116600Y0058975D01*
X0116384Y0057376D02*
X0117411Y0057376D01*
X0118317Y0055778D02*
X0115537Y0055778D01*
X0112000Y0055778D02*
X0111600Y0055778D01*
X0111600Y0057376D02*
X0112000Y0057376D01*
X0112000Y0058975D02*
X0111600Y0058975D01*
X0111600Y0060573D02*
X0112000Y0060573D01*
X0112000Y0062172D02*
X0111600Y0062172D01*
X0111600Y0063770D02*
X0112000Y0063770D01*
X0112000Y0065369D02*
X0111600Y0065369D01*
X0111600Y0066967D02*
X0112000Y0066967D01*
X0112000Y0068566D02*
X0111600Y0068566D01*
X0108817Y0068566D02*
X0084540Y0068566D01*
X0084406Y0068700D02*
X0082715Y0069400D01*
X0080885Y0069400D01*
X0079194Y0068700D01*
X0077900Y0067406D01*
X0077200Y0065715D01*
X0077200Y0057885D01*
X0077900Y0056194D01*
X0079194Y0054900D01*
X0080885Y0054200D01*
X0082715Y0054200D01*
X0084406Y0054900D01*
X0085700Y0056194D01*
X0086400Y0057885D01*
X0086400Y0065715D01*
X0085700Y0067406D01*
X0084406Y0068700D01*
X0085881Y0066967D02*
X0107517Y0066967D01*
X0107030Y0065369D02*
X0086400Y0065369D01*
X0086400Y0063770D02*
X0107000Y0063770D01*
X0107000Y0062172D02*
X0086400Y0062172D01*
X0086400Y0060573D02*
X0107000Y0060573D01*
X0107000Y0058975D02*
X0086400Y0058975D01*
X0086189Y0057376D02*
X0107216Y0057376D01*
X0108063Y0055778D02*
X0085283Y0055778D01*
X0078317Y0055778D02*
X0075283Y0055778D01*
X0075700Y0056194D02*
X0076400Y0057885D01*
X0076400Y0065715D01*
X0075700Y0067406D01*
X0074406Y0068700D01*
X0072715Y0069400D01*
X0070885Y0069400D01*
X0069194Y0068700D01*
X0067900Y0067406D01*
X0067200Y0065715D01*
X0067200Y0057885D01*
X0067900Y0056194D01*
X0069194Y0054900D01*
X0070885Y0054200D01*
X0072715Y0054200D01*
X0074406Y0054900D01*
X0075700Y0056194D01*
X0076189Y0057376D02*
X0077411Y0057376D01*
X0077200Y0058975D02*
X0076400Y0058975D01*
X0076400Y0060573D02*
X0077200Y0060573D01*
X0077200Y0062172D02*
X0076400Y0062172D01*
X0076400Y0063770D02*
X0077200Y0063770D01*
X0077200Y0065369D02*
X0076400Y0065369D01*
X0075881Y0066967D02*
X0077719Y0066967D01*
X0079060Y0068566D02*
X0074540Y0068566D01*
X0069060Y0068566D02*
X0064540Y0068566D01*
X0064406Y0068700D02*
X0062715Y0069400D01*
X0060885Y0069400D01*
X0059194Y0068700D01*
X0057900Y0067406D01*
X0057200Y0065715D01*
X0057200Y0057885D01*
X0057900Y0056194D01*
X0059194Y0054900D01*
X0060885Y0054200D01*
X0062715Y0054200D01*
X0064406Y0054900D01*
X0065700Y0056194D01*
X0066400Y0057885D01*
X0066400Y0065715D01*
X0065700Y0067406D01*
X0064406Y0068700D01*
X0065881Y0066967D02*
X0067719Y0066967D01*
X0067200Y0065369D02*
X0066400Y0065369D01*
X0066400Y0063770D02*
X0067200Y0063770D01*
X0067200Y0062172D02*
X0066400Y0062172D01*
X0066400Y0060573D02*
X0067200Y0060573D01*
X0067200Y0058975D02*
X0066400Y0058975D01*
X0066189Y0057376D02*
X0067411Y0057376D01*
X0068317Y0055778D02*
X0065283Y0055778D01*
X0058317Y0055778D02*
X0055283Y0055778D01*
X0055700Y0056194D02*
X0056400Y0057885D01*
X0056400Y0065715D01*
X0055700Y0067406D01*
X0054406Y0068700D01*
X0052715Y0069400D01*
X0050885Y0069400D01*
X0049194Y0068700D01*
X0047900Y0067406D01*
X0047200Y0065715D01*
X0047200Y0057885D01*
X0047900Y0056194D01*
X0049194Y0054900D01*
X0050885Y0054200D01*
X0052715Y0054200D01*
X0054406Y0054900D01*
X0055700Y0056194D01*
X0056189Y0057376D02*
X0057411Y0057376D01*
X0057200Y0058975D02*
X0056400Y0058975D01*
X0056400Y0060573D02*
X0057200Y0060573D01*
X0057200Y0062172D02*
X0056400Y0062172D01*
X0056400Y0063770D02*
X0057200Y0063770D01*
X0057200Y0065369D02*
X0056400Y0065369D01*
X0055881Y0066967D02*
X0057719Y0066967D01*
X0059060Y0068566D02*
X0054540Y0068566D01*
X0049060Y0068566D02*
X0044783Y0068566D01*
X0046083Y0066967D02*
X0047719Y0066967D01*
X0047200Y0065369D02*
X0046570Y0065369D01*
X0046600Y0063770D02*
X0047200Y0063770D01*
X0047200Y0062172D02*
X0046600Y0062172D01*
X0046600Y0060573D02*
X0047200Y0060573D01*
X0047200Y0058975D02*
X0046600Y0058975D01*
X0046384Y0057376D02*
X0047411Y0057376D01*
X0048317Y0055778D02*
X0045537Y0055778D01*
X0042000Y0055778D02*
X0041600Y0055778D01*
X0041600Y0057376D02*
X0042000Y0057376D01*
X0042000Y0058975D02*
X0041600Y0058975D01*
X0041600Y0060573D02*
X0042000Y0060573D01*
X0042000Y0062172D02*
X0041600Y0062172D01*
X0041600Y0063770D02*
X0042000Y0063770D01*
X0042000Y0065369D02*
X0041600Y0065369D01*
X0041600Y0066967D02*
X0042000Y0066967D01*
X0042000Y0068566D02*
X0041600Y0068566D01*
X0022899Y0097339D02*
X0353378Y0097339D01*
X0354159Y0118120D02*
X0212787Y0118120D01*
X0210813Y0118120D02*
X0022899Y0118120D01*
X0022899Y0119718D02*
X0208573Y0119718D01*
X0208022Y0121317D02*
X0022899Y0121317D01*
X0022899Y0122915D02*
X0208173Y0122915D01*
X0209171Y0124514D02*
X0022899Y0124514D01*
X0022899Y0103733D02*
X0078511Y0103733D01*
X0078022Y0102134D02*
X0022899Y0102134D01*
X0022899Y0100536D02*
X0078234Y0100536D01*
X0079320Y0098937D02*
X0022899Y0098937D01*
X0084280Y0098937D02*
X0149320Y0098937D01*
X0154280Y0098937D02*
X0219320Y0098937D01*
X0224280Y0098937D02*
X0289320Y0098937D01*
X0353679Y0119718D02*
X0355757Y0119718D01*
X0355278Y0121317D02*
X0357356Y0121317D01*
X0351335Y0145294D02*
X0073236Y0145294D01*
X0404540Y0068566D02*
X0409060Y0068566D01*
X0409194Y0068700D02*
X0407900Y0067406D01*
X0407200Y0065715D01*
X0407200Y0057885D01*
X0407900Y0056194D01*
X0409194Y0054900D01*
X0410885Y0054200D01*
X0412715Y0054200D01*
X0414406Y0054900D01*
X0415700Y0056194D01*
X0416400Y0057885D01*
X0416400Y0065715D01*
X0415700Y0067406D01*
X0414406Y0068700D01*
X0412715Y0069400D01*
X0410885Y0069400D01*
X0409194Y0068700D01*
X0407719Y0066967D02*
X0405881Y0066967D01*
X0406400Y0065369D02*
X0407200Y0065369D01*
X0407200Y0063770D02*
X0406400Y0063770D01*
X0406400Y0062172D02*
X0407200Y0062172D01*
X0407200Y0060573D02*
X0406400Y0060573D01*
X0406400Y0058975D02*
X0407200Y0058975D01*
X0407411Y0057376D02*
X0406189Y0057376D01*
X0405283Y0055778D02*
X0408317Y0055778D01*
X0404600Y0054179D02*
X0450488Y0054179D01*
X0450676Y0054118D02*
X0451422Y0054000D01*
X0451600Y0054000D01*
X0451600Y0061600D01*
X0452000Y0061600D01*
X0452000Y0062000D01*
X0456600Y0062000D01*
X0456600Y0065178D01*
X0456482Y0065924D01*
X0456248Y0066643D01*
X0455905Y0067316D01*
X0455461Y0067927D01*
X0454927Y0068461D01*
X0454316Y0068905D01*
X0453643Y0069248D01*
X0452924Y0069482D01*
X0452178Y0069600D01*
X0452000Y0069600D01*
X0452000Y0062000D01*
X0451600Y0062000D01*
X0451600Y0069600D01*
X0451422Y0069600D01*
X0450676Y0069482D01*
X0449957Y0069248D01*
X0449284Y0068905D01*
X0448673Y0068461D01*
X0448139Y0067927D01*
X0447695Y0067316D01*
X0447352Y0066643D01*
X0447118Y0065924D01*
X0447000Y0065178D01*
X0447000Y0062000D01*
X0451600Y0062000D01*
X0451600Y0061600D01*
X0447000Y0061600D01*
X0447000Y0058422D01*
X0447118Y0057676D01*
X0447352Y0056957D01*
X0447695Y0056284D01*
X0448139Y0055673D01*
X0448673Y0055139D01*
X0449284Y0054695D01*
X0449957Y0054352D01*
X0450676Y0054118D01*
X0451600Y0054179D02*
X0452000Y0054179D01*
X0452000Y0054000D02*
X0452178Y0054000D01*
X0452924Y0054118D01*
X0453643Y0054352D01*
X0454316Y0054695D01*
X0454927Y0055139D01*
X0455461Y0055673D01*
X0455905Y0056284D01*
X0456248Y0056957D01*
X0456482Y0057676D01*
X0456600Y0058422D01*
X0456600Y0061600D01*
X0452000Y0061600D01*
X0452000Y0054000D01*
X0453112Y0054179D02*
X0459000Y0054179D01*
X0458621Y0052581D02*
X0404979Y0052581D01*
X0406578Y0050982D02*
X0457022Y0050982D01*
X0458317Y0055778D02*
X0455537Y0055778D01*
X0456384Y0057376D02*
X0457411Y0057376D01*
X0457200Y0058975D02*
X0456600Y0058975D01*
X0456600Y0060573D02*
X0457200Y0060573D01*
X0457200Y0062172D02*
X0456600Y0062172D01*
X0456600Y0063770D02*
X0457200Y0063770D01*
X0457200Y0065369D02*
X0456570Y0065369D01*
X0456083Y0066967D02*
X0457719Y0066967D01*
X0459060Y0068566D02*
X0454783Y0068566D01*
X0452000Y0068566D02*
X0451600Y0068566D01*
X0451600Y0066967D02*
X0452000Y0066967D01*
X0452000Y0065369D02*
X0451600Y0065369D01*
X0451600Y0063770D02*
X0452000Y0063770D01*
X0452000Y0062172D02*
X0451600Y0062172D01*
X0451600Y0060573D02*
X0452000Y0060573D01*
X0452000Y0058975D02*
X0451600Y0058975D01*
X0451600Y0057376D02*
X0452000Y0057376D01*
X0452000Y0055778D02*
X0451600Y0055778D01*
X0448063Y0055778D02*
X0445283Y0055778D01*
X0445700Y0056194D02*
X0446400Y0057885D01*
X0446400Y0065715D01*
X0445700Y0067406D01*
X0444406Y0068700D01*
X0442715Y0069400D01*
X0440885Y0069400D01*
X0439194Y0068700D01*
X0437900Y0067406D01*
X0437200Y0065715D01*
X0437200Y0057885D01*
X0437900Y0056194D01*
X0439194Y0054900D01*
X0440885Y0054200D01*
X0442715Y0054200D01*
X0444406Y0054900D01*
X0445700Y0056194D01*
X0446189Y0057376D02*
X0447216Y0057376D01*
X0447000Y0058975D02*
X0446400Y0058975D01*
X0446400Y0060573D02*
X0447000Y0060573D01*
X0447000Y0062172D02*
X0446400Y0062172D01*
X0446400Y0063770D02*
X0447000Y0063770D01*
X0447030Y0065369D02*
X0446400Y0065369D01*
X0445881Y0066967D02*
X0447517Y0066967D01*
X0448817Y0068566D02*
X0444540Y0068566D01*
X0439060Y0068566D02*
X0414540Y0068566D01*
X0415881Y0066967D02*
X0437719Y0066967D01*
X0437200Y0065369D02*
X0416400Y0065369D01*
X0416400Y0063770D02*
X0437200Y0063770D01*
X0437200Y0062172D02*
X0416400Y0062172D01*
X0416400Y0060573D02*
X0437200Y0060573D01*
X0437200Y0058975D02*
X0416400Y0058975D01*
X0416189Y0057376D02*
X0437411Y0057376D01*
X0438317Y0055778D02*
X0415283Y0055778D01*
D12*
X0406800Y0046800D02*
X0401800Y0051800D01*
X0401800Y0061800D01*
X0406800Y0046800D02*
X0456800Y0046800D01*
X0461800Y0051800D01*
X0461800Y0061800D01*
X0361800Y0151800D02*
X0351800Y0141800D01*
X0071800Y0141800D01*
X0081800Y0101800D02*
X0151800Y0101800D01*
X0131800Y0091800D02*
X0061800Y0091800D01*
X0361800Y0151800D02*
X0361800Y0161800D01*
D13*
X0371800Y0161800D02*
X0371800Y0151800D01*
X0351800Y0131800D01*
X0141800Y0131800D01*
X0211800Y0121800D02*
X0351800Y0121800D01*
X0381800Y0151800D01*
X0381800Y0161800D01*
X0391800Y0161800D02*
X0391800Y0151800D01*
X0351800Y0111800D01*
X0281800Y0111800D01*
X0291800Y0101800D02*
X0221800Y0101800D01*
X0151800Y0101800D01*
X0131800Y0091800D02*
X0201800Y0091800D01*
X0271800Y0091800D01*
X0351800Y0091800D01*
X0411800Y0151800D01*
X0411800Y0161800D01*
X0401800Y0161800D02*
X0401800Y0151800D01*
X0351800Y0101800D01*
X0291800Y0101800D01*
D14*
X0291800Y0101800D03*
X0281800Y0111800D03*
X0271800Y0091800D03*
X0221800Y0101800D03*
X0201800Y0091800D03*
X0151800Y0101800D03*
X0131800Y0091800D03*
X0081800Y0101800D03*
X0061800Y0091800D03*
X0141800Y0131800D03*
X0211800Y0121800D03*
X0071800Y0141800D03*
M02*
