G75*
%MOIN*%
%OFA0B0*%
%FSLAX25Y25*%
%IPPOS*%
%LPD*%
%AMOC8*
5,1,8,0,0,1.08239X$1,22.5*
%
%ADD10C,0.00600*%
D10*
X0094299Y0017100D02*
X0094299Y0020303D01*
X0095367Y0021370D01*
X0096434Y0020303D01*
X0096434Y0017100D01*
X0098570Y0017100D02*
X0098570Y0021370D01*
X0097502Y0021370D01*
X0096434Y0020303D01*
X0100745Y0020303D02*
X0101812Y0021370D01*
X0103947Y0021370D01*
X0105015Y0020303D01*
X0105015Y0018168D01*
X0103947Y0017100D01*
X0101812Y0017100D01*
X0100745Y0018168D01*
X0100745Y0020303D01*
X0107177Y0021370D02*
X0109312Y0021370D01*
X0108244Y0022438D02*
X0108244Y0018168D01*
X0107177Y0017100D01*
X0111474Y0017100D02*
X0112541Y0018168D01*
X0112541Y0022438D01*
X0111474Y0021370D02*
X0113609Y0021370D01*
X0115784Y0020303D02*
X0116852Y0021370D01*
X0118987Y0021370D01*
X0120055Y0020303D01*
X0120055Y0018168D01*
X0118987Y0017100D01*
X0116852Y0017100D01*
X0115784Y0018168D01*
X0115784Y0020303D01*
X0122230Y0021370D02*
X0123297Y0020303D01*
X0126500Y0020303D01*
X0126500Y0023505D02*
X0123297Y0023505D01*
X0122230Y0022438D01*
X0122230Y0021370D01*
X0123297Y0020303D02*
X0122230Y0019235D01*
X0122230Y0018168D01*
X0123297Y0017100D01*
X0126500Y0017100D01*
X0126500Y0023505D01*
X0126096Y0297100D02*
X0123961Y0297100D01*
X0122893Y0298168D01*
X0122893Y0300303D01*
X0123961Y0301370D01*
X0126096Y0301370D01*
X0127164Y0300303D01*
X0127164Y0298168D01*
X0126096Y0297100D01*
X0129339Y0300303D02*
X0133609Y0300303D01*
X0135784Y0300303D02*
X0140055Y0300303D01*
X0142230Y0300303D02*
X0146500Y0300303D01*
X0120718Y0302438D02*
X0120718Y0298168D01*
X0119650Y0297100D01*
X0117515Y0297100D01*
X0116448Y0298168D01*
X0116448Y0302438D01*
X0117515Y0303505D01*
X0119650Y0303505D01*
X0120718Y0302438D01*
X0114273Y0302438D02*
X0114273Y0298168D01*
X0113205Y0297100D01*
X0111070Y0297100D01*
X0110002Y0298168D01*
X0110002Y0302438D01*
X0111070Y0303505D01*
X0113205Y0303505D01*
X0114273Y0302438D01*
X0107827Y0300303D02*
X0107827Y0298168D01*
X0106759Y0297100D01*
X0104624Y0297100D01*
X0103557Y0298168D01*
X0103557Y0300303D01*
X0104624Y0301370D01*
X0106759Y0301370D01*
X0107827Y0300303D01*
X0101382Y0300303D02*
X0097111Y0300303D01*
X0094936Y0300303D02*
X0090666Y0300303D01*
X0088491Y0301370D02*
X0086355Y0303505D01*
X0088491Y0301370D02*
X0088491Y0299235D01*
X0086355Y0297100D01*
X0084194Y0296032D02*
X0079923Y0296032D01*
X0077748Y0297100D02*
X0075613Y0299235D01*
X0075613Y0301370D01*
X0077748Y0303505D01*
X0076680Y0307600D02*
X0074545Y0307600D01*
X0073478Y0308668D01*
X0073478Y0310803D01*
X0074545Y0311870D01*
X0076680Y0311870D01*
X0077748Y0310803D01*
X0077748Y0308668D01*
X0076680Y0307600D01*
X0073451Y0300303D02*
X0069181Y0300303D01*
X0067006Y0300303D02*
X0062735Y0300303D01*
X0060560Y0300303D02*
X0060560Y0298168D01*
X0059492Y0297100D01*
X0057357Y0297100D01*
X0056290Y0298168D01*
X0056290Y0300303D01*
X0057357Y0301370D01*
X0059492Y0301370D01*
X0060560Y0300303D01*
X0054115Y0298168D02*
X0054115Y0302438D01*
X0053047Y0303505D01*
X0050912Y0303505D01*
X0049844Y0302438D01*
X0054115Y0298168D01*
X0053047Y0297100D01*
X0050912Y0297100D01*
X0049844Y0298168D01*
X0049844Y0302438D01*
X0047669Y0302438D02*
X0046601Y0303505D01*
X0044466Y0303505D01*
X0043399Y0302438D01*
X0047669Y0298168D01*
X0046601Y0297100D01*
X0044466Y0297100D01*
X0043399Y0298168D01*
X0043399Y0302438D01*
X0041224Y0300303D02*
X0041224Y0298168D01*
X0040156Y0297100D01*
X0038021Y0297100D01*
X0036953Y0298168D01*
X0036953Y0300303D01*
X0038021Y0301370D01*
X0040156Y0301370D01*
X0041224Y0300303D01*
X0034778Y0300303D02*
X0030508Y0300303D01*
X0028333Y0300303D02*
X0024062Y0300303D01*
X0021887Y0300303D02*
X0017617Y0300303D01*
X0047669Y0298168D02*
X0047669Y0302438D01*
X0069167Y0309735D02*
X0069167Y0311870D01*
X0071303Y0314005D01*
X0069167Y0309735D02*
X0071303Y0307600D01*
X0079897Y0318100D02*
X0075626Y0324505D01*
X0082045Y0324505D02*
X0082045Y0318100D01*
X0084220Y0318100D02*
X0088491Y0324505D01*
X0092801Y0314005D02*
X0094936Y0311870D01*
X0094936Y0309735D01*
X0092801Y0307600D01*
X0090639Y0308668D02*
X0090639Y0310803D01*
X0089571Y0311870D01*
X0087436Y0311870D01*
X0086369Y0310803D01*
X0086369Y0308668D01*
X0087436Y0307600D01*
X0089571Y0307600D01*
X0090639Y0308668D01*
M02*
