G75*
%MOIN*%
%OFA0B0*%
%FSLAX25Y25*%
%IPPOS*%
%LPD*%
%AMOC8*
5,1,8,0,0,1.08239X$1,22.5*
%
%ADD10C,0.06000*%
%ADD11C,0.01600*%
%ADD12C,0.02402*%
%ADD13C,0.04356*%
D10*
X0028800Y0021800D02*
X0034800Y0021800D01*
X0034800Y0031800D02*
X0028800Y0031800D01*
X0028800Y0041800D02*
X0034800Y0041800D01*
X0034800Y0051800D02*
X0028800Y0051800D01*
X0028800Y0061800D02*
X0034800Y0061800D01*
X0034800Y0071800D02*
X0028800Y0071800D01*
X0048800Y0071800D02*
X0054800Y0071800D01*
X0054800Y0061800D02*
X0048800Y0061800D01*
X0048800Y0051800D02*
X0054800Y0051800D01*
X0054800Y0041800D02*
X0048800Y0041800D01*
X0048800Y0031800D02*
X0054800Y0031800D01*
X0054800Y0021800D02*
X0048800Y0021800D01*
X0068800Y0021800D02*
X0074800Y0021800D01*
X0074800Y0031800D02*
X0068800Y0031800D01*
X0068800Y0041800D02*
X0074800Y0041800D01*
X0074800Y0051800D02*
X0068800Y0051800D01*
X0068800Y0061800D02*
X0074800Y0061800D01*
X0074800Y0071800D02*
X0068800Y0071800D01*
X0068800Y0081800D02*
X0074800Y0081800D01*
X0074800Y0091800D02*
X0068800Y0091800D01*
X0068800Y0101800D02*
X0074800Y0101800D01*
X0074800Y0111800D02*
X0068800Y0111800D01*
X0054800Y0111800D02*
X0048800Y0111800D01*
X0048800Y0101800D02*
X0054800Y0101800D01*
X0054800Y0091800D02*
X0048800Y0091800D01*
X0048800Y0081800D02*
X0054800Y0081800D01*
X0034800Y0141800D02*
X0028800Y0141800D01*
X0028800Y0151800D02*
X0034800Y0151800D01*
X0034800Y0161800D02*
X0028800Y0161800D01*
X0028800Y0171800D02*
X0034800Y0171800D01*
X0034800Y0181800D02*
X0028800Y0181800D01*
X0028800Y0211800D02*
X0034800Y0211800D01*
X0034800Y0221800D02*
X0028800Y0221800D01*
X0028800Y0231800D02*
X0034800Y0231800D01*
X0034800Y0241800D02*
X0028800Y0241800D01*
X0028800Y0251800D02*
X0034800Y0251800D01*
X0034800Y0281800D02*
X0028800Y0281800D01*
X0028800Y0291800D02*
X0034800Y0291800D01*
X0034800Y0301800D02*
X0028800Y0301800D01*
X0028800Y0311800D02*
X0034800Y0311800D01*
X0034800Y0321800D02*
X0028800Y0321800D01*
X0168800Y0111800D02*
X0174800Y0111800D01*
X0174800Y0101800D02*
X0168800Y0101800D01*
X0168800Y0091800D02*
X0174800Y0091800D01*
X0174800Y0081800D02*
X0168800Y0081800D01*
X0168800Y0071800D02*
X0174800Y0071800D01*
X0174800Y0061800D02*
X0168800Y0061800D01*
X0168800Y0051800D02*
X0174800Y0051800D01*
X0174800Y0041800D02*
X0168800Y0041800D01*
X0168800Y0031800D02*
X0174800Y0031800D01*
X0174800Y0021800D02*
X0168800Y0021800D01*
X0188800Y0021800D02*
X0194800Y0021800D01*
X0194800Y0031800D02*
X0188800Y0031800D01*
X0188800Y0041800D02*
X0194800Y0041800D01*
X0194800Y0051800D02*
X0188800Y0051800D01*
X0188800Y0061800D02*
X0194800Y0061800D01*
X0194800Y0071800D02*
X0188800Y0071800D01*
X0188800Y0081800D02*
X0194800Y0081800D01*
X0194800Y0091800D02*
X0188800Y0091800D01*
X0188800Y0101800D02*
X0194800Y0101800D01*
X0194800Y0111800D02*
X0188800Y0111800D01*
D11*
X0016600Y0016600D02*
X0016600Y0330701D01*
X0206921Y0330701D01*
X0206921Y0016600D01*
X0016600Y0016600D01*
X0016600Y0018194D02*
X0025901Y0018194D01*
X0026194Y0017900D02*
X0027885Y0017200D01*
X0035715Y0017200D01*
X0037406Y0017900D01*
X0038700Y0019194D01*
X0039400Y0020885D01*
X0039400Y0022715D01*
X0038700Y0024406D01*
X0037406Y0025700D01*
X0035715Y0026400D01*
X0027885Y0026400D01*
X0026194Y0025700D01*
X0024900Y0024406D01*
X0024200Y0022715D01*
X0024200Y0020885D01*
X0024900Y0019194D01*
X0026194Y0017900D01*
X0024652Y0019793D02*
X0016600Y0019793D01*
X0016600Y0021391D02*
X0024200Y0021391D01*
X0024314Y0022990D02*
X0016600Y0022990D01*
X0016600Y0024588D02*
X0025083Y0024588D01*
X0027370Y0026187D02*
X0016600Y0026187D01*
X0016600Y0027785D02*
X0026472Y0027785D01*
X0026194Y0027900D02*
X0027885Y0027200D01*
X0035715Y0027200D01*
X0037406Y0027900D01*
X0038700Y0029194D01*
X0039400Y0030885D01*
X0039400Y0032715D01*
X0038700Y0034406D01*
X0037406Y0035700D01*
X0035715Y0036400D01*
X0027885Y0036400D01*
X0026194Y0035700D01*
X0024900Y0034406D01*
X0024200Y0032715D01*
X0024200Y0030885D01*
X0024900Y0029194D01*
X0026194Y0027900D01*
X0024822Y0029384D02*
X0016600Y0029384D01*
X0016600Y0030982D02*
X0024200Y0030982D01*
X0024200Y0032581D02*
X0016600Y0032581D01*
X0016600Y0034179D02*
X0024806Y0034179D01*
X0026383Y0035778D02*
X0016600Y0035778D01*
X0016600Y0037376D02*
X0027460Y0037376D01*
X0027885Y0037200D02*
X0035715Y0037200D01*
X0037406Y0037900D01*
X0038700Y0039194D01*
X0038999Y0039917D01*
X0038999Y0036243D01*
X0039426Y0035213D01*
X0040213Y0034426D01*
X0044515Y0030124D01*
X0044900Y0029194D01*
X0046194Y0027900D01*
X0047885Y0027200D01*
X0055715Y0027200D01*
X0057406Y0027900D01*
X0058505Y0028999D01*
X0065095Y0028999D01*
X0066194Y0027900D01*
X0067885Y0027200D01*
X0075715Y0027200D01*
X0077406Y0027900D01*
X0078700Y0029194D01*
X0079400Y0030885D01*
X0079400Y0032715D01*
X0078700Y0034406D01*
X0077406Y0035700D01*
X0075715Y0036400D01*
X0067885Y0036400D01*
X0066194Y0035700D01*
X0065095Y0034601D01*
X0058505Y0034601D01*
X0057406Y0035700D01*
X0055715Y0036400D01*
X0047885Y0036400D01*
X0046666Y0035895D01*
X0044601Y0037960D01*
X0044601Y0039917D01*
X0044900Y0039194D01*
X0046194Y0037900D01*
X0047885Y0037200D01*
X0055715Y0037200D01*
X0057406Y0037900D01*
X0058505Y0038999D01*
X0065095Y0038999D01*
X0066194Y0037900D01*
X0067885Y0037200D01*
X0075715Y0037200D01*
X0077406Y0037900D01*
X0078700Y0039194D01*
X0079400Y0040885D01*
X0079400Y0042715D01*
X0078700Y0044406D01*
X0077406Y0045700D01*
X0075715Y0046400D01*
X0067885Y0046400D01*
X0066194Y0045700D01*
X0065095Y0044601D01*
X0058505Y0044601D01*
X0057406Y0045700D01*
X0055715Y0046400D01*
X0047885Y0046400D01*
X0046194Y0045700D01*
X0044900Y0044406D01*
X0044601Y0043683D01*
X0044601Y0047357D01*
X0044174Y0048387D01*
X0039174Y0053387D01*
X0039085Y0053476D01*
X0038700Y0054406D01*
X0037406Y0055700D01*
X0035715Y0056400D01*
X0027885Y0056400D01*
X0026194Y0055700D01*
X0024900Y0054406D01*
X0024200Y0052715D01*
X0024200Y0050885D01*
X0024900Y0049194D01*
X0026194Y0047900D01*
X0027885Y0047200D01*
X0035715Y0047200D01*
X0036934Y0047705D01*
X0038999Y0045640D01*
X0038999Y0043683D01*
X0038700Y0044406D01*
X0037406Y0045700D01*
X0035715Y0046400D01*
X0027885Y0046400D01*
X0026194Y0045700D01*
X0024900Y0044406D01*
X0024200Y0042715D01*
X0024200Y0040885D01*
X0024900Y0039194D01*
X0026194Y0037900D01*
X0027885Y0037200D01*
X0025120Y0038975D02*
X0016600Y0038975D01*
X0016600Y0040573D02*
X0024329Y0040573D01*
X0024200Y0042172D02*
X0016600Y0042172D01*
X0016600Y0043770D02*
X0024637Y0043770D01*
X0025863Y0045369D02*
X0016600Y0045369D01*
X0016600Y0046967D02*
X0037672Y0046967D01*
X0037737Y0045369D02*
X0038999Y0045369D01*
X0038963Y0043770D02*
X0038999Y0043770D01*
X0038999Y0038975D02*
X0038480Y0038975D01*
X0038999Y0037376D02*
X0036140Y0037376D01*
X0037217Y0035778D02*
X0039192Y0035778D01*
X0038794Y0034179D02*
X0040460Y0034179D01*
X0039400Y0032581D02*
X0042058Y0032581D01*
X0043657Y0030982D02*
X0039400Y0030982D01*
X0038778Y0029384D02*
X0044822Y0029384D01*
X0046472Y0027785D02*
X0037128Y0027785D01*
X0036230Y0026187D02*
X0047370Y0026187D01*
X0047885Y0026400D02*
X0046194Y0025700D01*
X0044900Y0024406D01*
X0044200Y0022715D01*
X0044200Y0020885D01*
X0044900Y0019194D01*
X0046194Y0017900D01*
X0047885Y0017200D01*
X0055715Y0017200D01*
X0057406Y0017900D01*
X0058505Y0018999D01*
X0065095Y0018999D01*
X0066194Y0017900D01*
X0067885Y0017200D01*
X0075715Y0017200D01*
X0077406Y0017900D01*
X0078700Y0019194D01*
X0079400Y0020885D01*
X0079400Y0022715D01*
X0078700Y0024406D01*
X0077406Y0025700D01*
X0075715Y0026400D01*
X0067885Y0026400D01*
X0066194Y0025700D01*
X0065095Y0024601D01*
X0058505Y0024601D01*
X0057406Y0025700D01*
X0055715Y0026400D01*
X0047885Y0026400D01*
X0045083Y0024588D02*
X0038517Y0024588D01*
X0039286Y0022990D02*
X0044314Y0022990D01*
X0044200Y0021391D02*
X0039400Y0021391D01*
X0038947Y0019793D02*
X0044652Y0019793D01*
X0045901Y0018194D02*
X0037699Y0018194D01*
X0045185Y0037376D02*
X0047460Y0037376D01*
X0045120Y0038975D02*
X0044601Y0038975D01*
X0044601Y0043770D02*
X0044637Y0043770D01*
X0044601Y0045369D02*
X0045863Y0045369D01*
X0044601Y0046967D02*
X0206921Y0046967D01*
X0206921Y0045369D02*
X0197737Y0045369D01*
X0197406Y0045700D02*
X0195715Y0046400D01*
X0187885Y0046400D01*
X0186194Y0045700D01*
X0185095Y0044601D01*
X0178505Y0044601D01*
X0177406Y0045700D01*
X0175715Y0046400D01*
X0167885Y0046400D01*
X0166194Y0045700D01*
X0164900Y0044406D01*
X0164200Y0042715D01*
X0164200Y0040885D01*
X0164900Y0039194D01*
X0166194Y0037900D01*
X0167885Y0037200D01*
X0175715Y0037200D01*
X0177406Y0037900D01*
X0178505Y0038999D01*
X0185095Y0038999D01*
X0186194Y0037900D01*
X0187885Y0037200D01*
X0195715Y0037200D01*
X0197406Y0037900D01*
X0198700Y0039194D01*
X0199400Y0040885D01*
X0199400Y0042715D01*
X0198700Y0044406D01*
X0197406Y0045700D01*
X0197406Y0047900D02*
X0198700Y0049194D01*
X0199400Y0050885D01*
X0199400Y0052715D01*
X0198700Y0054406D01*
X0197406Y0055700D01*
X0195715Y0056400D01*
X0187885Y0056400D01*
X0186194Y0055700D01*
X0185095Y0054601D01*
X0178505Y0054601D01*
X0177406Y0055700D01*
X0175715Y0056400D01*
X0167885Y0056400D01*
X0166194Y0055700D01*
X0164900Y0054406D01*
X0164200Y0052715D01*
X0164200Y0050885D01*
X0164900Y0049194D01*
X0166194Y0047900D01*
X0167885Y0047200D01*
X0175715Y0047200D01*
X0177406Y0047900D01*
X0178505Y0048999D01*
X0185095Y0048999D01*
X0186194Y0047900D01*
X0187885Y0047200D01*
X0195715Y0047200D01*
X0197406Y0047900D01*
X0198071Y0048566D02*
X0206921Y0048566D01*
X0206921Y0050164D02*
X0199101Y0050164D01*
X0199400Y0051763D02*
X0206921Y0051763D01*
X0206921Y0053361D02*
X0199132Y0053361D01*
X0198146Y0054960D02*
X0206921Y0054960D01*
X0206921Y0056558D02*
X0016600Y0056558D01*
X0016600Y0054960D02*
X0025454Y0054960D01*
X0024468Y0053361D02*
X0016600Y0053361D01*
X0016600Y0051763D02*
X0024200Y0051763D01*
X0024499Y0050164D02*
X0016600Y0050164D01*
X0016600Y0048566D02*
X0025529Y0048566D01*
X0027885Y0057200D02*
X0026194Y0057900D01*
X0024900Y0059194D01*
X0024200Y0060885D01*
X0024200Y0062715D01*
X0024900Y0064406D01*
X0026194Y0065700D01*
X0027885Y0066400D01*
X0035715Y0066400D01*
X0037406Y0065700D01*
X0038700Y0064406D01*
X0039400Y0062715D01*
X0039400Y0060885D01*
X0038700Y0059194D01*
X0037406Y0057900D01*
X0035715Y0057200D01*
X0027885Y0057200D01*
X0025938Y0058157D02*
X0016600Y0058157D01*
X0016600Y0059755D02*
X0024668Y0059755D01*
X0024200Y0061354D02*
X0016600Y0061354D01*
X0016600Y0062952D02*
X0024298Y0062952D01*
X0025045Y0064551D02*
X0016600Y0064551D01*
X0016600Y0066149D02*
X0027280Y0066149D01*
X0027676Y0067118D02*
X0028422Y0067000D01*
X0031600Y0067000D01*
X0031600Y0071600D01*
X0032000Y0071600D01*
X0032000Y0072000D01*
X0031600Y0072000D01*
X0031600Y0076600D01*
X0028422Y0076600D01*
X0027676Y0076482D01*
X0026957Y0076248D01*
X0026284Y0075905D01*
X0025673Y0075461D01*
X0025139Y0074927D01*
X0024695Y0074316D01*
X0024352Y0073643D01*
X0024118Y0072924D01*
X0024000Y0072178D01*
X0024000Y0072000D01*
X0031600Y0072000D01*
X0031600Y0071600D01*
X0024000Y0071600D01*
X0024000Y0071422D01*
X0024118Y0070676D01*
X0024352Y0069957D01*
X0024695Y0069284D01*
X0025139Y0068673D01*
X0025673Y0068139D01*
X0026284Y0067695D01*
X0026957Y0067352D01*
X0027676Y0067118D01*
X0026211Y0067748D02*
X0016600Y0067748D01*
X0016600Y0069346D02*
X0024663Y0069346D01*
X0024076Y0070945D02*
X0016600Y0070945D01*
X0016600Y0072543D02*
X0024058Y0072543D01*
X0024606Y0074142D02*
X0016600Y0074142D01*
X0016600Y0075740D02*
X0026057Y0075740D01*
X0031600Y0075740D02*
X0032000Y0075740D01*
X0032000Y0076600D02*
X0032000Y0072000D01*
X0039600Y0072000D01*
X0039600Y0072178D01*
X0039482Y0072924D01*
X0039248Y0073643D01*
X0038905Y0074316D01*
X0038461Y0074927D01*
X0037927Y0075461D01*
X0037316Y0075905D01*
X0036643Y0076248D01*
X0035924Y0076482D01*
X0035178Y0076600D01*
X0032000Y0076600D01*
X0032000Y0074142D02*
X0031600Y0074142D01*
X0031600Y0072543D02*
X0032000Y0072543D01*
X0032000Y0071600D02*
X0039600Y0071600D01*
X0039600Y0071422D01*
X0039482Y0070676D01*
X0039248Y0069957D01*
X0038905Y0069284D01*
X0038461Y0068673D01*
X0037927Y0068139D01*
X0037316Y0067695D01*
X0036643Y0067352D01*
X0035924Y0067118D01*
X0035178Y0067000D01*
X0032000Y0067000D01*
X0032000Y0071600D01*
X0032000Y0070945D02*
X0031600Y0070945D01*
X0031600Y0069346D02*
X0032000Y0069346D01*
X0032000Y0067748D02*
X0031600Y0067748D01*
X0036320Y0066149D02*
X0047280Y0066149D01*
X0047885Y0066400D02*
X0046194Y0065700D01*
X0044900Y0064406D01*
X0044200Y0062715D01*
X0044200Y0060885D01*
X0044900Y0059194D01*
X0046194Y0057900D01*
X0047885Y0057200D01*
X0055715Y0057200D01*
X0057406Y0057900D01*
X0058505Y0058999D01*
X0065095Y0058999D01*
X0066194Y0057900D01*
X0067885Y0057200D01*
X0075715Y0057200D01*
X0077406Y0057900D01*
X0078700Y0059194D01*
X0079400Y0060885D01*
X0079400Y0062715D01*
X0078700Y0064406D01*
X0077406Y0065700D01*
X0075715Y0066400D01*
X0067885Y0066400D01*
X0066194Y0065700D01*
X0065095Y0064601D01*
X0058505Y0064601D01*
X0057406Y0065700D01*
X0055715Y0066400D01*
X0047885Y0066400D01*
X0047885Y0067200D02*
X0055715Y0067200D01*
X0057406Y0067900D01*
X0058505Y0068999D01*
X0065095Y0068999D01*
X0066194Y0067900D01*
X0067885Y0067200D01*
X0075715Y0067200D01*
X0077406Y0067900D01*
X0078700Y0069194D01*
X0079400Y0070885D01*
X0079400Y0072715D01*
X0078700Y0074406D01*
X0077406Y0075700D01*
X0075715Y0076400D01*
X0067885Y0076400D01*
X0066194Y0075700D01*
X0065095Y0074601D01*
X0058505Y0074601D01*
X0057406Y0075700D01*
X0055715Y0076400D01*
X0047885Y0076400D01*
X0046194Y0075700D01*
X0044900Y0074406D01*
X0044200Y0072715D01*
X0044200Y0070885D01*
X0044900Y0069194D01*
X0046194Y0067900D01*
X0047885Y0067200D01*
X0046562Y0067748D02*
X0037389Y0067748D01*
X0038937Y0069346D02*
X0044837Y0069346D01*
X0044200Y0070945D02*
X0039524Y0070945D01*
X0039542Y0072543D02*
X0044200Y0072543D01*
X0044791Y0074142D02*
X0038994Y0074142D01*
X0037543Y0075740D02*
X0046293Y0075740D01*
X0047549Y0077339D02*
X0016600Y0077339D01*
X0016600Y0078937D02*
X0045157Y0078937D01*
X0044900Y0079194D02*
X0046194Y0077900D01*
X0047885Y0077200D01*
X0055715Y0077200D01*
X0057406Y0077900D01*
X0058505Y0078999D01*
X0065095Y0078999D01*
X0066194Y0077900D01*
X0067885Y0077200D01*
X0075715Y0077200D01*
X0077406Y0077900D01*
X0078700Y0079194D01*
X0079400Y0080885D01*
X0079400Y0082715D01*
X0078700Y0084406D01*
X0077406Y0085700D01*
X0075715Y0086400D01*
X0067885Y0086400D01*
X0066194Y0085700D01*
X0065095Y0084601D01*
X0058505Y0084601D01*
X0057406Y0085700D01*
X0055715Y0086400D01*
X0047885Y0086400D01*
X0046194Y0085700D01*
X0044900Y0084406D01*
X0044200Y0082715D01*
X0044200Y0080885D01*
X0044900Y0079194D01*
X0044345Y0080536D02*
X0016600Y0080536D01*
X0016600Y0082134D02*
X0044200Y0082134D01*
X0044622Y0083733D02*
X0016600Y0083733D01*
X0016600Y0085332D02*
X0045826Y0085332D01*
X0046194Y0087900D02*
X0044900Y0089194D01*
X0044200Y0090885D01*
X0044200Y0092715D01*
X0044900Y0094406D01*
X0046194Y0095700D01*
X0047885Y0096400D01*
X0055715Y0096400D01*
X0057406Y0095700D01*
X0058700Y0094406D01*
X0059400Y0092715D01*
X0059400Y0090885D01*
X0058700Y0089194D01*
X0057406Y0087900D01*
X0055715Y0087200D01*
X0047885Y0087200D01*
X0046194Y0087900D01*
X0045566Y0088529D02*
X0016600Y0088529D01*
X0016600Y0090127D02*
X0044514Y0090127D01*
X0044200Y0091726D02*
X0016600Y0091726D01*
X0016600Y0093324D02*
X0044452Y0093324D01*
X0045417Y0094923D02*
X0016600Y0094923D01*
X0016600Y0096521D02*
X0206921Y0096521D01*
X0206921Y0094923D02*
X0198183Y0094923D01*
X0198700Y0094406D02*
X0197406Y0095700D01*
X0195715Y0096400D01*
X0187885Y0096400D01*
X0186194Y0095700D01*
X0185095Y0094601D01*
X0178505Y0094601D01*
X0177406Y0095700D01*
X0175715Y0096400D01*
X0167885Y0096400D01*
X0166194Y0095700D01*
X0164900Y0094406D01*
X0164200Y0092715D01*
X0164200Y0090885D01*
X0164900Y0089194D01*
X0166194Y0087900D01*
X0167885Y0087200D01*
X0175715Y0087200D01*
X0177406Y0087900D01*
X0178505Y0088999D01*
X0185095Y0088999D01*
X0186194Y0087900D01*
X0187885Y0087200D01*
X0195715Y0087200D01*
X0197406Y0087900D01*
X0198700Y0089194D01*
X0199400Y0090885D01*
X0199400Y0092715D01*
X0198700Y0094406D01*
X0199148Y0093324D02*
X0206921Y0093324D01*
X0206921Y0091726D02*
X0199400Y0091726D01*
X0199086Y0090127D02*
X0206921Y0090127D01*
X0206921Y0088529D02*
X0198034Y0088529D01*
X0197406Y0085700D02*
X0195715Y0086400D01*
X0187885Y0086400D01*
X0186194Y0085700D01*
X0185095Y0084601D01*
X0178505Y0084601D01*
X0177406Y0085700D01*
X0175715Y0086400D01*
X0167885Y0086400D01*
X0166194Y0085700D01*
X0164900Y0084406D01*
X0164200Y0082715D01*
X0164200Y0080885D01*
X0164900Y0079194D01*
X0166194Y0077900D01*
X0167885Y0077200D01*
X0175715Y0077200D01*
X0177406Y0077900D01*
X0178505Y0078999D01*
X0185095Y0078999D01*
X0186194Y0077900D01*
X0187885Y0077200D01*
X0195715Y0077200D01*
X0197406Y0077900D01*
X0198700Y0079194D01*
X0199400Y0080885D01*
X0199400Y0082715D01*
X0198700Y0084406D01*
X0197406Y0085700D01*
X0197774Y0085332D02*
X0206921Y0085332D01*
X0206921Y0086930D02*
X0016600Y0086930D01*
X0016600Y0098120D02*
X0045699Y0098120D01*
X0045673Y0098139D02*
X0046284Y0097695D01*
X0046957Y0097352D01*
X0047676Y0097118D01*
X0048422Y0097000D01*
X0051600Y0097000D01*
X0051600Y0101600D01*
X0052000Y0101600D01*
X0052000Y0102000D01*
X0051600Y0102000D01*
X0051600Y0106600D01*
X0048422Y0106600D01*
X0047676Y0106482D01*
X0046957Y0106248D01*
X0046284Y0105905D01*
X0045673Y0105461D01*
X0045139Y0104927D01*
X0044695Y0104316D01*
X0044352Y0103643D01*
X0044118Y0102924D01*
X0044000Y0102178D01*
X0044000Y0102000D01*
X0051600Y0102000D01*
X0051600Y0101600D01*
X0044000Y0101600D01*
X0044000Y0101422D01*
X0044118Y0100676D01*
X0044352Y0099957D01*
X0044695Y0099284D01*
X0045139Y0098673D01*
X0045673Y0098139D01*
X0044474Y0099718D02*
X0016600Y0099718D01*
X0016600Y0101317D02*
X0044017Y0101317D01*
X0044117Y0102915D02*
X0016600Y0102915D01*
X0016600Y0104514D02*
X0044838Y0104514D01*
X0046690Y0106112D02*
X0016600Y0106112D01*
X0016600Y0107711D02*
X0046652Y0107711D01*
X0046194Y0107900D02*
X0047885Y0107200D01*
X0055715Y0107200D01*
X0057406Y0107900D01*
X0058505Y0108999D01*
X0065095Y0108999D01*
X0066194Y0107900D01*
X0067885Y0107200D01*
X0075715Y0107200D01*
X0077406Y0107900D01*
X0078700Y0109194D01*
X0079400Y0110885D01*
X0079400Y0112715D01*
X0078700Y0114406D01*
X0077406Y0115700D01*
X0075715Y0116400D01*
X0067885Y0116400D01*
X0066194Y0115700D01*
X0065095Y0114601D01*
X0058505Y0114601D01*
X0057406Y0115700D01*
X0055715Y0116400D01*
X0047885Y0116400D01*
X0046194Y0115700D01*
X0044900Y0114406D01*
X0044200Y0112715D01*
X0044200Y0110885D01*
X0044900Y0109194D01*
X0046194Y0107900D01*
X0044853Y0109309D02*
X0016600Y0109309D01*
X0016600Y0110908D02*
X0044200Y0110908D01*
X0044200Y0112506D02*
X0016600Y0112506D01*
X0016600Y0114105D02*
X0044776Y0114105D01*
X0046203Y0115703D02*
X0016600Y0115703D01*
X0016600Y0117302D02*
X0206921Y0117302D01*
X0206921Y0118900D02*
X0016600Y0118900D01*
X0016600Y0120499D02*
X0206921Y0120499D01*
X0206921Y0122097D02*
X0016600Y0122097D01*
X0016600Y0123696D02*
X0206921Y0123696D01*
X0206921Y0125294D02*
X0016600Y0125294D01*
X0016600Y0126893D02*
X0206921Y0126893D01*
X0206921Y0128491D02*
X0016600Y0128491D01*
X0016600Y0130090D02*
X0206921Y0130090D01*
X0206921Y0131688D02*
X0016600Y0131688D01*
X0016600Y0133287D02*
X0206921Y0133287D01*
X0206921Y0134885D02*
X0016600Y0134885D01*
X0016600Y0136484D02*
X0206921Y0136484D01*
X0206921Y0138082D02*
X0112697Y0138082D01*
X0112551Y0138022D02*
X0113940Y0138597D01*
X0115003Y0139660D01*
X0115578Y0141049D01*
X0115578Y0142551D01*
X0115003Y0143940D01*
X0113940Y0145003D01*
X0112551Y0145578D01*
X0111049Y0145578D01*
X0109660Y0145003D01*
X0109258Y0144601D01*
X0038505Y0144601D01*
X0037406Y0145700D01*
X0035715Y0146400D01*
X0027885Y0146400D01*
X0026194Y0145700D01*
X0024900Y0144406D01*
X0024200Y0142715D01*
X0024200Y0140885D01*
X0024900Y0139194D01*
X0026194Y0137900D01*
X0027885Y0137200D01*
X0035715Y0137200D01*
X0037406Y0137900D01*
X0038505Y0138999D01*
X0109258Y0138999D01*
X0109660Y0138597D01*
X0111049Y0138022D01*
X0112551Y0138022D01*
X0110903Y0138082D02*
X0037588Y0138082D01*
X0036500Y0146075D02*
X0206921Y0146075D01*
X0206921Y0147673D02*
X0036858Y0147673D01*
X0037406Y0147900D02*
X0035715Y0147200D01*
X0027885Y0147200D01*
X0026194Y0147900D01*
X0024900Y0149194D01*
X0024200Y0150885D01*
X0024200Y0152715D01*
X0024900Y0154406D01*
X0026194Y0155700D01*
X0027885Y0156400D01*
X0035715Y0156400D01*
X0037406Y0155700D01*
X0038505Y0154601D01*
X0119258Y0154601D01*
X0119660Y0155003D01*
X0121049Y0155578D01*
X0122551Y0155578D01*
X0123940Y0155003D01*
X0125003Y0153940D01*
X0125578Y0152551D01*
X0125578Y0151049D01*
X0125003Y0149660D01*
X0123940Y0148597D01*
X0122551Y0148022D01*
X0121049Y0148022D01*
X0119660Y0148597D01*
X0119258Y0148999D01*
X0038505Y0148999D01*
X0037406Y0147900D01*
X0037439Y0155666D02*
X0206921Y0155666D01*
X0206921Y0154068D02*
X0124875Y0154068D01*
X0125578Y0152469D02*
X0206921Y0152469D01*
X0206921Y0150870D02*
X0125504Y0150870D01*
X0124615Y0149272D02*
X0206921Y0149272D01*
X0206921Y0144476D02*
X0114466Y0144476D01*
X0115443Y0142878D02*
X0206921Y0142878D01*
X0206921Y0141279D02*
X0115578Y0141279D01*
X0115011Y0139681D02*
X0206921Y0139681D01*
X0206921Y0157265D02*
X0035871Y0157265D01*
X0035715Y0157200D02*
X0037406Y0157900D01*
X0038505Y0158999D01*
X0099258Y0158999D01*
X0099660Y0158597D01*
X0101049Y0158022D01*
X0102551Y0158022D01*
X0103940Y0158597D01*
X0105003Y0159660D01*
X0105578Y0161049D01*
X0105578Y0162551D01*
X0105003Y0163940D01*
X0103940Y0165003D01*
X0102551Y0165578D01*
X0101049Y0165578D01*
X0099660Y0165003D01*
X0099258Y0164601D01*
X0038505Y0164601D01*
X0037406Y0165700D01*
X0035715Y0166400D01*
X0027885Y0166400D01*
X0026194Y0165700D01*
X0024900Y0164406D01*
X0024200Y0162715D01*
X0024200Y0160885D01*
X0024900Y0159194D01*
X0026194Y0157900D01*
X0027885Y0157200D01*
X0035715Y0157200D01*
X0038368Y0158863D02*
X0099394Y0158863D01*
X0104206Y0158863D02*
X0206921Y0158863D01*
X0206921Y0160462D02*
X0105335Y0160462D01*
X0105578Y0162060D02*
X0206921Y0162060D01*
X0206921Y0163659D02*
X0105119Y0163659D01*
X0103326Y0165257D02*
X0206921Y0165257D01*
X0206921Y0166856D02*
X0016600Y0166856D01*
X0016600Y0168454D02*
X0025358Y0168454D01*
X0025139Y0168673D02*
X0025673Y0168139D01*
X0026284Y0167695D01*
X0026957Y0167352D01*
X0027676Y0167118D01*
X0028422Y0167000D01*
X0031600Y0167000D01*
X0031600Y0171600D01*
X0032000Y0171600D01*
X0032000Y0172000D01*
X0031600Y0172000D01*
X0031600Y0176600D01*
X0028422Y0176600D01*
X0027676Y0176482D01*
X0026957Y0176248D01*
X0026284Y0175905D01*
X0025673Y0175461D01*
X0025139Y0174927D01*
X0024695Y0174316D01*
X0024352Y0173643D01*
X0024118Y0172924D01*
X0024000Y0172178D01*
X0024000Y0172000D01*
X0031600Y0172000D01*
X0031600Y0171600D01*
X0024000Y0171600D01*
X0024000Y0171422D01*
X0024118Y0170676D01*
X0024352Y0169957D01*
X0024695Y0169284D01*
X0025139Y0168673D01*
X0024321Y0170053D02*
X0016600Y0170053D01*
X0016600Y0171651D02*
X0031600Y0171651D01*
X0032000Y0171651D02*
X0206921Y0171651D01*
X0206921Y0170053D02*
X0039279Y0170053D01*
X0039248Y0169957D02*
X0039482Y0170676D01*
X0039600Y0171422D01*
X0039600Y0171600D01*
X0032000Y0171600D01*
X0032000Y0167000D01*
X0035178Y0167000D01*
X0035924Y0167118D01*
X0036643Y0167352D01*
X0037316Y0167695D01*
X0037927Y0168139D01*
X0038461Y0168673D01*
X0038905Y0169284D01*
X0039248Y0169957D01*
X0038242Y0168454D02*
X0206921Y0168454D01*
X0206921Y0173250D02*
X0039376Y0173250D01*
X0039482Y0172924D02*
X0039248Y0173643D01*
X0038905Y0174316D01*
X0038461Y0174927D01*
X0037927Y0175461D01*
X0037316Y0175905D01*
X0036643Y0176248D01*
X0035924Y0176482D01*
X0035178Y0176600D01*
X0032000Y0176600D01*
X0032000Y0172000D01*
X0039600Y0172000D01*
X0039600Y0172178D01*
X0039482Y0172924D01*
X0038518Y0174848D02*
X0206921Y0174848D01*
X0206921Y0176447D02*
X0036032Y0176447D01*
X0035715Y0177200D02*
X0037406Y0177900D01*
X0038700Y0179194D01*
X0039400Y0180885D01*
X0039400Y0182715D01*
X0038700Y0184406D01*
X0037406Y0185700D01*
X0035715Y0186400D01*
X0027885Y0186400D01*
X0026194Y0185700D01*
X0024900Y0184406D01*
X0024200Y0182715D01*
X0024200Y0180885D01*
X0024900Y0179194D01*
X0026194Y0177900D01*
X0027885Y0177200D01*
X0035715Y0177200D01*
X0037551Y0178045D02*
X0206921Y0178045D01*
X0206921Y0179644D02*
X0038886Y0179644D01*
X0039400Y0181242D02*
X0206921Y0181242D01*
X0206921Y0182841D02*
X0039348Y0182841D01*
X0038666Y0184439D02*
X0206921Y0184439D01*
X0206921Y0186038D02*
X0036590Y0186038D01*
X0032000Y0176447D02*
X0031600Y0176447D01*
X0031600Y0174848D02*
X0032000Y0174848D01*
X0032000Y0173250D02*
X0031600Y0173250D01*
X0031600Y0170053D02*
X0032000Y0170053D01*
X0032000Y0168454D02*
X0031600Y0168454D01*
X0027568Y0176447D02*
X0016600Y0176447D01*
X0016600Y0178045D02*
X0026049Y0178045D01*
X0024714Y0179644D02*
X0016600Y0179644D01*
X0016600Y0181242D02*
X0024200Y0181242D01*
X0024252Y0182841D02*
X0016600Y0182841D01*
X0016600Y0184439D02*
X0024934Y0184439D01*
X0027010Y0186038D02*
X0016600Y0186038D01*
X0016600Y0187636D02*
X0206921Y0187636D01*
X0206921Y0189235D02*
X0016600Y0189235D01*
X0016600Y0190833D02*
X0206921Y0190833D01*
X0206921Y0192432D02*
X0016600Y0192432D01*
X0016600Y0194030D02*
X0206921Y0194030D01*
X0206921Y0195629D02*
X0016600Y0195629D01*
X0016600Y0197227D02*
X0206921Y0197227D01*
X0206921Y0198826D02*
X0016600Y0198826D01*
X0016600Y0200424D02*
X0206921Y0200424D01*
X0206921Y0202023D02*
X0016600Y0202023D01*
X0016600Y0203621D02*
X0206921Y0203621D01*
X0206921Y0205220D02*
X0016600Y0205220D01*
X0016600Y0206818D02*
X0206921Y0206818D01*
X0206921Y0208417D02*
X0113505Y0208417D01*
X0113940Y0208597D02*
X0112551Y0208022D01*
X0111049Y0208022D01*
X0109660Y0208597D01*
X0109258Y0208999D01*
X0038505Y0208999D01*
X0037406Y0207900D01*
X0035715Y0207200D01*
X0027885Y0207200D01*
X0026194Y0207900D01*
X0024900Y0209194D01*
X0024200Y0210885D01*
X0024200Y0212715D01*
X0024900Y0214406D01*
X0026194Y0215700D01*
X0027885Y0216400D01*
X0035715Y0216400D01*
X0037406Y0215700D01*
X0038505Y0214601D01*
X0109258Y0214601D01*
X0109660Y0215003D01*
X0111049Y0215578D01*
X0112551Y0215578D01*
X0113940Y0215003D01*
X0115003Y0213940D01*
X0115578Y0212551D01*
X0115578Y0211049D01*
X0115003Y0209660D01*
X0113940Y0208597D01*
X0115150Y0210015D02*
X0206921Y0210015D01*
X0206921Y0211614D02*
X0115578Y0211614D01*
X0115304Y0213212D02*
X0206921Y0213212D01*
X0206921Y0214811D02*
X0114132Y0214811D01*
X0109468Y0214811D02*
X0038294Y0214811D01*
X0037406Y0217900D02*
X0035715Y0217200D01*
X0027885Y0217200D01*
X0026194Y0217900D01*
X0024900Y0219194D01*
X0024200Y0220885D01*
X0024200Y0222715D01*
X0024900Y0224406D01*
X0026194Y0225700D01*
X0027885Y0226400D01*
X0035715Y0226400D01*
X0037406Y0225700D01*
X0038505Y0224601D01*
X0129258Y0224601D01*
X0129660Y0225003D01*
X0131049Y0225578D01*
X0132551Y0225578D01*
X0133940Y0225003D01*
X0135003Y0223940D01*
X0135578Y0222551D01*
X0135578Y0221049D01*
X0135003Y0219660D01*
X0133940Y0218597D01*
X0132551Y0218022D01*
X0131049Y0218022D01*
X0129660Y0218597D01*
X0129258Y0218999D01*
X0038505Y0218999D01*
X0037406Y0217900D01*
X0037513Y0218008D02*
X0206921Y0218008D01*
X0206921Y0219606D02*
X0134949Y0219606D01*
X0135578Y0221205D02*
X0206921Y0221205D01*
X0206921Y0222803D02*
X0135474Y0222803D01*
X0134541Y0224402D02*
X0206921Y0224402D01*
X0206921Y0226001D02*
X0036679Y0226001D01*
X0035715Y0227200D02*
X0037406Y0227900D01*
X0038505Y0228999D01*
X0099258Y0228999D01*
X0099660Y0228597D01*
X0101049Y0228022D01*
X0102551Y0228022D01*
X0103940Y0228597D01*
X0105003Y0229660D01*
X0105578Y0231049D01*
X0105578Y0232551D01*
X0105003Y0233940D01*
X0103940Y0235003D01*
X0102551Y0235578D01*
X0101049Y0235578D01*
X0099660Y0235003D01*
X0099258Y0234601D01*
X0038505Y0234601D01*
X0037406Y0235700D01*
X0035715Y0236400D01*
X0027885Y0236400D01*
X0026194Y0235700D01*
X0024900Y0234406D01*
X0024200Y0232715D01*
X0024200Y0230885D01*
X0024900Y0229194D01*
X0026194Y0227900D01*
X0027885Y0227200D01*
X0035715Y0227200D01*
X0036678Y0227599D02*
X0206921Y0227599D01*
X0206921Y0229198D02*
X0104540Y0229198D01*
X0105473Y0230796D02*
X0206921Y0230796D01*
X0206921Y0232395D02*
X0105578Y0232395D01*
X0104950Y0233993D02*
X0206921Y0233993D01*
X0206921Y0235592D02*
X0037514Y0235592D01*
X0036643Y0237352D02*
X0037316Y0237695D01*
X0037927Y0238139D01*
X0038461Y0238673D01*
X0038905Y0239284D01*
X0039248Y0239957D01*
X0039482Y0240676D01*
X0039600Y0241422D01*
X0039600Y0241600D01*
X0032000Y0241600D01*
X0032000Y0242000D01*
X0031600Y0242000D01*
X0031600Y0246600D01*
X0028422Y0246600D01*
X0027676Y0246482D01*
X0026957Y0246248D01*
X0026284Y0245905D01*
X0025673Y0245461D01*
X0025139Y0244927D01*
X0024695Y0244316D01*
X0024352Y0243643D01*
X0024118Y0242924D01*
X0024000Y0242178D01*
X0024000Y0242000D01*
X0031600Y0242000D01*
X0031600Y0241600D01*
X0032000Y0241600D01*
X0032000Y0237000D01*
X0035178Y0237000D01*
X0035924Y0237118D01*
X0036643Y0237352D01*
X0036145Y0237190D02*
X0206921Y0237190D01*
X0206921Y0238789D02*
X0038545Y0238789D01*
X0039388Y0240387D02*
X0206921Y0240387D01*
X0206921Y0241986D02*
X0032000Y0241986D01*
X0032000Y0242000D02*
X0039600Y0242000D01*
X0039600Y0242178D01*
X0039482Y0242924D01*
X0039248Y0243643D01*
X0038905Y0244316D01*
X0038461Y0244927D01*
X0037927Y0245461D01*
X0037316Y0245905D01*
X0036643Y0246248D01*
X0035924Y0246482D01*
X0035178Y0246600D01*
X0032000Y0246600D01*
X0032000Y0242000D01*
X0031600Y0241986D02*
X0016600Y0241986D01*
X0016600Y0243584D02*
X0024333Y0243584D01*
X0025394Y0245183D02*
X0016600Y0245183D01*
X0016600Y0246781D02*
X0206921Y0246781D01*
X0206921Y0245183D02*
X0038206Y0245183D01*
X0039267Y0243584D02*
X0206921Y0243584D01*
X0206921Y0248380D02*
X0037885Y0248380D01*
X0037406Y0247900D02*
X0038700Y0249194D01*
X0039400Y0250885D01*
X0039400Y0252715D01*
X0038700Y0254406D01*
X0037406Y0255700D01*
X0035715Y0256400D01*
X0027885Y0256400D01*
X0026194Y0255700D01*
X0024900Y0254406D01*
X0024200Y0252715D01*
X0024200Y0250885D01*
X0024900Y0249194D01*
X0026194Y0247900D01*
X0027885Y0247200D01*
X0035715Y0247200D01*
X0037406Y0247900D01*
X0039024Y0249978D02*
X0206921Y0249978D01*
X0206921Y0251577D02*
X0039400Y0251577D01*
X0039209Y0253175D02*
X0206921Y0253175D01*
X0206921Y0254774D02*
X0038332Y0254774D01*
X0035782Y0256372D02*
X0206921Y0256372D01*
X0206921Y0257971D02*
X0016600Y0257971D01*
X0016600Y0259569D02*
X0206921Y0259569D01*
X0206921Y0261168D02*
X0016600Y0261168D01*
X0016600Y0262766D02*
X0206921Y0262766D01*
X0206921Y0264365D02*
X0016600Y0264365D01*
X0016600Y0265963D02*
X0206921Y0265963D01*
X0206921Y0267562D02*
X0016600Y0267562D01*
X0016600Y0269160D02*
X0206921Y0269160D01*
X0206921Y0270759D02*
X0016600Y0270759D01*
X0016600Y0272357D02*
X0206921Y0272357D01*
X0206921Y0273956D02*
X0016600Y0273956D01*
X0016600Y0275554D02*
X0206921Y0275554D01*
X0206921Y0277153D02*
X0016600Y0277153D01*
X0016600Y0278751D02*
X0025343Y0278751D01*
X0024900Y0279194D02*
X0026194Y0277900D01*
X0027885Y0277200D01*
X0035715Y0277200D01*
X0037406Y0277900D01*
X0038505Y0278999D01*
X0109258Y0278999D01*
X0109660Y0278597D01*
X0111049Y0278022D01*
X0112551Y0278022D01*
X0113940Y0278597D01*
X0115003Y0279660D01*
X0115578Y0281049D01*
X0115578Y0282551D01*
X0115003Y0283940D01*
X0113940Y0285003D01*
X0112551Y0285578D01*
X0111049Y0285578D01*
X0109660Y0285003D01*
X0109258Y0284601D01*
X0038505Y0284601D01*
X0037406Y0285700D01*
X0035715Y0286400D01*
X0027885Y0286400D01*
X0026194Y0285700D01*
X0024900Y0284406D01*
X0024200Y0282715D01*
X0024200Y0280885D01*
X0024900Y0279194D01*
X0024422Y0280350D02*
X0016600Y0280350D01*
X0016600Y0281948D02*
X0024200Y0281948D01*
X0024545Y0283547D02*
X0016600Y0283547D01*
X0016600Y0285145D02*
X0025640Y0285145D01*
X0026194Y0287900D02*
X0027885Y0287200D01*
X0035715Y0287200D01*
X0037406Y0287900D01*
X0038505Y0288999D01*
X0139258Y0288999D01*
X0139660Y0288597D01*
X0141049Y0288022D01*
X0142551Y0288022D01*
X0143940Y0288597D01*
X0145003Y0289660D01*
X0145578Y0291049D01*
X0145578Y0292551D01*
X0145003Y0293940D01*
X0143940Y0295003D01*
X0142551Y0295578D01*
X0141049Y0295578D01*
X0139660Y0295003D01*
X0139258Y0294601D01*
X0038505Y0294601D01*
X0037406Y0295700D01*
X0035715Y0296400D01*
X0027885Y0296400D01*
X0026194Y0295700D01*
X0024900Y0294406D01*
X0024200Y0292715D01*
X0024200Y0290885D01*
X0024900Y0289194D01*
X0026194Y0287900D01*
X0025752Y0288342D02*
X0016600Y0288342D01*
X0016600Y0286744D02*
X0206921Y0286744D01*
X0206921Y0288342D02*
X0143325Y0288342D01*
X0145119Y0289941D02*
X0206921Y0289941D01*
X0206921Y0291539D02*
X0145578Y0291539D01*
X0145335Y0293138D02*
X0206921Y0293138D01*
X0206921Y0294737D02*
X0144206Y0294737D01*
X0139394Y0294737D02*
X0038369Y0294737D01*
X0035872Y0296335D02*
X0206921Y0296335D01*
X0206921Y0297934D02*
X0037439Y0297934D01*
X0037406Y0297900D02*
X0038505Y0298999D01*
X0099258Y0298999D01*
X0099660Y0298597D01*
X0101049Y0298022D01*
X0102551Y0298022D01*
X0103940Y0298597D01*
X0105003Y0299660D01*
X0105578Y0301049D01*
X0105578Y0302551D01*
X0105003Y0303940D01*
X0103940Y0305003D01*
X0102551Y0305578D01*
X0101049Y0305578D01*
X0099660Y0305003D01*
X0099258Y0304601D01*
X0038505Y0304601D01*
X0037406Y0305700D01*
X0035715Y0306400D01*
X0027885Y0306400D01*
X0026194Y0305700D01*
X0024900Y0304406D01*
X0024200Y0302715D01*
X0024200Y0300885D01*
X0024900Y0299194D01*
X0026194Y0297900D01*
X0027885Y0297200D01*
X0035715Y0297200D01*
X0037406Y0297900D01*
X0036859Y0305926D02*
X0206921Y0305926D01*
X0206921Y0304328D02*
X0104615Y0304328D01*
X0105504Y0302729D02*
X0206921Y0302729D01*
X0206921Y0301131D02*
X0105578Y0301131D01*
X0104875Y0299532D02*
X0206921Y0299532D01*
X0206921Y0307525D02*
X0036982Y0307525D01*
X0037316Y0307695D02*
X0036643Y0307352D01*
X0035924Y0307118D01*
X0035178Y0307000D01*
X0032000Y0307000D01*
X0032000Y0311600D01*
X0032000Y0312000D01*
X0031600Y0312000D01*
X0031600Y0316600D01*
X0028422Y0316600D01*
X0027676Y0316482D01*
X0026957Y0316248D01*
X0026284Y0315905D01*
X0025673Y0315461D01*
X0025139Y0314927D01*
X0024695Y0314316D01*
X0024352Y0313643D01*
X0024118Y0312924D01*
X0024000Y0312178D01*
X0024000Y0312000D01*
X0031600Y0312000D01*
X0031600Y0311600D01*
X0032000Y0311600D01*
X0039600Y0311600D01*
X0039600Y0311422D01*
X0039482Y0310676D01*
X0039248Y0309957D01*
X0038905Y0309284D01*
X0038461Y0308673D01*
X0037927Y0308139D01*
X0037316Y0307695D01*
X0038788Y0309123D02*
X0206921Y0309123D01*
X0206921Y0310722D02*
X0039489Y0310722D01*
X0039600Y0312000D02*
X0039600Y0312178D01*
X0039482Y0312924D01*
X0039248Y0313643D01*
X0038905Y0314316D01*
X0038461Y0314927D01*
X0037927Y0315461D01*
X0037316Y0315905D01*
X0036643Y0316248D01*
X0035924Y0316482D01*
X0035178Y0316600D01*
X0032000Y0316600D01*
X0032000Y0312000D01*
X0039600Y0312000D01*
X0039577Y0312320D02*
X0206921Y0312320D01*
X0206921Y0313919D02*
X0039108Y0313919D01*
X0037850Y0315517D02*
X0206921Y0315517D01*
X0206921Y0317116D02*
X0016600Y0317116D01*
X0016600Y0318714D02*
X0025380Y0318714D01*
X0024900Y0319194D02*
X0026194Y0317900D01*
X0027885Y0317200D01*
X0035715Y0317200D01*
X0037406Y0317900D01*
X0038700Y0319194D01*
X0039400Y0320885D01*
X0039400Y0322715D01*
X0038700Y0324406D01*
X0037406Y0325700D01*
X0035715Y0326400D01*
X0027885Y0326400D01*
X0026194Y0325700D01*
X0024900Y0324406D01*
X0024200Y0322715D01*
X0024200Y0320885D01*
X0024900Y0319194D01*
X0024437Y0320313D02*
X0016600Y0320313D01*
X0016600Y0321911D02*
X0024200Y0321911D01*
X0024529Y0323510D02*
X0016600Y0323510D01*
X0016600Y0325108D02*
X0025603Y0325108D01*
X0025750Y0315517D02*
X0016600Y0315517D01*
X0016600Y0313919D02*
X0024492Y0313919D01*
X0024023Y0312320D02*
X0016600Y0312320D01*
X0016600Y0310722D02*
X0024111Y0310722D01*
X0024118Y0310676D02*
X0024352Y0309957D01*
X0024695Y0309284D01*
X0025139Y0308673D01*
X0025673Y0308139D01*
X0026284Y0307695D01*
X0026957Y0307352D01*
X0027676Y0307118D01*
X0028422Y0307000D01*
X0031600Y0307000D01*
X0031600Y0311600D01*
X0024000Y0311600D01*
X0024000Y0311422D01*
X0024118Y0310676D01*
X0024812Y0309123D02*
X0016600Y0309123D01*
X0016600Y0307525D02*
X0026618Y0307525D01*
X0026741Y0305926D02*
X0016600Y0305926D01*
X0016600Y0304328D02*
X0024868Y0304328D01*
X0024206Y0302729D02*
X0016600Y0302729D01*
X0016600Y0301131D02*
X0024200Y0301131D01*
X0024760Y0299532D02*
X0016600Y0299532D01*
X0016600Y0297934D02*
X0026161Y0297934D01*
X0027728Y0296335D02*
X0016600Y0296335D01*
X0016600Y0294737D02*
X0025231Y0294737D01*
X0024375Y0293138D02*
X0016600Y0293138D01*
X0016600Y0291539D02*
X0024200Y0291539D01*
X0024591Y0289941D02*
X0016600Y0289941D01*
X0031600Y0307525D02*
X0032000Y0307525D01*
X0032000Y0309123D02*
X0031600Y0309123D01*
X0031600Y0310722D02*
X0032000Y0310722D01*
X0032000Y0312320D02*
X0031600Y0312320D01*
X0031600Y0313919D02*
X0032000Y0313919D01*
X0032000Y0315517D02*
X0031600Y0315517D01*
X0038220Y0318714D02*
X0206921Y0318714D01*
X0206921Y0320313D02*
X0039163Y0320313D01*
X0039400Y0321911D02*
X0206921Y0321911D01*
X0206921Y0323510D02*
X0039071Y0323510D01*
X0037997Y0325108D02*
X0206921Y0325108D01*
X0206921Y0326707D02*
X0016600Y0326707D01*
X0016600Y0328305D02*
X0206921Y0328305D01*
X0206921Y0329904D02*
X0016600Y0329904D01*
X0037848Y0288342D02*
X0140275Y0288342D01*
X0115578Y0281948D02*
X0206921Y0281948D01*
X0206921Y0280350D02*
X0115289Y0280350D01*
X0114094Y0278751D02*
X0206921Y0278751D01*
X0206921Y0283547D02*
X0115166Y0283547D01*
X0113596Y0285145D02*
X0206921Y0285145D01*
X0206921Y0216409D02*
X0016600Y0216409D01*
X0016600Y0214811D02*
X0025306Y0214811D01*
X0024406Y0213212D02*
X0016600Y0213212D01*
X0016600Y0211614D02*
X0024200Y0211614D01*
X0024560Y0210015D02*
X0016600Y0210015D01*
X0016600Y0208417D02*
X0025678Y0208417D01*
X0026087Y0218008D02*
X0016600Y0218008D01*
X0016600Y0219606D02*
X0024730Y0219606D01*
X0024200Y0221205D02*
X0016600Y0221205D01*
X0016600Y0222803D02*
X0024237Y0222803D01*
X0024899Y0224402D02*
X0016600Y0224402D01*
X0016600Y0226001D02*
X0026921Y0226001D01*
X0026922Y0227599D02*
X0016600Y0227599D01*
X0016600Y0229198D02*
X0024899Y0229198D01*
X0024237Y0230796D02*
X0016600Y0230796D01*
X0016600Y0232395D02*
X0024200Y0232395D01*
X0024729Y0233993D02*
X0016600Y0233993D01*
X0016600Y0235592D02*
X0026086Y0235592D01*
X0026957Y0237352D02*
X0027676Y0237118D01*
X0028422Y0237000D01*
X0031600Y0237000D01*
X0031600Y0241600D01*
X0024000Y0241600D01*
X0024000Y0241422D01*
X0024118Y0240676D01*
X0024352Y0239957D01*
X0024695Y0239284D01*
X0025139Y0238673D01*
X0025673Y0238139D01*
X0026284Y0237695D01*
X0026957Y0237352D01*
X0027455Y0237190D02*
X0016600Y0237190D01*
X0016600Y0238789D02*
X0025055Y0238789D01*
X0024212Y0240387D02*
X0016600Y0240387D01*
X0016600Y0248380D02*
X0025715Y0248380D01*
X0024576Y0249978D02*
X0016600Y0249978D01*
X0016600Y0251577D02*
X0024200Y0251577D01*
X0024391Y0253175D02*
X0016600Y0253175D01*
X0016600Y0254774D02*
X0025268Y0254774D01*
X0027818Y0256372D02*
X0016600Y0256372D01*
X0031600Y0245183D02*
X0032000Y0245183D01*
X0032000Y0243584D02*
X0031600Y0243584D01*
X0031600Y0240387D02*
X0032000Y0240387D01*
X0032000Y0238789D02*
X0031600Y0238789D01*
X0031600Y0237190D02*
X0032000Y0237190D01*
X0037922Y0208417D02*
X0110095Y0208417D01*
X0100274Y0165257D02*
X0037848Y0165257D01*
X0027729Y0157265D02*
X0016600Y0157265D01*
X0016600Y0158863D02*
X0025232Y0158863D01*
X0024375Y0160462D02*
X0016600Y0160462D01*
X0016600Y0162060D02*
X0024200Y0162060D01*
X0024591Y0163659D02*
X0016600Y0163659D01*
X0016600Y0165257D02*
X0025752Y0165257D01*
X0024224Y0173250D02*
X0016600Y0173250D01*
X0016600Y0174848D02*
X0025082Y0174848D01*
X0026161Y0155666D02*
X0016600Y0155666D01*
X0016600Y0154068D02*
X0024760Y0154068D01*
X0024200Y0152469D02*
X0016600Y0152469D01*
X0016600Y0150870D02*
X0024206Y0150870D01*
X0024868Y0149272D02*
X0016600Y0149272D01*
X0016600Y0147673D02*
X0026742Y0147673D01*
X0027100Y0146075D02*
X0016600Y0146075D01*
X0016600Y0144476D02*
X0024971Y0144476D01*
X0024267Y0142878D02*
X0016600Y0142878D01*
X0016600Y0141279D02*
X0024200Y0141279D01*
X0024699Y0139681D02*
X0016600Y0139681D01*
X0016600Y0138082D02*
X0026012Y0138082D01*
X0052000Y0106600D02*
X0052000Y0102000D01*
X0059600Y0102000D01*
X0059600Y0102178D01*
X0059482Y0102924D01*
X0059248Y0103643D01*
X0058905Y0104316D01*
X0058461Y0104927D01*
X0057927Y0105461D01*
X0057316Y0105905D01*
X0056643Y0106248D01*
X0055924Y0106482D01*
X0055178Y0106600D01*
X0052000Y0106600D01*
X0052000Y0106112D02*
X0051600Y0106112D01*
X0051600Y0104514D02*
X0052000Y0104514D01*
X0052000Y0102915D02*
X0051600Y0102915D01*
X0052000Y0101600D02*
X0059600Y0101600D01*
X0059600Y0101422D01*
X0059482Y0100676D01*
X0059248Y0099957D01*
X0058905Y0099284D01*
X0058461Y0098673D01*
X0057927Y0098139D01*
X0057316Y0097695D01*
X0056643Y0097352D01*
X0055924Y0097118D01*
X0055178Y0097000D01*
X0052000Y0097000D01*
X0052000Y0101600D01*
X0052000Y0101317D02*
X0051600Y0101317D01*
X0051600Y0099718D02*
X0052000Y0099718D01*
X0052000Y0098120D02*
X0051600Y0098120D01*
X0057901Y0098120D02*
X0065699Y0098120D01*
X0065673Y0098139D02*
X0066284Y0097695D01*
X0066957Y0097352D01*
X0067676Y0097118D01*
X0068422Y0097000D01*
X0071600Y0097000D01*
X0071600Y0101600D01*
X0072000Y0101600D01*
X0072000Y0102000D01*
X0071600Y0102000D01*
X0071600Y0106600D01*
X0068422Y0106600D01*
X0067676Y0106482D01*
X0066957Y0106248D01*
X0066284Y0105905D01*
X0065673Y0105461D01*
X0065139Y0104927D01*
X0064695Y0104316D01*
X0064352Y0103643D01*
X0064118Y0102924D01*
X0064000Y0102178D01*
X0064000Y0102000D01*
X0071600Y0102000D01*
X0071600Y0101600D01*
X0064000Y0101600D01*
X0064000Y0101422D01*
X0064118Y0100676D01*
X0064352Y0099957D01*
X0064695Y0099284D01*
X0065139Y0098673D01*
X0065673Y0098139D01*
X0064474Y0099718D02*
X0059126Y0099718D01*
X0059583Y0101317D02*
X0064017Y0101317D01*
X0064117Y0102915D02*
X0059483Y0102915D01*
X0058762Y0104514D02*
X0064838Y0104514D01*
X0066690Y0106112D02*
X0056910Y0106112D01*
X0056948Y0107711D02*
X0066652Y0107711D01*
X0071600Y0106112D02*
X0072000Y0106112D01*
X0072000Y0106600D02*
X0072000Y0102000D01*
X0079600Y0102000D01*
X0079600Y0102178D01*
X0079482Y0102924D01*
X0079248Y0103643D01*
X0078905Y0104316D01*
X0078461Y0104927D01*
X0077927Y0105461D01*
X0077316Y0105905D01*
X0076643Y0106248D01*
X0075924Y0106482D01*
X0075178Y0106600D01*
X0072000Y0106600D01*
X0072000Y0104514D02*
X0071600Y0104514D01*
X0071600Y0102915D02*
X0072000Y0102915D01*
X0072000Y0101600D02*
X0079600Y0101600D01*
X0079600Y0101422D01*
X0079482Y0100676D01*
X0079248Y0099957D01*
X0078905Y0099284D01*
X0078461Y0098673D01*
X0077927Y0098139D01*
X0077316Y0097695D01*
X0076643Y0097352D01*
X0075924Y0097118D01*
X0075178Y0097000D01*
X0072000Y0097000D01*
X0072000Y0101600D01*
X0072000Y0101317D02*
X0071600Y0101317D01*
X0071600Y0099718D02*
X0072000Y0099718D01*
X0072000Y0098120D02*
X0071600Y0098120D01*
X0067885Y0096400D02*
X0066194Y0095700D01*
X0064900Y0094406D01*
X0064200Y0092715D01*
X0064200Y0090885D01*
X0064900Y0089194D01*
X0066194Y0087900D01*
X0067885Y0087200D01*
X0075715Y0087200D01*
X0077406Y0087900D01*
X0078700Y0089194D01*
X0079400Y0090885D01*
X0079400Y0092715D01*
X0078700Y0094406D01*
X0077406Y0095700D01*
X0075715Y0096400D01*
X0067885Y0096400D01*
X0065417Y0094923D02*
X0058183Y0094923D01*
X0059148Y0093324D02*
X0064452Y0093324D01*
X0064200Y0091726D02*
X0059400Y0091726D01*
X0059086Y0090127D02*
X0064514Y0090127D01*
X0065566Y0088529D02*
X0058034Y0088529D01*
X0057774Y0085332D02*
X0065826Y0085332D01*
X0065157Y0078937D02*
X0058443Y0078937D01*
X0056050Y0077339D02*
X0067549Y0077339D01*
X0066293Y0075740D02*
X0057307Y0075740D01*
X0057038Y0067748D02*
X0066562Y0067748D01*
X0067280Y0066149D02*
X0056320Y0066149D01*
X0057662Y0058157D02*
X0065938Y0058157D01*
X0066194Y0055700D02*
X0065095Y0054601D01*
X0058505Y0054601D01*
X0057406Y0055700D01*
X0055715Y0056400D01*
X0047885Y0056400D01*
X0046194Y0055700D01*
X0044900Y0054406D01*
X0044200Y0052715D01*
X0044200Y0050885D01*
X0044900Y0049194D01*
X0046194Y0047900D01*
X0047885Y0047200D01*
X0055715Y0047200D01*
X0057406Y0047900D01*
X0058505Y0048999D01*
X0065095Y0048999D01*
X0066194Y0047900D01*
X0067885Y0047200D01*
X0075715Y0047200D01*
X0077406Y0047900D01*
X0078700Y0049194D01*
X0079400Y0050885D01*
X0079400Y0052715D01*
X0078700Y0054406D01*
X0077406Y0055700D01*
X0075715Y0056400D01*
X0067885Y0056400D01*
X0066194Y0055700D01*
X0065454Y0054960D02*
X0058146Y0054960D01*
X0058071Y0048566D02*
X0065529Y0048566D01*
X0065863Y0045369D02*
X0057737Y0045369D01*
X0058480Y0038975D02*
X0065120Y0038975D01*
X0067460Y0037376D02*
X0056140Y0037376D01*
X0057217Y0035778D02*
X0066383Y0035778D01*
X0066472Y0027785D02*
X0057128Y0027785D01*
X0056230Y0026187D02*
X0067370Y0026187D01*
X0065901Y0018194D02*
X0057699Y0018194D01*
X0076230Y0026187D02*
X0167370Y0026187D01*
X0167885Y0026400D02*
X0166194Y0025700D01*
X0164900Y0024406D01*
X0164200Y0022715D01*
X0164200Y0020885D01*
X0164900Y0019194D01*
X0166194Y0017900D01*
X0167885Y0017200D01*
X0175715Y0017200D01*
X0177406Y0017900D01*
X0178505Y0018999D01*
X0185095Y0018999D01*
X0186194Y0017900D01*
X0187885Y0017200D01*
X0195715Y0017200D01*
X0197406Y0017900D01*
X0198700Y0019194D01*
X0199400Y0020885D01*
X0199400Y0022715D01*
X0198700Y0024406D01*
X0197406Y0025700D01*
X0195715Y0026400D01*
X0187885Y0026400D01*
X0186194Y0025700D01*
X0185095Y0024601D01*
X0178505Y0024601D01*
X0177406Y0025700D01*
X0175715Y0026400D01*
X0167885Y0026400D01*
X0167885Y0027200D02*
X0175715Y0027200D01*
X0177406Y0027900D01*
X0178505Y0028999D01*
X0185095Y0028999D01*
X0186194Y0027900D01*
X0187885Y0027200D01*
X0195715Y0027200D01*
X0197406Y0027900D01*
X0198700Y0029194D01*
X0199400Y0030885D01*
X0199400Y0032715D01*
X0198700Y0034406D01*
X0197406Y0035700D01*
X0195715Y0036400D01*
X0187885Y0036400D01*
X0186194Y0035700D01*
X0185095Y0034601D01*
X0178505Y0034601D01*
X0177406Y0035700D01*
X0175715Y0036400D01*
X0167885Y0036400D01*
X0166194Y0035700D01*
X0164900Y0034406D01*
X0164200Y0032715D01*
X0164200Y0030885D01*
X0164900Y0029194D01*
X0166194Y0027900D01*
X0167885Y0027200D01*
X0166472Y0027785D02*
X0077128Y0027785D01*
X0078778Y0029384D02*
X0164822Y0029384D01*
X0164200Y0030982D02*
X0079400Y0030982D01*
X0079400Y0032581D02*
X0164200Y0032581D01*
X0164806Y0034179D02*
X0078794Y0034179D01*
X0077217Y0035778D02*
X0166383Y0035778D01*
X0167460Y0037376D02*
X0076140Y0037376D01*
X0078480Y0038975D02*
X0165120Y0038975D01*
X0164329Y0040573D02*
X0079271Y0040573D01*
X0079400Y0042172D02*
X0164200Y0042172D01*
X0164637Y0043770D02*
X0078963Y0043770D01*
X0077737Y0045369D02*
X0165863Y0045369D01*
X0165529Y0048566D02*
X0078071Y0048566D01*
X0079101Y0050164D02*
X0164499Y0050164D01*
X0164200Y0051763D02*
X0079400Y0051763D01*
X0079132Y0053361D02*
X0164468Y0053361D01*
X0165454Y0054960D02*
X0078146Y0054960D01*
X0077662Y0058157D02*
X0165938Y0058157D01*
X0166194Y0057900D02*
X0164900Y0059194D01*
X0164200Y0060885D01*
X0164200Y0062715D01*
X0164900Y0064406D01*
X0166194Y0065700D01*
X0167885Y0066400D01*
X0175715Y0066400D01*
X0177406Y0065700D01*
X0178505Y0064601D01*
X0185095Y0064601D01*
X0186194Y0065700D01*
X0187885Y0066400D01*
X0195715Y0066400D01*
X0197406Y0065700D01*
X0198700Y0064406D01*
X0199400Y0062715D01*
X0199400Y0060885D01*
X0198700Y0059194D01*
X0197406Y0057900D01*
X0195715Y0057200D01*
X0187885Y0057200D01*
X0186194Y0057900D01*
X0185095Y0058999D01*
X0178505Y0058999D01*
X0177406Y0057900D01*
X0175715Y0057200D01*
X0167885Y0057200D01*
X0166194Y0057900D01*
X0164668Y0059755D02*
X0078932Y0059755D01*
X0079400Y0061354D02*
X0164200Y0061354D01*
X0164298Y0062952D02*
X0079302Y0062952D01*
X0078554Y0064551D02*
X0165045Y0064551D01*
X0167280Y0066149D02*
X0076320Y0066149D01*
X0077038Y0067748D02*
X0166562Y0067748D01*
X0166194Y0067900D02*
X0167885Y0067200D01*
X0175715Y0067200D01*
X0177406Y0067900D01*
X0178505Y0068999D01*
X0185095Y0068999D01*
X0186194Y0067900D01*
X0187885Y0067200D01*
X0195715Y0067200D01*
X0197406Y0067900D01*
X0198700Y0069194D01*
X0199400Y0070885D01*
X0199400Y0072715D01*
X0198700Y0074406D01*
X0197406Y0075700D01*
X0195715Y0076400D01*
X0187885Y0076400D01*
X0186194Y0075700D01*
X0185095Y0074601D01*
X0178505Y0074601D01*
X0177406Y0075700D01*
X0175715Y0076400D01*
X0167885Y0076400D01*
X0166194Y0075700D01*
X0164900Y0074406D01*
X0164200Y0072715D01*
X0164200Y0070885D01*
X0164900Y0069194D01*
X0166194Y0067900D01*
X0164837Y0069346D02*
X0078763Y0069346D01*
X0079400Y0070945D02*
X0164200Y0070945D01*
X0164200Y0072543D02*
X0079400Y0072543D01*
X0078809Y0074142D02*
X0164791Y0074142D01*
X0166293Y0075740D02*
X0077307Y0075740D01*
X0076050Y0077339D02*
X0167549Y0077339D01*
X0165157Y0078937D02*
X0078443Y0078937D01*
X0079255Y0080536D02*
X0164345Y0080536D01*
X0164200Y0082134D02*
X0079400Y0082134D01*
X0078978Y0083733D02*
X0164622Y0083733D01*
X0165826Y0085332D02*
X0077774Y0085332D01*
X0078034Y0088529D02*
X0165566Y0088529D01*
X0164514Y0090127D02*
X0079086Y0090127D01*
X0079400Y0091726D02*
X0164200Y0091726D01*
X0164452Y0093324D02*
X0079148Y0093324D01*
X0078183Y0094923D02*
X0165417Y0094923D01*
X0166194Y0097900D02*
X0164900Y0099194D01*
X0164200Y0100885D01*
X0164200Y0102715D01*
X0164900Y0104406D01*
X0166194Y0105700D01*
X0167885Y0106400D01*
X0175715Y0106400D01*
X0177406Y0105700D01*
X0178505Y0104601D01*
X0185095Y0104601D01*
X0186194Y0105700D01*
X0187885Y0106400D01*
X0195715Y0106400D01*
X0197406Y0105700D01*
X0198700Y0104406D01*
X0199400Y0102715D01*
X0199400Y0100885D01*
X0198700Y0099194D01*
X0197406Y0097900D01*
X0195715Y0097200D01*
X0187885Y0097200D01*
X0186194Y0097900D01*
X0185095Y0098999D01*
X0178505Y0098999D01*
X0177406Y0097900D01*
X0175715Y0097200D01*
X0167885Y0097200D01*
X0166194Y0097900D01*
X0165975Y0098120D02*
X0077901Y0098120D01*
X0079126Y0099718D02*
X0164683Y0099718D01*
X0164200Y0101317D02*
X0079583Y0101317D01*
X0079483Y0102915D02*
X0164283Y0102915D01*
X0165008Y0104514D02*
X0078762Y0104514D01*
X0076910Y0106112D02*
X0167190Y0106112D01*
X0167885Y0107200D02*
X0175715Y0107200D01*
X0177406Y0107900D01*
X0178505Y0108999D01*
X0185095Y0108999D01*
X0186194Y0107900D01*
X0187885Y0107200D01*
X0195715Y0107200D01*
X0197406Y0107900D01*
X0198700Y0109194D01*
X0199400Y0110885D01*
X0199400Y0112715D01*
X0198700Y0114406D01*
X0197406Y0115700D01*
X0195715Y0116400D01*
X0187885Y0116400D01*
X0186194Y0115700D01*
X0185095Y0114601D01*
X0178505Y0114601D01*
X0177406Y0115700D01*
X0175715Y0116400D01*
X0167885Y0116400D01*
X0166194Y0115700D01*
X0164900Y0114406D01*
X0164200Y0112715D01*
X0164200Y0110885D01*
X0164900Y0109194D01*
X0166194Y0107900D01*
X0167885Y0107200D01*
X0166652Y0107711D02*
X0076948Y0107711D01*
X0078747Y0109309D02*
X0164853Y0109309D01*
X0164200Y0110908D02*
X0079400Y0110908D01*
X0079400Y0112506D02*
X0164200Y0112506D01*
X0164776Y0114105D02*
X0078824Y0114105D01*
X0077397Y0115703D02*
X0166203Y0115703D01*
X0176948Y0107711D02*
X0186652Y0107711D01*
X0187190Y0106112D02*
X0176410Y0106112D01*
X0177625Y0098120D02*
X0185975Y0098120D01*
X0185417Y0094923D02*
X0178183Y0094923D01*
X0178034Y0088529D02*
X0185566Y0088529D01*
X0185826Y0085332D02*
X0177774Y0085332D01*
X0178443Y0078937D02*
X0185157Y0078937D01*
X0187549Y0077339D02*
X0176050Y0077339D01*
X0177307Y0075740D02*
X0186293Y0075740D01*
X0186562Y0067748D02*
X0177038Y0067748D01*
X0176320Y0066149D02*
X0187280Y0066149D01*
X0185938Y0058157D02*
X0177662Y0058157D01*
X0178146Y0054960D02*
X0185454Y0054960D01*
X0185529Y0048566D02*
X0178071Y0048566D01*
X0177737Y0045369D02*
X0185863Y0045369D01*
X0185120Y0038975D02*
X0178480Y0038975D01*
X0176140Y0037376D02*
X0187460Y0037376D01*
X0186383Y0035778D02*
X0177217Y0035778D01*
X0177128Y0027785D02*
X0186472Y0027785D01*
X0187370Y0026187D02*
X0176230Y0026187D01*
X0177699Y0018194D02*
X0185901Y0018194D01*
X0196230Y0026187D02*
X0206921Y0026187D01*
X0206921Y0027785D02*
X0197128Y0027785D01*
X0198778Y0029384D02*
X0206921Y0029384D01*
X0206921Y0030982D02*
X0199400Y0030982D01*
X0199400Y0032581D02*
X0206921Y0032581D01*
X0206921Y0034179D02*
X0198794Y0034179D01*
X0197217Y0035778D02*
X0206921Y0035778D01*
X0206921Y0037376D02*
X0196140Y0037376D01*
X0198480Y0038975D02*
X0206921Y0038975D01*
X0206921Y0040573D02*
X0199271Y0040573D01*
X0199400Y0042172D02*
X0206921Y0042172D01*
X0206921Y0043770D02*
X0198963Y0043770D01*
X0197662Y0058157D02*
X0206921Y0058157D01*
X0206921Y0059755D02*
X0198932Y0059755D01*
X0199400Y0061354D02*
X0206921Y0061354D01*
X0206921Y0062952D02*
X0199302Y0062952D01*
X0198554Y0064551D02*
X0206921Y0064551D01*
X0206921Y0066149D02*
X0196320Y0066149D01*
X0197038Y0067748D02*
X0206921Y0067748D01*
X0206921Y0069346D02*
X0198763Y0069346D01*
X0199400Y0070945D02*
X0206921Y0070945D01*
X0206921Y0072543D02*
X0199400Y0072543D01*
X0198809Y0074142D02*
X0206921Y0074142D01*
X0206921Y0075740D02*
X0197307Y0075740D01*
X0196050Y0077339D02*
X0206921Y0077339D01*
X0206921Y0078937D02*
X0198443Y0078937D01*
X0199255Y0080536D02*
X0206921Y0080536D01*
X0206921Y0082134D02*
X0199400Y0082134D01*
X0198978Y0083733D02*
X0206921Y0083733D01*
X0206921Y0098120D02*
X0197625Y0098120D01*
X0198917Y0099718D02*
X0206921Y0099718D01*
X0206921Y0101317D02*
X0199400Y0101317D01*
X0199317Y0102915D02*
X0206921Y0102915D01*
X0206921Y0104514D02*
X0198592Y0104514D01*
X0196410Y0106112D02*
X0206921Y0106112D01*
X0206921Y0107711D02*
X0196948Y0107711D01*
X0198747Y0109309D02*
X0206921Y0109309D01*
X0206921Y0110908D02*
X0199400Y0110908D01*
X0199400Y0112506D02*
X0206921Y0112506D01*
X0206921Y0114105D02*
X0198824Y0114105D01*
X0197397Y0115703D02*
X0206921Y0115703D01*
X0186203Y0115703D02*
X0177397Y0115703D01*
X0165083Y0024588D02*
X0078517Y0024588D01*
X0079286Y0022990D02*
X0164314Y0022990D01*
X0164200Y0021391D02*
X0079400Y0021391D01*
X0078947Y0019793D02*
X0164652Y0019793D01*
X0165901Y0018194D02*
X0077699Y0018194D01*
X0045938Y0058157D02*
X0037662Y0058157D01*
X0038932Y0059755D02*
X0044668Y0059755D01*
X0044200Y0061354D02*
X0039400Y0061354D01*
X0039302Y0062952D02*
X0044298Y0062952D01*
X0045045Y0064551D02*
X0038554Y0064551D01*
X0038146Y0054960D02*
X0045454Y0054960D01*
X0044468Y0053361D02*
X0039200Y0053361D01*
X0040798Y0051763D02*
X0044200Y0051763D01*
X0044499Y0050164D02*
X0042397Y0050164D01*
X0043995Y0048566D02*
X0045529Y0048566D01*
X0057397Y0115703D02*
X0066203Y0115703D01*
X0038257Y0278751D02*
X0109506Y0278751D01*
X0110004Y0285145D02*
X0037960Y0285145D01*
X0198517Y0024588D02*
X0206921Y0024588D01*
X0206921Y0022990D02*
X0199286Y0022990D01*
X0199400Y0021391D02*
X0206921Y0021391D01*
X0206921Y0019793D02*
X0198947Y0019793D01*
X0197699Y0018194D02*
X0206921Y0018194D01*
D12*
X0191800Y0021800D02*
X0171800Y0021800D01*
X0171800Y0031800D02*
X0191800Y0031800D01*
X0191800Y0041800D02*
X0171800Y0041800D01*
X0171800Y0051800D02*
X0191800Y0051800D01*
X0191800Y0061800D02*
X0171800Y0061800D01*
X0171800Y0071800D02*
X0191800Y0071800D01*
X0191800Y0081800D02*
X0171800Y0081800D01*
X0171800Y0091800D02*
X0191800Y0091800D01*
X0191800Y0101800D02*
X0171800Y0101800D01*
X0171800Y0111800D02*
X0191800Y0111800D01*
X0121800Y0151800D02*
X0031800Y0151800D01*
X0031800Y0141800D02*
X0111800Y0141800D01*
X0101800Y0161800D02*
X0031800Y0161800D01*
X0031800Y0211800D02*
X0111800Y0211800D01*
X0101800Y0231800D02*
X0031800Y0231800D01*
X0031800Y0221800D02*
X0131800Y0221800D01*
X0111800Y0281800D02*
X0031800Y0281800D01*
X0031800Y0291800D02*
X0141800Y0291800D01*
X0101800Y0301800D02*
X0031800Y0301800D01*
X0051800Y0111800D02*
X0071800Y0111800D01*
X0071800Y0081800D02*
X0051800Y0081800D01*
X0051800Y0071800D02*
X0071800Y0071800D01*
X0071800Y0061800D02*
X0051800Y0061800D01*
X0051800Y0051800D02*
X0071800Y0051800D01*
X0071800Y0041800D02*
X0051800Y0041800D01*
X0051800Y0031800D02*
X0046800Y0031800D01*
X0041800Y0036800D01*
X0041800Y0046800D01*
X0036800Y0051800D01*
X0031800Y0051800D01*
X0051800Y0031800D02*
X0071800Y0031800D01*
X0071800Y0021800D02*
X0051800Y0021800D01*
D13*
X0111800Y0141800D03*
X0121800Y0151800D03*
X0101800Y0161800D03*
X0111800Y0211800D03*
X0101800Y0231800D03*
X0131800Y0221800D03*
X0111800Y0281800D03*
X0101800Y0301800D03*
X0141800Y0291800D03*
M02*
