G75*
%MOIN*%
%OFA0B0*%
%FSLAX25Y25*%
%IPPOS*%
%LPD*%
%AMOC8*
5,1,8,0,0,1.08239X$1,22.5*
%
%ADD10C,0.00600*%
%ADD11C,0.00300*%
%ADD12C,0.00500*%
%ADD13R,0.02000X0.02000*%
D10*
X0026800Y0019300D02*
X0026800Y0024300D01*
X0029300Y0026800D01*
X0026800Y0029300D01*
X0026800Y0034300D01*
X0029300Y0036800D01*
X0026800Y0039300D01*
X0026800Y0044300D01*
X0029300Y0046800D01*
X0026800Y0049300D01*
X0026800Y0054300D01*
X0029300Y0056800D01*
X0026800Y0059300D01*
X0026800Y0064300D01*
X0029300Y0066800D01*
X0026800Y0069300D01*
X0026800Y0074300D01*
X0029300Y0076800D01*
X0034300Y0076800D01*
X0036800Y0074300D01*
X0036800Y0069300D01*
X0034300Y0066800D01*
X0036800Y0064300D01*
X0036800Y0059300D01*
X0034300Y0056800D01*
X0029300Y0056800D01*
X0034300Y0056800D02*
X0036800Y0054300D01*
X0036800Y0049300D01*
X0034300Y0046800D01*
X0036800Y0044300D01*
X0036800Y0039300D01*
X0034300Y0036800D01*
X0036800Y0034300D01*
X0036800Y0029300D01*
X0034300Y0026800D01*
X0036800Y0024300D01*
X0036800Y0019300D01*
X0034300Y0016800D01*
X0029300Y0016800D01*
X0026800Y0019300D01*
X0029300Y0026800D02*
X0034300Y0026800D01*
X0034300Y0036800D02*
X0029300Y0036800D01*
X0029300Y0046800D02*
X0034300Y0046800D01*
X0046800Y0044300D02*
X0046800Y0039300D01*
X0049300Y0036800D01*
X0054300Y0036800D01*
X0056800Y0039300D01*
X0056800Y0044300D01*
X0054300Y0046800D01*
X0049300Y0046800D01*
X0046800Y0044300D01*
X0049300Y0046800D02*
X0046800Y0049300D01*
X0046800Y0054300D01*
X0049300Y0056800D01*
X0046800Y0059300D01*
X0046800Y0064300D01*
X0049300Y0066800D01*
X0046800Y0069300D01*
X0046800Y0074300D01*
X0049300Y0076800D01*
X0046800Y0079300D01*
X0046800Y0084300D01*
X0049300Y0086800D01*
X0046800Y0089300D01*
X0046800Y0094300D01*
X0049300Y0096800D01*
X0046800Y0099300D01*
X0046800Y0104300D01*
X0049300Y0106800D01*
X0046800Y0109300D01*
X0046800Y0114300D01*
X0049300Y0116800D01*
X0054300Y0116800D01*
X0056800Y0114300D01*
X0056800Y0109300D01*
X0054300Y0106800D01*
X0056800Y0104300D01*
X0056800Y0099300D01*
X0054300Y0096800D01*
X0049300Y0096800D01*
X0054300Y0096800D02*
X0056800Y0094300D01*
X0056800Y0089300D01*
X0054300Y0086800D01*
X0056800Y0084300D01*
X0056800Y0079300D01*
X0054300Y0076800D01*
X0056800Y0074300D01*
X0056800Y0069300D01*
X0054300Y0066800D01*
X0049300Y0066800D01*
X0054300Y0066800D02*
X0056800Y0064300D01*
X0056800Y0059300D01*
X0054300Y0056800D01*
X0056800Y0054300D01*
X0056800Y0049300D01*
X0054300Y0046800D01*
X0054300Y0056800D02*
X0049300Y0056800D01*
X0049300Y0036800D02*
X0046800Y0034300D01*
X0046800Y0029300D01*
X0049300Y0026800D01*
X0046800Y0024300D01*
X0046800Y0019300D01*
X0049300Y0016800D01*
X0054300Y0016800D01*
X0056800Y0019300D01*
X0056800Y0024300D01*
X0054300Y0026800D01*
X0049300Y0026800D01*
X0054300Y0026800D02*
X0056800Y0029300D01*
X0056800Y0034300D01*
X0054300Y0036800D01*
X0066800Y0034300D02*
X0066800Y0029300D01*
X0069300Y0026800D01*
X0066800Y0024300D01*
X0066800Y0019300D01*
X0069300Y0016800D01*
X0074300Y0016800D01*
X0076800Y0019300D01*
X0076800Y0024300D01*
X0074300Y0026800D01*
X0069300Y0026800D01*
X0074300Y0026800D02*
X0076800Y0029300D01*
X0076800Y0034300D01*
X0074300Y0036800D01*
X0069300Y0036800D01*
X0066800Y0039300D01*
X0066800Y0044300D01*
X0069300Y0046800D01*
X0066800Y0049300D01*
X0066800Y0054300D01*
X0069300Y0056800D01*
X0066800Y0059300D01*
X0066800Y0064300D01*
X0069300Y0066800D01*
X0066800Y0069300D01*
X0066800Y0074300D01*
X0069300Y0076800D01*
X0066800Y0079300D01*
X0066800Y0084300D01*
X0069300Y0086800D01*
X0066800Y0089300D01*
X0066800Y0094300D01*
X0069300Y0096800D01*
X0066800Y0099300D01*
X0066800Y0104300D01*
X0069300Y0106800D01*
X0066800Y0109300D01*
X0066800Y0114300D01*
X0069300Y0116800D01*
X0074300Y0116800D01*
X0076800Y0114300D01*
X0076800Y0109300D01*
X0074300Y0106800D01*
X0076800Y0104300D01*
X0076800Y0099300D01*
X0074300Y0096800D01*
X0069300Y0096800D01*
X0074300Y0096800D02*
X0076800Y0094300D01*
X0076800Y0089300D01*
X0074300Y0086800D01*
X0076800Y0084300D01*
X0076800Y0079300D01*
X0074300Y0076800D01*
X0076800Y0074300D01*
X0076800Y0069300D01*
X0074300Y0066800D01*
X0069300Y0066800D01*
X0074300Y0066800D02*
X0076800Y0064300D01*
X0076800Y0059300D01*
X0074300Y0056800D01*
X0076800Y0054300D01*
X0076800Y0049300D01*
X0074300Y0046800D01*
X0076800Y0044300D01*
X0076800Y0039300D01*
X0074300Y0036800D01*
X0069300Y0036800D02*
X0066800Y0034300D01*
X0069300Y0046800D02*
X0074300Y0046800D01*
X0074300Y0056800D02*
X0069300Y0056800D01*
X0082100Y0057438D02*
X0082100Y0053168D01*
X0083168Y0052100D01*
X0085303Y0052100D01*
X0086370Y0053168D01*
X0086370Y0055303D01*
X0084235Y0055303D01*
X0082100Y0057438D02*
X0083168Y0058505D01*
X0085303Y0058505D01*
X0086370Y0057438D01*
X0088545Y0058505D02*
X0088545Y0052100D01*
X0088545Y0054235D02*
X0091748Y0054235D01*
X0092816Y0055303D01*
X0092816Y0057438D01*
X0091748Y0058505D01*
X0088545Y0058505D01*
X0088545Y0062100D02*
X0088545Y0068505D01*
X0091748Y0068505D01*
X0092816Y0067438D01*
X0092816Y0065303D01*
X0091748Y0064235D01*
X0088545Y0064235D01*
X0086370Y0063168D02*
X0086370Y0065303D01*
X0084235Y0065303D01*
X0082100Y0067438D02*
X0083168Y0068505D01*
X0085303Y0068505D01*
X0086370Y0067438D01*
X0086370Y0063168D02*
X0085303Y0062100D01*
X0083168Y0062100D01*
X0082100Y0063168D01*
X0082100Y0067438D01*
X0083168Y0072100D02*
X0085303Y0072100D01*
X0086370Y0073168D01*
X0086370Y0075303D01*
X0084235Y0075303D01*
X0082100Y0077438D02*
X0082100Y0073168D01*
X0083168Y0072100D01*
X0088545Y0072100D02*
X0088545Y0078505D01*
X0091748Y0078505D01*
X0092816Y0077438D01*
X0092816Y0075303D01*
X0091748Y0074235D01*
X0088545Y0074235D01*
X0086370Y0077438D02*
X0085303Y0078505D01*
X0083168Y0078505D01*
X0082100Y0077438D01*
X0082100Y0082100D02*
X0086370Y0082100D01*
X0088545Y0083168D02*
X0089613Y0082100D01*
X0091748Y0082100D01*
X0092816Y0083168D01*
X0092816Y0084235D01*
X0091748Y0085303D01*
X0089613Y0085303D01*
X0088545Y0086370D01*
X0088545Y0087438D01*
X0089613Y0088505D01*
X0091748Y0088505D01*
X0092816Y0087438D01*
X0094991Y0088505D02*
X0098194Y0088505D01*
X0099261Y0087438D01*
X0099261Y0085303D01*
X0098194Y0084235D01*
X0094991Y0084235D01*
X0094991Y0082100D02*
X0094991Y0088505D01*
X0094991Y0092100D02*
X0098194Y0092100D01*
X0099261Y0093168D01*
X0099261Y0097438D01*
X0098194Y0098505D01*
X0094991Y0098505D01*
X0094991Y0092100D01*
X0092816Y0092100D02*
X0092816Y0098505D01*
X0092836Y0102100D02*
X0091768Y0103168D01*
X0092836Y0102100D02*
X0094971Y0102100D01*
X0096039Y0103168D01*
X0096039Y0104235D01*
X0094971Y0105303D01*
X0093903Y0105303D01*
X0094971Y0105303D02*
X0096039Y0106370D01*
X0096039Y0107438D01*
X0094971Y0108505D01*
X0092836Y0108505D01*
X0091768Y0107438D01*
X0089613Y0103168D02*
X0089613Y0102100D01*
X0088545Y0102100D01*
X0088545Y0103168D01*
X0089613Y0103168D01*
X0086370Y0103168D02*
X0085303Y0102100D01*
X0083168Y0102100D01*
X0082100Y0103168D01*
X0084235Y0105303D02*
X0085303Y0105303D01*
X0086370Y0104235D01*
X0086370Y0103168D01*
X0085303Y0105303D02*
X0086370Y0106370D01*
X0086370Y0107438D01*
X0085303Y0108505D01*
X0083168Y0108505D01*
X0082100Y0107438D01*
X0083168Y0112100D02*
X0082100Y0113168D01*
X0083168Y0112100D02*
X0085303Y0112100D01*
X0086370Y0113168D01*
X0086370Y0115303D01*
X0085303Y0116370D01*
X0084235Y0116370D01*
X0082100Y0115303D01*
X0082100Y0118505D01*
X0086370Y0118505D01*
X0088545Y0118505D02*
X0088545Y0114235D01*
X0090681Y0112100D01*
X0092816Y0114235D01*
X0092816Y0118505D01*
X0098214Y0108505D02*
X0098214Y0104235D01*
X0100349Y0102100D01*
X0102484Y0104235D01*
X0102484Y0108505D01*
X0088545Y0098505D02*
X0092816Y0092100D01*
X0088545Y0092100D02*
X0088545Y0098505D01*
X0086370Y0097438D02*
X0085303Y0098505D01*
X0083168Y0098505D01*
X0082100Y0097438D01*
X0082100Y0093168D01*
X0083168Y0092100D01*
X0085303Y0092100D01*
X0086370Y0093168D01*
X0086370Y0095303D01*
X0084235Y0095303D01*
X0082100Y0088505D02*
X0082100Y0082100D01*
X0082100Y0085303D02*
X0084235Y0085303D01*
X0086370Y0088505D02*
X0082100Y0088505D01*
X0074300Y0086800D02*
X0069300Y0086800D01*
X0069300Y0076800D02*
X0074300Y0076800D01*
X0083168Y0048505D02*
X0082100Y0047438D01*
X0082100Y0043168D01*
X0083168Y0042100D01*
X0085303Y0042100D01*
X0086370Y0043168D01*
X0086370Y0045303D01*
X0084235Y0045303D01*
X0086370Y0047438D02*
X0085303Y0048505D01*
X0083168Y0048505D01*
X0088545Y0048505D02*
X0088545Y0042100D01*
X0088545Y0044235D02*
X0091748Y0044235D01*
X0092816Y0045303D01*
X0092816Y0047438D01*
X0091748Y0048505D01*
X0088545Y0048505D01*
X0094991Y0048505D02*
X0097126Y0048505D01*
X0096059Y0048505D02*
X0096059Y0042100D01*
X0097126Y0042100D02*
X0094991Y0042100D01*
X0094991Y0038505D02*
X0097126Y0038505D01*
X0096059Y0038505D02*
X0096059Y0032100D01*
X0097126Y0032100D02*
X0094991Y0032100D01*
X0094991Y0028505D02*
X0097126Y0028505D01*
X0096059Y0028505D02*
X0096059Y0022100D01*
X0097126Y0022100D02*
X0094991Y0022100D01*
X0092816Y0025303D02*
X0091748Y0024235D01*
X0088545Y0024235D01*
X0088545Y0022100D02*
X0088545Y0028505D01*
X0091748Y0028505D01*
X0092816Y0027438D01*
X0092816Y0025303D01*
X0088545Y0032100D02*
X0088545Y0038505D01*
X0091748Y0038505D01*
X0092816Y0037438D01*
X0092816Y0035303D01*
X0091748Y0034235D01*
X0088545Y0034235D01*
X0086370Y0033168D02*
X0086370Y0035303D01*
X0084235Y0035303D01*
X0082100Y0037438D02*
X0082100Y0033168D01*
X0083168Y0032100D01*
X0085303Y0032100D01*
X0086370Y0033168D01*
X0086370Y0037438D02*
X0085303Y0038505D01*
X0083168Y0038505D01*
X0082100Y0037438D01*
X0083168Y0028505D02*
X0082100Y0027438D01*
X0082100Y0023168D01*
X0083168Y0022100D01*
X0085303Y0022100D01*
X0086370Y0023168D01*
X0086370Y0025303D01*
X0084235Y0025303D01*
X0086370Y0027438D02*
X0085303Y0028505D01*
X0083168Y0028505D01*
X0099288Y0027438D02*
X0099288Y0023168D01*
X0100356Y0022100D01*
X0102491Y0022100D01*
X0103558Y0023168D01*
X0103558Y0027438D01*
X0102491Y0028505D01*
X0100356Y0028505D01*
X0099288Y0027438D01*
X0100356Y0032100D02*
X0102491Y0032100D01*
X0103558Y0033168D01*
X0103558Y0037438D01*
X0102491Y0038505D01*
X0100356Y0038505D01*
X0099288Y0037438D01*
X0099288Y0033168D01*
X0100356Y0032100D01*
X0105733Y0033168D02*
X0110004Y0037438D01*
X0110004Y0033168D01*
X0108936Y0032100D01*
X0106801Y0032100D01*
X0105733Y0033168D01*
X0105733Y0037438D01*
X0106801Y0038505D01*
X0108936Y0038505D01*
X0110004Y0037438D01*
X0112179Y0035303D02*
X0116449Y0035303D01*
X0115382Y0038505D02*
X0115382Y0032100D01*
X0116449Y0028505D02*
X0112179Y0028505D01*
X0112179Y0025303D01*
X0114314Y0026370D01*
X0115382Y0026370D01*
X0116449Y0025303D01*
X0116449Y0023168D01*
X0115382Y0022100D01*
X0113247Y0022100D01*
X0112179Y0023168D01*
X0110004Y0023168D02*
X0110004Y0027438D01*
X0105733Y0023168D01*
X0106801Y0022100D01*
X0108936Y0022100D01*
X0110004Y0023168D01*
X0110004Y0027438D02*
X0108936Y0028505D01*
X0106801Y0028505D01*
X0105733Y0027438D01*
X0105733Y0023168D01*
X0112179Y0035303D02*
X0115382Y0038505D01*
X0115382Y0042100D02*
X0113247Y0042100D01*
X0112179Y0043168D01*
X0110004Y0043168D02*
X0110004Y0047438D01*
X0105733Y0043168D01*
X0106801Y0042100D01*
X0108936Y0042100D01*
X0110004Y0043168D01*
X0110004Y0047438D02*
X0108936Y0048505D01*
X0106801Y0048505D01*
X0105733Y0047438D01*
X0105733Y0043168D01*
X0103558Y0043168D02*
X0103558Y0047438D01*
X0102491Y0048505D01*
X0100356Y0048505D01*
X0099288Y0047438D01*
X0099288Y0043168D01*
X0100356Y0042100D01*
X0102491Y0042100D01*
X0103558Y0043168D01*
X0102491Y0052100D02*
X0100356Y0052100D01*
X0099288Y0053168D01*
X0099288Y0057438D01*
X0100356Y0058505D01*
X0102491Y0058505D01*
X0103558Y0057438D01*
X0103558Y0053168D01*
X0102491Y0052100D01*
X0105733Y0053168D02*
X0110004Y0057438D01*
X0110004Y0053168D01*
X0108936Y0052100D01*
X0106801Y0052100D01*
X0105733Y0053168D01*
X0105733Y0057438D01*
X0106801Y0058505D01*
X0108936Y0058505D01*
X0110004Y0057438D01*
X0112179Y0057438D02*
X0113247Y0058505D01*
X0115382Y0058505D01*
X0116449Y0057438D01*
X0116449Y0056370D01*
X0112179Y0052100D01*
X0116449Y0052100D01*
X0115382Y0048505D02*
X0116449Y0047438D01*
X0116449Y0046370D01*
X0115382Y0045303D01*
X0116449Y0044235D01*
X0116449Y0043168D01*
X0115382Y0042100D01*
X0115382Y0045303D02*
X0114314Y0045303D01*
X0112179Y0047438D02*
X0113247Y0048505D01*
X0115382Y0048505D01*
X0116449Y0062100D02*
X0112179Y0062100D01*
X0114314Y0062100D02*
X0114314Y0068505D01*
X0112179Y0066370D01*
X0110004Y0067438D02*
X0110004Y0063168D01*
X0108936Y0062100D01*
X0106801Y0062100D01*
X0105733Y0063168D01*
X0110004Y0067438D01*
X0108936Y0068505D01*
X0106801Y0068505D01*
X0105733Y0067438D01*
X0105733Y0063168D01*
X0103558Y0063168D02*
X0103558Y0067438D01*
X0102491Y0068505D01*
X0100356Y0068505D01*
X0099288Y0067438D01*
X0099288Y0063168D01*
X0100356Y0062100D01*
X0102491Y0062100D01*
X0103558Y0063168D01*
X0102491Y0072100D02*
X0100356Y0072100D01*
X0099288Y0073168D01*
X0099288Y0077438D01*
X0100356Y0078505D01*
X0102491Y0078505D01*
X0103558Y0077438D01*
X0103558Y0073168D01*
X0102491Y0072100D01*
X0105733Y0073168D02*
X0105733Y0077438D01*
X0106801Y0078505D01*
X0108936Y0078505D01*
X0110004Y0077438D01*
X0105733Y0073168D01*
X0106801Y0072100D01*
X0108936Y0072100D01*
X0110004Y0073168D01*
X0110004Y0077438D01*
X0112179Y0077438D02*
X0112179Y0073168D01*
X0116449Y0077438D01*
X0116449Y0073168D01*
X0115382Y0072100D01*
X0113247Y0072100D01*
X0112179Y0073168D01*
X0112179Y0077438D02*
X0113247Y0078505D01*
X0115382Y0078505D01*
X0116449Y0077438D01*
X0114327Y0082100D02*
X0114327Y0088505D01*
X0118598Y0082100D01*
X0118598Y0088505D01*
X0112152Y0088505D02*
X0107882Y0088505D01*
X0107882Y0082100D01*
X0112152Y0082100D01*
X0110017Y0085303D02*
X0107882Y0085303D01*
X0105707Y0081032D02*
X0101436Y0081032D01*
X0097126Y0078505D02*
X0094991Y0078505D01*
X0096059Y0078505D02*
X0096059Y0072100D01*
X0097126Y0072100D02*
X0094991Y0072100D01*
X0094991Y0068505D02*
X0097126Y0068505D01*
X0096059Y0068505D02*
X0096059Y0062100D01*
X0097126Y0062100D02*
X0094991Y0062100D01*
X0094991Y0058505D02*
X0097126Y0058505D01*
X0096059Y0058505D02*
X0096059Y0052100D01*
X0097126Y0052100D02*
X0094991Y0052100D01*
X0120095Y0021370D02*
X0120095Y0017100D01*
X0120095Y0019235D02*
X0126500Y0019235D01*
X0125432Y0023545D02*
X0123297Y0023545D01*
X0122230Y0024613D01*
X0122230Y0026748D01*
X0123297Y0027816D01*
X0125432Y0027816D01*
X0126500Y0026748D01*
X0126500Y0024613D01*
X0125432Y0023545D01*
X0126500Y0029991D02*
X0126500Y0033194D01*
X0125432Y0034261D01*
X0123297Y0034261D01*
X0122230Y0033194D01*
X0122230Y0029991D01*
X0128635Y0029991D01*
X0132100Y0027438D02*
X0132100Y0023168D01*
X0133168Y0022100D01*
X0135303Y0022100D01*
X0136370Y0023168D01*
X0136370Y0025303D01*
X0134235Y0025303D01*
X0132100Y0027438D02*
X0133168Y0028505D01*
X0135303Y0028505D01*
X0136370Y0027438D01*
X0138545Y0028505D02*
X0138545Y0022100D01*
X0138545Y0024235D02*
X0141748Y0024235D01*
X0142816Y0025303D01*
X0142816Y0027438D01*
X0141748Y0028505D01*
X0138545Y0028505D01*
X0138545Y0032100D02*
X0138545Y0038505D01*
X0141748Y0038505D01*
X0142816Y0037438D01*
X0142816Y0035303D01*
X0141748Y0034235D01*
X0138545Y0034235D01*
X0136370Y0033168D02*
X0136370Y0035303D01*
X0134235Y0035303D01*
X0132100Y0037438D02*
X0132100Y0033168D01*
X0133168Y0032100D01*
X0135303Y0032100D01*
X0136370Y0033168D01*
X0136370Y0037438D02*
X0135303Y0038505D01*
X0133168Y0038505D01*
X0132100Y0037438D01*
X0133168Y0042100D02*
X0135303Y0042100D01*
X0136370Y0043168D01*
X0136370Y0045303D01*
X0134235Y0045303D01*
X0132100Y0047438D02*
X0132100Y0043168D01*
X0133168Y0042100D01*
X0132100Y0047438D02*
X0133168Y0048505D01*
X0135303Y0048505D01*
X0136370Y0047438D01*
X0138545Y0048505D02*
X0138545Y0042100D01*
X0138545Y0044235D02*
X0141748Y0044235D01*
X0142816Y0045303D01*
X0142816Y0047438D01*
X0141748Y0048505D01*
X0138545Y0048505D01*
X0138545Y0052100D02*
X0138545Y0058505D01*
X0141748Y0058505D01*
X0142816Y0057438D01*
X0142816Y0055303D01*
X0141748Y0054235D01*
X0138545Y0054235D01*
X0136370Y0053168D02*
X0136370Y0055303D01*
X0134235Y0055303D01*
X0132100Y0057438D02*
X0132100Y0053168D01*
X0133168Y0052100D01*
X0135303Y0052100D01*
X0136370Y0053168D01*
X0136370Y0057438D02*
X0135303Y0058505D01*
X0133168Y0058505D01*
X0132100Y0057438D01*
X0133168Y0062100D02*
X0135303Y0062100D01*
X0136370Y0063168D01*
X0136370Y0065303D01*
X0134235Y0065303D01*
X0132100Y0067438D02*
X0132100Y0063168D01*
X0133168Y0062100D01*
X0132100Y0067438D02*
X0133168Y0068505D01*
X0135303Y0068505D01*
X0136370Y0067438D01*
X0138545Y0068505D02*
X0138545Y0062100D01*
X0138545Y0064235D02*
X0141748Y0064235D01*
X0142816Y0065303D01*
X0142816Y0067438D01*
X0141748Y0068505D01*
X0138545Y0068505D01*
X0138545Y0072100D02*
X0138545Y0078505D01*
X0141748Y0078505D01*
X0142816Y0077438D01*
X0142816Y0075303D01*
X0141748Y0074235D01*
X0138545Y0074235D01*
X0136370Y0073168D02*
X0136370Y0075303D01*
X0134235Y0075303D01*
X0132100Y0077438D02*
X0132100Y0073168D01*
X0133168Y0072100D01*
X0135303Y0072100D01*
X0136370Y0073168D01*
X0136370Y0077438D02*
X0135303Y0078505D01*
X0133168Y0078505D01*
X0132100Y0077438D01*
X0133168Y0082100D02*
X0135303Y0082100D01*
X0136370Y0083168D01*
X0136370Y0085303D01*
X0134235Y0085303D01*
X0132100Y0087438D02*
X0132100Y0083168D01*
X0133168Y0082100D01*
X0132100Y0087438D02*
X0133168Y0088505D01*
X0135303Y0088505D01*
X0136370Y0087438D01*
X0138545Y0088505D02*
X0141748Y0088505D01*
X0142816Y0087438D01*
X0142816Y0085303D01*
X0141748Y0084235D01*
X0138545Y0084235D01*
X0138545Y0082100D02*
X0138545Y0088505D01*
X0138545Y0092100D02*
X0138545Y0098505D01*
X0141748Y0098505D01*
X0142816Y0097438D01*
X0142816Y0095303D01*
X0141748Y0094235D01*
X0138545Y0094235D01*
X0136370Y0093168D02*
X0136370Y0095303D01*
X0134235Y0095303D01*
X0132100Y0097438D02*
X0132100Y0093168D01*
X0133168Y0092100D01*
X0135303Y0092100D01*
X0136370Y0093168D01*
X0136370Y0097438D02*
X0135303Y0098505D01*
X0133168Y0098505D01*
X0132100Y0097438D01*
X0133168Y0102100D02*
X0135303Y0102100D01*
X0136370Y0103168D01*
X0136370Y0105303D01*
X0134235Y0105303D01*
X0132100Y0107438D02*
X0132100Y0103168D01*
X0133168Y0102100D01*
X0132100Y0107438D02*
X0133168Y0108505D01*
X0135303Y0108505D01*
X0136370Y0107438D01*
X0138545Y0108505D02*
X0141748Y0108505D01*
X0142816Y0107438D01*
X0142816Y0105303D01*
X0141748Y0104235D01*
X0138545Y0104235D01*
X0138545Y0102100D02*
X0138545Y0108505D01*
X0138545Y0112100D02*
X0138545Y0118505D01*
X0141748Y0118505D01*
X0142816Y0117438D01*
X0142816Y0115303D01*
X0141748Y0114235D01*
X0138545Y0114235D01*
X0136370Y0113168D02*
X0136370Y0115303D01*
X0134235Y0115303D01*
X0132100Y0117438D02*
X0132100Y0113168D01*
X0133168Y0112100D01*
X0135303Y0112100D01*
X0136370Y0113168D01*
X0136370Y0117438D02*
X0135303Y0118505D01*
X0133168Y0118505D01*
X0132100Y0117438D01*
X0144991Y0118505D02*
X0147126Y0118505D01*
X0146059Y0118505D02*
X0146059Y0112100D01*
X0147126Y0112100D02*
X0144991Y0112100D01*
X0144991Y0108505D02*
X0147126Y0108505D01*
X0146059Y0108505D02*
X0146059Y0102100D01*
X0147126Y0102100D02*
X0144991Y0102100D01*
X0144991Y0098505D02*
X0147126Y0098505D01*
X0146059Y0098505D02*
X0146059Y0092100D01*
X0147126Y0092100D02*
X0144991Y0092100D01*
X0144991Y0088505D02*
X0147126Y0088505D01*
X0146059Y0088505D02*
X0146059Y0082100D01*
X0147126Y0082100D02*
X0144991Y0082100D01*
X0144991Y0078505D02*
X0147126Y0078505D01*
X0146059Y0078505D02*
X0146059Y0072100D01*
X0147126Y0072100D02*
X0144991Y0072100D01*
X0144991Y0068505D02*
X0147126Y0068505D01*
X0146059Y0068505D02*
X0146059Y0062100D01*
X0147126Y0062100D02*
X0144991Y0062100D01*
X0144991Y0058505D02*
X0147126Y0058505D01*
X0146059Y0058505D02*
X0146059Y0052100D01*
X0147126Y0052100D02*
X0144991Y0052100D01*
X0144991Y0048505D02*
X0147126Y0048505D01*
X0146059Y0048505D02*
X0146059Y0042100D01*
X0147126Y0042100D02*
X0144991Y0042100D01*
X0144991Y0038505D02*
X0147126Y0038505D01*
X0146059Y0038505D02*
X0146059Y0032100D01*
X0147126Y0032100D02*
X0144991Y0032100D01*
X0144991Y0028505D02*
X0147126Y0028505D01*
X0146059Y0028505D02*
X0146059Y0022100D01*
X0147126Y0022100D02*
X0144991Y0022100D01*
X0149288Y0023168D02*
X0150356Y0022100D01*
X0152491Y0022100D01*
X0153558Y0023168D01*
X0153558Y0027438D01*
X0152491Y0028505D01*
X0150356Y0028505D01*
X0149288Y0027438D01*
X0149288Y0023168D01*
X0155733Y0022100D02*
X0160004Y0022100D01*
X0157869Y0022100D02*
X0157869Y0028505D01*
X0155733Y0026370D01*
X0155733Y0032100D02*
X0160004Y0032100D01*
X0157869Y0032100D02*
X0157869Y0038505D01*
X0155733Y0036370D01*
X0153558Y0037438D02*
X0153558Y0033168D01*
X0152491Y0032100D01*
X0150356Y0032100D01*
X0149288Y0033168D01*
X0149288Y0037438D01*
X0150356Y0038505D01*
X0152491Y0038505D01*
X0153558Y0037438D01*
X0152491Y0042100D02*
X0150356Y0042100D01*
X0149288Y0043168D01*
X0149288Y0047438D01*
X0150356Y0048505D01*
X0152491Y0048505D01*
X0153558Y0047438D01*
X0153558Y0043168D01*
X0152491Y0042100D01*
X0155733Y0042100D02*
X0160004Y0042100D01*
X0157869Y0042100D02*
X0157869Y0048505D01*
X0155733Y0046370D01*
X0155733Y0052100D02*
X0160004Y0052100D01*
X0157869Y0052100D02*
X0157869Y0058505D01*
X0155733Y0056370D01*
X0153558Y0057438D02*
X0153558Y0053168D01*
X0152491Y0052100D01*
X0150356Y0052100D01*
X0149288Y0053168D01*
X0149288Y0057438D01*
X0150356Y0058505D01*
X0152491Y0058505D01*
X0153558Y0057438D01*
X0152491Y0062100D02*
X0150356Y0062100D01*
X0149288Y0063168D01*
X0149288Y0067438D01*
X0150356Y0068505D01*
X0152491Y0068505D01*
X0153558Y0067438D01*
X0153558Y0063168D01*
X0152491Y0062100D01*
X0155733Y0063168D02*
X0156801Y0062100D01*
X0158936Y0062100D01*
X0160004Y0063168D01*
X0160004Y0064235D01*
X0158936Y0065303D01*
X0157869Y0065303D01*
X0158936Y0065303D02*
X0160004Y0066370D01*
X0160004Y0067438D01*
X0158936Y0068505D01*
X0156801Y0068505D01*
X0155733Y0067438D01*
X0156801Y0072100D02*
X0155733Y0073168D01*
X0156801Y0072100D02*
X0158936Y0072100D01*
X0160004Y0073168D01*
X0160004Y0074235D01*
X0158936Y0075303D01*
X0157869Y0075303D01*
X0158936Y0075303D02*
X0160004Y0076370D01*
X0160004Y0077438D01*
X0158936Y0078505D01*
X0156801Y0078505D01*
X0155733Y0077438D01*
X0153558Y0077438D02*
X0153558Y0073168D01*
X0152491Y0072100D01*
X0150356Y0072100D01*
X0149288Y0073168D01*
X0149288Y0077438D01*
X0150356Y0078505D01*
X0152491Y0078505D01*
X0153558Y0077438D01*
X0152491Y0082100D02*
X0153558Y0083168D01*
X0153558Y0087438D01*
X0152491Y0088505D01*
X0150356Y0088505D01*
X0149288Y0087438D01*
X0149288Y0083168D01*
X0150356Y0082100D01*
X0152491Y0082100D01*
X0155733Y0083168D02*
X0156801Y0082100D01*
X0158936Y0082100D01*
X0160004Y0083168D01*
X0160004Y0084235D01*
X0158936Y0085303D01*
X0157869Y0085303D01*
X0158936Y0085303D02*
X0160004Y0086370D01*
X0160004Y0087438D01*
X0158936Y0088505D01*
X0156801Y0088505D01*
X0155733Y0087438D01*
X0156801Y0092100D02*
X0155733Y0093168D01*
X0156801Y0092100D02*
X0158936Y0092100D01*
X0160004Y0093168D01*
X0160004Y0094235D01*
X0158936Y0095303D01*
X0157869Y0095303D01*
X0158936Y0095303D02*
X0160004Y0096370D01*
X0160004Y0097438D01*
X0158936Y0098505D01*
X0156801Y0098505D01*
X0155733Y0097438D01*
X0153558Y0097438D02*
X0153558Y0093168D01*
X0152491Y0092100D01*
X0150356Y0092100D01*
X0149288Y0093168D01*
X0149288Y0097438D01*
X0150356Y0098505D01*
X0152491Y0098505D01*
X0153558Y0097438D01*
X0152491Y0102100D02*
X0153558Y0103168D01*
X0153558Y0107438D01*
X0152491Y0108505D01*
X0150356Y0108505D01*
X0149288Y0107438D01*
X0149288Y0103168D01*
X0150356Y0102100D01*
X0152491Y0102100D01*
X0155733Y0103168D02*
X0156801Y0102100D01*
X0158936Y0102100D01*
X0160004Y0103168D01*
X0160004Y0104235D01*
X0158936Y0105303D01*
X0157869Y0105303D01*
X0158936Y0105303D02*
X0160004Y0106370D01*
X0160004Y0107438D01*
X0158936Y0108505D01*
X0156801Y0108505D01*
X0155733Y0107438D01*
X0156801Y0112100D02*
X0155733Y0113168D01*
X0156801Y0112100D02*
X0158936Y0112100D01*
X0160004Y0113168D01*
X0160004Y0114235D01*
X0158936Y0115303D01*
X0157869Y0115303D01*
X0158936Y0115303D02*
X0160004Y0116370D01*
X0160004Y0117438D01*
X0158936Y0118505D01*
X0156801Y0118505D01*
X0155733Y0117438D01*
X0153558Y0117438D02*
X0152491Y0118505D01*
X0150356Y0118505D01*
X0149288Y0117438D01*
X0149288Y0113168D01*
X0150356Y0112100D01*
X0152491Y0112100D01*
X0153558Y0113168D01*
X0153558Y0117438D01*
X0162179Y0117438D02*
X0162179Y0116370D01*
X0163247Y0115303D01*
X0166449Y0115303D01*
X0166800Y0114300D02*
X0166800Y0109300D01*
X0169300Y0106800D01*
X0166800Y0104300D01*
X0166800Y0099300D01*
X0169300Y0096800D01*
X0174300Y0096800D01*
X0176800Y0099300D01*
X0176800Y0104300D01*
X0174300Y0106800D01*
X0169300Y0106800D01*
X0166449Y0108505D02*
X0164314Y0107438D01*
X0162179Y0105303D01*
X0165382Y0105303D01*
X0166449Y0104235D01*
X0166449Y0103168D01*
X0165382Y0102100D01*
X0163247Y0102100D01*
X0162179Y0103168D01*
X0162179Y0105303D01*
X0162179Y0098505D02*
X0162179Y0095303D01*
X0164314Y0096370D01*
X0165382Y0096370D01*
X0166449Y0095303D01*
X0166449Y0093168D01*
X0165382Y0092100D01*
X0163247Y0092100D01*
X0162179Y0093168D01*
X0162179Y0098505D02*
X0166449Y0098505D01*
X0169300Y0096800D02*
X0166800Y0094300D01*
X0166800Y0089300D01*
X0169300Y0086800D01*
X0166800Y0084300D01*
X0166800Y0079300D01*
X0169300Y0076800D01*
X0166800Y0074300D01*
X0166800Y0069300D01*
X0169300Y0066800D01*
X0174300Y0066800D01*
X0176800Y0069300D01*
X0176800Y0074300D01*
X0174300Y0076800D01*
X0169300Y0076800D01*
X0166449Y0076370D02*
X0165382Y0075303D01*
X0166449Y0074235D01*
X0166449Y0073168D01*
X0165382Y0072100D01*
X0163247Y0072100D01*
X0162179Y0073168D01*
X0164314Y0075303D02*
X0165382Y0075303D01*
X0166449Y0076370D02*
X0166449Y0077438D01*
X0165382Y0078505D01*
X0163247Y0078505D01*
X0162179Y0077438D01*
X0165382Y0082100D02*
X0165382Y0088505D01*
X0162179Y0085303D01*
X0166449Y0085303D01*
X0169300Y0086800D02*
X0174300Y0086800D01*
X0176800Y0084300D01*
X0176800Y0079300D01*
X0174300Y0076800D01*
X0174300Y0066800D02*
X0176800Y0064300D01*
X0176800Y0059300D01*
X0174300Y0056800D01*
X0176800Y0054300D01*
X0176800Y0049300D01*
X0174300Y0046800D01*
X0176800Y0044300D01*
X0176800Y0039300D01*
X0174300Y0036800D01*
X0169300Y0036800D01*
X0166800Y0039300D01*
X0166800Y0044300D01*
X0169300Y0046800D01*
X0166800Y0049300D01*
X0166800Y0054300D01*
X0169300Y0056800D01*
X0166800Y0059300D01*
X0166800Y0064300D01*
X0169300Y0066800D01*
X0166449Y0066370D02*
X0166449Y0067438D01*
X0165382Y0068505D01*
X0163247Y0068505D01*
X0162179Y0067438D01*
X0166449Y0066370D02*
X0162179Y0062100D01*
X0166449Y0062100D01*
X0166449Y0058505D02*
X0164314Y0057438D01*
X0162179Y0055303D01*
X0165382Y0055303D01*
X0166449Y0054235D01*
X0166449Y0053168D01*
X0165382Y0052100D01*
X0163247Y0052100D01*
X0162179Y0053168D01*
X0162179Y0055303D01*
X0162179Y0048505D02*
X0162179Y0045303D01*
X0164314Y0046370D01*
X0165382Y0046370D01*
X0166449Y0045303D01*
X0166449Y0043168D01*
X0165382Y0042100D01*
X0163247Y0042100D01*
X0162179Y0043168D01*
X0165382Y0038505D02*
X0162179Y0035303D01*
X0166449Y0035303D01*
X0166800Y0034300D02*
X0169300Y0036800D01*
X0166800Y0034300D02*
X0166800Y0029300D01*
X0169300Y0026800D01*
X0166800Y0024300D01*
X0166800Y0019300D01*
X0169300Y0016800D01*
X0174300Y0016800D01*
X0176800Y0019300D01*
X0176800Y0024300D01*
X0174300Y0026800D01*
X0169300Y0026800D01*
X0166449Y0026370D02*
X0165382Y0025303D01*
X0166449Y0024235D01*
X0166449Y0023168D01*
X0165382Y0022100D01*
X0163247Y0022100D01*
X0162179Y0023168D01*
X0164314Y0025303D02*
X0165382Y0025303D01*
X0166449Y0026370D02*
X0166449Y0027438D01*
X0165382Y0028505D01*
X0163247Y0028505D01*
X0162179Y0027438D01*
X0165382Y0032100D02*
X0165382Y0038505D01*
X0169300Y0046800D02*
X0174300Y0046800D01*
X0166449Y0048505D02*
X0162179Y0048505D01*
X0169300Y0056800D02*
X0174300Y0056800D01*
X0186800Y0054300D02*
X0186800Y0049300D01*
X0189300Y0046800D01*
X0186800Y0044300D01*
X0186800Y0039300D01*
X0189300Y0036800D01*
X0194300Y0036800D01*
X0196800Y0039300D01*
X0196800Y0044300D01*
X0194300Y0046800D01*
X0189300Y0046800D01*
X0194300Y0046800D02*
X0196800Y0049300D01*
X0196800Y0054300D01*
X0194300Y0056800D01*
X0189300Y0056800D01*
X0186800Y0054300D01*
X0189300Y0056800D02*
X0186800Y0059300D01*
X0186800Y0064300D01*
X0189300Y0066800D01*
X0186800Y0069300D01*
X0186800Y0074300D01*
X0189300Y0076800D01*
X0186800Y0079300D01*
X0186800Y0084300D01*
X0189300Y0086800D01*
X0186800Y0089300D01*
X0186800Y0094300D01*
X0189300Y0096800D01*
X0186800Y0099300D01*
X0186800Y0104300D01*
X0189300Y0106800D01*
X0186800Y0109300D01*
X0186800Y0114300D01*
X0189300Y0116800D01*
X0194300Y0116800D01*
X0196800Y0114300D01*
X0196800Y0109300D01*
X0194300Y0106800D01*
X0196800Y0104300D01*
X0196800Y0099300D01*
X0194300Y0096800D01*
X0189300Y0096800D01*
X0194300Y0096800D02*
X0196800Y0094300D01*
X0196800Y0089300D01*
X0194300Y0086800D01*
X0196800Y0084300D01*
X0196800Y0079300D01*
X0194300Y0076800D01*
X0196800Y0074300D01*
X0196800Y0069300D01*
X0194300Y0066800D01*
X0189300Y0066800D01*
X0194300Y0066800D02*
X0196800Y0064300D01*
X0196800Y0059300D01*
X0194300Y0056800D01*
X0194300Y0076800D02*
X0189300Y0076800D01*
X0189300Y0086800D02*
X0194300Y0086800D01*
X0194300Y0106800D02*
X0189300Y0106800D01*
X0176800Y0109300D02*
X0174300Y0106800D01*
X0176800Y0109300D02*
X0176800Y0114300D01*
X0174300Y0116800D01*
X0169300Y0116800D01*
X0166800Y0114300D01*
X0166449Y0113168D02*
X0165382Y0112100D01*
X0163247Y0112100D01*
X0162179Y0113168D01*
X0162179Y0117438D02*
X0163247Y0118505D01*
X0165382Y0118505D01*
X0166449Y0117438D01*
X0166449Y0113168D01*
X0174300Y0096800D02*
X0176800Y0094300D01*
X0176800Y0089300D01*
X0174300Y0086800D01*
X0174300Y0036800D02*
X0176800Y0034300D01*
X0176800Y0029300D01*
X0174300Y0026800D01*
X0186800Y0024300D02*
X0186800Y0019300D01*
X0189300Y0016800D01*
X0194300Y0016800D01*
X0196800Y0019300D01*
X0196800Y0024300D01*
X0194300Y0026800D01*
X0189300Y0026800D01*
X0186800Y0024300D01*
X0189300Y0026800D02*
X0186800Y0029300D01*
X0186800Y0034300D01*
X0189300Y0036800D01*
X0194300Y0036800D02*
X0196800Y0034300D01*
X0196800Y0029300D01*
X0194300Y0026800D01*
X0076449Y0143168D02*
X0075382Y0142100D01*
X0073247Y0142100D01*
X0072179Y0143168D01*
X0072179Y0145303D02*
X0074314Y0146370D01*
X0075382Y0146370D01*
X0076449Y0145303D01*
X0076449Y0143168D01*
X0072179Y0145303D02*
X0072179Y0148505D01*
X0076449Y0148505D01*
X0070004Y0142100D02*
X0065733Y0142100D01*
X0067869Y0142100D02*
X0067869Y0148505D01*
X0065733Y0146370D01*
X0063558Y0147438D02*
X0063558Y0143168D01*
X0062491Y0142100D01*
X0060356Y0142100D01*
X0059288Y0143168D01*
X0059288Y0147438D01*
X0060356Y0148505D01*
X0062491Y0148505D01*
X0063558Y0147438D01*
X0057126Y0148505D02*
X0054991Y0148505D01*
X0056059Y0148505D02*
X0056059Y0142100D01*
X0057126Y0142100D02*
X0054991Y0142100D01*
X0052816Y0145303D02*
X0051748Y0144235D01*
X0048545Y0144235D01*
X0048545Y0142100D02*
X0048545Y0148505D01*
X0051748Y0148505D01*
X0052816Y0147438D01*
X0052816Y0145303D01*
X0046370Y0145303D02*
X0046370Y0143168D01*
X0045303Y0142100D01*
X0043168Y0142100D01*
X0042100Y0143168D01*
X0042100Y0147438D01*
X0043168Y0148505D01*
X0045303Y0148505D01*
X0046370Y0147438D01*
X0046370Y0145303D02*
X0044235Y0145303D01*
X0036800Y0144300D02*
X0036800Y0139300D01*
X0034300Y0136800D01*
X0029300Y0136800D01*
X0026800Y0139300D01*
X0026800Y0144300D01*
X0029300Y0146800D01*
X0026800Y0149300D01*
X0026800Y0154300D01*
X0029300Y0156800D01*
X0026800Y0159300D01*
X0026800Y0164300D01*
X0029300Y0166800D01*
X0026800Y0169300D01*
X0026800Y0174300D01*
X0029300Y0176800D01*
X0026800Y0179300D01*
X0026800Y0184300D01*
X0029300Y0186800D01*
X0034300Y0186800D01*
X0036800Y0184300D01*
X0036800Y0179300D01*
X0034300Y0176800D01*
X0036800Y0174300D01*
X0036800Y0169300D01*
X0034300Y0166800D01*
X0029300Y0166800D01*
X0034300Y0166800D02*
X0036800Y0164300D01*
X0036800Y0159300D01*
X0034300Y0156800D01*
X0036800Y0154300D01*
X0036800Y0149300D01*
X0034300Y0146800D01*
X0036800Y0144300D01*
X0034300Y0146800D02*
X0029300Y0146800D01*
X0029300Y0156800D02*
X0034300Y0156800D01*
X0034300Y0176800D02*
X0029300Y0176800D01*
X0029300Y0206800D02*
X0026800Y0209300D01*
X0026800Y0214300D01*
X0029300Y0216800D01*
X0026800Y0219300D01*
X0026800Y0224300D01*
X0029300Y0226800D01*
X0026800Y0229300D01*
X0026800Y0234300D01*
X0029300Y0236800D01*
X0026800Y0239300D01*
X0026800Y0244300D01*
X0029300Y0246800D01*
X0026800Y0249300D01*
X0026800Y0254300D01*
X0029300Y0256800D01*
X0034300Y0256800D01*
X0036800Y0254300D01*
X0036800Y0249300D01*
X0034300Y0246800D01*
X0036800Y0244300D01*
X0036800Y0239300D01*
X0034300Y0236800D01*
X0029300Y0236800D01*
X0034300Y0236800D02*
X0036800Y0234300D01*
X0036800Y0229300D01*
X0034300Y0226800D01*
X0036800Y0224300D01*
X0036800Y0219300D01*
X0034300Y0216800D01*
X0036800Y0214300D01*
X0036800Y0209300D01*
X0034300Y0206800D01*
X0029300Y0206800D01*
X0029300Y0216800D02*
X0034300Y0216800D01*
X0034300Y0226800D02*
X0029300Y0226800D01*
X0029300Y0246800D02*
X0034300Y0246800D01*
X0043168Y0218505D02*
X0042100Y0217438D01*
X0042100Y0213168D01*
X0043168Y0212100D01*
X0045303Y0212100D01*
X0046370Y0213168D01*
X0046370Y0215303D01*
X0044235Y0215303D01*
X0046370Y0217438D02*
X0045303Y0218505D01*
X0043168Y0218505D01*
X0048545Y0218505D02*
X0048545Y0212100D01*
X0048545Y0214235D02*
X0051748Y0214235D01*
X0052816Y0215303D01*
X0052816Y0217438D01*
X0051748Y0218505D01*
X0048545Y0218505D01*
X0054991Y0218505D02*
X0057126Y0218505D01*
X0056059Y0218505D02*
X0056059Y0212100D01*
X0057126Y0212100D02*
X0054991Y0212100D01*
X0059288Y0213168D02*
X0059288Y0217438D01*
X0060356Y0218505D01*
X0062491Y0218505D01*
X0063558Y0217438D01*
X0063558Y0213168D01*
X0062491Y0212100D01*
X0060356Y0212100D01*
X0059288Y0213168D01*
X0065733Y0212100D02*
X0070004Y0212100D01*
X0067869Y0212100D02*
X0067869Y0218505D01*
X0065733Y0216370D01*
X0072179Y0215303D02*
X0075382Y0215303D01*
X0076449Y0214235D01*
X0076449Y0213168D01*
X0075382Y0212100D01*
X0073247Y0212100D01*
X0072179Y0213168D01*
X0072179Y0215303D01*
X0074314Y0217438D01*
X0076449Y0218505D01*
X0034300Y0276800D02*
X0036800Y0279300D01*
X0036800Y0284300D01*
X0034300Y0286800D01*
X0029300Y0286800D01*
X0026800Y0284300D01*
X0026800Y0279300D01*
X0029300Y0276800D01*
X0034300Y0276800D01*
X0034300Y0286800D02*
X0036800Y0289300D01*
X0036800Y0294300D01*
X0034300Y0296800D01*
X0029300Y0296800D01*
X0026800Y0294300D01*
X0026800Y0289300D01*
X0029300Y0286800D01*
X0029300Y0296800D02*
X0026800Y0299300D01*
X0026800Y0304300D01*
X0029300Y0306800D01*
X0026800Y0309300D01*
X0026800Y0314300D01*
X0029300Y0316800D01*
X0026800Y0319300D01*
X0026800Y0324300D01*
X0029300Y0326800D01*
X0034300Y0326800D01*
X0036800Y0324300D01*
X0036800Y0319300D01*
X0034300Y0316800D01*
X0036800Y0314300D01*
X0036800Y0309300D01*
X0034300Y0306800D01*
X0029300Y0306800D01*
X0034300Y0306800D02*
X0036800Y0304300D01*
X0036800Y0299300D01*
X0034300Y0296800D01*
X0043168Y0288505D02*
X0042100Y0287438D01*
X0042100Y0283168D01*
X0043168Y0282100D01*
X0045303Y0282100D01*
X0046370Y0283168D01*
X0046370Y0285303D01*
X0044235Y0285303D01*
X0046370Y0287438D02*
X0045303Y0288505D01*
X0043168Y0288505D01*
X0048545Y0288505D02*
X0048545Y0282100D01*
X0048545Y0284235D02*
X0051748Y0284235D01*
X0052816Y0285303D01*
X0052816Y0287438D01*
X0051748Y0288505D01*
X0048545Y0288505D01*
X0054991Y0288505D02*
X0057126Y0288505D01*
X0056059Y0288505D02*
X0056059Y0282100D01*
X0057126Y0282100D02*
X0054991Y0282100D01*
X0059288Y0283168D02*
X0060356Y0282100D01*
X0062491Y0282100D01*
X0063558Y0283168D01*
X0063558Y0287438D01*
X0062491Y0288505D01*
X0060356Y0288505D01*
X0059288Y0287438D01*
X0059288Y0283168D01*
X0065733Y0283168D02*
X0066801Y0282100D01*
X0068936Y0282100D01*
X0070004Y0283168D01*
X0070004Y0284235D01*
X0068936Y0285303D01*
X0067869Y0285303D01*
X0068936Y0285303D02*
X0070004Y0286370D01*
X0070004Y0287438D01*
X0068936Y0288505D01*
X0066801Y0288505D01*
X0065733Y0287438D01*
X0072179Y0287438D02*
X0073247Y0288505D01*
X0075382Y0288505D01*
X0076449Y0287438D01*
X0076449Y0286370D01*
X0072179Y0282100D01*
X0076449Y0282100D01*
X0034300Y0316800D02*
X0029300Y0316800D01*
X0049300Y0106800D02*
X0054300Y0106800D01*
X0054300Y0086800D02*
X0049300Y0086800D01*
X0049300Y0076800D02*
X0054300Y0076800D01*
X0034300Y0066800D02*
X0029300Y0066800D01*
X0069300Y0106800D02*
X0074300Y0106800D01*
D11*
X0202947Y0122567D02*
X0202947Y0123802D01*
X0203564Y0124419D01*
X0204181Y0124419D01*
X0204798Y0123802D01*
X0205416Y0124419D01*
X0206033Y0124419D01*
X0206650Y0123802D01*
X0206650Y0122567D01*
X0206033Y0121950D01*
X0204798Y0123184D02*
X0204798Y0123802D01*
X0204181Y0125633D02*
X0206650Y0128102D01*
X0206650Y0125633D02*
X0204181Y0128102D01*
X0202947Y0132999D02*
X0202947Y0135468D01*
X0202947Y0136683D02*
X0206650Y0136683D01*
X0204798Y0136683D02*
X0204181Y0137300D01*
X0204181Y0138534D01*
X0204798Y0139151D01*
X0206650Y0139151D01*
X0206033Y0140366D02*
X0204798Y0140366D01*
X0204181Y0140983D01*
X0204181Y0142217D01*
X0204798Y0142834D01*
X0205416Y0142834D01*
X0205416Y0140366D01*
X0206033Y0140366D02*
X0206650Y0140983D01*
X0206650Y0142217D01*
X0206650Y0144049D02*
X0204181Y0144049D01*
X0204181Y0145283D02*
X0205416Y0144049D01*
X0204181Y0145283D02*
X0204181Y0145900D01*
X0204181Y0147118D02*
X0204181Y0147735D01*
X0204798Y0148353D01*
X0204181Y0148970D01*
X0204798Y0149587D01*
X0206650Y0149587D01*
X0206650Y0148353D02*
X0204798Y0148353D01*
X0204181Y0147118D02*
X0206650Y0147118D01*
X0206033Y0150801D02*
X0204798Y0150801D01*
X0204181Y0151418D01*
X0204181Y0152653D01*
X0204798Y0153270D01*
X0206033Y0153270D01*
X0206650Y0152653D01*
X0206650Y0151418D01*
X0206033Y0150801D01*
X0206033Y0154484D02*
X0204798Y0154484D01*
X0204181Y0155102D01*
X0204181Y0156953D01*
X0204798Y0158168D02*
X0206033Y0158168D01*
X0206650Y0158785D01*
X0206650Y0160019D01*
X0206033Y0160636D01*
X0204798Y0160636D01*
X0204181Y0160019D01*
X0204181Y0158785D01*
X0204798Y0158168D01*
X0206650Y0156953D02*
X0206650Y0155102D01*
X0206033Y0154484D01*
X0206033Y0161851D02*
X0204181Y0161851D01*
X0206033Y0161851D02*
X0206650Y0162468D01*
X0206650Y0164320D01*
X0204181Y0164320D01*
X0204181Y0165534D02*
X0204181Y0167385D01*
X0204798Y0168003D01*
X0206033Y0168003D01*
X0206650Y0167385D01*
X0206650Y0165534D01*
X0207884Y0165534D02*
X0204181Y0165534D01*
X0202947Y0169217D02*
X0202947Y0169834D01*
X0206650Y0169834D01*
X0206650Y0169217D02*
X0206650Y0170451D01*
X0206033Y0171672D02*
X0204798Y0171672D01*
X0204181Y0172290D01*
X0204181Y0173524D01*
X0204798Y0174141D01*
X0205416Y0174141D01*
X0205416Y0171672D01*
X0206033Y0171672D02*
X0206650Y0172290D01*
X0206650Y0173524D01*
X0206650Y0175356D02*
X0204181Y0175356D01*
X0204181Y0176590D02*
X0204181Y0177207D01*
X0204181Y0176590D02*
X0205416Y0175356D01*
X0205416Y0182108D02*
X0204181Y0182108D01*
X0202947Y0183342D01*
X0202947Y0184563D02*
X0204181Y0185798D01*
X0202947Y0187032D01*
X0206650Y0187032D01*
X0206650Y0188247D02*
X0204181Y0188247D01*
X0202947Y0189481D01*
X0204181Y0190715D01*
X0206650Y0190715D01*
X0206650Y0191930D02*
X0202947Y0194398D01*
X0204798Y0195613D02*
X0204798Y0197464D01*
X0205416Y0198082D01*
X0206033Y0198082D01*
X0206650Y0197464D01*
X0206650Y0196230D01*
X0206033Y0195613D01*
X0204798Y0195613D01*
X0203564Y0196847D01*
X0202947Y0198082D01*
X0204798Y0199296D02*
X0204798Y0201148D01*
X0205416Y0201765D01*
X0206033Y0201765D01*
X0206650Y0201148D01*
X0206650Y0199913D01*
X0206033Y0199296D01*
X0204798Y0199296D01*
X0203564Y0200530D01*
X0202947Y0201765D01*
X0202947Y0202979D02*
X0202947Y0205448D01*
X0203564Y0205448D01*
X0206033Y0202979D01*
X0206650Y0202979D01*
X0206033Y0206662D02*
X0206650Y0207279D01*
X0206650Y0208514D01*
X0206033Y0209131D01*
X0204798Y0209131D01*
X0204181Y0208514D01*
X0204181Y0207897D01*
X0204798Y0206662D01*
X0202947Y0206662D01*
X0202947Y0209131D01*
X0202947Y0210345D02*
X0204181Y0211580D01*
X0205416Y0211580D01*
X0206650Y0210345D01*
X0206033Y0216484D02*
X0205416Y0217101D01*
X0205416Y0218953D01*
X0204798Y0218953D02*
X0206650Y0218953D01*
X0206650Y0217101D01*
X0206033Y0216484D01*
X0204181Y0217101D02*
X0204181Y0218336D01*
X0204798Y0218953D01*
X0204181Y0220167D02*
X0204181Y0222019D01*
X0204798Y0222636D01*
X0206650Y0222636D01*
X0206033Y0223850D02*
X0204798Y0223850D01*
X0204181Y0224467D01*
X0204181Y0226319D01*
X0202947Y0226319D02*
X0206650Y0226319D01*
X0206650Y0224467D01*
X0206033Y0223850D01*
X0206650Y0220167D02*
X0204181Y0220167D01*
X0204798Y0231217D02*
X0204798Y0233068D01*
X0205416Y0233685D01*
X0206033Y0233685D01*
X0206650Y0233068D01*
X0206650Y0231217D01*
X0202947Y0231217D01*
X0202947Y0233068D01*
X0203564Y0233685D01*
X0204181Y0233685D01*
X0204798Y0233068D01*
X0202947Y0234900D02*
X0204181Y0236134D01*
X0202947Y0237369D01*
X0206650Y0237369D01*
X0206650Y0238583D02*
X0206650Y0241052D01*
X0206650Y0242266D02*
X0204181Y0244735D01*
X0203564Y0244735D01*
X0202947Y0244118D01*
X0202947Y0242883D01*
X0203564Y0242266D01*
X0202947Y0241052D02*
X0202947Y0238583D01*
X0206650Y0238583D01*
X0204798Y0238583D02*
X0204798Y0239817D01*
X0206650Y0242266D02*
X0206650Y0244735D01*
X0206033Y0245949D02*
X0205416Y0245949D01*
X0204798Y0246566D01*
X0204798Y0247801D01*
X0205416Y0248418D01*
X0206033Y0248418D01*
X0206650Y0247801D01*
X0206650Y0246566D01*
X0206033Y0245949D01*
X0204798Y0246566D02*
X0204181Y0245949D01*
X0203564Y0245949D01*
X0202947Y0246566D01*
X0202947Y0247801D01*
X0203564Y0248418D01*
X0204181Y0248418D01*
X0204798Y0247801D01*
X0203564Y0249632D02*
X0202947Y0250250D01*
X0202947Y0251484D01*
X0203564Y0252101D01*
X0206033Y0249632D01*
X0206650Y0250250D01*
X0206650Y0251484D01*
X0206033Y0252101D01*
X0203564Y0252101D01*
X0203564Y0249632D02*
X0206033Y0249632D01*
X0206650Y0256999D02*
X0202947Y0256999D01*
X0202947Y0259467D01*
X0203564Y0260682D02*
X0202947Y0261299D01*
X0202947Y0262533D01*
X0203564Y0263151D01*
X0202947Y0264365D02*
X0202947Y0266216D01*
X0203564Y0266834D01*
X0204798Y0266834D01*
X0205416Y0266216D01*
X0205416Y0264365D01*
X0205416Y0263151D02*
X0206033Y0263151D01*
X0206650Y0262533D01*
X0206650Y0261299D01*
X0206033Y0260682D01*
X0206650Y0259467D02*
X0206650Y0256999D01*
X0204798Y0256999D02*
X0204798Y0258233D01*
X0204181Y0260682D02*
X0204798Y0261299D01*
X0204798Y0262533D01*
X0205416Y0263151D01*
X0206650Y0264365D02*
X0202947Y0264365D01*
X0203564Y0260682D02*
X0204181Y0260682D01*
X0203564Y0268048D02*
X0202947Y0268665D01*
X0202947Y0269900D01*
X0203564Y0270517D01*
X0204181Y0270517D01*
X0204798Y0269900D01*
X0205416Y0270517D01*
X0206033Y0270517D01*
X0206650Y0269900D01*
X0206650Y0268665D01*
X0206033Y0268048D01*
X0204798Y0269282D02*
X0204798Y0269900D01*
X0203564Y0271731D02*
X0202947Y0272348D01*
X0202947Y0273583D01*
X0203564Y0274200D01*
X0204181Y0274200D01*
X0206650Y0271731D01*
X0206650Y0274200D01*
X0204798Y0275414D02*
X0204798Y0277883D01*
X0205416Y0279097D02*
X0205416Y0280949D01*
X0204798Y0281566D01*
X0203564Y0281566D01*
X0202947Y0280949D01*
X0202947Y0279097D01*
X0206650Y0279097D01*
X0206033Y0282781D02*
X0203564Y0282781D01*
X0202947Y0283398D01*
X0202947Y0284632D01*
X0203564Y0285249D01*
X0206033Y0285249D01*
X0206650Y0284632D01*
X0206650Y0283398D01*
X0206033Y0282781D01*
X0206650Y0286464D02*
X0206650Y0288933D01*
X0204798Y0287698D02*
X0204798Y0286464D01*
X0202947Y0286464D02*
X0202947Y0288933D01*
X0202947Y0286464D02*
X0206650Y0286464D01*
X0206650Y0293830D02*
X0202947Y0293830D01*
X0204181Y0294447D02*
X0204181Y0295682D01*
X0204798Y0296299D01*
X0206650Y0296299D01*
X0206033Y0297513D02*
X0205416Y0298130D01*
X0205416Y0299982D01*
X0204798Y0299982D02*
X0206650Y0299982D01*
X0206650Y0298130D01*
X0206033Y0297513D01*
X0204181Y0298130D02*
X0204181Y0299365D01*
X0204798Y0299982D01*
X0204181Y0301196D02*
X0204181Y0302431D01*
X0203564Y0301814D02*
X0206033Y0301814D01*
X0206650Y0302431D01*
X0204181Y0294447D02*
X0204798Y0293830D01*
X0206650Y0234900D02*
X0202947Y0234900D01*
X0206650Y0194398D02*
X0202947Y0191930D01*
X0204798Y0190715D02*
X0204798Y0188247D01*
X0202947Y0184563D02*
X0206650Y0184563D01*
X0206650Y0183342D02*
X0205416Y0182108D01*
X0206650Y0134234D02*
X0202947Y0134234D01*
X0202947Y0122567D02*
X0203564Y0121950D01*
D12*
X0201498Y0115749D02*
X0201498Y0112746D01*
X0199246Y0114998D01*
X0203750Y0114998D01*
X0201498Y0111145D02*
X0202249Y0110394D01*
X0202249Y0108142D01*
X0203750Y0108142D02*
X0199246Y0108142D01*
X0199246Y0110394D01*
X0199997Y0111145D01*
X0201498Y0111145D01*
X0199246Y0106541D02*
X0199246Y0105039D01*
X0199246Y0105790D02*
X0202999Y0105790D01*
X0203750Y0105039D01*
X0203750Y0104289D01*
X0202999Y0103538D01*
X0183750Y0104289D02*
X0183750Y0105039D01*
X0182999Y0105790D01*
X0179246Y0105790D01*
X0179246Y0105039D02*
X0179246Y0106541D01*
X0179246Y0108142D02*
X0179246Y0110394D01*
X0179997Y0111145D01*
X0181498Y0111145D01*
X0182249Y0110394D01*
X0182249Y0108142D01*
X0183750Y0108142D02*
X0179246Y0108142D01*
X0179997Y0112746D02*
X0179246Y0113497D01*
X0179246Y0114998D01*
X0179997Y0115749D01*
X0180747Y0115749D01*
X0183750Y0112746D01*
X0183750Y0115749D01*
X0183750Y0104289D02*
X0182999Y0103538D01*
X0078960Y0119250D02*
X0075958Y0119250D01*
X0077459Y0119250D02*
X0077459Y0123754D01*
X0075958Y0122253D01*
X0074356Y0123003D02*
X0074356Y0121502D01*
X0073606Y0120751D01*
X0071354Y0120751D01*
X0071354Y0119250D02*
X0071354Y0123754D01*
X0073606Y0123754D01*
X0074356Y0123003D01*
X0069753Y0123754D02*
X0068251Y0123754D01*
X0069002Y0123754D02*
X0069002Y0120001D01*
X0068251Y0119250D01*
X0067501Y0119250D01*
X0066750Y0120001D01*
X0058960Y0120001D02*
X0058210Y0119250D01*
X0056708Y0119250D01*
X0055958Y0120001D01*
X0057459Y0121502D02*
X0058210Y0121502D01*
X0058960Y0120751D01*
X0058960Y0120001D01*
X0058210Y0121502D02*
X0058960Y0122253D01*
X0058960Y0123003D01*
X0058210Y0123754D01*
X0056708Y0123754D01*
X0055958Y0123003D01*
X0054356Y0123003D02*
X0053606Y0123754D01*
X0051354Y0123754D01*
X0051354Y0119250D01*
X0051354Y0120751D02*
X0053606Y0120751D01*
X0054356Y0121502D01*
X0054356Y0123003D01*
X0049753Y0123754D02*
X0048251Y0123754D01*
X0049002Y0123754D02*
X0049002Y0120001D01*
X0048251Y0119250D01*
X0047501Y0119250D01*
X0046750Y0120001D01*
X0042999Y0075749D02*
X0039997Y0075749D01*
X0042999Y0072746D01*
X0043750Y0073497D01*
X0043750Y0074998D01*
X0042999Y0075749D01*
X0039997Y0075749D02*
X0039246Y0074998D01*
X0039246Y0073497D01*
X0039997Y0072746D01*
X0042999Y0072746D01*
X0042999Y0071145D02*
X0043750Y0070394D01*
X0043750Y0068893D01*
X0042999Y0068142D01*
X0042249Y0068142D01*
X0041498Y0068893D01*
X0041498Y0070394D01*
X0042249Y0071145D01*
X0042999Y0071145D01*
X0041498Y0070394D02*
X0040747Y0071145D01*
X0039997Y0071145D01*
X0039246Y0070394D01*
X0039246Y0068893D01*
X0039997Y0068142D01*
X0040747Y0068142D01*
X0041498Y0068893D01*
X0040747Y0066541D02*
X0039997Y0066541D01*
X0039246Y0065790D01*
X0039246Y0064289D01*
X0039997Y0063538D01*
X0039246Y0061937D02*
X0039246Y0058934D01*
X0043750Y0058934D01*
X0043750Y0061937D01*
X0043750Y0063538D02*
X0040747Y0066541D01*
X0043750Y0066541D02*
X0043750Y0063538D01*
X0041498Y0060436D02*
X0041498Y0058934D01*
X0039246Y0057333D02*
X0043750Y0057333D01*
X0043750Y0054330D02*
X0039246Y0054330D01*
X0040747Y0055832D01*
X0039246Y0057333D01*
X0039997Y0052729D02*
X0039246Y0051978D01*
X0039246Y0049726D01*
X0043750Y0049726D01*
X0043750Y0051978D01*
X0042999Y0052729D01*
X0042249Y0052729D01*
X0041498Y0051978D01*
X0041498Y0049726D01*
X0041498Y0051978D02*
X0040747Y0052729D01*
X0039997Y0052729D01*
X0039246Y0173538D02*
X0039246Y0176541D01*
X0039246Y0175039D02*
X0043750Y0175039D01*
X0042999Y0178142D02*
X0043750Y0178893D01*
X0043750Y0180394D01*
X0042999Y0181145D01*
X0043750Y0182746D02*
X0043750Y0185749D01*
X0043750Y0184247D02*
X0039246Y0184247D01*
X0040747Y0182746D01*
X0039997Y0181145D02*
X0039246Y0180394D01*
X0039246Y0178893D01*
X0039997Y0178142D01*
X0042999Y0178142D01*
X0039246Y0243538D02*
X0039246Y0246541D01*
X0039246Y0245039D02*
X0043750Y0245039D01*
X0042999Y0248142D02*
X0043750Y0248893D01*
X0043750Y0250394D01*
X0042999Y0251145D01*
X0043750Y0252746D02*
X0040747Y0255749D01*
X0039997Y0255749D01*
X0039246Y0254998D01*
X0039246Y0253497D01*
X0039997Y0252746D01*
X0039997Y0251145D02*
X0039246Y0250394D01*
X0039246Y0248893D01*
X0039997Y0248142D01*
X0042999Y0248142D01*
X0043750Y0252746D02*
X0043750Y0255749D01*
X0039246Y0313538D02*
X0039246Y0316541D01*
X0039246Y0315039D02*
X0043750Y0315039D01*
X0042999Y0318142D02*
X0043750Y0318893D01*
X0043750Y0320394D01*
X0042999Y0321145D01*
X0042999Y0322746D02*
X0043750Y0323497D01*
X0043750Y0324998D01*
X0042999Y0325749D01*
X0042249Y0325749D01*
X0041498Y0324998D01*
X0041498Y0324247D01*
X0041498Y0324998D02*
X0040747Y0325749D01*
X0039997Y0325749D01*
X0039246Y0324998D01*
X0039246Y0323497D01*
X0039997Y0322746D01*
X0039997Y0321145D02*
X0039246Y0320394D01*
X0039246Y0318893D01*
X0039997Y0318142D01*
X0042999Y0318142D01*
D13*
X0031800Y0321800D03*
X0031800Y0311800D03*
X0031800Y0301800D03*
X0031800Y0291800D03*
X0031800Y0281800D03*
X0031800Y0251800D03*
X0031800Y0241800D03*
X0031800Y0231800D03*
X0031800Y0221800D03*
X0031800Y0211800D03*
X0031800Y0181800D03*
X0031800Y0171800D03*
X0031800Y0161800D03*
X0031800Y0151800D03*
X0031800Y0141800D03*
X0051800Y0111800D03*
X0051800Y0101800D03*
X0051800Y0091800D03*
X0051800Y0081800D03*
X0051800Y0071800D03*
X0051800Y0061800D03*
X0051800Y0051800D03*
X0051800Y0041800D03*
X0051800Y0031800D03*
X0051800Y0021800D03*
X0031800Y0021800D03*
X0031800Y0031800D03*
X0031800Y0041800D03*
X0031800Y0051800D03*
X0031800Y0061800D03*
X0031800Y0071800D03*
X0071800Y0071800D03*
X0071800Y0061800D03*
X0071800Y0051800D03*
X0071800Y0041800D03*
X0071800Y0031800D03*
X0071800Y0021800D03*
X0071800Y0081800D03*
X0071800Y0091800D03*
X0071800Y0101800D03*
X0071800Y0111800D03*
X0171800Y0111800D03*
X0171800Y0101800D03*
X0171800Y0091800D03*
X0171800Y0081800D03*
X0171800Y0071800D03*
X0171800Y0061800D03*
X0171800Y0051800D03*
X0171800Y0041800D03*
X0171800Y0031800D03*
X0171800Y0021800D03*
X0191800Y0021800D03*
X0191800Y0031800D03*
X0191800Y0041800D03*
X0191800Y0051800D03*
X0191800Y0061800D03*
X0191800Y0071800D03*
X0191800Y0081800D03*
X0191800Y0091800D03*
X0191800Y0101800D03*
X0191800Y0111800D03*
M02*
