%
M48
M72
T01C0.0276
T02C0.0400
%
T01
X10180Y16180
X11180Y14180
X12180Y15180
X11180Y21180
X10180Y23180
X13180Y22180
X11180Y28180
X10180Y30180
X14180Y29180
T02
X3180Y2180
X3180Y3180
X3180Y4180
X3180Y5180
X3180Y6180
X3180Y7180
X5180Y7180
X5180Y6180
X5180Y5180
X5180Y4180
X5180Y3180
X5180Y2180
X7180Y2180
X7180Y3180
X7180Y4180
X7180Y5180
X7180Y6180
X7180Y7180
X7180Y8180
X7180Y9180
X7180Y10180
X7180Y11180
X5180Y11180
X5180Y10180
X5180Y9180
X5180Y8180
X3180Y14180
X3180Y15180
X3180Y16180
X3180Y17180
X3180Y18180
X3180Y21180
X3180Y22180
X3180Y23180
X3180Y24180
X3180Y25180
X3180Y28180
X3180Y29180
X3180Y30180
X3180Y31180
X3180Y32180
X17180Y11180
X17180Y10180
X17180Y9180
X17180Y8180
X17180Y7180
X17180Y6180
X17180Y5180
X17180Y4180
X17180Y3180
X17180Y2180
X19180Y2180
X19180Y3180
X19180Y4180
X19180Y5180
X19180Y6180
X19180Y7180
X19180Y8180
X19180Y9180
X19180Y10180
X19180Y11180
M30
