G75*
%MOIN*%
%OFA0B0*%
%FSLAX25Y25*%
%IPPOS*%
%LPD*%
%AMOC8*
5,1,8,0,0,1.08239X$1,22.5*
%
%ADD10C,0.00600*%
%ADD11C,0.00500*%
%ADD12C,0.00300*%
%ADD13R,0.02000X0.02000*%
%ADD14C,0.00800*%
%ADD15C,0.00400*%
%ADD16R,0.00800X0.03300*%
%ADD17R,0.05709X0.02953*%
%ADD18C,0.01200*%
%ADD19R,0.02953X0.05709*%
%ADD20R,0.00787X0.03937*%
%ADD21R,0.03937X0.00787*%
D10*
X0046125Y0044788D02*
X0046125Y0046089D01*
X0046559Y0046523D01*
X0047426Y0046523D01*
X0047860Y0046089D01*
X0047860Y0044788D01*
X0047860Y0045655D02*
X0048728Y0046523D01*
X0048728Y0047735D02*
X0048728Y0049469D01*
X0048728Y0048602D02*
X0046125Y0048602D01*
X0046993Y0047735D01*
X0046650Y0047235D02*
X0049852Y0047235D01*
X0050920Y0048303D01*
X0050920Y0050438D01*
X0049852Y0051505D01*
X0046650Y0051505D01*
X0046650Y0045100D01*
X0046125Y0044788D02*
X0048728Y0044788D01*
X0053095Y0046168D02*
X0054163Y0045100D01*
X0056298Y0045100D01*
X0057366Y0046168D01*
X0057366Y0048303D01*
X0056298Y0049370D01*
X0054163Y0049370D01*
X0053095Y0048303D01*
X0053095Y0046168D01*
X0059541Y0047235D02*
X0061676Y0049370D01*
X0062743Y0049370D01*
X0064912Y0049370D02*
X0067047Y0049370D01*
X0065980Y0050438D02*
X0065980Y0046168D01*
X0067047Y0045100D01*
X0059541Y0045100D02*
X0059541Y0049370D01*
X0048728Y0051115D02*
X0048728Y0051982D01*
X0048294Y0052416D01*
X0046559Y0052416D01*
X0046125Y0051982D01*
X0046125Y0051115D01*
X0046559Y0050681D01*
X0046993Y0050681D01*
X0047426Y0051115D01*
X0047426Y0052416D01*
X0048728Y0051115D02*
X0048294Y0050681D01*
X0075653Y0051115D02*
X0075653Y0051982D01*
X0076087Y0052416D01*
X0076520Y0052416D01*
X0076954Y0051982D01*
X0076954Y0051115D01*
X0076520Y0050681D01*
X0076087Y0050681D01*
X0075653Y0051115D01*
X0076954Y0051115D02*
X0077388Y0050681D01*
X0077821Y0050681D01*
X0078255Y0051115D01*
X0078255Y0051982D01*
X0077821Y0052416D01*
X0077388Y0052416D01*
X0076954Y0051982D01*
X0078857Y0051505D02*
X0075654Y0048303D01*
X0079925Y0048303D01*
X0078255Y0048602D02*
X0075653Y0048602D01*
X0076520Y0047735D01*
X0076087Y0046523D02*
X0076954Y0046523D01*
X0077388Y0046089D01*
X0077388Y0044788D01*
X0078255Y0044788D02*
X0075653Y0044788D01*
X0075653Y0046089D01*
X0076087Y0046523D01*
X0077388Y0045655D02*
X0078255Y0046523D01*
X0078255Y0047735D02*
X0078255Y0049469D01*
X0078857Y0051505D02*
X0078857Y0045100D01*
X0116650Y0045100D02*
X0116650Y0051505D01*
X0119852Y0051505D01*
X0120920Y0050438D01*
X0120920Y0048303D01*
X0119852Y0047235D01*
X0116650Y0047235D01*
X0123095Y0046168D02*
X0124163Y0045100D01*
X0126298Y0045100D01*
X0127366Y0046168D01*
X0127366Y0048303D01*
X0126298Y0049370D01*
X0124163Y0049370D01*
X0123095Y0048303D01*
X0123095Y0046168D01*
X0129541Y0047235D02*
X0131676Y0049370D01*
X0132743Y0049370D01*
X0134912Y0049370D02*
X0137047Y0049370D01*
X0135980Y0050438D02*
X0135980Y0046168D01*
X0137047Y0045100D01*
X0145654Y0046168D02*
X0146722Y0045100D01*
X0148857Y0045100D01*
X0149925Y0046168D01*
X0149925Y0047235D01*
X0148857Y0048303D01*
X0147790Y0048303D01*
X0148857Y0048303D02*
X0149925Y0049370D01*
X0149925Y0050438D01*
X0148857Y0051505D01*
X0146722Y0051505D01*
X0145654Y0050438D01*
X0129541Y0049370D02*
X0129541Y0045100D01*
X0120877Y0069002D02*
X0120877Y0071604D01*
X0119576Y0070303D01*
X0121311Y0070303D01*
X0118364Y0069002D02*
X0116629Y0069002D01*
X0117497Y0069002D02*
X0117497Y0071604D01*
X0116629Y0070736D01*
X0115417Y0070303D02*
X0114984Y0069869D01*
X0113683Y0069869D01*
X0114550Y0069869D02*
X0115417Y0069002D01*
X0115417Y0070303D02*
X0115417Y0071170D01*
X0114984Y0071604D01*
X0113683Y0071604D01*
X0113683Y0069002D01*
X0104976Y0073923D02*
X0102373Y0073923D01*
X0102373Y0075225D01*
X0102807Y0075658D01*
X0104542Y0075658D01*
X0104976Y0075225D01*
X0104976Y0073923D01*
X0104976Y0076870D02*
X0104542Y0076870D01*
X0102807Y0078605D01*
X0102373Y0078605D01*
X0102373Y0076870D01*
X0102468Y0081762D02*
X0101600Y0082630D01*
X0102034Y0082630D02*
X0100733Y0082630D01*
X0100733Y0081762D02*
X0100733Y0084364D01*
X0102034Y0084364D01*
X0102468Y0083931D01*
X0102468Y0083063D01*
X0102034Y0082630D01*
X0103679Y0083497D02*
X0104547Y0084364D01*
X0104547Y0081762D01*
X0105414Y0081762D02*
X0103679Y0081762D01*
X0106626Y0082196D02*
X0107060Y0081762D01*
X0107927Y0081762D01*
X0108361Y0082196D01*
X0108361Y0083063D01*
X0107927Y0083497D01*
X0107493Y0083497D01*
X0106626Y0083063D01*
X0106626Y0084364D01*
X0108361Y0084364D01*
X0109086Y0091281D02*
X0109520Y0091715D01*
X0109520Y0092582D01*
X0109086Y0093016D01*
X0109520Y0094228D02*
X0109520Y0095962D01*
X0109520Y0095095D02*
X0106917Y0095095D01*
X0107785Y0094228D01*
X0107351Y0093016D02*
X0106917Y0092582D01*
X0106917Y0091715D01*
X0107351Y0091281D01*
X0109086Y0091281D01*
X0109086Y0097174D02*
X0109520Y0097608D01*
X0109520Y0098475D01*
X0109086Y0098909D01*
X0108219Y0098909D01*
X0107785Y0098475D01*
X0107785Y0098042D01*
X0108219Y0097174D01*
X0106917Y0097174D01*
X0106917Y0098909D01*
X0107351Y0107029D02*
X0109086Y0107029D01*
X0109520Y0107463D01*
X0109520Y0108330D01*
X0109086Y0108764D01*
X0109520Y0109976D02*
X0109520Y0111710D01*
X0109520Y0110843D02*
X0106917Y0110843D01*
X0107785Y0109976D01*
X0107351Y0108764D02*
X0106917Y0108330D01*
X0106917Y0107463D01*
X0107351Y0107029D01*
X0108219Y0112922D02*
X0108219Y0114657D01*
X0109520Y0114223D02*
X0106917Y0114223D01*
X0108219Y0112922D01*
X0103911Y0121920D02*
X0103044Y0121920D01*
X0102610Y0122353D01*
X0103478Y0123221D02*
X0103911Y0123221D01*
X0104345Y0122787D01*
X0104345Y0122353D01*
X0103911Y0121920D01*
X0103911Y0123221D02*
X0104345Y0123654D01*
X0104345Y0124088D01*
X0103911Y0124522D01*
X0103044Y0124522D01*
X0102610Y0124088D01*
X0100531Y0124522D02*
X0100531Y0121920D01*
X0099664Y0121920D02*
X0101398Y0121920D01*
X0099664Y0123654D02*
X0100531Y0124522D01*
X0098452Y0124088D02*
X0098018Y0124522D01*
X0097151Y0124522D01*
X0096717Y0124088D01*
X0096717Y0122353D01*
X0097151Y0121920D01*
X0098018Y0121920D01*
X0098452Y0122353D01*
X0102980Y0128683D02*
X0102980Y0129984D01*
X0103414Y0130417D01*
X0104282Y0130417D01*
X0104715Y0129984D01*
X0104715Y0128683D01*
X0104715Y0129550D02*
X0105583Y0130417D01*
X0105583Y0131629D02*
X0105583Y0133364D01*
X0105583Y0132497D02*
X0102980Y0132497D01*
X0103848Y0131629D01*
X0103414Y0134576D02*
X0102980Y0135009D01*
X0102980Y0135877D01*
X0103414Y0136311D01*
X0103848Y0136311D01*
X0105583Y0134576D01*
X0105583Y0136311D01*
X0102490Y0136431D02*
X0102056Y0135998D01*
X0101189Y0135998D01*
X0100755Y0136431D01*
X0101623Y0137299D02*
X0102056Y0137299D01*
X0102490Y0136865D01*
X0102490Y0136431D01*
X0102056Y0137299D02*
X0102490Y0137732D01*
X0102490Y0138166D01*
X0102056Y0138600D01*
X0101189Y0138600D01*
X0100755Y0138166D01*
X0099543Y0138600D02*
X0098676Y0138600D01*
X0099110Y0138600D02*
X0099110Y0136431D01*
X0098676Y0135998D01*
X0098242Y0135998D01*
X0097809Y0136431D01*
X0094616Y0137299D02*
X0092881Y0137299D01*
X0094182Y0138600D01*
X0094182Y0135998D01*
X0091236Y0136431D02*
X0091236Y0138600D01*
X0091669Y0138600D02*
X0090802Y0138600D01*
X0091236Y0136431D02*
X0090802Y0135998D01*
X0090368Y0135998D01*
X0089935Y0136431D01*
X0087866Y0135877D02*
X0087866Y0135009D01*
X0087432Y0134576D01*
X0086565Y0134576D01*
X0086565Y0135877D01*
X0086999Y0136311D01*
X0087432Y0136311D01*
X0087866Y0135877D01*
X0086565Y0134576D02*
X0085698Y0135443D01*
X0085264Y0136311D01*
X0087866Y0133364D02*
X0087866Y0131629D01*
X0087866Y0132497D02*
X0085264Y0132497D01*
X0086131Y0131629D01*
X0085698Y0130417D02*
X0086565Y0130417D01*
X0086999Y0129984D01*
X0086999Y0128683D01*
X0086999Y0129550D02*
X0087866Y0130417D01*
X0087866Y0128683D02*
X0085264Y0128683D01*
X0085264Y0129984D01*
X0085698Y0130417D01*
X0102980Y0128683D02*
X0105583Y0128683D01*
X0124276Y0136133D02*
X0124710Y0135699D01*
X0125577Y0135699D01*
X0126011Y0136133D01*
X0127223Y0135699D02*
X0128958Y0135699D01*
X0128090Y0135699D02*
X0128090Y0138301D01*
X0127223Y0137434D01*
X0126011Y0137868D02*
X0125577Y0138301D01*
X0124710Y0138301D01*
X0124276Y0137868D01*
X0124276Y0136133D01*
X0130169Y0135699D02*
X0131904Y0137434D01*
X0131904Y0137868D01*
X0131470Y0138301D01*
X0130603Y0138301D01*
X0130169Y0137868D01*
X0130169Y0135699D02*
X0131904Y0135699D01*
X0156130Y0135443D02*
X0158732Y0135443D01*
X0158732Y0134576D02*
X0158732Y0136311D01*
X0156997Y0134576D02*
X0156130Y0135443D01*
X0156130Y0132497D02*
X0158732Y0132497D01*
X0158732Y0133364D02*
X0158732Y0131629D01*
X0158732Y0130417D02*
X0157865Y0129550D01*
X0157865Y0129984D02*
X0157865Y0128683D01*
X0158732Y0128683D02*
X0156130Y0128683D01*
X0156130Y0129984D01*
X0156564Y0130417D01*
X0157431Y0130417D01*
X0157865Y0129984D01*
X0156997Y0131629D02*
X0156130Y0132497D01*
X0170643Y0136431D02*
X0171077Y0135998D01*
X0171511Y0135998D01*
X0171944Y0136431D01*
X0171944Y0138600D01*
X0171511Y0138600D02*
X0172378Y0138600D01*
X0173590Y0138166D02*
X0174024Y0138600D01*
X0174891Y0138600D01*
X0175325Y0138166D01*
X0175325Y0137732D01*
X0173590Y0135998D01*
X0175325Y0135998D01*
X0174280Y0135333D02*
X0176015Y0133598D01*
X0176449Y0133598D01*
X0176449Y0132386D02*
X0175581Y0131519D01*
X0175581Y0131952D02*
X0175581Y0130651D01*
X0176449Y0130651D02*
X0173847Y0130651D01*
X0173847Y0131952D01*
X0174280Y0132386D01*
X0175148Y0132386D01*
X0175581Y0131952D01*
X0173847Y0133598D02*
X0173847Y0135333D01*
X0174280Y0135333D01*
X0196120Y0136133D02*
X0196554Y0135699D01*
X0197421Y0135699D01*
X0197855Y0136133D01*
X0199067Y0136133D02*
X0200802Y0137868D01*
X0200802Y0138301D01*
X0199067Y0138301D01*
X0197855Y0137868D02*
X0197421Y0138301D01*
X0196554Y0138301D01*
X0196120Y0137868D01*
X0196120Y0136133D01*
X0199067Y0136133D02*
X0199067Y0135699D01*
X0228965Y0135333D02*
X0229398Y0134465D01*
X0230266Y0133598D01*
X0230266Y0134899D01*
X0230700Y0135333D01*
X0231133Y0135333D01*
X0231567Y0134899D01*
X0231567Y0134031D01*
X0231133Y0133598D01*
X0230266Y0133598D01*
X0230266Y0132386D02*
X0230700Y0131952D01*
X0230700Y0130651D01*
X0231567Y0130651D02*
X0228965Y0130651D01*
X0228965Y0131952D01*
X0229398Y0132386D01*
X0230266Y0132386D01*
X0230700Y0131519D02*
X0231567Y0132386D01*
X0241509Y0136431D02*
X0241943Y0135998D01*
X0242377Y0135998D01*
X0242811Y0136431D01*
X0242811Y0138600D01*
X0243244Y0138600D02*
X0242377Y0138600D01*
X0244456Y0137732D02*
X0245323Y0138600D01*
X0245323Y0135998D01*
X0244456Y0135998D02*
X0246191Y0135998D01*
X0245812Y0135093D02*
X0245378Y0135093D01*
X0244944Y0134659D01*
X0244944Y0133792D01*
X0245378Y0133358D01*
X0245378Y0132146D02*
X0246245Y0132146D01*
X0246679Y0131713D01*
X0246679Y0130412D01*
X0246679Y0131279D02*
X0247546Y0132146D01*
X0247546Y0133358D02*
X0245812Y0135093D01*
X0247546Y0135093D02*
X0247546Y0133358D01*
X0245378Y0132146D02*
X0244944Y0131713D01*
X0244944Y0130412D01*
X0247546Y0130412D01*
X0247113Y0127219D02*
X0247546Y0126785D01*
X0247546Y0125918D01*
X0247113Y0125484D01*
X0247113Y0124272D02*
X0247546Y0123839D01*
X0247546Y0122971D01*
X0247113Y0122538D01*
X0245378Y0122538D01*
X0244944Y0122971D01*
X0244944Y0123839D01*
X0245378Y0124272D01*
X0245378Y0125484D02*
X0244944Y0125918D01*
X0244944Y0126785D01*
X0245378Y0127219D01*
X0245812Y0127219D01*
X0246245Y0126785D01*
X0246679Y0127219D01*
X0247113Y0127219D01*
X0246245Y0126785D02*
X0246245Y0126352D01*
X0266986Y0136133D02*
X0267420Y0135699D01*
X0268288Y0135699D01*
X0268721Y0136133D01*
X0269933Y0135699D02*
X0271668Y0137434D01*
X0271668Y0137868D01*
X0271234Y0138301D01*
X0270367Y0138301D01*
X0269933Y0137868D01*
X0268721Y0137868D02*
X0268288Y0138301D01*
X0267420Y0138301D01*
X0266986Y0137868D01*
X0266986Y0136133D01*
X0269933Y0135699D02*
X0271668Y0135699D01*
X0297862Y0134465D02*
X0300465Y0134465D01*
X0300465Y0133598D02*
X0300465Y0135333D01*
X0298730Y0133598D02*
X0297862Y0134465D01*
X0298296Y0132386D02*
X0299163Y0132386D01*
X0299597Y0131952D01*
X0299597Y0130651D01*
X0300465Y0130651D02*
X0297862Y0130651D01*
X0297862Y0131952D01*
X0298296Y0132386D01*
X0299597Y0131519D02*
X0300465Y0132386D01*
X0287006Y0111923D02*
X0287006Y0110188D01*
X0285271Y0111923D01*
X0284837Y0111923D01*
X0284403Y0111489D01*
X0284403Y0110622D01*
X0284837Y0110188D01*
X0284403Y0108976D02*
X0286572Y0108976D01*
X0287006Y0108543D01*
X0287006Y0107675D01*
X0286572Y0107242D01*
X0284403Y0107242D01*
X0288640Y0108574D02*
X0288640Y0110309D01*
X0289074Y0110742D01*
X0289941Y0110742D01*
X0290375Y0110309D01*
X0291587Y0109875D02*
X0292454Y0110742D01*
X0292454Y0108140D01*
X0291587Y0108140D02*
X0293321Y0108140D01*
X0290375Y0108574D02*
X0289941Y0108140D01*
X0289074Y0108140D01*
X0288640Y0108574D01*
X0251252Y0108330D02*
X0250818Y0108764D01*
X0251252Y0108330D02*
X0251252Y0107463D01*
X0250818Y0107029D01*
X0249083Y0107029D01*
X0248650Y0107463D01*
X0248650Y0108330D01*
X0249083Y0108764D01*
X0249951Y0109976D02*
X0249951Y0111710D01*
X0251252Y0111277D02*
X0248650Y0111277D01*
X0249951Y0109976D01*
X0224424Y0110742D02*
X0223556Y0110309D01*
X0222689Y0109441D01*
X0223990Y0109441D01*
X0224424Y0109008D01*
X0224424Y0108574D01*
X0223990Y0108140D01*
X0223123Y0108140D01*
X0222689Y0108574D01*
X0222689Y0109441D01*
X0221477Y0108574D02*
X0221044Y0108140D01*
X0220176Y0108140D01*
X0219742Y0108574D01*
X0219742Y0110309D01*
X0220176Y0110742D01*
X0221044Y0110742D01*
X0221477Y0110309D01*
X0216139Y0110188D02*
X0216139Y0111923D01*
X0216139Y0111056D02*
X0213537Y0111056D01*
X0214405Y0110188D01*
X0213537Y0108976D02*
X0215706Y0108976D01*
X0216139Y0108543D01*
X0216139Y0107675D01*
X0215706Y0107242D01*
X0213537Y0107242D01*
X0180386Y0107463D02*
X0179952Y0107029D01*
X0178217Y0107029D01*
X0177784Y0107463D01*
X0177784Y0108330D01*
X0178217Y0108764D01*
X0178217Y0109976D02*
X0177784Y0110409D01*
X0177784Y0111277D01*
X0178217Y0111710D01*
X0179952Y0111710D01*
X0180386Y0111277D01*
X0180386Y0110409D01*
X0179952Y0109976D01*
X0179085Y0110409D02*
X0179085Y0111710D01*
X0179085Y0110409D02*
X0178651Y0109976D01*
X0178217Y0109976D01*
X0179952Y0108764D02*
X0180386Y0108330D01*
X0180386Y0107463D01*
X0180031Y0099618D02*
X0180465Y0099184D01*
X0180465Y0098316D01*
X0180031Y0097883D01*
X0178296Y0099618D01*
X0180031Y0099618D01*
X0178296Y0099618D02*
X0177862Y0099184D01*
X0177862Y0098316D01*
X0178296Y0097883D01*
X0180031Y0097883D01*
X0180465Y0096671D02*
X0180465Y0094936D01*
X0180465Y0095804D02*
X0177862Y0095804D01*
X0178730Y0094936D01*
X0178296Y0093725D02*
X0177862Y0093291D01*
X0177862Y0092423D01*
X0178296Y0091990D01*
X0180031Y0091990D01*
X0180465Y0092423D01*
X0180465Y0093291D01*
X0180031Y0093725D01*
X0178714Y0085152D02*
X0177847Y0085152D01*
X0177413Y0084718D01*
X0177413Y0082983D01*
X0179148Y0084718D01*
X0179148Y0082983D01*
X0178714Y0082550D01*
X0177847Y0082550D01*
X0177413Y0082983D01*
X0176202Y0082550D02*
X0174467Y0082550D01*
X0175334Y0082550D02*
X0175334Y0085152D01*
X0174467Y0084284D01*
X0173255Y0083851D02*
X0172821Y0083417D01*
X0171520Y0083417D01*
X0171520Y0082550D02*
X0171520Y0085152D01*
X0172821Y0085152D01*
X0173255Y0084718D01*
X0173255Y0083851D01*
X0172388Y0083417D02*
X0173255Y0082550D01*
X0178714Y0085152D02*
X0179148Y0084718D01*
X0177180Y0078092D02*
X0174578Y0078092D01*
X0175879Y0076791D01*
X0175879Y0078526D01*
X0175012Y0075580D02*
X0174578Y0075146D01*
X0174578Y0073845D01*
X0177180Y0073845D01*
X0177180Y0075146D01*
X0176747Y0075580D01*
X0175012Y0075580D01*
X0184549Y0071604D02*
X0185850Y0071604D01*
X0186284Y0071170D01*
X0186284Y0070303D01*
X0185850Y0069869D01*
X0184549Y0069869D01*
X0185416Y0069869D02*
X0186284Y0069002D01*
X0187495Y0069435D02*
X0187929Y0069002D01*
X0188796Y0069002D01*
X0189230Y0069435D01*
X0189230Y0071170D01*
X0188796Y0071604D01*
X0187929Y0071604D01*
X0187495Y0071170D01*
X0187495Y0070736D01*
X0187929Y0070303D01*
X0189230Y0070303D01*
X0193872Y0071470D02*
X0193872Y0074072D01*
X0195173Y0074072D01*
X0195606Y0073639D01*
X0195606Y0071904D01*
X0195173Y0071470D01*
X0193872Y0071470D01*
X0196818Y0071904D02*
X0197252Y0071470D01*
X0198119Y0071470D01*
X0198553Y0071904D01*
X0198553Y0072771D01*
X0198119Y0073205D01*
X0197686Y0073205D01*
X0196818Y0072771D01*
X0196818Y0074072D01*
X0198553Y0074072D01*
X0207651Y0074072D02*
X0207651Y0071470D01*
X0208952Y0071470D01*
X0209386Y0071904D01*
X0209386Y0073639D01*
X0208952Y0074072D01*
X0207651Y0074072D01*
X0210598Y0072771D02*
X0210598Y0071904D01*
X0211031Y0071470D01*
X0211899Y0071470D01*
X0212333Y0071904D01*
X0212333Y0072337D01*
X0211899Y0072771D01*
X0210598Y0072771D01*
X0211465Y0073639D01*
X0212333Y0074072D01*
X0216045Y0071604D02*
X0217346Y0071604D01*
X0217780Y0071170D01*
X0217780Y0070303D01*
X0217346Y0069869D01*
X0216045Y0069869D01*
X0216912Y0069869D02*
X0217780Y0069002D01*
X0218991Y0069435D02*
X0218991Y0069869D01*
X0219425Y0070303D01*
X0220293Y0070303D01*
X0220726Y0069869D01*
X0220726Y0069435D01*
X0220293Y0069002D01*
X0219425Y0069002D01*
X0218991Y0069435D01*
X0219425Y0070303D02*
X0218991Y0070736D01*
X0218991Y0071170D01*
X0219425Y0071604D01*
X0220293Y0071604D01*
X0220726Y0071170D01*
X0220726Y0070736D01*
X0220293Y0070303D01*
X0216045Y0069002D02*
X0216045Y0071604D01*
X0247413Y0073845D02*
X0247413Y0075146D01*
X0247846Y0075580D01*
X0249581Y0075580D01*
X0250015Y0075146D01*
X0250015Y0073845D01*
X0247413Y0073845D01*
X0248280Y0076791D02*
X0247413Y0077659D01*
X0250015Y0077659D01*
X0250015Y0078526D02*
X0250015Y0076791D01*
X0257383Y0071604D02*
X0258685Y0071604D01*
X0259118Y0071170D01*
X0259118Y0070303D01*
X0258685Y0069869D01*
X0257383Y0069869D01*
X0257383Y0069002D02*
X0257383Y0071604D01*
X0258251Y0069869D02*
X0259118Y0069002D01*
X0260330Y0070303D02*
X0262065Y0070303D01*
X0261631Y0069002D02*
X0261631Y0071604D01*
X0260330Y0070303D01*
X0264738Y0071470D02*
X0264738Y0074072D01*
X0266039Y0074072D01*
X0266473Y0073639D01*
X0266473Y0071904D01*
X0266039Y0071470D01*
X0264738Y0071470D01*
X0267684Y0071470D02*
X0269419Y0073205D01*
X0269419Y0073639D01*
X0268985Y0074072D01*
X0268118Y0074072D01*
X0267684Y0073639D01*
X0267684Y0071470D02*
X0269419Y0071470D01*
X0278517Y0071470D02*
X0279818Y0071470D01*
X0280252Y0071904D01*
X0280252Y0073639D01*
X0279818Y0074072D01*
X0278517Y0074072D01*
X0278517Y0071470D01*
X0281464Y0071904D02*
X0281898Y0071470D01*
X0282765Y0071470D01*
X0283199Y0071904D01*
X0283199Y0072337D01*
X0282765Y0072771D01*
X0282331Y0072771D01*
X0282765Y0072771D02*
X0283199Y0073205D01*
X0283199Y0073639D01*
X0282765Y0074072D01*
X0281898Y0074072D01*
X0281464Y0073639D01*
X0286911Y0071604D02*
X0288212Y0071604D01*
X0288646Y0071170D01*
X0288646Y0070303D01*
X0288212Y0069869D01*
X0286911Y0069869D01*
X0287778Y0069869D02*
X0288646Y0069002D01*
X0289858Y0069435D02*
X0290291Y0069002D01*
X0291159Y0069002D01*
X0291592Y0069435D01*
X0291592Y0069869D01*
X0291159Y0070303D01*
X0290725Y0070303D01*
X0291159Y0070303D02*
X0291592Y0070736D01*
X0291592Y0071170D01*
X0291159Y0071604D01*
X0290291Y0071604D01*
X0289858Y0071170D01*
X0286911Y0071604D02*
X0286911Y0069002D01*
X0270701Y0081911D02*
X0268099Y0081911D01*
X0268099Y0083212D01*
X0268532Y0083646D01*
X0269400Y0083646D01*
X0269833Y0083212D01*
X0269833Y0081911D01*
X0269833Y0082778D02*
X0270701Y0083646D01*
X0270267Y0084858D02*
X0270701Y0085291D01*
X0270701Y0086159D01*
X0270267Y0086592D01*
X0269400Y0086592D01*
X0268966Y0086159D01*
X0268966Y0085725D01*
X0269400Y0084858D01*
X0268099Y0084858D01*
X0268099Y0086592D01*
X0251252Y0091715D02*
X0251252Y0092582D01*
X0250818Y0093016D01*
X0250818Y0094228D02*
X0251252Y0094661D01*
X0251252Y0095529D01*
X0250818Y0095962D01*
X0249951Y0095962D01*
X0249517Y0095529D01*
X0249517Y0095095D01*
X0249951Y0094228D01*
X0248650Y0094228D01*
X0248650Y0095962D01*
X0249083Y0093016D02*
X0248650Y0092582D01*
X0248650Y0091715D01*
X0249083Y0091281D01*
X0250818Y0091281D01*
X0251252Y0091715D01*
X0184549Y0071604D02*
X0184549Y0069002D01*
X0152807Y0069435D02*
X0152373Y0069002D01*
X0151505Y0069002D01*
X0151072Y0069435D01*
X0151939Y0070303D02*
X0152373Y0070303D01*
X0152807Y0069869D01*
X0152807Y0069435D01*
X0152373Y0070303D02*
X0152807Y0070736D01*
X0152807Y0071170D01*
X0152373Y0071604D01*
X0151505Y0071604D01*
X0151072Y0071170D01*
X0148993Y0071604D02*
X0148993Y0069002D01*
X0149860Y0069002D02*
X0148125Y0069002D01*
X0146914Y0069002D02*
X0146046Y0069869D01*
X0146480Y0069869D02*
X0145179Y0069869D01*
X0145179Y0069002D02*
X0145179Y0071604D01*
X0146480Y0071604D01*
X0146914Y0071170D01*
X0146914Y0070303D01*
X0146480Y0069869D01*
X0148125Y0070736D02*
X0148993Y0071604D01*
X0141466Y0071904D02*
X0141466Y0073639D01*
X0141033Y0074072D01*
X0140165Y0074072D01*
X0139732Y0073639D01*
X0139732Y0073205D01*
X0140165Y0072771D01*
X0141466Y0072771D01*
X0141466Y0071904D02*
X0141033Y0071470D01*
X0140165Y0071470D01*
X0139732Y0071904D01*
X0138520Y0071904D02*
X0138520Y0073639D01*
X0138086Y0074072D01*
X0136785Y0074072D01*
X0136785Y0071470D01*
X0138086Y0071470D01*
X0138520Y0071904D01*
X0129655Y0071904D02*
X0129222Y0071470D01*
X0128354Y0071470D01*
X0127921Y0071904D01*
X0127921Y0072337D01*
X0128354Y0072771D01*
X0129222Y0072771D01*
X0129655Y0072337D01*
X0129655Y0071904D01*
X0129222Y0072771D02*
X0129655Y0073205D01*
X0129655Y0073639D01*
X0129222Y0074072D01*
X0128354Y0074072D01*
X0127921Y0073639D01*
X0127921Y0073205D01*
X0128354Y0072771D01*
X0126709Y0071904D02*
X0126709Y0073639D01*
X0126275Y0074072D01*
X0124974Y0074072D01*
X0124974Y0071470D01*
X0126275Y0071470D01*
X0126709Y0071904D01*
X0073547Y0071470D02*
X0071812Y0071470D01*
X0073547Y0073205D01*
X0073547Y0073639D01*
X0073113Y0074072D01*
X0072246Y0074072D01*
X0071812Y0073639D01*
X0069733Y0074072D02*
X0069733Y0071470D01*
X0070600Y0071470D02*
X0068865Y0071470D01*
X0067654Y0071904D02*
X0067654Y0073639D01*
X0067220Y0074072D01*
X0065919Y0074072D01*
X0065919Y0071470D01*
X0067220Y0071470D01*
X0067654Y0071904D01*
X0068865Y0073205D02*
X0069733Y0074072D01*
X0061736Y0071470D02*
X0060001Y0071470D01*
X0060868Y0071470D02*
X0060868Y0074072D01*
X0060001Y0073205D01*
X0058789Y0071470D02*
X0057054Y0071470D01*
X0057922Y0071470D02*
X0057922Y0074072D01*
X0057054Y0073205D01*
X0055843Y0073639D02*
X0055409Y0074072D01*
X0054108Y0074072D01*
X0054108Y0071470D01*
X0055409Y0071470D01*
X0055843Y0071904D01*
X0055843Y0073639D01*
X0036185Y0073045D02*
X0036185Y0074346D01*
X0035751Y0074780D01*
X0034017Y0074780D01*
X0033583Y0074346D01*
X0033583Y0073045D01*
X0036185Y0073045D01*
X0036185Y0075991D02*
X0036185Y0077726D01*
X0036185Y0076859D02*
X0033583Y0076859D01*
X0034450Y0075991D01*
X0034017Y0078938D02*
X0033583Y0079372D01*
X0033583Y0080239D01*
X0034017Y0080673D01*
X0035751Y0078938D01*
X0036185Y0079372D01*
X0036185Y0080239D01*
X0035751Y0080673D01*
X0034017Y0080673D01*
X0034017Y0078938D02*
X0035751Y0078938D01*
X0036115Y0082550D02*
X0035681Y0082983D01*
X0037416Y0084718D01*
X0037416Y0082983D01*
X0036982Y0082550D01*
X0036115Y0082550D01*
X0035681Y0082983D02*
X0035681Y0084718D01*
X0036115Y0085152D01*
X0036982Y0085152D01*
X0037416Y0084718D01*
X0034469Y0084718D02*
X0034036Y0085152D01*
X0033168Y0085152D01*
X0032735Y0084718D01*
X0031523Y0084718D02*
X0031523Y0083851D01*
X0031089Y0083417D01*
X0029788Y0083417D01*
X0030655Y0083417D02*
X0031523Y0082550D01*
X0032735Y0082550D02*
X0034469Y0084284D01*
X0034469Y0084718D01*
X0034469Y0082550D02*
X0032735Y0082550D01*
X0031523Y0084718D02*
X0031089Y0085152D01*
X0029788Y0085152D01*
X0029788Y0082550D01*
X0036485Y0091281D02*
X0038220Y0091281D01*
X0038654Y0091715D01*
X0038654Y0092582D01*
X0038220Y0093016D01*
X0038654Y0094228D02*
X0036919Y0095962D01*
X0036485Y0095962D01*
X0036051Y0095529D01*
X0036051Y0094661D01*
X0036485Y0094228D01*
X0036485Y0093016D02*
X0036051Y0092582D01*
X0036051Y0091715D01*
X0036485Y0091281D01*
X0038654Y0094228D02*
X0038654Y0095962D01*
X0038220Y0097174D02*
X0036485Y0097174D01*
X0036051Y0097608D01*
X0036051Y0098475D01*
X0036485Y0098909D01*
X0038220Y0097174D01*
X0038654Y0097608D01*
X0038654Y0098475D01*
X0038220Y0098909D01*
X0036485Y0098909D01*
X0036717Y0105812D02*
X0036283Y0106245D01*
X0036283Y0107113D01*
X0036717Y0107546D01*
X0037150Y0108758D02*
X0036283Y0109626D01*
X0038885Y0109626D01*
X0038885Y0110493D02*
X0038885Y0108758D01*
X0038451Y0107546D02*
X0038885Y0107113D01*
X0038885Y0106245D01*
X0038451Y0105812D01*
X0036717Y0105812D01*
X0036717Y0111705D02*
X0036283Y0112138D01*
X0036283Y0113006D01*
X0036717Y0113439D01*
X0038451Y0113439D01*
X0038885Y0113006D01*
X0038885Y0112138D01*
X0038451Y0111705D01*
X0037584Y0112138D02*
X0037584Y0113439D01*
X0037584Y0112138D02*
X0037150Y0111705D01*
X0036717Y0111705D01*
X0050062Y0120025D02*
X0050496Y0119591D01*
X0052231Y0119591D01*
X0052665Y0120025D01*
X0052665Y0120892D01*
X0052231Y0121326D01*
X0052665Y0122538D02*
X0052665Y0124272D01*
X0052665Y0123405D02*
X0050062Y0123405D01*
X0050930Y0122538D01*
X0050496Y0121326D02*
X0050062Y0120892D01*
X0050062Y0120025D01*
X0050496Y0125484D02*
X0050930Y0125484D01*
X0051363Y0125918D01*
X0051363Y0126785D01*
X0051797Y0127219D01*
X0052231Y0127219D01*
X0052665Y0126785D01*
X0052665Y0125918D01*
X0052231Y0125484D01*
X0051797Y0125484D01*
X0051363Y0125918D01*
X0051363Y0126785D02*
X0050930Y0127219D01*
X0050496Y0127219D01*
X0050062Y0126785D01*
X0050062Y0125918D01*
X0050496Y0125484D01*
X0053844Y0135699D02*
X0054711Y0135699D01*
X0055145Y0136133D01*
X0056357Y0135699D02*
X0058091Y0135699D01*
X0057224Y0135699D02*
X0057224Y0138301D01*
X0056357Y0137434D01*
X0055145Y0137868D02*
X0054711Y0138301D01*
X0053844Y0138301D01*
X0053410Y0137868D01*
X0053410Y0136133D01*
X0053844Y0135699D01*
X0059303Y0135699D02*
X0059303Y0136133D01*
X0061038Y0137868D01*
X0061038Y0138301D01*
X0059303Y0138301D01*
X0044539Y0138099D02*
X0042804Y0136364D01*
X0042804Y0135931D01*
X0041592Y0135931D02*
X0039858Y0135931D01*
X0040725Y0135931D02*
X0040725Y0138533D01*
X0039858Y0137666D01*
X0038646Y0138099D02*
X0038646Y0137232D01*
X0038212Y0136798D01*
X0036911Y0136798D01*
X0036911Y0135931D02*
X0036911Y0138533D01*
X0038212Y0138533D01*
X0038646Y0138099D01*
X0037778Y0136798D02*
X0038646Y0135931D01*
X0042804Y0138533D02*
X0044539Y0138533D01*
X0044539Y0138099D01*
X0071805Y0111489D02*
X0073106Y0110188D01*
X0073106Y0111923D01*
X0074407Y0111489D02*
X0071805Y0111489D01*
X0075064Y0110309D02*
X0075064Y0108574D01*
X0075497Y0108140D01*
X0076365Y0108140D01*
X0076798Y0108574D01*
X0078010Y0108140D02*
X0079745Y0108140D01*
X0078878Y0108140D02*
X0078878Y0110742D01*
X0078010Y0109875D01*
X0076798Y0110309D02*
X0076365Y0110742D01*
X0075497Y0110742D01*
X0075064Y0110309D01*
X0073973Y0108976D02*
X0071805Y0108976D01*
X0071805Y0107242D02*
X0073973Y0107242D01*
X0074407Y0107675D01*
X0074407Y0108543D01*
X0073973Y0108976D01*
X0080957Y0108574D02*
X0080957Y0109441D01*
X0082258Y0109441D01*
X0082691Y0109008D01*
X0082691Y0108574D01*
X0082258Y0108140D01*
X0081390Y0108140D01*
X0080957Y0108574D01*
X0080957Y0109441D02*
X0081824Y0110309D01*
X0082691Y0110742D01*
X0142671Y0110622D02*
X0142671Y0111489D01*
X0143105Y0111923D01*
X0143538Y0111923D01*
X0143972Y0111489D01*
X0144406Y0111923D01*
X0144840Y0111923D01*
X0145273Y0111489D01*
X0145273Y0110622D01*
X0144840Y0110188D01*
X0145930Y0110309D02*
X0145930Y0108574D01*
X0146363Y0108140D01*
X0147231Y0108140D01*
X0147665Y0108574D01*
X0148876Y0108140D02*
X0150611Y0108140D01*
X0149744Y0108140D02*
X0149744Y0110742D01*
X0148876Y0109875D01*
X0147665Y0110309D02*
X0147231Y0110742D01*
X0146363Y0110742D01*
X0145930Y0110309D01*
X0144840Y0108976D02*
X0142671Y0108976D01*
X0143105Y0110188D02*
X0142671Y0110622D01*
X0143972Y0111056D02*
X0143972Y0111489D01*
X0151823Y0109875D02*
X0152690Y0110742D01*
X0152690Y0108140D01*
X0151823Y0108140D02*
X0153558Y0108140D01*
X0145273Y0108543D02*
X0144840Y0108976D01*
X0145273Y0108543D02*
X0145273Y0107675D01*
X0144840Y0107242D01*
X0142671Y0107242D01*
X0170530Y0122353D02*
X0170963Y0121920D01*
X0171831Y0121920D01*
X0172265Y0122353D01*
X0173476Y0122353D02*
X0173476Y0122787D01*
X0173910Y0123221D01*
X0174777Y0123221D01*
X0175211Y0122787D01*
X0175211Y0122353D01*
X0174777Y0121920D01*
X0173910Y0121920D01*
X0173476Y0122353D01*
X0173910Y0123221D02*
X0173476Y0123654D01*
X0173476Y0124088D01*
X0173910Y0124522D01*
X0174777Y0124522D01*
X0175211Y0124088D01*
X0175211Y0123654D01*
X0174777Y0123221D01*
X0172265Y0124088D02*
X0171831Y0124522D01*
X0170963Y0124522D01*
X0170530Y0124088D01*
X0170530Y0122353D01*
X0186650Y0051505D02*
X0189852Y0051505D01*
X0190920Y0050438D01*
X0190920Y0048303D01*
X0189852Y0047235D01*
X0186650Y0047235D01*
X0186650Y0045100D02*
X0186650Y0051505D01*
X0193095Y0048303D02*
X0193095Y0046168D01*
X0194163Y0045100D01*
X0196298Y0045100D01*
X0197366Y0046168D01*
X0197366Y0048303D01*
X0196298Y0049370D01*
X0194163Y0049370D01*
X0193095Y0048303D01*
X0199541Y0049370D02*
X0199541Y0045100D01*
X0199541Y0047235D02*
X0201676Y0049370D01*
X0202743Y0049370D01*
X0204912Y0049370D02*
X0207047Y0049370D01*
X0205980Y0050438D02*
X0205980Y0046168D01*
X0207047Y0045100D01*
X0215654Y0045100D02*
X0219925Y0049370D01*
X0219925Y0050438D01*
X0218857Y0051505D01*
X0216722Y0051505D01*
X0215654Y0050438D01*
X0215654Y0045100D02*
X0219925Y0045100D01*
X0256650Y0045100D02*
X0256650Y0051505D01*
X0259852Y0051505D01*
X0260920Y0050438D01*
X0260920Y0048303D01*
X0259852Y0047235D01*
X0256650Y0047235D01*
X0263095Y0046168D02*
X0264163Y0045100D01*
X0266298Y0045100D01*
X0267366Y0046168D01*
X0267366Y0048303D01*
X0266298Y0049370D01*
X0264163Y0049370D01*
X0263095Y0048303D01*
X0263095Y0046168D01*
X0269541Y0047235D02*
X0271676Y0049370D01*
X0272743Y0049370D01*
X0274912Y0049370D02*
X0277047Y0049370D01*
X0275980Y0050438D02*
X0275980Y0046168D01*
X0277047Y0045100D01*
X0269541Y0045100D02*
X0269541Y0049370D01*
X0285654Y0049370D02*
X0287790Y0051505D01*
X0287790Y0045100D01*
X0289925Y0045100D02*
X0285654Y0045100D01*
X0425845Y0054013D02*
X0425845Y0058284D01*
X0425845Y0056149D02*
X0432250Y0056149D01*
X0436800Y0059300D02*
X0439300Y0056800D01*
X0444300Y0056800D01*
X0446800Y0059300D01*
X0449300Y0056800D01*
X0454300Y0056800D01*
X0456800Y0059300D01*
X0456800Y0064300D01*
X0454300Y0066800D01*
X0449300Y0066800D01*
X0446800Y0064300D01*
X0446800Y0059300D01*
X0446800Y0064300D02*
X0444300Y0066800D01*
X0439300Y0066800D01*
X0436800Y0064300D01*
X0436800Y0059300D01*
X0432250Y0061527D02*
X0431182Y0060459D01*
X0429047Y0060459D01*
X0427980Y0061527D01*
X0427980Y0063662D01*
X0429047Y0064729D01*
X0431182Y0064729D01*
X0432250Y0063662D01*
X0432250Y0061527D01*
X0432250Y0066904D02*
X0432250Y0070107D01*
X0431182Y0071175D01*
X0429047Y0071175D01*
X0427980Y0070107D01*
X0427980Y0066904D01*
X0434385Y0066904D01*
X0438845Y0073350D02*
X0443115Y0073350D01*
X0445250Y0075485D01*
X0443115Y0077620D01*
X0438845Y0077620D01*
X0439912Y0079795D02*
X0438845Y0080863D01*
X0438845Y0082998D01*
X0439912Y0084066D01*
X0439912Y0086241D02*
X0438845Y0087309D01*
X0438845Y0089444D01*
X0439912Y0090511D01*
X0444182Y0090511D02*
X0445250Y0089444D01*
X0445250Y0087309D01*
X0444182Y0086241D01*
X0439912Y0086241D01*
X0444182Y0084066D02*
X0445250Y0082998D01*
X0445250Y0080863D01*
X0444182Y0079795D01*
X0439912Y0079795D01*
X0448845Y0079795D02*
X0455250Y0084066D01*
X0448845Y0084066D01*
X0448845Y0086241D02*
X0448845Y0089444D01*
X0449912Y0090511D01*
X0454182Y0090511D01*
X0455250Y0089444D01*
X0455250Y0086241D01*
X0448845Y0086241D01*
X0458845Y0086241D02*
X0465250Y0086241D01*
X0465250Y0090511D01*
X0468845Y0088376D02*
X0470980Y0090511D01*
X0475250Y0090511D01*
X0472047Y0090511D02*
X0472047Y0086241D01*
X0470980Y0086241D02*
X0475250Y0086241D01*
X0474182Y0084066D02*
X0469912Y0084066D01*
X0468845Y0082998D01*
X0468845Y0079795D01*
X0475250Y0079795D01*
X0475250Y0082998D01*
X0474182Y0084066D01*
X0470980Y0086241D02*
X0468845Y0088376D01*
X0464182Y0084066D02*
X0465250Y0082998D01*
X0465250Y0080863D01*
X0464182Y0079795D01*
X0459912Y0079795D01*
X0458845Y0080863D01*
X0458845Y0082998D01*
X0459912Y0084066D01*
X0455250Y0079795D02*
X0448845Y0079795D01*
X0449912Y0077620D02*
X0448845Y0076553D01*
X0448845Y0074418D01*
X0449912Y0073350D01*
X0454182Y0073350D01*
X0455250Y0074418D01*
X0455250Y0076553D01*
X0454182Y0077620D01*
X0452047Y0077620D01*
X0452047Y0075485D01*
X0458845Y0074418D02*
X0459912Y0073350D01*
X0460980Y0073350D01*
X0462047Y0074418D01*
X0462047Y0076553D01*
X0463115Y0077620D01*
X0464182Y0077620D01*
X0465250Y0076553D01*
X0465250Y0074418D01*
X0464182Y0073350D01*
X0468845Y0074418D02*
X0469912Y0073350D01*
X0470980Y0073350D01*
X0472047Y0074418D01*
X0472047Y0076553D01*
X0473115Y0077620D01*
X0474182Y0077620D01*
X0475250Y0076553D01*
X0475250Y0074418D01*
X0474182Y0073350D01*
X0478845Y0074418D02*
X0479912Y0073350D01*
X0480980Y0073350D01*
X0482047Y0074418D01*
X0482047Y0076553D01*
X0483115Y0077620D01*
X0484182Y0077620D01*
X0485250Y0076553D01*
X0485250Y0074418D01*
X0484182Y0073350D01*
X0488845Y0074418D02*
X0489912Y0073350D01*
X0494182Y0073350D01*
X0495250Y0074418D01*
X0495250Y0076553D01*
X0494182Y0077620D01*
X0494182Y0079795D02*
X0495250Y0080863D01*
X0495250Y0082998D01*
X0494182Y0084066D01*
X0493115Y0084066D01*
X0492047Y0082998D01*
X0492047Y0080863D01*
X0490980Y0079795D01*
X0489912Y0079795D01*
X0488845Y0080863D01*
X0488845Y0082998D01*
X0489912Y0084066D01*
X0485250Y0082998D02*
X0484182Y0084066D01*
X0479912Y0084066D01*
X0478845Y0082998D01*
X0478845Y0079795D01*
X0485250Y0079795D01*
X0485250Y0082998D01*
X0484182Y0086241D02*
X0479912Y0086241D01*
X0478845Y0087309D01*
X0478845Y0089444D01*
X0479912Y0090511D01*
X0484182Y0090511D01*
X0485250Y0089444D01*
X0485250Y0087309D01*
X0484182Y0086241D01*
X0479912Y0077620D02*
X0478845Y0076553D01*
X0478845Y0074418D01*
X0469912Y0077620D02*
X0468845Y0076553D01*
X0468845Y0074418D01*
X0459912Y0077620D02*
X0458845Y0076553D01*
X0458845Y0074418D01*
X0459300Y0066800D02*
X0464300Y0066800D01*
X0466800Y0064300D01*
X0469300Y0066800D01*
X0474300Y0066800D01*
X0476800Y0064300D01*
X0479300Y0066800D01*
X0484300Y0066800D01*
X0486800Y0064300D01*
X0489300Y0066800D01*
X0494300Y0066800D01*
X0496800Y0064300D01*
X0496800Y0059300D01*
X0494300Y0056800D01*
X0489300Y0056800D01*
X0486800Y0059300D01*
X0484300Y0056800D01*
X0479300Y0056800D01*
X0476800Y0059300D01*
X0474300Y0056800D01*
X0469300Y0056800D01*
X0466800Y0059300D01*
X0464300Y0056800D01*
X0459300Y0056800D01*
X0456800Y0059300D01*
X0456800Y0064300D02*
X0459300Y0066800D01*
X0466800Y0064300D02*
X0466800Y0059300D01*
X0476800Y0059300D02*
X0476800Y0064300D01*
X0486800Y0064300D02*
X0486800Y0059300D01*
X0488845Y0074418D02*
X0488845Y0076553D01*
X0489912Y0077620D01*
D11*
X0462772Y0050503D02*
X0459770Y0047501D01*
X0460520Y0046750D01*
X0462022Y0046750D01*
X0462772Y0047501D01*
X0462772Y0050503D01*
X0462022Y0051254D01*
X0460520Y0051254D01*
X0459770Y0050503D01*
X0459770Y0047501D01*
X0458168Y0047501D02*
X0457418Y0046750D01*
X0455916Y0046750D01*
X0455166Y0047501D01*
X0455166Y0048251D01*
X0455916Y0049002D01*
X0457418Y0049002D01*
X0458168Y0048251D01*
X0458168Y0047501D01*
X0457418Y0049002D02*
X0458168Y0049753D01*
X0458168Y0050503D01*
X0457418Y0051254D01*
X0455916Y0051254D01*
X0455166Y0050503D01*
X0455166Y0049753D01*
X0455916Y0049002D01*
X0453564Y0049753D02*
X0450562Y0046750D01*
X0453564Y0046750D01*
X0453564Y0049753D02*
X0453564Y0050503D01*
X0452814Y0051254D01*
X0451312Y0051254D01*
X0450562Y0050503D01*
X0448960Y0051254D02*
X0445958Y0051254D01*
X0445958Y0046750D01*
X0448960Y0046750D01*
X0447459Y0049002D02*
X0445958Y0049002D01*
X0444356Y0051254D02*
X0444356Y0046750D01*
X0441354Y0046750D02*
X0441354Y0051254D01*
X0442855Y0049753D01*
X0444356Y0051254D01*
X0439753Y0050503D02*
X0439753Y0049753D01*
X0439002Y0049002D01*
X0436750Y0049002D01*
X0436750Y0046750D02*
X0436750Y0051254D01*
X0439002Y0051254D01*
X0439753Y0050503D01*
X0439002Y0049002D02*
X0439753Y0048251D01*
X0439753Y0047501D01*
X0439002Y0046750D01*
X0436750Y0046750D01*
X0391550Y0073068D02*
X0390532Y0072050D01*
X0386462Y0072050D01*
X0385445Y0073068D01*
X0385445Y0075103D01*
X0386462Y0076120D01*
X0388497Y0076120D02*
X0388497Y0074085D01*
X0388497Y0076120D02*
X0390532Y0076120D01*
X0391550Y0075103D01*
X0391550Y0073068D01*
X0391550Y0078127D02*
X0385445Y0078127D01*
X0385445Y0081180D01*
X0386462Y0082197D01*
X0388497Y0082197D01*
X0389515Y0081180D01*
X0389515Y0078127D01*
X0381550Y0078127D02*
X0375445Y0078127D01*
X0375445Y0081180D01*
X0376462Y0082197D01*
X0378497Y0082197D01*
X0379515Y0081180D01*
X0379515Y0078127D01*
X0380532Y0076120D02*
X0378497Y0076120D01*
X0378497Y0074085D01*
X0376462Y0072050D02*
X0380532Y0072050D01*
X0381550Y0073068D01*
X0381550Y0075103D01*
X0380532Y0076120D01*
X0376462Y0076120D02*
X0375445Y0075103D01*
X0375445Y0073068D01*
X0376462Y0072050D01*
X0371550Y0073068D02*
X0371550Y0075103D01*
X0370532Y0076120D01*
X0368497Y0076120D01*
X0368497Y0074085D01*
X0366462Y0072050D02*
X0370532Y0072050D01*
X0371550Y0073068D01*
X0366462Y0072050D02*
X0365445Y0073068D01*
X0365445Y0075103D01*
X0366462Y0076120D01*
X0365445Y0078127D02*
X0365445Y0081180D01*
X0366462Y0082197D01*
X0368497Y0082197D01*
X0369515Y0081180D01*
X0369515Y0078127D01*
X0371550Y0078127D02*
X0365445Y0078127D01*
X0361550Y0078127D02*
X0355445Y0078127D01*
X0355445Y0081180D01*
X0356462Y0082197D01*
X0358497Y0082197D01*
X0359515Y0081180D01*
X0359515Y0078127D01*
X0360532Y0076120D02*
X0358497Y0076120D01*
X0358497Y0074085D01*
X0356462Y0072050D02*
X0360532Y0072050D01*
X0361550Y0073068D01*
X0361550Y0075103D01*
X0360532Y0076120D01*
X0356462Y0076120D02*
X0355445Y0075103D01*
X0355445Y0073068D01*
X0356462Y0072050D01*
X0351550Y0072050D02*
X0351550Y0076120D01*
X0350532Y0078127D02*
X0351550Y0079145D01*
X0351550Y0081180D01*
X0350532Y0082197D01*
X0349515Y0082197D01*
X0348497Y0081180D01*
X0348497Y0079145D01*
X0347480Y0078127D01*
X0346462Y0078127D01*
X0345445Y0079145D01*
X0345445Y0081180D01*
X0346462Y0082197D01*
X0345445Y0084204D02*
X0345445Y0087257D01*
X0346462Y0088275D01*
X0348497Y0088275D01*
X0349515Y0087257D01*
X0349515Y0084204D01*
X0351550Y0084204D02*
X0345445Y0084204D01*
X0341550Y0084204D02*
X0341550Y0087257D01*
X0340532Y0088275D01*
X0336462Y0088275D01*
X0335445Y0087257D01*
X0335445Y0084204D01*
X0341550Y0084204D01*
X0341550Y0082197D02*
X0335445Y0082197D01*
X0331550Y0082183D02*
X0331550Y0084218D01*
X0330532Y0085236D01*
X0329515Y0085236D01*
X0328497Y0084218D01*
X0328497Y0083201D01*
X0328497Y0084218D02*
X0327480Y0085236D01*
X0326462Y0085236D01*
X0325445Y0084218D01*
X0325445Y0082183D01*
X0326462Y0081166D01*
X0330532Y0081166D02*
X0331550Y0082183D01*
X0331550Y0079145D02*
X0331550Y0078127D01*
X0330532Y0078127D01*
X0330532Y0079145D01*
X0331550Y0079145D01*
X0335445Y0078127D02*
X0341550Y0082197D01*
X0341550Y0078127D02*
X0335445Y0078127D01*
X0336462Y0076120D02*
X0335445Y0075103D01*
X0335445Y0073068D01*
X0336462Y0072050D01*
X0340532Y0072050D01*
X0341550Y0073068D01*
X0341550Y0075103D01*
X0340532Y0076120D01*
X0338497Y0076120D01*
X0338497Y0074085D01*
X0331550Y0073068D02*
X0330532Y0072050D01*
X0331550Y0073068D02*
X0331550Y0075103D01*
X0330532Y0076120D01*
X0329515Y0076120D01*
X0328497Y0075103D01*
X0328497Y0074085D01*
X0328497Y0075103D02*
X0327480Y0076120D01*
X0326462Y0076120D01*
X0325445Y0075103D01*
X0325445Y0073068D01*
X0326462Y0072050D01*
X0321550Y0073068D02*
X0320532Y0072050D01*
X0321550Y0073068D02*
X0321550Y0075103D01*
X0320532Y0076120D01*
X0318497Y0076120D01*
X0317480Y0075103D01*
X0317480Y0074085D01*
X0318497Y0072050D01*
X0315445Y0072050D01*
X0315445Y0076120D01*
X0315445Y0078127D02*
X0319515Y0078127D01*
X0321550Y0080162D01*
X0319515Y0082197D01*
X0315445Y0082197D01*
X0325445Y0087243D02*
X0329515Y0087243D01*
X0331550Y0089278D01*
X0329515Y0091313D01*
X0325445Y0091313D01*
X0345445Y0096359D02*
X0351550Y0096359D01*
X0351550Y0100429D01*
X0351550Y0102436D02*
X0345445Y0102436D01*
X0351550Y0106506D01*
X0345445Y0106506D01*
X0355445Y0103463D02*
X0355445Y0101428D01*
X0356462Y0100410D01*
X0360532Y0100410D01*
X0356462Y0104480D01*
X0360532Y0104480D01*
X0361550Y0103463D01*
X0361550Y0101428D01*
X0360532Y0100410D01*
X0360532Y0098403D02*
X0361550Y0097386D01*
X0361550Y0095351D01*
X0360532Y0094333D01*
X0356462Y0098403D01*
X0360532Y0098403D01*
X0356462Y0098403D02*
X0355445Y0097386D01*
X0355445Y0095351D01*
X0356462Y0094333D01*
X0360532Y0094333D01*
X0360532Y0092326D02*
X0356462Y0092326D01*
X0355445Y0091308D01*
X0355445Y0089273D01*
X0356462Y0088256D01*
X0360532Y0088256D01*
X0361550Y0089273D01*
X0361550Y0091308D01*
X0360532Y0092326D01*
X0365445Y0091308D02*
X0366462Y0092326D01*
X0370532Y0092326D01*
X0371550Y0091308D01*
X0371550Y0089273D01*
X0370532Y0088256D01*
X0366462Y0088256D01*
X0365445Y0089273D01*
X0365445Y0091308D01*
X0366462Y0094333D02*
X0365445Y0095351D01*
X0365445Y0097386D01*
X0366462Y0098403D01*
X0370532Y0094333D01*
X0371550Y0095351D01*
X0371550Y0097386D01*
X0370532Y0098403D01*
X0366462Y0098403D01*
X0367480Y0100410D02*
X0365445Y0102445D01*
X0371550Y0102445D01*
X0371550Y0100410D02*
X0371550Y0104480D01*
X0375445Y0103463D02*
X0375445Y0101428D01*
X0376462Y0100410D01*
X0376462Y0098403D02*
X0380532Y0094333D01*
X0381550Y0095351D01*
X0381550Y0097386D01*
X0380532Y0098403D01*
X0376462Y0098403D01*
X0375445Y0097386D01*
X0375445Y0095351D01*
X0376462Y0094333D01*
X0380532Y0094333D01*
X0380532Y0092326D02*
X0376462Y0092326D01*
X0375445Y0091308D01*
X0375445Y0089273D01*
X0376462Y0088256D01*
X0380532Y0088256D01*
X0381550Y0089273D01*
X0381550Y0091308D01*
X0380532Y0092326D01*
X0385445Y0091308D02*
X0386462Y0092326D01*
X0390532Y0092326D01*
X0391550Y0091308D01*
X0391550Y0089273D01*
X0390532Y0088256D01*
X0386462Y0088256D01*
X0385445Y0089273D01*
X0385445Y0091308D01*
X0386462Y0094333D02*
X0385445Y0095351D01*
X0385445Y0097386D01*
X0386462Y0098403D01*
X0390532Y0094333D01*
X0391550Y0095351D01*
X0391550Y0097386D01*
X0390532Y0098403D01*
X0386462Y0098403D01*
X0386462Y0100410D02*
X0385445Y0101428D01*
X0385445Y0103463D01*
X0386462Y0104480D01*
X0387480Y0104480D01*
X0388497Y0103463D01*
X0389515Y0104480D01*
X0390532Y0104480D01*
X0391550Y0103463D01*
X0391550Y0101428D01*
X0390532Y0100410D01*
X0388497Y0102445D02*
X0388497Y0103463D01*
X0381550Y0104480D02*
X0381550Y0100410D01*
X0377480Y0104480D01*
X0376462Y0104480D01*
X0375445Y0103463D01*
X0356462Y0104480D02*
X0355445Y0103463D01*
X0348497Y0098394D02*
X0348497Y0096359D01*
X0345445Y0096359D02*
X0345445Y0100429D01*
X0352568Y0094352D02*
X0352568Y0090282D01*
X0355445Y0086239D02*
X0355445Y0084204D01*
X0355445Y0085222D02*
X0361550Y0085222D01*
X0361550Y0086239D02*
X0361550Y0084204D01*
X0365445Y0084204D02*
X0365445Y0086239D01*
X0365445Y0085222D02*
X0371550Y0085222D01*
X0371550Y0086239D02*
X0371550Y0084204D01*
X0375445Y0084204D02*
X0375445Y0086239D01*
X0375445Y0085222D02*
X0381550Y0085222D01*
X0381550Y0086239D02*
X0381550Y0084204D01*
X0385445Y0084204D02*
X0385445Y0086239D01*
X0385445Y0085222D02*
X0391550Y0085222D01*
X0391550Y0086239D02*
X0391550Y0084204D01*
X0390532Y0094333D02*
X0386462Y0094333D01*
X0370532Y0094333D02*
X0366462Y0094333D01*
X0345445Y0076120D02*
X0345445Y0072050D01*
X0351550Y0072050D01*
X0348497Y0072050D02*
X0348497Y0074085D01*
X0346462Y0117613D02*
X0350532Y0117613D01*
X0351550Y0118630D01*
X0351550Y0120665D01*
X0350532Y0121683D01*
X0348497Y0121683D01*
X0348497Y0119648D01*
X0346462Y0121683D02*
X0345445Y0120665D01*
X0345445Y0118630D01*
X0346462Y0117613D01*
X0341550Y0118630D02*
X0341550Y0120665D01*
X0340532Y0121683D01*
X0338497Y0121683D01*
X0338497Y0119648D01*
X0336462Y0121683D02*
X0335445Y0120665D01*
X0335445Y0118630D01*
X0336462Y0117613D01*
X0340532Y0117613D01*
X0341550Y0118630D01*
X0341550Y0123690D02*
X0335445Y0123690D01*
X0335445Y0126742D01*
X0336462Y0127760D01*
X0338497Y0127760D01*
X0339515Y0126742D01*
X0339515Y0123690D01*
X0345445Y0123690D02*
X0345445Y0126742D01*
X0346462Y0127760D01*
X0348497Y0127760D01*
X0349515Y0126742D01*
X0349515Y0123690D01*
X0351550Y0123690D02*
X0345445Y0123690D01*
X0355445Y0123690D02*
X0355445Y0126742D01*
X0356462Y0127760D01*
X0358497Y0127760D01*
X0359515Y0126742D01*
X0359515Y0123690D01*
X0361550Y0123690D02*
X0355445Y0123690D01*
X0356462Y0121683D02*
X0355445Y0120665D01*
X0355445Y0118630D01*
X0356462Y0117613D01*
X0360532Y0117613D01*
X0361550Y0118630D01*
X0361550Y0120665D01*
X0360532Y0121683D01*
X0358497Y0121683D01*
X0358497Y0119648D01*
X0365445Y0120665D02*
X0365445Y0118630D01*
X0366462Y0117613D01*
X0370532Y0117613D01*
X0371550Y0118630D01*
X0371550Y0120665D01*
X0370532Y0121683D01*
X0368497Y0121683D01*
X0368497Y0119648D01*
X0366462Y0121683D02*
X0365445Y0120665D01*
X0365445Y0123690D02*
X0365445Y0126742D01*
X0366462Y0127760D01*
X0368497Y0127760D01*
X0369515Y0126742D01*
X0369515Y0123690D01*
X0371550Y0123690D02*
X0365445Y0123690D01*
X0375445Y0123690D02*
X0375445Y0126742D01*
X0376462Y0127760D01*
X0378497Y0127760D01*
X0379515Y0126742D01*
X0379515Y0123690D01*
X0381550Y0123690D02*
X0375445Y0123690D01*
X0376462Y0121683D02*
X0375445Y0120665D01*
X0375445Y0118630D01*
X0376462Y0117613D01*
X0380532Y0117613D01*
X0381550Y0118630D01*
X0381550Y0120665D01*
X0380532Y0121683D01*
X0378497Y0121683D01*
X0378497Y0119648D01*
X0385445Y0120665D02*
X0385445Y0118630D01*
X0386462Y0117613D01*
X0390532Y0117613D01*
X0391550Y0118630D01*
X0391550Y0120665D01*
X0390532Y0121683D01*
X0388497Y0121683D01*
X0388497Y0119648D01*
X0386462Y0121683D02*
X0385445Y0120665D01*
X0385445Y0123690D02*
X0385445Y0126742D01*
X0386462Y0127760D01*
X0388497Y0127760D01*
X0389515Y0126742D01*
X0389515Y0123690D01*
X0391550Y0123690D02*
X0385445Y0123690D01*
X0385445Y0129767D02*
X0385445Y0131802D01*
X0385445Y0130784D02*
X0391550Y0130784D01*
X0391550Y0129767D02*
X0391550Y0131802D01*
X0390532Y0133818D02*
X0386462Y0133818D01*
X0385445Y0134836D01*
X0385445Y0136871D01*
X0386462Y0137889D01*
X0390532Y0137889D01*
X0391550Y0136871D01*
X0391550Y0134836D01*
X0390532Y0133818D01*
X0391550Y0139896D02*
X0391550Y0143966D01*
X0391550Y0141931D02*
X0385445Y0141931D01*
X0387480Y0139896D01*
X0381550Y0139896D02*
X0381550Y0143966D01*
X0381550Y0141931D02*
X0375445Y0141931D01*
X0377480Y0139896D01*
X0376462Y0137889D02*
X0380532Y0137889D01*
X0381550Y0136871D01*
X0381550Y0134836D01*
X0380532Y0133818D01*
X0376462Y0133818D01*
X0375445Y0134836D01*
X0375445Y0136871D01*
X0376462Y0137889D01*
X0371550Y0136871D02*
X0370532Y0137889D01*
X0366462Y0137889D01*
X0365445Y0136871D01*
X0365445Y0134836D01*
X0366462Y0133818D01*
X0370532Y0133818D01*
X0371550Y0134836D01*
X0371550Y0136871D01*
X0370532Y0139896D02*
X0371550Y0140913D01*
X0371550Y0142948D01*
X0370532Y0143966D01*
X0369515Y0143966D01*
X0368497Y0142948D01*
X0368497Y0141931D01*
X0368497Y0142948D02*
X0367480Y0143966D01*
X0366462Y0143966D01*
X0365445Y0142948D01*
X0365445Y0140913D01*
X0366462Y0139896D01*
X0361550Y0140913D02*
X0360532Y0139896D01*
X0361550Y0140913D02*
X0361550Y0142948D01*
X0360532Y0143966D01*
X0359515Y0143966D01*
X0358497Y0142948D01*
X0358497Y0141931D01*
X0358497Y0142948D02*
X0357480Y0143966D01*
X0356462Y0143966D01*
X0355445Y0142948D01*
X0355445Y0140913D01*
X0356462Y0139896D01*
X0356462Y0137889D02*
X0355445Y0136871D01*
X0355445Y0134836D01*
X0356462Y0133818D01*
X0360532Y0133818D01*
X0361550Y0134836D01*
X0361550Y0136871D01*
X0360532Y0137889D01*
X0356462Y0137889D01*
X0351550Y0136871D02*
X0350532Y0137889D01*
X0346462Y0137889D01*
X0345445Y0136871D01*
X0345445Y0134836D01*
X0346462Y0133818D01*
X0350532Y0133818D01*
X0351550Y0134836D01*
X0351550Y0136871D01*
X0350532Y0139896D02*
X0351550Y0140913D01*
X0351550Y0142948D01*
X0350532Y0143966D01*
X0349515Y0143966D01*
X0348497Y0142948D01*
X0348497Y0141931D01*
X0348497Y0142948D02*
X0347480Y0143966D01*
X0346462Y0143966D01*
X0345445Y0142948D01*
X0345445Y0140913D01*
X0346462Y0139896D01*
X0341550Y0140913D02*
X0340532Y0139896D01*
X0341550Y0140913D02*
X0341550Y0142948D01*
X0340532Y0143966D01*
X0339515Y0143966D01*
X0338497Y0142948D01*
X0338497Y0141931D01*
X0338497Y0142948D02*
X0337480Y0143966D01*
X0336462Y0143966D01*
X0335445Y0142948D01*
X0335445Y0140913D01*
X0336462Y0139896D01*
X0336462Y0137889D02*
X0335445Y0136871D01*
X0335445Y0134836D01*
X0336462Y0133818D01*
X0340532Y0133818D01*
X0341550Y0134836D01*
X0341550Y0136871D01*
X0340532Y0137889D01*
X0336462Y0137889D01*
X0331550Y0136871D02*
X0330532Y0137889D01*
X0326462Y0137889D01*
X0325445Y0136871D01*
X0325445Y0134836D01*
X0326462Y0133818D01*
X0330532Y0133818D01*
X0331550Y0134836D01*
X0331550Y0136871D01*
X0330532Y0139896D02*
X0331550Y0140913D01*
X0331550Y0142948D01*
X0330532Y0143966D01*
X0329515Y0143966D01*
X0328497Y0142948D01*
X0328497Y0141931D01*
X0328497Y0142948D02*
X0327480Y0143966D01*
X0326462Y0143966D01*
X0325445Y0142948D01*
X0325445Y0140913D01*
X0326462Y0139896D01*
X0321550Y0140913D02*
X0320532Y0139896D01*
X0321550Y0140913D02*
X0321550Y0142948D01*
X0320532Y0143966D01*
X0319515Y0143966D01*
X0318497Y0142948D01*
X0318497Y0141931D01*
X0318497Y0142948D02*
X0317480Y0143966D01*
X0316462Y0143966D01*
X0315445Y0142948D01*
X0315445Y0140913D01*
X0316462Y0139896D01*
X0316462Y0137889D02*
X0315445Y0136871D01*
X0315445Y0134836D01*
X0316462Y0133818D01*
X0320532Y0133818D01*
X0321550Y0134836D01*
X0321550Y0136871D01*
X0320532Y0137889D01*
X0316462Y0137889D01*
X0315445Y0131802D02*
X0315445Y0129767D01*
X0315445Y0130784D02*
X0321550Y0130784D01*
X0321550Y0129767D02*
X0321550Y0131802D01*
X0325445Y0131802D02*
X0325445Y0129767D01*
X0325445Y0130784D02*
X0331550Y0130784D01*
X0331550Y0129767D02*
X0331550Y0131802D01*
X0335445Y0131802D02*
X0335445Y0129767D01*
X0335445Y0130784D02*
X0341550Y0130784D01*
X0341550Y0129767D02*
X0341550Y0131802D01*
X0345445Y0131802D02*
X0345445Y0129767D01*
X0345445Y0130784D02*
X0351550Y0130784D01*
X0351550Y0129767D02*
X0351550Y0131802D01*
X0355445Y0131802D02*
X0355445Y0129767D01*
X0355445Y0130784D02*
X0361550Y0130784D01*
X0361550Y0129767D02*
X0361550Y0131802D01*
X0365445Y0131802D02*
X0365445Y0129767D01*
X0365445Y0130784D02*
X0371550Y0130784D01*
X0371550Y0129767D02*
X0371550Y0131802D01*
X0375445Y0131802D02*
X0375445Y0129767D01*
X0375445Y0130784D02*
X0381550Y0130784D01*
X0381550Y0129767D02*
X0381550Y0131802D01*
X0380532Y0145973D02*
X0381550Y0146990D01*
X0381550Y0149025D01*
X0380532Y0150043D01*
X0379515Y0150043D01*
X0378497Y0149025D01*
X0378497Y0145973D01*
X0380532Y0145973D01*
X0378497Y0145973D02*
X0376462Y0148008D01*
X0375445Y0150043D01*
X0371550Y0150043D02*
X0371550Y0145973D01*
X0367480Y0150043D01*
X0366462Y0150043D01*
X0365445Y0149025D01*
X0365445Y0146990D01*
X0366462Y0145973D01*
X0361550Y0146990D02*
X0360532Y0145973D01*
X0361550Y0146990D02*
X0361550Y0149025D01*
X0360532Y0150043D01*
X0359515Y0150043D01*
X0358497Y0149025D01*
X0358497Y0148008D01*
X0358497Y0149025D02*
X0357480Y0150043D01*
X0356462Y0150043D01*
X0355445Y0149025D01*
X0355445Y0146990D01*
X0356462Y0145973D01*
X0351550Y0149025D02*
X0345445Y0149025D01*
X0348497Y0145973D01*
X0348497Y0150043D01*
X0341550Y0149025D02*
X0341550Y0146990D01*
X0340532Y0145973D01*
X0338497Y0145973D02*
X0337480Y0148008D01*
X0337480Y0149025D01*
X0338497Y0150043D01*
X0340532Y0150043D01*
X0341550Y0149025D01*
X0335445Y0150043D02*
X0335445Y0145973D01*
X0338497Y0145973D01*
X0331550Y0146990D02*
X0331550Y0149025D01*
X0330532Y0150043D01*
X0329515Y0150043D01*
X0328497Y0149025D01*
X0328497Y0145973D01*
X0330532Y0145973D01*
X0331550Y0146990D01*
X0328497Y0145973D02*
X0326462Y0148008D01*
X0325445Y0150043D01*
X0321550Y0149025D02*
X0321550Y0146990D01*
X0320532Y0145973D01*
X0318497Y0146990D02*
X0318497Y0150043D01*
X0316462Y0150043D02*
X0315445Y0149025D01*
X0315445Y0146990D01*
X0316462Y0145973D01*
X0317480Y0145973D01*
X0318497Y0146990D01*
X0320532Y0150043D02*
X0316462Y0150043D01*
X0320532Y0150043D02*
X0321550Y0149025D01*
X0318497Y0127760D02*
X0319515Y0126742D01*
X0319515Y0123690D01*
X0321550Y0123690D02*
X0315445Y0123690D01*
X0315445Y0126742D01*
X0316462Y0127760D01*
X0318497Y0127760D01*
X0325445Y0126742D02*
X0325445Y0123690D01*
X0331550Y0123690D01*
X0329515Y0123690D02*
X0329515Y0126742D01*
X0328497Y0127760D01*
X0326462Y0127760D01*
X0325445Y0126742D01*
X0326462Y0121683D02*
X0325445Y0120665D01*
X0325445Y0118630D01*
X0326462Y0117613D01*
X0330532Y0117613D01*
X0331550Y0118630D01*
X0331550Y0120665D01*
X0330532Y0121683D01*
X0328497Y0121683D01*
X0328497Y0119648D01*
X0321550Y0120665D02*
X0320532Y0121683D01*
X0318497Y0121683D01*
X0318497Y0119648D01*
X0316462Y0121683D02*
X0315445Y0120665D01*
X0315445Y0118630D01*
X0316462Y0117613D01*
X0320532Y0117613D01*
X0321550Y0118630D01*
X0321550Y0120665D01*
X0385445Y0145973D02*
X0388497Y0145973D01*
X0387480Y0148008D01*
X0387480Y0149025D01*
X0388497Y0150043D01*
X0390532Y0150043D01*
X0391550Y0149025D01*
X0391550Y0146990D01*
X0390532Y0145973D01*
X0385445Y0145973D02*
X0385445Y0150043D01*
X0414686Y0143939D02*
X0416588Y0143939D01*
X0416588Y0144572D02*
X0416588Y0143305D01*
X0416271Y0142363D02*
X0415954Y0142363D01*
X0415637Y0142046D01*
X0415637Y0141412D01*
X0415320Y0141095D01*
X0415003Y0141095D01*
X0414686Y0141412D01*
X0414686Y0142046D01*
X0415003Y0142363D01*
X0414369Y0141729D02*
X0416905Y0141729D01*
X0416588Y0142046D02*
X0416271Y0142363D01*
X0416588Y0142046D02*
X0416588Y0141412D01*
X0416271Y0141095D01*
X0416271Y0140153D02*
X0414686Y0140153D01*
X0414686Y0138885D02*
X0416271Y0138885D01*
X0416588Y0139202D01*
X0416588Y0139836D01*
X0416271Y0140153D01*
X0415320Y0143305D02*
X0414686Y0143939D01*
D12*
X0061696Y0037950D02*
X0061079Y0038567D01*
X0061079Y0041036D01*
X0061696Y0041653D01*
X0062930Y0041653D01*
X0063548Y0041036D01*
X0063548Y0039802D02*
X0062313Y0039802D01*
X0063548Y0039802D02*
X0063548Y0038567D01*
X0062930Y0037950D01*
X0061696Y0037950D01*
X0064762Y0037950D02*
X0064762Y0041653D01*
X0066614Y0041653D01*
X0067231Y0041036D01*
X0067231Y0039802D01*
X0066614Y0039184D01*
X0064762Y0039184D01*
X0068445Y0037950D02*
X0069680Y0037950D01*
X0069062Y0037950D02*
X0069062Y0041653D01*
X0068445Y0041653D02*
X0069680Y0041653D01*
X0070901Y0041036D02*
X0071518Y0041653D01*
X0072752Y0041653D01*
X0073369Y0041036D01*
X0073369Y0038567D01*
X0072752Y0037950D01*
X0071518Y0037950D01*
X0070901Y0038567D01*
X0070901Y0041036D01*
X0074584Y0041036D02*
X0075201Y0041653D01*
X0076435Y0041653D01*
X0077052Y0041036D01*
X0077052Y0040419D01*
X0076435Y0039802D01*
X0077052Y0039184D01*
X0077052Y0038567D01*
X0076435Y0037950D01*
X0075201Y0037950D01*
X0074584Y0038567D01*
X0075818Y0039802D02*
X0076435Y0039802D01*
X0078267Y0041036D02*
X0078884Y0041653D01*
X0080118Y0041653D01*
X0080736Y0041036D01*
X0080736Y0040419D01*
X0080118Y0039802D01*
X0080736Y0039184D01*
X0080736Y0038567D01*
X0080118Y0037950D01*
X0078884Y0037950D01*
X0078267Y0038567D01*
X0079501Y0039802D02*
X0080118Y0039802D01*
X0131079Y0041036D02*
X0131079Y0038567D01*
X0131696Y0037950D01*
X0132930Y0037950D01*
X0133548Y0038567D01*
X0133548Y0039802D01*
X0132313Y0039802D01*
X0131079Y0041036D02*
X0131696Y0041653D01*
X0132930Y0041653D01*
X0133548Y0041036D01*
X0134762Y0041653D02*
X0134762Y0037950D01*
X0134762Y0039184D02*
X0136614Y0039184D01*
X0137231Y0039802D01*
X0137231Y0041036D01*
X0136614Y0041653D01*
X0134762Y0041653D01*
X0138445Y0041653D02*
X0139680Y0041653D01*
X0139062Y0041653D02*
X0139062Y0037950D01*
X0138445Y0037950D02*
X0139680Y0037950D01*
X0140901Y0038567D02*
X0141518Y0037950D01*
X0142752Y0037950D01*
X0143369Y0038567D01*
X0143369Y0041036D01*
X0142752Y0041653D01*
X0141518Y0041653D01*
X0140901Y0041036D01*
X0140901Y0038567D01*
X0144584Y0038567D02*
X0145201Y0037950D01*
X0146435Y0037950D01*
X0147052Y0038567D01*
X0147052Y0039184D01*
X0146435Y0039802D01*
X0145818Y0039802D01*
X0146435Y0039802D02*
X0147052Y0040419D01*
X0147052Y0041036D01*
X0146435Y0041653D01*
X0145201Y0041653D01*
X0144584Y0041036D01*
X0148267Y0041036D02*
X0148884Y0041653D01*
X0150118Y0041653D01*
X0150736Y0041036D01*
X0150736Y0040419D01*
X0148267Y0037950D01*
X0150736Y0037950D01*
X0201079Y0038567D02*
X0201696Y0037950D01*
X0202930Y0037950D01*
X0203548Y0038567D01*
X0203548Y0039802D01*
X0202313Y0039802D01*
X0201079Y0041036D02*
X0201079Y0038567D01*
X0201079Y0041036D02*
X0201696Y0041653D01*
X0202930Y0041653D01*
X0203548Y0041036D01*
X0204762Y0041653D02*
X0204762Y0037950D01*
X0204762Y0039184D02*
X0206614Y0039184D01*
X0207231Y0039802D01*
X0207231Y0041036D01*
X0206614Y0041653D01*
X0204762Y0041653D01*
X0208445Y0041653D02*
X0209680Y0041653D01*
X0209062Y0041653D02*
X0209062Y0037950D01*
X0208445Y0037950D02*
X0209680Y0037950D01*
X0210901Y0038567D02*
X0211518Y0037950D01*
X0212752Y0037950D01*
X0213369Y0038567D01*
X0213369Y0041036D01*
X0212752Y0041653D01*
X0211518Y0041653D01*
X0210901Y0041036D01*
X0210901Y0038567D01*
X0214584Y0037950D02*
X0217052Y0037950D01*
X0215818Y0037950D02*
X0215818Y0041653D01*
X0214584Y0040419D01*
X0218267Y0039802D02*
X0218267Y0038567D01*
X0218884Y0037950D01*
X0220118Y0037950D01*
X0220736Y0038567D01*
X0220736Y0039184D01*
X0220118Y0039802D01*
X0218267Y0039802D01*
X0219501Y0041036D01*
X0220736Y0041653D01*
X0271079Y0041036D02*
X0271079Y0038567D01*
X0271696Y0037950D01*
X0272930Y0037950D01*
X0273548Y0038567D01*
X0273548Y0039802D01*
X0272313Y0039802D01*
X0271079Y0041036D02*
X0271696Y0041653D01*
X0272930Y0041653D01*
X0273548Y0041036D01*
X0274762Y0041653D02*
X0274762Y0037950D01*
X0274762Y0039184D02*
X0276614Y0039184D01*
X0277231Y0039802D01*
X0277231Y0041036D01*
X0276614Y0041653D01*
X0274762Y0041653D01*
X0278445Y0041653D02*
X0279680Y0041653D01*
X0279062Y0041653D02*
X0279062Y0037950D01*
X0278445Y0037950D02*
X0279680Y0037950D01*
X0280901Y0038567D02*
X0281518Y0037950D01*
X0282752Y0037950D01*
X0283369Y0038567D01*
X0283369Y0041036D01*
X0282752Y0041653D01*
X0281518Y0041653D01*
X0280901Y0041036D01*
X0280901Y0038567D01*
X0284584Y0037950D02*
X0287052Y0037950D01*
X0285818Y0037950D02*
X0285818Y0041653D01*
X0284584Y0040419D01*
X0288267Y0039802D02*
X0288267Y0041653D01*
X0290736Y0041653D01*
X0290118Y0040419D02*
X0290736Y0039802D01*
X0290736Y0038567D01*
X0290118Y0037950D01*
X0288884Y0037950D01*
X0288267Y0038567D01*
X0288267Y0039802D02*
X0289501Y0040419D01*
X0290118Y0040419D01*
X0295515Y0039802D02*
X0297367Y0041653D01*
X0297367Y0037950D01*
X0299199Y0037950D02*
X0301667Y0040419D01*
X0299199Y0040419D02*
X0301667Y0037950D01*
X0297984Y0039802D02*
X0295515Y0039802D01*
X0306565Y0041653D02*
X0309034Y0041653D01*
X0310248Y0041653D02*
X0310248Y0037950D01*
X0310248Y0039802D02*
X0310865Y0040419D01*
X0312100Y0040419D01*
X0312717Y0039802D01*
X0312717Y0037950D01*
X0313931Y0038567D02*
X0313931Y0039802D01*
X0314548Y0040419D01*
X0315783Y0040419D01*
X0316400Y0039802D01*
X0316400Y0039184D01*
X0313931Y0039184D01*
X0313931Y0038567D02*
X0314548Y0037950D01*
X0315783Y0037950D01*
X0317614Y0037950D02*
X0317614Y0040419D01*
X0317614Y0039184D02*
X0318849Y0040419D01*
X0319466Y0040419D01*
X0320684Y0040419D02*
X0321301Y0040419D01*
X0321918Y0039802D01*
X0322535Y0040419D01*
X0323152Y0039802D01*
X0323152Y0037950D01*
X0321918Y0037950D02*
X0321918Y0039802D01*
X0320684Y0040419D02*
X0320684Y0037950D01*
X0324367Y0038567D02*
X0324984Y0037950D01*
X0326218Y0037950D01*
X0326836Y0038567D01*
X0326836Y0039802D01*
X0326218Y0040419D01*
X0324984Y0040419D01*
X0324367Y0039802D01*
X0324367Y0038567D01*
X0328050Y0038567D02*
X0328050Y0039802D01*
X0328667Y0040419D01*
X0330519Y0040419D01*
X0331733Y0039802D02*
X0331733Y0038567D01*
X0332350Y0037950D01*
X0333585Y0037950D01*
X0334202Y0038567D01*
X0334202Y0039802D01*
X0333585Y0040419D01*
X0332350Y0040419D01*
X0331733Y0039802D01*
X0330519Y0037950D02*
X0328667Y0037950D01*
X0328050Y0038567D01*
X0335416Y0038567D02*
X0336033Y0037950D01*
X0337885Y0037950D01*
X0337885Y0040419D01*
X0339099Y0040419D02*
X0340951Y0040419D01*
X0341568Y0039802D01*
X0341568Y0038567D01*
X0340951Y0037950D01*
X0339099Y0037950D01*
X0339099Y0036716D02*
X0339099Y0040419D01*
X0335416Y0040419D02*
X0335416Y0038567D01*
X0342782Y0037950D02*
X0344017Y0037950D01*
X0343400Y0037950D02*
X0343400Y0041653D01*
X0342782Y0041653D01*
X0345238Y0039802D02*
X0345855Y0040419D01*
X0347089Y0040419D01*
X0347707Y0039802D01*
X0347707Y0039184D01*
X0345238Y0039184D01*
X0345238Y0038567D02*
X0345238Y0039802D01*
X0345238Y0038567D02*
X0345855Y0037950D01*
X0347089Y0037950D01*
X0348921Y0037950D02*
X0348921Y0040419D01*
X0350155Y0040419D02*
X0350773Y0040419D01*
X0350155Y0040419D02*
X0348921Y0039184D01*
X0355673Y0039184D02*
X0355673Y0040419D01*
X0356908Y0041653D01*
X0358129Y0041653D02*
X0359363Y0040419D01*
X0360598Y0041653D01*
X0360598Y0037950D01*
X0361812Y0037950D02*
X0361812Y0040419D01*
X0363046Y0041653D01*
X0364281Y0040419D01*
X0364281Y0037950D01*
X0365495Y0037950D02*
X0367964Y0041653D01*
X0369178Y0041036D02*
X0369796Y0041653D01*
X0371030Y0041653D01*
X0371647Y0041036D01*
X0371647Y0040419D01*
X0371030Y0039802D01*
X0371647Y0039184D01*
X0371647Y0038567D01*
X0371030Y0037950D01*
X0369796Y0037950D01*
X0369178Y0038567D01*
X0367964Y0037950D02*
X0365495Y0041653D01*
X0364281Y0039802D02*
X0361812Y0039802D01*
X0358129Y0041653D02*
X0358129Y0037950D01*
X0356908Y0037950D02*
X0355673Y0039184D01*
X0370413Y0039802D02*
X0371030Y0039802D01*
X0372861Y0040419D02*
X0374096Y0041653D01*
X0374096Y0037950D01*
X0375330Y0037950D02*
X0372861Y0037950D01*
X0376545Y0038567D02*
X0376545Y0039184D01*
X0377162Y0039802D01*
X0378396Y0039802D01*
X0379013Y0039184D01*
X0379013Y0038567D01*
X0378396Y0037950D01*
X0377162Y0037950D01*
X0376545Y0038567D01*
X0377162Y0039802D02*
X0376545Y0040419D01*
X0376545Y0041036D01*
X0377162Y0041653D01*
X0378396Y0041653D01*
X0379013Y0041036D01*
X0379013Y0040419D01*
X0378396Y0039802D01*
X0380228Y0039802D02*
X0381462Y0040419D01*
X0382079Y0040419D01*
X0382697Y0039802D01*
X0382697Y0038567D01*
X0382079Y0037950D01*
X0380845Y0037950D01*
X0380228Y0038567D01*
X0380228Y0039802D02*
X0380228Y0041653D01*
X0382697Y0041653D01*
X0383911Y0039802D02*
X0385762Y0039802D01*
X0386380Y0039184D01*
X0386380Y0038567D01*
X0385762Y0037950D01*
X0384528Y0037950D01*
X0383911Y0038567D01*
X0383911Y0039802D01*
X0385145Y0041036D01*
X0386380Y0041653D01*
X0387594Y0041653D02*
X0388828Y0040419D01*
X0388828Y0039184D01*
X0387594Y0037950D01*
X0393733Y0038567D02*
X0394350Y0039184D01*
X0396201Y0039184D01*
X0396201Y0039802D02*
X0396201Y0037950D01*
X0394350Y0037950D01*
X0393733Y0038567D01*
X0394350Y0040419D02*
X0395584Y0040419D01*
X0396201Y0039802D01*
X0397416Y0040419D02*
X0399267Y0040419D01*
X0399885Y0039802D01*
X0399885Y0037950D01*
X0401099Y0038567D02*
X0401099Y0039802D01*
X0401716Y0040419D01*
X0403568Y0040419D01*
X0403568Y0041653D02*
X0403568Y0037950D01*
X0401716Y0037950D01*
X0401099Y0038567D01*
X0397416Y0037950D02*
X0397416Y0040419D01*
X0408465Y0039802D02*
X0410317Y0039802D01*
X0410934Y0039184D01*
X0410934Y0038567D01*
X0410317Y0037950D01*
X0408465Y0037950D01*
X0408465Y0041653D01*
X0410317Y0041653D01*
X0410934Y0041036D01*
X0410934Y0040419D01*
X0410317Y0039802D01*
X0412148Y0041653D02*
X0413383Y0040419D01*
X0414617Y0041653D01*
X0414617Y0037950D01*
X0415831Y0037950D02*
X0418300Y0037950D01*
X0419515Y0037950D02*
X0421983Y0040419D01*
X0421983Y0041036D01*
X0421366Y0041653D01*
X0420132Y0041653D01*
X0419515Y0041036D01*
X0418300Y0041653D02*
X0415831Y0041653D01*
X0415831Y0037950D01*
X0415831Y0039802D02*
X0417066Y0039802D01*
X0419515Y0037950D02*
X0421983Y0037950D01*
X0423198Y0038567D02*
X0423198Y0039184D01*
X0423815Y0039802D01*
X0425049Y0039802D01*
X0425667Y0039184D01*
X0425667Y0038567D01*
X0425049Y0037950D01*
X0423815Y0037950D01*
X0423198Y0038567D01*
X0423815Y0039802D02*
X0423198Y0040419D01*
X0423198Y0041036D01*
X0423815Y0041653D01*
X0425049Y0041653D01*
X0425667Y0041036D01*
X0425667Y0040419D01*
X0425049Y0039802D01*
X0426881Y0041036D02*
X0427498Y0041653D01*
X0428732Y0041653D01*
X0429350Y0041036D01*
X0426881Y0038567D01*
X0427498Y0037950D01*
X0428732Y0037950D01*
X0429350Y0038567D01*
X0429350Y0041036D01*
X0426881Y0041036D02*
X0426881Y0038567D01*
X0434247Y0037950D02*
X0436716Y0037950D01*
X0437930Y0038567D02*
X0438548Y0037950D01*
X0439782Y0037950D01*
X0440399Y0038567D01*
X0440399Y0039184D01*
X0439782Y0039802D01*
X0438548Y0039802D01*
X0437930Y0040419D01*
X0437930Y0041036D01*
X0438548Y0041653D01*
X0439782Y0041653D01*
X0440399Y0041036D01*
X0441613Y0041653D02*
X0441613Y0037950D01*
X0441613Y0039184D02*
X0443465Y0039184D01*
X0444082Y0039802D01*
X0444082Y0041036D01*
X0443465Y0041653D01*
X0441613Y0041653D01*
X0445297Y0041036D02*
X0445914Y0041653D01*
X0447148Y0041653D01*
X0447765Y0041036D01*
X0447765Y0040419D01*
X0447148Y0039802D01*
X0447765Y0039184D01*
X0447765Y0038567D01*
X0447148Y0037950D01*
X0445914Y0037950D01*
X0445297Y0038567D01*
X0446531Y0039802D02*
X0447148Y0039802D01*
X0448980Y0041036D02*
X0449597Y0041653D01*
X0450831Y0041653D01*
X0451449Y0041036D01*
X0451449Y0040419D01*
X0448980Y0037950D01*
X0451449Y0037950D01*
X0452663Y0039802D02*
X0455132Y0039802D01*
X0456346Y0039184D02*
X0458198Y0039184D01*
X0458815Y0039802D01*
X0458815Y0041036D01*
X0458198Y0041653D01*
X0456346Y0041653D01*
X0456346Y0037950D01*
X0460029Y0038567D02*
X0460646Y0037950D01*
X0461881Y0037950D01*
X0462498Y0038567D01*
X0462498Y0041036D01*
X0461881Y0041653D01*
X0460646Y0041653D01*
X0460029Y0041036D01*
X0460029Y0038567D01*
X0463712Y0037950D02*
X0466181Y0037950D01*
X0464947Y0039802D02*
X0463712Y0039802D01*
X0463712Y0041653D02*
X0463712Y0037950D01*
X0471079Y0037950D02*
X0471079Y0041653D01*
X0471696Y0040419D02*
X0471079Y0039802D01*
X0471696Y0040419D02*
X0472930Y0040419D01*
X0473547Y0039802D01*
X0473547Y0037950D01*
X0474762Y0038567D02*
X0475379Y0039184D01*
X0477231Y0039184D01*
X0477231Y0039802D02*
X0477231Y0037950D01*
X0475379Y0037950D01*
X0474762Y0038567D01*
X0475379Y0040419D02*
X0476613Y0040419D01*
X0477231Y0039802D01*
X0478445Y0040419D02*
X0479679Y0040419D01*
X0479062Y0041036D02*
X0479062Y0038567D01*
X0479679Y0037950D01*
X0484584Y0040419D02*
X0485818Y0037950D01*
X0487052Y0040419D01*
X0488267Y0039802D02*
X0490118Y0039802D01*
X0490735Y0039184D01*
X0490735Y0038567D01*
X0490118Y0037950D01*
X0488884Y0037950D01*
X0488267Y0038567D01*
X0488267Y0039802D01*
X0489501Y0041036D01*
X0490735Y0041653D01*
X0466181Y0041653D02*
X0463712Y0041653D01*
X0436716Y0041653D02*
X0434247Y0041653D01*
X0434247Y0037950D01*
X0434247Y0039802D02*
X0435482Y0039802D01*
X0412148Y0037950D02*
X0412148Y0041653D01*
X0411166Y0071950D02*
X0411650Y0072434D01*
X0411650Y0073401D01*
X0411166Y0073885D01*
X0410199Y0073885D01*
X0410199Y0072917D01*
X0411166Y0071950D02*
X0409231Y0071950D01*
X0408748Y0072434D01*
X0408748Y0073401D01*
X0409231Y0073885D01*
X0408748Y0074897D02*
X0408748Y0076348D01*
X0409231Y0076831D01*
X0410199Y0076831D01*
X0410683Y0076348D01*
X0410683Y0074897D01*
X0411650Y0074897D02*
X0408748Y0074897D01*
X0408748Y0077843D02*
X0408748Y0078811D01*
X0408748Y0078327D02*
X0411650Y0078327D01*
X0411650Y0077843D02*
X0411650Y0078811D01*
X0411166Y0079807D02*
X0411650Y0080291D01*
X0411650Y0081259D01*
X0411166Y0081742D01*
X0409231Y0081742D01*
X0408748Y0081259D01*
X0408748Y0080291D01*
X0409231Y0079807D01*
X0411166Y0079807D01*
X0411166Y0082754D02*
X0409231Y0084689D01*
X0411166Y0084689D01*
X0411650Y0084205D01*
X0411650Y0083238D01*
X0411166Y0082754D01*
X0409231Y0082754D01*
X0408748Y0083238D01*
X0408748Y0084205D01*
X0409231Y0084689D01*
X0408748Y0085700D02*
X0410199Y0085700D01*
X0409715Y0086668D01*
X0409715Y0087152D01*
X0410199Y0087635D01*
X0411166Y0087635D01*
X0411650Y0087152D01*
X0411650Y0086184D01*
X0411166Y0085700D01*
X0408748Y0085700D02*
X0408748Y0087635D01*
X0401650Y0087306D02*
X0401650Y0086072D01*
X0401033Y0085455D01*
X0398564Y0087924D01*
X0401033Y0087924D01*
X0401650Y0087306D01*
X0401033Y0085455D02*
X0398564Y0085455D01*
X0397947Y0086072D01*
X0397947Y0087306D01*
X0398564Y0087924D01*
X0399798Y0089138D02*
X0399798Y0091607D01*
X0397947Y0090990D02*
X0399798Y0089138D01*
X0397947Y0090990D02*
X0401650Y0090990D01*
X0401033Y0084240D02*
X0398564Y0084240D01*
X0397947Y0083623D01*
X0397947Y0082389D01*
X0398564Y0081772D01*
X0401033Y0081772D01*
X0401650Y0082389D01*
X0401650Y0083623D01*
X0401033Y0084240D01*
X0401650Y0080551D02*
X0401650Y0079316D01*
X0401650Y0079933D02*
X0397947Y0079933D01*
X0397947Y0079316D02*
X0397947Y0080551D01*
X0398564Y0078102D02*
X0399798Y0078102D01*
X0400416Y0077485D01*
X0400416Y0075633D01*
X0401650Y0075633D02*
X0397947Y0075633D01*
X0397947Y0077485D01*
X0398564Y0078102D01*
X0398564Y0074419D02*
X0397947Y0073802D01*
X0397947Y0072567D01*
X0398564Y0071950D01*
X0401033Y0071950D01*
X0401650Y0072567D01*
X0401650Y0073802D01*
X0401033Y0074419D01*
X0399798Y0074419D01*
X0399798Y0073184D01*
X0307799Y0041653D02*
X0307799Y0037950D01*
X0398564Y0131079D02*
X0401033Y0131079D01*
X0401650Y0131696D01*
X0401650Y0132930D01*
X0401033Y0133548D01*
X0399798Y0133548D01*
X0399798Y0132313D01*
X0398564Y0131079D02*
X0397947Y0131696D01*
X0397947Y0132930D01*
X0398564Y0133548D01*
X0397947Y0134762D02*
X0397947Y0136614D01*
X0398564Y0137231D01*
X0399798Y0137231D01*
X0400416Y0136614D01*
X0400416Y0134762D01*
X0401650Y0134762D02*
X0397947Y0134762D01*
X0397947Y0138445D02*
X0397947Y0139680D01*
X0397947Y0139062D02*
X0401650Y0139062D01*
X0401650Y0138445D02*
X0401650Y0139680D01*
X0401033Y0140901D02*
X0401650Y0141518D01*
X0401650Y0142752D01*
X0401033Y0143369D01*
X0398564Y0143369D01*
X0397947Y0142752D01*
X0397947Y0141518D01*
X0398564Y0140901D01*
X0401033Y0140901D01*
X0401650Y0144584D02*
X0401650Y0147052D01*
X0401650Y0145818D02*
X0397947Y0145818D01*
X0399181Y0144584D01*
X0399798Y0148267D02*
X0399798Y0150736D01*
X0397947Y0150118D02*
X0399798Y0148267D01*
X0397947Y0150118D02*
X0401650Y0150118D01*
X0408748Y0150455D02*
X0409231Y0150938D01*
X0409715Y0150938D01*
X0410199Y0150455D01*
X0410683Y0150938D01*
X0411166Y0150938D01*
X0411650Y0150455D01*
X0411650Y0149487D01*
X0411166Y0149003D01*
X0411650Y0147992D02*
X0411650Y0146057D01*
X0411650Y0147024D02*
X0408748Y0147024D01*
X0409715Y0146057D01*
X0409231Y0145045D02*
X0408748Y0144562D01*
X0408748Y0143594D01*
X0409231Y0143110D01*
X0411166Y0143110D01*
X0411650Y0143594D01*
X0411650Y0144562D01*
X0411166Y0145045D01*
X0409231Y0145045D01*
X0408748Y0142114D02*
X0408748Y0141146D01*
X0408748Y0141630D02*
X0411650Y0141630D01*
X0411650Y0141146D02*
X0411650Y0142114D01*
X0410199Y0140135D02*
X0410683Y0139651D01*
X0410683Y0138200D01*
X0411650Y0138200D02*
X0408748Y0138200D01*
X0408748Y0139651D01*
X0409231Y0140135D01*
X0410199Y0140135D01*
X0410199Y0137188D02*
X0410199Y0136221D01*
X0410199Y0137188D02*
X0411166Y0137188D01*
X0411650Y0136704D01*
X0411650Y0135737D01*
X0411166Y0135253D01*
X0409231Y0135253D01*
X0408748Y0135737D01*
X0408748Y0136704D01*
X0409231Y0137188D01*
X0409231Y0149003D02*
X0408748Y0149487D01*
X0408748Y0150455D01*
X0410199Y0150455D02*
X0410199Y0149971D01*
D13*
X0415658Y0126800D03*
X0415658Y0116800D03*
X0415658Y0106800D03*
X0415658Y0096800D03*
X0441800Y0061800D03*
X0451800Y0061800D03*
X0461800Y0061800D03*
X0471800Y0061800D03*
X0481800Y0061800D03*
X0491800Y0061800D03*
D14*
X0421524Y0058060D02*
X0421524Y0091800D01*
X0408158Y0091800D01*
X0405658Y0094300D01*
X0405658Y0099300D01*
X0408158Y0101800D01*
X0423158Y0101800D01*
X0425658Y0099300D01*
X0425658Y0094300D01*
X0423158Y0091800D01*
X0421524Y0091800D01*
X0423158Y0101800D02*
X0425658Y0104300D01*
X0425658Y0109300D01*
X0423158Y0111800D01*
X0408158Y0111800D01*
X0405658Y0109300D01*
X0405658Y0104300D01*
X0408158Y0101800D01*
X0408158Y0111800D02*
X0405658Y0114300D01*
X0405658Y0119300D01*
X0408158Y0121800D01*
X0423158Y0121800D01*
X0425658Y0119300D01*
X0425658Y0114300D01*
X0423158Y0111800D01*
X0423158Y0121800D02*
X0425658Y0124300D01*
X0425658Y0129300D01*
X0423158Y0131800D01*
X0421524Y0131800D01*
X0421524Y0165540D01*
X0312076Y0165540D01*
X0312076Y0058060D01*
X0421524Y0058060D01*
X0283335Y0057391D02*
X0277824Y0057391D01*
X0277824Y0065265D01*
X0283335Y0065265D01*
X0283335Y0057391D01*
X0280580Y0060343D02*
X0282154Y0062706D01*
X0279005Y0062706D01*
X0280580Y0060343D01*
X0280580Y0060934D02*
X0281367Y0062115D01*
X0279792Y0062115D01*
X0280580Y0060934D01*
X0280854Y0061345D02*
X0280305Y0061345D01*
X0269556Y0065265D02*
X0269556Y0057391D01*
X0264044Y0057391D01*
X0264044Y0065265D01*
X0269556Y0065265D01*
X0268375Y0062706D02*
X0265225Y0062706D01*
X0266800Y0060343D01*
X0268375Y0062706D01*
X0267587Y0062115D02*
X0266800Y0060934D01*
X0266013Y0062115D01*
X0267587Y0062115D01*
X0267074Y0061345D02*
X0266526Y0061345D01*
X0262863Y0074320D02*
X0254989Y0074320D01*
X0254989Y0079831D01*
X0262863Y0079831D01*
X0262863Y0074320D01*
X0260304Y0075501D02*
X0257942Y0077076D01*
X0260304Y0078650D01*
X0260304Y0075501D01*
X0259713Y0076288D02*
X0258532Y0077076D01*
X0259713Y0077863D01*
X0259713Y0076288D01*
X0259713Y0076517D02*
X0259371Y0076517D01*
X0259713Y0077315D02*
X0258892Y0077315D01*
X0262806Y0095647D02*
X0282606Y0095647D01*
X0282606Y0113622D01*
X0262806Y0113622D01*
X0262806Y0095647D01*
X0277306Y0109435D02*
X0277308Y0109519D01*
X0277314Y0109604D01*
X0277324Y0109687D01*
X0277338Y0109771D01*
X0277355Y0109853D01*
X0277377Y0109935D01*
X0277402Y0110015D01*
X0277431Y0110094D01*
X0277464Y0110172D01*
X0277500Y0110248D01*
X0277540Y0110323D01*
X0277584Y0110395D01*
X0277630Y0110466D01*
X0277680Y0110534D01*
X0277733Y0110599D01*
X0277789Y0110662D01*
X0277848Y0110723D01*
X0277910Y0110780D01*
X0277974Y0110835D01*
X0278041Y0110886D01*
X0278110Y0110935D01*
X0278182Y0110980D01*
X0278255Y0111021D01*
X0278330Y0111059D01*
X0278407Y0111094D01*
X0278486Y0111125D01*
X0278566Y0111152D01*
X0278647Y0111175D01*
X0278729Y0111195D01*
X0278812Y0111211D01*
X0278895Y0111223D01*
X0278980Y0111231D01*
X0279064Y0111235D01*
X0279148Y0111235D01*
X0279232Y0111231D01*
X0279317Y0111223D01*
X0279400Y0111211D01*
X0279483Y0111195D01*
X0279565Y0111175D01*
X0279646Y0111152D01*
X0279726Y0111125D01*
X0279805Y0111094D01*
X0279882Y0111059D01*
X0279957Y0111021D01*
X0280030Y0110980D01*
X0280102Y0110935D01*
X0280171Y0110886D01*
X0280238Y0110835D01*
X0280302Y0110780D01*
X0280364Y0110723D01*
X0280423Y0110662D01*
X0280479Y0110599D01*
X0280532Y0110534D01*
X0280582Y0110466D01*
X0280628Y0110395D01*
X0280672Y0110323D01*
X0280712Y0110248D01*
X0280748Y0110172D01*
X0280781Y0110094D01*
X0280810Y0110015D01*
X0280835Y0109935D01*
X0280857Y0109853D01*
X0280874Y0109771D01*
X0280888Y0109687D01*
X0280898Y0109604D01*
X0280904Y0109519D01*
X0280906Y0109435D01*
X0280904Y0109351D01*
X0280898Y0109266D01*
X0280888Y0109183D01*
X0280874Y0109099D01*
X0280857Y0109017D01*
X0280835Y0108935D01*
X0280810Y0108855D01*
X0280781Y0108776D01*
X0280748Y0108698D01*
X0280712Y0108622D01*
X0280672Y0108547D01*
X0280628Y0108475D01*
X0280582Y0108404D01*
X0280532Y0108336D01*
X0280479Y0108271D01*
X0280423Y0108208D01*
X0280364Y0108147D01*
X0280302Y0108090D01*
X0280238Y0108035D01*
X0280171Y0107984D01*
X0280102Y0107935D01*
X0280030Y0107890D01*
X0279957Y0107849D01*
X0279882Y0107811D01*
X0279805Y0107776D01*
X0279726Y0107745D01*
X0279646Y0107718D01*
X0279565Y0107695D01*
X0279483Y0107675D01*
X0279400Y0107659D01*
X0279317Y0107647D01*
X0279232Y0107639D01*
X0279148Y0107635D01*
X0279064Y0107635D01*
X0278980Y0107639D01*
X0278895Y0107647D01*
X0278812Y0107659D01*
X0278729Y0107675D01*
X0278647Y0107695D01*
X0278566Y0107718D01*
X0278486Y0107745D01*
X0278407Y0107776D01*
X0278330Y0107811D01*
X0278255Y0107849D01*
X0278182Y0107890D01*
X0278110Y0107935D01*
X0278041Y0107984D01*
X0277974Y0108035D01*
X0277910Y0108090D01*
X0277848Y0108147D01*
X0277789Y0108208D01*
X0277733Y0108271D01*
X0277680Y0108336D01*
X0277630Y0108404D01*
X0277584Y0108475D01*
X0277540Y0108547D01*
X0277500Y0108622D01*
X0277464Y0108698D01*
X0277431Y0108776D01*
X0277402Y0108855D01*
X0277377Y0108935D01*
X0277355Y0109017D01*
X0277338Y0109099D01*
X0277324Y0109183D01*
X0277314Y0109266D01*
X0277308Y0109351D01*
X0277306Y0109435D01*
X0211739Y0113622D02*
X0211739Y0095647D01*
X0191939Y0095647D01*
X0191939Y0113622D01*
X0211739Y0113622D01*
X0206439Y0109435D02*
X0206441Y0109519D01*
X0206447Y0109604D01*
X0206457Y0109687D01*
X0206471Y0109771D01*
X0206488Y0109853D01*
X0206510Y0109935D01*
X0206535Y0110015D01*
X0206564Y0110094D01*
X0206597Y0110172D01*
X0206633Y0110248D01*
X0206673Y0110323D01*
X0206717Y0110395D01*
X0206763Y0110466D01*
X0206813Y0110534D01*
X0206866Y0110599D01*
X0206922Y0110662D01*
X0206981Y0110723D01*
X0207043Y0110780D01*
X0207107Y0110835D01*
X0207174Y0110886D01*
X0207243Y0110935D01*
X0207315Y0110980D01*
X0207388Y0111021D01*
X0207463Y0111059D01*
X0207540Y0111094D01*
X0207619Y0111125D01*
X0207699Y0111152D01*
X0207780Y0111175D01*
X0207862Y0111195D01*
X0207945Y0111211D01*
X0208028Y0111223D01*
X0208113Y0111231D01*
X0208197Y0111235D01*
X0208281Y0111235D01*
X0208365Y0111231D01*
X0208450Y0111223D01*
X0208533Y0111211D01*
X0208616Y0111195D01*
X0208698Y0111175D01*
X0208779Y0111152D01*
X0208859Y0111125D01*
X0208938Y0111094D01*
X0209015Y0111059D01*
X0209090Y0111021D01*
X0209163Y0110980D01*
X0209235Y0110935D01*
X0209304Y0110886D01*
X0209371Y0110835D01*
X0209435Y0110780D01*
X0209497Y0110723D01*
X0209556Y0110662D01*
X0209612Y0110599D01*
X0209665Y0110534D01*
X0209715Y0110466D01*
X0209761Y0110395D01*
X0209805Y0110323D01*
X0209845Y0110248D01*
X0209881Y0110172D01*
X0209914Y0110094D01*
X0209943Y0110015D01*
X0209968Y0109935D01*
X0209990Y0109853D01*
X0210007Y0109771D01*
X0210021Y0109687D01*
X0210031Y0109604D01*
X0210037Y0109519D01*
X0210039Y0109435D01*
X0210037Y0109351D01*
X0210031Y0109266D01*
X0210021Y0109183D01*
X0210007Y0109099D01*
X0209990Y0109017D01*
X0209968Y0108935D01*
X0209943Y0108855D01*
X0209914Y0108776D01*
X0209881Y0108698D01*
X0209845Y0108622D01*
X0209805Y0108547D01*
X0209761Y0108475D01*
X0209715Y0108404D01*
X0209665Y0108336D01*
X0209612Y0108271D01*
X0209556Y0108208D01*
X0209497Y0108147D01*
X0209435Y0108090D01*
X0209371Y0108035D01*
X0209304Y0107984D01*
X0209235Y0107935D01*
X0209163Y0107890D01*
X0209090Y0107849D01*
X0209015Y0107811D01*
X0208938Y0107776D01*
X0208859Y0107745D01*
X0208779Y0107718D01*
X0208698Y0107695D01*
X0208616Y0107675D01*
X0208533Y0107659D01*
X0208450Y0107647D01*
X0208365Y0107639D01*
X0208281Y0107635D01*
X0208197Y0107635D01*
X0208113Y0107639D01*
X0208028Y0107647D01*
X0207945Y0107659D01*
X0207862Y0107675D01*
X0207780Y0107695D01*
X0207699Y0107718D01*
X0207619Y0107745D01*
X0207540Y0107776D01*
X0207463Y0107811D01*
X0207388Y0107849D01*
X0207315Y0107890D01*
X0207243Y0107935D01*
X0207174Y0107984D01*
X0207107Y0108035D01*
X0207043Y0108090D01*
X0206981Y0108147D01*
X0206922Y0108208D01*
X0206866Y0108271D01*
X0206813Y0108336D01*
X0206763Y0108404D01*
X0206717Y0108475D01*
X0206673Y0108547D01*
X0206633Y0108622D01*
X0206597Y0108698D01*
X0206564Y0108776D01*
X0206535Y0108855D01*
X0206510Y0108935D01*
X0206488Y0109017D01*
X0206471Y0109099D01*
X0206457Y0109183D01*
X0206447Y0109266D01*
X0206441Y0109351D01*
X0206439Y0109435D01*
X0140873Y0113622D02*
X0140873Y0095647D01*
X0121073Y0095647D01*
X0121073Y0113622D01*
X0140873Y0113622D01*
X0135573Y0109435D02*
X0135575Y0109519D01*
X0135581Y0109604D01*
X0135591Y0109687D01*
X0135605Y0109771D01*
X0135622Y0109853D01*
X0135644Y0109935D01*
X0135669Y0110015D01*
X0135698Y0110094D01*
X0135731Y0110172D01*
X0135767Y0110248D01*
X0135807Y0110323D01*
X0135851Y0110395D01*
X0135897Y0110466D01*
X0135947Y0110534D01*
X0136000Y0110599D01*
X0136056Y0110662D01*
X0136115Y0110723D01*
X0136177Y0110780D01*
X0136241Y0110835D01*
X0136308Y0110886D01*
X0136377Y0110935D01*
X0136449Y0110980D01*
X0136522Y0111021D01*
X0136597Y0111059D01*
X0136674Y0111094D01*
X0136753Y0111125D01*
X0136833Y0111152D01*
X0136914Y0111175D01*
X0136996Y0111195D01*
X0137079Y0111211D01*
X0137162Y0111223D01*
X0137247Y0111231D01*
X0137331Y0111235D01*
X0137415Y0111235D01*
X0137499Y0111231D01*
X0137584Y0111223D01*
X0137667Y0111211D01*
X0137750Y0111195D01*
X0137832Y0111175D01*
X0137913Y0111152D01*
X0137993Y0111125D01*
X0138072Y0111094D01*
X0138149Y0111059D01*
X0138224Y0111021D01*
X0138297Y0110980D01*
X0138369Y0110935D01*
X0138438Y0110886D01*
X0138505Y0110835D01*
X0138569Y0110780D01*
X0138631Y0110723D01*
X0138690Y0110662D01*
X0138746Y0110599D01*
X0138799Y0110534D01*
X0138849Y0110466D01*
X0138895Y0110395D01*
X0138939Y0110323D01*
X0138979Y0110248D01*
X0139015Y0110172D01*
X0139048Y0110094D01*
X0139077Y0110015D01*
X0139102Y0109935D01*
X0139124Y0109853D01*
X0139141Y0109771D01*
X0139155Y0109687D01*
X0139165Y0109604D01*
X0139171Y0109519D01*
X0139173Y0109435D01*
X0139171Y0109351D01*
X0139165Y0109266D01*
X0139155Y0109183D01*
X0139141Y0109099D01*
X0139124Y0109017D01*
X0139102Y0108935D01*
X0139077Y0108855D01*
X0139048Y0108776D01*
X0139015Y0108698D01*
X0138979Y0108622D01*
X0138939Y0108547D01*
X0138895Y0108475D01*
X0138849Y0108404D01*
X0138799Y0108336D01*
X0138746Y0108271D01*
X0138690Y0108208D01*
X0138631Y0108147D01*
X0138569Y0108090D01*
X0138505Y0108035D01*
X0138438Y0107984D01*
X0138369Y0107935D01*
X0138297Y0107890D01*
X0138224Y0107849D01*
X0138149Y0107811D01*
X0138072Y0107776D01*
X0137993Y0107745D01*
X0137913Y0107718D01*
X0137832Y0107695D01*
X0137750Y0107675D01*
X0137667Y0107659D01*
X0137584Y0107647D01*
X0137499Y0107639D01*
X0137415Y0107635D01*
X0137331Y0107635D01*
X0137247Y0107639D01*
X0137162Y0107647D01*
X0137079Y0107659D01*
X0136996Y0107675D01*
X0136914Y0107695D01*
X0136833Y0107718D01*
X0136753Y0107745D01*
X0136674Y0107776D01*
X0136597Y0107811D01*
X0136522Y0107849D01*
X0136449Y0107890D01*
X0136377Y0107935D01*
X0136308Y0107984D01*
X0136241Y0108035D01*
X0136177Y0108090D01*
X0136115Y0108147D01*
X0136056Y0108208D01*
X0136000Y0108271D01*
X0135947Y0108336D01*
X0135897Y0108404D01*
X0135851Y0108475D01*
X0135807Y0108547D01*
X0135767Y0108622D01*
X0135731Y0108698D01*
X0135698Y0108776D01*
X0135669Y0108855D01*
X0135644Y0108935D01*
X0135622Y0109017D01*
X0135605Y0109099D01*
X0135591Y0109183D01*
X0135581Y0109266D01*
X0135575Y0109351D01*
X0135573Y0109435D01*
X0070007Y0113622D02*
X0070007Y0095647D01*
X0050207Y0095647D01*
X0050207Y0113622D01*
X0070007Y0113622D01*
X0064707Y0109435D02*
X0064709Y0109519D01*
X0064715Y0109604D01*
X0064725Y0109687D01*
X0064739Y0109771D01*
X0064756Y0109853D01*
X0064778Y0109935D01*
X0064803Y0110015D01*
X0064832Y0110094D01*
X0064865Y0110172D01*
X0064901Y0110248D01*
X0064941Y0110323D01*
X0064985Y0110395D01*
X0065031Y0110466D01*
X0065081Y0110534D01*
X0065134Y0110599D01*
X0065190Y0110662D01*
X0065249Y0110723D01*
X0065311Y0110780D01*
X0065375Y0110835D01*
X0065442Y0110886D01*
X0065511Y0110935D01*
X0065583Y0110980D01*
X0065656Y0111021D01*
X0065731Y0111059D01*
X0065808Y0111094D01*
X0065887Y0111125D01*
X0065967Y0111152D01*
X0066048Y0111175D01*
X0066130Y0111195D01*
X0066213Y0111211D01*
X0066296Y0111223D01*
X0066381Y0111231D01*
X0066465Y0111235D01*
X0066549Y0111235D01*
X0066633Y0111231D01*
X0066718Y0111223D01*
X0066801Y0111211D01*
X0066884Y0111195D01*
X0066966Y0111175D01*
X0067047Y0111152D01*
X0067127Y0111125D01*
X0067206Y0111094D01*
X0067283Y0111059D01*
X0067358Y0111021D01*
X0067431Y0110980D01*
X0067503Y0110935D01*
X0067572Y0110886D01*
X0067639Y0110835D01*
X0067703Y0110780D01*
X0067765Y0110723D01*
X0067824Y0110662D01*
X0067880Y0110599D01*
X0067933Y0110534D01*
X0067983Y0110466D01*
X0068029Y0110395D01*
X0068073Y0110323D01*
X0068113Y0110248D01*
X0068149Y0110172D01*
X0068182Y0110094D01*
X0068211Y0110015D01*
X0068236Y0109935D01*
X0068258Y0109853D01*
X0068275Y0109771D01*
X0068289Y0109687D01*
X0068299Y0109604D01*
X0068305Y0109519D01*
X0068307Y0109435D01*
X0068305Y0109351D01*
X0068299Y0109266D01*
X0068289Y0109183D01*
X0068275Y0109099D01*
X0068258Y0109017D01*
X0068236Y0108935D01*
X0068211Y0108855D01*
X0068182Y0108776D01*
X0068149Y0108698D01*
X0068113Y0108622D01*
X0068073Y0108547D01*
X0068029Y0108475D01*
X0067983Y0108404D01*
X0067933Y0108336D01*
X0067880Y0108271D01*
X0067824Y0108208D01*
X0067765Y0108147D01*
X0067703Y0108090D01*
X0067639Y0108035D01*
X0067572Y0107984D01*
X0067503Y0107935D01*
X0067431Y0107890D01*
X0067358Y0107849D01*
X0067283Y0107811D01*
X0067206Y0107776D01*
X0067127Y0107745D01*
X0067047Y0107718D01*
X0066966Y0107695D01*
X0066884Y0107675D01*
X0066801Y0107659D01*
X0066718Y0107647D01*
X0066633Y0107639D01*
X0066549Y0107635D01*
X0066465Y0107635D01*
X0066381Y0107639D01*
X0066296Y0107647D01*
X0066213Y0107659D01*
X0066130Y0107675D01*
X0066048Y0107695D01*
X0065967Y0107718D01*
X0065887Y0107745D01*
X0065808Y0107776D01*
X0065731Y0107811D01*
X0065656Y0107849D01*
X0065583Y0107890D01*
X0065511Y0107935D01*
X0065442Y0107984D01*
X0065375Y0108035D01*
X0065311Y0108090D01*
X0065249Y0108147D01*
X0065190Y0108208D01*
X0065134Y0108271D01*
X0065081Y0108336D01*
X0065031Y0108404D01*
X0064985Y0108475D01*
X0064941Y0108547D01*
X0064901Y0108622D01*
X0064865Y0108698D01*
X0064832Y0108776D01*
X0064803Y0108855D01*
X0064778Y0108935D01*
X0064756Y0109017D01*
X0064739Y0109099D01*
X0064725Y0109183D01*
X0064715Y0109266D01*
X0064709Y0109351D01*
X0064707Y0109435D01*
X0050265Y0079831D02*
X0042391Y0079831D01*
X0042391Y0074320D01*
X0050265Y0074320D01*
X0050265Y0079831D01*
X0047706Y0078650D02*
X0045343Y0077076D01*
X0047706Y0075501D01*
X0047706Y0078650D01*
X0047115Y0077863D02*
X0047115Y0076288D01*
X0045934Y0077076D01*
X0047115Y0077863D01*
X0047115Y0077315D02*
X0046293Y0077315D01*
X0046772Y0076517D02*
X0047115Y0076517D01*
X0051446Y0065265D02*
X0056957Y0065265D01*
X0056957Y0057391D01*
X0051446Y0057391D01*
X0051446Y0065265D01*
X0052627Y0062706D02*
X0055776Y0062706D01*
X0054202Y0060343D01*
X0052627Y0062706D01*
X0053414Y0062115D02*
X0054989Y0062115D01*
X0054202Y0060934D01*
X0053414Y0062115D01*
X0053928Y0061345D02*
X0054476Y0061345D01*
X0065225Y0065265D02*
X0065225Y0057391D01*
X0070737Y0057391D01*
X0070737Y0065265D01*
X0065225Y0065265D01*
X0066406Y0062706D02*
X0069556Y0062706D01*
X0067981Y0060343D01*
X0066406Y0062706D01*
X0067194Y0062115D02*
X0068769Y0062115D01*
X0067981Y0060934D01*
X0067194Y0062115D01*
X0067707Y0061345D02*
X0068255Y0061345D01*
X0111209Y0072981D02*
X0111209Y0078493D01*
X0119083Y0078493D01*
X0119083Y0072981D01*
X0111209Y0072981D01*
X0114162Y0075737D02*
X0116524Y0074162D01*
X0116524Y0077312D01*
X0114162Y0075737D01*
X0114753Y0075737D02*
X0115934Y0074950D01*
X0115934Y0076524D01*
X0114753Y0075737D01*
X0114781Y0075718D02*
X0115934Y0075718D01*
X0115922Y0076517D02*
X0115934Y0076517D01*
X0122312Y0065265D02*
X0127824Y0065265D01*
X0127824Y0057391D01*
X0122312Y0057391D01*
X0122312Y0065265D01*
X0123493Y0062706D02*
X0126643Y0062706D01*
X0125068Y0060343D01*
X0123493Y0062706D01*
X0124280Y0062115D02*
X0125855Y0062115D01*
X0125068Y0060934D01*
X0124280Y0062115D01*
X0124794Y0061345D02*
X0125342Y0061345D01*
X0136091Y0065265D02*
X0136091Y0057391D01*
X0141603Y0057391D01*
X0141603Y0065265D01*
X0136091Y0065265D01*
X0137272Y0062706D02*
X0140422Y0062706D01*
X0138847Y0060343D01*
X0137272Y0062706D01*
X0138060Y0062115D02*
X0139635Y0062115D01*
X0138847Y0060934D01*
X0138060Y0062115D01*
X0138573Y0061345D02*
X0139121Y0061345D01*
X0182154Y0074320D02*
X0182154Y0079831D01*
X0190028Y0079831D01*
X0190028Y0074320D01*
X0182154Y0074320D01*
X0185107Y0077076D02*
X0187469Y0075501D01*
X0187469Y0078650D01*
X0185107Y0077076D01*
X0185698Y0077076D02*
X0186879Y0076288D01*
X0186879Y0077863D01*
X0185698Y0077076D01*
X0186057Y0077315D02*
X0186879Y0077315D01*
X0186879Y0076517D02*
X0186536Y0076517D01*
X0193178Y0065265D02*
X0198690Y0065265D01*
X0198690Y0057391D01*
X0193178Y0057391D01*
X0193178Y0065265D01*
X0194359Y0062706D02*
X0197509Y0062706D01*
X0195934Y0060343D01*
X0194359Y0062706D01*
X0195146Y0062115D02*
X0196721Y0062115D01*
X0195934Y0060934D01*
X0195146Y0062115D01*
X0195660Y0061345D02*
X0196208Y0061345D01*
X0206957Y0065265D02*
X0206957Y0057391D01*
X0212469Y0057391D01*
X0212469Y0065265D01*
X0206957Y0065265D01*
X0208139Y0062706D02*
X0211288Y0062706D01*
X0209713Y0060343D01*
X0208139Y0062706D01*
X0208926Y0062115D02*
X0210501Y0062115D01*
X0209713Y0060934D01*
X0208926Y0062115D01*
X0209439Y0061345D02*
X0209987Y0061345D01*
X0234202Y0140068D02*
X0169477Y0140068D01*
X0169477Y0187312D01*
X0234202Y0187312D01*
X0234202Y0140068D01*
X0240343Y0140068D02*
X0305068Y0140068D01*
X0305068Y0187312D01*
X0240343Y0187312D01*
X0240343Y0140068D01*
X0163335Y0140068D02*
X0098611Y0140068D01*
X0098611Y0187312D01*
X0163335Y0187312D01*
X0163335Y0140068D01*
X0092469Y0140068D02*
X0027745Y0140068D01*
X0027745Y0187312D01*
X0092469Y0187312D01*
X0092469Y0140068D01*
X0405658Y0129300D02*
X0405658Y0124300D01*
X0408158Y0121800D01*
X0405658Y0129300D02*
X0408158Y0131800D01*
X0421524Y0131800D01*
D15*
X0403667Y0128337D02*
X0403667Y0125267D01*
X0402900Y0124500D01*
X0400598Y0124500D01*
X0400598Y0129104D01*
X0402900Y0129104D01*
X0403667Y0128337D01*
X0399063Y0129104D02*
X0399063Y0124500D01*
X0395994Y0129104D01*
X0395994Y0124500D01*
X0394459Y0125267D02*
X0393692Y0124500D01*
X0392157Y0124500D01*
X0391390Y0125267D01*
X0391390Y0128337D01*
X0392157Y0129104D01*
X0393692Y0129104D01*
X0394459Y0128337D01*
X0394459Y0126802D02*
X0392924Y0126802D01*
X0394459Y0126802D02*
X0394459Y0125267D01*
X0394459Y0119104D02*
X0394459Y0116035D01*
X0392924Y0114500D01*
X0391390Y0116035D01*
X0391390Y0119104D01*
X0395994Y0118337D02*
X0395994Y0115267D01*
X0396761Y0114500D01*
X0398296Y0114500D01*
X0399063Y0115267D01*
X0400598Y0115267D02*
X0401365Y0114500D01*
X0402900Y0114500D01*
X0403667Y0115267D01*
X0400598Y0115267D02*
X0400598Y0118337D01*
X0401365Y0119104D01*
X0402900Y0119104D01*
X0403667Y0118337D01*
X0399063Y0118337D02*
X0398296Y0119104D01*
X0396761Y0119104D01*
X0395994Y0118337D01*
X0396761Y0109104D02*
X0395994Y0108337D01*
X0395994Y0105267D01*
X0396761Y0104500D01*
X0398296Y0104500D01*
X0399063Y0105267D01*
X0400598Y0104500D02*
X0403667Y0104500D01*
X0400598Y0104500D02*
X0400598Y0109104D01*
X0399063Y0108337D02*
X0398296Y0109104D01*
X0396761Y0109104D01*
X0394459Y0108337D02*
X0393692Y0109104D01*
X0392157Y0109104D01*
X0391390Y0108337D01*
X0391390Y0107569D01*
X0392157Y0106802D01*
X0393692Y0106802D01*
X0394459Y0106035D01*
X0394459Y0105267D01*
X0393692Y0104500D01*
X0392157Y0104500D01*
X0391390Y0105267D01*
X0392157Y0099104D02*
X0391390Y0098337D01*
X0391390Y0097569D01*
X0392157Y0096802D01*
X0393692Y0096802D01*
X0394459Y0096035D01*
X0394459Y0095267D01*
X0393692Y0094500D01*
X0392157Y0094500D01*
X0391390Y0095267D01*
X0394459Y0098337D02*
X0393692Y0099104D01*
X0392157Y0099104D01*
X0395994Y0099104D02*
X0398296Y0099104D01*
X0399063Y0098337D01*
X0399063Y0095267D01*
X0398296Y0094500D01*
X0395994Y0094500D01*
X0395994Y0099104D01*
X0400598Y0097569D02*
X0402132Y0099104D01*
X0403667Y0097569D01*
X0403667Y0094500D01*
X0403667Y0096802D02*
X0400598Y0096802D01*
X0400598Y0097569D02*
X0400598Y0094500D01*
X0320635Y0116703D02*
X0316031Y0116703D01*
X0316031Y0119005D01*
X0316798Y0119772D01*
X0318333Y0119772D01*
X0319100Y0119005D01*
X0319100Y0116703D01*
X0316798Y0115168D02*
X0316798Y0112099D01*
X0316798Y0110564D02*
X0316798Y0107495D01*
X0314496Y0109797D01*
X0319100Y0109797D01*
X0318333Y0101357D02*
X0319100Y0100589D01*
X0319100Y0099055D01*
X0318333Y0098287D01*
X0315263Y0098287D01*
X0314496Y0099055D01*
X0314496Y0100589D01*
X0315263Y0101357D01*
X0315263Y0096753D02*
X0314496Y0095985D01*
X0314496Y0094451D01*
X0315263Y0093683D01*
X0314496Y0092149D02*
X0314496Y0090614D01*
X0314496Y0091381D02*
X0319100Y0091381D01*
X0319100Y0090614D02*
X0319100Y0092149D01*
X0319100Y0093683D02*
X0316031Y0096753D01*
X0315263Y0096753D01*
X0319100Y0096753D02*
X0319100Y0093683D01*
X0318333Y0084476D02*
X0317565Y0084476D01*
X0316798Y0083708D01*
X0316798Y0081406D01*
X0318333Y0081406D01*
X0319100Y0082174D01*
X0319100Y0083708D01*
X0318333Y0084476D01*
X0315263Y0082941D02*
X0314496Y0084476D01*
X0315263Y0082941D02*
X0316798Y0081406D01*
X0316798Y0079872D02*
X0316798Y0077570D01*
X0316031Y0076802D01*
X0315263Y0076802D01*
X0314496Y0077570D01*
X0314496Y0079104D01*
X0315263Y0079872D01*
X0318333Y0079872D01*
X0319100Y0079104D01*
X0319100Y0077570D01*
X0318333Y0076802D01*
X0318333Y0075268D02*
X0319100Y0075268D01*
X0319100Y0074500D01*
X0318333Y0074500D01*
X0318333Y0075268D01*
X0318333Y0072966D02*
X0319100Y0072198D01*
X0319100Y0070664D01*
X0318333Y0069896D01*
X0315263Y0072966D01*
X0318333Y0072966D01*
X0315263Y0072966D02*
X0314496Y0072198D01*
X0314496Y0070664D01*
X0315263Y0069896D01*
X0318333Y0069896D01*
X0291052Y0062828D02*
X0291052Y0059828D01*
X0285855Y0059828D02*
X0285855Y0062729D01*
X0261524Y0062828D02*
X0261524Y0059828D01*
X0256328Y0059828D02*
X0256328Y0062729D01*
X0220186Y0062828D02*
X0220186Y0059828D01*
X0214989Y0059828D02*
X0214989Y0062729D01*
X0188690Y0062828D02*
X0188690Y0059828D01*
X0183493Y0059828D02*
X0183493Y0062729D01*
X0149320Y0062828D02*
X0149320Y0059828D01*
X0144123Y0059828D02*
X0144123Y0062729D01*
X0117824Y0062828D02*
X0117824Y0059828D01*
X0112627Y0059828D02*
X0112627Y0062729D01*
X0078454Y0062828D02*
X0078454Y0059828D01*
X0073257Y0059828D02*
X0073257Y0062729D01*
X0048926Y0062828D02*
X0048926Y0059828D01*
X0043729Y0059828D02*
X0043729Y0062729D01*
X0044828Y0082351D02*
X0047828Y0082351D01*
X0047729Y0087548D02*
X0044828Y0087548D01*
X0044989Y0095359D02*
X0044989Y0098261D01*
X0039792Y0098261D02*
X0039792Y0095261D01*
X0039792Y0111009D02*
X0039792Y0113910D01*
X0044989Y0114009D02*
X0044989Y0111009D01*
X0043891Y0121721D02*
X0040891Y0121721D01*
X0040891Y0126918D02*
X0043792Y0126918D01*
X0043891Y0129595D02*
X0040989Y0129595D01*
X0040891Y0134792D02*
X0043891Y0134792D01*
X0058607Y0134792D02*
X0061509Y0134792D01*
X0061607Y0129595D02*
X0058607Y0129595D01*
X0076324Y0129595D02*
X0079324Y0129595D01*
X0079225Y0134792D02*
X0076324Y0134792D01*
X0075225Y0119914D02*
X0075225Y0116914D01*
X0080422Y0117013D02*
X0080422Y0119914D01*
X0110658Y0113910D02*
X0110658Y0111009D01*
X0115855Y0111009D02*
X0115855Y0114009D01*
X0114757Y0121721D02*
X0111757Y0121721D01*
X0111757Y0126918D02*
X0114658Y0126918D01*
X0114757Y0129595D02*
X0111855Y0129595D01*
X0111757Y0134792D02*
X0114757Y0134792D01*
X0129473Y0134792D02*
X0132375Y0134792D01*
X0132473Y0129595D02*
X0129473Y0129595D01*
X0147190Y0129595D02*
X0150190Y0129595D01*
X0150091Y0134792D02*
X0147190Y0134792D01*
X0182623Y0134792D02*
X0185623Y0134792D01*
X0185623Y0129595D02*
X0182721Y0129595D01*
X0182623Y0126918D02*
X0185524Y0126918D01*
X0185623Y0121721D02*
X0182623Y0121721D01*
X0181524Y0113910D02*
X0181524Y0111009D01*
X0186721Y0111009D02*
X0186721Y0114009D01*
X0218926Y0116914D02*
X0218926Y0119914D01*
X0224123Y0119914D02*
X0224123Y0117013D01*
X0223024Y0129595D02*
X0220024Y0129595D01*
X0220024Y0134792D02*
X0222926Y0134792D01*
X0203241Y0134792D02*
X0200339Y0134792D01*
X0200339Y0129595D02*
X0203339Y0129595D01*
X0253489Y0126918D02*
X0256391Y0126918D01*
X0256489Y0129595D02*
X0253587Y0129595D01*
X0253489Y0134792D02*
X0256489Y0134792D01*
X0271206Y0134792D02*
X0274107Y0134792D01*
X0274206Y0129595D02*
X0271206Y0129595D01*
X0256489Y0121721D02*
X0253489Y0121721D01*
X0252391Y0113910D02*
X0252391Y0111009D01*
X0257587Y0111009D02*
X0257587Y0114009D01*
X0287824Y0116914D02*
X0287824Y0119914D01*
X0293020Y0119914D02*
X0293020Y0117013D01*
X0313729Y0122074D02*
X0314496Y0122074D01*
X0316031Y0122074D02*
X0319100Y0122074D01*
X0319100Y0121307D02*
X0319100Y0122842D01*
X0319100Y0124376D02*
X0316031Y0124376D01*
X0316031Y0126678D01*
X0316798Y0127446D01*
X0319100Y0127446D01*
X0318333Y0133584D02*
X0319100Y0134351D01*
X0319100Y0135886D01*
X0318333Y0136653D01*
X0315263Y0136653D01*
X0314496Y0135886D01*
X0314496Y0134351D01*
X0315263Y0133584D01*
X0318333Y0133584D01*
X0319100Y0138188D02*
X0319100Y0141257D01*
X0319100Y0142792D02*
X0319100Y0145861D01*
X0319100Y0147396D02*
X0319100Y0149698D01*
X0318333Y0150465D01*
X0315263Y0150465D01*
X0314496Y0149698D01*
X0314496Y0147396D01*
X0319100Y0147396D01*
X0316798Y0144327D02*
X0316798Y0142792D01*
X0314496Y0142792D02*
X0319100Y0142792D01*
X0314496Y0142792D02*
X0314496Y0145861D01*
X0314496Y0138188D02*
X0319100Y0138188D01*
X0291824Y0134792D02*
X0288922Y0134792D01*
X0288922Y0129595D02*
X0291922Y0129595D01*
X0316031Y0122074D02*
X0316031Y0121307D01*
X0257587Y0098261D02*
X0257587Y0095359D01*
X0252391Y0095261D02*
X0252391Y0098261D01*
X0258922Y0087312D02*
X0261824Y0087312D01*
X0261922Y0082115D02*
X0258922Y0082115D01*
X0189560Y0082351D02*
X0186560Y0082351D01*
X0186560Y0087548D02*
X0189461Y0087548D01*
X0186800Y0096068D02*
X0186800Y0098969D01*
X0181603Y0098969D02*
X0181603Y0095969D01*
X0151288Y0117013D02*
X0151288Y0119914D01*
X0146091Y0119914D02*
X0146091Y0116914D01*
X0115855Y0098261D02*
X0115855Y0095359D01*
X0110658Y0095261D02*
X0110658Y0098261D01*
X0115772Y0086761D02*
X0118674Y0086761D01*
X0118772Y0081564D02*
X0115772Y0081564D01*
D16*
X0123296Y0093997D03*
X0125855Y0093997D03*
X0128414Y0093997D03*
X0130973Y0093997D03*
X0133532Y0093997D03*
X0136091Y0093997D03*
X0138650Y0093997D03*
X0138650Y0115272D03*
X0136091Y0115272D03*
X0133532Y0115272D03*
X0130973Y0115272D03*
X0128414Y0115272D03*
X0125855Y0115272D03*
X0123296Y0115272D03*
X0067784Y0115272D03*
X0065225Y0115272D03*
X0062666Y0115272D03*
X0060107Y0115272D03*
X0057548Y0115272D03*
X0054989Y0115272D03*
X0052430Y0115272D03*
X0052430Y0093997D03*
X0054989Y0093997D03*
X0057548Y0093997D03*
X0060107Y0093997D03*
X0062666Y0093997D03*
X0065225Y0093997D03*
X0067784Y0093997D03*
X0194162Y0093997D03*
X0196721Y0093997D03*
X0199280Y0093997D03*
X0201839Y0093997D03*
X0204398Y0093997D03*
X0206957Y0093997D03*
X0209517Y0093997D03*
X0209517Y0115272D03*
X0206957Y0115272D03*
X0204398Y0115272D03*
X0201839Y0115272D03*
X0199280Y0115272D03*
X0196721Y0115272D03*
X0194162Y0115272D03*
X0265028Y0115272D03*
X0267587Y0115272D03*
X0270146Y0115272D03*
X0272706Y0115272D03*
X0275265Y0115272D03*
X0277824Y0115272D03*
X0280383Y0115272D03*
X0280383Y0093997D03*
X0277824Y0093997D03*
X0275265Y0093997D03*
X0272706Y0093997D03*
X0270146Y0093997D03*
X0267587Y0093997D03*
X0265028Y0093997D03*
D17*
X0254984Y0093937D03*
X0254984Y0099637D03*
X0254994Y0109632D03*
X0254994Y0115332D03*
X0221520Y0115591D03*
X0221520Y0121291D03*
X0184127Y0115332D03*
X0184127Y0109632D03*
X0184197Y0100346D03*
X0184197Y0094646D03*
X0148685Y0115591D03*
X0148685Y0121291D03*
X0113261Y0115332D03*
X0113261Y0109632D03*
X0113252Y0099637D03*
X0113252Y0093937D03*
X0077819Y0115591D03*
X0077819Y0121291D03*
X0042395Y0115332D03*
X0042395Y0109632D03*
X0042386Y0099637D03*
X0042386Y0093937D03*
X0046332Y0064151D03*
X0046332Y0058451D03*
X0075860Y0058451D03*
X0075860Y0064151D03*
X0115230Y0064151D03*
X0115230Y0058451D03*
X0146726Y0058451D03*
X0146726Y0064151D03*
X0186096Y0064151D03*
X0186096Y0058451D03*
X0217592Y0058451D03*
X0217592Y0064151D03*
X0258931Y0064151D03*
X0258931Y0058451D03*
X0288458Y0058451D03*
X0288458Y0064151D03*
X0290418Y0115591D03*
X0290418Y0121291D03*
D18*
X0288422Y0118414D02*
X0292422Y0118414D01*
X0290422Y0130194D02*
X0290422Y0134194D01*
X0272706Y0134194D02*
X0272706Y0130194D01*
X0254989Y0130194D02*
X0254989Y0134194D01*
X0254989Y0126320D02*
X0254989Y0122320D01*
X0256989Y0112509D02*
X0252989Y0112509D01*
X0223524Y0118414D02*
X0219524Y0118414D01*
X0221524Y0130194D02*
X0221524Y0134194D01*
X0201839Y0134194D02*
X0201839Y0130194D01*
X0184123Y0130194D02*
X0184123Y0134194D01*
X0184123Y0126320D02*
X0184123Y0122320D01*
X0186123Y0112509D02*
X0182123Y0112509D01*
X0150690Y0118414D02*
X0146690Y0118414D01*
X0148690Y0130194D02*
X0148690Y0134194D01*
X0130973Y0134194D02*
X0130973Y0130194D01*
X0113257Y0130194D02*
X0113257Y0134194D01*
X0113257Y0126320D02*
X0113257Y0122320D01*
X0115257Y0112509D02*
X0111257Y0112509D01*
X0079824Y0118414D02*
X0075824Y0118414D01*
X0077824Y0130194D02*
X0077824Y0134194D01*
X0060107Y0134194D02*
X0060107Y0130194D01*
X0042391Y0130194D02*
X0042391Y0134194D01*
X0042391Y0126320D02*
X0042391Y0122320D01*
X0044391Y0112509D02*
X0040391Y0112509D01*
X0040391Y0096761D02*
X0044391Y0096761D01*
X0046328Y0086950D02*
X0046328Y0082950D01*
X0048328Y0061328D02*
X0044328Y0061328D01*
X0073855Y0061328D02*
X0077855Y0061328D01*
X0113225Y0061328D02*
X0117225Y0061328D01*
X0144721Y0061328D02*
X0148721Y0061328D01*
X0184091Y0061328D02*
X0188091Y0061328D01*
X0215587Y0061328D02*
X0219587Y0061328D01*
X0256926Y0061328D02*
X0260926Y0061328D01*
X0286454Y0061328D02*
X0290454Y0061328D01*
X0260422Y0082713D02*
X0260422Y0086713D01*
X0256989Y0096761D02*
X0252989Y0096761D01*
X0188060Y0086950D02*
X0188060Y0082950D01*
X0186202Y0097469D02*
X0182202Y0097469D01*
X0117272Y0086162D02*
X0117272Y0082162D01*
X0115257Y0096761D02*
X0111257Y0096761D01*
D19*
X0114396Y0084158D03*
X0120096Y0084158D03*
X0185183Y0084945D03*
X0190883Y0084945D03*
X0257545Y0084709D03*
X0263245Y0084709D03*
X0257812Y0124315D03*
X0252112Y0124315D03*
X0252166Y0132198D03*
X0257866Y0132198D03*
X0269829Y0132189D03*
X0275529Y0132189D03*
X0287545Y0132189D03*
X0293245Y0132189D03*
X0224348Y0132189D03*
X0218648Y0132189D03*
X0204663Y0132189D03*
X0198963Y0132189D03*
X0186999Y0132198D03*
X0181299Y0132198D03*
X0181246Y0124315D03*
X0186946Y0124315D03*
X0151513Y0132189D03*
X0145813Y0132189D03*
X0133797Y0132189D03*
X0128097Y0132189D03*
X0116133Y0132198D03*
X0110433Y0132198D03*
X0110380Y0124315D03*
X0116080Y0124315D03*
X0080647Y0132189D03*
X0074947Y0132189D03*
X0062931Y0132189D03*
X0057231Y0132189D03*
X0045267Y0132198D03*
X0039567Y0132198D03*
X0039514Y0124315D03*
X0045214Y0124315D03*
X0043451Y0084945D03*
X0049151Y0084945D03*
D20*
X0044950Y0077076D03*
X0113769Y0075737D03*
X0184713Y0077076D03*
X0257548Y0077076D03*
D21*
X0266800Y0059950D03*
X0280580Y0059950D03*
X0209713Y0059950D03*
X0195934Y0059950D03*
X0138847Y0059950D03*
X0125068Y0059950D03*
X0067981Y0059950D03*
X0054202Y0059950D03*
M02*
