G75*
%MOIN*%
%OFA0B0*%
%FSLAX25Y25*%
%IPPOS*%
%LPD*%
%AMOC8*
5,1,8,0,0,1.08239X$1,22.5*
%
%ADD10C,0.00600*%
%ADD11C,0.00400*%
%ADD12C,0.00300*%
%ADD13R,0.02000X0.02000*%
%ADD14C,0.00500*%
D10*
X0316800Y0059300D02*
X0319300Y0056800D01*
X0324300Y0056800D01*
X0326800Y0059300D01*
X0329300Y0056800D01*
X0334300Y0056800D01*
X0336800Y0059300D01*
X0336800Y0064300D01*
X0334300Y0066800D01*
X0329300Y0066800D01*
X0326800Y0064300D01*
X0324300Y0066800D01*
X0319300Y0066800D01*
X0316800Y0064300D01*
X0316800Y0059300D01*
X0326800Y0059300D02*
X0326800Y0064300D01*
X0336800Y0064300D02*
X0339300Y0066800D01*
X0344300Y0066800D01*
X0346800Y0064300D01*
X0349300Y0066800D01*
X0354300Y0066800D01*
X0356800Y0064300D01*
X0359300Y0066800D01*
X0364300Y0066800D01*
X0366800Y0064300D01*
X0366800Y0059300D01*
X0364300Y0056800D01*
X0359300Y0056800D01*
X0356800Y0059300D01*
X0356800Y0064300D01*
X0356800Y0059300D02*
X0354300Y0056800D01*
X0349300Y0056800D01*
X0346800Y0059300D01*
X0346800Y0064300D01*
X0346800Y0059300D02*
X0344300Y0056800D01*
X0339300Y0056800D01*
X0336800Y0059300D01*
X0366800Y0059300D02*
X0369300Y0056800D01*
X0374300Y0056800D01*
X0376800Y0059300D01*
X0379300Y0056800D01*
X0384300Y0056800D01*
X0386800Y0059300D01*
X0389300Y0056800D01*
X0394300Y0056800D01*
X0396800Y0059300D01*
X0396800Y0064300D01*
X0394300Y0066800D01*
X0389300Y0066800D01*
X0386800Y0064300D01*
X0384300Y0066800D01*
X0379300Y0066800D01*
X0376800Y0064300D01*
X0374300Y0066800D01*
X0369300Y0066800D01*
X0366800Y0064300D01*
X0376800Y0064300D02*
X0376800Y0059300D01*
X0386800Y0059300D02*
X0386800Y0064300D01*
X0396800Y0064300D02*
X0399300Y0066800D01*
X0404300Y0066800D01*
X0406800Y0064300D01*
X0409300Y0066800D01*
X0414300Y0066800D01*
X0416800Y0064300D01*
X0416800Y0059300D01*
X0414300Y0056800D01*
X0409300Y0056800D01*
X0406800Y0059300D01*
X0406800Y0064300D01*
X0406800Y0059300D02*
X0404300Y0056800D01*
X0399300Y0056800D01*
X0396800Y0059300D01*
X0378050Y0079050D02*
X0368050Y0079050D01*
X0367967Y0079052D01*
X0367884Y0079058D01*
X0367801Y0079067D01*
X0367719Y0079081D01*
X0367638Y0079098D01*
X0367557Y0079119D01*
X0367478Y0079143D01*
X0367400Y0079172D01*
X0367323Y0079203D01*
X0367248Y0079239D01*
X0367174Y0079277D01*
X0367102Y0079320D01*
X0367033Y0079365D01*
X0366965Y0079414D01*
X0366900Y0079465D01*
X0366837Y0079520D01*
X0366777Y0079577D01*
X0366720Y0079637D01*
X0366665Y0079700D01*
X0366614Y0079765D01*
X0366565Y0079833D01*
X0366520Y0079902D01*
X0366477Y0079974D01*
X0366439Y0080048D01*
X0366403Y0080123D01*
X0366372Y0080200D01*
X0366343Y0080278D01*
X0366319Y0080357D01*
X0366298Y0080438D01*
X0366281Y0080519D01*
X0366267Y0080601D01*
X0366258Y0080684D01*
X0366252Y0080767D01*
X0366250Y0080850D01*
X0366250Y0085250D01*
X0366252Y0085333D01*
X0366258Y0085416D01*
X0366267Y0085499D01*
X0366281Y0085581D01*
X0366298Y0085662D01*
X0366319Y0085743D01*
X0366343Y0085822D01*
X0366372Y0085900D01*
X0366403Y0085977D01*
X0366439Y0086052D01*
X0366477Y0086126D01*
X0366520Y0086198D01*
X0366565Y0086267D01*
X0366614Y0086335D01*
X0366665Y0086400D01*
X0366720Y0086463D01*
X0366777Y0086523D01*
X0366837Y0086580D01*
X0366900Y0086635D01*
X0366965Y0086686D01*
X0367033Y0086735D01*
X0367102Y0086780D01*
X0367174Y0086823D01*
X0367248Y0086861D01*
X0367323Y0086897D01*
X0367400Y0086928D01*
X0367478Y0086957D01*
X0367557Y0086981D01*
X0367638Y0087002D01*
X0367719Y0087019D01*
X0367801Y0087033D01*
X0367884Y0087042D01*
X0367967Y0087048D01*
X0368050Y0087050D01*
X0378050Y0087050D01*
X0378133Y0087048D01*
X0378216Y0087042D01*
X0378299Y0087033D01*
X0378381Y0087019D01*
X0378462Y0087002D01*
X0378543Y0086981D01*
X0378622Y0086957D01*
X0378700Y0086928D01*
X0378777Y0086897D01*
X0378852Y0086861D01*
X0378926Y0086823D01*
X0378998Y0086780D01*
X0379067Y0086735D01*
X0379135Y0086686D01*
X0379200Y0086635D01*
X0379263Y0086580D01*
X0379323Y0086523D01*
X0379380Y0086463D01*
X0379435Y0086400D01*
X0379486Y0086335D01*
X0379535Y0086267D01*
X0379580Y0086198D01*
X0379623Y0086126D01*
X0379661Y0086052D01*
X0379697Y0085977D01*
X0379728Y0085900D01*
X0379757Y0085822D01*
X0379781Y0085743D01*
X0379802Y0085662D01*
X0379819Y0085581D01*
X0379833Y0085499D01*
X0379842Y0085416D01*
X0379848Y0085333D01*
X0379850Y0085250D01*
X0379850Y0080850D01*
X0379848Y0080767D01*
X0379842Y0080684D01*
X0379833Y0080601D01*
X0379819Y0080519D01*
X0379802Y0080438D01*
X0379781Y0080357D01*
X0379757Y0080278D01*
X0379728Y0080200D01*
X0379697Y0080123D01*
X0379661Y0080048D01*
X0379623Y0079974D01*
X0379580Y0079902D01*
X0379535Y0079833D01*
X0379486Y0079765D01*
X0379435Y0079700D01*
X0379380Y0079637D01*
X0379323Y0079577D01*
X0379263Y0079520D01*
X0379200Y0079465D01*
X0379135Y0079414D01*
X0379067Y0079365D01*
X0378998Y0079320D01*
X0378926Y0079277D01*
X0378852Y0079239D01*
X0378777Y0079203D01*
X0378700Y0079172D01*
X0378622Y0079143D01*
X0378543Y0079119D01*
X0378462Y0079098D01*
X0378381Y0079081D01*
X0378299Y0079067D01*
X0378216Y0079058D01*
X0378133Y0079052D01*
X0378050Y0079050D01*
X0378050Y0094050D02*
X0368050Y0094050D01*
X0367967Y0094052D01*
X0367884Y0094058D01*
X0367801Y0094067D01*
X0367719Y0094081D01*
X0367638Y0094098D01*
X0367557Y0094119D01*
X0367478Y0094143D01*
X0367400Y0094172D01*
X0367323Y0094203D01*
X0367248Y0094239D01*
X0367174Y0094277D01*
X0367102Y0094320D01*
X0367033Y0094365D01*
X0366965Y0094414D01*
X0366900Y0094465D01*
X0366837Y0094520D01*
X0366777Y0094577D01*
X0366720Y0094637D01*
X0366665Y0094700D01*
X0366614Y0094765D01*
X0366565Y0094833D01*
X0366520Y0094902D01*
X0366477Y0094974D01*
X0366439Y0095048D01*
X0366403Y0095123D01*
X0366372Y0095200D01*
X0366343Y0095278D01*
X0366319Y0095357D01*
X0366298Y0095438D01*
X0366281Y0095519D01*
X0366267Y0095601D01*
X0366258Y0095684D01*
X0366252Y0095767D01*
X0366250Y0095850D01*
X0366250Y0100250D01*
X0366252Y0100333D01*
X0366258Y0100416D01*
X0366267Y0100499D01*
X0366281Y0100581D01*
X0366298Y0100662D01*
X0366319Y0100743D01*
X0366343Y0100822D01*
X0366372Y0100900D01*
X0366403Y0100977D01*
X0366439Y0101052D01*
X0366477Y0101126D01*
X0366520Y0101198D01*
X0366565Y0101267D01*
X0366614Y0101335D01*
X0366665Y0101400D01*
X0366720Y0101463D01*
X0366777Y0101523D01*
X0366837Y0101580D01*
X0366900Y0101635D01*
X0366965Y0101686D01*
X0367033Y0101735D01*
X0367102Y0101780D01*
X0367174Y0101823D01*
X0367248Y0101861D01*
X0367323Y0101897D01*
X0367400Y0101928D01*
X0367478Y0101957D01*
X0367557Y0101981D01*
X0367638Y0102002D01*
X0367719Y0102019D01*
X0367801Y0102033D01*
X0367884Y0102042D01*
X0367967Y0102048D01*
X0368050Y0102050D01*
X0378050Y0102050D01*
X0378133Y0102048D01*
X0378216Y0102042D01*
X0378299Y0102033D01*
X0378381Y0102019D01*
X0378462Y0102002D01*
X0378543Y0101981D01*
X0378622Y0101957D01*
X0378700Y0101928D01*
X0378777Y0101897D01*
X0378852Y0101861D01*
X0378926Y0101823D01*
X0378998Y0101780D01*
X0379067Y0101735D01*
X0379135Y0101686D01*
X0379200Y0101635D01*
X0379263Y0101580D01*
X0379323Y0101523D01*
X0379380Y0101463D01*
X0379435Y0101400D01*
X0379486Y0101335D01*
X0379535Y0101267D01*
X0379580Y0101198D01*
X0379623Y0101126D01*
X0379661Y0101052D01*
X0379697Y0100977D01*
X0379728Y0100900D01*
X0379757Y0100822D01*
X0379781Y0100743D01*
X0379802Y0100662D01*
X0379819Y0100581D01*
X0379833Y0100499D01*
X0379842Y0100416D01*
X0379848Y0100333D01*
X0379850Y0100250D01*
X0379850Y0095850D01*
X0379848Y0095767D01*
X0379842Y0095684D01*
X0379833Y0095601D01*
X0379819Y0095519D01*
X0379802Y0095438D01*
X0379781Y0095357D01*
X0379757Y0095278D01*
X0379728Y0095200D01*
X0379697Y0095123D01*
X0379661Y0095048D01*
X0379623Y0094974D01*
X0379580Y0094902D01*
X0379535Y0094833D01*
X0379486Y0094765D01*
X0379435Y0094700D01*
X0379380Y0094637D01*
X0379323Y0094577D01*
X0379263Y0094520D01*
X0379200Y0094465D01*
X0379135Y0094414D01*
X0379067Y0094365D01*
X0378998Y0094320D01*
X0378926Y0094277D01*
X0378852Y0094239D01*
X0378777Y0094203D01*
X0378700Y0094172D01*
X0378622Y0094143D01*
X0378543Y0094119D01*
X0378462Y0094098D01*
X0378381Y0094081D01*
X0378299Y0094067D01*
X0378216Y0094058D01*
X0378133Y0094052D01*
X0378050Y0094050D01*
X0423850Y0135224D02*
X0423850Y0138427D01*
X0424918Y0139494D01*
X0425985Y0139494D01*
X0427053Y0138427D01*
X0427053Y0135224D01*
X0430255Y0135224D02*
X0423850Y0135224D01*
X0427053Y0138427D02*
X0428120Y0139494D01*
X0429188Y0139494D01*
X0430255Y0138427D01*
X0430255Y0135224D01*
X0427053Y0141669D02*
X0424918Y0141669D01*
X0423850Y0142737D01*
X0423850Y0144872D01*
X0424918Y0145940D01*
X0427053Y0145940D01*
X0428120Y0144872D01*
X0428120Y0142737D01*
X0427053Y0141669D01*
X0428120Y0148115D02*
X0428120Y0150250D01*
X0429188Y0149183D02*
X0424918Y0149183D01*
X0423850Y0150250D01*
X0428120Y0152412D02*
X0428120Y0154547D01*
X0429188Y0153480D02*
X0424918Y0153480D01*
X0423850Y0154547D01*
X0424918Y0156709D02*
X0423850Y0157777D01*
X0423850Y0159912D01*
X0424918Y0160979D01*
X0427053Y0160979D01*
X0428120Y0159912D01*
X0428120Y0157777D01*
X0427053Y0156709D01*
X0424918Y0156709D01*
X0416800Y0159300D02*
X0414300Y0156800D01*
X0409300Y0156800D01*
X0406800Y0159300D01*
X0406800Y0164300D01*
X0409300Y0166800D01*
X0414300Y0166800D01*
X0416800Y0164300D01*
X0416800Y0159300D01*
X0423850Y0163154D02*
X0428120Y0163154D01*
X0428120Y0164222D01*
X0427053Y0165290D01*
X0428120Y0166357D01*
X0427053Y0167425D01*
X0423850Y0167425D01*
X0423850Y0165290D02*
X0427053Y0165290D01*
X0406800Y0164300D02*
X0404300Y0166800D01*
X0399300Y0166800D01*
X0396800Y0164300D01*
X0394300Y0166800D01*
X0389300Y0166800D01*
X0386800Y0164300D01*
X0384300Y0166800D01*
X0379300Y0166800D01*
X0376800Y0164300D01*
X0374300Y0166800D01*
X0369300Y0166800D01*
X0366800Y0164300D01*
X0364300Y0166800D01*
X0359300Y0166800D01*
X0356800Y0164300D01*
X0354300Y0166800D01*
X0349300Y0166800D01*
X0346800Y0164300D01*
X0344300Y0166800D01*
X0339300Y0166800D01*
X0336800Y0164300D01*
X0334300Y0166800D01*
X0329300Y0166800D01*
X0326800Y0164300D01*
X0324300Y0166800D01*
X0319300Y0166800D01*
X0316800Y0164300D01*
X0316800Y0159300D01*
X0319300Y0156800D01*
X0324300Y0156800D01*
X0326800Y0159300D01*
X0329300Y0156800D01*
X0334300Y0156800D01*
X0336800Y0159300D01*
X0336800Y0164300D01*
X0326800Y0164300D02*
X0326800Y0159300D01*
X0336800Y0159300D02*
X0339300Y0156800D01*
X0344300Y0156800D01*
X0346800Y0159300D01*
X0349300Y0156800D01*
X0354300Y0156800D01*
X0356800Y0159300D01*
X0359300Y0156800D01*
X0364300Y0156800D01*
X0366800Y0159300D01*
X0366800Y0164300D01*
X0376800Y0164300D02*
X0376800Y0159300D01*
X0379300Y0156800D01*
X0384300Y0156800D01*
X0386800Y0159300D01*
X0389300Y0156800D01*
X0394300Y0156800D01*
X0396800Y0159300D01*
X0396800Y0164300D01*
X0386800Y0164300D02*
X0386800Y0159300D01*
X0376800Y0159300D02*
X0374300Y0156800D01*
X0369300Y0156800D01*
X0366800Y0159300D01*
X0356800Y0159300D02*
X0356800Y0164300D01*
X0346800Y0164300D02*
X0346800Y0159300D01*
X0396800Y0159300D02*
X0399300Y0156800D01*
X0404300Y0156800D01*
X0406800Y0159300D01*
X0156496Y0159114D02*
X0152225Y0159114D01*
X0150050Y0159114D02*
X0145780Y0159114D01*
X0143605Y0159114D02*
X0139334Y0159114D01*
X0137159Y0159114D02*
X0137159Y0156979D01*
X0136092Y0155911D01*
X0133956Y0155911D01*
X0132889Y0156979D01*
X0132889Y0159114D01*
X0133956Y0160181D01*
X0136092Y0160181D01*
X0137159Y0159114D01*
X0130714Y0161249D02*
X0129646Y0162316D01*
X0127511Y0162316D01*
X0126443Y0161249D01*
X0126443Y0156979D01*
X0127511Y0155911D01*
X0129646Y0155911D01*
X0130714Y0156979D01*
X0130714Y0161249D01*
X0124268Y0161249D02*
X0123201Y0162316D01*
X0121065Y0162316D01*
X0119998Y0161249D01*
X0119998Y0156979D01*
X0121065Y0155911D01*
X0123201Y0155911D01*
X0124268Y0156979D01*
X0124268Y0161249D01*
X0117823Y0159114D02*
X0117823Y0156979D01*
X0116755Y0155911D01*
X0114620Y0155911D01*
X0113552Y0156979D01*
X0113552Y0159114D01*
X0114620Y0160181D01*
X0116755Y0160181D01*
X0117823Y0159114D01*
X0111377Y0159114D02*
X0107107Y0159114D01*
X0104932Y0159114D02*
X0100661Y0159114D01*
X0098486Y0160181D02*
X0096351Y0162316D01*
X0098486Y0160181D02*
X0098486Y0158046D01*
X0096351Y0155911D01*
X0094189Y0154843D02*
X0089919Y0154843D01*
X0087744Y0155911D02*
X0085609Y0158046D01*
X0085609Y0160181D01*
X0087744Y0162316D01*
X0086676Y0166411D02*
X0087744Y0167479D01*
X0087744Y0169614D01*
X0086676Y0170681D01*
X0084541Y0170681D01*
X0083473Y0169614D01*
X0083473Y0167479D01*
X0084541Y0166411D01*
X0086676Y0166411D01*
X0081298Y0166411D02*
X0079163Y0168546D01*
X0079163Y0170681D01*
X0081298Y0172816D01*
X0089892Y0176911D02*
X0085622Y0183316D01*
X0092041Y0183316D02*
X0092041Y0176911D01*
X0094216Y0176911D02*
X0098486Y0183316D01*
X0102797Y0172816D02*
X0104932Y0170681D01*
X0104932Y0168546D01*
X0102797Y0166411D01*
X0100635Y0167479D02*
X0099567Y0166411D01*
X0097432Y0166411D01*
X0096364Y0167479D01*
X0096364Y0169614D01*
X0097432Y0170681D01*
X0099567Y0170681D01*
X0100635Y0169614D01*
X0100635Y0167479D01*
X0083447Y0159114D02*
X0079176Y0159114D01*
X0077001Y0159114D02*
X0072731Y0159114D01*
X0070556Y0159114D02*
X0070556Y0156979D01*
X0069488Y0155911D01*
X0067353Y0155911D01*
X0066285Y0156979D01*
X0066285Y0159114D01*
X0067353Y0160181D01*
X0069488Y0160181D01*
X0070556Y0159114D01*
X0064110Y0156979D02*
X0064110Y0161249D01*
X0063043Y0162316D01*
X0060907Y0162316D01*
X0059840Y0161249D01*
X0064110Y0156979D01*
X0063043Y0155911D01*
X0060907Y0155911D01*
X0059840Y0156979D01*
X0059840Y0161249D01*
X0057665Y0161249D02*
X0056597Y0162316D01*
X0054462Y0162316D01*
X0053394Y0161249D01*
X0057665Y0156979D01*
X0056597Y0155911D01*
X0054462Y0155911D01*
X0053394Y0156979D01*
X0053394Y0161249D01*
X0051219Y0159114D02*
X0051219Y0156979D01*
X0050152Y0155911D01*
X0048016Y0155911D01*
X0046949Y0156979D01*
X0046949Y0159114D01*
X0048016Y0160181D01*
X0050152Y0160181D01*
X0051219Y0159114D01*
X0044774Y0159114D02*
X0040503Y0159114D01*
X0038328Y0159114D02*
X0034058Y0159114D01*
X0031883Y0159114D02*
X0027612Y0159114D01*
X0057665Y0156979D02*
X0057665Y0161249D01*
D11*
X0110277Y0141319D02*
X0111812Y0141319D01*
X0111045Y0142087D02*
X0111045Y0139017D01*
X0110277Y0138250D01*
X0113347Y0138250D02*
X0115649Y0138250D01*
X0116416Y0139017D01*
X0115649Y0139785D01*
X0113347Y0139785D01*
X0113347Y0140552D02*
X0113347Y0138250D01*
X0113347Y0140552D02*
X0114114Y0141319D01*
X0115649Y0141319D01*
X0117951Y0140552D02*
X0117951Y0138250D01*
X0117951Y0140552D02*
X0118718Y0141319D01*
X0120253Y0141319D01*
X0121020Y0140552D01*
X0122554Y0140552D02*
X0125624Y0140552D01*
X0127158Y0140552D02*
X0127158Y0139017D01*
X0127926Y0138250D01*
X0129460Y0138250D01*
X0130228Y0139017D01*
X0130228Y0140552D01*
X0129460Y0141319D01*
X0127926Y0141319D01*
X0127158Y0140552D01*
X0131762Y0140552D02*
X0131762Y0138250D01*
X0133297Y0138250D02*
X0133297Y0140552D01*
X0132530Y0141319D01*
X0131762Y0140552D01*
X0133297Y0140552D02*
X0134064Y0141319D01*
X0134832Y0141319D01*
X0134832Y0138250D01*
X0136366Y0141319D02*
X0137134Y0141319D01*
X0138668Y0139785D01*
X0138668Y0141319D02*
X0138668Y0138250D01*
X0140203Y0139785D02*
X0143272Y0139785D01*
X0143272Y0140552D02*
X0143272Y0139017D01*
X0142505Y0138250D01*
X0140970Y0138250D01*
X0140203Y0139785D02*
X0140203Y0140552D01*
X0140970Y0141319D01*
X0142505Y0141319D01*
X0143272Y0140552D01*
X0144807Y0140552D02*
X0144807Y0138250D01*
X0144807Y0140552D02*
X0145574Y0141319D01*
X0147109Y0141319D01*
X0147876Y0140552D01*
X0149411Y0141319D02*
X0150945Y0141319D01*
X0150178Y0142087D02*
X0150178Y0139017D01*
X0149411Y0138250D01*
X0147876Y0138250D02*
X0147876Y0142854D01*
X0152480Y0140552D02*
X0155549Y0140552D01*
X0157084Y0140552D02*
X0157084Y0139785D01*
X0160153Y0139785D01*
X0160153Y0140552D02*
X0160153Y0139017D01*
X0159386Y0138250D01*
X0157851Y0138250D01*
X0157084Y0140552D02*
X0157851Y0141319D01*
X0159386Y0141319D01*
X0160153Y0140552D01*
X0161688Y0140552D02*
X0162455Y0141319D01*
X0163990Y0141319D01*
X0164757Y0140552D01*
X0164757Y0139017D01*
X0163990Y0138250D01*
X0162455Y0138250D01*
X0161688Y0139017D01*
X0161688Y0140552D01*
X0166292Y0140552D02*
X0166292Y0139017D01*
X0167059Y0138250D01*
X0169361Y0138250D01*
X0169361Y0136715D02*
X0169361Y0141319D01*
X0167059Y0141319D01*
X0166292Y0140552D01*
X0170896Y0140552D02*
X0173965Y0140552D01*
X0175500Y0141319D02*
X0175500Y0142087D01*
X0176267Y0142854D01*
X0177802Y0142854D01*
X0178569Y0142087D01*
X0180104Y0142087D02*
X0180104Y0141319D01*
X0180871Y0140552D01*
X0180104Y0139785D01*
X0180104Y0139017D01*
X0180871Y0138250D01*
X0182406Y0138250D01*
X0183173Y0139017D01*
X0184707Y0139017D02*
X0184707Y0140552D01*
X0185475Y0141319D01*
X0187777Y0141319D01*
X0187777Y0136715D01*
X0187777Y0138250D02*
X0185475Y0138250D01*
X0184707Y0139017D01*
X0181638Y0140552D02*
X0180871Y0140552D01*
X0180104Y0142087D02*
X0180871Y0142854D01*
X0182406Y0142854D01*
X0183173Y0142087D01*
X0178569Y0138250D02*
X0175500Y0138250D01*
X0178569Y0138250D02*
X0175500Y0141319D01*
X0189311Y0141319D02*
X0191613Y0141319D01*
X0192381Y0140552D01*
X0191613Y0139785D01*
X0190079Y0139785D01*
X0189311Y0139017D01*
X0190079Y0138250D01*
X0192381Y0138250D01*
X0193915Y0139785D02*
X0193915Y0140552D01*
X0194683Y0141319D01*
X0196217Y0141319D01*
X0196985Y0140552D01*
X0196985Y0139017D01*
X0196217Y0138250D01*
X0194683Y0138250D01*
X0193915Y0139785D02*
X0196985Y0139785D01*
X0198519Y0142854D02*
X0201589Y0138250D01*
X0203123Y0139017D02*
X0203123Y0142087D01*
X0203890Y0142854D01*
X0205425Y0142854D01*
X0206192Y0142087D01*
X0206192Y0141319D01*
X0205425Y0140552D01*
X0203123Y0140552D01*
X0203123Y0139017D02*
X0203890Y0138250D01*
X0205425Y0138250D01*
X0206192Y0139017D01*
X0207727Y0138250D02*
X0210029Y0138250D01*
X0210796Y0139017D01*
X0210796Y0140552D01*
X0210029Y0141319D01*
X0207727Y0141319D01*
X0207727Y0137483D01*
X0208494Y0136715D01*
X0209262Y0136715D01*
X0212331Y0139017D02*
X0212331Y0140552D01*
X0213098Y0141319D01*
X0214633Y0141319D01*
X0215400Y0140552D01*
X0215400Y0139017D01*
X0214633Y0138250D01*
X0213098Y0138250D01*
X0212331Y0139017D01*
X0216935Y0138250D02*
X0216935Y0140552D01*
X0217702Y0141319D01*
X0219237Y0141319D01*
X0220004Y0140552D01*
X0221539Y0141319D02*
X0223073Y0141319D01*
X0222306Y0142087D02*
X0222306Y0139017D01*
X0221539Y0138250D01*
X0220004Y0138250D02*
X0220004Y0142854D01*
X0224608Y0141319D02*
X0225375Y0141319D01*
X0226910Y0139785D01*
X0226910Y0141319D02*
X0226910Y0138250D01*
X0228445Y0138250D02*
X0230747Y0138250D01*
X0231514Y0139017D01*
X0230747Y0139785D01*
X0228445Y0139785D01*
X0228445Y0140552D02*
X0228445Y0138250D01*
X0228445Y0140552D02*
X0229212Y0141319D01*
X0230747Y0141319D01*
X0233049Y0141319D02*
X0233049Y0139017D01*
X0233816Y0138250D01*
X0234583Y0139017D01*
X0235351Y0138250D01*
X0236118Y0139017D01*
X0236118Y0141319D01*
X0237653Y0142854D02*
X0240722Y0138250D01*
X0242257Y0138250D02*
X0242257Y0140552D01*
X0243024Y0141319D01*
X0243791Y0140552D01*
X0243791Y0138250D01*
X0245326Y0138250D02*
X0245326Y0141319D01*
X0244558Y0141319D01*
X0243791Y0140552D01*
X0246860Y0140552D02*
X0246860Y0139017D01*
X0247628Y0138250D01*
X0249162Y0138250D01*
X0249930Y0139017D01*
X0249930Y0140552D01*
X0249162Y0141319D01*
X0247628Y0141319D01*
X0246860Y0140552D01*
X0251464Y0141319D02*
X0253766Y0141319D01*
X0254534Y0140552D01*
X0254534Y0139017D01*
X0253766Y0138250D01*
X0251464Y0138250D01*
X0256068Y0138250D02*
X0256836Y0138250D01*
X0256836Y0139017D01*
X0256068Y0139017D01*
X0256068Y0138250D01*
X0258370Y0139017D02*
X0258370Y0140552D01*
X0259138Y0141319D01*
X0261440Y0141319D01*
X0262974Y0141319D02*
X0262974Y0138250D01*
X0265276Y0138250D01*
X0266043Y0139017D01*
X0266043Y0141319D01*
X0267578Y0140552D02*
X0267578Y0138250D01*
X0267578Y0140552D02*
X0268345Y0141319D01*
X0269880Y0141319D01*
X0270647Y0140552D01*
X0272182Y0141319D02*
X0273717Y0141319D01*
X0272949Y0142087D02*
X0272949Y0139017D01*
X0272182Y0138250D01*
X0270647Y0138250D02*
X0270647Y0142854D01*
X0269113Y0145750D02*
X0269113Y0150354D01*
X0271415Y0148052D01*
X0268345Y0148052D01*
X0266811Y0146517D02*
X0266811Y0145750D01*
X0266043Y0145750D01*
X0266043Y0146517D01*
X0266811Y0146517D01*
X0264509Y0146517D02*
X0261440Y0149587D01*
X0261440Y0146517D01*
X0262207Y0145750D01*
X0263741Y0145750D01*
X0264509Y0146517D01*
X0264509Y0149587D01*
X0263741Y0150354D01*
X0262207Y0150354D01*
X0261440Y0149587D01*
X0262207Y0153250D02*
X0262207Y0155552D01*
X0262974Y0156319D01*
X0264509Y0156319D01*
X0265276Y0155552D01*
X0266811Y0155552D02*
X0267578Y0156319D01*
X0269113Y0156319D01*
X0269880Y0155552D01*
X0269880Y0154017D01*
X0269113Y0153250D01*
X0267578Y0153250D01*
X0266811Y0154017D01*
X0266811Y0155552D01*
X0265276Y0157854D02*
X0265276Y0153250D01*
X0260672Y0153250D02*
X0260672Y0156319D01*
X0258370Y0156319D01*
X0257603Y0155552D01*
X0257603Y0153250D01*
X0251464Y0156319D02*
X0250697Y0157087D01*
X0250697Y0158621D01*
X0249162Y0157854D02*
X0249162Y0153250D01*
X0247628Y0154785D01*
X0246093Y0153250D01*
X0246093Y0157854D01*
X0243791Y0156319D02*
X0242257Y0156319D01*
X0241489Y0155552D01*
X0241489Y0153250D01*
X0243791Y0153250D01*
X0244558Y0154017D01*
X0243791Y0154785D01*
X0241489Y0154785D01*
X0239955Y0154785D02*
X0238420Y0156319D01*
X0237653Y0156319D01*
X0236118Y0156319D02*
X0234583Y0156319D01*
X0235351Y0157087D02*
X0235351Y0154017D01*
X0234583Y0153250D01*
X0233049Y0153250D02*
X0233049Y0157854D01*
X0232281Y0156319D02*
X0230747Y0156319D01*
X0229979Y0155552D01*
X0229979Y0153250D01*
X0228445Y0154017D02*
X0227677Y0153250D01*
X0226143Y0153250D01*
X0225375Y0154017D01*
X0225375Y0155552D01*
X0226143Y0156319D01*
X0227677Y0156319D01*
X0228445Y0155552D01*
X0228445Y0154017D01*
X0232281Y0156319D02*
X0233049Y0155552D01*
X0239955Y0156319D02*
X0239955Y0153250D01*
X0223841Y0154017D02*
X0223073Y0153250D01*
X0220772Y0153250D01*
X0220772Y0152483D02*
X0220772Y0156319D01*
X0223073Y0156319D01*
X0223841Y0155552D01*
X0223841Y0154017D01*
X0222306Y0151715D02*
X0221539Y0151715D01*
X0220772Y0152483D01*
X0219237Y0154017D02*
X0218470Y0153250D01*
X0216935Y0153250D01*
X0216168Y0154017D01*
X0216168Y0157087D01*
X0216935Y0157854D01*
X0218470Y0157854D01*
X0219237Y0157087D01*
X0219237Y0156319D01*
X0218470Y0155552D01*
X0216168Y0155552D01*
X0214633Y0156319D02*
X0213866Y0157087D01*
X0213866Y0158621D01*
X0207727Y0157854D02*
X0207727Y0153250D01*
X0207727Y0155552D02*
X0204658Y0155552D01*
X0203123Y0154017D02*
X0202356Y0154785D01*
X0200054Y0154785D01*
X0200054Y0155552D02*
X0200054Y0153250D01*
X0202356Y0153250D01*
X0203123Y0154017D01*
X0204658Y0153250D02*
X0204658Y0157854D01*
X0202356Y0156319D02*
X0200821Y0156319D01*
X0200054Y0155552D01*
X0198519Y0156319D02*
X0198519Y0154017D01*
X0197752Y0153250D01*
X0196985Y0154017D01*
X0196217Y0153250D01*
X0195450Y0154017D01*
X0195450Y0156319D01*
X0193915Y0157854D02*
X0193148Y0157854D01*
X0193148Y0153250D01*
X0193915Y0153250D02*
X0192381Y0153250D01*
X0190846Y0154017D02*
X0190846Y0155552D01*
X0190079Y0156319D01*
X0188544Y0156319D01*
X0187777Y0155552D01*
X0187777Y0154785D01*
X0190846Y0154785D01*
X0190846Y0154017D02*
X0190079Y0153250D01*
X0188544Y0153250D01*
X0186242Y0154017D02*
X0186242Y0156319D01*
X0186242Y0154017D02*
X0185475Y0153250D01*
X0183173Y0153250D01*
X0183173Y0152483D02*
X0183940Y0151715D01*
X0184707Y0151715D01*
X0183173Y0152483D02*
X0183173Y0156319D01*
X0121020Y0142854D02*
X0121020Y0138250D01*
X0258370Y0139017D02*
X0259138Y0138250D01*
X0261440Y0138250D01*
X0261440Y0142854D01*
X0275251Y0138250D02*
X0276786Y0138250D01*
X0276019Y0138250D02*
X0276019Y0141319D01*
X0276786Y0141319D01*
X0278321Y0141319D02*
X0280623Y0141319D01*
X0281390Y0140552D01*
X0281390Y0139017D01*
X0280623Y0138250D01*
X0278321Y0138250D01*
X0278321Y0137483D02*
X0278321Y0141319D01*
X0276019Y0142854D02*
X0276019Y0143621D01*
X0277553Y0145750D02*
X0277553Y0148819D01*
X0279088Y0150354D01*
X0280623Y0148819D01*
X0280623Y0145750D01*
X0282157Y0146517D02*
X0282924Y0145750D01*
X0284459Y0145750D01*
X0285226Y0146517D01*
X0284459Y0148052D02*
X0282924Y0148052D01*
X0282157Y0147285D01*
X0282157Y0146517D01*
X0280623Y0148052D02*
X0277553Y0148052D01*
X0282157Y0149587D02*
X0282924Y0150354D01*
X0284459Y0150354D01*
X0285226Y0149587D01*
X0285226Y0148819D01*
X0284459Y0148052D01*
X0286761Y0148052D02*
X0289830Y0148052D01*
X0291365Y0149587D02*
X0292900Y0148052D01*
X0292900Y0145750D01*
X0292900Y0148052D02*
X0294434Y0149587D01*
X0294434Y0150354D01*
X0295969Y0149587D02*
X0295969Y0148819D01*
X0296736Y0148052D01*
X0299038Y0148052D01*
X0300573Y0148052D02*
X0303642Y0148052D01*
X0305177Y0149587D02*
X0305944Y0150354D01*
X0307479Y0150354D01*
X0308246Y0149587D01*
X0308246Y0146517D01*
X0307479Y0145750D01*
X0305944Y0145750D01*
X0305177Y0146517D01*
X0309781Y0146517D02*
X0310548Y0145750D01*
X0312083Y0145750D01*
X0312850Y0146517D01*
X0312850Y0149587D01*
X0312083Y0150354D01*
X0310548Y0150354D01*
X0309781Y0149587D01*
X0309013Y0153250D02*
X0307479Y0153250D01*
X0306711Y0154017D01*
X0305177Y0153250D02*
X0303642Y0154785D01*
X0303642Y0156319D01*
X0305177Y0157854D01*
X0306711Y0157087D02*
X0307479Y0157854D01*
X0309013Y0157854D01*
X0309781Y0157087D01*
X0309781Y0154017D01*
X0309013Y0153250D01*
X0311315Y0153250D02*
X0312850Y0154785D01*
X0312850Y0156319D01*
X0311315Y0157854D01*
X0297504Y0157087D02*
X0296736Y0157854D01*
X0295202Y0157854D01*
X0294434Y0157087D01*
X0294434Y0156319D01*
X0297504Y0153250D01*
X0294434Y0153250D01*
X0292900Y0154017D02*
X0289830Y0157087D01*
X0289830Y0154017D01*
X0290598Y0153250D01*
X0292132Y0153250D01*
X0292900Y0154017D01*
X0292900Y0157087D01*
X0292132Y0157854D01*
X0290598Y0157854D01*
X0289830Y0157087D01*
X0288296Y0157087D02*
X0287528Y0157854D01*
X0285994Y0157854D01*
X0285226Y0157087D01*
X0285226Y0156319D01*
X0288296Y0153250D01*
X0285226Y0153250D01*
X0283692Y0153250D02*
X0280623Y0153250D01*
X0282157Y0153250D02*
X0282157Y0157854D01*
X0283692Y0156319D01*
X0274484Y0154017D02*
X0273717Y0153250D01*
X0272949Y0153250D01*
X0272182Y0154017D01*
X0272182Y0157854D01*
X0272949Y0157854D02*
X0271415Y0157854D01*
X0291365Y0150354D02*
X0291365Y0149587D01*
X0295969Y0149587D02*
X0296736Y0150354D01*
X0299038Y0150354D01*
X0299038Y0145750D01*
X0296736Y0145750D01*
X0295969Y0146517D01*
X0295969Y0147285D01*
X0296736Y0148052D01*
X0287528Y0142854D02*
X0290598Y0138250D01*
X0292132Y0138250D02*
X0292900Y0138250D01*
X0292900Y0139017D01*
X0292132Y0139017D01*
X0292132Y0138250D01*
X0292132Y0140552D02*
X0292900Y0140552D01*
X0292900Y0141319D01*
X0292132Y0141319D01*
X0292132Y0140552D01*
X0294434Y0141319D02*
X0296736Y0141319D01*
X0297504Y0140552D01*
X0296736Y0139785D01*
X0295202Y0139785D01*
X0294434Y0139017D01*
X0295202Y0138250D01*
X0297504Y0138250D01*
X0299038Y0139017D02*
X0299038Y0140552D01*
X0299806Y0141319D01*
X0302108Y0141319D01*
X0302108Y0136715D01*
X0302108Y0138250D02*
X0299806Y0138250D01*
X0299038Y0139017D01*
X0303642Y0138250D02*
X0304409Y0139017D01*
X0304409Y0142087D01*
X0303642Y0141319D02*
X0305177Y0141319D01*
X0306711Y0141319D02*
X0308246Y0141319D01*
X0307479Y0142087D02*
X0307479Y0139017D01*
X0306711Y0138250D01*
X0309781Y0138250D02*
X0309781Y0140552D01*
X0310548Y0141319D01*
X0312083Y0141319D01*
X0312850Y0140552D01*
X0312850Y0142854D02*
X0312850Y0138250D01*
X0312850Y0133819D02*
X0311315Y0130750D01*
X0309781Y0133819D01*
X0308246Y0134587D02*
X0307479Y0135354D01*
X0305944Y0135354D01*
X0305177Y0134587D01*
X0305177Y0133819D01*
X0308246Y0130750D01*
X0305177Y0130750D01*
X0285994Y0138250D02*
X0282925Y0142854D01*
X0279855Y0136715D02*
X0279088Y0136715D01*
X0278321Y0137483D01*
X0392524Y0128337D02*
X0392524Y0125267D01*
X0393292Y0124500D01*
X0395594Y0124500D01*
X0395594Y0129104D01*
X0393292Y0129104D01*
X0392524Y0128337D01*
X0397128Y0129104D02*
X0397128Y0124500D01*
X0400198Y0129104D01*
X0400198Y0124500D01*
X0401732Y0125267D02*
X0402500Y0124500D01*
X0404034Y0124500D01*
X0404802Y0125267D01*
X0404802Y0128337D01*
X0404034Y0129104D01*
X0402500Y0129104D01*
X0401732Y0128337D01*
X0401732Y0126802D02*
X0403267Y0126802D01*
X0401732Y0126802D02*
X0401732Y0125267D01*
X0401732Y0119104D02*
X0401732Y0116035D01*
X0403267Y0114500D01*
X0404802Y0116035D01*
X0404802Y0119104D01*
X0400198Y0118337D02*
X0400198Y0115267D01*
X0399430Y0114500D01*
X0397896Y0114500D01*
X0397128Y0115267D01*
X0395594Y0115267D02*
X0394826Y0114500D01*
X0393292Y0114500D01*
X0392524Y0115267D01*
X0395594Y0115267D02*
X0395594Y0118337D01*
X0394826Y0119104D01*
X0393292Y0119104D01*
X0392524Y0118337D01*
X0397128Y0118337D02*
X0397896Y0119104D01*
X0399430Y0119104D01*
X0400198Y0118337D01*
X0399430Y0109104D02*
X0397896Y0109104D01*
X0397128Y0108337D01*
X0395594Y0109104D02*
X0395594Y0104500D01*
X0392524Y0104500D01*
X0397128Y0105267D02*
X0397896Y0104500D01*
X0399430Y0104500D01*
X0400198Y0105267D01*
X0400198Y0108337D01*
X0399430Y0109104D01*
X0401732Y0108337D02*
X0402500Y0109104D01*
X0404034Y0109104D01*
X0404802Y0108337D01*
X0404802Y0107569D01*
X0404034Y0106802D01*
X0402500Y0106802D01*
X0401732Y0106035D01*
X0401732Y0105267D01*
X0402500Y0104500D01*
X0404034Y0104500D01*
X0404802Y0105267D01*
X0404034Y0099104D02*
X0402500Y0099104D01*
X0401732Y0098337D01*
X0400198Y0099104D02*
X0397896Y0099104D01*
X0397128Y0098337D01*
X0397128Y0095267D01*
X0397896Y0094500D01*
X0400198Y0094500D01*
X0400198Y0099104D01*
X0402500Y0096802D02*
X0401732Y0096035D01*
X0401732Y0095267D01*
X0402500Y0094500D01*
X0404034Y0094500D01*
X0404802Y0095267D01*
X0404034Y0096802D02*
X0402500Y0096802D01*
X0404034Y0096802D02*
X0404802Y0097569D01*
X0404802Y0098337D01*
X0404034Y0099104D01*
X0395594Y0097569D02*
X0395594Y0094500D01*
X0395594Y0096802D02*
X0392524Y0096802D01*
X0392524Y0097569D02*
X0392524Y0094500D01*
X0392524Y0097569D02*
X0394059Y0099104D01*
X0395594Y0097569D01*
D12*
X0391449Y0098817D02*
X0390832Y0098200D01*
X0389598Y0098200D01*
X0388981Y0098817D01*
X0388981Y0100052D01*
X0390215Y0100052D01*
X0388981Y0101286D02*
X0389598Y0101903D01*
X0390832Y0101903D01*
X0391449Y0101286D01*
X0391449Y0098817D01*
X0387766Y0098200D02*
X0387766Y0101903D01*
X0385298Y0098200D01*
X0385298Y0101903D01*
X0384083Y0101903D02*
X0382232Y0101903D01*
X0381614Y0101286D01*
X0381614Y0098817D01*
X0382232Y0098200D01*
X0384083Y0098200D01*
X0384083Y0101903D01*
X0383939Y0103200D02*
X0383322Y0103817D01*
X0383322Y0106286D01*
X0383939Y0106903D01*
X0385174Y0106903D01*
X0385791Y0106286D01*
X0385791Y0103817D01*
X0385174Y0103200D01*
X0383939Y0103200D01*
X0382108Y0103200D02*
X0382108Y0106903D01*
X0378425Y0106903D02*
X0378425Y0103200D01*
X0375956Y0103200D01*
X0374742Y0103200D02*
X0372890Y0103200D01*
X0372273Y0103817D01*
X0372273Y0106286D01*
X0372890Y0106903D01*
X0374742Y0106903D01*
X0374742Y0103200D01*
X0377190Y0105052D02*
X0378425Y0105052D01*
X0378425Y0106903D02*
X0375956Y0106903D01*
X0379639Y0103200D02*
X0382108Y0103200D01*
X0371058Y0102583D02*
X0368590Y0102583D01*
X0367375Y0103200D02*
X0367375Y0106903D01*
X0365524Y0106903D01*
X0364907Y0106286D01*
X0364907Y0105052D01*
X0365524Y0104434D01*
X0367375Y0104434D01*
X0363692Y0103200D02*
X0361223Y0103200D01*
X0362458Y0103200D02*
X0362458Y0106903D01*
X0363692Y0105669D01*
X0362931Y0097903D02*
X0362931Y0095434D01*
X0364166Y0094200D01*
X0365400Y0095434D01*
X0365400Y0097903D01*
X0361717Y0097286D02*
X0361717Y0094817D01*
X0361100Y0094200D01*
X0359865Y0094200D01*
X0359248Y0094817D01*
X0358034Y0094817D02*
X0357417Y0094200D01*
X0356182Y0094200D01*
X0355565Y0094817D01*
X0358034Y0094817D02*
X0358034Y0097286D01*
X0357417Y0097903D01*
X0356182Y0097903D01*
X0355565Y0097286D01*
X0359248Y0097286D02*
X0359865Y0097903D01*
X0361100Y0097903D01*
X0361717Y0097286D01*
X0381614Y0086286D02*
X0382232Y0086903D01*
X0384083Y0086903D01*
X0384083Y0083200D01*
X0382232Y0083200D01*
X0381614Y0083817D01*
X0381614Y0086286D01*
X0385298Y0086903D02*
X0385298Y0083200D01*
X0387766Y0086903D01*
X0387766Y0083200D01*
X0388981Y0083817D02*
X0388981Y0085052D01*
X0390215Y0085052D01*
X0388981Y0086286D02*
X0389598Y0086903D01*
X0390832Y0086903D01*
X0391449Y0086286D01*
X0391449Y0083817D01*
X0390832Y0083200D01*
X0389598Y0083200D01*
X0388981Y0083817D01*
X0385174Y0077903D02*
X0385791Y0077286D01*
X0385791Y0074817D01*
X0385174Y0074200D01*
X0383939Y0074200D01*
X0383322Y0074817D01*
X0383322Y0077286D01*
X0383939Y0077903D01*
X0385174Y0077903D01*
X0382108Y0077903D02*
X0382108Y0074200D01*
X0379639Y0074200D01*
X0378425Y0074200D02*
X0375956Y0074200D01*
X0374742Y0074200D02*
X0372890Y0074200D01*
X0372273Y0074817D01*
X0372273Y0077286D01*
X0372890Y0077903D01*
X0374742Y0077903D01*
X0374742Y0074200D01*
X0377190Y0076052D02*
X0378425Y0076052D01*
X0378425Y0077903D02*
X0375956Y0077903D01*
X0378425Y0077903D02*
X0378425Y0074200D01*
X0371058Y0073583D02*
X0368590Y0073583D01*
X0367375Y0074200D02*
X0367375Y0077903D01*
X0365524Y0077903D01*
X0364907Y0077286D01*
X0364907Y0076052D01*
X0365524Y0075434D01*
X0367375Y0075434D01*
X0363692Y0074200D02*
X0361223Y0076669D01*
X0361223Y0077286D01*
X0361841Y0077903D01*
X0363075Y0077903D01*
X0363692Y0077286D01*
X0364166Y0079200D02*
X0362931Y0080434D01*
X0362931Y0082903D01*
X0361717Y0082286D02*
X0361717Y0079817D01*
X0361100Y0079200D01*
X0359865Y0079200D01*
X0359248Y0079817D01*
X0358034Y0079817D02*
X0357417Y0079200D01*
X0356182Y0079200D01*
X0355565Y0079817D01*
X0358034Y0079817D02*
X0358034Y0082286D01*
X0357417Y0082903D01*
X0356182Y0082903D01*
X0355565Y0082286D01*
X0359248Y0082286D02*
X0359865Y0082903D01*
X0361100Y0082903D01*
X0361717Y0082286D01*
X0365400Y0082903D02*
X0365400Y0080434D01*
X0364166Y0079200D01*
X0363692Y0074200D02*
X0361223Y0074200D01*
D13*
X0361800Y0061800D03*
X0351800Y0061800D03*
X0341800Y0061800D03*
X0331800Y0061800D03*
X0321800Y0061800D03*
X0371800Y0061800D03*
X0381800Y0061800D03*
X0391800Y0061800D03*
X0401800Y0061800D03*
X0411800Y0061800D03*
X0411800Y0161800D03*
X0401800Y0161800D03*
X0391800Y0161800D03*
X0381800Y0161800D03*
X0371800Y0161800D03*
X0361800Y0161800D03*
X0351800Y0161800D03*
X0341800Y0161800D03*
X0331800Y0161800D03*
X0321800Y0161800D03*
D14*
X0309850Y0055039D02*
X0309850Y0054289D01*
X0310601Y0053538D01*
X0309850Y0055039D02*
X0310601Y0055790D01*
X0314354Y0055790D01*
X0314354Y0055039D02*
X0314354Y0056541D01*
X0314354Y0058142D02*
X0309850Y0058142D01*
X0311351Y0058142D02*
X0311351Y0060394D01*
X0312102Y0061145D01*
X0313603Y0061145D01*
X0314354Y0060394D01*
X0314354Y0058142D01*
X0312853Y0062746D02*
X0314354Y0064247D01*
X0309850Y0064247D01*
X0309850Y0062746D02*
X0309850Y0065749D01*
X0370744Y0087800D02*
X0370744Y0089702D01*
X0371695Y0088751D01*
X0370427Y0088751D01*
X0372637Y0088751D02*
X0372954Y0088434D01*
X0373905Y0088434D01*
X0373905Y0087800D02*
X0373905Y0089702D01*
X0372954Y0089702D01*
X0372637Y0089385D01*
X0372637Y0088751D01*
X0374847Y0089702D02*
X0375481Y0089702D01*
X0375164Y0089702D02*
X0375164Y0088117D01*
X0375481Y0087800D01*
X0375798Y0087800D01*
X0376115Y0088117D01*
X0375798Y0091400D02*
X0375481Y0091400D01*
X0375164Y0091717D01*
X0375164Y0093302D01*
X0375481Y0093302D02*
X0374847Y0093302D01*
X0373905Y0093302D02*
X0372954Y0093302D01*
X0372637Y0092985D01*
X0372637Y0092351D01*
X0372954Y0092034D01*
X0373905Y0092034D01*
X0373905Y0091400D02*
X0373905Y0093302D01*
X0371695Y0092985D02*
X0371378Y0093302D01*
X0370744Y0093302D01*
X0370427Y0092985D01*
X0370427Y0092668D01*
X0370744Y0092351D01*
X0370427Y0092034D01*
X0370427Y0091717D01*
X0370744Y0091400D01*
X0371378Y0091400D01*
X0371695Y0091717D01*
X0371061Y0092351D02*
X0370744Y0092351D01*
X0375798Y0091400D02*
X0376115Y0091717D01*
X0314354Y0155039D02*
X0314354Y0156541D01*
X0314354Y0155790D02*
X0310601Y0155790D01*
X0309850Y0155039D01*
X0309850Y0154289D01*
X0310601Y0153538D01*
X0311351Y0158142D02*
X0311351Y0160394D01*
X0312102Y0161145D01*
X0313603Y0161145D01*
X0314354Y0160394D01*
X0314354Y0158142D01*
X0309850Y0158142D01*
X0309850Y0162746D02*
X0312853Y0165749D01*
X0313603Y0165749D01*
X0314354Y0164998D01*
X0314354Y0163497D01*
X0313603Y0162746D01*
X0309850Y0162746D02*
X0309850Y0165749D01*
M02*
