%
M48
M72
T01C0.0236
T02C0.0400
T03C0.0440
T04C0.0591
%
T01
X5420Y3967
X6798Y4755
X6011Y5542
X3845Y6330
X10735Y7117
X13097Y5542
X13885Y4755
X12507Y3967
X19593Y3967
X20971Y4755
X20184Y5542
X17428Y7904
X14278Y9282
X17428Y10857
X15656Y11448
X17428Y11841
X22940Y11448
X24515Y11841
X24711Y10070
X21365Y9282
X24908Y8495
X28649Y10070
X29239Y9873
X29830Y11448
X36805Y9055
X37430Y9055
X35538Y8298
X27271Y5542
X28058Y4755
X26680Y3967
X10341Y10857
X8570Y11448
X10341Y11841
X7389Y9282
X3058Y10857
X3058Y12432
T02
X32180Y16180
X33180Y16180
X34180Y16180
X35180Y16180
X36180Y16180
X37180Y16180
X38180Y16180
X39180Y16180
X40180Y16180
X41180Y16180
X41180Y6180
X40180Y6180
X39180Y6180
X38180Y6180
X37180Y6180
X36180Y6180
X35180Y6180
X34180Y6180
X33180Y6180
X32180Y6180
X44180Y6180
X45180Y6180
X46180Y6180
X47180Y6180
X48180Y6180
X49180Y6180
T03
X41562Y9680
X41562Y10680
X41562Y11680
X41562Y12680
T04
X28771Y14794
X25771Y14794
X21684Y14794
X18684Y14794
X14597Y14794
X11597Y14794
X7511Y14794
X4511Y14794
M30
