G75*
%MOIN*%
%OFA0B0*%
%FSLAX25Y25*%
%IPPOS*%
%LPD*%
%AMOC8*
5,1,8,0,0,1.08239X$1,22.5*
%
%ADD10C,0.07200*%
%ADD11C,0.08200*%
%ADD12R,0.03300X0.05800*%
%ADD13C,0.00500*%
%ADD14C,0.10643*%
D10*
X0321800Y0055400D02*
X0321800Y0068200D01*
X0331800Y0068200D02*
X0331800Y0055400D01*
X0341800Y0055400D02*
X0341800Y0068200D01*
X0351800Y0068200D02*
X0351800Y0055400D01*
X0361800Y0055400D02*
X0361800Y0068200D01*
X0371800Y0068200D02*
X0371800Y0055400D01*
X0381800Y0055400D02*
X0381800Y0068200D01*
X0391800Y0068200D02*
X0391800Y0055400D01*
X0401800Y0055400D02*
X0401800Y0068200D01*
X0411800Y0068200D02*
X0411800Y0055400D01*
X0441800Y0055400D02*
X0441800Y0068200D01*
X0451800Y0068200D02*
X0451800Y0055400D01*
X0461800Y0055400D02*
X0461800Y0068200D01*
X0471800Y0068200D02*
X0471800Y0055400D01*
X0481800Y0055400D02*
X0481800Y0068200D01*
X0491800Y0068200D02*
X0491800Y0055400D01*
X0411800Y0155400D02*
X0411800Y0168200D01*
X0401800Y0168200D02*
X0401800Y0155400D01*
X0391800Y0155400D02*
X0391800Y0168200D01*
X0381800Y0168200D02*
X0381800Y0155400D01*
X0371800Y0155400D02*
X0371800Y0168200D01*
X0361800Y0168200D02*
X0361800Y0155400D01*
X0351800Y0155400D02*
X0351800Y0168200D01*
X0341800Y0168200D02*
X0341800Y0155400D01*
X0331800Y0155400D02*
X0331800Y0168200D01*
X0321800Y0168200D02*
X0321800Y0155400D01*
D11*
X0408219Y0126800D02*
X0423019Y0126800D01*
X0423019Y0116800D02*
X0408219Y0116800D01*
X0408219Y0106800D02*
X0423019Y0106800D01*
X0423019Y0096800D02*
X0408219Y0096800D01*
D12*
X0377050Y0098050D03*
X0373050Y0098050D03*
X0369050Y0098050D03*
X0369050Y0083050D03*
X0373050Y0083050D03*
X0377050Y0083050D03*
D13*
X0371800Y0083147D02*
X0370300Y0083147D01*
X0370300Y0083550D02*
X0370300Y0082550D01*
X0371800Y0082550D01*
X0371800Y0083550D01*
X0370300Y0083550D01*
X0370300Y0082648D02*
X0371800Y0082648D01*
X0374300Y0097550D02*
X0374300Y0098550D01*
X0375800Y0098550D01*
X0375800Y0097550D01*
X0374300Y0097550D01*
X0374300Y0097603D02*
X0375800Y0097603D01*
X0375800Y0098102D02*
X0374300Y0098102D01*
D14*
X0287706Y0147942D03*
X0257706Y0147942D03*
X0216839Y0147942D03*
X0186839Y0147942D03*
X0145973Y0147942D03*
X0115973Y0147942D03*
X0075107Y0147942D03*
X0045107Y0147942D03*
M02*
