G75*
%MOIN*%
%OFA0B0*%
%FSLAX25Y25*%
%IPPOS*%
%LPD*%
%AMOC8*
5,1,8,0,0,1.08239X$1,22.5*
%
%ADD10R,0.01200X0.03900*%
%ADD11R,0.05906X0.04724*%
%ADD12R,0.05118X0.05906*%
%ADD13R,0.05906X0.05118*%
%ADD14R,0.05315X0.03150*%
%ADD15R,0.03150X0.05315*%
D10*
X0052430Y0093147D03*
X0054989Y0093147D03*
X0057548Y0093147D03*
X0060107Y0093147D03*
X0062666Y0093147D03*
X0065225Y0093147D03*
X0067784Y0093147D03*
X0067784Y0116122D03*
X0065225Y0116122D03*
X0062666Y0116122D03*
X0060107Y0116122D03*
X0057548Y0116122D03*
X0054989Y0116122D03*
X0052430Y0116122D03*
X0123296Y0116122D03*
X0125855Y0116122D03*
X0128414Y0116122D03*
X0130973Y0116122D03*
X0133532Y0116122D03*
X0136091Y0116122D03*
X0138650Y0116122D03*
X0138650Y0093147D03*
X0136091Y0093147D03*
X0133532Y0093147D03*
X0130973Y0093147D03*
X0128414Y0093147D03*
X0125855Y0093147D03*
X0123296Y0093147D03*
X0194162Y0093147D03*
X0196721Y0093147D03*
X0199280Y0093147D03*
X0201839Y0093147D03*
X0204398Y0093147D03*
X0206957Y0093147D03*
X0209517Y0093147D03*
X0265028Y0093147D03*
X0267587Y0093147D03*
X0270146Y0093147D03*
X0272706Y0093147D03*
X0275265Y0093147D03*
X0277824Y0093147D03*
X0280383Y0093147D03*
X0280383Y0116122D03*
X0277824Y0116122D03*
X0275265Y0116122D03*
X0272706Y0116122D03*
X0270146Y0116122D03*
X0267587Y0116122D03*
X0265028Y0116122D03*
X0209517Y0116122D03*
X0206957Y0116122D03*
X0204398Y0116122D03*
X0201839Y0116122D03*
X0199280Y0116122D03*
X0196721Y0116122D03*
X0194162Y0116122D03*
D11*
X0221524Y0114280D03*
X0221524Y0122548D03*
X0290422Y0122548D03*
X0290422Y0114280D03*
X0148690Y0114280D03*
X0148690Y0122548D03*
X0077824Y0122548D03*
X0077824Y0114280D03*
D12*
X0109517Y0124320D03*
X0116997Y0124320D03*
X0116997Y0132194D03*
X0109517Y0132194D03*
X0127233Y0132194D03*
X0134713Y0132194D03*
X0144950Y0132194D03*
X0152430Y0132194D03*
X0180383Y0132194D03*
X0187863Y0132194D03*
X0198099Y0132194D03*
X0205580Y0132194D03*
X0217784Y0132194D03*
X0225265Y0132194D03*
X0251249Y0132194D03*
X0258729Y0132194D03*
X0268965Y0132194D03*
X0276446Y0132194D03*
X0286682Y0132194D03*
X0294162Y0132194D03*
X0258729Y0124320D03*
X0251249Y0124320D03*
X0187863Y0124320D03*
X0180383Y0124320D03*
X0184320Y0084950D03*
X0191800Y0084950D03*
X0256682Y0084713D03*
X0264162Y0084713D03*
X0121013Y0084162D03*
X0113532Y0084162D03*
X0050068Y0084950D03*
X0042587Y0084950D03*
X0046131Y0124320D03*
X0038650Y0124320D03*
X0038650Y0132194D03*
X0046131Y0132194D03*
X0056367Y0132194D03*
X0063847Y0132194D03*
X0074083Y0132194D03*
X0081564Y0132194D03*
D13*
X0113257Y0116249D03*
X0113257Y0108769D03*
X0113257Y0100501D03*
X0113257Y0093020D03*
X0115225Y0065068D03*
X0115225Y0057587D03*
X0146721Y0057587D03*
X0146721Y0065068D03*
X0186091Y0065068D03*
X0186091Y0057587D03*
X0217587Y0057587D03*
X0217587Y0065068D03*
X0258926Y0065068D03*
X0258926Y0057587D03*
X0288454Y0057587D03*
X0288454Y0065068D03*
X0254989Y0093020D03*
X0254989Y0100501D03*
X0254989Y0108769D03*
X0254989Y0116249D03*
X0184123Y0116249D03*
X0184123Y0108769D03*
X0184202Y0101209D03*
X0184202Y0093729D03*
X0075855Y0065068D03*
X0075855Y0057587D03*
X0046328Y0057587D03*
X0046328Y0065068D03*
X0042391Y0093020D03*
X0042391Y0100501D03*
X0042391Y0108769D03*
X0042391Y0116249D03*
D14*
X0041328Y0077076D03*
X0051328Y0077076D03*
X0110146Y0075737D03*
X0120146Y0075737D03*
X0181091Y0077076D03*
X0191091Y0077076D03*
X0253926Y0077076D03*
X0263926Y0077076D03*
D15*
X0054202Y0056328D03*
X0067981Y0056328D03*
X0067981Y0066328D03*
X0054202Y0066328D03*
X0125068Y0066328D03*
X0138847Y0066328D03*
X0138847Y0056328D03*
X0125068Y0056328D03*
X0195934Y0056328D03*
X0209713Y0056328D03*
X0209713Y0066328D03*
X0195934Y0066328D03*
X0266800Y0066328D03*
X0280580Y0066328D03*
X0280580Y0056328D03*
X0266800Y0056328D03*
M02*
