G75*
%MOIN*%
%OFA0B0*%
%FSLAX25Y25*%
%IPPOS*%
%LPD*%
%AMOC8*
5,1,8,0,0,1.08239X$1,22.5*
%
%ADD10C,0.06400*%
%ADD11C,0.07400*%
%ADD12R,0.01200X0.03900*%
%ADD13R,0.05906X0.04724*%
%ADD14R,0.05118X0.05906*%
%ADD15R,0.05906X0.05118*%
%ADD16R,0.05315X0.03150*%
%ADD17R,0.03150X0.05315*%
%ADD18C,0.09843*%
%ADD19C,0.02400*%
%ADD20C,0.04362*%
%ADD21C,0.03200*%
%ADD22C,0.01200*%
%ADD23C,0.01600*%
%ADD24C,0.02402*%
%ADD25C,0.05000*%
D10*
X0321800Y0055400D02*
X0321800Y0068200D01*
X0331800Y0068200D02*
X0331800Y0055400D01*
X0341800Y0055400D02*
X0341800Y0068200D01*
X0351800Y0068200D02*
X0351800Y0055400D01*
X0361800Y0055400D02*
X0361800Y0068200D01*
X0371800Y0068200D02*
X0371800Y0055400D01*
X0381800Y0055400D02*
X0381800Y0068200D01*
X0391800Y0068200D02*
X0391800Y0055400D01*
X0401800Y0055400D02*
X0401800Y0068200D01*
X0411800Y0068200D02*
X0411800Y0055400D01*
X0441800Y0055400D02*
X0441800Y0068200D01*
X0451800Y0068200D02*
X0451800Y0055400D01*
X0461800Y0055400D02*
X0461800Y0068200D01*
X0471800Y0068200D02*
X0471800Y0055400D01*
X0481800Y0055400D02*
X0481800Y0068200D01*
X0491800Y0068200D02*
X0491800Y0055400D01*
X0411800Y0155400D02*
X0411800Y0168200D01*
X0401800Y0168200D02*
X0401800Y0155400D01*
X0391800Y0155400D02*
X0391800Y0168200D01*
X0381800Y0168200D02*
X0381800Y0155400D01*
X0371800Y0155400D02*
X0371800Y0168200D01*
X0361800Y0168200D02*
X0361800Y0155400D01*
X0351800Y0155400D02*
X0351800Y0168200D01*
X0341800Y0168200D02*
X0341800Y0155400D01*
X0331800Y0155400D02*
X0331800Y0168200D01*
X0321800Y0168200D02*
X0321800Y0155400D01*
D11*
X0408219Y0126800D02*
X0423019Y0126800D01*
X0423019Y0116800D02*
X0408219Y0116800D01*
X0408219Y0106800D02*
X0423019Y0106800D01*
X0423019Y0096800D02*
X0408219Y0096800D01*
D12*
X0280383Y0093147D03*
X0277824Y0093147D03*
X0275265Y0093147D03*
X0272706Y0093147D03*
X0270146Y0093147D03*
X0267587Y0093147D03*
X0265028Y0093147D03*
X0209517Y0093147D03*
X0206957Y0093147D03*
X0204398Y0093147D03*
X0201839Y0093147D03*
X0199280Y0093147D03*
X0196721Y0093147D03*
X0194162Y0093147D03*
X0194162Y0116122D03*
X0196721Y0116122D03*
X0199280Y0116122D03*
X0201839Y0116122D03*
X0204398Y0116122D03*
X0206957Y0116122D03*
X0209517Y0116122D03*
X0265028Y0116122D03*
X0267587Y0116122D03*
X0270146Y0116122D03*
X0272706Y0116122D03*
X0275265Y0116122D03*
X0277824Y0116122D03*
X0280383Y0116122D03*
X0138650Y0116122D03*
X0136091Y0116122D03*
X0133532Y0116122D03*
X0130973Y0116122D03*
X0128414Y0116122D03*
X0125855Y0116122D03*
X0123296Y0116122D03*
X0123296Y0093147D03*
X0125855Y0093147D03*
X0128414Y0093147D03*
X0130973Y0093147D03*
X0133532Y0093147D03*
X0136091Y0093147D03*
X0138650Y0093147D03*
X0067784Y0093147D03*
X0065225Y0093147D03*
X0062666Y0093147D03*
X0060107Y0093147D03*
X0057548Y0093147D03*
X0054989Y0093147D03*
X0052430Y0093147D03*
X0052430Y0116122D03*
X0054989Y0116122D03*
X0057548Y0116122D03*
X0060107Y0116122D03*
X0062666Y0116122D03*
X0065225Y0116122D03*
X0067784Y0116122D03*
D13*
X0077824Y0114280D03*
X0077824Y0122548D03*
X0148690Y0122548D03*
X0148690Y0114280D03*
X0221524Y0114280D03*
X0221524Y0122548D03*
X0290422Y0122548D03*
X0290422Y0114280D03*
D14*
X0258729Y0124320D03*
X0251249Y0124320D03*
X0251249Y0132194D03*
X0258729Y0132194D03*
X0268965Y0132194D03*
X0276446Y0132194D03*
X0286682Y0132194D03*
X0294162Y0132194D03*
X0225265Y0132194D03*
X0217784Y0132194D03*
X0205580Y0132194D03*
X0198099Y0132194D03*
X0187863Y0132194D03*
X0180383Y0132194D03*
X0180383Y0124320D03*
X0187863Y0124320D03*
X0152430Y0132194D03*
X0144950Y0132194D03*
X0134713Y0132194D03*
X0127233Y0132194D03*
X0116997Y0132194D03*
X0109517Y0132194D03*
X0109517Y0124320D03*
X0116997Y0124320D03*
X0081564Y0132194D03*
X0074083Y0132194D03*
X0063847Y0132194D03*
X0056367Y0132194D03*
X0046131Y0132194D03*
X0038650Y0132194D03*
X0038650Y0124320D03*
X0046131Y0124320D03*
X0042587Y0084950D03*
X0050068Y0084950D03*
X0113532Y0084162D03*
X0121013Y0084162D03*
X0184320Y0084950D03*
X0191800Y0084950D03*
X0256682Y0084713D03*
X0264162Y0084713D03*
D15*
X0254989Y0093020D03*
X0254989Y0100501D03*
X0254989Y0108769D03*
X0254989Y0116249D03*
X0184123Y0116249D03*
X0184123Y0108769D03*
X0184202Y0101209D03*
X0184202Y0093729D03*
X0186091Y0065068D03*
X0186091Y0057587D03*
X0217587Y0057587D03*
X0217587Y0065068D03*
X0258926Y0065068D03*
X0258926Y0057587D03*
X0288454Y0057587D03*
X0288454Y0065068D03*
X0146721Y0065068D03*
X0146721Y0057587D03*
X0115225Y0057587D03*
X0115225Y0065068D03*
X0075855Y0065068D03*
X0075855Y0057587D03*
X0046328Y0057587D03*
X0046328Y0065068D03*
X0042391Y0093020D03*
X0042391Y0100501D03*
X0042391Y0108769D03*
X0042391Y0116249D03*
X0113257Y0116249D03*
X0113257Y0108769D03*
X0113257Y0100501D03*
X0113257Y0093020D03*
D16*
X0110146Y0075737D03*
X0120146Y0075737D03*
X0181091Y0077076D03*
X0191091Y0077076D03*
X0253926Y0077076D03*
X0263926Y0077076D03*
X0051328Y0077076D03*
X0041328Y0077076D03*
D17*
X0054202Y0066328D03*
X0067981Y0066328D03*
X0067981Y0056328D03*
X0054202Y0056328D03*
X0125068Y0056328D03*
X0138847Y0056328D03*
X0138847Y0066328D03*
X0125068Y0066328D03*
X0195934Y0066328D03*
X0209713Y0066328D03*
X0209713Y0056328D03*
X0195934Y0056328D03*
X0266800Y0056328D03*
X0280580Y0056328D03*
X0280580Y0066328D03*
X0266800Y0066328D03*
D18*
X0257706Y0147942D03*
X0287706Y0147942D03*
X0216839Y0147942D03*
X0186839Y0147942D03*
X0145973Y0147942D03*
X0115973Y0147942D03*
X0075107Y0147942D03*
X0045107Y0147942D03*
D19*
X0030776Y0108769D02*
X0030580Y0108572D01*
X0050068Y0084950D02*
X0050068Y0076367D01*
X0054202Y0056328D02*
X0054202Y0039674D01*
X0067981Y0047548D02*
X0067981Y0056328D01*
X0107351Y0071170D02*
X0110146Y0073965D01*
X0120146Y0075737D02*
X0120146Y0083296D01*
X0174280Y0079044D02*
X0176249Y0077076D01*
X0181091Y0077076D01*
X0191091Y0077076D02*
X0191091Y0084241D01*
X0249083Y0084950D02*
X0249083Y0081918D01*
X0253926Y0077076D01*
X0263926Y0077076D02*
X0263926Y0084477D01*
X0254989Y0100501D02*
X0254989Y0108769D01*
X0254792Y0100698D02*
X0247115Y0100698D01*
X0254792Y0100698D02*
X0254989Y0100501D01*
X0292391Y0098729D02*
X0339635Y0098729D01*
X0355383Y0082981D01*
X0411800Y0061800D02*
X0411800Y0051800D01*
X0416800Y0046800D01*
X0466800Y0046800D01*
X0471800Y0051800D01*
X0471800Y0061800D01*
X0280580Y0056328D02*
X0280580Y0047548D01*
X0266800Y0039674D02*
X0266800Y0056328D01*
X0209713Y0056328D02*
X0209713Y0047548D01*
X0195934Y0039674D02*
X0195934Y0056328D01*
X0138847Y0056328D02*
X0138847Y0047548D01*
X0125068Y0039674D02*
X0125068Y0056328D01*
X0245146Y0118414D02*
X0245343Y0118414D01*
D20*
X0245146Y0118414D03*
X0229398Y0114477D03*
X0247115Y0100698D03*
X0213650Y0092824D03*
X0249083Y0084950D03*
X0286485Y0100698D03*
X0292391Y0098729D03*
X0298296Y0114477D03*
X0368050Y0090550D03*
X0374300Y0090550D03*
X0355383Y0082981D03*
X0272706Y0055422D03*
X0280580Y0047548D03*
X0266800Y0039674D03*
X0209713Y0047548D03*
X0195934Y0039674D03*
X0201839Y0055422D03*
X0174280Y0079044D03*
X0142784Y0092824D03*
X0174280Y0108572D03*
X0156564Y0114477D03*
X0174280Y0118414D03*
X0103414Y0118414D03*
X0085698Y0114477D03*
X0103414Y0108572D03*
X0073887Y0092824D03*
X0030580Y0108572D03*
X0030580Y0124320D03*
X0107351Y0071170D03*
X0130973Y0055422D03*
X0138847Y0047548D03*
X0125068Y0039674D03*
X0067981Y0047548D03*
X0054202Y0039674D03*
X0060107Y0055422D03*
X0038454Y0063296D03*
D21*
X0038454Y0072233D01*
X0038454Y0074202D01*
X0041328Y0077076D01*
X0047587Y0066328D02*
X0054202Y0066328D01*
X0069241Y0065068D02*
X0075855Y0065068D01*
X0116485Y0066328D02*
X0125068Y0066328D01*
X0138847Y0066328D02*
X0145461Y0066328D01*
X0187351Y0066328D02*
X0195934Y0066328D01*
X0209713Y0066328D02*
X0216328Y0066328D01*
X0260186Y0066328D02*
X0266800Y0066328D01*
X0281839Y0065068D02*
X0288454Y0065068D01*
X0290422Y0114280D02*
X0298099Y0114280D01*
X0290422Y0122548D02*
X0286682Y0126288D01*
X0286682Y0132194D01*
X0276446Y0132194D01*
X0268965Y0132194D02*
X0258729Y0132194D01*
X0258729Y0124320D01*
X0251249Y0124320D02*
X0245343Y0118414D01*
X0229202Y0114280D02*
X0221524Y0114280D01*
X0221524Y0122548D02*
X0217784Y0126288D01*
X0217784Y0132194D01*
X0205580Y0132194D01*
X0197902Y0131997D02*
X0188060Y0131997D01*
X0187863Y0132194D02*
X0187863Y0124320D01*
X0180186Y0124320D02*
X0174280Y0118414D01*
X0156367Y0114280D02*
X0148690Y0114280D01*
X0148690Y0122548D02*
X0144950Y0126288D01*
X0144950Y0132194D01*
X0134713Y0132194D01*
X0127036Y0131997D02*
X0117194Y0131997D01*
X0116997Y0132194D02*
X0116997Y0124320D01*
X0109320Y0124320D02*
X0103414Y0118414D01*
X0085698Y0114477D02*
X0079792Y0114477D01*
X0077824Y0122548D02*
X0074083Y0126288D01*
X0074083Y0132194D01*
X0063847Y0132194D01*
X0056367Y0132194D02*
X0046131Y0132194D01*
X0046131Y0124320D01*
X0038650Y0124320D02*
X0030580Y0124320D01*
X0030776Y0108769D02*
X0042391Y0108769D01*
X0103611Y0108769D02*
X0113257Y0108769D01*
D22*
X0113257Y0100501D01*
X0125855Y0093147D02*
X0125855Y0089005D01*
X0121013Y0084162D01*
X0120146Y0083296D01*
X0133532Y0080422D02*
X0138847Y0075107D01*
X0138847Y0066328D01*
X0145461Y0066328D02*
X0146721Y0065068D01*
X0130973Y0055422D02*
X0130973Y0093147D01*
X0128414Y0093147D02*
X0128414Y0069674D01*
X0125068Y0066328D01*
X0116485Y0066328D02*
X0115225Y0065068D01*
X0110146Y0073965D02*
X0110146Y0075737D01*
X0133532Y0080422D02*
X0133532Y0093147D01*
X0142461Y0093148D02*
X0142495Y0093146D01*
X0142528Y0093141D01*
X0142561Y0093132D01*
X0142593Y0093120D01*
X0142623Y0093105D01*
X0142651Y0093086D01*
X0142678Y0093065D01*
X0142702Y0093041D01*
X0142723Y0093014D01*
X0142742Y0092986D01*
X0142757Y0092956D01*
X0142769Y0092924D01*
X0142778Y0092891D01*
X0142783Y0092858D01*
X0142785Y0092824D01*
X0174280Y0108572D02*
X0174477Y0108769D01*
X0184123Y0108769D01*
X0184123Y0101288D01*
X0184202Y0101209D01*
X0196721Y0093147D02*
X0196721Y0089871D01*
X0191800Y0084950D01*
X0191091Y0084241D01*
X0204398Y0080422D02*
X0209713Y0075107D01*
X0209713Y0066328D01*
X0216328Y0066328D02*
X0217587Y0065068D01*
X0199280Y0069674D02*
X0195934Y0066328D01*
X0199280Y0069674D02*
X0199280Y0093147D01*
X0201839Y0093147D02*
X0201839Y0055422D01*
X0187351Y0066328D02*
X0186091Y0065068D01*
X0204398Y0080422D02*
X0204398Y0093147D01*
X0213327Y0093147D02*
X0213650Y0092824D01*
X0254989Y0093020D02*
X0254989Y0086406D01*
X0256682Y0084713D01*
X0263926Y0084477D02*
X0264162Y0084713D01*
X0267587Y0088139D01*
X0267587Y0093147D01*
X0270146Y0093147D02*
X0270146Y0069674D01*
X0266800Y0066328D01*
X0260186Y0066328D02*
X0258926Y0065068D01*
X0272706Y0055422D02*
X0272706Y0093147D01*
X0275265Y0093147D02*
X0275265Y0080422D01*
X0280580Y0075107D01*
X0280580Y0066328D01*
X0281839Y0065068D01*
X0280383Y0093147D02*
X0280383Y0094595D01*
X0290422Y0114280D02*
X0288580Y0116122D01*
X0280383Y0116122D01*
X0277824Y0116122D02*
X0277824Y0119595D01*
X0278611Y0120383D01*
X0284517Y0120383D01*
X0286485Y0118414D01*
X0294359Y0118414D01*
X0296328Y0120383D01*
X0296328Y0130028D01*
X0294162Y0132194D01*
X0286682Y0132194D02*
X0286288Y0131800D01*
X0276446Y0132194D02*
X0275265Y0131406D01*
X0275265Y0116122D01*
X0272706Y0116122D02*
X0272706Y0122351D01*
X0268965Y0126091D01*
X0268965Y0132194D01*
X0298099Y0114280D02*
X0298296Y0114477D01*
X0229398Y0114477D02*
X0229202Y0114280D01*
X0221524Y0114280D02*
X0219683Y0116122D01*
X0209517Y0116122D01*
X0206957Y0116122D02*
X0206957Y0119595D01*
X0207745Y0120383D01*
X0215619Y0120383D01*
X0217587Y0118414D01*
X0225461Y0118414D01*
X0227430Y0120383D01*
X0227430Y0130028D01*
X0225265Y0132194D01*
X0205580Y0132194D02*
X0204398Y0131013D01*
X0204398Y0116122D01*
X0201839Y0116122D02*
X0201839Y0122351D01*
X0197902Y0126288D01*
X0197902Y0131997D01*
X0198099Y0132194D01*
X0188060Y0131997D02*
X0187863Y0132194D01*
X0180383Y0124320D02*
X0180186Y0124320D01*
X0156564Y0114477D02*
X0156367Y0114280D01*
X0148690Y0114280D02*
X0148688Y0114365D01*
X0148682Y0114450D01*
X0148672Y0114534D01*
X0148659Y0114618D01*
X0148641Y0114702D01*
X0148620Y0114784D01*
X0148595Y0114865D01*
X0148566Y0114945D01*
X0148533Y0115024D01*
X0148497Y0115101D01*
X0148457Y0115176D01*
X0148414Y0115250D01*
X0148368Y0115321D01*
X0148318Y0115390D01*
X0148265Y0115457D01*
X0148209Y0115521D01*
X0148150Y0115582D01*
X0148089Y0115641D01*
X0148025Y0115697D01*
X0147958Y0115750D01*
X0147889Y0115800D01*
X0147818Y0115846D01*
X0147744Y0115889D01*
X0147669Y0115929D01*
X0147592Y0115965D01*
X0147513Y0115998D01*
X0147433Y0116027D01*
X0147352Y0116052D01*
X0147270Y0116073D01*
X0147186Y0116091D01*
X0147102Y0116104D01*
X0147018Y0116114D01*
X0146933Y0116120D01*
X0146848Y0116122D01*
X0138650Y0116122D01*
X0136091Y0116122D02*
X0136091Y0119595D01*
X0136879Y0120383D01*
X0142784Y0120383D01*
X0144753Y0118414D01*
X0152627Y0118414D01*
X0154595Y0120383D01*
X0154595Y0130028D01*
X0152430Y0132194D01*
X0134713Y0132194D02*
X0133532Y0131013D01*
X0133532Y0116122D01*
X0130973Y0116122D02*
X0130973Y0122351D01*
X0127036Y0126288D01*
X0127036Y0131997D01*
X0127233Y0132194D01*
X0117194Y0131997D02*
X0116997Y0132194D01*
X0109517Y0124320D02*
X0109320Y0124320D01*
X0083729Y0120383D02*
X0081761Y0118414D01*
X0073887Y0118414D01*
X0071918Y0120383D01*
X0066013Y0120383D01*
X0065225Y0119595D01*
X0065225Y0116122D01*
X0062666Y0116122D02*
X0062666Y0131013D01*
X0063847Y0132194D01*
X0056367Y0132194D02*
X0056170Y0131997D01*
X0056170Y0126288D01*
X0060107Y0122351D01*
X0060107Y0116122D01*
X0067784Y0116122D02*
X0078147Y0116122D01*
X0078225Y0116120D01*
X0078303Y0116115D01*
X0078381Y0116105D01*
X0078458Y0116092D01*
X0078535Y0116076D01*
X0078610Y0116055D01*
X0078685Y0116032D01*
X0078758Y0116004D01*
X0078830Y0115973D01*
X0078901Y0115939D01*
X0078970Y0115902D01*
X0079036Y0115861D01*
X0079101Y0115817D01*
X0079164Y0115770D01*
X0079224Y0115720D01*
X0079282Y0115668D01*
X0079338Y0115612D01*
X0079390Y0115554D01*
X0079440Y0115494D01*
X0079487Y0115431D01*
X0079531Y0115366D01*
X0079572Y0115300D01*
X0079609Y0115231D01*
X0079643Y0115160D01*
X0079674Y0115088D01*
X0079702Y0115015D01*
X0079725Y0114940D01*
X0079746Y0114865D01*
X0079762Y0114788D01*
X0079775Y0114711D01*
X0079785Y0114633D01*
X0079790Y0114555D01*
X0079792Y0114477D01*
X0078020Y0114477D01*
X0077824Y0114280D01*
X0083729Y0120383D02*
X0083729Y0130028D01*
X0081564Y0132194D01*
X0103611Y0108769D02*
X0103585Y0108767D01*
X0103560Y0108762D01*
X0103536Y0108754D01*
X0103513Y0108743D01*
X0103491Y0108728D01*
X0103472Y0108711D01*
X0103455Y0108692D01*
X0103440Y0108671D01*
X0103429Y0108647D01*
X0103421Y0108623D01*
X0103416Y0108598D01*
X0103414Y0108572D01*
X0068108Y0092824D02*
X0067784Y0093147D01*
X0062666Y0093147D02*
X0062666Y0080422D01*
X0067981Y0075107D01*
X0067981Y0066328D01*
X0069241Y0065068D01*
X0057548Y0069674D02*
X0054202Y0066328D01*
X0057548Y0069674D02*
X0057548Y0093147D01*
X0054989Y0093147D02*
X0054989Y0089871D01*
X0050068Y0084950D01*
X0051328Y0077076D02*
X0050068Y0076367D01*
X0047587Y0066328D02*
X0046328Y0065068D01*
X0060107Y0055422D02*
X0060107Y0093147D01*
X0042391Y0100501D02*
X0042391Y0108769D01*
D23*
X0019899Y0033600D02*
X0019899Y0187480D01*
X0437874Y0187480D01*
X0437874Y0091802D01*
X0438928Y0090748D01*
X0500000Y0090748D01*
X0500000Y0033600D01*
X0019899Y0033600D01*
X0019899Y0034997D02*
X0500000Y0034997D01*
X0500000Y0036596D02*
X0269069Y0036596D01*
X0268942Y0036469D02*
X0270005Y0037532D01*
X0270581Y0038922D01*
X0270581Y0040426D01*
X0270005Y0041816D01*
X0269600Y0042221D01*
X0269600Y0052633D01*
X0269874Y0052906D01*
X0270564Y0052217D01*
X0271953Y0051641D01*
X0273458Y0051641D01*
X0274847Y0052217D01*
X0275911Y0053280D01*
X0276487Y0054670D01*
X0276487Y0056174D01*
X0275911Y0057564D01*
X0274905Y0058569D01*
X0274905Y0077670D01*
X0278380Y0074196D01*
X0278380Y0070585D01*
X0278342Y0070585D01*
X0277405Y0069648D01*
X0277405Y0063007D01*
X0278342Y0062070D01*
X0280714Y0062070D01*
X0281203Y0061868D01*
X0283901Y0061868D01*
X0283901Y0061846D01*
X0284278Y0061469D01*
X0284060Y0061252D01*
X0283823Y0060841D01*
X0283701Y0060383D01*
X0283701Y0059701D01*
X0282817Y0060585D01*
X0278342Y0060585D01*
X0277405Y0059648D01*
X0277405Y0053007D01*
X0277780Y0052633D01*
X0277780Y0050095D01*
X0277374Y0049690D01*
X0276798Y0048300D01*
X0276798Y0046796D01*
X0277374Y0045406D01*
X0278438Y0044343D01*
X0279827Y0043767D01*
X0281332Y0043767D01*
X0282721Y0044343D01*
X0283785Y0045406D01*
X0284361Y0046796D01*
X0284361Y0048300D01*
X0283785Y0049690D01*
X0283380Y0050095D01*
X0283380Y0052633D01*
X0283754Y0053007D01*
X0283754Y0054592D01*
X0283823Y0054334D01*
X0284060Y0053923D01*
X0284396Y0053588D01*
X0284806Y0053351D01*
X0285264Y0053228D01*
X0287974Y0053228D01*
X0287974Y0057108D01*
X0288933Y0057108D01*
X0288933Y0058067D01*
X0293206Y0058067D01*
X0293206Y0060383D01*
X0293084Y0060841D01*
X0292847Y0061252D01*
X0292629Y0061469D01*
X0293006Y0061846D01*
X0293006Y0068290D01*
X0292069Y0069227D01*
X0284838Y0069227D01*
X0283901Y0068290D01*
X0283901Y0068268D01*
X0283754Y0068268D01*
X0283754Y0069648D01*
X0282817Y0070585D01*
X0282780Y0070585D01*
X0282780Y0076018D01*
X0281491Y0077307D01*
X0277465Y0081333D01*
X0277465Y0089597D01*
X0279086Y0089597D01*
X0279103Y0089614D01*
X0279120Y0089597D01*
X0281645Y0089597D01*
X0282583Y0090534D01*
X0282583Y0093401D01*
X0286098Y0096917D01*
X0287237Y0096917D01*
X0288627Y0097492D01*
X0288757Y0097622D01*
X0289185Y0096587D01*
X0290249Y0095524D01*
X0291638Y0094948D01*
X0293143Y0094948D01*
X0294532Y0095524D01*
X0294938Y0095929D01*
X0338475Y0095929D01*
X0351602Y0082802D01*
X0351602Y0082229D01*
X0352177Y0080839D01*
X0353241Y0079776D01*
X0354631Y0079200D01*
X0356135Y0079200D01*
X0357524Y0079776D01*
X0358588Y0080839D01*
X0359164Y0082229D01*
X0359164Y0083733D01*
X0358588Y0085123D01*
X0357524Y0086187D01*
X0356135Y0086762D01*
X0355561Y0086762D01*
X0342008Y0100315D01*
X0341221Y0101103D01*
X0340192Y0101529D01*
X0294938Y0101529D01*
X0294532Y0101935D01*
X0293143Y0102510D01*
X0291638Y0102510D01*
X0290249Y0101935D01*
X0290119Y0101805D01*
X0289690Y0102839D01*
X0288627Y0103903D01*
X0287237Y0104479D01*
X0285733Y0104479D01*
X0284343Y0103903D01*
X0283280Y0102839D01*
X0282704Y0101450D01*
X0282704Y0100311D01*
X0279088Y0096695D01*
X0279086Y0096697D01*
X0276561Y0096697D01*
X0276544Y0096680D01*
X0276527Y0096697D01*
X0274002Y0096697D01*
X0273985Y0096680D01*
X0273968Y0096697D01*
X0271443Y0096697D01*
X0271426Y0096680D01*
X0271409Y0096697D01*
X0268884Y0096697D01*
X0268867Y0096680D01*
X0268850Y0096697D01*
X0266457Y0096697D01*
X0266323Y0096775D01*
X0265865Y0096897D01*
X0265028Y0096897D01*
X0264191Y0096897D01*
X0263734Y0096775D01*
X0263323Y0096538D01*
X0262988Y0096202D01*
X0262751Y0095792D01*
X0262628Y0095334D01*
X0262628Y0093147D01*
X0262628Y0090960D01*
X0262751Y0090502D01*
X0262988Y0090092D01*
X0263323Y0089757D01*
X0263734Y0089520D01*
X0264191Y0089397D01*
X0265028Y0089397D01*
X0265028Y0093147D01*
X0262628Y0093147D01*
X0265028Y0093147D01*
X0265028Y0093147D01*
X0265028Y0093147D01*
X0265028Y0089397D01*
X0265387Y0089397D01*
X0265387Y0089266D01*
X0260940Y0089266D01*
X0260563Y0088889D01*
X0260346Y0089106D01*
X0259936Y0089343D01*
X0259478Y0089466D01*
X0259446Y0089466D01*
X0259619Y0089767D01*
X0259742Y0090224D01*
X0259742Y0092541D01*
X0255469Y0092541D01*
X0255469Y0093500D01*
X0259742Y0093500D01*
X0259742Y0095816D01*
X0259619Y0096274D01*
X0259382Y0096685D01*
X0259165Y0096902D01*
X0259542Y0097279D01*
X0259542Y0103723D01*
X0258630Y0104635D01*
X0259542Y0105547D01*
X0259542Y0111990D01*
X0259165Y0112367D01*
X0259382Y0112585D01*
X0259619Y0112995D01*
X0259742Y0113453D01*
X0259742Y0115769D01*
X0255469Y0115769D01*
X0255469Y0116728D01*
X0259742Y0116728D01*
X0259742Y0119045D01*
X0259619Y0119503D01*
X0259466Y0119767D01*
X0261951Y0119767D01*
X0262888Y0120704D01*
X0262888Y0127935D01*
X0262567Y0128257D01*
X0262888Y0128578D01*
X0262888Y0128994D01*
X0264806Y0128994D01*
X0264806Y0128578D01*
X0265744Y0127641D01*
X0266765Y0127641D01*
X0266765Y0125180D01*
X0268054Y0123891D01*
X0270506Y0121440D01*
X0270506Y0119872D01*
X0270147Y0119872D01*
X0270147Y0116122D01*
X0270147Y0112372D01*
X0270983Y0112372D01*
X0271441Y0112495D01*
X0271575Y0112572D01*
X0273968Y0112572D01*
X0273985Y0112589D01*
X0274002Y0112572D01*
X0276527Y0112572D01*
X0276544Y0112589D01*
X0276561Y0112572D01*
X0279086Y0112572D01*
X0279103Y0112589D01*
X0279120Y0112572D01*
X0281645Y0112572D01*
X0282583Y0113509D01*
X0282583Y0113922D01*
X0285869Y0113922D01*
X0285869Y0111255D01*
X0286807Y0110318D01*
X0294038Y0110318D01*
X0294800Y0111080D01*
X0296616Y0111080D01*
X0297544Y0110696D01*
X0299048Y0110696D01*
X0300438Y0111272D01*
X0301502Y0112335D01*
X0302077Y0113725D01*
X0302077Y0115229D01*
X0301502Y0116619D01*
X0300438Y0117683D01*
X0299048Y0118258D01*
X0297544Y0118258D01*
X0297152Y0118096D01*
X0297239Y0118183D01*
X0298528Y0119471D01*
X0298528Y0130940D01*
X0298321Y0131146D01*
X0298321Y0135809D01*
X0298262Y0135868D01*
X0298262Y0143157D01*
X0297229Y0146337D01*
X0297229Y0146337D01*
X0295263Y0149043D01*
X0293897Y0150036D01*
X0293234Y0151636D01*
X0291400Y0153470D01*
X0289003Y0154463D01*
X0286408Y0154463D01*
X0284012Y0153470D01*
X0282177Y0151636D01*
X0281184Y0149239D01*
X0281184Y0146645D01*
X0282177Y0144248D01*
X0284012Y0142413D01*
X0286408Y0141420D01*
X0289003Y0141420D01*
X0290034Y0141848D01*
X0290062Y0141485D01*
X0290062Y0136588D01*
X0289904Y0136746D01*
X0283460Y0136746D01*
X0282523Y0135809D01*
X0282523Y0135394D01*
X0280605Y0135394D01*
X0280605Y0135809D01*
X0279667Y0136746D01*
X0273224Y0136746D01*
X0272706Y0136228D01*
X0272187Y0136746D01*
X0265744Y0136746D01*
X0264806Y0135809D01*
X0264806Y0135394D01*
X0262888Y0135394D01*
X0262888Y0135809D01*
X0261951Y0136746D01*
X0255507Y0136746D01*
X0255349Y0136588D01*
X0255349Y0141485D01*
X0255377Y0141848D01*
X0256408Y0141420D01*
X0259003Y0141420D01*
X0261400Y0142413D01*
X0263234Y0144248D01*
X0264227Y0146645D01*
X0264227Y0149239D01*
X0263234Y0151636D01*
X0261400Y0153470D01*
X0259003Y0154463D01*
X0256408Y0154463D01*
X0254012Y0153470D01*
X0252177Y0151636D01*
X0251514Y0150036D01*
X0250148Y0149043D01*
X0250148Y0149043D01*
X0248182Y0146337D01*
X0247149Y0143157D01*
X0247149Y0135868D01*
X0247090Y0135809D01*
X0247090Y0128578D01*
X0247411Y0128257D01*
X0247090Y0127935D01*
X0247090Y0124686D01*
X0244599Y0122195D01*
X0244394Y0122195D01*
X0243005Y0121620D01*
X0241941Y0120556D01*
X0241365Y0119166D01*
X0241365Y0117662D01*
X0241941Y0116272D01*
X0243005Y0115209D01*
X0244394Y0114633D01*
X0245899Y0114633D01*
X0247288Y0115209D01*
X0248352Y0116272D01*
X0248794Y0117339D01*
X0250236Y0118782D01*
X0250236Y0116728D01*
X0254509Y0116728D01*
X0254509Y0115769D01*
X0250236Y0115769D01*
X0250236Y0113453D01*
X0250359Y0112995D01*
X0250596Y0112585D01*
X0250813Y0112367D01*
X0250436Y0111990D01*
X0250436Y0105547D01*
X0251348Y0104635D01*
X0250436Y0103723D01*
X0250436Y0103498D01*
X0249662Y0103498D01*
X0249257Y0103903D01*
X0247867Y0104479D01*
X0246363Y0104479D01*
X0244973Y0103903D01*
X0243909Y0102839D01*
X0243334Y0101450D01*
X0243334Y0099946D01*
X0243909Y0098556D01*
X0244973Y0097492D01*
X0246363Y0096917D01*
X0247867Y0096917D01*
X0249257Y0097492D01*
X0249662Y0097898D01*
X0250436Y0097898D01*
X0250436Y0097279D01*
X0250813Y0096902D01*
X0250596Y0096685D01*
X0250359Y0096274D01*
X0250236Y0095816D01*
X0250236Y0093500D01*
X0254509Y0093500D01*
X0254509Y0092541D01*
X0250236Y0092541D01*
X0250236Y0090224D01*
X0250359Y0089767D01*
X0250596Y0089356D01*
X0250931Y0089021D01*
X0251341Y0088784D01*
X0251799Y0088661D01*
X0252619Y0088661D01*
X0252445Y0088361D01*
X0252323Y0087903D01*
X0252323Y0087010D01*
X0252289Y0087091D01*
X0251225Y0088155D01*
X0249836Y0088731D01*
X0248331Y0088731D01*
X0246942Y0088155D01*
X0245878Y0087091D01*
X0245302Y0085702D01*
X0245302Y0084197D01*
X0245878Y0082808D01*
X0246283Y0082402D01*
X0246283Y0081361D01*
X0246710Y0080332D01*
X0247497Y0079544D01*
X0249669Y0077373D01*
X0249669Y0074838D01*
X0250606Y0073901D01*
X0257246Y0073901D01*
X0258183Y0074838D01*
X0258183Y0079313D01*
X0257536Y0079961D01*
X0259478Y0079961D01*
X0259936Y0080083D01*
X0260346Y0080320D01*
X0260563Y0080538D01*
X0260851Y0080250D01*
X0260606Y0080250D01*
X0259669Y0079313D01*
X0259669Y0074838D01*
X0260606Y0073901D01*
X0267246Y0073901D01*
X0267946Y0074601D01*
X0267946Y0070585D01*
X0264562Y0070585D01*
X0263625Y0069648D01*
X0263625Y0069528D01*
X0259549Y0069528D01*
X0258823Y0069227D01*
X0255310Y0069227D01*
X0254373Y0068290D01*
X0254373Y0061846D01*
X0254750Y0061469D01*
X0254533Y0061252D01*
X0254296Y0060841D01*
X0254173Y0060383D01*
X0254173Y0058067D01*
X0258446Y0058067D01*
X0258446Y0057108D01*
X0254173Y0057108D01*
X0254173Y0054791D01*
X0254296Y0054334D01*
X0254533Y0053923D01*
X0254868Y0053588D01*
X0255278Y0053351D01*
X0255736Y0053228D01*
X0258446Y0053228D01*
X0258446Y0057108D01*
X0259406Y0057108D01*
X0259406Y0053228D01*
X0262116Y0053228D01*
X0262574Y0053351D01*
X0262984Y0053588D01*
X0263319Y0053923D01*
X0263556Y0054334D01*
X0263625Y0054592D01*
X0263625Y0053007D01*
X0264000Y0052633D01*
X0264000Y0042221D01*
X0263595Y0041816D01*
X0263019Y0040426D01*
X0263019Y0038922D01*
X0263595Y0037532D01*
X0264658Y0036469D01*
X0266048Y0035893D01*
X0267552Y0035893D01*
X0268942Y0036469D01*
X0270280Y0038194D02*
X0500000Y0038194D01*
X0500000Y0039793D02*
X0270581Y0039793D01*
X0270181Y0041391D02*
X0500000Y0041391D01*
X0500000Y0042990D02*
X0269600Y0042990D01*
X0269600Y0044588D02*
X0278192Y0044588D01*
X0277051Y0046187D02*
X0269600Y0046187D01*
X0269600Y0047785D02*
X0276798Y0047785D01*
X0277247Y0049384D02*
X0269600Y0049384D01*
X0269600Y0050982D02*
X0277780Y0050982D01*
X0277780Y0052581D02*
X0275211Y0052581D01*
X0276283Y0054179D02*
X0277405Y0054179D01*
X0277405Y0055778D02*
X0276487Y0055778D01*
X0275989Y0057376D02*
X0277405Y0057376D01*
X0277405Y0058975D02*
X0274905Y0058975D01*
X0274905Y0060573D02*
X0278330Y0060573D01*
X0278240Y0062172D02*
X0274905Y0062172D01*
X0274905Y0063770D02*
X0277405Y0063770D01*
X0277405Y0065369D02*
X0274905Y0065369D01*
X0274905Y0066967D02*
X0277405Y0066967D01*
X0277405Y0068566D02*
X0274905Y0068566D01*
X0274905Y0070164D02*
X0277921Y0070164D01*
X0278380Y0071763D02*
X0274905Y0071763D01*
X0274905Y0073361D02*
X0278380Y0073361D01*
X0277616Y0074960D02*
X0274905Y0074960D01*
X0274905Y0076558D02*
X0276017Y0076558D01*
X0279043Y0079755D02*
X0353290Y0079755D01*
X0351964Y0081354D02*
X0277465Y0081354D01*
X0277465Y0082952D02*
X0351452Y0082952D01*
X0349853Y0084551D02*
X0277465Y0084551D01*
X0277465Y0086149D02*
X0348255Y0086149D01*
X0346656Y0087748D02*
X0277465Y0087748D01*
X0277465Y0089346D02*
X0345058Y0089346D01*
X0343459Y0090945D02*
X0282583Y0090945D01*
X0282583Y0092543D02*
X0341861Y0092543D01*
X0340262Y0094142D02*
X0283323Y0094142D01*
X0284922Y0095740D02*
X0290032Y0095740D01*
X0288874Y0097339D02*
X0288257Y0097339D01*
X0294749Y0095740D02*
X0338664Y0095740D01*
X0344985Y0097339D02*
X0378378Y0097339D01*
X0376780Y0095740D02*
X0346583Y0095740D01*
X0348182Y0094142D02*
X0373091Y0094142D01*
X0373548Y0094331D02*
X0372158Y0093755D01*
X0371095Y0092692D01*
X0370519Y0091302D01*
X0370519Y0089798D01*
X0371095Y0088408D01*
X0372158Y0087345D01*
X0373548Y0086769D01*
X0375052Y0086769D01*
X0376442Y0087345D01*
X0377505Y0088408D01*
X0377602Y0088641D01*
X0388387Y0099426D01*
X0389174Y0100213D01*
X0389601Y0101243D01*
X0389601Y0109390D01*
X0394210Y0113999D01*
X0403642Y0113999D01*
X0403726Y0113798D01*
X0405217Y0112307D01*
X0406440Y0111800D01*
X0405217Y0111293D01*
X0403726Y0109802D01*
X0402919Y0107854D01*
X0402919Y0105746D01*
X0403726Y0103798D01*
X0405217Y0102307D01*
X0406440Y0101800D01*
X0405217Y0101293D01*
X0403726Y0099802D01*
X0402919Y0097854D01*
X0402919Y0095746D01*
X0403726Y0093798D01*
X0405217Y0092307D01*
X0407165Y0091500D01*
X0424073Y0091500D01*
X0426021Y0092307D01*
X0427512Y0093798D01*
X0428319Y0095746D01*
X0428319Y0097854D01*
X0427512Y0099802D01*
X0426021Y0101293D01*
X0424797Y0101800D01*
X0426021Y0102307D01*
X0427512Y0103798D01*
X0428319Y0105746D01*
X0428319Y0107854D01*
X0427512Y0109802D01*
X0426021Y0111293D01*
X0424797Y0111800D01*
X0426021Y0112307D01*
X0427512Y0113798D01*
X0428319Y0115746D01*
X0428319Y0117854D01*
X0427512Y0119802D01*
X0426021Y0121293D01*
X0424797Y0121800D01*
X0426021Y0122307D01*
X0427512Y0123798D01*
X0428319Y0125746D01*
X0428319Y0127854D01*
X0427512Y0129802D01*
X0426021Y0131293D01*
X0424073Y0132100D01*
X0407165Y0132100D01*
X0405217Y0131293D01*
X0403726Y0129802D01*
X0402919Y0127854D01*
X0402919Y0125746D01*
X0403726Y0123798D01*
X0405217Y0122307D01*
X0406440Y0121800D01*
X0405217Y0121293D01*
X0403726Y0119802D01*
X0403642Y0119601D01*
X0392493Y0119601D01*
X0391463Y0119174D01*
X0384426Y0112137D01*
X0383999Y0111107D01*
X0383999Y0102960D01*
X0375277Y0094238D01*
X0375052Y0094331D01*
X0373548Y0094331D01*
X0371033Y0092543D02*
X0349780Y0092543D01*
X0351379Y0090945D02*
X0370519Y0090945D01*
X0370706Y0089346D02*
X0352977Y0089346D01*
X0354576Y0087748D02*
X0371755Y0087748D01*
X0376845Y0087748D02*
X0500000Y0087748D01*
X0500000Y0089346D02*
X0378307Y0089346D01*
X0379906Y0090945D02*
X0438732Y0090945D01*
X0437874Y0092543D02*
X0426258Y0092543D01*
X0427655Y0094142D02*
X0437874Y0094142D01*
X0437874Y0095740D02*
X0428317Y0095740D01*
X0428319Y0097339D02*
X0437874Y0097339D01*
X0437874Y0098937D02*
X0427870Y0098937D01*
X0426778Y0100536D02*
X0437874Y0100536D01*
X0437874Y0102134D02*
X0425605Y0102134D01*
X0427447Y0103733D02*
X0437874Y0103733D01*
X0437874Y0105332D02*
X0428147Y0105332D01*
X0428319Y0106930D02*
X0437874Y0106930D01*
X0437874Y0108529D02*
X0428040Y0108529D01*
X0427187Y0110127D02*
X0437874Y0110127D01*
X0437874Y0111726D02*
X0424977Y0111726D01*
X0427038Y0113324D02*
X0437874Y0113324D01*
X0437874Y0114923D02*
X0427978Y0114923D01*
X0428319Y0116521D02*
X0437874Y0116521D01*
X0437874Y0118120D02*
X0428209Y0118120D01*
X0427547Y0119718D02*
X0437874Y0119718D01*
X0437874Y0121317D02*
X0425964Y0121317D01*
X0426629Y0122915D02*
X0437874Y0122915D01*
X0437874Y0124514D02*
X0427809Y0124514D01*
X0428319Y0126112D02*
X0437874Y0126112D01*
X0437874Y0127711D02*
X0428319Y0127711D01*
X0427716Y0129309D02*
X0437874Y0129309D01*
X0437874Y0130908D02*
X0426407Y0130908D01*
X0437874Y0132506D02*
X0298321Y0132506D01*
X0298321Y0134105D02*
X0437874Y0134105D01*
X0437874Y0135703D02*
X0298321Y0135703D01*
X0298262Y0137302D02*
X0437874Y0137302D01*
X0437874Y0138900D02*
X0298262Y0138900D01*
X0298262Y0140499D02*
X0437874Y0140499D01*
X0437874Y0142097D02*
X0298262Y0142097D01*
X0298087Y0143696D02*
X0437874Y0143696D01*
X0437874Y0145294D02*
X0297568Y0145294D01*
X0296825Y0146893D02*
X0437874Y0146893D01*
X0437874Y0148491D02*
X0295664Y0148491D01*
X0295263Y0149043D02*
X0295263Y0149043D01*
X0295263Y0149043D01*
X0293874Y0150090D02*
X0437874Y0150090D01*
X0437874Y0151688D02*
X0414877Y0151688D01*
X0414519Y0151331D02*
X0415869Y0152681D01*
X0416600Y0154445D01*
X0416600Y0169155D01*
X0415869Y0170919D01*
X0414519Y0172269D01*
X0412755Y0173000D01*
X0410845Y0173000D01*
X0409081Y0172269D01*
X0407731Y0170919D01*
X0407000Y0169155D01*
X0407000Y0154445D01*
X0407731Y0152681D01*
X0409081Y0151331D01*
X0410845Y0150600D01*
X0412755Y0150600D01*
X0414519Y0151331D01*
X0416120Y0153287D02*
X0437874Y0153287D01*
X0437874Y0154885D02*
X0416600Y0154885D01*
X0416600Y0156484D02*
X0437874Y0156484D01*
X0437874Y0158082D02*
X0416600Y0158082D01*
X0416600Y0159681D02*
X0437874Y0159681D01*
X0437874Y0161279D02*
X0416600Y0161279D01*
X0416600Y0162878D02*
X0437874Y0162878D01*
X0437874Y0164476D02*
X0416600Y0164476D01*
X0416600Y0166075D02*
X0437874Y0166075D01*
X0437874Y0167673D02*
X0416600Y0167673D01*
X0416551Y0169272D02*
X0437874Y0169272D01*
X0437874Y0170870D02*
X0415889Y0170870D01*
X0414037Y0172469D02*
X0437874Y0172469D01*
X0437874Y0174068D02*
X0019899Y0174068D01*
X0019899Y0175666D02*
X0437874Y0175666D01*
X0437874Y0177265D02*
X0019899Y0177265D01*
X0019899Y0178863D02*
X0437874Y0178863D01*
X0437874Y0180462D02*
X0019899Y0180462D01*
X0019899Y0182060D02*
X0437874Y0182060D01*
X0437874Y0183659D02*
X0019899Y0183659D01*
X0019899Y0185257D02*
X0437874Y0185257D01*
X0437874Y0186856D02*
X0019899Y0186856D01*
X0019899Y0172469D02*
X0319563Y0172469D01*
X0319081Y0172269D02*
X0320845Y0173000D01*
X0322755Y0173000D01*
X0324519Y0172269D01*
X0325869Y0170919D01*
X0326600Y0169155D01*
X0326600Y0154445D01*
X0325869Y0152681D01*
X0324519Y0151331D01*
X0322755Y0150600D01*
X0320845Y0150600D01*
X0319081Y0151331D01*
X0317731Y0152681D01*
X0317000Y0154445D01*
X0317000Y0169155D01*
X0317731Y0170919D01*
X0319081Y0172269D01*
X0317711Y0170870D02*
X0019899Y0170870D01*
X0019899Y0169272D02*
X0317049Y0169272D01*
X0317000Y0167673D02*
X0019899Y0167673D01*
X0019899Y0166075D02*
X0317000Y0166075D01*
X0317000Y0164476D02*
X0019899Y0164476D01*
X0019899Y0162878D02*
X0317000Y0162878D01*
X0317000Y0161279D02*
X0019899Y0161279D01*
X0019899Y0159681D02*
X0317000Y0159681D01*
X0317000Y0158082D02*
X0019899Y0158082D01*
X0019899Y0156484D02*
X0317000Y0156484D01*
X0317000Y0154885D02*
X0019899Y0154885D01*
X0019899Y0153287D02*
X0041230Y0153287D01*
X0041413Y0153470D02*
X0039579Y0151636D01*
X0038916Y0150036D01*
X0037549Y0149043D01*
X0035584Y0146337D01*
X0034550Y0143157D01*
X0034550Y0135868D01*
X0034491Y0135809D01*
X0034491Y0128578D01*
X0034813Y0128257D01*
X0034491Y0127935D01*
X0034491Y0127520D01*
X0032727Y0127520D01*
X0032721Y0127525D01*
X0031332Y0128101D01*
X0029827Y0128101D01*
X0028438Y0127525D01*
X0027374Y0126462D01*
X0026798Y0125072D01*
X0026798Y0123568D01*
X0027374Y0122178D01*
X0028438Y0121114D01*
X0029827Y0120539D01*
X0031332Y0120539D01*
X0032721Y0121114D01*
X0032727Y0121120D01*
X0034491Y0121120D01*
X0034491Y0120704D01*
X0035429Y0119767D01*
X0037913Y0119767D01*
X0037760Y0119503D01*
X0037638Y0119045D01*
X0037638Y0116728D01*
X0041911Y0116728D01*
X0041911Y0115769D01*
X0037638Y0115769D01*
X0037638Y0113453D01*
X0037760Y0112995D01*
X0037997Y0112585D01*
X0038215Y0112367D01*
X0037838Y0111990D01*
X0037838Y0111968D01*
X0032259Y0111968D01*
X0031332Y0112353D01*
X0029827Y0112353D01*
X0028438Y0111777D01*
X0027374Y0110713D01*
X0026798Y0109324D01*
X0026798Y0107820D01*
X0027374Y0106430D01*
X0028438Y0105366D01*
X0029827Y0104791D01*
X0031332Y0104791D01*
X0032721Y0105366D01*
X0032924Y0105569D01*
X0037838Y0105569D01*
X0037838Y0105547D01*
X0038750Y0104635D01*
X0037838Y0103723D01*
X0037838Y0097279D01*
X0038215Y0096902D01*
X0037997Y0096685D01*
X0037760Y0096274D01*
X0037638Y0095816D01*
X0037638Y0093500D01*
X0041911Y0093500D01*
X0041911Y0092541D01*
X0037638Y0092541D01*
X0037638Y0090224D01*
X0037760Y0089767D01*
X0037997Y0089356D01*
X0038333Y0089021D01*
X0038530Y0088907D01*
X0038351Y0088597D01*
X0038228Y0088139D01*
X0038228Y0085429D01*
X0042108Y0085429D01*
X0042108Y0084470D01*
X0038228Y0084470D01*
X0038228Y0081760D01*
X0038351Y0081302D01*
X0038588Y0080892D01*
X0038923Y0080556D01*
X0039334Y0080320D01*
X0039592Y0080250D01*
X0038007Y0080250D01*
X0037070Y0079313D01*
X0037070Y0077344D01*
X0035741Y0076014D01*
X0035254Y0074838D01*
X0035254Y0065443D01*
X0035248Y0065438D01*
X0034672Y0064048D01*
X0034672Y0062544D01*
X0035248Y0061154D01*
X0036312Y0060091D01*
X0037701Y0059515D01*
X0039206Y0059515D01*
X0040595Y0060091D01*
X0041659Y0061154D01*
X0041895Y0061725D01*
X0042152Y0061469D01*
X0041934Y0061252D01*
X0041697Y0060841D01*
X0041575Y0060383D01*
X0041575Y0058067D01*
X0045848Y0058067D01*
X0045848Y0057108D01*
X0041575Y0057108D01*
X0041575Y0054791D01*
X0041697Y0054334D01*
X0041934Y0053923D01*
X0042270Y0053588D01*
X0042680Y0053351D01*
X0043138Y0053228D01*
X0045848Y0053228D01*
X0045848Y0057108D01*
X0046807Y0057108D01*
X0046807Y0053228D01*
X0049517Y0053228D01*
X0049975Y0053351D01*
X0050386Y0053588D01*
X0050721Y0053923D01*
X0050958Y0054334D01*
X0051027Y0054592D01*
X0051027Y0053007D01*
X0051402Y0052633D01*
X0051402Y0042221D01*
X0050996Y0041816D01*
X0050420Y0040426D01*
X0050420Y0038922D01*
X0050996Y0037532D01*
X0052060Y0036469D01*
X0053449Y0035893D01*
X0054954Y0035893D01*
X0056343Y0036469D01*
X0057407Y0037532D01*
X0057983Y0038922D01*
X0057983Y0040426D01*
X0057407Y0041816D01*
X0057002Y0042221D01*
X0057002Y0052633D01*
X0057275Y0052906D01*
X0057965Y0052217D01*
X0059355Y0051641D01*
X0060859Y0051641D01*
X0062249Y0052217D01*
X0063313Y0053280D01*
X0063888Y0054670D01*
X0063888Y0056174D01*
X0063313Y0057564D01*
X0062307Y0058569D01*
X0062307Y0077670D01*
X0065781Y0074196D01*
X0065781Y0070585D01*
X0065744Y0070585D01*
X0064806Y0069648D01*
X0064806Y0063007D01*
X0065744Y0062070D01*
X0068116Y0062070D01*
X0068604Y0061868D01*
X0071302Y0061868D01*
X0071302Y0061846D01*
X0071679Y0061469D01*
X0071462Y0061252D01*
X0071225Y0060841D01*
X0071102Y0060383D01*
X0071102Y0059701D01*
X0070219Y0060585D01*
X0065744Y0060585D01*
X0064806Y0059648D01*
X0064806Y0053007D01*
X0065181Y0052633D01*
X0065181Y0050095D01*
X0064776Y0049690D01*
X0064200Y0048300D01*
X0064200Y0046796D01*
X0064776Y0045406D01*
X0065839Y0044343D01*
X0067229Y0043767D01*
X0068733Y0043767D01*
X0070123Y0044343D01*
X0071187Y0045406D01*
X0071762Y0046796D01*
X0071762Y0048300D01*
X0071187Y0049690D01*
X0070781Y0050095D01*
X0070781Y0052633D01*
X0071156Y0053007D01*
X0071156Y0054592D01*
X0071225Y0054334D01*
X0071462Y0053923D01*
X0071797Y0053588D01*
X0072208Y0053351D01*
X0072665Y0053228D01*
X0075376Y0053228D01*
X0075376Y0057108D01*
X0076335Y0057108D01*
X0076335Y0058067D01*
X0080608Y0058067D01*
X0080608Y0060383D01*
X0080485Y0060841D01*
X0080248Y0061252D01*
X0080031Y0061469D01*
X0080408Y0061846D01*
X0080408Y0068290D01*
X0079471Y0069227D01*
X0072240Y0069227D01*
X0071302Y0068290D01*
X0071302Y0068268D01*
X0071156Y0068268D01*
X0071156Y0069648D01*
X0070219Y0070585D01*
X0070181Y0070585D01*
X0070181Y0076018D01*
X0068892Y0077307D01*
X0064866Y0081333D01*
X0064866Y0089597D01*
X0066488Y0089597D01*
X0066505Y0089614D01*
X0066522Y0089597D01*
X0069047Y0089597D01*
X0069873Y0090424D01*
X0070939Y0090424D01*
X0071745Y0089618D01*
X0073134Y0089043D01*
X0074639Y0089043D01*
X0076028Y0089618D01*
X0077092Y0090682D01*
X0077668Y0092072D01*
X0077668Y0093576D01*
X0077092Y0094965D01*
X0076028Y0096029D01*
X0074639Y0096605D01*
X0073134Y0096605D01*
X0071745Y0096029D01*
X0070939Y0095224D01*
X0069984Y0095224D01*
X0069984Y0095760D01*
X0069047Y0096697D01*
X0066522Y0096697D01*
X0066505Y0096680D01*
X0066488Y0096697D01*
X0063962Y0096697D01*
X0063946Y0096680D01*
X0063929Y0096697D01*
X0061403Y0096697D01*
X0061387Y0096680D01*
X0061370Y0096697D01*
X0058844Y0096697D01*
X0058828Y0096680D01*
X0058811Y0096697D01*
X0056285Y0096697D01*
X0056268Y0096680D01*
X0056252Y0096697D01*
X0053859Y0096697D01*
X0053725Y0096775D01*
X0053267Y0096897D01*
X0052430Y0096897D01*
X0052430Y0093147D01*
X0050030Y0093147D01*
X0050030Y0090960D01*
X0050153Y0090502D01*
X0050390Y0090092D01*
X0050725Y0089757D01*
X0051135Y0089520D01*
X0051201Y0089502D01*
X0046868Y0089502D01*
X0047021Y0089767D01*
X0047143Y0090224D01*
X0047143Y0092541D01*
X0042870Y0092541D01*
X0042870Y0088661D01*
X0043067Y0088661D01*
X0043067Y0085429D01*
X0042108Y0085429D01*
X0042108Y0089702D01*
X0041911Y0089702D01*
X0041911Y0092541D01*
X0042870Y0092541D01*
X0042870Y0093500D01*
X0047143Y0093500D01*
X0047143Y0095816D01*
X0047021Y0096274D01*
X0046784Y0096685D01*
X0046566Y0096902D01*
X0046943Y0097279D01*
X0046943Y0103723D01*
X0046031Y0104635D01*
X0046943Y0105547D01*
X0046943Y0111990D01*
X0046566Y0112367D01*
X0046784Y0112585D01*
X0047021Y0112995D01*
X0047143Y0113453D01*
X0047143Y0115769D01*
X0042870Y0115769D01*
X0042870Y0116728D01*
X0047143Y0116728D01*
X0047143Y0119045D01*
X0047021Y0119503D01*
X0046868Y0119767D01*
X0049352Y0119767D01*
X0050290Y0120704D01*
X0050290Y0127935D01*
X0049968Y0128257D01*
X0050290Y0128578D01*
X0050290Y0128994D01*
X0052208Y0128994D01*
X0052208Y0128578D01*
X0053145Y0127641D01*
X0053970Y0127641D01*
X0053970Y0125377D01*
X0055259Y0124088D01*
X0057907Y0121440D01*
X0057907Y0119872D01*
X0057548Y0119872D01*
X0056711Y0119872D01*
X0056253Y0119749D01*
X0056119Y0119672D01*
X0053726Y0119672D01*
X0053709Y0119655D01*
X0053693Y0119672D01*
X0051167Y0119672D01*
X0050230Y0118735D01*
X0050230Y0113509D01*
X0051167Y0112572D01*
X0053693Y0112572D01*
X0053709Y0112589D01*
X0053726Y0112572D01*
X0056119Y0112572D01*
X0056253Y0112495D01*
X0056711Y0112372D01*
X0057548Y0112372D01*
X0057548Y0116122D01*
X0057548Y0116122D01*
X0057548Y0112372D01*
X0058385Y0112372D01*
X0058843Y0112495D01*
X0058977Y0112572D01*
X0061370Y0112572D01*
X0061387Y0112589D01*
X0061403Y0112572D01*
X0063929Y0112572D01*
X0063946Y0112589D01*
X0063962Y0112572D01*
X0066488Y0112572D01*
X0066505Y0112589D01*
X0066522Y0112572D01*
X0069047Y0112572D01*
X0069984Y0113509D01*
X0069984Y0113922D01*
X0073271Y0113922D01*
X0073271Y0111255D01*
X0074208Y0110318D01*
X0081439Y0110318D01*
X0082376Y0111255D01*
X0082376Y0111277D01*
X0083550Y0111277D01*
X0083556Y0111272D01*
X0084946Y0110696D01*
X0086450Y0110696D01*
X0087839Y0111272D01*
X0088903Y0112335D01*
X0089479Y0113725D01*
X0089479Y0115229D01*
X0088903Y0116619D01*
X0087839Y0117683D01*
X0086450Y0118258D01*
X0084946Y0118258D01*
X0084554Y0118096D01*
X0084640Y0118183D01*
X0085929Y0119471D01*
X0085929Y0130940D01*
X0085723Y0131146D01*
X0085723Y0135809D01*
X0085664Y0135868D01*
X0085664Y0143157D01*
X0084630Y0146337D01*
X0084630Y0146337D01*
X0082665Y0149043D01*
X0082665Y0149043D01*
X0082665Y0149043D01*
X0081298Y0150036D01*
X0080636Y0151636D01*
X0078801Y0153470D01*
X0076404Y0154463D01*
X0073810Y0154463D01*
X0071413Y0153470D01*
X0069579Y0151636D01*
X0068586Y0149239D01*
X0068586Y0146645D01*
X0069579Y0144248D01*
X0071413Y0142413D01*
X0073810Y0141420D01*
X0076404Y0141420D01*
X0077435Y0141848D01*
X0077464Y0141485D01*
X0077464Y0136588D01*
X0077305Y0136746D01*
X0070862Y0136746D01*
X0069924Y0135809D01*
X0069924Y0135394D01*
X0068006Y0135394D01*
X0068006Y0135809D01*
X0067069Y0136746D01*
X0060625Y0136746D01*
X0060107Y0136228D01*
X0059589Y0136746D01*
X0053145Y0136746D01*
X0052208Y0135809D01*
X0052208Y0135394D01*
X0050290Y0135394D01*
X0050290Y0135809D01*
X0049352Y0136746D01*
X0042909Y0136746D01*
X0042750Y0136588D01*
X0042750Y0141485D01*
X0042779Y0141848D01*
X0043810Y0141420D01*
X0046404Y0141420D01*
X0048801Y0142413D01*
X0050636Y0144248D01*
X0051628Y0146645D01*
X0051628Y0149239D01*
X0050636Y0151636D01*
X0048801Y0153470D01*
X0046404Y0154463D01*
X0043810Y0154463D01*
X0041413Y0153470D01*
X0039631Y0151688D02*
X0019899Y0151688D01*
X0019899Y0150090D02*
X0038938Y0150090D01*
X0037549Y0149043D02*
X0037549Y0149043D01*
X0037149Y0148491D02*
X0019899Y0148491D01*
X0019899Y0146893D02*
X0035987Y0146893D01*
X0035584Y0146337D02*
X0035584Y0146337D01*
X0035245Y0145294D02*
X0019899Y0145294D01*
X0019899Y0143696D02*
X0034725Y0143696D01*
X0034550Y0142097D02*
X0019899Y0142097D01*
X0019899Y0140499D02*
X0034550Y0140499D01*
X0034550Y0138900D02*
X0019899Y0138900D01*
X0019899Y0137302D02*
X0034550Y0137302D01*
X0034491Y0135703D02*
X0019899Y0135703D01*
X0019899Y0134105D02*
X0034491Y0134105D01*
X0034491Y0132506D02*
X0019899Y0132506D01*
X0019899Y0130908D02*
X0034491Y0130908D01*
X0034491Y0129309D02*
X0019899Y0129309D01*
X0019899Y0127711D02*
X0028886Y0127711D01*
X0027229Y0126112D02*
X0019899Y0126112D01*
X0019899Y0124514D02*
X0026798Y0124514D01*
X0027069Y0122915D02*
X0019899Y0122915D01*
X0019899Y0121317D02*
X0028235Y0121317D01*
X0019899Y0119718D02*
X0037885Y0119718D01*
X0037638Y0118120D02*
X0019899Y0118120D01*
X0019899Y0116521D02*
X0041911Y0116521D01*
X0042870Y0116521D02*
X0050230Y0116521D01*
X0050230Y0114923D02*
X0047143Y0114923D01*
X0047109Y0113324D02*
X0050415Y0113324D01*
X0046943Y0111726D02*
X0073271Y0111726D01*
X0073271Y0113324D02*
X0069799Y0113324D01*
X0057548Y0113324D02*
X0057548Y0113324D01*
X0057548Y0114923D02*
X0057548Y0114923D01*
X0057548Y0116122D02*
X0057548Y0119872D01*
X0057548Y0116122D01*
X0057548Y0116122D01*
X0057548Y0116521D02*
X0057548Y0116521D01*
X0057548Y0118120D02*
X0057548Y0118120D01*
X0057548Y0119718D02*
X0057548Y0119718D01*
X0056199Y0119718D02*
X0046896Y0119718D01*
X0047143Y0118120D02*
X0050230Y0118120D01*
X0050290Y0121317D02*
X0057907Y0121317D01*
X0056432Y0122915D02*
X0050290Y0122915D01*
X0050290Y0124514D02*
X0054833Y0124514D01*
X0053970Y0126112D02*
X0050290Y0126112D01*
X0050290Y0127711D02*
X0053075Y0127711D01*
X0052208Y0135703D02*
X0050290Y0135703D01*
X0042750Y0137302D02*
X0077464Y0137302D01*
X0077464Y0138900D02*
X0042750Y0138900D01*
X0042750Y0140499D02*
X0077464Y0140499D01*
X0072176Y0142097D02*
X0048038Y0142097D01*
X0050084Y0143696D02*
X0070131Y0143696D01*
X0069145Y0145294D02*
X0051069Y0145294D01*
X0051628Y0146893D02*
X0068586Y0146893D01*
X0068586Y0148491D02*
X0051628Y0148491D01*
X0051276Y0150090D02*
X0068938Y0150090D01*
X0069631Y0151688D02*
X0050583Y0151688D01*
X0048984Y0153287D02*
X0071230Y0153287D01*
X0078984Y0153287D02*
X0112096Y0153287D01*
X0112279Y0153470D02*
X0110445Y0151636D01*
X0109782Y0150036D01*
X0108415Y0149043D01*
X0108415Y0149043D01*
X0108415Y0149043D01*
X0106450Y0146337D01*
X0105417Y0143157D01*
X0105417Y0135868D01*
X0105357Y0135809D01*
X0105357Y0128578D01*
X0105679Y0128257D01*
X0105357Y0127935D01*
X0105357Y0124883D01*
X0102670Y0122195D01*
X0102662Y0122195D01*
X0101272Y0121620D01*
X0100209Y0120556D01*
X0099633Y0119166D01*
X0099633Y0117662D01*
X0100209Y0116272D01*
X0101272Y0115209D01*
X0102662Y0114633D01*
X0104166Y0114633D01*
X0105556Y0115209D01*
X0106620Y0116272D01*
X0107195Y0117662D01*
X0107195Y0117670D01*
X0108504Y0118978D01*
X0108504Y0116728D01*
X0112777Y0116728D01*
X0112777Y0115769D01*
X0108504Y0115769D01*
X0108504Y0113453D01*
X0108627Y0112995D01*
X0108864Y0112585D01*
X0109081Y0112367D01*
X0108704Y0111990D01*
X0108704Y0111968D01*
X0105094Y0111968D01*
X0104166Y0112353D01*
X0102662Y0112353D01*
X0101272Y0111777D01*
X0100209Y0110713D01*
X0099633Y0109324D01*
X0099633Y0107820D01*
X0100209Y0106430D01*
X0101272Y0105366D01*
X0102662Y0104791D01*
X0104166Y0104791D01*
X0105556Y0105366D01*
X0105758Y0105569D01*
X0108704Y0105569D01*
X0108704Y0105547D01*
X0109616Y0104635D01*
X0108704Y0103723D01*
X0108704Y0097279D01*
X0109081Y0096902D01*
X0108864Y0096685D01*
X0108627Y0096274D01*
X0108504Y0095816D01*
X0108504Y0093500D01*
X0112777Y0093500D01*
X0112777Y0092541D01*
X0108504Y0092541D01*
X0108504Y0090224D01*
X0108627Y0089767D01*
X0108864Y0089356D01*
X0109199Y0089021D01*
X0109609Y0088784D01*
X0110057Y0088664D01*
X0109868Y0088555D01*
X0109533Y0088220D01*
X0109296Y0087810D01*
X0109173Y0087352D01*
X0109173Y0084642D01*
X0113053Y0084642D01*
X0113053Y0088915D01*
X0112777Y0088915D01*
X0112777Y0092541D01*
X0113736Y0092541D01*
X0113736Y0088661D01*
X0114012Y0088661D01*
X0114012Y0084642D01*
X0113053Y0084642D01*
X0113053Y0083683D01*
X0109173Y0083683D01*
X0109173Y0080972D01*
X0109296Y0080515D01*
X0109533Y0080104D01*
X0109868Y0079769D01*
X0110278Y0079532D01*
X0110736Y0079409D01*
X0113053Y0079409D01*
X0113053Y0083683D01*
X0114012Y0083683D01*
X0114012Y0079409D01*
X0116328Y0079409D01*
X0116786Y0079532D01*
X0117197Y0079769D01*
X0117346Y0079919D01*
X0117346Y0078912D01*
X0116826Y0078912D01*
X0115889Y0077975D01*
X0115889Y0073499D01*
X0116826Y0072562D01*
X0123467Y0072562D01*
X0124404Y0073499D01*
X0124404Y0077975D01*
X0123467Y0078912D01*
X0122946Y0078912D01*
X0122946Y0079609D01*
X0124234Y0079609D01*
X0125172Y0080547D01*
X0125172Y0085210D01*
X0126214Y0086253D01*
X0126214Y0070585D01*
X0122830Y0070585D01*
X0121893Y0069648D01*
X0121893Y0069528D01*
X0115849Y0069528D01*
X0115122Y0069227D01*
X0111610Y0069227D01*
X0110672Y0068290D01*
X0110672Y0061846D01*
X0111049Y0061469D01*
X0110832Y0061252D01*
X0110595Y0060841D01*
X0110472Y0060383D01*
X0110472Y0058067D01*
X0114746Y0058067D01*
X0114746Y0057108D01*
X0115705Y0057108D01*
X0115705Y0058067D01*
X0119978Y0058067D01*
X0119978Y0060383D01*
X0119855Y0060841D01*
X0119618Y0061252D01*
X0119401Y0061469D01*
X0119778Y0061846D01*
X0119778Y0063128D01*
X0121893Y0063128D01*
X0121893Y0063007D01*
X0122830Y0062070D01*
X0127305Y0062070D01*
X0128243Y0063007D01*
X0128243Y0065630D01*
X0128268Y0065691D01*
X0128268Y0066416D01*
X0128773Y0066922D01*
X0128773Y0058569D01*
X0128243Y0058039D01*
X0128243Y0059648D01*
X0127305Y0060585D01*
X0122830Y0060585D01*
X0121893Y0059648D01*
X0121893Y0053007D01*
X0122268Y0052633D01*
X0122268Y0042221D01*
X0121862Y0041816D01*
X0121287Y0040426D01*
X0121287Y0038922D01*
X0121862Y0037532D01*
X0122926Y0036469D01*
X0124316Y0035893D01*
X0125820Y0035893D01*
X0127210Y0036469D01*
X0128273Y0037532D01*
X0128849Y0038922D01*
X0128849Y0040426D01*
X0128273Y0041816D01*
X0127868Y0042221D01*
X0127868Y0052633D01*
X0128142Y0052906D01*
X0128831Y0052217D01*
X0130221Y0051641D01*
X0131725Y0051641D01*
X0133115Y0052217D01*
X0134179Y0053280D01*
X0134754Y0054670D01*
X0134754Y0056174D01*
X0134179Y0057564D01*
X0133173Y0058569D01*
X0133173Y0077670D01*
X0136647Y0074196D01*
X0136647Y0070585D01*
X0136610Y0070585D01*
X0135672Y0069648D01*
X0135672Y0067025D01*
X0135647Y0066964D01*
X0135647Y0065691D01*
X0135672Y0065630D01*
X0135672Y0063007D01*
X0136610Y0062070D01*
X0141085Y0062070D01*
X0142022Y0063007D01*
X0142022Y0063128D01*
X0142169Y0063128D01*
X0142169Y0061846D01*
X0142545Y0061469D01*
X0142328Y0061252D01*
X0142091Y0060841D01*
X0141969Y0060383D01*
X0141969Y0059701D01*
X0141085Y0060585D01*
X0136610Y0060585D01*
X0135672Y0059648D01*
X0135672Y0053007D01*
X0136047Y0052633D01*
X0136047Y0050095D01*
X0135642Y0049690D01*
X0135066Y0048300D01*
X0135066Y0046796D01*
X0135642Y0045406D01*
X0136705Y0044343D01*
X0138095Y0043767D01*
X0139599Y0043767D01*
X0140989Y0044343D01*
X0142053Y0045406D01*
X0142628Y0046796D01*
X0142628Y0048300D01*
X0142053Y0049690D01*
X0141647Y0050095D01*
X0141647Y0052633D01*
X0142022Y0053007D01*
X0142022Y0054592D01*
X0142091Y0054334D01*
X0142328Y0053923D01*
X0142663Y0053588D01*
X0143074Y0053351D01*
X0143532Y0053228D01*
X0146242Y0053228D01*
X0146242Y0057108D01*
X0147201Y0057108D01*
X0147201Y0058067D01*
X0151474Y0058067D01*
X0151474Y0060383D01*
X0151351Y0060841D01*
X0151114Y0061252D01*
X0150897Y0061469D01*
X0151274Y0061846D01*
X0151274Y0068290D01*
X0150337Y0069227D01*
X0146824Y0069227D01*
X0146098Y0069528D01*
X0142022Y0069528D01*
X0142022Y0069648D01*
X0141085Y0070585D01*
X0141047Y0070585D01*
X0141047Y0076018D01*
X0139759Y0077307D01*
X0135732Y0081333D01*
X0135732Y0089597D01*
X0137354Y0089597D01*
X0137371Y0089614D01*
X0137388Y0089597D01*
X0139913Y0089597D01*
X0140288Y0089972D01*
X0140642Y0089618D01*
X0142032Y0089043D01*
X0143536Y0089043D01*
X0144926Y0089618D01*
X0145990Y0090682D01*
X0146565Y0092072D01*
X0146565Y0093576D01*
X0145990Y0094965D01*
X0144926Y0096029D01*
X0143536Y0096605D01*
X0142032Y0096605D01*
X0140642Y0096029D01*
X0140612Y0095998D01*
X0139913Y0096697D01*
X0137388Y0096697D01*
X0137371Y0096680D01*
X0137354Y0096697D01*
X0134829Y0096697D01*
X0134812Y0096680D01*
X0134795Y0096697D01*
X0132270Y0096697D01*
X0132253Y0096680D01*
X0132236Y0096697D01*
X0129710Y0096697D01*
X0129694Y0096680D01*
X0129677Y0096697D01*
X0127151Y0096697D01*
X0127135Y0096680D01*
X0127118Y0096697D01*
X0124725Y0096697D01*
X0124591Y0096775D01*
X0124133Y0096897D01*
X0123296Y0096897D01*
X0122459Y0096897D01*
X0122001Y0096775D01*
X0121591Y0096538D01*
X0121256Y0096202D01*
X0121019Y0095792D01*
X0120896Y0095334D01*
X0120896Y0093147D01*
X0120896Y0090960D01*
X0121019Y0090502D01*
X0121256Y0090092D01*
X0121591Y0089757D01*
X0122001Y0089520D01*
X0122459Y0089397D01*
X0123136Y0089397D01*
X0122454Y0088715D01*
X0117791Y0088715D01*
X0117414Y0088338D01*
X0117197Y0088555D01*
X0116833Y0088765D01*
X0116904Y0088784D01*
X0117315Y0089021D01*
X0117650Y0089356D01*
X0117887Y0089767D01*
X0118009Y0090224D01*
X0118009Y0092541D01*
X0113736Y0092541D01*
X0113736Y0093500D01*
X0118009Y0093500D01*
X0118009Y0095816D01*
X0117887Y0096274D01*
X0117650Y0096685D01*
X0117432Y0096902D01*
X0117809Y0097279D01*
X0117809Y0103723D01*
X0116897Y0104635D01*
X0117809Y0105547D01*
X0117809Y0111990D01*
X0117432Y0112367D01*
X0117650Y0112585D01*
X0117887Y0112995D01*
X0118009Y0113453D01*
X0118009Y0115769D01*
X0113736Y0115769D01*
X0113736Y0116728D01*
X0118009Y0116728D01*
X0118009Y0119045D01*
X0117887Y0119503D01*
X0117734Y0119767D01*
X0120219Y0119767D01*
X0121156Y0120704D01*
X0121156Y0127935D01*
X0120834Y0128257D01*
X0121156Y0128578D01*
X0121156Y0128797D01*
X0123074Y0128797D01*
X0123074Y0128578D01*
X0124011Y0127641D01*
X0124836Y0127641D01*
X0124836Y0125377D01*
X0126125Y0124088D01*
X0128773Y0121440D01*
X0128773Y0119872D01*
X0128414Y0119872D01*
X0127577Y0119872D01*
X0127119Y0119749D01*
X0126985Y0119672D01*
X0124592Y0119672D01*
X0124576Y0119655D01*
X0124559Y0119672D01*
X0122033Y0119672D01*
X0121096Y0118735D01*
X0121096Y0113509D01*
X0122033Y0112572D01*
X0124559Y0112572D01*
X0124576Y0112589D01*
X0124592Y0112572D01*
X0126985Y0112572D01*
X0127119Y0112495D01*
X0127577Y0112372D01*
X0128414Y0112372D01*
X0128414Y0116122D01*
X0128414Y0116122D01*
X0128414Y0119872D01*
X0128414Y0116122D01*
X0128414Y0116122D01*
X0128414Y0112372D01*
X0129251Y0112372D01*
X0129709Y0112495D01*
X0129843Y0112572D01*
X0132236Y0112572D01*
X0132253Y0112589D01*
X0132270Y0112572D01*
X0134795Y0112572D01*
X0134812Y0112589D01*
X0134829Y0112572D01*
X0137354Y0112572D01*
X0137371Y0112589D01*
X0137388Y0112572D01*
X0139913Y0112572D01*
X0140850Y0113509D01*
X0140850Y0113922D01*
X0144137Y0113922D01*
X0144137Y0111255D01*
X0145074Y0110318D01*
X0152305Y0110318D01*
X0153067Y0111080D01*
X0154884Y0111080D01*
X0155812Y0110696D01*
X0157316Y0110696D01*
X0158706Y0111272D01*
X0159769Y0112335D01*
X0160345Y0113725D01*
X0160345Y0115229D01*
X0159769Y0116619D01*
X0158706Y0117683D01*
X0157316Y0118258D01*
X0155812Y0118258D01*
X0155420Y0118096D01*
X0155507Y0118183D01*
X0156795Y0119471D01*
X0156795Y0130940D01*
X0156589Y0131146D01*
X0156589Y0135809D01*
X0156530Y0135868D01*
X0156530Y0143157D01*
X0155497Y0146337D01*
X0155497Y0146337D01*
X0153531Y0149043D01*
X0152164Y0150036D01*
X0151502Y0151636D01*
X0149667Y0153470D01*
X0147270Y0154463D01*
X0144676Y0154463D01*
X0142279Y0153470D01*
X0140445Y0151636D01*
X0139452Y0149239D01*
X0139452Y0146645D01*
X0140445Y0144248D01*
X0142279Y0142413D01*
X0144676Y0141420D01*
X0147270Y0141420D01*
X0148301Y0141848D01*
X0148330Y0141485D01*
X0148330Y0136588D01*
X0148171Y0136746D01*
X0141728Y0136746D01*
X0140791Y0135809D01*
X0140791Y0135394D01*
X0138872Y0135394D01*
X0138872Y0135809D01*
X0137935Y0136746D01*
X0131492Y0136746D01*
X0130973Y0136228D01*
X0130455Y0136746D01*
X0124011Y0136746D01*
X0123074Y0135809D01*
X0123074Y0135197D01*
X0121156Y0135197D01*
X0121156Y0135809D01*
X0120219Y0136746D01*
X0113775Y0136746D01*
X0113617Y0136588D01*
X0113617Y0141485D01*
X0113645Y0141848D01*
X0114676Y0141420D01*
X0117270Y0141420D01*
X0119667Y0142413D01*
X0121502Y0144248D01*
X0122494Y0146645D01*
X0122494Y0149239D01*
X0121502Y0151636D01*
X0119667Y0153470D01*
X0117270Y0154463D01*
X0114676Y0154463D01*
X0112279Y0153470D01*
X0110497Y0151688D02*
X0080583Y0151688D01*
X0081276Y0150090D02*
X0109804Y0150090D01*
X0108015Y0148491D02*
X0083066Y0148491D01*
X0084227Y0146893D02*
X0106853Y0146893D01*
X0106450Y0146337D02*
X0106450Y0146337D01*
X0106111Y0145294D02*
X0084969Y0145294D01*
X0085489Y0143696D02*
X0105592Y0143696D01*
X0105417Y0142097D02*
X0085664Y0142097D01*
X0085664Y0140499D02*
X0105417Y0140499D01*
X0105417Y0138900D02*
X0085664Y0138900D01*
X0085664Y0137302D02*
X0105417Y0137302D01*
X0105357Y0135703D02*
X0085723Y0135703D01*
X0085723Y0134105D02*
X0105357Y0134105D01*
X0105357Y0132506D02*
X0085723Y0132506D01*
X0085929Y0130908D02*
X0105357Y0130908D01*
X0105357Y0129309D02*
X0085929Y0129309D01*
X0085929Y0127711D02*
X0105357Y0127711D01*
X0105357Y0126112D02*
X0085929Y0126112D01*
X0085929Y0124514D02*
X0104988Y0124514D01*
X0103390Y0122915D02*
X0085929Y0122915D01*
X0085929Y0121317D02*
X0100969Y0121317D01*
X0099862Y0119718D02*
X0085929Y0119718D01*
X0086784Y0118120D02*
X0099633Y0118120D01*
X0100106Y0116521D02*
X0088944Y0116521D01*
X0089479Y0114923D02*
X0101963Y0114923D01*
X0104865Y0114923D02*
X0108504Y0114923D01*
X0108538Y0113324D02*
X0089313Y0113324D01*
X0088293Y0111726D02*
X0101221Y0111726D01*
X0099966Y0110127D02*
X0046943Y0110127D01*
X0046943Y0108529D02*
X0099633Y0108529D01*
X0100002Y0106930D02*
X0046943Y0106930D01*
X0046728Y0105332D02*
X0101356Y0105332D01*
X0105472Y0105332D02*
X0108919Y0105332D01*
X0108714Y0103733D02*
X0046933Y0103733D01*
X0046943Y0102134D02*
X0108704Y0102134D01*
X0108704Y0100536D02*
X0046943Y0100536D01*
X0046943Y0098937D02*
X0108704Y0098937D01*
X0108704Y0097339D02*
X0046943Y0097339D01*
X0047143Y0095740D02*
X0050139Y0095740D01*
X0050153Y0095792D02*
X0050030Y0095334D01*
X0050030Y0093147D01*
X0052430Y0093147D01*
X0052430Y0093147D01*
X0052430Y0093147D01*
X0052430Y0096897D01*
X0051593Y0096897D01*
X0051135Y0096775D01*
X0050725Y0096538D01*
X0050390Y0096202D01*
X0050153Y0095792D01*
X0050030Y0094142D02*
X0047143Y0094142D01*
X0050030Y0092543D02*
X0042870Y0092543D01*
X0041911Y0092543D02*
X0019899Y0092543D01*
X0019899Y0090945D02*
X0037638Y0090945D01*
X0038007Y0089346D02*
X0019899Y0089346D01*
X0019899Y0087748D02*
X0038228Y0087748D01*
X0038228Y0086149D02*
X0019899Y0086149D01*
X0019899Y0084551D02*
X0042108Y0084551D01*
X0042108Y0086149D02*
X0043067Y0086149D01*
X0043067Y0087748D02*
X0042108Y0087748D01*
X0042108Y0089346D02*
X0042870Y0089346D01*
X0042870Y0090945D02*
X0041911Y0090945D01*
X0047143Y0090945D02*
X0050034Y0090945D01*
X0052430Y0094142D02*
X0052430Y0094142D01*
X0052430Y0095740D02*
X0052430Y0095740D01*
X0064866Y0089346D02*
X0072401Y0089346D01*
X0075372Y0089346D02*
X0108873Y0089346D01*
X0108504Y0090945D02*
X0077201Y0090945D01*
X0077668Y0092543D02*
X0112777Y0092543D01*
X0113736Y0092543D02*
X0120896Y0092543D01*
X0120896Y0093147D02*
X0123296Y0093147D01*
X0123296Y0093147D01*
X0120896Y0093147D01*
X0120896Y0094142D02*
X0118009Y0094142D01*
X0118009Y0095740D02*
X0121005Y0095740D01*
X0123296Y0095740D02*
X0123296Y0095740D01*
X0123296Y0096897D02*
X0123296Y0093147D01*
X0123296Y0093147D01*
X0123296Y0096897D01*
X0123296Y0094142D02*
X0123296Y0094142D01*
X0117809Y0097339D02*
X0179777Y0097339D01*
X0179808Y0097393D02*
X0179571Y0096983D01*
X0179449Y0096525D01*
X0179449Y0094209D01*
X0183722Y0094209D01*
X0183722Y0093250D01*
X0179449Y0093250D01*
X0179449Y0090933D01*
X0179571Y0090475D01*
X0179808Y0090065D01*
X0180144Y0089730D01*
X0180554Y0089493D01*
X0180801Y0089427D01*
X0180655Y0089343D01*
X0180320Y0089008D01*
X0180083Y0088597D01*
X0179961Y0088139D01*
X0179961Y0085429D01*
X0183840Y0085429D01*
X0183840Y0084470D01*
X0179961Y0084470D01*
X0179961Y0081760D01*
X0180083Y0081302D01*
X0180320Y0080892D01*
X0180655Y0080556D01*
X0181066Y0080320D01*
X0181324Y0080250D01*
X0177873Y0080250D01*
X0177486Y0081186D01*
X0176422Y0082250D01*
X0175032Y0082825D01*
X0173528Y0082825D01*
X0172138Y0082250D01*
X0171075Y0081186D01*
X0170499Y0079796D01*
X0170499Y0078292D01*
X0171075Y0076902D01*
X0172138Y0075839D01*
X0173528Y0075263D01*
X0174102Y0075263D01*
X0174663Y0074702D01*
X0175692Y0074276D01*
X0177396Y0074276D01*
X0177771Y0073901D01*
X0184412Y0073901D01*
X0185349Y0074838D01*
X0185349Y0079313D01*
X0184412Y0080250D01*
X0183840Y0080250D01*
X0183840Y0084470D01*
X0184799Y0084470D01*
X0184799Y0080197D01*
X0187116Y0080197D01*
X0187574Y0080320D01*
X0187984Y0080556D01*
X0188201Y0080774D01*
X0188291Y0080684D01*
X0188291Y0080250D01*
X0187771Y0080250D01*
X0186834Y0079313D01*
X0186834Y0074838D01*
X0187771Y0073901D01*
X0194412Y0073901D01*
X0195349Y0074838D01*
X0195349Y0079313D01*
X0194412Y0080250D01*
X0193891Y0080250D01*
X0193891Y0080397D01*
X0195022Y0080397D01*
X0195959Y0081334D01*
X0195959Y0085997D01*
X0197080Y0087119D01*
X0197080Y0070585D01*
X0193696Y0070585D01*
X0192759Y0069648D01*
X0192759Y0069528D01*
X0186715Y0069528D01*
X0185988Y0069227D01*
X0182476Y0069227D01*
X0181539Y0068290D01*
X0181539Y0061846D01*
X0181916Y0061469D01*
X0181698Y0061252D01*
X0181461Y0060841D01*
X0181339Y0060383D01*
X0181339Y0058067D01*
X0185612Y0058067D01*
X0185612Y0057108D01*
X0186571Y0057108D01*
X0186571Y0058067D01*
X0190844Y0058067D01*
X0190844Y0060383D01*
X0190721Y0060841D01*
X0190484Y0061252D01*
X0190267Y0061469D01*
X0190644Y0061846D01*
X0190644Y0063128D01*
X0192759Y0063128D01*
X0192759Y0063007D01*
X0193696Y0062070D01*
X0198171Y0062070D01*
X0199109Y0063007D01*
X0199109Y0065630D01*
X0199134Y0065691D01*
X0199134Y0066416D01*
X0199639Y0066922D01*
X0199639Y0058569D01*
X0199109Y0058039D01*
X0199109Y0059648D01*
X0198171Y0060585D01*
X0193696Y0060585D01*
X0192759Y0059648D01*
X0192759Y0053007D01*
X0193134Y0052633D01*
X0193134Y0042221D01*
X0192728Y0041816D01*
X0192153Y0040426D01*
X0192153Y0038922D01*
X0192728Y0037532D01*
X0193792Y0036469D01*
X0195182Y0035893D01*
X0196686Y0035893D01*
X0198076Y0036469D01*
X0199139Y0037532D01*
X0199715Y0038922D01*
X0199715Y0040426D01*
X0199139Y0041816D01*
X0198734Y0042221D01*
X0198734Y0052633D01*
X0199008Y0052906D01*
X0199698Y0052217D01*
X0201087Y0051641D01*
X0202591Y0051641D01*
X0203981Y0052217D01*
X0205045Y0053280D01*
X0205620Y0054670D01*
X0205620Y0056174D01*
X0205045Y0057564D01*
X0204039Y0058569D01*
X0204039Y0077670D01*
X0207513Y0074196D01*
X0207513Y0070585D01*
X0207476Y0070585D01*
X0206539Y0069648D01*
X0206539Y0067025D01*
X0206513Y0066964D01*
X0206513Y0065691D01*
X0206539Y0065630D01*
X0206539Y0063007D01*
X0207476Y0062070D01*
X0211951Y0062070D01*
X0212888Y0063007D01*
X0212888Y0063128D01*
X0213035Y0063128D01*
X0213035Y0061846D01*
X0213412Y0061469D01*
X0213194Y0061252D01*
X0212957Y0060841D01*
X0212835Y0060383D01*
X0212835Y0059701D01*
X0211951Y0060585D01*
X0207476Y0060585D01*
X0206539Y0059648D01*
X0206539Y0053007D01*
X0206913Y0052633D01*
X0206913Y0050095D01*
X0206508Y0049690D01*
X0205932Y0048300D01*
X0205932Y0046796D01*
X0206508Y0045406D01*
X0207572Y0044343D01*
X0208961Y0043767D01*
X0210465Y0043767D01*
X0211855Y0044343D01*
X0212919Y0045406D01*
X0213494Y0046796D01*
X0213494Y0048300D01*
X0212919Y0049690D01*
X0212513Y0050095D01*
X0212513Y0052633D01*
X0212888Y0053007D01*
X0212888Y0054592D01*
X0212957Y0054334D01*
X0213194Y0053923D01*
X0213529Y0053588D01*
X0213940Y0053351D01*
X0214398Y0053228D01*
X0217108Y0053228D01*
X0217108Y0057108D01*
X0218067Y0057108D01*
X0218067Y0058067D01*
X0222340Y0058067D01*
X0222340Y0060383D01*
X0222217Y0060841D01*
X0221981Y0061252D01*
X0221763Y0061469D01*
X0222140Y0061846D01*
X0222140Y0068290D01*
X0221203Y0069227D01*
X0217690Y0069227D01*
X0216964Y0069528D01*
X0212888Y0069528D01*
X0212888Y0069648D01*
X0211951Y0070585D01*
X0211913Y0070585D01*
X0211913Y0076018D01*
X0210625Y0077307D01*
X0206598Y0081333D01*
X0206598Y0089597D01*
X0208220Y0089597D01*
X0208237Y0089614D01*
X0208254Y0089597D01*
X0210779Y0089597D01*
X0211154Y0089972D01*
X0211509Y0089618D01*
X0212898Y0089043D01*
X0214402Y0089043D01*
X0215792Y0089618D01*
X0216856Y0090682D01*
X0217431Y0092072D01*
X0217431Y0093576D01*
X0216856Y0094965D01*
X0215792Y0096029D01*
X0214402Y0096605D01*
X0212898Y0096605D01*
X0211509Y0096029D01*
X0211478Y0095998D01*
X0210779Y0096697D01*
X0208254Y0096697D01*
X0208237Y0096680D01*
X0208220Y0096697D01*
X0205695Y0096697D01*
X0205678Y0096680D01*
X0205661Y0096697D01*
X0203136Y0096697D01*
X0203119Y0096680D01*
X0203102Y0096697D01*
X0200577Y0096697D01*
X0200560Y0096680D01*
X0200543Y0096697D01*
X0198018Y0096697D01*
X0198001Y0096680D01*
X0197984Y0096697D01*
X0195591Y0096697D01*
X0195457Y0096775D01*
X0194999Y0096897D01*
X0194162Y0096897D01*
X0193325Y0096897D01*
X0192867Y0096775D01*
X0192457Y0096538D01*
X0192122Y0096202D01*
X0191885Y0095792D01*
X0191762Y0095334D01*
X0191762Y0093147D01*
X0191762Y0090960D01*
X0191885Y0090502D01*
X0192122Y0090092D01*
X0192457Y0089757D01*
X0192867Y0089520D01*
X0192933Y0089502D01*
X0188578Y0089502D01*
X0188201Y0089125D01*
X0187984Y0089343D01*
X0187764Y0089470D01*
X0187849Y0089493D01*
X0188260Y0089730D01*
X0188595Y0090065D01*
X0188832Y0090475D01*
X0188954Y0090933D01*
X0188954Y0093250D01*
X0184681Y0093250D01*
X0184681Y0094209D01*
X0188954Y0094209D01*
X0188954Y0096525D01*
X0188832Y0096983D01*
X0188595Y0097393D01*
X0188377Y0097611D01*
X0188754Y0097988D01*
X0188754Y0104431D01*
X0188157Y0105028D01*
X0188676Y0105547D01*
X0188676Y0111990D01*
X0188299Y0112367D01*
X0188516Y0112585D01*
X0188753Y0112995D01*
X0188876Y0113453D01*
X0188876Y0115769D01*
X0184602Y0115769D01*
X0184602Y0116728D01*
X0188876Y0116728D01*
X0188876Y0119045D01*
X0188753Y0119503D01*
X0188600Y0119767D01*
X0191085Y0119767D01*
X0192022Y0120704D01*
X0192022Y0127935D01*
X0191701Y0128257D01*
X0192022Y0128578D01*
X0192022Y0128797D01*
X0193940Y0128797D01*
X0193940Y0128578D01*
X0194877Y0127641D01*
X0195702Y0127641D01*
X0195702Y0125377D01*
X0196991Y0124088D01*
X0199639Y0121440D01*
X0199639Y0119872D01*
X0199280Y0119872D01*
X0198443Y0119872D01*
X0197986Y0119749D01*
X0197852Y0119672D01*
X0195459Y0119672D01*
X0195442Y0119655D01*
X0195425Y0119672D01*
X0192899Y0119672D01*
X0191962Y0118735D01*
X0191962Y0113509D01*
X0192899Y0112572D01*
X0195425Y0112572D01*
X0195442Y0112589D01*
X0195459Y0112572D01*
X0197852Y0112572D01*
X0197986Y0112495D01*
X0198443Y0112372D01*
X0199280Y0112372D01*
X0199280Y0116122D01*
X0199280Y0116122D01*
X0199280Y0119872D01*
X0199280Y0116122D01*
X0199280Y0116122D01*
X0199280Y0112372D01*
X0200117Y0112372D01*
X0200575Y0112495D01*
X0200709Y0112572D01*
X0203102Y0112572D01*
X0203119Y0112589D01*
X0203136Y0112572D01*
X0205661Y0112572D01*
X0205678Y0112589D01*
X0205695Y0112572D01*
X0208220Y0112572D01*
X0208237Y0112589D01*
X0208254Y0112572D01*
X0210779Y0112572D01*
X0211717Y0113509D01*
X0211717Y0113922D01*
X0216972Y0113922D01*
X0216972Y0111255D01*
X0217909Y0110318D01*
X0225140Y0110318D01*
X0225902Y0111080D01*
X0227719Y0111080D01*
X0228646Y0110696D01*
X0230151Y0110696D01*
X0231540Y0111272D01*
X0232604Y0112335D01*
X0233180Y0113725D01*
X0233180Y0115229D01*
X0232604Y0116619D01*
X0231540Y0117683D01*
X0230151Y0118258D01*
X0228646Y0118258D01*
X0228254Y0118096D01*
X0228341Y0118183D01*
X0229630Y0119471D01*
X0229630Y0130940D01*
X0229424Y0131146D01*
X0229424Y0135809D01*
X0229365Y0135868D01*
X0229365Y0141500D01*
X0228138Y0145274D01*
X0225806Y0148484D01*
X0222755Y0150700D01*
X0222368Y0151636D01*
X0220533Y0153470D01*
X0218137Y0154463D01*
X0215542Y0154463D01*
X0213145Y0153470D01*
X0211311Y0151636D01*
X0210318Y0149239D01*
X0210318Y0146645D01*
X0211311Y0144248D01*
X0213145Y0142413D01*
X0215542Y0141420D01*
X0218137Y0141420D01*
X0220135Y0142248D01*
X0220693Y0141480D01*
X0221111Y0140193D01*
X0221165Y0139517D01*
X0221165Y0136588D01*
X0221006Y0136746D01*
X0214562Y0136746D01*
X0213625Y0135809D01*
X0213625Y0135394D01*
X0209739Y0135394D01*
X0209739Y0135809D01*
X0208801Y0136746D01*
X0202358Y0136746D01*
X0201839Y0136228D01*
X0201321Y0136746D01*
X0194877Y0136746D01*
X0193940Y0135809D01*
X0193940Y0135197D01*
X0192022Y0135197D01*
X0192022Y0135809D01*
X0191085Y0136746D01*
X0184641Y0136746D01*
X0184483Y0136588D01*
X0184483Y0141485D01*
X0184511Y0141848D01*
X0185542Y0141420D01*
X0188137Y0141420D01*
X0190533Y0142413D01*
X0192368Y0144248D01*
X0193361Y0146645D01*
X0193361Y0149239D01*
X0192368Y0151636D01*
X0190533Y0153470D01*
X0188137Y0154463D01*
X0185542Y0154463D01*
X0183145Y0153470D01*
X0181311Y0151636D01*
X0180648Y0150036D01*
X0179282Y0149043D01*
X0179282Y0149043D01*
X0177316Y0146337D01*
X0176283Y0143157D01*
X0176283Y0135868D01*
X0176224Y0135809D01*
X0176224Y0128578D01*
X0176545Y0128257D01*
X0176224Y0127935D01*
X0176224Y0124883D01*
X0173536Y0122195D01*
X0173528Y0122195D01*
X0172138Y0121620D01*
X0171075Y0120556D01*
X0170499Y0119166D01*
X0170499Y0117662D01*
X0171075Y0116272D01*
X0172138Y0115209D01*
X0173528Y0114633D01*
X0175032Y0114633D01*
X0176422Y0115209D01*
X0177486Y0116272D01*
X0178061Y0117662D01*
X0178061Y0117670D01*
X0179370Y0118978D01*
X0179370Y0116728D01*
X0183643Y0116728D01*
X0183643Y0115769D01*
X0179370Y0115769D01*
X0179370Y0113453D01*
X0179493Y0112995D01*
X0179730Y0112585D01*
X0179947Y0112367D01*
X0179570Y0111990D01*
X0179570Y0110968D01*
X0177231Y0110968D01*
X0176422Y0111777D01*
X0175032Y0112353D01*
X0173528Y0112353D01*
X0172138Y0111777D01*
X0171075Y0110713D01*
X0170499Y0109324D01*
X0170499Y0107820D01*
X0171075Y0106430D01*
X0172138Y0105366D01*
X0173528Y0104791D01*
X0175032Y0104791D01*
X0176422Y0105366D01*
X0177486Y0106430D01*
X0177543Y0106569D01*
X0179570Y0106569D01*
X0179570Y0105547D01*
X0180167Y0104950D01*
X0179649Y0104431D01*
X0179649Y0097988D01*
X0180026Y0097611D01*
X0179808Y0097393D01*
X0179649Y0098937D02*
X0117809Y0098937D01*
X0117809Y0100536D02*
X0179649Y0100536D01*
X0179649Y0102134D02*
X0117809Y0102134D01*
X0117799Y0103733D02*
X0179649Y0103733D01*
X0179785Y0105332D02*
X0176338Y0105332D01*
X0172222Y0105332D02*
X0117594Y0105332D01*
X0117809Y0106930D02*
X0170868Y0106930D01*
X0170499Y0108529D02*
X0117809Y0108529D01*
X0117809Y0110127D02*
X0170832Y0110127D01*
X0172087Y0111726D02*
X0159159Y0111726D01*
X0160179Y0113324D02*
X0179405Y0113324D01*
X0179370Y0114923D02*
X0175731Y0114923D01*
X0177589Y0116521D02*
X0183643Y0116521D01*
X0184602Y0116521D02*
X0191962Y0116521D01*
X0191962Y0114923D02*
X0188876Y0114923D01*
X0188841Y0113324D02*
X0192147Y0113324D01*
X0188676Y0111726D02*
X0216972Y0111726D01*
X0216972Y0113324D02*
X0211531Y0113324D01*
X0199280Y0113324D02*
X0199280Y0113324D01*
X0199280Y0114923D02*
X0199280Y0114923D01*
X0199280Y0116521D02*
X0199280Y0116521D01*
X0199280Y0118120D02*
X0199280Y0118120D01*
X0199280Y0119718D02*
X0199280Y0119718D01*
X0197931Y0119718D02*
X0188629Y0119718D01*
X0188876Y0118120D02*
X0191962Y0118120D01*
X0192022Y0121317D02*
X0199639Y0121317D01*
X0198164Y0122915D02*
X0192022Y0122915D01*
X0192022Y0124514D02*
X0196566Y0124514D01*
X0195702Y0126112D02*
X0192022Y0126112D01*
X0192022Y0127711D02*
X0194808Y0127711D01*
X0193940Y0135703D02*
X0192022Y0135703D01*
X0184483Y0137302D02*
X0221165Y0137302D01*
X0221165Y0138900D02*
X0184483Y0138900D01*
X0184483Y0140499D02*
X0221012Y0140499D01*
X0220245Y0142097D02*
X0219770Y0142097D01*
X0213908Y0142097D02*
X0189770Y0142097D01*
X0191816Y0143696D02*
X0211863Y0143696D01*
X0210877Y0145294D02*
X0192801Y0145294D01*
X0193361Y0146893D02*
X0210318Y0146893D01*
X0210318Y0148491D02*
X0193361Y0148491D01*
X0193008Y0150090D02*
X0210671Y0150090D01*
X0211364Y0151688D02*
X0192315Y0151688D01*
X0190717Y0153287D02*
X0212962Y0153287D01*
X0220717Y0153287D02*
X0253828Y0153287D01*
X0252230Y0151688D02*
X0222315Y0151688D01*
X0223596Y0150090D02*
X0251537Y0150090D01*
X0250148Y0149043D02*
X0250148Y0149043D01*
X0249747Y0148491D02*
X0225796Y0148491D01*
X0225806Y0148484D02*
X0225806Y0148484D01*
X0225806Y0148484D01*
X0226962Y0146893D02*
X0248586Y0146893D01*
X0248182Y0146337D02*
X0248182Y0146337D01*
X0247843Y0145294D02*
X0228124Y0145294D01*
X0228138Y0145274D02*
X0228138Y0145274D01*
X0228651Y0143696D02*
X0247324Y0143696D01*
X0247149Y0142097D02*
X0229171Y0142097D01*
X0229365Y0140499D02*
X0247149Y0140499D01*
X0247149Y0138900D02*
X0229365Y0138900D01*
X0229365Y0137302D02*
X0247149Y0137302D01*
X0247090Y0135703D02*
X0229424Y0135703D01*
X0229424Y0134105D02*
X0247090Y0134105D01*
X0247090Y0132506D02*
X0229424Y0132506D01*
X0229630Y0130908D02*
X0247090Y0130908D01*
X0247090Y0129309D02*
X0229630Y0129309D01*
X0229630Y0127711D02*
X0247090Y0127711D01*
X0247090Y0126112D02*
X0229630Y0126112D01*
X0229630Y0124514D02*
X0246917Y0124514D01*
X0245319Y0122915D02*
X0229630Y0122915D01*
X0229630Y0121317D02*
X0242702Y0121317D01*
X0241594Y0119718D02*
X0229630Y0119718D01*
X0230485Y0118120D02*
X0241365Y0118120D01*
X0241838Y0116521D02*
X0232644Y0116521D01*
X0233180Y0114923D02*
X0243695Y0114923D01*
X0246598Y0114923D02*
X0250236Y0114923D01*
X0250271Y0113324D02*
X0233013Y0113324D01*
X0231994Y0111726D02*
X0250436Y0111726D01*
X0250436Y0110127D02*
X0188676Y0110127D01*
X0188676Y0108529D02*
X0250436Y0108529D01*
X0250436Y0106930D02*
X0188676Y0106930D01*
X0188460Y0105332D02*
X0250651Y0105332D01*
X0250447Y0103733D02*
X0249427Y0103733D01*
X0244803Y0103733D02*
X0188754Y0103733D01*
X0188754Y0102134D02*
X0243617Y0102134D01*
X0243334Y0100536D02*
X0188754Y0100536D01*
X0188754Y0098937D02*
X0243751Y0098937D01*
X0245343Y0097339D02*
X0188626Y0097339D01*
X0188954Y0095740D02*
X0191871Y0095740D01*
X0191762Y0094142D02*
X0184681Y0094142D01*
X0184681Y0093250D02*
X0184681Y0089370D01*
X0184799Y0089370D01*
X0184799Y0085429D01*
X0183840Y0085429D01*
X0183840Y0089702D01*
X0183722Y0089702D01*
X0183722Y0093250D01*
X0184681Y0093250D01*
X0184681Y0092543D02*
X0183722Y0092543D01*
X0183722Y0090945D02*
X0184681Y0090945D01*
X0184799Y0089346D02*
X0183840Y0089346D01*
X0183840Y0087748D02*
X0184799Y0087748D01*
X0184799Y0086149D02*
X0183840Y0086149D01*
X0183840Y0084551D02*
X0135732Y0084551D01*
X0135732Y0086149D02*
X0179961Y0086149D01*
X0179961Y0087748D02*
X0135732Y0087748D01*
X0135732Y0089346D02*
X0141298Y0089346D01*
X0144270Y0089346D02*
X0180662Y0089346D01*
X0179449Y0090945D02*
X0146099Y0090945D01*
X0146565Y0092543D02*
X0179449Y0092543D01*
X0179449Y0095740D02*
X0145215Y0095740D01*
X0146331Y0094142D02*
X0183722Y0094142D01*
X0188954Y0092543D02*
X0191762Y0092543D01*
X0191762Y0093147D02*
X0194162Y0093147D01*
X0194162Y0093147D01*
X0191762Y0093147D01*
X0191766Y0090945D02*
X0188954Y0090945D01*
X0188422Y0089346D02*
X0187978Y0089346D01*
X0194162Y0093147D02*
X0194162Y0096897D01*
X0194162Y0093147D01*
X0194162Y0093147D01*
X0194162Y0094142D02*
X0194162Y0094142D01*
X0194162Y0095740D02*
X0194162Y0095740D01*
X0206598Y0089346D02*
X0212165Y0089346D01*
X0215136Y0089346D02*
X0250606Y0089346D01*
X0250236Y0090945D02*
X0216965Y0090945D01*
X0217431Y0092543D02*
X0254509Y0092543D01*
X0255469Y0092543D02*
X0262628Y0092543D01*
X0262632Y0090945D02*
X0259742Y0090945D01*
X0259925Y0089346D02*
X0265387Y0089346D01*
X0265028Y0090945D02*
X0265028Y0090945D01*
X0265028Y0092543D02*
X0265028Y0092543D01*
X0265028Y0093147D02*
X0265028Y0096897D01*
X0265028Y0093147D01*
X0265028Y0093147D01*
X0265028Y0094142D02*
X0265028Y0094142D01*
X0265028Y0095740D02*
X0265028Y0095740D01*
X0262737Y0095740D02*
X0259742Y0095740D01*
X0259742Y0094142D02*
X0262628Y0094142D01*
X0259542Y0097339D02*
X0279732Y0097339D01*
X0281331Y0098937D02*
X0259542Y0098937D01*
X0259542Y0100536D02*
X0282704Y0100536D01*
X0282988Y0102134D02*
X0259542Y0102134D01*
X0259531Y0103733D02*
X0284173Y0103733D01*
X0286485Y0100698D02*
X0280383Y0094595D01*
X0289982Y0102134D02*
X0290731Y0102134D01*
X0288797Y0103733D02*
X0383999Y0103733D01*
X0383999Y0105332D02*
X0259327Y0105332D01*
X0259542Y0106930D02*
X0383999Y0106930D01*
X0383999Y0108529D02*
X0259542Y0108529D01*
X0259542Y0110127D02*
X0383999Y0110127D01*
X0384255Y0111726D02*
X0300892Y0111726D01*
X0301911Y0113324D02*
X0385613Y0113324D01*
X0387212Y0114923D02*
X0302077Y0114923D01*
X0301542Y0116521D02*
X0388810Y0116521D01*
X0390409Y0118120D02*
X0299383Y0118120D01*
X0298528Y0119718D02*
X0403691Y0119718D01*
X0405273Y0121317D02*
X0298528Y0121317D01*
X0298528Y0122915D02*
X0404608Y0122915D01*
X0403429Y0124514D02*
X0298528Y0124514D01*
X0298528Y0126112D02*
X0402919Y0126112D01*
X0402919Y0127711D02*
X0298528Y0127711D01*
X0298528Y0129309D02*
X0403522Y0129309D01*
X0404831Y0130908D02*
X0298528Y0130908D01*
X0290062Y0137302D02*
X0255349Y0137302D01*
X0255349Y0138900D02*
X0290062Y0138900D01*
X0290062Y0140499D02*
X0255349Y0140499D01*
X0260637Y0142097D02*
X0284774Y0142097D01*
X0282729Y0143696D02*
X0262682Y0143696D01*
X0263667Y0145294D02*
X0281744Y0145294D01*
X0281184Y0146893D02*
X0264227Y0146893D01*
X0264227Y0148491D02*
X0281184Y0148491D01*
X0281537Y0150090D02*
X0263874Y0150090D01*
X0263181Y0151688D02*
X0282230Y0151688D01*
X0283828Y0153287D02*
X0261583Y0153287D01*
X0291583Y0153287D02*
X0317480Y0153287D01*
X0318723Y0151688D02*
X0293181Y0151688D01*
X0282523Y0135703D02*
X0280605Y0135703D01*
X0264806Y0135703D02*
X0262888Y0135703D01*
X0262888Y0127711D02*
X0265674Y0127711D01*
X0266765Y0126112D02*
X0262888Y0126112D01*
X0262888Y0124514D02*
X0267432Y0124514D01*
X0269030Y0122915D02*
X0262888Y0122915D01*
X0262888Y0121317D02*
X0270506Y0121317D01*
X0270146Y0119872D02*
X0269309Y0119872D01*
X0268852Y0119749D01*
X0268718Y0119672D01*
X0266325Y0119672D01*
X0266308Y0119655D01*
X0266291Y0119672D01*
X0263766Y0119672D01*
X0262828Y0118735D01*
X0262828Y0113509D01*
X0263766Y0112572D01*
X0266291Y0112572D01*
X0266308Y0112589D01*
X0266325Y0112572D01*
X0268718Y0112572D01*
X0268852Y0112495D01*
X0269309Y0112372D01*
X0270146Y0112372D01*
X0270146Y0116122D01*
X0270147Y0116122D01*
X0270146Y0116122D01*
X0270146Y0119872D01*
X0270146Y0119718D02*
X0270147Y0119718D01*
X0268798Y0119718D02*
X0259495Y0119718D01*
X0259742Y0118120D02*
X0262828Y0118120D01*
X0262828Y0116521D02*
X0255469Y0116521D01*
X0254509Y0116521D02*
X0248455Y0116521D01*
X0249574Y0118120D02*
X0250236Y0118120D01*
X0259742Y0114923D02*
X0262828Y0114923D01*
X0263014Y0113324D02*
X0259707Y0113324D01*
X0259542Y0111726D02*
X0285869Y0111726D01*
X0285869Y0113324D02*
X0282397Y0113324D01*
X0270147Y0113324D02*
X0270146Y0113324D01*
X0270146Y0114923D02*
X0270147Y0114923D01*
X0270146Y0116521D02*
X0270147Y0116521D01*
X0270146Y0118120D02*
X0270147Y0118120D01*
X0297176Y0118120D02*
X0297209Y0118120D01*
X0294050Y0102134D02*
X0383174Y0102134D01*
X0381575Y0100536D02*
X0341788Y0100536D01*
X0343386Y0098937D02*
X0379977Y0098937D01*
X0386300Y0097339D02*
X0402919Y0097339D01*
X0402921Y0095740D02*
X0384701Y0095740D01*
X0383103Y0094142D02*
X0403583Y0094142D01*
X0404980Y0092543D02*
X0381504Y0092543D01*
X0387898Y0098937D02*
X0403368Y0098937D01*
X0404460Y0100536D02*
X0389308Y0100536D01*
X0389601Y0102134D02*
X0405633Y0102134D01*
X0403791Y0103733D02*
X0389601Y0103733D01*
X0389601Y0105332D02*
X0403090Y0105332D01*
X0402919Y0106930D02*
X0389601Y0106930D01*
X0389601Y0108529D02*
X0403198Y0108529D01*
X0404051Y0110127D02*
X0390338Y0110127D01*
X0391936Y0111726D02*
X0406261Y0111726D01*
X0404199Y0113324D02*
X0393535Y0113324D01*
X0357562Y0086149D02*
X0500000Y0086149D01*
X0500000Y0084551D02*
X0358825Y0084551D01*
X0359164Y0082952D02*
X0500000Y0082952D01*
X0500000Y0081354D02*
X0358801Y0081354D01*
X0357475Y0079755D02*
X0500000Y0079755D01*
X0500000Y0078157D02*
X0280641Y0078157D01*
X0282240Y0076558D02*
X0500000Y0076558D01*
X0500000Y0074960D02*
X0282780Y0074960D01*
X0282780Y0073361D02*
X0500000Y0073361D01*
X0500000Y0071763D02*
X0495025Y0071763D01*
X0494519Y0072269D02*
X0495869Y0070919D01*
X0496600Y0069155D01*
X0496600Y0054445D01*
X0495869Y0052681D01*
X0494519Y0051331D01*
X0492755Y0050600D01*
X0490845Y0050600D01*
X0489081Y0051331D01*
X0487731Y0052681D01*
X0487000Y0054445D01*
X0487000Y0069155D01*
X0487731Y0070919D01*
X0489081Y0072269D01*
X0490845Y0073000D01*
X0492755Y0073000D01*
X0494519Y0072269D01*
X0496182Y0070164D02*
X0500000Y0070164D01*
X0500000Y0068566D02*
X0496600Y0068566D01*
X0496600Y0066967D02*
X0500000Y0066967D01*
X0500000Y0065369D02*
X0496600Y0065369D01*
X0496600Y0063770D02*
X0500000Y0063770D01*
X0500000Y0062172D02*
X0496600Y0062172D01*
X0496600Y0060573D02*
X0500000Y0060573D01*
X0500000Y0058975D02*
X0496600Y0058975D01*
X0496600Y0057376D02*
X0500000Y0057376D01*
X0500000Y0055778D02*
X0496600Y0055778D01*
X0496490Y0054179D02*
X0500000Y0054179D01*
X0500000Y0052581D02*
X0495769Y0052581D01*
X0493677Y0050982D02*
X0500000Y0050982D01*
X0500000Y0049384D02*
X0473343Y0049384D01*
X0473386Y0049426D02*
X0474174Y0050214D01*
X0474600Y0051243D01*
X0474600Y0051412D01*
X0475869Y0052681D01*
X0476600Y0054445D01*
X0476600Y0069155D01*
X0475869Y0070919D01*
X0474519Y0072269D01*
X0472755Y0073000D01*
X0470845Y0073000D01*
X0469081Y0072269D01*
X0467731Y0070919D01*
X0467000Y0069155D01*
X0467000Y0054445D01*
X0467731Y0052681D01*
X0468226Y0052186D01*
X0465640Y0049600D01*
X0417960Y0049600D01*
X0415374Y0052186D01*
X0415869Y0052681D01*
X0416600Y0054445D01*
X0416600Y0069155D01*
X0415869Y0070919D01*
X0414519Y0072269D01*
X0412755Y0073000D01*
X0410845Y0073000D01*
X0409081Y0072269D01*
X0407731Y0070919D01*
X0407000Y0069155D01*
X0407000Y0054445D01*
X0407731Y0052681D01*
X0409000Y0051412D01*
X0409000Y0051243D01*
X0409426Y0050214D01*
X0414426Y0045214D01*
X0415214Y0044426D01*
X0416243Y0044000D01*
X0467357Y0044000D01*
X0468386Y0044426D01*
X0473386Y0049426D01*
X0474492Y0050982D02*
X0479923Y0050982D01*
X0479081Y0051331D02*
X0480845Y0050600D01*
X0482755Y0050600D01*
X0484519Y0051331D01*
X0485869Y0052681D01*
X0486600Y0054445D01*
X0486600Y0069155D01*
X0485869Y0070919D01*
X0484519Y0072269D01*
X0482755Y0073000D01*
X0480845Y0073000D01*
X0479081Y0072269D01*
X0477731Y0070919D01*
X0477000Y0069155D01*
X0477000Y0054445D01*
X0477731Y0052681D01*
X0479081Y0051331D01*
X0477831Y0052581D02*
X0475769Y0052581D01*
X0476490Y0054179D02*
X0477110Y0054179D01*
X0477000Y0055778D02*
X0476600Y0055778D01*
X0476600Y0057376D02*
X0477000Y0057376D01*
X0477000Y0058975D02*
X0476600Y0058975D01*
X0476600Y0060573D02*
X0477000Y0060573D01*
X0477000Y0062172D02*
X0476600Y0062172D01*
X0476600Y0063770D02*
X0477000Y0063770D01*
X0477000Y0065369D02*
X0476600Y0065369D01*
X0476600Y0066967D02*
X0477000Y0066967D01*
X0477000Y0068566D02*
X0476600Y0068566D01*
X0476182Y0070164D02*
X0477418Y0070164D01*
X0478575Y0071763D02*
X0475025Y0071763D01*
X0468575Y0071763D02*
X0465025Y0071763D01*
X0464519Y0072269D02*
X0465869Y0070919D01*
X0466600Y0069155D01*
X0466600Y0054445D01*
X0465869Y0052681D01*
X0464519Y0051331D01*
X0462755Y0050600D01*
X0460845Y0050600D01*
X0459081Y0051331D01*
X0457731Y0052681D01*
X0457000Y0054445D01*
X0457000Y0069155D01*
X0457731Y0070919D01*
X0459081Y0072269D01*
X0460845Y0073000D01*
X0462755Y0073000D01*
X0464519Y0072269D01*
X0466182Y0070164D02*
X0467418Y0070164D01*
X0467000Y0068566D02*
X0466600Y0068566D01*
X0466600Y0066967D02*
X0467000Y0066967D01*
X0467000Y0065369D02*
X0466600Y0065369D01*
X0466600Y0063770D02*
X0467000Y0063770D01*
X0467000Y0062172D02*
X0466600Y0062172D01*
X0466600Y0060573D02*
X0467000Y0060573D01*
X0467000Y0058975D02*
X0466600Y0058975D01*
X0466600Y0057376D02*
X0467000Y0057376D01*
X0467000Y0055778D02*
X0466600Y0055778D01*
X0466490Y0054179D02*
X0467110Y0054179D01*
X0467831Y0052581D02*
X0465769Y0052581D01*
X0467022Y0050982D02*
X0463677Y0050982D01*
X0459923Y0050982D02*
X0453677Y0050982D01*
X0454519Y0051331D02*
X0455869Y0052681D01*
X0456600Y0054445D01*
X0456600Y0069155D01*
X0455869Y0070919D01*
X0454519Y0072269D01*
X0452755Y0073000D01*
X0450845Y0073000D01*
X0449081Y0072269D01*
X0447731Y0070919D01*
X0447000Y0069155D01*
X0447000Y0054445D01*
X0447731Y0052681D01*
X0449081Y0051331D01*
X0450845Y0050600D01*
X0452755Y0050600D01*
X0454519Y0051331D01*
X0455769Y0052581D02*
X0457831Y0052581D01*
X0457110Y0054179D02*
X0456490Y0054179D01*
X0456600Y0055778D02*
X0457000Y0055778D01*
X0457000Y0057376D02*
X0456600Y0057376D01*
X0456600Y0058975D02*
X0457000Y0058975D01*
X0457000Y0060573D02*
X0456600Y0060573D01*
X0456600Y0062172D02*
X0457000Y0062172D01*
X0457000Y0063770D02*
X0456600Y0063770D01*
X0456600Y0065369D02*
X0457000Y0065369D01*
X0457000Y0066967D02*
X0456600Y0066967D01*
X0456600Y0068566D02*
X0457000Y0068566D01*
X0457418Y0070164D02*
X0456182Y0070164D01*
X0455025Y0071763D02*
X0458575Y0071763D01*
X0448575Y0071763D02*
X0445308Y0071763D01*
X0445057Y0072014D02*
X0445614Y0071457D01*
X0446076Y0070821D01*
X0446434Y0070119D01*
X0446677Y0069371D01*
X0446800Y0068594D01*
X0446800Y0062000D01*
X0442000Y0062000D01*
X0442000Y0061600D01*
X0446800Y0061600D01*
X0446800Y0055006D01*
X0446677Y0054229D01*
X0446434Y0053481D01*
X0446076Y0052779D01*
X0445614Y0052143D01*
X0445057Y0051586D01*
X0444421Y0051124D01*
X0443719Y0050766D01*
X0442971Y0050523D01*
X0442194Y0050400D01*
X0442000Y0050400D01*
X0442000Y0061600D01*
X0441600Y0061600D01*
X0441600Y0050400D01*
X0441406Y0050400D01*
X0440629Y0050523D01*
X0439881Y0050766D01*
X0439179Y0051124D01*
X0438543Y0051586D01*
X0437986Y0052143D01*
X0437524Y0052779D01*
X0437166Y0053481D01*
X0436923Y0054229D01*
X0436800Y0055006D01*
X0436800Y0061600D01*
X0441600Y0061600D01*
X0441600Y0062000D01*
X0441600Y0073200D01*
X0441406Y0073200D01*
X0440629Y0073077D01*
X0439881Y0072834D01*
X0439179Y0072476D01*
X0438543Y0072014D01*
X0437986Y0071457D01*
X0437524Y0070821D01*
X0437166Y0070119D01*
X0436923Y0069371D01*
X0436800Y0068594D01*
X0436800Y0062000D01*
X0441600Y0062000D01*
X0442000Y0062000D01*
X0442000Y0073200D01*
X0442194Y0073200D01*
X0442971Y0073077D01*
X0443719Y0072834D01*
X0444421Y0072476D01*
X0445057Y0072014D01*
X0446411Y0070164D02*
X0447418Y0070164D01*
X0447000Y0068566D02*
X0446800Y0068566D01*
X0446800Y0066967D02*
X0447000Y0066967D01*
X0447000Y0065369D02*
X0446800Y0065369D01*
X0446800Y0063770D02*
X0447000Y0063770D01*
X0447000Y0062172D02*
X0446800Y0062172D01*
X0446800Y0060573D02*
X0447000Y0060573D01*
X0447000Y0058975D02*
X0446800Y0058975D01*
X0446800Y0057376D02*
X0447000Y0057376D01*
X0447000Y0055778D02*
X0446800Y0055778D01*
X0446661Y0054179D02*
X0447110Y0054179D01*
X0447831Y0052581D02*
X0445932Y0052581D01*
X0444143Y0050982D02*
X0449923Y0050982D01*
X0442000Y0050982D02*
X0441600Y0050982D01*
X0441600Y0052581D02*
X0442000Y0052581D01*
X0442000Y0054179D02*
X0441600Y0054179D01*
X0441600Y0055778D02*
X0442000Y0055778D01*
X0442000Y0057376D02*
X0441600Y0057376D01*
X0441600Y0058975D02*
X0442000Y0058975D01*
X0442000Y0060573D02*
X0441600Y0060573D01*
X0441600Y0062172D02*
X0442000Y0062172D01*
X0442000Y0063770D02*
X0441600Y0063770D01*
X0441600Y0065369D02*
X0442000Y0065369D01*
X0442000Y0066967D02*
X0441600Y0066967D01*
X0441600Y0068566D02*
X0442000Y0068566D01*
X0442000Y0070164D02*
X0441600Y0070164D01*
X0441600Y0071763D02*
X0442000Y0071763D01*
X0438292Y0071763D02*
X0415025Y0071763D01*
X0416182Y0070164D02*
X0437189Y0070164D01*
X0436800Y0068566D02*
X0416600Y0068566D01*
X0416600Y0066967D02*
X0436800Y0066967D01*
X0436800Y0065369D02*
X0416600Y0065369D01*
X0416600Y0063770D02*
X0436800Y0063770D01*
X0436800Y0062172D02*
X0416600Y0062172D01*
X0416600Y0060573D02*
X0436800Y0060573D01*
X0436800Y0058975D02*
X0416600Y0058975D01*
X0416600Y0057376D02*
X0436800Y0057376D01*
X0436800Y0055778D02*
X0416600Y0055778D01*
X0416490Y0054179D02*
X0436939Y0054179D01*
X0437668Y0052581D02*
X0415769Y0052581D01*
X0416578Y0050982D02*
X0439457Y0050982D01*
X0415052Y0044588D02*
X0282967Y0044588D01*
X0284108Y0046187D02*
X0413454Y0046187D01*
X0411855Y0047785D02*
X0284361Y0047785D01*
X0283912Y0049384D02*
X0410257Y0049384D01*
X0409108Y0050982D02*
X0403677Y0050982D01*
X0404519Y0051331D02*
X0405869Y0052681D01*
X0406600Y0054445D01*
X0406600Y0069155D01*
X0405869Y0070919D01*
X0404519Y0072269D01*
X0402755Y0073000D01*
X0400845Y0073000D01*
X0399081Y0072269D01*
X0397731Y0070919D01*
X0397000Y0069155D01*
X0397000Y0054445D01*
X0397731Y0052681D01*
X0399081Y0051331D01*
X0400845Y0050600D01*
X0402755Y0050600D01*
X0404519Y0051331D01*
X0405769Y0052581D02*
X0407831Y0052581D01*
X0407110Y0054179D02*
X0406490Y0054179D01*
X0406600Y0055778D02*
X0407000Y0055778D01*
X0407000Y0057376D02*
X0406600Y0057376D01*
X0406600Y0058975D02*
X0407000Y0058975D01*
X0407000Y0060573D02*
X0406600Y0060573D01*
X0406600Y0062172D02*
X0407000Y0062172D01*
X0407000Y0063770D02*
X0406600Y0063770D01*
X0406600Y0065369D02*
X0407000Y0065369D01*
X0407000Y0066967D02*
X0406600Y0066967D01*
X0406600Y0068566D02*
X0407000Y0068566D01*
X0407418Y0070164D02*
X0406182Y0070164D01*
X0405025Y0071763D02*
X0408575Y0071763D01*
X0398575Y0071763D02*
X0395025Y0071763D01*
X0394519Y0072269D02*
X0395869Y0070919D01*
X0396600Y0069155D01*
X0396600Y0054445D01*
X0395869Y0052681D01*
X0394519Y0051331D01*
X0392755Y0050600D01*
X0390845Y0050600D01*
X0389081Y0051331D01*
X0387731Y0052681D01*
X0387000Y0054445D01*
X0387000Y0069155D01*
X0387731Y0070919D01*
X0389081Y0072269D01*
X0390845Y0073000D01*
X0392755Y0073000D01*
X0394519Y0072269D01*
X0396182Y0070164D02*
X0397418Y0070164D01*
X0397000Y0068566D02*
X0396600Y0068566D01*
X0396600Y0066967D02*
X0397000Y0066967D01*
X0397000Y0065369D02*
X0396600Y0065369D01*
X0396600Y0063770D02*
X0397000Y0063770D01*
X0397000Y0062172D02*
X0396600Y0062172D01*
X0396600Y0060573D02*
X0397000Y0060573D01*
X0397000Y0058975D02*
X0396600Y0058975D01*
X0396600Y0057376D02*
X0397000Y0057376D01*
X0397000Y0055778D02*
X0396600Y0055778D01*
X0396490Y0054179D02*
X0397110Y0054179D01*
X0397831Y0052581D02*
X0395769Y0052581D01*
X0393677Y0050982D02*
X0399923Y0050982D01*
X0389923Y0050982D02*
X0383677Y0050982D01*
X0384519Y0051331D02*
X0385869Y0052681D01*
X0386600Y0054445D01*
X0386600Y0069155D01*
X0385869Y0070919D01*
X0384519Y0072269D01*
X0382755Y0073000D01*
X0380845Y0073000D01*
X0379081Y0072269D01*
X0377731Y0070919D01*
X0377000Y0069155D01*
X0377000Y0054445D01*
X0377731Y0052681D01*
X0379081Y0051331D01*
X0380845Y0050600D01*
X0382755Y0050600D01*
X0384519Y0051331D01*
X0385769Y0052581D02*
X0387831Y0052581D01*
X0387110Y0054179D02*
X0386490Y0054179D01*
X0386600Y0055778D02*
X0387000Y0055778D01*
X0387000Y0057376D02*
X0386600Y0057376D01*
X0386600Y0058975D02*
X0387000Y0058975D01*
X0387000Y0060573D02*
X0386600Y0060573D01*
X0386600Y0062172D02*
X0387000Y0062172D01*
X0387000Y0063770D02*
X0386600Y0063770D01*
X0386600Y0065369D02*
X0387000Y0065369D01*
X0387000Y0066967D02*
X0386600Y0066967D01*
X0386600Y0068566D02*
X0387000Y0068566D01*
X0387418Y0070164D02*
X0386182Y0070164D01*
X0385025Y0071763D02*
X0388575Y0071763D01*
X0378575Y0071763D02*
X0375025Y0071763D01*
X0374519Y0072269D02*
X0375869Y0070919D01*
X0376600Y0069155D01*
X0376600Y0054445D01*
X0375869Y0052681D01*
X0374519Y0051331D01*
X0372755Y0050600D01*
X0370845Y0050600D01*
X0369081Y0051331D01*
X0367731Y0052681D01*
X0367000Y0054445D01*
X0367000Y0069155D01*
X0367731Y0070919D01*
X0369081Y0072269D01*
X0370845Y0073000D01*
X0372755Y0073000D01*
X0374519Y0072269D01*
X0376182Y0070164D02*
X0377418Y0070164D01*
X0377000Y0068566D02*
X0376600Y0068566D01*
X0376600Y0066967D02*
X0377000Y0066967D01*
X0377000Y0065369D02*
X0376600Y0065369D01*
X0376600Y0063770D02*
X0377000Y0063770D01*
X0377000Y0062172D02*
X0376600Y0062172D01*
X0376600Y0060573D02*
X0377000Y0060573D01*
X0377000Y0058975D02*
X0376600Y0058975D01*
X0376600Y0057376D02*
X0377000Y0057376D01*
X0377000Y0055778D02*
X0376600Y0055778D01*
X0376490Y0054179D02*
X0377110Y0054179D01*
X0377831Y0052581D02*
X0375769Y0052581D01*
X0373677Y0050982D02*
X0379923Y0050982D01*
X0369923Y0050982D02*
X0363677Y0050982D01*
X0364519Y0051331D02*
X0365869Y0052681D01*
X0366600Y0054445D01*
X0366600Y0069155D01*
X0365869Y0070919D01*
X0364519Y0072269D01*
X0362755Y0073000D01*
X0360845Y0073000D01*
X0359081Y0072269D01*
X0357731Y0070919D01*
X0357000Y0069155D01*
X0357000Y0054445D01*
X0357731Y0052681D01*
X0359081Y0051331D01*
X0360845Y0050600D01*
X0362755Y0050600D01*
X0364519Y0051331D01*
X0365769Y0052581D02*
X0367831Y0052581D01*
X0367110Y0054179D02*
X0366490Y0054179D01*
X0366600Y0055778D02*
X0367000Y0055778D01*
X0367000Y0057376D02*
X0366600Y0057376D01*
X0366600Y0058975D02*
X0367000Y0058975D01*
X0367000Y0060573D02*
X0366600Y0060573D01*
X0366600Y0062172D02*
X0367000Y0062172D01*
X0367000Y0063770D02*
X0366600Y0063770D01*
X0366600Y0065369D02*
X0367000Y0065369D01*
X0367000Y0066967D02*
X0366600Y0066967D01*
X0366600Y0068566D02*
X0367000Y0068566D01*
X0367418Y0070164D02*
X0366182Y0070164D01*
X0365025Y0071763D02*
X0368575Y0071763D01*
X0358575Y0071763D02*
X0355025Y0071763D01*
X0354519Y0072269D02*
X0355869Y0070919D01*
X0356600Y0069155D01*
X0356600Y0054445D01*
X0355869Y0052681D01*
X0354519Y0051331D01*
X0352755Y0050600D01*
X0350845Y0050600D01*
X0349081Y0051331D01*
X0347731Y0052681D01*
X0347000Y0054445D01*
X0347000Y0069155D01*
X0347731Y0070919D01*
X0349081Y0072269D01*
X0350845Y0073000D01*
X0352755Y0073000D01*
X0354519Y0072269D01*
X0356182Y0070164D02*
X0357418Y0070164D01*
X0357000Y0068566D02*
X0356600Y0068566D01*
X0356600Y0066967D02*
X0357000Y0066967D01*
X0357000Y0065369D02*
X0356600Y0065369D01*
X0356600Y0063770D02*
X0357000Y0063770D01*
X0357000Y0062172D02*
X0356600Y0062172D01*
X0356600Y0060573D02*
X0357000Y0060573D01*
X0357000Y0058975D02*
X0356600Y0058975D01*
X0356600Y0057376D02*
X0357000Y0057376D01*
X0357000Y0055778D02*
X0356600Y0055778D01*
X0356490Y0054179D02*
X0357110Y0054179D01*
X0357831Y0052581D02*
X0355769Y0052581D01*
X0353677Y0050982D02*
X0359923Y0050982D01*
X0349923Y0050982D02*
X0343677Y0050982D01*
X0344519Y0051331D02*
X0345869Y0052681D01*
X0346600Y0054445D01*
X0346600Y0069155D01*
X0345869Y0070919D01*
X0344519Y0072269D01*
X0342755Y0073000D01*
X0340845Y0073000D01*
X0339081Y0072269D01*
X0337731Y0070919D01*
X0337000Y0069155D01*
X0337000Y0054445D01*
X0337731Y0052681D01*
X0339081Y0051331D01*
X0340845Y0050600D01*
X0342755Y0050600D01*
X0344519Y0051331D01*
X0345769Y0052581D02*
X0347831Y0052581D01*
X0347110Y0054179D02*
X0346490Y0054179D01*
X0346600Y0055778D02*
X0347000Y0055778D01*
X0347000Y0057376D02*
X0346600Y0057376D01*
X0346600Y0058975D02*
X0347000Y0058975D01*
X0347000Y0060573D02*
X0346600Y0060573D01*
X0346600Y0062172D02*
X0347000Y0062172D01*
X0347000Y0063770D02*
X0346600Y0063770D01*
X0346600Y0065369D02*
X0347000Y0065369D01*
X0347000Y0066967D02*
X0346600Y0066967D01*
X0346600Y0068566D02*
X0347000Y0068566D01*
X0347418Y0070164D02*
X0346182Y0070164D01*
X0345025Y0071763D02*
X0348575Y0071763D01*
X0338575Y0071763D02*
X0335308Y0071763D01*
X0335057Y0072014D02*
X0335614Y0071457D01*
X0336076Y0070821D01*
X0336434Y0070119D01*
X0336677Y0069371D01*
X0336800Y0068594D01*
X0336800Y0062000D01*
X0332000Y0062000D01*
X0331600Y0062000D01*
X0331600Y0073200D01*
X0331406Y0073200D01*
X0330629Y0073077D01*
X0329881Y0072834D01*
X0329179Y0072476D01*
X0328543Y0072014D01*
X0327986Y0071457D01*
X0327524Y0070821D01*
X0327166Y0070119D01*
X0326923Y0069371D01*
X0326800Y0068594D01*
X0326800Y0062000D01*
X0331600Y0062000D01*
X0331600Y0061600D01*
X0326800Y0061600D01*
X0326800Y0055006D01*
X0326923Y0054229D01*
X0327166Y0053481D01*
X0327524Y0052779D01*
X0327986Y0052143D01*
X0328543Y0051586D01*
X0329179Y0051124D01*
X0329881Y0050766D01*
X0330629Y0050523D01*
X0331406Y0050400D01*
X0331600Y0050400D01*
X0331600Y0061600D01*
X0332000Y0061600D01*
X0332000Y0062000D01*
X0332000Y0073200D01*
X0332194Y0073200D01*
X0332971Y0073077D01*
X0333719Y0072834D01*
X0334421Y0072476D01*
X0335057Y0072014D01*
X0336411Y0070164D02*
X0337418Y0070164D01*
X0337000Y0068566D02*
X0336800Y0068566D01*
X0336800Y0066967D02*
X0337000Y0066967D01*
X0337000Y0065369D02*
X0336800Y0065369D01*
X0336800Y0063770D02*
X0337000Y0063770D01*
X0337000Y0062172D02*
X0336800Y0062172D01*
X0336800Y0061600D02*
X0332000Y0061600D01*
X0332000Y0050400D01*
X0332194Y0050400D01*
X0332971Y0050523D01*
X0333719Y0050766D01*
X0334421Y0051124D01*
X0335057Y0051586D01*
X0335614Y0052143D01*
X0336076Y0052779D01*
X0336434Y0053481D01*
X0336677Y0054229D01*
X0336800Y0055006D01*
X0336800Y0061600D01*
X0336800Y0060573D02*
X0337000Y0060573D01*
X0337000Y0058975D02*
X0336800Y0058975D01*
X0336800Y0057376D02*
X0337000Y0057376D01*
X0337000Y0055778D02*
X0336800Y0055778D01*
X0336661Y0054179D02*
X0337110Y0054179D01*
X0337831Y0052581D02*
X0335932Y0052581D01*
X0334143Y0050982D02*
X0339923Y0050982D01*
X0332000Y0050982D02*
X0331600Y0050982D01*
X0331600Y0052581D02*
X0332000Y0052581D01*
X0332000Y0054179D02*
X0331600Y0054179D01*
X0331600Y0055778D02*
X0332000Y0055778D01*
X0332000Y0057376D02*
X0331600Y0057376D01*
X0331600Y0058975D02*
X0332000Y0058975D01*
X0332000Y0060573D02*
X0331600Y0060573D01*
X0331600Y0062172D02*
X0332000Y0062172D01*
X0332000Y0063770D02*
X0331600Y0063770D01*
X0331600Y0065369D02*
X0332000Y0065369D01*
X0332000Y0066967D02*
X0331600Y0066967D01*
X0331600Y0068566D02*
X0332000Y0068566D01*
X0332000Y0070164D02*
X0331600Y0070164D01*
X0331600Y0071763D02*
X0332000Y0071763D01*
X0328292Y0071763D02*
X0325025Y0071763D01*
X0324519Y0072269D02*
X0325869Y0070919D01*
X0326600Y0069155D01*
X0326600Y0054445D01*
X0325869Y0052681D01*
X0324519Y0051331D01*
X0322755Y0050600D01*
X0320845Y0050600D01*
X0319081Y0051331D01*
X0317731Y0052681D01*
X0317000Y0054445D01*
X0317000Y0069155D01*
X0317731Y0070919D01*
X0319081Y0072269D01*
X0320845Y0073000D01*
X0322755Y0073000D01*
X0324519Y0072269D01*
X0326182Y0070164D02*
X0327189Y0070164D01*
X0326800Y0068566D02*
X0326600Y0068566D01*
X0326600Y0066967D02*
X0326800Y0066967D01*
X0326800Y0065369D02*
X0326600Y0065369D01*
X0326600Y0063770D02*
X0326800Y0063770D01*
X0326800Y0062172D02*
X0326600Y0062172D01*
X0326600Y0060573D02*
X0326800Y0060573D01*
X0326800Y0058975D02*
X0326600Y0058975D01*
X0326600Y0057376D02*
X0326800Y0057376D01*
X0326800Y0055778D02*
X0326600Y0055778D01*
X0326490Y0054179D02*
X0326939Y0054179D01*
X0327668Y0052581D02*
X0325769Y0052581D01*
X0323677Y0050982D02*
X0329457Y0050982D01*
X0319923Y0050982D02*
X0283380Y0050982D01*
X0283380Y0052581D02*
X0317831Y0052581D01*
X0317110Y0054179D02*
X0292994Y0054179D01*
X0293084Y0054334D02*
X0293206Y0054791D01*
X0293206Y0057108D01*
X0288933Y0057108D01*
X0288933Y0053228D01*
X0291643Y0053228D01*
X0292101Y0053351D01*
X0292512Y0053588D01*
X0292847Y0053923D01*
X0293084Y0054334D01*
X0293206Y0055778D02*
X0317000Y0055778D01*
X0317000Y0057376D02*
X0288933Y0057376D01*
X0288933Y0055778D02*
X0287974Y0055778D01*
X0287974Y0054179D02*
X0288933Y0054179D01*
X0283913Y0054179D02*
X0283754Y0054179D01*
X0293206Y0058975D02*
X0317000Y0058975D01*
X0317000Y0060573D02*
X0293155Y0060573D01*
X0293006Y0062172D02*
X0317000Y0062172D01*
X0317000Y0063770D02*
X0293006Y0063770D01*
X0293006Y0065369D02*
X0317000Y0065369D01*
X0317000Y0066967D02*
X0293006Y0066967D01*
X0292730Y0068566D02*
X0317000Y0068566D01*
X0317418Y0070164D02*
X0283238Y0070164D01*
X0282780Y0071763D02*
X0318575Y0071763D01*
X0284177Y0068566D02*
X0283754Y0068566D01*
X0267946Y0070585D02*
X0267946Y0070585D01*
X0267946Y0071763D02*
X0211913Y0071763D01*
X0211913Y0073361D02*
X0267946Y0073361D01*
X0264142Y0070164D02*
X0212372Y0070164D01*
X0207513Y0071763D02*
X0204039Y0071763D01*
X0204039Y0073361D02*
X0207513Y0073361D01*
X0206749Y0074960D02*
X0204039Y0074960D01*
X0204039Y0076558D02*
X0205151Y0076558D01*
X0208176Y0079755D02*
X0247286Y0079755D01*
X0246286Y0081354D02*
X0206598Y0081354D01*
X0206598Y0082952D02*
X0245818Y0082952D01*
X0245302Y0084551D02*
X0206598Y0084551D01*
X0206598Y0086149D02*
X0245488Y0086149D01*
X0246534Y0087748D02*
X0206598Y0087748D01*
X0209517Y0093147D02*
X0213327Y0093147D01*
X0216081Y0095740D02*
X0250236Y0095740D01*
X0250236Y0094142D02*
X0217197Y0094142D01*
X0197080Y0086149D02*
X0196111Y0086149D01*
X0195959Y0084551D02*
X0197080Y0084551D01*
X0197080Y0082952D02*
X0195959Y0082952D01*
X0195959Y0081354D02*
X0197080Y0081354D01*
X0197080Y0079755D02*
X0194907Y0079755D01*
X0195349Y0078157D02*
X0197080Y0078157D01*
X0197080Y0076558D02*
X0195349Y0076558D01*
X0195349Y0074960D02*
X0197080Y0074960D01*
X0197080Y0073361D02*
X0141047Y0073361D01*
X0141047Y0071763D02*
X0197080Y0071763D01*
X0197080Y0070585D02*
X0197080Y0070585D01*
X0193276Y0070164D02*
X0141506Y0070164D01*
X0136647Y0071763D02*
X0133173Y0071763D01*
X0133173Y0073361D02*
X0136647Y0073361D01*
X0135883Y0074960D02*
X0133173Y0074960D01*
X0133173Y0076558D02*
X0134285Y0076558D01*
X0137310Y0079755D02*
X0170499Y0079755D01*
X0170555Y0078157D02*
X0138909Y0078157D01*
X0140507Y0076558D02*
X0171419Y0076558D01*
X0174405Y0074960D02*
X0141047Y0074960D01*
X0136189Y0070164D02*
X0133173Y0070164D01*
X0133173Y0068566D02*
X0135672Y0068566D01*
X0135649Y0066967D02*
X0133173Y0066967D01*
X0133173Y0065369D02*
X0135672Y0065369D01*
X0135672Y0063770D02*
X0133173Y0063770D01*
X0133173Y0062172D02*
X0136508Y0062172D01*
X0136598Y0060573D02*
X0133173Y0060573D01*
X0133173Y0058975D02*
X0135672Y0058975D01*
X0135672Y0057376D02*
X0134256Y0057376D01*
X0134754Y0055778D02*
X0135672Y0055778D01*
X0135672Y0054179D02*
X0134551Y0054179D01*
X0133479Y0052581D02*
X0136047Y0052581D01*
X0136047Y0050982D02*
X0127868Y0050982D01*
X0127868Y0049384D02*
X0135515Y0049384D01*
X0135066Y0047785D02*
X0127868Y0047785D01*
X0127868Y0046187D02*
X0135319Y0046187D01*
X0136460Y0044588D02*
X0127868Y0044588D01*
X0127868Y0042990D02*
X0193134Y0042990D01*
X0193134Y0044588D02*
X0141235Y0044588D01*
X0142376Y0046187D02*
X0193134Y0046187D01*
X0193134Y0047785D02*
X0142628Y0047785D01*
X0142180Y0049384D02*
X0193134Y0049384D01*
X0193134Y0050982D02*
X0141647Y0050982D01*
X0141647Y0052581D02*
X0193134Y0052581D01*
X0192759Y0054179D02*
X0190632Y0054179D01*
X0190721Y0054334D02*
X0190844Y0054791D01*
X0190844Y0057108D01*
X0186571Y0057108D01*
X0186571Y0053228D01*
X0189281Y0053228D01*
X0189739Y0053351D01*
X0190149Y0053588D01*
X0190484Y0053923D01*
X0190721Y0054334D01*
X0190844Y0055778D02*
X0192759Y0055778D01*
X0192759Y0057376D02*
X0186571Y0057376D01*
X0185612Y0057376D02*
X0147201Y0057376D01*
X0147201Y0057108D02*
X0151474Y0057108D01*
X0151474Y0054791D01*
X0151351Y0054334D01*
X0151114Y0053923D01*
X0150779Y0053588D01*
X0150369Y0053351D01*
X0149911Y0053228D01*
X0147201Y0053228D01*
X0147201Y0057108D01*
X0147201Y0055778D02*
X0146242Y0055778D01*
X0146242Y0054179D02*
X0147201Y0054179D01*
X0151262Y0054179D02*
X0181550Y0054179D01*
X0181461Y0054334D02*
X0181698Y0053923D01*
X0182033Y0053588D01*
X0182444Y0053351D01*
X0182902Y0053228D01*
X0185612Y0053228D01*
X0185612Y0057108D01*
X0181339Y0057108D01*
X0181339Y0054791D01*
X0181461Y0054334D01*
X0181339Y0055778D02*
X0151474Y0055778D01*
X0151474Y0058975D02*
X0181339Y0058975D01*
X0181389Y0060573D02*
X0151423Y0060573D01*
X0151274Y0062172D02*
X0181539Y0062172D01*
X0181539Y0063770D02*
X0151274Y0063770D01*
X0151274Y0065369D02*
X0181539Y0065369D01*
X0181539Y0066967D02*
X0151274Y0066967D01*
X0150998Y0068566D02*
X0181815Y0068566D01*
X0185349Y0074960D02*
X0186834Y0074960D01*
X0186834Y0076558D02*
X0185349Y0076558D01*
X0185349Y0078157D02*
X0186834Y0078157D01*
X0187276Y0079755D02*
X0184907Y0079755D01*
X0184799Y0081354D02*
X0183840Y0081354D01*
X0183840Y0082952D02*
X0184799Y0082952D01*
X0179961Y0082952D02*
X0135732Y0082952D01*
X0135732Y0081354D02*
X0171243Y0081354D01*
X0177318Y0081354D02*
X0180069Y0081354D01*
X0204039Y0070164D02*
X0207055Y0070164D01*
X0206539Y0068566D02*
X0204039Y0068566D01*
X0204039Y0066967D02*
X0206515Y0066967D01*
X0206539Y0065369D02*
X0204039Y0065369D01*
X0204039Y0063770D02*
X0206539Y0063770D01*
X0207374Y0062172D02*
X0204039Y0062172D01*
X0204039Y0060573D02*
X0207464Y0060573D01*
X0206539Y0058975D02*
X0204039Y0058975D01*
X0205123Y0057376D02*
X0206539Y0057376D01*
X0206539Y0055778D02*
X0205620Y0055778D01*
X0205417Y0054179D02*
X0206539Y0054179D01*
X0206913Y0052581D02*
X0204345Y0052581D01*
X0206913Y0050982D02*
X0198734Y0050982D01*
X0198734Y0049384D02*
X0206381Y0049384D01*
X0205932Y0047785D02*
X0198734Y0047785D01*
X0198734Y0046187D02*
X0206185Y0046187D01*
X0207326Y0044588D02*
X0198734Y0044588D01*
X0198734Y0042990D02*
X0264000Y0042990D01*
X0264000Y0044588D02*
X0212101Y0044588D01*
X0213242Y0046187D02*
X0264000Y0046187D01*
X0264000Y0047785D02*
X0213494Y0047785D01*
X0213046Y0049384D02*
X0264000Y0049384D01*
X0264000Y0050982D02*
X0212513Y0050982D01*
X0212513Y0052581D02*
X0264000Y0052581D01*
X0263625Y0054179D02*
X0263467Y0054179D01*
X0259406Y0054179D02*
X0258446Y0054179D01*
X0258446Y0055778D02*
X0259406Y0055778D01*
X0258446Y0057376D02*
X0218067Y0057376D01*
X0218067Y0057108D02*
X0222340Y0057108D01*
X0222340Y0054791D01*
X0222217Y0054334D01*
X0221981Y0053923D01*
X0221645Y0053588D01*
X0221235Y0053351D01*
X0220777Y0053228D01*
X0218067Y0053228D01*
X0218067Y0057108D01*
X0218067Y0055778D02*
X0217108Y0055778D01*
X0217108Y0054179D02*
X0218067Y0054179D01*
X0222128Y0054179D02*
X0254385Y0054179D01*
X0254173Y0055778D02*
X0222340Y0055778D01*
X0222340Y0058975D02*
X0254173Y0058975D01*
X0254224Y0060573D02*
X0222289Y0060573D01*
X0222140Y0062172D02*
X0254373Y0062172D01*
X0254373Y0063770D02*
X0222140Y0063770D01*
X0222140Y0065369D02*
X0254373Y0065369D01*
X0254373Y0066967D02*
X0222140Y0066967D01*
X0221864Y0068566D02*
X0254649Y0068566D01*
X0258183Y0074960D02*
X0259669Y0074960D01*
X0259669Y0076558D02*
X0258183Y0076558D01*
X0258183Y0078157D02*
X0259669Y0078157D01*
X0260111Y0079755D02*
X0257741Y0079755D01*
X0249669Y0076558D02*
X0211373Y0076558D01*
X0211913Y0074960D02*
X0249669Y0074960D01*
X0248885Y0078157D02*
X0209775Y0078157D01*
X0199639Y0065369D02*
X0199109Y0065369D01*
X0199109Y0063770D02*
X0199639Y0063770D01*
X0199639Y0062172D02*
X0198273Y0062172D01*
X0198183Y0060573D02*
X0199639Y0060573D01*
X0199639Y0058975D02*
X0199109Y0058975D01*
X0193684Y0060573D02*
X0190793Y0060573D01*
X0190844Y0058975D02*
X0192759Y0058975D01*
X0186571Y0055778D02*
X0185612Y0055778D01*
X0185612Y0054179D02*
X0186571Y0054179D01*
X0198734Y0052581D02*
X0199333Y0052581D01*
X0212888Y0054179D02*
X0213046Y0054179D01*
X0212885Y0060573D02*
X0211963Y0060573D01*
X0212053Y0062172D02*
X0213035Y0062172D01*
X0193595Y0062172D02*
X0190644Y0062172D01*
X0142169Y0062172D02*
X0141186Y0062172D01*
X0141097Y0060573D02*
X0142019Y0060573D01*
X0142022Y0054179D02*
X0142180Y0054179D01*
X0128467Y0052581D02*
X0127868Y0052581D01*
X0122268Y0052581D02*
X0070781Y0052581D01*
X0070781Y0050982D02*
X0122268Y0050982D01*
X0122268Y0049384D02*
X0071313Y0049384D01*
X0071762Y0047785D02*
X0122268Y0047785D01*
X0122268Y0046187D02*
X0071510Y0046187D01*
X0070368Y0044588D02*
X0122268Y0044588D01*
X0122268Y0042990D02*
X0057002Y0042990D01*
X0057002Y0044588D02*
X0065594Y0044588D01*
X0064452Y0046187D02*
X0057002Y0046187D01*
X0057002Y0047785D02*
X0064200Y0047785D01*
X0064649Y0049384D02*
X0057002Y0049384D01*
X0057002Y0050982D02*
X0065181Y0050982D01*
X0065181Y0052581D02*
X0062613Y0052581D01*
X0063685Y0054179D02*
X0064806Y0054179D01*
X0064806Y0055778D02*
X0063888Y0055778D01*
X0063390Y0057376D02*
X0064806Y0057376D01*
X0064806Y0058975D02*
X0062307Y0058975D01*
X0062307Y0060573D02*
X0065732Y0060573D01*
X0065642Y0062172D02*
X0062307Y0062172D01*
X0062307Y0063770D02*
X0064806Y0063770D01*
X0064806Y0065369D02*
X0062307Y0065369D01*
X0062307Y0066967D02*
X0064806Y0066967D01*
X0064806Y0068566D02*
X0062307Y0068566D01*
X0062307Y0070164D02*
X0065323Y0070164D01*
X0065781Y0071763D02*
X0062307Y0071763D01*
X0062307Y0073361D02*
X0065781Y0073361D01*
X0065017Y0074960D02*
X0062307Y0074960D01*
X0062307Y0076558D02*
X0063419Y0076558D01*
X0066444Y0079755D02*
X0109892Y0079755D01*
X0109173Y0081354D02*
X0064866Y0081354D01*
X0064866Y0082952D02*
X0109173Y0082952D01*
X0113053Y0082952D02*
X0114012Y0082952D01*
X0114012Y0081354D02*
X0113053Y0081354D01*
X0113053Y0079755D02*
X0114012Y0079755D01*
X0113467Y0078912D02*
X0106826Y0078912D01*
X0105889Y0077975D01*
X0105889Y0074657D01*
X0105209Y0074376D01*
X0104146Y0073312D01*
X0103570Y0071922D01*
X0103570Y0070418D01*
X0104146Y0069028D01*
X0105209Y0067965D01*
X0106599Y0067389D01*
X0108103Y0067389D01*
X0109493Y0067965D01*
X0110557Y0069028D01*
X0111132Y0070418D01*
X0111132Y0070991D01*
X0112520Y0072379D01*
X0112596Y0072562D01*
X0113467Y0072562D01*
X0114404Y0073499D01*
X0114404Y0077975D01*
X0113467Y0078912D01*
X0114222Y0078157D02*
X0116071Y0078157D01*
X0115889Y0076558D02*
X0114404Y0076558D01*
X0114404Y0074960D02*
X0115889Y0074960D01*
X0116027Y0073361D02*
X0114266Y0073361D01*
X0111904Y0071763D02*
X0126214Y0071763D01*
X0126214Y0070585D02*
X0126214Y0070585D01*
X0126214Y0073361D02*
X0124266Y0073361D01*
X0124404Y0074960D02*
X0126214Y0074960D01*
X0126214Y0076558D02*
X0124404Y0076558D01*
X0124222Y0078157D02*
X0126214Y0078157D01*
X0126214Y0079755D02*
X0124380Y0079755D01*
X0125172Y0081354D02*
X0126214Y0081354D01*
X0126214Y0082952D02*
X0125172Y0082952D01*
X0125172Y0084551D02*
X0126214Y0084551D01*
X0126214Y0086149D02*
X0126111Y0086149D01*
X0123086Y0089346D02*
X0117640Y0089346D01*
X0118009Y0090945D02*
X0120900Y0090945D01*
X0113736Y0090945D02*
X0112777Y0090945D01*
X0112777Y0089346D02*
X0113736Y0089346D01*
X0114012Y0087748D02*
X0113053Y0087748D01*
X0113053Y0086149D02*
X0114012Y0086149D01*
X0113053Y0084551D02*
X0064866Y0084551D01*
X0064866Y0086149D02*
X0109173Y0086149D01*
X0109279Y0087748D02*
X0064866Y0087748D01*
X0068108Y0092824D02*
X0073887Y0092824D01*
X0077433Y0094142D02*
X0108504Y0094142D01*
X0108504Y0095740D02*
X0076317Y0095740D01*
X0071456Y0095740D02*
X0069984Y0095740D01*
X0037838Y0097339D02*
X0019899Y0097339D01*
X0019899Y0098937D02*
X0037838Y0098937D01*
X0037838Y0100536D02*
X0019899Y0100536D01*
X0019899Y0102134D02*
X0037838Y0102134D01*
X0037848Y0103733D02*
X0019899Y0103733D01*
X0019899Y0105332D02*
X0028521Y0105332D01*
X0027167Y0106930D02*
X0019899Y0106930D01*
X0019899Y0108529D02*
X0026798Y0108529D01*
X0027131Y0110127D02*
X0019899Y0110127D01*
X0019899Y0111726D02*
X0028386Y0111726D01*
X0019899Y0113324D02*
X0037672Y0113324D01*
X0037638Y0114923D02*
X0019899Y0114923D01*
X0032638Y0105332D02*
X0038053Y0105332D01*
X0037638Y0095740D02*
X0019899Y0095740D01*
X0019899Y0094142D02*
X0037638Y0094142D01*
X0038228Y0082952D02*
X0019899Y0082952D01*
X0019899Y0081354D02*
X0038337Y0081354D01*
X0037512Y0079755D02*
X0019899Y0079755D01*
X0019899Y0078157D02*
X0037070Y0078157D01*
X0036285Y0076558D02*
X0019899Y0076558D01*
X0019899Y0074960D02*
X0035304Y0074960D01*
X0035254Y0073361D02*
X0019899Y0073361D01*
X0019899Y0071763D02*
X0035254Y0071763D01*
X0035254Y0070164D02*
X0019899Y0070164D01*
X0019899Y0068566D02*
X0035254Y0068566D01*
X0035254Y0066967D02*
X0019899Y0066967D01*
X0019899Y0065369D02*
X0035219Y0065369D01*
X0034672Y0063770D02*
X0019899Y0063770D01*
X0019899Y0062172D02*
X0034827Y0062172D01*
X0035829Y0060573D02*
X0019899Y0060573D01*
X0019899Y0058975D02*
X0041575Y0058975D01*
X0041626Y0060573D02*
X0041078Y0060573D01*
X0045848Y0057376D02*
X0019899Y0057376D01*
X0019899Y0055778D02*
X0041575Y0055778D01*
X0041787Y0054179D02*
X0019899Y0054179D01*
X0019899Y0052581D02*
X0051402Y0052581D01*
X0051402Y0050982D02*
X0019899Y0050982D01*
X0019899Y0049384D02*
X0051402Y0049384D01*
X0051402Y0047785D02*
X0019899Y0047785D01*
X0019899Y0046187D02*
X0051402Y0046187D01*
X0051402Y0044588D02*
X0019899Y0044588D01*
X0019899Y0042990D02*
X0051402Y0042990D01*
X0050820Y0041391D02*
X0019899Y0041391D01*
X0019899Y0039793D02*
X0050420Y0039793D01*
X0050722Y0038194D02*
X0019899Y0038194D01*
X0019899Y0036596D02*
X0051933Y0036596D01*
X0056470Y0036596D02*
X0122799Y0036596D01*
X0121588Y0038194D02*
X0057681Y0038194D01*
X0057983Y0039793D02*
X0121287Y0039793D01*
X0121686Y0041391D02*
X0057583Y0041391D01*
X0057601Y0052581D02*
X0057002Y0052581D01*
X0051027Y0054179D02*
X0050868Y0054179D01*
X0046807Y0054179D02*
X0045848Y0054179D01*
X0045848Y0055778D02*
X0046807Y0055778D01*
X0070230Y0060573D02*
X0071153Y0060573D01*
X0076335Y0057376D02*
X0114746Y0057376D01*
X0114746Y0057108D02*
X0110472Y0057108D01*
X0110472Y0054791D01*
X0110595Y0054334D01*
X0110832Y0053923D01*
X0111167Y0053588D01*
X0111578Y0053351D01*
X0112035Y0053228D01*
X0114746Y0053228D01*
X0114746Y0057108D01*
X0115705Y0057108D02*
X0115705Y0053228D01*
X0118415Y0053228D01*
X0118873Y0053351D01*
X0119283Y0053588D01*
X0119618Y0053923D01*
X0119855Y0054334D01*
X0119978Y0054791D01*
X0119978Y0057108D01*
X0115705Y0057108D01*
X0115705Y0057376D02*
X0121893Y0057376D01*
X0121893Y0055778D02*
X0119978Y0055778D01*
X0119766Y0054179D02*
X0121893Y0054179D01*
X0115705Y0054179D02*
X0114746Y0054179D01*
X0114746Y0055778D02*
X0115705Y0055778D01*
X0110472Y0055778D02*
X0080608Y0055778D01*
X0080608Y0054791D02*
X0080608Y0057108D01*
X0076335Y0057108D01*
X0076335Y0053228D01*
X0079045Y0053228D01*
X0079503Y0053351D01*
X0079913Y0053588D01*
X0080248Y0053923D01*
X0080485Y0054334D01*
X0080608Y0054791D01*
X0080396Y0054179D02*
X0110684Y0054179D01*
X0110472Y0058975D02*
X0080608Y0058975D01*
X0080557Y0060573D02*
X0110523Y0060573D01*
X0110672Y0062172D02*
X0080408Y0062172D01*
X0080408Y0063770D02*
X0110672Y0063770D01*
X0110672Y0065369D02*
X0080408Y0065369D01*
X0080408Y0066967D02*
X0110672Y0066967D01*
X0110949Y0068566D02*
X0110094Y0068566D01*
X0111027Y0070164D02*
X0122409Y0070164D01*
X0128243Y0065369D02*
X0128773Y0065369D01*
X0128773Y0063770D02*
X0128243Y0063770D01*
X0128773Y0062172D02*
X0127407Y0062172D01*
X0127317Y0060573D02*
X0128773Y0060573D01*
X0128773Y0058975D02*
X0128243Y0058975D01*
X0122818Y0060573D02*
X0119927Y0060573D01*
X0119978Y0058975D02*
X0121893Y0058975D01*
X0122729Y0062172D02*
X0119778Y0062172D01*
X0104608Y0068566D02*
X0080132Y0068566D01*
X0071579Y0068566D02*
X0071156Y0068566D01*
X0070639Y0070164D02*
X0103675Y0070164D01*
X0103570Y0071763D02*
X0070181Y0071763D01*
X0070181Y0073361D02*
X0104195Y0073361D01*
X0105889Y0074960D02*
X0070181Y0074960D01*
X0069641Y0076558D02*
X0105889Y0076558D01*
X0106071Y0078157D02*
X0068043Y0078157D01*
X0075376Y0055778D02*
X0076335Y0055778D01*
X0076335Y0054179D02*
X0075376Y0054179D01*
X0071314Y0054179D02*
X0071156Y0054179D01*
X0128449Y0041391D02*
X0192552Y0041391D01*
X0192153Y0039793D02*
X0128849Y0039793D01*
X0128547Y0038194D02*
X0192454Y0038194D01*
X0193665Y0036596D02*
X0127337Y0036596D01*
X0198203Y0036596D02*
X0264531Y0036596D01*
X0263320Y0038194D02*
X0199413Y0038194D01*
X0199715Y0039793D02*
X0263019Y0039793D01*
X0263419Y0041391D02*
X0199315Y0041391D01*
X0269600Y0052581D02*
X0270200Y0052581D01*
X0282829Y0060573D02*
X0283752Y0060573D01*
X0252323Y0087748D02*
X0251632Y0087748D01*
X0250436Y0097339D02*
X0248887Y0097339D01*
X0228312Y0118120D02*
X0228278Y0118120D01*
X0213625Y0135703D02*
X0209739Y0135703D01*
X0180671Y0150090D02*
X0152142Y0150090D01*
X0153531Y0149043D02*
X0153531Y0149043D01*
X0153531Y0149043D01*
X0153932Y0148491D02*
X0178881Y0148491D01*
X0177720Y0146893D02*
X0155093Y0146893D01*
X0155835Y0145294D02*
X0176977Y0145294D01*
X0177316Y0146337D02*
X0177316Y0146337D01*
X0176458Y0143696D02*
X0156355Y0143696D01*
X0156530Y0142097D02*
X0176283Y0142097D01*
X0176283Y0140499D02*
X0156530Y0140499D01*
X0156530Y0138900D02*
X0176283Y0138900D01*
X0176283Y0137302D02*
X0156530Y0137302D01*
X0156589Y0135703D02*
X0176224Y0135703D01*
X0176224Y0134105D02*
X0156589Y0134105D01*
X0156589Y0132506D02*
X0176224Y0132506D01*
X0176224Y0130908D02*
X0156795Y0130908D01*
X0156795Y0129309D02*
X0176224Y0129309D01*
X0176224Y0127711D02*
X0156795Y0127711D01*
X0156795Y0126112D02*
X0176224Y0126112D01*
X0175854Y0124514D02*
X0156795Y0124514D01*
X0156795Y0122915D02*
X0174256Y0122915D01*
X0171835Y0121317D02*
X0156795Y0121317D01*
X0156795Y0119718D02*
X0170728Y0119718D01*
X0170499Y0118120D02*
X0157651Y0118120D01*
X0155477Y0118120D02*
X0155443Y0118120D01*
X0159810Y0116521D02*
X0170972Y0116521D01*
X0172829Y0114923D02*
X0160345Y0114923D01*
X0144137Y0113324D02*
X0140665Y0113324D01*
X0144137Y0111726D02*
X0117809Y0111726D01*
X0117975Y0113324D02*
X0121281Y0113324D01*
X0121096Y0114923D02*
X0118009Y0114923D01*
X0121096Y0116521D02*
X0113736Y0116521D01*
X0112777Y0116521D02*
X0106723Y0116521D01*
X0107645Y0118120D02*
X0108504Y0118120D01*
X0117762Y0119718D02*
X0127065Y0119718D01*
X0128414Y0119718D02*
X0128414Y0119718D01*
X0128414Y0118120D02*
X0128414Y0118120D01*
X0128414Y0116521D02*
X0128414Y0116521D01*
X0128414Y0114923D02*
X0128414Y0114923D01*
X0128414Y0113324D02*
X0128414Y0113324D01*
X0121096Y0118120D02*
X0118009Y0118120D01*
X0121156Y0121317D02*
X0128773Y0121317D01*
X0127298Y0122915D02*
X0121156Y0122915D01*
X0121156Y0124514D02*
X0125699Y0124514D01*
X0124836Y0126112D02*
X0121156Y0126112D01*
X0121156Y0127711D02*
X0123942Y0127711D01*
X0123074Y0135703D02*
X0121156Y0135703D01*
X0113617Y0137302D02*
X0148330Y0137302D01*
X0148330Y0138900D02*
X0113617Y0138900D01*
X0113617Y0140499D02*
X0148330Y0140499D01*
X0143042Y0142097D02*
X0118904Y0142097D01*
X0120950Y0143696D02*
X0140997Y0143696D01*
X0140011Y0145294D02*
X0121935Y0145294D01*
X0122494Y0146893D02*
X0139452Y0146893D01*
X0139452Y0148491D02*
X0122494Y0148491D01*
X0122142Y0150090D02*
X0139804Y0150090D01*
X0140497Y0151688D02*
X0121449Y0151688D01*
X0119851Y0153287D02*
X0142096Y0153287D01*
X0149851Y0153287D02*
X0182962Y0153287D01*
X0181364Y0151688D02*
X0151449Y0151688D01*
X0140791Y0135703D02*
X0138872Y0135703D01*
X0178511Y0118120D02*
X0179370Y0118120D01*
X0179570Y0111726D02*
X0176474Y0111726D01*
X0142461Y0093147D02*
X0138650Y0093147D01*
X0117346Y0079755D02*
X0117173Y0079755D01*
X0084611Y0118120D02*
X0084577Y0118120D01*
X0069924Y0135703D02*
X0068006Y0135703D01*
X0034491Y0127711D02*
X0032273Y0127711D01*
X0324037Y0172469D02*
X0329563Y0172469D01*
X0329081Y0172269D02*
X0327731Y0170919D01*
X0327000Y0169155D01*
X0327000Y0154445D01*
X0327731Y0152681D01*
X0329081Y0151331D01*
X0330845Y0150600D01*
X0332755Y0150600D01*
X0334519Y0151331D01*
X0335869Y0152681D01*
X0336600Y0154445D01*
X0336600Y0169155D01*
X0335869Y0170919D01*
X0334519Y0172269D01*
X0332755Y0173000D01*
X0330845Y0173000D01*
X0329081Y0172269D01*
X0327711Y0170870D02*
X0325889Y0170870D01*
X0326551Y0169272D02*
X0327049Y0169272D01*
X0327000Y0167673D02*
X0326600Y0167673D01*
X0326600Y0166075D02*
X0327000Y0166075D01*
X0327000Y0164476D02*
X0326600Y0164476D01*
X0326600Y0162878D02*
X0327000Y0162878D01*
X0327000Y0161279D02*
X0326600Y0161279D01*
X0326600Y0159681D02*
X0327000Y0159681D01*
X0327000Y0158082D02*
X0326600Y0158082D01*
X0326600Y0156484D02*
X0327000Y0156484D01*
X0327000Y0154885D02*
X0326600Y0154885D01*
X0326120Y0153287D02*
X0327480Y0153287D01*
X0328723Y0151688D02*
X0324877Y0151688D01*
X0334877Y0151688D02*
X0338723Y0151688D01*
X0339081Y0151331D02*
X0340845Y0150600D01*
X0342755Y0150600D01*
X0344519Y0151331D01*
X0345869Y0152681D01*
X0346600Y0154445D01*
X0346600Y0169155D01*
X0345869Y0170919D01*
X0344519Y0172269D01*
X0342755Y0173000D01*
X0340845Y0173000D01*
X0339081Y0172269D01*
X0337731Y0170919D01*
X0337000Y0169155D01*
X0337000Y0154445D01*
X0337731Y0152681D01*
X0339081Y0151331D01*
X0337480Y0153287D02*
X0336120Y0153287D01*
X0336600Y0154885D02*
X0337000Y0154885D01*
X0337000Y0156484D02*
X0336600Y0156484D01*
X0336600Y0158082D02*
X0337000Y0158082D01*
X0337000Y0159681D02*
X0336600Y0159681D01*
X0336600Y0161279D02*
X0337000Y0161279D01*
X0337000Y0162878D02*
X0336600Y0162878D01*
X0336600Y0164476D02*
X0337000Y0164476D01*
X0337000Y0166075D02*
X0336600Y0166075D01*
X0336600Y0167673D02*
X0337000Y0167673D01*
X0337049Y0169272D02*
X0336551Y0169272D01*
X0335889Y0170870D02*
X0337711Y0170870D01*
X0339563Y0172469D02*
X0334037Y0172469D01*
X0344037Y0172469D02*
X0349563Y0172469D01*
X0349081Y0172269D02*
X0347731Y0170919D01*
X0347000Y0169155D01*
X0347000Y0154445D01*
X0347731Y0152681D01*
X0349081Y0151331D01*
X0350845Y0150600D01*
X0352755Y0150600D01*
X0354519Y0151331D01*
X0355869Y0152681D01*
X0356600Y0154445D01*
X0356600Y0169155D01*
X0355869Y0170919D01*
X0354519Y0172269D01*
X0352755Y0173000D01*
X0350845Y0173000D01*
X0349081Y0172269D01*
X0347711Y0170870D02*
X0345889Y0170870D01*
X0346551Y0169272D02*
X0347049Y0169272D01*
X0347000Y0167673D02*
X0346600Y0167673D01*
X0346600Y0166075D02*
X0347000Y0166075D01*
X0347000Y0164476D02*
X0346600Y0164476D01*
X0346600Y0162878D02*
X0347000Y0162878D01*
X0347000Y0161279D02*
X0346600Y0161279D01*
X0346600Y0159681D02*
X0347000Y0159681D01*
X0347000Y0158082D02*
X0346600Y0158082D01*
X0346600Y0156484D02*
X0347000Y0156484D01*
X0347000Y0154885D02*
X0346600Y0154885D01*
X0346120Y0153287D02*
X0347480Y0153287D01*
X0348723Y0151688D02*
X0344877Y0151688D01*
X0354877Y0151688D02*
X0358723Y0151688D01*
X0359081Y0151331D02*
X0360845Y0150600D01*
X0362755Y0150600D01*
X0364519Y0151331D01*
X0365869Y0152681D01*
X0366600Y0154445D01*
X0366600Y0169155D01*
X0365869Y0170919D01*
X0364519Y0172269D01*
X0362755Y0173000D01*
X0360845Y0173000D01*
X0359081Y0172269D01*
X0357731Y0170919D01*
X0357000Y0169155D01*
X0357000Y0154445D01*
X0357731Y0152681D01*
X0359081Y0151331D01*
X0357480Y0153287D02*
X0356120Y0153287D01*
X0356600Y0154885D02*
X0357000Y0154885D01*
X0357000Y0156484D02*
X0356600Y0156484D01*
X0356600Y0158082D02*
X0357000Y0158082D01*
X0357000Y0159681D02*
X0356600Y0159681D01*
X0356600Y0161279D02*
X0357000Y0161279D01*
X0357000Y0162878D02*
X0356600Y0162878D01*
X0356600Y0164476D02*
X0357000Y0164476D01*
X0357000Y0166075D02*
X0356600Y0166075D01*
X0356600Y0167673D02*
X0357000Y0167673D01*
X0357049Y0169272D02*
X0356551Y0169272D01*
X0355889Y0170870D02*
X0357711Y0170870D01*
X0359563Y0172469D02*
X0354037Y0172469D01*
X0364037Y0172469D02*
X0369563Y0172469D01*
X0369081Y0172269D02*
X0367731Y0170919D01*
X0367000Y0169155D01*
X0367000Y0154445D01*
X0367731Y0152681D01*
X0369081Y0151331D01*
X0370845Y0150600D01*
X0372755Y0150600D01*
X0374519Y0151331D01*
X0375869Y0152681D01*
X0376600Y0154445D01*
X0376600Y0169155D01*
X0375869Y0170919D01*
X0374519Y0172269D01*
X0372755Y0173000D01*
X0370845Y0173000D01*
X0369081Y0172269D01*
X0367711Y0170870D02*
X0365889Y0170870D01*
X0366551Y0169272D02*
X0367049Y0169272D01*
X0367000Y0167673D02*
X0366600Y0167673D01*
X0366600Y0166075D02*
X0367000Y0166075D01*
X0367000Y0164476D02*
X0366600Y0164476D01*
X0366600Y0162878D02*
X0367000Y0162878D01*
X0367000Y0161279D02*
X0366600Y0161279D01*
X0366600Y0159681D02*
X0367000Y0159681D01*
X0367000Y0158082D02*
X0366600Y0158082D01*
X0366600Y0156484D02*
X0367000Y0156484D01*
X0367000Y0154885D02*
X0366600Y0154885D01*
X0366120Y0153287D02*
X0367480Y0153287D01*
X0368723Y0151688D02*
X0364877Y0151688D01*
X0374877Y0151688D02*
X0378723Y0151688D01*
X0379081Y0151331D02*
X0380845Y0150600D01*
X0382755Y0150600D01*
X0384519Y0151331D01*
X0385869Y0152681D01*
X0386600Y0154445D01*
X0386600Y0169155D01*
X0385869Y0170919D01*
X0384519Y0172269D01*
X0382755Y0173000D01*
X0380845Y0173000D01*
X0379081Y0172269D01*
X0377731Y0170919D01*
X0377000Y0169155D01*
X0377000Y0154445D01*
X0377731Y0152681D01*
X0379081Y0151331D01*
X0377480Y0153287D02*
X0376120Y0153287D01*
X0376600Y0154885D02*
X0377000Y0154885D01*
X0377000Y0156484D02*
X0376600Y0156484D01*
X0376600Y0158082D02*
X0377000Y0158082D01*
X0377000Y0159681D02*
X0376600Y0159681D01*
X0376600Y0161279D02*
X0377000Y0161279D01*
X0377000Y0162878D02*
X0376600Y0162878D01*
X0376600Y0164476D02*
X0377000Y0164476D01*
X0377000Y0166075D02*
X0376600Y0166075D01*
X0376600Y0167673D02*
X0377000Y0167673D01*
X0377049Y0169272D02*
X0376551Y0169272D01*
X0375889Y0170870D02*
X0377711Y0170870D01*
X0379563Y0172469D02*
X0374037Y0172469D01*
X0384037Y0172469D02*
X0389563Y0172469D01*
X0389081Y0172269D02*
X0387731Y0170919D01*
X0387000Y0169155D01*
X0387000Y0154445D01*
X0387731Y0152681D01*
X0389081Y0151331D01*
X0390845Y0150600D01*
X0392755Y0150600D01*
X0394519Y0151331D01*
X0395869Y0152681D01*
X0396600Y0154445D01*
X0396600Y0169155D01*
X0395869Y0170919D01*
X0394519Y0172269D01*
X0392755Y0173000D01*
X0390845Y0173000D01*
X0389081Y0172269D01*
X0387711Y0170870D02*
X0385889Y0170870D01*
X0386551Y0169272D02*
X0387049Y0169272D01*
X0387000Y0167673D02*
X0386600Y0167673D01*
X0386600Y0166075D02*
X0387000Y0166075D01*
X0387000Y0164476D02*
X0386600Y0164476D01*
X0386600Y0162878D02*
X0387000Y0162878D01*
X0387000Y0161279D02*
X0386600Y0161279D01*
X0386600Y0159681D02*
X0387000Y0159681D01*
X0387000Y0158082D02*
X0386600Y0158082D01*
X0386600Y0156484D02*
X0387000Y0156484D01*
X0387000Y0154885D02*
X0386600Y0154885D01*
X0386120Y0153287D02*
X0387480Y0153287D01*
X0388723Y0151688D02*
X0384877Y0151688D01*
X0394877Y0151688D02*
X0398723Y0151688D01*
X0399081Y0151331D02*
X0400845Y0150600D01*
X0402755Y0150600D01*
X0404519Y0151331D01*
X0405869Y0152681D01*
X0406600Y0154445D01*
X0406600Y0169155D01*
X0405869Y0170919D01*
X0404519Y0172269D01*
X0402755Y0173000D01*
X0400845Y0173000D01*
X0399081Y0172269D01*
X0397731Y0170919D01*
X0397000Y0169155D01*
X0397000Y0154445D01*
X0397731Y0152681D01*
X0399081Y0151331D01*
X0397480Y0153287D02*
X0396120Y0153287D01*
X0396600Y0154885D02*
X0397000Y0154885D01*
X0397000Y0156484D02*
X0396600Y0156484D01*
X0396600Y0158082D02*
X0397000Y0158082D01*
X0397000Y0159681D02*
X0396600Y0159681D01*
X0396600Y0161279D02*
X0397000Y0161279D01*
X0397000Y0162878D02*
X0396600Y0162878D01*
X0396600Y0164476D02*
X0397000Y0164476D01*
X0397000Y0166075D02*
X0396600Y0166075D01*
X0396600Y0167673D02*
X0397000Y0167673D01*
X0397049Y0169272D02*
X0396551Y0169272D01*
X0395889Y0170870D02*
X0397711Y0170870D01*
X0399563Y0172469D02*
X0394037Y0172469D01*
X0404037Y0172469D02*
X0409563Y0172469D01*
X0407711Y0170870D02*
X0405889Y0170870D01*
X0406551Y0169272D02*
X0407049Y0169272D01*
X0407000Y0167673D02*
X0406600Y0167673D01*
X0406600Y0166075D02*
X0407000Y0166075D01*
X0407000Y0164476D02*
X0406600Y0164476D01*
X0406600Y0162878D02*
X0407000Y0162878D01*
X0407000Y0161279D02*
X0406600Y0161279D01*
X0406600Y0159681D02*
X0407000Y0159681D01*
X0407000Y0158082D02*
X0406600Y0158082D01*
X0406600Y0156484D02*
X0407000Y0156484D01*
X0407000Y0154885D02*
X0406600Y0154885D01*
X0406120Y0153287D02*
X0407480Y0153287D01*
X0408723Y0151688D02*
X0404877Y0151688D01*
X0485025Y0071763D02*
X0488575Y0071763D01*
X0487418Y0070164D02*
X0486182Y0070164D01*
X0486600Y0068566D02*
X0487000Y0068566D01*
X0487000Y0066967D02*
X0486600Y0066967D01*
X0486600Y0065369D02*
X0487000Y0065369D01*
X0487000Y0063770D02*
X0486600Y0063770D01*
X0486600Y0062172D02*
X0487000Y0062172D01*
X0487000Y0060573D02*
X0486600Y0060573D01*
X0486600Y0058975D02*
X0487000Y0058975D01*
X0487000Y0057376D02*
X0486600Y0057376D01*
X0486600Y0055778D02*
X0487000Y0055778D01*
X0487110Y0054179D02*
X0486490Y0054179D01*
X0485769Y0052581D02*
X0487831Y0052581D01*
X0489923Y0050982D02*
X0483677Y0050982D01*
X0471745Y0047785D02*
X0500000Y0047785D01*
X0500000Y0046187D02*
X0470146Y0046187D01*
X0468548Y0044588D02*
X0500000Y0044588D01*
D24*
X0386800Y0101800D02*
X0375550Y0090550D01*
X0374300Y0090550D01*
X0386800Y0101800D02*
X0386800Y0110550D01*
X0393050Y0116800D01*
X0415619Y0116800D01*
D25*
X0294162Y0132194D02*
X0294162Y0141485D01*
X0294163Y0141485D02*
X0294161Y0141643D01*
X0294155Y0141802D01*
X0294146Y0141960D01*
X0294132Y0142118D01*
X0294114Y0142275D01*
X0294093Y0142432D01*
X0294068Y0142589D01*
X0294039Y0142745D01*
X0294006Y0142900D01*
X0293969Y0143054D01*
X0293929Y0143207D01*
X0293885Y0143359D01*
X0293837Y0143510D01*
X0293786Y0143660D01*
X0293730Y0143809D01*
X0293671Y0143956D01*
X0293609Y0144102D01*
X0293543Y0144246D01*
X0293474Y0144388D01*
X0293401Y0144529D01*
X0293324Y0144668D01*
X0293244Y0144805D01*
X0293161Y0144939D01*
X0293075Y0145072D01*
X0292985Y0145203D01*
X0292892Y0145331D01*
X0292796Y0145458D01*
X0292697Y0145581D01*
X0292595Y0145703D01*
X0292490Y0145821D01*
X0292382Y0145937D01*
X0292272Y0146051D01*
X0292158Y0146161D01*
X0292042Y0146269D01*
X0291924Y0146374D01*
X0291802Y0146476D01*
X0291679Y0146575D01*
X0291552Y0146671D01*
X0291424Y0146764D01*
X0291293Y0146854D01*
X0291160Y0146940D01*
X0291026Y0147023D01*
X0290889Y0147103D01*
X0290750Y0147180D01*
X0290609Y0147253D01*
X0290467Y0147322D01*
X0290323Y0147388D01*
X0290177Y0147450D01*
X0290030Y0147509D01*
X0289881Y0147565D01*
X0289731Y0147616D01*
X0289580Y0147664D01*
X0289428Y0147708D01*
X0289275Y0147748D01*
X0289121Y0147785D01*
X0288966Y0147818D01*
X0288810Y0147847D01*
X0288653Y0147872D01*
X0288496Y0147893D01*
X0288339Y0147911D01*
X0288181Y0147925D01*
X0288023Y0147934D01*
X0287864Y0147940D01*
X0287706Y0147942D01*
X0257706Y0147942D02*
X0257548Y0147940D01*
X0257389Y0147934D01*
X0257231Y0147925D01*
X0257073Y0147911D01*
X0256916Y0147893D01*
X0256759Y0147872D01*
X0256602Y0147847D01*
X0256446Y0147818D01*
X0256291Y0147785D01*
X0256137Y0147748D01*
X0255984Y0147708D01*
X0255832Y0147664D01*
X0255681Y0147616D01*
X0255531Y0147565D01*
X0255382Y0147509D01*
X0255235Y0147450D01*
X0255089Y0147388D01*
X0254945Y0147322D01*
X0254803Y0147253D01*
X0254662Y0147180D01*
X0254523Y0147103D01*
X0254386Y0147023D01*
X0254252Y0146940D01*
X0254119Y0146854D01*
X0253988Y0146764D01*
X0253860Y0146671D01*
X0253733Y0146575D01*
X0253610Y0146476D01*
X0253488Y0146374D01*
X0253370Y0146269D01*
X0253254Y0146161D01*
X0253140Y0146051D01*
X0253030Y0145937D01*
X0252922Y0145821D01*
X0252817Y0145703D01*
X0252715Y0145581D01*
X0252616Y0145458D01*
X0252520Y0145331D01*
X0252427Y0145203D01*
X0252337Y0145072D01*
X0252251Y0144939D01*
X0252168Y0144805D01*
X0252088Y0144668D01*
X0252011Y0144529D01*
X0251938Y0144388D01*
X0251869Y0144246D01*
X0251803Y0144102D01*
X0251741Y0143956D01*
X0251682Y0143809D01*
X0251626Y0143660D01*
X0251575Y0143510D01*
X0251527Y0143359D01*
X0251483Y0143207D01*
X0251443Y0143054D01*
X0251406Y0142900D01*
X0251373Y0142745D01*
X0251344Y0142589D01*
X0251319Y0142432D01*
X0251298Y0142275D01*
X0251280Y0142118D01*
X0251266Y0141960D01*
X0251257Y0141802D01*
X0251251Y0141643D01*
X0251249Y0141485D01*
X0251249Y0132194D01*
X0225265Y0132194D02*
X0225265Y0139517D01*
X0225264Y0139517D02*
X0225262Y0139721D01*
X0225254Y0139924D01*
X0225242Y0140127D01*
X0225225Y0140330D01*
X0225203Y0140533D01*
X0225176Y0140734D01*
X0225144Y0140935D01*
X0225107Y0141136D01*
X0225066Y0141335D01*
X0225019Y0141533D01*
X0224968Y0141730D01*
X0224912Y0141926D01*
X0224852Y0142120D01*
X0224786Y0142313D01*
X0224717Y0142505D01*
X0224642Y0142694D01*
X0224563Y0142882D01*
X0224479Y0143067D01*
X0224391Y0143251D01*
X0224299Y0143432D01*
X0224202Y0143611D01*
X0224101Y0143788D01*
X0223996Y0143962D01*
X0223886Y0144134D01*
X0223773Y0144303D01*
X0223655Y0144469D01*
X0223533Y0144632D01*
X0223408Y0144793D01*
X0223278Y0144950D01*
X0223145Y0145104D01*
X0223008Y0145255D01*
X0222868Y0145402D01*
X0222724Y0145546D01*
X0222577Y0145686D01*
X0222426Y0145823D01*
X0222272Y0145956D01*
X0222115Y0146086D01*
X0221954Y0146211D01*
X0221791Y0146333D01*
X0221625Y0146451D01*
X0221456Y0146564D01*
X0221284Y0146674D01*
X0221110Y0146779D01*
X0220933Y0146880D01*
X0220754Y0146977D01*
X0220573Y0147069D01*
X0220389Y0147157D01*
X0220204Y0147241D01*
X0220016Y0147320D01*
X0219827Y0147395D01*
X0219635Y0147464D01*
X0219442Y0147530D01*
X0219248Y0147590D01*
X0219052Y0147646D01*
X0218855Y0147697D01*
X0218657Y0147744D01*
X0218458Y0147785D01*
X0218257Y0147822D01*
X0218056Y0147854D01*
X0217855Y0147881D01*
X0217652Y0147903D01*
X0217449Y0147920D01*
X0217246Y0147932D01*
X0217043Y0147940D01*
X0216839Y0147942D01*
X0186839Y0147942D02*
X0186681Y0147940D01*
X0186522Y0147934D01*
X0186364Y0147925D01*
X0186206Y0147911D01*
X0186049Y0147893D01*
X0185892Y0147872D01*
X0185735Y0147847D01*
X0185579Y0147818D01*
X0185424Y0147785D01*
X0185270Y0147748D01*
X0185117Y0147708D01*
X0184965Y0147664D01*
X0184814Y0147616D01*
X0184664Y0147565D01*
X0184515Y0147509D01*
X0184368Y0147450D01*
X0184222Y0147388D01*
X0184078Y0147322D01*
X0183936Y0147253D01*
X0183795Y0147180D01*
X0183656Y0147103D01*
X0183519Y0147023D01*
X0183385Y0146940D01*
X0183252Y0146854D01*
X0183121Y0146764D01*
X0182993Y0146671D01*
X0182866Y0146575D01*
X0182743Y0146476D01*
X0182621Y0146374D01*
X0182503Y0146269D01*
X0182387Y0146161D01*
X0182273Y0146051D01*
X0182163Y0145937D01*
X0182055Y0145821D01*
X0181950Y0145703D01*
X0181848Y0145581D01*
X0181749Y0145458D01*
X0181653Y0145331D01*
X0181560Y0145203D01*
X0181470Y0145072D01*
X0181384Y0144939D01*
X0181301Y0144805D01*
X0181221Y0144668D01*
X0181144Y0144529D01*
X0181071Y0144388D01*
X0181002Y0144246D01*
X0180936Y0144102D01*
X0180874Y0143956D01*
X0180815Y0143809D01*
X0180759Y0143660D01*
X0180708Y0143510D01*
X0180660Y0143359D01*
X0180616Y0143207D01*
X0180576Y0143054D01*
X0180539Y0142900D01*
X0180506Y0142745D01*
X0180477Y0142589D01*
X0180452Y0142432D01*
X0180431Y0142275D01*
X0180413Y0142118D01*
X0180399Y0141960D01*
X0180390Y0141802D01*
X0180384Y0141643D01*
X0180382Y0141485D01*
X0180383Y0141485D02*
X0180383Y0132194D01*
X0152430Y0132194D02*
X0152430Y0141485D01*
X0152428Y0141643D01*
X0152422Y0141802D01*
X0152413Y0141960D01*
X0152399Y0142118D01*
X0152381Y0142275D01*
X0152360Y0142432D01*
X0152335Y0142589D01*
X0152306Y0142745D01*
X0152273Y0142900D01*
X0152236Y0143054D01*
X0152196Y0143207D01*
X0152152Y0143359D01*
X0152104Y0143510D01*
X0152053Y0143660D01*
X0151997Y0143809D01*
X0151938Y0143956D01*
X0151876Y0144102D01*
X0151810Y0144246D01*
X0151741Y0144388D01*
X0151668Y0144529D01*
X0151591Y0144668D01*
X0151511Y0144805D01*
X0151428Y0144939D01*
X0151342Y0145072D01*
X0151252Y0145203D01*
X0151159Y0145331D01*
X0151063Y0145458D01*
X0150964Y0145581D01*
X0150862Y0145703D01*
X0150757Y0145821D01*
X0150649Y0145937D01*
X0150539Y0146051D01*
X0150425Y0146161D01*
X0150309Y0146269D01*
X0150191Y0146374D01*
X0150069Y0146476D01*
X0149946Y0146575D01*
X0149819Y0146671D01*
X0149691Y0146764D01*
X0149560Y0146854D01*
X0149427Y0146940D01*
X0149293Y0147023D01*
X0149156Y0147103D01*
X0149017Y0147180D01*
X0148876Y0147253D01*
X0148734Y0147322D01*
X0148590Y0147388D01*
X0148444Y0147450D01*
X0148297Y0147509D01*
X0148148Y0147565D01*
X0147998Y0147616D01*
X0147847Y0147664D01*
X0147695Y0147708D01*
X0147542Y0147748D01*
X0147388Y0147785D01*
X0147233Y0147818D01*
X0147077Y0147847D01*
X0146920Y0147872D01*
X0146763Y0147893D01*
X0146606Y0147911D01*
X0146448Y0147925D01*
X0146290Y0147934D01*
X0146131Y0147940D01*
X0145973Y0147942D01*
X0115973Y0147942D02*
X0115815Y0147940D01*
X0115656Y0147934D01*
X0115498Y0147925D01*
X0115340Y0147911D01*
X0115183Y0147893D01*
X0115026Y0147872D01*
X0114869Y0147847D01*
X0114713Y0147818D01*
X0114558Y0147785D01*
X0114404Y0147748D01*
X0114251Y0147708D01*
X0114099Y0147664D01*
X0113948Y0147616D01*
X0113798Y0147565D01*
X0113649Y0147509D01*
X0113502Y0147450D01*
X0113356Y0147388D01*
X0113212Y0147322D01*
X0113070Y0147253D01*
X0112929Y0147180D01*
X0112790Y0147103D01*
X0112653Y0147023D01*
X0112519Y0146940D01*
X0112386Y0146854D01*
X0112255Y0146764D01*
X0112127Y0146671D01*
X0112000Y0146575D01*
X0111877Y0146476D01*
X0111755Y0146374D01*
X0111637Y0146269D01*
X0111521Y0146161D01*
X0111407Y0146051D01*
X0111297Y0145937D01*
X0111189Y0145821D01*
X0111084Y0145703D01*
X0110982Y0145581D01*
X0110883Y0145458D01*
X0110787Y0145331D01*
X0110694Y0145203D01*
X0110604Y0145072D01*
X0110518Y0144939D01*
X0110435Y0144805D01*
X0110355Y0144668D01*
X0110278Y0144529D01*
X0110205Y0144388D01*
X0110136Y0144246D01*
X0110070Y0144102D01*
X0110008Y0143956D01*
X0109949Y0143809D01*
X0109893Y0143660D01*
X0109842Y0143510D01*
X0109794Y0143359D01*
X0109750Y0143207D01*
X0109710Y0143054D01*
X0109673Y0142900D01*
X0109640Y0142745D01*
X0109611Y0142589D01*
X0109586Y0142432D01*
X0109565Y0142275D01*
X0109547Y0142118D01*
X0109533Y0141960D01*
X0109524Y0141802D01*
X0109518Y0141643D01*
X0109516Y0141485D01*
X0109517Y0141485D02*
X0109517Y0132194D01*
X0081564Y0132194D02*
X0081564Y0141485D01*
X0081562Y0141643D01*
X0081556Y0141802D01*
X0081547Y0141960D01*
X0081533Y0142118D01*
X0081515Y0142275D01*
X0081494Y0142432D01*
X0081469Y0142589D01*
X0081440Y0142745D01*
X0081407Y0142900D01*
X0081370Y0143054D01*
X0081330Y0143207D01*
X0081286Y0143359D01*
X0081238Y0143510D01*
X0081187Y0143660D01*
X0081131Y0143809D01*
X0081072Y0143956D01*
X0081010Y0144102D01*
X0080944Y0144246D01*
X0080875Y0144388D01*
X0080802Y0144529D01*
X0080725Y0144668D01*
X0080645Y0144805D01*
X0080562Y0144939D01*
X0080476Y0145072D01*
X0080386Y0145203D01*
X0080293Y0145331D01*
X0080197Y0145458D01*
X0080098Y0145581D01*
X0079996Y0145703D01*
X0079891Y0145821D01*
X0079783Y0145937D01*
X0079673Y0146051D01*
X0079559Y0146161D01*
X0079443Y0146269D01*
X0079325Y0146374D01*
X0079203Y0146476D01*
X0079080Y0146575D01*
X0078953Y0146671D01*
X0078825Y0146764D01*
X0078694Y0146854D01*
X0078561Y0146940D01*
X0078427Y0147023D01*
X0078290Y0147103D01*
X0078151Y0147180D01*
X0078010Y0147253D01*
X0077868Y0147322D01*
X0077724Y0147388D01*
X0077578Y0147450D01*
X0077431Y0147509D01*
X0077282Y0147565D01*
X0077132Y0147616D01*
X0076981Y0147664D01*
X0076829Y0147708D01*
X0076676Y0147748D01*
X0076522Y0147785D01*
X0076367Y0147818D01*
X0076211Y0147847D01*
X0076054Y0147872D01*
X0075897Y0147893D01*
X0075740Y0147911D01*
X0075582Y0147925D01*
X0075424Y0147934D01*
X0075265Y0147940D01*
X0075107Y0147942D01*
X0045107Y0147942D02*
X0044949Y0147940D01*
X0044790Y0147934D01*
X0044632Y0147925D01*
X0044474Y0147911D01*
X0044317Y0147893D01*
X0044160Y0147872D01*
X0044003Y0147847D01*
X0043847Y0147818D01*
X0043692Y0147785D01*
X0043538Y0147748D01*
X0043385Y0147708D01*
X0043233Y0147664D01*
X0043082Y0147616D01*
X0042932Y0147565D01*
X0042783Y0147509D01*
X0042636Y0147450D01*
X0042490Y0147388D01*
X0042346Y0147322D01*
X0042204Y0147253D01*
X0042063Y0147180D01*
X0041924Y0147103D01*
X0041787Y0147023D01*
X0041653Y0146940D01*
X0041520Y0146854D01*
X0041389Y0146764D01*
X0041261Y0146671D01*
X0041134Y0146575D01*
X0041011Y0146476D01*
X0040889Y0146374D01*
X0040771Y0146269D01*
X0040655Y0146161D01*
X0040541Y0146051D01*
X0040431Y0145937D01*
X0040323Y0145821D01*
X0040218Y0145703D01*
X0040116Y0145581D01*
X0040017Y0145458D01*
X0039921Y0145331D01*
X0039828Y0145203D01*
X0039738Y0145072D01*
X0039652Y0144939D01*
X0039569Y0144805D01*
X0039489Y0144668D01*
X0039412Y0144529D01*
X0039339Y0144388D01*
X0039270Y0144246D01*
X0039204Y0144102D01*
X0039142Y0143956D01*
X0039083Y0143809D01*
X0039027Y0143660D01*
X0038976Y0143510D01*
X0038928Y0143359D01*
X0038884Y0143207D01*
X0038844Y0143054D01*
X0038807Y0142900D01*
X0038774Y0142745D01*
X0038745Y0142589D01*
X0038720Y0142432D01*
X0038699Y0142275D01*
X0038681Y0142118D01*
X0038667Y0141960D01*
X0038658Y0141802D01*
X0038652Y0141643D01*
X0038650Y0141485D01*
X0038650Y0132194D01*
M02*
