G75*
%MOIN*%
%OFA0B0*%
%FSLAX25Y25*%
%IPPOS*%
%LPD*%
%AMOC8*
5,1,8,0,0,1.08239X$1,22.5*
%
%ADD10C,0.00700*%
%ADD11C,0.07200*%
%ADD12C,0.08200*%
%ADD13R,0.02000X0.04700*%
%ADD14R,0.06706X0.05524*%
%ADD15R,0.05918X0.06706*%
%ADD16R,0.06706X0.05918*%
%ADD17R,0.06115X0.03950*%
%ADD18R,0.03950X0.06115*%
%ADD19C,0.10643*%
D10*
X0021239Y0047682D02*
X0022223Y0047682D01*
X0022223Y0048666D01*
X0021239Y0048666D01*
X0021239Y0047682D01*
X0024192Y0047682D02*
X0025176Y0047682D01*
X0025176Y0048666D01*
X0024192Y0048666D01*
X0024192Y0047682D01*
X0024192Y0050721D02*
X0025176Y0050721D01*
X0025176Y0051705D01*
X0024192Y0051705D01*
X0024192Y0050721D01*
X0022223Y0050721D02*
X0021239Y0050721D01*
X0021239Y0051705D01*
X0022223Y0051705D01*
X0022223Y0050721D01*
X0025176Y0053759D02*
X0019271Y0057696D01*
X0022223Y0059836D02*
X0022223Y0063773D01*
X0021239Y0065914D02*
X0019271Y0067882D01*
X0025176Y0067882D01*
X0025176Y0065914D02*
X0025176Y0069850D01*
X0022223Y0078068D02*
X0022223Y0082005D01*
X0019271Y0090222D02*
X0019271Y0092191D01*
X0019271Y0091206D02*
X0025176Y0091206D01*
X0025176Y0090222D02*
X0025176Y0092191D01*
X0025176Y0094274D02*
X0021239Y0094274D01*
X0021239Y0097226D01*
X0022223Y0098210D01*
X0025176Y0098210D01*
X0025176Y0102319D02*
X0021239Y0100351D01*
X0021239Y0104288D02*
X0025176Y0102319D01*
X0024192Y0106428D02*
X0023208Y0107412D01*
X0023208Y0110365D01*
X0022223Y0110365D02*
X0025176Y0110365D01*
X0025176Y0107412D01*
X0024192Y0106428D01*
X0021239Y0107412D02*
X0021239Y0109381D01*
X0022223Y0110365D01*
X0019271Y0112505D02*
X0019271Y0113489D01*
X0025176Y0113489D01*
X0025176Y0112505D02*
X0025176Y0114474D01*
X0025176Y0116557D02*
X0025176Y0118525D01*
X0025176Y0117541D02*
X0021239Y0117541D01*
X0021239Y0116557D01*
X0019271Y0117541D02*
X0018287Y0117541D01*
X0022223Y0120608D02*
X0021239Y0121592D01*
X0021239Y0124545D01*
X0019271Y0124545D02*
X0025176Y0124545D01*
X0025176Y0121592D01*
X0024192Y0120608D01*
X0022223Y0120608D01*
X0024192Y0126685D02*
X0024192Y0127670D01*
X0025176Y0127670D01*
X0025176Y0126685D01*
X0024192Y0126685D01*
X0025176Y0129724D02*
X0019271Y0129724D01*
X0025176Y0133661D01*
X0019271Y0133661D01*
X0022223Y0135801D02*
X0021239Y0136785D01*
X0021239Y0138754D01*
X0022223Y0139738D01*
X0023208Y0139738D01*
X0023208Y0135801D01*
X0024192Y0135801D02*
X0022223Y0135801D01*
X0024192Y0135801D02*
X0025176Y0136785D01*
X0025176Y0138754D01*
X0021239Y0141878D02*
X0021239Y0143847D01*
X0020255Y0142863D02*
X0024192Y0142863D01*
X0025176Y0143847D01*
X0024192Y0145930D02*
X0025176Y0146914D01*
X0024192Y0147898D01*
X0025176Y0148882D01*
X0024192Y0149867D01*
X0021239Y0149867D01*
X0022223Y0152007D02*
X0024192Y0152007D01*
X0025176Y0152991D01*
X0025176Y0154960D01*
X0024192Y0155944D01*
X0022223Y0155944D01*
X0021239Y0154960D01*
X0021239Y0152991D01*
X0022223Y0152007D01*
X0021239Y0145930D02*
X0024192Y0145930D01*
X0025176Y0158084D02*
X0021239Y0158084D01*
X0023208Y0158084D02*
X0021239Y0160053D01*
X0021239Y0161037D01*
X0019271Y0163149D02*
X0025176Y0163149D01*
X0023208Y0163149D02*
X0021239Y0166101D01*
X0023208Y0163149D02*
X0025176Y0166101D01*
D11*
X0321800Y0168200D02*
X0321800Y0155400D01*
X0331800Y0155400D02*
X0331800Y0168200D01*
X0341800Y0168200D02*
X0341800Y0155400D01*
X0351800Y0155400D02*
X0351800Y0168200D01*
X0361800Y0168200D02*
X0361800Y0155400D01*
X0371800Y0155400D02*
X0371800Y0168200D01*
X0381800Y0168200D02*
X0381800Y0155400D01*
X0391800Y0155400D02*
X0391800Y0168200D01*
X0401800Y0168200D02*
X0401800Y0155400D01*
X0411800Y0155400D02*
X0411800Y0168200D01*
X0411800Y0068200D02*
X0411800Y0055400D01*
X0401800Y0055400D02*
X0401800Y0068200D01*
X0391800Y0068200D02*
X0391800Y0055400D01*
X0381800Y0055400D02*
X0381800Y0068200D01*
X0371800Y0068200D02*
X0371800Y0055400D01*
X0361800Y0055400D02*
X0361800Y0068200D01*
X0351800Y0068200D02*
X0351800Y0055400D01*
X0341800Y0055400D02*
X0341800Y0068200D01*
X0331800Y0068200D02*
X0331800Y0055400D01*
X0321800Y0055400D02*
X0321800Y0068200D01*
X0441800Y0068200D02*
X0441800Y0055400D01*
X0451800Y0055400D02*
X0451800Y0068200D01*
X0461800Y0068200D02*
X0461800Y0055400D01*
X0471800Y0055400D02*
X0471800Y0068200D01*
X0481800Y0068200D02*
X0481800Y0055400D01*
X0491800Y0055400D02*
X0491800Y0068200D01*
D12*
X0423019Y0096800D02*
X0408219Y0096800D01*
X0408219Y0106800D02*
X0423019Y0106800D01*
X0423019Y0116800D02*
X0408219Y0116800D01*
X0408219Y0126800D02*
X0423019Y0126800D01*
D13*
X0280383Y0116122D03*
X0277824Y0116122D03*
X0275265Y0116122D03*
X0272706Y0116122D03*
X0270146Y0116122D03*
X0267587Y0116122D03*
X0265028Y0116122D03*
X0209517Y0116122D03*
X0206957Y0116122D03*
X0204398Y0116122D03*
X0201839Y0116122D03*
X0199280Y0116122D03*
X0196721Y0116122D03*
X0194162Y0116122D03*
X0194162Y0093147D03*
X0196721Y0093147D03*
X0199280Y0093147D03*
X0201839Y0093147D03*
X0204398Y0093147D03*
X0206957Y0093147D03*
X0209517Y0093147D03*
X0265028Y0093147D03*
X0267587Y0093147D03*
X0270146Y0093147D03*
X0272706Y0093147D03*
X0275265Y0093147D03*
X0277824Y0093147D03*
X0280383Y0093147D03*
X0138650Y0093147D03*
X0136091Y0093147D03*
X0133532Y0093147D03*
X0130973Y0093147D03*
X0128414Y0093147D03*
X0125855Y0093147D03*
X0123296Y0093147D03*
X0123296Y0116122D03*
X0125855Y0116122D03*
X0128414Y0116122D03*
X0130973Y0116122D03*
X0133532Y0116122D03*
X0136091Y0116122D03*
X0138650Y0116122D03*
X0067784Y0116122D03*
X0065225Y0116122D03*
X0062666Y0116122D03*
X0060107Y0116122D03*
X0057548Y0116122D03*
X0054989Y0116122D03*
X0052430Y0116122D03*
X0052430Y0093147D03*
X0054989Y0093147D03*
X0057548Y0093147D03*
X0060107Y0093147D03*
X0062666Y0093147D03*
X0065225Y0093147D03*
X0067784Y0093147D03*
D14*
X0077824Y0114280D03*
X0077824Y0122548D03*
X0148690Y0122548D03*
X0148690Y0114280D03*
X0221524Y0114280D03*
X0221524Y0122548D03*
X0290422Y0122548D03*
X0290422Y0114280D03*
D15*
X0258729Y0124320D03*
X0251249Y0124320D03*
X0251249Y0132194D03*
X0258729Y0132194D03*
X0268965Y0132194D03*
X0276446Y0132194D03*
X0286682Y0132194D03*
X0294162Y0132194D03*
X0225265Y0132194D03*
X0217784Y0132194D03*
X0205580Y0132194D03*
X0198099Y0132194D03*
X0187863Y0132194D03*
X0180383Y0132194D03*
X0180383Y0124320D03*
X0187863Y0124320D03*
X0152430Y0132194D03*
X0144950Y0132194D03*
X0134713Y0132194D03*
X0127233Y0132194D03*
X0116997Y0132194D03*
X0109517Y0132194D03*
X0109517Y0124320D03*
X0116997Y0124320D03*
X0081564Y0132194D03*
X0074083Y0132194D03*
X0063847Y0132194D03*
X0056367Y0132194D03*
X0046131Y0132194D03*
X0038650Y0132194D03*
X0038650Y0124320D03*
X0046131Y0124320D03*
X0042587Y0084950D03*
X0050068Y0084950D03*
X0113532Y0084162D03*
X0121013Y0084162D03*
X0184320Y0084950D03*
X0191800Y0084950D03*
X0256682Y0084713D03*
X0264162Y0084713D03*
D16*
X0254989Y0093020D03*
X0254989Y0100501D03*
X0254989Y0108769D03*
X0254989Y0116249D03*
X0184123Y0116249D03*
X0184123Y0108769D03*
X0184202Y0101209D03*
X0184202Y0093729D03*
X0186091Y0065068D03*
X0186091Y0057587D03*
X0217587Y0057587D03*
X0217587Y0065068D03*
X0258926Y0065068D03*
X0258926Y0057587D03*
X0288454Y0057587D03*
X0288454Y0065068D03*
X0146721Y0065068D03*
X0146721Y0057587D03*
X0115225Y0057587D03*
X0115225Y0065068D03*
X0075855Y0065068D03*
X0075855Y0057587D03*
X0046328Y0057587D03*
X0046328Y0065068D03*
X0042391Y0093020D03*
X0042391Y0100501D03*
X0042391Y0108769D03*
X0042391Y0116249D03*
X0113257Y0116249D03*
X0113257Y0108769D03*
X0113257Y0100501D03*
X0113257Y0093020D03*
D17*
X0110146Y0075737D03*
X0120146Y0075737D03*
X0181091Y0077076D03*
X0191091Y0077076D03*
X0253926Y0077076D03*
X0263926Y0077076D03*
X0051328Y0077076D03*
X0041328Y0077076D03*
D18*
X0054202Y0066328D03*
X0067981Y0066328D03*
X0067981Y0056328D03*
X0054202Y0056328D03*
X0125068Y0056328D03*
X0138847Y0056328D03*
X0138847Y0066328D03*
X0125068Y0066328D03*
X0195934Y0066328D03*
X0209713Y0066328D03*
X0209713Y0056328D03*
X0195934Y0056328D03*
X0266800Y0056328D03*
X0280580Y0056328D03*
X0280580Y0066328D03*
X0266800Y0066328D03*
D19*
X0257706Y0147942D03*
X0287706Y0147942D03*
X0216839Y0147942D03*
X0186839Y0147942D03*
X0145973Y0147942D03*
X0115973Y0147942D03*
X0075107Y0147942D03*
X0045107Y0147942D03*
M02*
