%TF.GenerationSoftware,KiCad,Pcbnew,(6.0.9)*%
%TF.CreationDate,2022-12-27T14:58:47-08:00*%
%TF.ProjectId,esp32-poe-thermocouple-hat-prod-onboard,65737033-322d-4706-9f65-2d746865726d,rev?*%
%TF.SameCoordinates,Original*%
%TF.FileFunction,Soldermask,Bot*%
%TF.FilePolarity,Negative*%
%FSLAX46Y46*%
G04 Gerber Fmt 4.6, Leading zero omitted, Abs format (unit mm)*
G04 Created by KiCad (PCBNEW (6.0.9)) date 2022-12-27 14:58:47*
%MOMM*%
%LPD*%
G01*
G04 APERTURE LIST*
G04 Aperture macros list*
%AMRoundRect*
0 Rectangle with rounded corners*
0 $1 Rounding radius*
0 $2 $3 $4 $5 $6 $7 $8 $9 X,Y pos of 4 corners*
0 Add a 4 corners polygon primitive as box body*
4,1,4,$2,$3,$4,$5,$6,$7,$8,$9,$2,$3,0*
0 Add four circle primitives for the rounded corners*
1,1,$1+$1,$2,$3*
1,1,$1+$1,$4,$5*
1,1,$1+$1,$6,$7*
1,1,$1+$1,$8,$9*
0 Add four rect primitives between the rounded corners*
20,1,$1+$1,$2,$3,$4,$5,0*
20,1,$1+$1,$4,$5,$6,$7,0*
20,1,$1+$1,$6,$7,$8,$9,0*
20,1,$1+$1,$8,$9,$2,$3,0*%
G04 Aperture macros list end*
%ADD10O,1.828800X5.080000*%
%ADD11O,5.842000X2.082800*%
%ADD12RoundRect,0.101600X-0.317500X-0.635000X0.317500X-0.635000X0.317500X0.635000X-0.317500X0.635000X0*%
%ADD13RoundRect,0.101600X0.317500X0.635000X-0.317500X0.635000X-0.317500X-0.635000X0.317500X-0.635000X0*%
%ADD14C,2.703200*%
G04 APERTURE END LIST*
%TO.C,JP3*%
G36*
X177990600Y-108366600D02*
G01*
X177482600Y-108366600D01*
X177482600Y-107985600D01*
X177990600Y-107985600D01*
X177990600Y-108366600D01*
G37*
%TO.C,JP4*%
G36*
X176974600Y-112176600D02*
G01*
X176466600Y-112176600D01*
X176466600Y-111795600D01*
X176974600Y-111795600D01*
X176974600Y-112176600D01*
G37*
%TO.C,JP3*%
G36*
X177990600Y-108366600D02*
G01*
X177482600Y-108366600D01*
X177482600Y-107985600D01*
X177990600Y-107985600D01*
X177990600Y-108366600D01*
G37*
%TO.C,JP4*%
G36*
X176974600Y-112176600D02*
G01*
X176466600Y-112176600D01*
X176466600Y-111795600D01*
X176974600Y-111795600D01*
X176974600Y-112176600D01*
G37*
%TD*%
D10*
%TO.C,BME280*%
X207391100Y-117383600D03*
X204851100Y-117383600D03*
X202311100Y-117383600D03*
X199771100Y-117383600D03*
X197231100Y-117383600D03*
X194691100Y-117383600D03*
%TD*%
%TO.C,JP1*%
X187071100Y-117383600D03*
X184531100Y-117383600D03*
X181991100Y-117383600D03*
X179451100Y-117383600D03*
X176911100Y-117383600D03*
X174371100Y-117383600D03*
X171831100Y-117383600D03*
X169291100Y-117383600D03*
X166751100Y-117383600D03*
X164211100Y-117383600D03*
%TD*%
%TO.C,JP2*%
X187071100Y-91983600D03*
X184531100Y-91983600D03*
X181991100Y-91983600D03*
X179451100Y-91983600D03*
X176911100Y-91983600D03*
X174371100Y-91983600D03*
X171831100Y-91983600D03*
X169291100Y-91983600D03*
X166751100Y-91983600D03*
X164211100Y-91983600D03*
%TD*%
D11*
%TO.C,U$1*%
X188041100Y-108493600D03*
X188041100Y-105953600D03*
X188041100Y-103413600D03*
X188041100Y-100873600D03*
%TD*%
D12*
%TO.C,JP3*%
X178244600Y-108176100D03*
X177228600Y-108176100D03*
X176212600Y-108176100D03*
%TD*%
D13*
%TO.C,JP4*%
X176212600Y-111986100D03*
X177228600Y-111986100D03*
X178244600Y-111986100D03*
%TD*%
D14*
%TO.C,J1*%
X155551100Y-95503600D03*
X147931100Y-95503600D03*
%TD*%
%TO.C,J2*%
X137551100Y-95503600D03*
X129931100Y-95503600D03*
%TD*%
%TO.C,J3*%
X119551100Y-95503600D03*
X111931100Y-95503600D03*
%TD*%
%TO.C,J4*%
X101551100Y-95503600D03*
X93931100Y-95503600D03*
%TD*%
M02*
