M48
; DRILL file {KiCad (6.0.9)} date Tue Dec 27 14:58:47 2022
; FORMAT={-:-/ absolute / inch / decimal}
; #@! TF.CreationDate,2022-12-27T14:58:47-08:00
; #@! TF.GenerationSoftware,Kicad,Pcbnew,(6.0.9)
; #@! TF.FileFunction,Plated,1,2,PTH
FMAT,2
INCH
; #@! TA.AperFunction,Plated,PTH,ViaDrill
T1C0.0236
; #@! TA.AperFunction,Plated,PTH,ComponentDrill
T2C0.0400
; #@! TA.AperFunction,Plated,PTH,ComponentDrill
T3C0.0440
; #@! TA.AperFunction,Plated,PTH,ComponentDrill
T4C0.0591
%
G90
G05
T1
X3.5528Y-3.9962
X3.5528Y-4.1537
X3.6315Y-4.6064
X3.789Y-4.8427
X3.8481Y-4.6852
X3.9268Y-4.7639
X3.9859Y-4.3112
X4.104Y-4.0946
X4.2811Y-4.0553
X4.2811Y-4.1537
X4.3205Y-4.5277
X4.4977Y-4.8427
X4.5567Y-4.6852
X4.6355Y-4.7639
X4.6748Y-4.3112
X4.8126Y-4.0946
X4.9898Y-4.0553
X4.9898Y-4.1537
X4.9898Y-4.449
X5.2063Y-4.8427
X5.2654Y-4.6852
X5.3441Y-4.7639
X5.3835Y-4.3112
X5.541Y-4.0946
X5.6985Y-4.0553
X5.7182Y-4.2324
X5.7378Y-4.3899
X5.915Y-4.8427
X5.9741Y-4.6852
X6.0528Y-4.7639
X6.1119Y-4.2324
X6.1709Y-4.2521
X6.23Y-4.0946
X6.8008Y-4.4096
X6.9275Y-4.3339
X6.99Y-4.3339
T2
X6.465Y-3.6214
X6.465Y-4.6214
X6.565Y-3.6214
X6.565Y-4.6214
X6.665Y-3.6214
X6.665Y-4.6214
X6.765Y-3.6214
X6.765Y-4.6214
X6.865Y-3.6214
X6.865Y-4.6214
X6.965Y-3.6214
X6.965Y-4.6214
X7.065Y-3.6214
X7.065Y-4.6214
X7.165Y-3.6214
X7.165Y-4.6214
X7.265Y-3.6214
X7.265Y-4.6214
X7.365Y-3.6214
X7.365Y-4.6214
X7.665Y-4.6214
X7.765Y-4.6214
X7.865Y-4.6214
X7.965Y-4.6214
X8.065Y-4.6214
X8.165Y-4.6214
T3
X7.4032Y-3.9714
X7.4032Y-4.0714
X7.4032Y-4.1714
X7.4032Y-4.2714
T4
X3.6981Y-3.76
X3.9981Y-3.76
X4.4067Y-3.76
X4.7067Y-3.76
X5.1154Y-3.76
X5.4154Y-3.76
X5.8241Y-3.76
X6.1241Y-3.76
T0
M30
