%TF.GenerationSoftware,KiCad,Pcbnew,(6.0.9)*%
%TF.CreationDate,2022-12-27T14:58:47-08:00*%
%TF.ProjectId,esp32-poe-thermocouple-hat-prod-onboard,65737033-322d-4706-9f65-2d746865726d,rev?*%
%TF.SameCoordinates,Original*%
%TF.FileFunction,Legend,Top*%
%TF.FilePolarity,Positive*%
%FSLAX46Y46*%
G04 Gerber Fmt 4.6, Leading zero omitted, Abs format (unit mm)*
G04 Created by KiCad (PCBNEW (6.0.9)) date 2022-12-27 14:58:47*
%MOMM*%
%LPD*%
G01*
G04 APERTURE LIST*
G04 Aperture macros list*
%AMRoundRect*
0 Rectangle with rounded corners*
0 $1 Rounding radius*
0 $2 $3 $4 $5 $6 $7 $8 $9 X,Y pos of 4 corners*
0 Add a 4 corners polygon primitive as box body*
4,1,4,$2,$3,$4,$5,$6,$7,$8,$9,$2,$3,0*
0 Add four circle primitives for the rounded corners*
1,1,$1+$1,$2,$3*
1,1,$1+$1,$4,$5*
1,1,$1+$1,$6,$7*
1,1,$1+$1,$8,$9*
0 Add four rect primitives between the rounded corners*
20,1,$1+$1,$2,$3,$4,$5,0*
20,1,$1+$1,$4,$5,$6,$7,0*
20,1,$1+$1,$6,$7,$8,$9,0*
20,1,$1+$1,$8,$9,$2,$3,0*%
G04 Aperture macros list end*
%ADD10C,0.142240*%
%ADD11C,0.134112*%
%ADD12C,0.081280*%
%ADD13C,0.065024*%
%ADD14C,0.114300*%
%ADD15C,0.097536*%
%ADD16C,0.101600*%
%ADD17C,0.146304*%
%ADD18C,0.119969*%
%ADD19C,0.152400*%
%ADD20C,0.203200*%
%ADD21C,0.304800*%
%ADD22C,0.167640*%
%ADD23O,1.828800X5.080000*%
%ADD24O,5.842000X2.082800*%
%ADD25RoundRect,0.101600X0.152400X0.495300X-0.152400X0.495300X-0.152400X-0.495300X0.152400X-0.495300X0*%
%ADD26RoundRect,0.101600X0.750000X-0.600000X0.750000X0.600000X-0.750000X0.600000X-0.750000X-0.600000X0*%
%ADD27RoundRect,0.101600X0.650000X0.750000X-0.650000X0.750000X-0.650000X-0.750000X0.650000X-0.750000X0*%
%ADD28RoundRect,0.101600X-0.750000X0.650000X-0.750000X-0.650000X0.750000X-0.650000X0.750000X0.650000X0*%
%ADD29RoundRect,0.101600X0.750000X-0.650000X0.750000X0.650000X-0.750000X0.650000X-0.750000X-0.650000X0*%
%ADD30RoundRect,0.101600X-0.650000X-0.750000X0.650000X-0.750000X0.650000X0.750000X-0.650000X0.750000X0*%
%ADD31RoundRect,0.101600X-0.675000X-0.400000X0.675000X-0.400000X0.675000X0.400000X-0.675000X0.400000X0*%
%ADD32RoundRect,0.101600X0.400000X-0.675000X0.400000X0.675000X-0.400000X0.675000X-0.400000X-0.675000X0*%
%ADD33C,2.703200*%
G04 APERTURE END LIST*
D10*
X190485706Y-118669009D02*
X190485706Y-117734289D01*
X192121466Y-118201649D02*
X190485706Y-118201649D01*
X192121466Y-116955356D02*
X192043573Y-117111142D01*
X191965680Y-117189036D01*
X191809893Y-117266929D01*
X191342533Y-117266929D01*
X191186746Y-117189036D01*
X191108853Y-117111142D01*
X191030960Y-116955356D01*
X191030960Y-116721676D01*
X191108853Y-116565889D01*
X191186746Y-116487996D01*
X191342533Y-116410102D01*
X191809893Y-116410102D01*
X191965680Y-116487996D01*
X192043573Y-116565889D01*
X192121466Y-116721676D01*
X192121466Y-116955356D01*
X191030960Y-115709062D02*
X192666720Y-115709062D01*
X191108853Y-115709062D02*
X191030960Y-115553276D01*
X191030960Y-115241702D01*
X191108853Y-115085916D01*
X191186746Y-115008022D01*
X191342533Y-114930129D01*
X191809893Y-114930129D01*
X191965680Y-115008022D01*
X192043573Y-115085916D01*
X192121466Y-115241702D01*
X192121466Y-115553276D01*
X192043573Y-115709062D01*
D11*
X162595369Y-113654792D02*
X162595369Y-114389215D01*
X163329792Y-114462658D01*
X163256350Y-114389215D01*
X163182908Y-114242331D01*
X163182908Y-113875119D01*
X163256350Y-113728235D01*
X163329792Y-113654792D01*
X163476677Y-113581350D01*
X163843888Y-113581350D01*
X163990773Y-113654792D01*
X164064215Y-113728235D01*
X164137657Y-113875119D01*
X164137657Y-114242331D01*
X164064215Y-114389215D01*
X163990773Y-114462658D01*
X162595369Y-113140696D02*
X164137657Y-112626600D01*
X162595369Y-112112504D01*
X165135369Y-114536100D02*
X165135369Y-113581350D01*
X165722908Y-114095446D01*
X165722908Y-113875119D01*
X165796350Y-113728235D01*
X165869792Y-113654792D01*
X166016677Y-113581350D01*
X166383888Y-113581350D01*
X166530773Y-113654792D01*
X166604215Y-113728235D01*
X166677657Y-113875119D01*
X166677657Y-114315773D01*
X166604215Y-114462658D01*
X166530773Y-114536100D01*
X166530773Y-112920370D02*
X166604215Y-112846927D01*
X166677657Y-112920370D01*
X166604215Y-112993812D01*
X166530773Y-112920370D01*
X166677657Y-112920370D01*
X165135369Y-112332831D02*
X165135369Y-111378082D01*
X165722908Y-111892178D01*
X165722908Y-111671851D01*
X165796350Y-111524966D01*
X165869792Y-111451524D01*
X166016677Y-111378082D01*
X166383888Y-111378082D01*
X166530773Y-111451524D01*
X166604215Y-111524966D01*
X166677657Y-111671851D01*
X166677657Y-112112504D01*
X166604215Y-112259389D01*
X166530773Y-112332831D01*
X165135369Y-110937428D02*
X166677657Y-110423332D01*
X165135369Y-109909236D01*
X167748812Y-113581350D02*
X167675369Y-113728235D01*
X167675369Y-113948562D01*
X167748812Y-114168888D01*
X167895696Y-114315773D01*
X168042581Y-114389215D01*
X168336350Y-114462658D01*
X168556677Y-114462658D01*
X168850446Y-114389215D01*
X168997330Y-114315773D01*
X169144215Y-114168888D01*
X169217657Y-113948562D01*
X169217657Y-113801677D01*
X169144215Y-113581350D01*
X169070773Y-113507908D01*
X168556677Y-113507908D01*
X168556677Y-113801677D01*
X169217657Y-112846927D02*
X167675369Y-112846927D01*
X169217657Y-111965620D01*
X167675369Y-111965620D01*
X169217657Y-111231197D02*
X167675369Y-111231197D01*
X167675369Y-110863986D01*
X167748812Y-110643659D01*
X167895696Y-110496774D01*
X168042581Y-110423332D01*
X168336350Y-110349890D01*
X168556677Y-110349890D01*
X168850446Y-110423332D01*
X168997330Y-110496774D01*
X169144215Y-110643659D01*
X169217657Y-110863986D01*
X169217657Y-111231197D01*
X170949792Y-114389215D02*
X170949792Y-113875119D01*
X171757657Y-113654792D02*
X171757657Y-114389215D01*
X170215369Y-114389215D01*
X170215369Y-113654792D01*
X171684215Y-113067254D02*
X171757657Y-112846927D01*
X171757657Y-112479716D01*
X171684215Y-112332831D01*
X171610773Y-112259389D01*
X171463888Y-112185947D01*
X171317004Y-112185947D01*
X171170119Y-112259389D01*
X171096677Y-112332831D01*
X171023234Y-112479716D01*
X170949792Y-112773485D01*
X170876350Y-112920370D01*
X170802908Y-112993812D01*
X170656023Y-113067254D01*
X170509138Y-113067254D01*
X170362254Y-112993812D01*
X170288812Y-112920370D01*
X170215369Y-112773485D01*
X170215369Y-112406274D01*
X170288812Y-112185947D01*
X171757657Y-111524966D02*
X170215369Y-111524966D01*
X170215369Y-110937428D01*
X170288812Y-110790543D01*
X170362254Y-110717101D01*
X170509138Y-110643659D01*
X170729465Y-110643659D01*
X170876350Y-110717101D01*
X170949792Y-110790543D01*
X171023234Y-110937428D01*
X171023234Y-111524966D01*
X171904542Y-110349890D02*
X171904542Y-109174813D01*
X170949792Y-108807602D02*
X170949792Y-108293506D01*
X171757657Y-108073179D02*
X171757657Y-108807602D01*
X170215369Y-108807602D01*
X170215369Y-108073179D01*
X171757657Y-107412198D02*
X170215369Y-107412198D01*
X171757657Y-106530891D01*
X170215369Y-106530891D01*
X172828812Y-113581350D02*
X172755369Y-113728235D01*
X172755369Y-113948562D01*
X172828812Y-114168888D01*
X172975696Y-114315773D01*
X173122581Y-114389215D01*
X173416350Y-114462658D01*
X173636677Y-114462658D01*
X173930446Y-114389215D01*
X174077330Y-114315773D01*
X174224215Y-114168888D01*
X174297657Y-113948562D01*
X174297657Y-113801677D01*
X174224215Y-113581350D01*
X174150773Y-113507908D01*
X173636677Y-113507908D01*
X173636677Y-113801677D01*
X174297657Y-112846927D02*
X172755369Y-112846927D01*
X172755369Y-112259389D01*
X172828812Y-112112504D01*
X172902254Y-112039062D01*
X173049138Y-111965620D01*
X173269465Y-111965620D01*
X173416350Y-112039062D01*
X173489792Y-112112504D01*
X173563234Y-112259389D01*
X173563234Y-112846927D01*
X174297657Y-111304639D02*
X172755369Y-111304639D01*
X172755369Y-110276447D02*
X172755369Y-109982678D01*
X172828812Y-109835794D01*
X172975696Y-109688909D01*
X173269465Y-109615467D01*
X173783561Y-109615467D01*
X174077330Y-109688909D01*
X174224215Y-109835794D01*
X174297657Y-109982678D01*
X174297657Y-110276447D01*
X174224215Y-110423332D01*
X174077330Y-110570216D01*
X173783561Y-110643659D01*
X173269465Y-110643659D01*
X172975696Y-110570216D01*
X172828812Y-110423332D01*
X172755369Y-110276447D01*
X172755369Y-108660717D02*
X172755369Y-108513832D01*
X172828812Y-108366948D01*
X172902254Y-108293506D01*
X173049138Y-108220063D01*
X173342908Y-108146621D01*
X173710119Y-108146621D01*
X174003888Y-108220063D01*
X174150773Y-108293506D01*
X174224215Y-108366948D01*
X174297657Y-108513832D01*
X174297657Y-108660717D01*
X174224215Y-108807602D01*
X174150773Y-108881044D01*
X174003888Y-108954486D01*
X173710119Y-109027928D01*
X173342908Y-109027928D01*
X173049138Y-108954486D01*
X172902254Y-108881044D01*
X172828812Y-108807602D01*
X172755369Y-108660717D01*
X172755369Y-107191871D02*
X172755369Y-107044987D01*
X172828812Y-106898102D01*
X172902254Y-106824660D01*
X173049138Y-106751218D01*
X173342908Y-106677775D01*
X173710119Y-106677775D01*
X174003888Y-106751218D01*
X174150773Y-106824660D01*
X174224215Y-106898102D01*
X174297657Y-107044987D01*
X174297657Y-107191871D01*
X174224215Y-107338756D01*
X174150773Y-107412198D01*
X174003888Y-107485640D01*
X173710119Y-107559083D01*
X173342908Y-107559083D01*
X173049138Y-107485640D01*
X172902254Y-107412198D01*
X172828812Y-107338756D01*
X172755369Y-107191871D01*
X175368812Y-113581350D02*
X175295369Y-113728235D01*
X175295369Y-113948562D01*
X175368812Y-114168888D01*
X175515696Y-114315773D01*
X175662581Y-114389215D01*
X175956350Y-114462658D01*
X176176677Y-114462658D01*
X176470446Y-114389215D01*
X176617330Y-114315773D01*
X176764215Y-114168888D01*
X176837657Y-113948562D01*
X176837657Y-113801677D01*
X176764215Y-113581350D01*
X176690773Y-113507908D01*
X176176677Y-113507908D01*
X176176677Y-113801677D01*
X176837657Y-112846927D02*
X175295369Y-112846927D01*
X175295369Y-112259389D01*
X175368812Y-112112504D01*
X175442254Y-112039062D01*
X175589138Y-111965620D01*
X175809465Y-111965620D01*
X175956350Y-112039062D01*
X176029792Y-112112504D01*
X176103234Y-112259389D01*
X176103234Y-112846927D01*
X176837657Y-111304639D02*
X175295369Y-111304639D01*
X175295369Y-110276447D02*
X175295369Y-109982678D01*
X175368812Y-109835794D01*
X175515696Y-109688909D01*
X175809465Y-109615467D01*
X176323561Y-109615467D01*
X176617330Y-109688909D01*
X176764215Y-109835794D01*
X176837657Y-109982678D01*
X176837657Y-110276447D01*
X176764215Y-110423332D01*
X176617330Y-110570216D01*
X176323561Y-110643659D01*
X175809465Y-110643659D01*
X175515696Y-110570216D01*
X175368812Y-110423332D01*
X175295369Y-110276447D01*
X175295369Y-108660717D02*
X175295369Y-108513832D01*
X175368812Y-108366948D01*
X175442254Y-108293506D01*
X175589138Y-108220063D01*
X175882908Y-108146621D01*
X176250119Y-108146621D01*
X176543888Y-108220063D01*
X176690773Y-108293506D01*
X176764215Y-108366948D01*
X176837657Y-108513832D01*
X176837657Y-108660717D01*
X176764215Y-108807602D01*
X176690773Y-108881044D01*
X176543888Y-108954486D01*
X176250119Y-109027928D01*
X175882908Y-109027928D01*
X175589138Y-108954486D01*
X175442254Y-108881044D01*
X175368812Y-108807602D01*
X175295369Y-108660717D01*
X176837657Y-106677775D02*
X176837657Y-107559083D01*
X176837657Y-107118429D02*
X175295369Y-107118429D01*
X175515696Y-107265314D01*
X175662581Y-107412198D01*
X175736023Y-107559083D01*
X177908812Y-113581350D02*
X177835369Y-113728235D01*
X177835369Y-113948562D01*
X177908812Y-114168888D01*
X178055696Y-114315773D01*
X178202581Y-114389215D01*
X178496350Y-114462658D01*
X178716677Y-114462658D01*
X179010446Y-114389215D01*
X179157330Y-114315773D01*
X179304215Y-114168888D01*
X179377657Y-113948562D01*
X179377657Y-113801677D01*
X179304215Y-113581350D01*
X179230773Y-113507908D01*
X178716677Y-113507908D01*
X178716677Y-113801677D01*
X179377657Y-112846927D02*
X177835369Y-112846927D01*
X177835369Y-112259389D01*
X177908812Y-112112504D01*
X177982254Y-112039062D01*
X178129138Y-111965620D01*
X178349465Y-111965620D01*
X178496350Y-112039062D01*
X178569792Y-112112504D01*
X178643234Y-112259389D01*
X178643234Y-112846927D01*
X179377657Y-111304639D02*
X177835369Y-111304639D01*
X177835369Y-110276447D02*
X177835369Y-109982678D01*
X177908812Y-109835794D01*
X178055696Y-109688909D01*
X178349465Y-109615467D01*
X178863561Y-109615467D01*
X179157330Y-109688909D01*
X179304215Y-109835794D01*
X179377657Y-109982678D01*
X179377657Y-110276447D01*
X179304215Y-110423332D01*
X179157330Y-110570216D01*
X178863561Y-110643659D01*
X178349465Y-110643659D01*
X178055696Y-110570216D01*
X177908812Y-110423332D01*
X177835369Y-110276447D01*
X177835369Y-108660717D02*
X177835369Y-108513832D01*
X177908812Y-108366948D01*
X177982254Y-108293506D01*
X178129138Y-108220063D01*
X178422908Y-108146621D01*
X178790119Y-108146621D01*
X179083888Y-108220063D01*
X179230773Y-108293506D01*
X179304215Y-108366948D01*
X179377657Y-108513832D01*
X179377657Y-108660717D01*
X179304215Y-108807602D01*
X179230773Y-108881044D01*
X179083888Y-108954486D01*
X178790119Y-109027928D01*
X178422908Y-109027928D01*
X178129138Y-108954486D01*
X177982254Y-108881044D01*
X177908812Y-108807602D01*
X177835369Y-108660717D01*
X177982254Y-107559083D02*
X177908812Y-107485640D01*
X177835369Y-107338756D01*
X177835369Y-106971544D01*
X177908812Y-106824660D01*
X177982254Y-106751218D01*
X178129138Y-106677775D01*
X178276023Y-106677775D01*
X178496350Y-106751218D01*
X179377657Y-107632525D01*
X179377657Y-106677775D01*
X180448812Y-113581350D02*
X180375369Y-113728235D01*
X180375369Y-113948562D01*
X180448812Y-114168888D01*
X180595696Y-114315773D01*
X180742581Y-114389215D01*
X181036350Y-114462658D01*
X181256677Y-114462658D01*
X181550446Y-114389215D01*
X181697330Y-114315773D01*
X181844215Y-114168888D01*
X181917657Y-113948562D01*
X181917657Y-113801677D01*
X181844215Y-113581350D01*
X181770773Y-113507908D01*
X181256677Y-113507908D01*
X181256677Y-113801677D01*
X181917657Y-112846927D02*
X180375369Y-112846927D01*
X180375369Y-112259389D01*
X180448812Y-112112504D01*
X180522254Y-112039062D01*
X180669138Y-111965620D01*
X180889465Y-111965620D01*
X181036350Y-112039062D01*
X181109792Y-112112504D01*
X181183234Y-112259389D01*
X181183234Y-112846927D01*
X181917657Y-111304639D02*
X180375369Y-111304639D01*
X180375369Y-110276447D02*
X180375369Y-109982678D01*
X180448812Y-109835794D01*
X180595696Y-109688909D01*
X180889465Y-109615467D01*
X181403561Y-109615467D01*
X181697330Y-109688909D01*
X181844215Y-109835794D01*
X181917657Y-109982678D01*
X181917657Y-110276447D01*
X181844215Y-110423332D01*
X181697330Y-110570216D01*
X181403561Y-110643659D01*
X180889465Y-110643659D01*
X180595696Y-110570216D01*
X180448812Y-110423332D01*
X180375369Y-110276447D01*
X180375369Y-108660717D02*
X180375369Y-108513832D01*
X180448812Y-108366948D01*
X180522254Y-108293506D01*
X180669138Y-108220063D01*
X180962908Y-108146621D01*
X181330119Y-108146621D01*
X181623888Y-108220063D01*
X181770773Y-108293506D01*
X181844215Y-108366948D01*
X181917657Y-108513832D01*
X181917657Y-108660717D01*
X181844215Y-108807602D01*
X181770773Y-108881044D01*
X181623888Y-108954486D01*
X181330119Y-109027928D01*
X180962908Y-109027928D01*
X180669138Y-108954486D01*
X180522254Y-108881044D01*
X180448812Y-108807602D01*
X180375369Y-108660717D01*
X180375369Y-107632525D02*
X180375369Y-106677775D01*
X180962908Y-107191871D01*
X180962908Y-106971544D01*
X181036350Y-106824660D01*
X181109792Y-106751218D01*
X181256677Y-106677775D01*
X181623888Y-106677775D01*
X181770773Y-106751218D01*
X181844215Y-106824660D01*
X181917657Y-106971544D01*
X181917657Y-107412198D01*
X181844215Y-107559083D01*
X181770773Y-107632525D01*
D12*
X183596380Y-114078600D02*
X183551869Y-114167621D01*
X183551869Y-114301152D01*
X183596380Y-114434684D01*
X183685400Y-114523705D01*
X183774421Y-114568215D01*
X183952463Y-114612726D01*
X184085995Y-114612726D01*
X184264037Y-114568215D01*
X184353058Y-114523705D01*
X184442079Y-114434684D01*
X184486589Y-114301152D01*
X184486589Y-114212131D01*
X184442079Y-114078600D01*
X184397568Y-114034089D01*
X184085995Y-114034089D01*
X184085995Y-114212131D01*
X184486589Y-113633495D02*
X183551869Y-113633495D01*
X183551869Y-113277411D01*
X183596380Y-113188390D01*
X183640890Y-113143880D01*
X183729911Y-113099369D01*
X183863442Y-113099369D01*
X183952463Y-113143880D01*
X183996974Y-113188390D01*
X184041484Y-113277411D01*
X184041484Y-113633495D01*
X184486589Y-112698775D02*
X183551869Y-112698775D01*
X183551869Y-112075628D02*
X183551869Y-111897587D01*
X183596380Y-111808566D01*
X183685400Y-111719545D01*
X183863442Y-111675034D01*
X184175016Y-111675034D01*
X184353058Y-111719545D01*
X184442079Y-111808566D01*
X184486589Y-111897587D01*
X184486589Y-112075628D01*
X184442079Y-112164649D01*
X184353058Y-112253670D01*
X184175016Y-112298181D01*
X183863442Y-112298181D01*
X183685400Y-112253670D01*
X183596380Y-112164649D01*
X183551869Y-112075628D01*
X183551869Y-111096398D02*
X183551869Y-111007377D01*
X183596380Y-110918356D01*
X183640890Y-110873846D01*
X183729911Y-110829335D01*
X183907953Y-110784825D01*
X184130505Y-110784825D01*
X184308547Y-110829335D01*
X184397568Y-110873846D01*
X184442079Y-110918356D01*
X184486589Y-111007377D01*
X184486589Y-111096398D01*
X184442079Y-111185419D01*
X184397568Y-111229929D01*
X184308547Y-111274440D01*
X184130505Y-111318950D01*
X183907953Y-111318950D01*
X183729911Y-111274440D01*
X183640890Y-111229929D01*
X183596380Y-111185419D01*
X183551869Y-111096398D01*
X183863442Y-109983636D02*
X184486589Y-109983636D01*
X183507359Y-110206188D02*
X184175016Y-110428741D01*
X184175016Y-109850105D01*
D13*
X186323324Y-114231600D02*
X186287715Y-114302817D01*
X186287715Y-114409642D01*
X186323324Y-114516467D01*
X186394540Y-114587684D01*
X186465757Y-114623292D01*
X186608191Y-114658900D01*
X186715016Y-114658900D01*
X186857449Y-114623292D01*
X186928666Y-114587684D01*
X186999883Y-114516467D01*
X187035491Y-114409642D01*
X187035491Y-114338425D01*
X186999883Y-114231600D01*
X186964274Y-114195991D01*
X186715016Y-114195991D01*
X186715016Y-114338425D01*
X187035491Y-113875516D02*
X186287715Y-113875516D01*
X186287715Y-113590649D01*
X186323324Y-113519432D01*
X186358932Y-113483824D01*
X186430149Y-113448215D01*
X186536974Y-113448215D01*
X186608191Y-113483824D01*
X186643799Y-113519432D01*
X186679407Y-113590649D01*
X186679407Y-113875516D01*
X187035491Y-113127740D02*
X186287715Y-113127740D01*
X186287715Y-112629223D02*
X186287715Y-112486789D01*
X186323324Y-112415572D01*
X186394540Y-112344356D01*
X186536974Y-112308747D01*
X186786232Y-112308747D01*
X186928666Y-112344356D01*
X186999883Y-112415572D01*
X187035491Y-112486789D01*
X187035491Y-112629223D01*
X186999883Y-112700439D01*
X186928666Y-112771656D01*
X186786232Y-112807265D01*
X186536974Y-112807265D01*
X186394540Y-112771656D01*
X186323324Y-112700439D01*
X186287715Y-112629223D01*
X186287715Y-111845838D02*
X186287715Y-111774622D01*
X186323324Y-111703405D01*
X186358932Y-111667796D01*
X186430149Y-111632188D01*
X186572582Y-111596580D01*
X186750624Y-111596580D01*
X186893058Y-111632188D01*
X186964274Y-111667796D01*
X186999883Y-111703405D01*
X187035491Y-111774622D01*
X187035491Y-111845838D01*
X186999883Y-111917055D01*
X186964274Y-111952663D01*
X186893058Y-111988272D01*
X186750624Y-112023880D01*
X186572582Y-112023880D01*
X186430149Y-111988272D01*
X186358932Y-111952663D01*
X186323324Y-111917055D01*
X186287715Y-111845838D01*
X186287715Y-110920020D02*
X186287715Y-111276104D01*
X186643799Y-111311713D01*
X186608191Y-111276104D01*
X186572582Y-111204887D01*
X186572582Y-111026846D01*
X186608191Y-110955629D01*
X186643799Y-110920020D01*
X186715016Y-110884412D01*
X186893058Y-110884412D01*
X186964274Y-110920020D01*
X186999883Y-110955629D01*
X187035491Y-111026846D01*
X187035491Y-111204887D01*
X186999883Y-111276104D01*
X186964274Y-111311713D01*
D11*
X162668812Y-101808116D02*
X162595369Y-101955001D01*
X162595369Y-102175328D01*
X162668812Y-102395655D01*
X162815696Y-102542539D01*
X162962581Y-102615981D01*
X163256350Y-102689424D01*
X163476677Y-102689424D01*
X163770446Y-102615981D01*
X163917330Y-102542539D01*
X164064215Y-102395655D01*
X164137657Y-102175328D01*
X164137657Y-102028443D01*
X164064215Y-101808116D01*
X163990773Y-101734674D01*
X163476677Y-101734674D01*
X163476677Y-102028443D01*
X164137657Y-101073693D02*
X162595369Y-101073693D01*
X162595369Y-100486155D01*
X162668812Y-100339271D01*
X162742254Y-100265828D01*
X162889138Y-100192386D01*
X163109465Y-100192386D01*
X163256350Y-100265828D01*
X163329792Y-100339271D01*
X163403234Y-100486155D01*
X163403234Y-101073693D01*
X164137657Y-99531405D02*
X162595369Y-99531405D01*
X162595369Y-98503213D02*
X162595369Y-98209444D01*
X162668812Y-98062560D01*
X162815696Y-97915675D01*
X163109465Y-97842233D01*
X163623561Y-97842233D01*
X163917330Y-97915675D01*
X164064215Y-98062560D01*
X164137657Y-98209444D01*
X164137657Y-98503213D01*
X164064215Y-98650098D01*
X163917330Y-98796983D01*
X163623561Y-98870425D01*
X163109465Y-98870425D01*
X162815696Y-98796983D01*
X162668812Y-98650098D01*
X162595369Y-98503213D01*
X162595369Y-97328137D02*
X162595369Y-96373387D01*
X163182908Y-96887483D01*
X163182908Y-96667156D01*
X163256350Y-96520272D01*
X163329792Y-96446829D01*
X163476677Y-96373387D01*
X163843888Y-96373387D01*
X163990773Y-96446829D01*
X164064215Y-96520272D01*
X164137657Y-96667156D01*
X164137657Y-97107810D01*
X164064215Y-97254695D01*
X163990773Y-97328137D01*
X164137657Y-95638964D02*
X164137657Y-95345195D01*
X164064215Y-95198311D01*
X163990773Y-95124868D01*
X163770446Y-94977984D01*
X163476677Y-94904541D01*
X162889138Y-94904541D01*
X162742254Y-94977984D01*
X162668812Y-95051426D01*
X162595369Y-95198311D01*
X162595369Y-95492080D01*
X162668812Y-95638964D01*
X162742254Y-95712407D01*
X162889138Y-95785849D01*
X163256350Y-95785849D01*
X163403234Y-95712407D01*
X163476677Y-95638964D01*
X163550119Y-95492080D01*
X163550119Y-95198311D01*
X163476677Y-95051426D01*
X163403234Y-94977984D01*
X163256350Y-94904541D01*
X165208812Y-101808116D02*
X165135369Y-101955001D01*
X165135369Y-102175328D01*
X165208812Y-102395655D01*
X165355696Y-102542539D01*
X165502581Y-102615981D01*
X165796350Y-102689424D01*
X166016677Y-102689424D01*
X166310446Y-102615981D01*
X166457330Y-102542539D01*
X166604215Y-102395655D01*
X166677657Y-102175328D01*
X166677657Y-102028443D01*
X166604215Y-101808116D01*
X166530773Y-101734674D01*
X166016677Y-101734674D01*
X166016677Y-102028443D01*
X166677657Y-101073693D02*
X165135369Y-101073693D01*
X165135369Y-100486155D01*
X165208812Y-100339271D01*
X165282254Y-100265828D01*
X165429138Y-100192386D01*
X165649465Y-100192386D01*
X165796350Y-100265828D01*
X165869792Y-100339271D01*
X165943234Y-100486155D01*
X165943234Y-101073693D01*
X166677657Y-99531405D02*
X165135369Y-99531405D01*
X165135369Y-98503213D02*
X165135369Y-98209444D01*
X165208812Y-98062560D01*
X165355696Y-97915675D01*
X165649465Y-97842233D01*
X166163561Y-97842233D01*
X166457330Y-97915675D01*
X166604215Y-98062560D01*
X166677657Y-98209444D01*
X166677657Y-98503213D01*
X166604215Y-98650098D01*
X166457330Y-98796983D01*
X166163561Y-98870425D01*
X165649465Y-98870425D01*
X165355696Y-98796983D01*
X165208812Y-98650098D01*
X165135369Y-98503213D01*
X165135369Y-97328137D02*
X165135369Y-96373387D01*
X165722908Y-96887483D01*
X165722908Y-96667156D01*
X165796350Y-96520272D01*
X165869792Y-96446829D01*
X166016677Y-96373387D01*
X166383888Y-96373387D01*
X166530773Y-96446829D01*
X166604215Y-96520272D01*
X166677657Y-96667156D01*
X166677657Y-97107810D01*
X166604215Y-97254695D01*
X166530773Y-97328137D01*
X165135369Y-95051426D02*
X165135369Y-95345195D01*
X165208812Y-95492080D01*
X165282254Y-95565522D01*
X165502581Y-95712407D01*
X165796350Y-95785849D01*
X166383888Y-95785849D01*
X166530773Y-95712407D01*
X166604215Y-95638964D01*
X166677657Y-95492080D01*
X166677657Y-95198311D01*
X166604215Y-95051426D01*
X166530773Y-94977984D01*
X166383888Y-94904541D01*
X166016677Y-94904541D01*
X165869792Y-94977984D01*
X165796350Y-95051426D01*
X165722908Y-95198311D01*
X165722908Y-95492080D01*
X165796350Y-95638964D01*
X165869792Y-95712407D01*
X166016677Y-95785849D01*
X167748812Y-101808116D02*
X167675369Y-101955001D01*
X167675369Y-102175328D01*
X167748812Y-102395655D01*
X167895696Y-102542539D01*
X168042581Y-102615981D01*
X168336350Y-102689424D01*
X168556677Y-102689424D01*
X168850446Y-102615981D01*
X168997330Y-102542539D01*
X169144215Y-102395655D01*
X169217657Y-102175328D01*
X169217657Y-102028443D01*
X169144215Y-101808116D01*
X169070773Y-101734674D01*
X168556677Y-101734674D01*
X168556677Y-102028443D01*
X169217657Y-101073693D02*
X167675369Y-101073693D01*
X167675369Y-100486155D01*
X167748812Y-100339271D01*
X167822254Y-100265828D01*
X167969138Y-100192386D01*
X168189465Y-100192386D01*
X168336350Y-100265828D01*
X168409792Y-100339271D01*
X168483234Y-100486155D01*
X168483234Y-101073693D01*
X169217657Y-99531405D02*
X167675369Y-99531405D01*
X167675369Y-98503213D02*
X167675369Y-98209444D01*
X167748812Y-98062560D01*
X167895696Y-97915675D01*
X168189465Y-97842233D01*
X168703561Y-97842233D01*
X168997330Y-97915675D01*
X169144215Y-98062560D01*
X169217657Y-98209444D01*
X169217657Y-98503213D01*
X169144215Y-98650098D01*
X168997330Y-98796983D01*
X168703561Y-98870425D01*
X168189465Y-98870425D01*
X167895696Y-98796983D01*
X167748812Y-98650098D01*
X167675369Y-98503213D01*
X167675369Y-97328137D02*
X167675369Y-96373387D01*
X168262908Y-96887483D01*
X168262908Y-96667156D01*
X168336350Y-96520272D01*
X168409792Y-96446829D01*
X168556677Y-96373387D01*
X168923888Y-96373387D01*
X169070773Y-96446829D01*
X169144215Y-96520272D01*
X169217657Y-96667156D01*
X169217657Y-97107810D01*
X169144215Y-97254695D01*
X169070773Y-97328137D01*
X167675369Y-94977984D02*
X167675369Y-95712407D01*
X168409792Y-95785849D01*
X168336350Y-95712407D01*
X168262908Y-95565522D01*
X168262908Y-95198311D01*
X168336350Y-95051426D01*
X168409792Y-94977984D01*
X168556677Y-94904541D01*
X168923888Y-94904541D01*
X169070773Y-94977984D01*
X169144215Y-95051426D01*
X169217657Y-95198311D01*
X169217657Y-95565522D01*
X169144215Y-95712407D01*
X169070773Y-95785849D01*
X170288812Y-101808116D02*
X170215369Y-101955001D01*
X170215369Y-102175328D01*
X170288812Y-102395655D01*
X170435696Y-102542539D01*
X170582581Y-102615981D01*
X170876350Y-102689424D01*
X171096677Y-102689424D01*
X171390446Y-102615981D01*
X171537330Y-102542539D01*
X171684215Y-102395655D01*
X171757657Y-102175328D01*
X171757657Y-102028443D01*
X171684215Y-101808116D01*
X171610773Y-101734674D01*
X171096677Y-101734674D01*
X171096677Y-102028443D01*
X171757657Y-101073693D02*
X170215369Y-101073693D01*
X170215369Y-100486155D01*
X170288812Y-100339271D01*
X170362254Y-100265828D01*
X170509138Y-100192386D01*
X170729465Y-100192386D01*
X170876350Y-100265828D01*
X170949792Y-100339271D01*
X171023234Y-100486155D01*
X171023234Y-101073693D01*
X171757657Y-99531405D02*
X170215369Y-99531405D01*
X170215369Y-98503213D02*
X170215369Y-98209444D01*
X170288812Y-98062560D01*
X170435696Y-97915675D01*
X170729465Y-97842233D01*
X171243561Y-97842233D01*
X171537330Y-97915675D01*
X171684215Y-98062560D01*
X171757657Y-98209444D01*
X171757657Y-98503213D01*
X171684215Y-98650098D01*
X171537330Y-98796983D01*
X171243561Y-98870425D01*
X170729465Y-98870425D01*
X170435696Y-98796983D01*
X170288812Y-98650098D01*
X170215369Y-98503213D01*
X170215369Y-97328137D02*
X170215369Y-96373387D01*
X170802908Y-96887483D01*
X170802908Y-96667156D01*
X170876350Y-96520272D01*
X170949792Y-96446829D01*
X171096677Y-96373387D01*
X171463888Y-96373387D01*
X171610773Y-96446829D01*
X171684215Y-96520272D01*
X171757657Y-96667156D01*
X171757657Y-97107810D01*
X171684215Y-97254695D01*
X171610773Y-97328137D01*
X170729465Y-95051426D02*
X171757657Y-95051426D01*
X170141927Y-95418637D02*
X171243561Y-95785849D01*
X171243561Y-94831099D01*
X172828812Y-101808116D02*
X172755369Y-101955001D01*
X172755369Y-102175328D01*
X172828812Y-102395655D01*
X172975696Y-102542539D01*
X173122581Y-102615981D01*
X173416350Y-102689424D01*
X173636677Y-102689424D01*
X173930446Y-102615981D01*
X174077330Y-102542539D01*
X174224215Y-102395655D01*
X174297657Y-102175328D01*
X174297657Y-102028443D01*
X174224215Y-101808116D01*
X174150773Y-101734674D01*
X173636677Y-101734674D01*
X173636677Y-102028443D01*
X174297657Y-101073693D02*
X172755369Y-101073693D01*
X172755369Y-100486155D01*
X172828812Y-100339271D01*
X172902254Y-100265828D01*
X173049138Y-100192386D01*
X173269465Y-100192386D01*
X173416350Y-100265828D01*
X173489792Y-100339271D01*
X173563234Y-100486155D01*
X173563234Y-101073693D01*
X174297657Y-99531405D02*
X172755369Y-99531405D01*
X172755369Y-98503213D02*
X172755369Y-98209444D01*
X172828812Y-98062560D01*
X172975696Y-97915675D01*
X173269465Y-97842233D01*
X173783561Y-97842233D01*
X174077330Y-97915675D01*
X174224215Y-98062560D01*
X174297657Y-98209444D01*
X174297657Y-98503213D01*
X174224215Y-98650098D01*
X174077330Y-98796983D01*
X173783561Y-98870425D01*
X173269465Y-98870425D01*
X172975696Y-98796983D01*
X172828812Y-98650098D01*
X172755369Y-98503213D01*
X172755369Y-97328137D02*
X172755369Y-96373387D01*
X173342908Y-96887483D01*
X173342908Y-96667156D01*
X173416350Y-96520272D01*
X173489792Y-96446829D01*
X173636677Y-96373387D01*
X174003888Y-96373387D01*
X174150773Y-96446829D01*
X174224215Y-96520272D01*
X174297657Y-96667156D01*
X174297657Y-97107810D01*
X174224215Y-97254695D01*
X174150773Y-97328137D01*
X172755369Y-95859291D02*
X172755369Y-94904541D01*
X173342908Y-95418637D01*
X173342908Y-95198311D01*
X173416350Y-95051426D01*
X173489792Y-94977984D01*
X173636677Y-94904541D01*
X174003888Y-94904541D01*
X174150773Y-94977984D01*
X174224215Y-95051426D01*
X174297657Y-95198311D01*
X174297657Y-95638964D01*
X174224215Y-95785849D01*
X174150773Y-95859291D01*
X175368812Y-101808116D02*
X175295369Y-101955001D01*
X175295369Y-102175328D01*
X175368812Y-102395655D01*
X175515696Y-102542539D01*
X175662581Y-102615981D01*
X175956350Y-102689424D01*
X176176677Y-102689424D01*
X176470446Y-102615981D01*
X176617330Y-102542539D01*
X176764215Y-102395655D01*
X176837657Y-102175328D01*
X176837657Y-102028443D01*
X176764215Y-101808116D01*
X176690773Y-101734674D01*
X176176677Y-101734674D01*
X176176677Y-102028443D01*
X176837657Y-101073693D02*
X175295369Y-101073693D01*
X175295369Y-100486155D01*
X175368812Y-100339271D01*
X175442254Y-100265828D01*
X175589138Y-100192386D01*
X175809465Y-100192386D01*
X175956350Y-100265828D01*
X176029792Y-100339271D01*
X176103234Y-100486155D01*
X176103234Y-101073693D01*
X176837657Y-99531405D02*
X175295369Y-99531405D01*
X175295369Y-98503213D02*
X175295369Y-98209444D01*
X175368812Y-98062560D01*
X175515696Y-97915675D01*
X175809465Y-97842233D01*
X176323561Y-97842233D01*
X176617330Y-97915675D01*
X176764215Y-98062560D01*
X176837657Y-98209444D01*
X176837657Y-98503213D01*
X176764215Y-98650098D01*
X176617330Y-98796983D01*
X176323561Y-98870425D01*
X175809465Y-98870425D01*
X175515696Y-98796983D01*
X175368812Y-98650098D01*
X175295369Y-98503213D01*
X175295369Y-97328137D02*
X175295369Y-96373387D01*
X175882908Y-96887483D01*
X175882908Y-96667156D01*
X175956350Y-96520272D01*
X176029792Y-96446829D01*
X176176677Y-96373387D01*
X176543888Y-96373387D01*
X176690773Y-96446829D01*
X176764215Y-96520272D01*
X176837657Y-96667156D01*
X176837657Y-97107810D01*
X176764215Y-97254695D01*
X176690773Y-97328137D01*
X175442254Y-95785849D02*
X175368812Y-95712407D01*
X175295369Y-95565522D01*
X175295369Y-95198311D01*
X175368812Y-95051426D01*
X175442254Y-94977984D01*
X175589138Y-94904541D01*
X175736023Y-94904541D01*
X175956350Y-94977984D01*
X176837657Y-95859291D01*
X176837657Y-94904541D01*
X177908812Y-101808116D02*
X177835369Y-101955001D01*
X177835369Y-102175328D01*
X177908812Y-102395655D01*
X178055696Y-102542539D01*
X178202581Y-102615981D01*
X178496350Y-102689424D01*
X178716677Y-102689424D01*
X179010446Y-102615981D01*
X179157330Y-102542539D01*
X179304215Y-102395655D01*
X179377657Y-102175328D01*
X179377657Y-102028443D01*
X179304215Y-101808116D01*
X179230773Y-101734674D01*
X178716677Y-101734674D01*
X178716677Y-102028443D01*
X179377657Y-101073693D02*
X177835369Y-101073693D01*
X177835369Y-100486155D01*
X177908812Y-100339271D01*
X177982254Y-100265828D01*
X178129138Y-100192386D01*
X178349465Y-100192386D01*
X178496350Y-100265828D01*
X178569792Y-100339271D01*
X178643234Y-100486155D01*
X178643234Y-101073693D01*
X179377657Y-99531405D02*
X177835369Y-99531405D01*
X177835369Y-98503213D02*
X177835369Y-98209444D01*
X177908812Y-98062560D01*
X178055696Y-97915675D01*
X178349465Y-97842233D01*
X178863561Y-97842233D01*
X179157330Y-97915675D01*
X179304215Y-98062560D01*
X179377657Y-98209444D01*
X179377657Y-98503213D01*
X179304215Y-98650098D01*
X179157330Y-98796983D01*
X178863561Y-98870425D01*
X178349465Y-98870425D01*
X178055696Y-98796983D01*
X177908812Y-98650098D01*
X177835369Y-98503213D01*
X179377657Y-96373387D02*
X179377657Y-97254695D01*
X179377657Y-96814041D02*
X177835369Y-96814041D01*
X178055696Y-96960925D01*
X178202581Y-97107810D01*
X178276023Y-97254695D01*
X177835369Y-95051426D02*
X177835369Y-95345195D01*
X177908812Y-95492080D01*
X177982254Y-95565522D01*
X178202581Y-95712407D01*
X178496350Y-95785849D01*
X179083888Y-95785849D01*
X179230773Y-95712407D01*
X179304215Y-95638964D01*
X179377657Y-95492080D01*
X179377657Y-95198311D01*
X179304215Y-95051426D01*
X179230773Y-94977984D01*
X179083888Y-94904541D01*
X178716677Y-94904541D01*
X178569792Y-94977984D01*
X178496350Y-95051426D01*
X178422908Y-95198311D01*
X178422908Y-95492080D01*
X178496350Y-95638964D01*
X178569792Y-95712407D01*
X178716677Y-95785849D01*
X180448812Y-101808116D02*
X180375369Y-101955001D01*
X180375369Y-102175328D01*
X180448812Y-102395655D01*
X180595696Y-102542539D01*
X180742581Y-102615981D01*
X181036350Y-102689424D01*
X181256677Y-102689424D01*
X181550446Y-102615981D01*
X181697330Y-102542539D01*
X181844215Y-102395655D01*
X181917657Y-102175328D01*
X181917657Y-102028443D01*
X181844215Y-101808116D01*
X181770773Y-101734674D01*
X181256677Y-101734674D01*
X181256677Y-102028443D01*
X181917657Y-101073693D02*
X180375369Y-101073693D01*
X180375369Y-100486155D01*
X180448812Y-100339271D01*
X180522254Y-100265828D01*
X180669138Y-100192386D01*
X180889465Y-100192386D01*
X181036350Y-100265828D01*
X181109792Y-100339271D01*
X181183234Y-100486155D01*
X181183234Y-101073693D01*
X181917657Y-99531405D02*
X180375369Y-99531405D01*
X180375369Y-98503213D02*
X180375369Y-98209444D01*
X180448812Y-98062560D01*
X180595696Y-97915675D01*
X180889465Y-97842233D01*
X181403561Y-97842233D01*
X181697330Y-97915675D01*
X181844215Y-98062560D01*
X181917657Y-98209444D01*
X181917657Y-98503213D01*
X181844215Y-98650098D01*
X181697330Y-98796983D01*
X181403561Y-98870425D01*
X180889465Y-98870425D01*
X180595696Y-98796983D01*
X180448812Y-98650098D01*
X180375369Y-98503213D01*
X181917657Y-96373387D02*
X181917657Y-97254695D01*
X181917657Y-96814041D02*
X180375369Y-96814041D01*
X180595696Y-96960925D01*
X180742581Y-97107810D01*
X180816023Y-97254695D01*
X180375369Y-94977984D02*
X180375369Y-95712407D01*
X181109792Y-95785849D01*
X181036350Y-95712407D01*
X180962908Y-95565522D01*
X180962908Y-95198311D01*
X181036350Y-95051426D01*
X181109792Y-94977984D01*
X181256677Y-94904541D01*
X181623888Y-94904541D01*
X181770773Y-94977984D01*
X181844215Y-95051426D01*
X181917657Y-95198311D01*
X181917657Y-95565522D01*
X181844215Y-95712407D01*
X181770773Y-95785849D01*
D12*
X183596380Y-98938458D02*
X183551869Y-99027479D01*
X183551869Y-99161011D01*
X183596380Y-99294542D01*
X183685400Y-99383563D01*
X183774421Y-99428073D01*
X183952463Y-99472584D01*
X184085995Y-99472584D01*
X184264037Y-99428073D01*
X184353058Y-99383563D01*
X184442079Y-99294542D01*
X184486589Y-99161011D01*
X184486589Y-99071990D01*
X184442079Y-98938458D01*
X184397568Y-98893948D01*
X184085995Y-98893948D01*
X184085995Y-99071990D01*
X184486589Y-98493353D02*
X183551869Y-98493353D01*
X183551869Y-98137270D01*
X183596380Y-98048249D01*
X183640890Y-98003738D01*
X183729911Y-97959228D01*
X183863442Y-97959228D01*
X183952463Y-98003738D01*
X183996974Y-98048249D01*
X184041484Y-98137270D01*
X184041484Y-98493353D01*
X184486589Y-97558633D02*
X183551869Y-97558633D01*
X183551869Y-96935487D02*
X183551869Y-96757445D01*
X183596380Y-96668424D01*
X183685400Y-96579403D01*
X183863442Y-96534892D01*
X184175016Y-96534892D01*
X184353058Y-96579403D01*
X184442079Y-96668424D01*
X184486589Y-96757445D01*
X184486589Y-96935487D01*
X184442079Y-97024508D01*
X184353058Y-97113529D01*
X184175016Y-97158039D01*
X183863442Y-97158039D01*
X183685400Y-97113529D01*
X183596380Y-97024508D01*
X183551869Y-96935487D01*
X184486589Y-95644683D02*
X184486589Y-96178809D01*
X184486589Y-95911746D02*
X183551869Y-95911746D01*
X183685400Y-96000767D01*
X183774421Y-96089788D01*
X183818932Y-96178809D01*
X183863442Y-94843494D02*
X184486589Y-94843494D01*
X183507359Y-95066047D02*
X184175016Y-95288599D01*
X184175016Y-94709963D01*
D13*
X186323324Y-98055486D02*
X186287715Y-98126703D01*
X186287715Y-98233528D01*
X186323324Y-98340353D01*
X186394540Y-98411570D01*
X186465757Y-98447179D01*
X186608191Y-98482787D01*
X186715016Y-98482787D01*
X186857449Y-98447179D01*
X186928666Y-98411570D01*
X186999883Y-98340353D01*
X187035491Y-98233528D01*
X187035491Y-98162312D01*
X186999883Y-98055486D01*
X186964274Y-98019878D01*
X186715016Y-98019878D01*
X186715016Y-98162312D01*
X187035491Y-97699403D02*
X186287715Y-97699403D01*
X186287715Y-97414536D01*
X186323324Y-97343319D01*
X186358932Y-97307710D01*
X186430149Y-97272102D01*
X186536974Y-97272102D01*
X186608191Y-97307710D01*
X186643799Y-97343319D01*
X186679407Y-97414536D01*
X186679407Y-97699403D01*
X187035491Y-96951627D02*
X186287715Y-96951627D01*
X186287715Y-96453109D02*
X186287715Y-96310676D01*
X186323324Y-96239459D01*
X186394540Y-96168242D01*
X186536974Y-96132634D01*
X186786232Y-96132634D01*
X186928666Y-96168242D01*
X186999883Y-96239459D01*
X187035491Y-96310676D01*
X187035491Y-96453109D01*
X186999883Y-96524326D01*
X186928666Y-96595543D01*
X186786232Y-96631151D01*
X186536974Y-96631151D01*
X186394540Y-96595543D01*
X186323324Y-96524326D01*
X186287715Y-96453109D01*
X187035491Y-95420466D02*
X187035491Y-95847767D01*
X187035491Y-95634117D02*
X186287715Y-95634117D01*
X186394540Y-95705333D01*
X186465757Y-95776550D01*
X186501365Y-95847767D01*
X186287715Y-95171208D02*
X186287715Y-94708299D01*
X186572582Y-94957557D01*
X186572582Y-94850732D01*
X186608191Y-94779515D01*
X186643799Y-94743907D01*
X186715016Y-94708299D01*
X186893058Y-94708299D01*
X186964274Y-94743907D01*
X186999883Y-94779515D01*
X187035491Y-94850732D01*
X187035491Y-95064382D01*
X186999883Y-95135599D01*
X186964274Y-95171208D01*
D12*
X152176241Y-122463600D02*
X152087220Y-122419089D01*
X151953688Y-122419089D01*
X151820157Y-122463600D01*
X151731136Y-122552620D01*
X151686626Y-122641641D01*
X151642115Y-122819683D01*
X151642115Y-122953215D01*
X151686626Y-123131257D01*
X151731136Y-123220278D01*
X151820157Y-123309299D01*
X151953688Y-123353809D01*
X152042709Y-123353809D01*
X152176241Y-123309299D01*
X152220751Y-123264788D01*
X152220751Y-122953215D01*
X152042709Y-122953215D01*
X152621346Y-123353809D02*
X152621346Y-122419089D01*
X152977429Y-122419089D01*
X153066450Y-122463600D01*
X153110961Y-122508110D01*
X153155471Y-122597131D01*
X153155471Y-122730662D01*
X153110961Y-122819683D01*
X153066450Y-122864194D01*
X152977429Y-122908704D01*
X152621346Y-122908704D01*
X153556066Y-123353809D02*
X153556066Y-122419089D01*
X154179212Y-122419089D02*
X154357254Y-122419089D01*
X154446275Y-122463600D01*
X154535296Y-122552620D01*
X154579807Y-122730662D01*
X154579807Y-123042236D01*
X154535296Y-123220278D01*
X154446275Y-123309299D01*
X154357254Y-123353809D01*
X154179212Y-123353809D01*
X154090191Y-123309299D01*
X154001170Y-123220278D01*
X153956660Y-123042236D01*
X153956660Y-122730662D01*
X154001170Y-122552620D01*
X154090191Y-122463600D01*
X154179212Y-122419089D01*
X155470016Y-123353809D02*
X154935890Y-123353809D01*
X155202953Y-123353809D02*
X155202953Y-122419089D01*
X155113932Y-122552620D01*
X155024911Y-122641641D01*
X154935890Y-122686152D01*
X156315715Y-122419089D02*
X155870610Y-122419089D01*
X155826100Y-122864194D01*
X155870610Y-122819683D01*
X155959631Y-122775173D01*
X156182184Y-122775173D01*
X156271205Y-122819683D01*
X156315715Y-122864194D01*
X156360226Y-122953215D01*
X156360226Y-123175767D01*
X156315715Y-123264788D01*
X156271205Y-123309299D01*
X156182184Y-123353809D01*
X155959631Y-123353809D01*
X155870610Y-123309299D01*
X155826100Y-123264788D01*
X134396241Y-122463600D02*
X134307220Y-122419089D01*
X134173688Y-122419089D01*
X134040157Y-122463600D01*
X133951136Y-122552620D01*
X133906626Y-122641641D01*
X133862115Y-122819683D01*
X133862115Y-122953215D01*
X133906626Y-123131257D01*
X133951136Y-123220278D01*
X134040157Y-123309299D01*
X134173688Y-123353809D01*
X134262709Y-123353809D01*
X134396241Y-123309299D01*
X134440751Y-123264788D01*
X134440751Y-122953215D01*
X134262709Y-122953215D01*
X134841346Y-123353809D02*
X134841346Y-122419089D01*
X135197429Y-122419089D01*
X135286450Y-122463600D01*
X135330961Y-122508110D01*
X135375471Y-122597131D01*
X135375471Y-122730662D01*
X135330961Y-122819683D01*
X135286450Y-122864194D01*
X135197429Y-122908704D01*
X134841346Y-122908704D01*
X135776066Y-123353809D02*
X135776066Y-122419089D01*
X136399212Y-122419089D02*
X136577254Y-122419089D01*
X136666275Y-122463600D01*
X136755296Y-122552620D01*
X136799807Y-122730662D01*
X136799807Y-123042236D01*
X136755296Y-123220278D01*
X136666275Y-123309299D01*
X136577254Y-123353809D01*
X136399212Y-123353809D01*
X136310191Y-123309299D01*
X136221170Y-123220278D01*
X136176660Y-123042236D01*
X136176660Y-122730662D01*
X136221170Y-122552620D01*
X136310191Y-122463600D01*
X136399212Y-122419089D01*
X137690016Y-123353809D02*
X137155890Y-123353809D01*
X137422953Y-123353809D02*
X137422953Y-122419089D01*
X137333932Y-122552620D01*
X137244911Y-122641641D01*
X137155890Y-122686152D01*
X138491205Y-122419089D02*
X138313163Y-122419089D01*
X138224142Y-122463600D01*
X138179631Y-122508110D01*
X138090610Y-122641641D01*
X138046100Y-122819683D01*
X138046100Y-123175767D01*
X138090610Y-123264788D01*
X138135121Y-123309299D01*
X138224142Y-123353809D01*
X138402184Y-123353809D01*
X138491205Y-123309299D01*
X138535715Y-123264788D01*
X138580226Y-123175767D01*
X138580226Y-122953215D01*
X138535715Y-122864194D01*
X138491205Y-122819683D01*
X138402184Y-122775173D01*
X138224142Y-122775173D01*
X138135121Y-122819683D01*
X138090610Y-122864194D01*
X138046100Y-122953215D01*
X116616241Y-122463600D02*
X116527220Y-122419089D01*
X116393688Y-122419089D01*
X116260157Y-122463600D01*
X116171136Y-122552620D01*
X116126626Y-122641641D01*
X116082115Y-122819683D01*
X116082115Y-122953215D01*
X116126626Y-123131257D01*
X116171136Y-123220278D01*
X116260157Y-123309299D01*
X116393688Y-123353809D01*
X116482709Y-123353809D01*
X116616241Y-123309299D01*
X116660751Y-123264788D01*
X116660751Y-122953215D01*
X116482709Y-122953215D01*
X117061346Y-123353809D02*
X117061346Y-122419089D01*
X117417429Y-122419089D01*
X117506450Y-122463600D01*
X117550961Y-122508110D01*
X117595471Y-122597131D01*
X117595471Y-122730662D01*
X117550961Y-122819683D01*
X117506450Y-122864194D01*
X117417429Y-122908704D01*
X117061346Y-122908704D01*
X117996066Y-123353809D02*
X117996066Y-122419089D01*
X118619212Y-122419089D02*
X118797254Y-122419089D01*
X118886275Y-122463600D01*
X118975296Y-122552620D01*
X119019807Y-122730662D01*
X119019807Y-123042236D01*
X118975296Y-123220278D01*
X118886275Y-123309299D01*
X118797254Y-123353809D01*
X118619212Y-123353809D01*
X118530191Y-123309299D01*
X118441170Y-123220278D01*
X118396660Y-123042236D01*
X118396660Y-122730662D01*
X118441170Y-122552620D01*
X118530191Y-122463600D01*
X118619212Y-122419089D01*
X119331380Y-122419089D02*
X119910016Y-122419089D01*
X119598443Y-122775173D01*
X119731974Y-122775173D01*
X119820995Y-122819683D01*
X119865506Y-122864194D01*
X119910016Y-122953215D01*
X119910016Y-123175767D01*
X119865506Y-123264788D01*
X119820995Y-123309299D01*
X119731974Y-123353809D01*
X119464911Y-123353809D01*
X119375890Y-123309299D01*
X119331380Y-123264788D01*
X120266100Y-122508110D02*
X120310610Y-122463600D01*
X120399631Y-122419089D01*
X120622184Y-122419089D01*
X120711205Y-122463600D01*
X120755715Y-122508110D01*
X120800226Y-122597131D01*
X120800226Y-122686152D01*
X120755715Y-122819683D01*
X120221589Y-123353809D01*
X120800226Y-123353809D01*
X162382687Y-122730662D02*
X162382687Y-123353809D01*
X162160134Y-122374579D02*
X161937582Y-123042236D01*
X162516218Y-123042236D01*
X162783281Y-123353809D02*
X163272896Y-122730662D01*
X162783281Y-122730662D02*
X163272896Y-123353809D01*
X164207616Y-122419089D02*
X164741742Y-122419089D01*
X164474679Y-123353809D02*
X164474679Y-122419089D01*
X165053315Y-123353809D02*
X165053315Y-122419089D01*
X165453909Y-123353809D02*
X165453909Y-122864194D01*
X165409399Y-122775173D01*
X165320378Y-122730662D01*
X165186847Y-122730662D01*
X165097826Y-122775173D01*
X165053315Y-122819683D01*
X166255098Y-123309299D02*
X166166077Y-123353809D01*
X165988035Y-123353809D01*
X165899014Y-123309299D01*
X165854504Y-123220278D01*
X165854504Y-122864194D01*
X165899014Y-122775173D01*
X165988035Y-122730662D01*
X166166077Y-122730662D01*
X166255098Y-122775173D01*
X166299608Y-122864194D01*
X166299608Y-122953215D01*
X165854504Y-123042236D01*
X166700203Y-123353809D02*
X166700203Y-122730662D01*
X166700203Y-122908704D02*
X166744713Y-122819683D01*
X166789224Y-122775173D01*
X166878245Y-122730662D01*
X166967266Y-122730662D01*
X167278839Y-123353809D02*
X167278839Y-122730662D01*
X167278839Y-122819683D02*
X167323349Y-122775173D01*
X167412370Y-122730662D01*
X167545902Y-122730662D01*
X167634923Y-122775173D01*
X167679433Y-122864194D01*
X167679433Y-123353809D01*
X167679433Y-122864194D02*
X167723944Y-122775173D01*
X167812965Y-122730662D01*
X167946496Y-122730662D01*
X168035517Y-122775173D01*
X168080028Y-122864194D01*
X168080028Y-123353809D01*
X168658664Y-123353809D02*
X168569643Y-123309299D01*
X168525132Y-123264788D01*
X168480622Y-123175767D01*
X168480622Y-122908704D01*
X168525132Y-122819683D01*
X168569643Y-122775173D01*
X168658664Y-122730662D01*
X168792195Y-122730662D01*
X168881216Y-122775173D01*
X168925727Y-122819683D01*
X168970237Y-122908704D01*
X168970237Y-123175767D01*
X168925727Y-123264788D01*
X168881216Y-123309299D01*
X168792195Y-123353809D01*
X168658664Y-123353809D01*
X169771426Y-123309299D02*
X169682405Y-123353809D01*
X169504363Y-123353809D01*
X169415342Y-123309299D01*
X169370831Y-123264788D01*
X169326321Y-123175767D01*
X169326321Y-122908704D01*
X169370831Y-122819683D01*
X169415342Y-122775173D01*
X169504363Y-122730662D01*
X169682405Y-122730662D01*
X169771426Y-122775173D01*
X170305551Y-123353809D02*
X170216530Y-123309299D01*
X170172020Y-123264788D01*
X170127509Y-123175767D01*
X170127509Y-122908704D01*
X170172020Y-122819683D01*
X170216530Y-122775173D01*
X170305551Y-122730662D01*
X170439083Y-122730662D01*
X170528104Y-122775173D01*
X170572614Y-122819683D01*
X170617125Y-122908704D01*
X170617125Y-123175767D01*
X170572614Y-123264788D01*
X170528104Y-123309299D01*
X170439083Y-123353809D01*
X170305551Y-123353809D01*
X171418313Y-122730662D02*
X171418313Y-123353809D01*
X171017719Y-122730662D02*
X171017719Y-123220278D01*
X171062229Y-123309299D01*
X171151250Y-123353809D01*
X171284782Y-123353809D01*
X171373803Y-123309299D01*
X171418313Y-123264788D01*
X171863418Y-122730662D02*
X171863418Y-123665382D01*
X171863418Y-122775173D02*
X171952439Y-122730662D01*
X172130481Y-122730662D01*
X172219502Y-122775173D01*
X172264012Y-122819683D01*
X172308523Y-122908704D01*
X172308523Y-123175767D01*
X172264012Y-123264788D01*
X172219502Y-123309299D01*
X172130481Y-123353809D01*
X171952439Y-123353809D01*
X171863418Y-123309299D01*
X172842648Y-123353809D02*
X172753628Y-123309299D01*
X172709117Y-123220278D01*
X172709117Y-122419089D01*
X173554816Y-123309299D02*
X173465795Y-123353809D01*
X173287753Y-123353809D01*
X173198732Y-123309299D01*
X173154222Y-123220278D01*
X173154222Y-122864194D01*
X173198732Y-122775173D01*
X173287753Y-122730662D01*
X173465795Y-122730662D01*
X173554816Y-122775173D01*
X173599327Y-122864194D01*
X173599327Y-122953215D01*
X173154222Y-123042236D01*
X173999921Y-123353809D02*
X173999921Y-122730662D01*
X173999921Y-122908704D02*
X174044431Y-122819683D01*
X174088942Y-122775173D01*
X174177963Y-122730662D01*
X174266984Y-122730662D01*
X175557788Y-123709893D02*
X175513277Y-123665382D01*
X175424256Y-123531851D01*
X175379746Y-123442830D01*
X175335235Y-123309299D01*
X175290725Y-123086746D01*
X175290725Y-122908704D01*
X175335235Y-122686152D01*
X175379746Y-122552620D01*
X175424256Y-122463600D01*
X175513277Y-122330068D01*
X175557788Y-122285558D01*
X175913871Y-123353809D02*
X175913871Y-122419089D01*
X176225445Y-123086746D01*
X176537018Y-122419089D01*
X176537018Y-123353809D01*
X176937612Y-123086746D02*
X177382717Y-123086746D01*
X176848591Y-123353809D02*
X177160165Y-122419089D01*
X177471738Y-123353809D01*
X177694290Y-122419089D02*
X178317437Y-123353809D01*
X178317437Y-122419089D02*
X177694290Y-123353809D01*
X178584500Y-122419089D02*
X179163136Y-122419089D01*
X178851563Y-122775173D01*
X178985094Y-122775173D01*
X179074115Y-122819683D01*
X179118626Y-122864194D01*
X179163136Y-122953215D01*
X179163136Y-123175767D01*
X179118626Y-123264788D01*
X179074115Y-123309299D01*
X178985094Y-123353809D01*
X178718031Y-123353809D01*
X178629010Y-123309299D01*
X178584500Y-123264788D01*
X180053346Y-123353809D02*
X179519220Y-123353809D01*
X179786283Y-123353809D02*
X179786283Y-122419089D01*
X179697262Y-122552620D01*
X179608241Y-122641641D01*
X179519220Y-122686152D01*
X180587471Y-122819683D02*
X180498450Y-122775173D01*
X180453940Y-122730662D01*
X180409429Y-122641641D01*
X180409429Y-122597131D01*
X180453940Y-122508110D01*
X180498450Y-122463600D01*
X180587471Y-122419089D01*
X180765513Y-122419089D01*
X180854534Y-122463600D01*
X180899045Y-122508110D01*
X180943555Y-122597131D01*
X180943555Y-122641641D01*
X180899045Y-122730662D01*
X180854534Y-122775173D01*
X180765513Y-122819683D01*
X180587471Y-122819683D01*
X180498450Y-122864194D01*
X180453940Y-122908704D01*
X180409429Y-122997725D01*
X180409429Y-123175767D01*
X180453940Y-123264788D01*
X180498450Y-123309299D01*
X180587471Y-123353809D01*
X180765513Y-123353809D01*
X180854534Y-123309299D01*
X180899045Y-123264788D01*
X180943555Y-123175767D01*
X180943555Y-122997725D01*
X180899045Y-122908704D01*
X180854534Y-122864194D01*
X180765513Y-122819683D01*
X181789254Y-122419089D02*
X181344149Y-122419089D01*
X181299639Y-122864194D01*
X181344149Y-122819683D01*
X181433170Y-122775173D01*
X181655723Y-122775173D01*
X181744744Y-122819683D01*
X181789254Y-122864194D01*
X181833765Y-122953215D01*
X181833765Y-123175767D01*
X181789254Y-123264788D01*
X181744744Y-123309299D01*
X181655723Y-123353809D01*
X181433170Y-123353809D01*
X181344149Y-123309299D01*
X181299639Y-123264788D01*
X182634953Y-122419089D02*
X182456911Y-122419089D01*
X182367890Y-122463600D01*
X182323380Y-122508110D01*
X182234359Y-122641641D01*
X182189848Y-122819683D01*
X182189848Y-123175767D01*
X182234359Y-123264788D01*
X182278869Y-123309299D01*
X182367890Y-123353809D01*
X182545932Y-123353809D01*
X182634953Y-123309299D01*
X182679464Y-123264788D01*
X182723974Y-123175767D01*
X182723974Y-122953215D01*
X182679464Y-122864194D01*
X182634953Y-122819683D01*
X182545932Y-122775173D01*
X182367890Y-122775173D01*
X182278869Y-122819683D01*
X182234359Y-122864194D01*
X182189848Y-122953215D01*
X183035548Y-123709893D02*
X183080058Y-123665382D01*
X183169079Y-123531851D01*
X183213589Y-123442830D01*
X183258100Y-123309299D01*
X183302610Y-123086746D01*
X183302610Y-122908704D01*
X183258100Y-122686152D01*
X183213589Y-122552620D01*
X183169079Y-122463600D01*
X183080058Y-122330068D01*
X183035548Y-122285558D01*
X184860477Y-123353809D02*
X184860477Y-122864194D01*
X184815967Y-122775173D01*
X184726946Y-122730662D01*
X184548904Y-122730662D01*
X184459883Y-122775173D01*
X184860477Y-123309299D02*
X184771456Y-123353809D01*
X184548904Y-123353809D01*
X184459883Y-123309299D01*
X184415372Y-123220278D01*
X184415372Y-123131257D01*
X184459883Y-123042236D01*
X184548904Y-122997725D01*
X184771456Y-122997725D01*
X184860477Y-122953215D01*
X185305582Y-122730662D02*
X185305582Y-123353809D01*
X185305582Y-122819683D02*
X185350092Y-122775173D01*
X185439113Y-122730662D01*
X185572645Y-122730662D01*
X185661666Y-122775173D01*
X185706176Y-122864194D01*
X185706176Y-123353809D01*
X186551875Y-123353809D02*
X186551875Y-122419089D01*
X186551875Y-123309299D02*
X186462854Y-123353809D01*
X186284812Y-123353809D01*
X186195791Y-123309299D01*
X186151281Y-123264788D01*
X186106770Y-123175767D01*
X186106770Y-122908704D01*
X186151281Y-122819683D01*
X186195791Y-122775173D01*
X186284812Y-122730662D01*
X186462854Y-122730662D01*
X186551875Y-122775173D01*
X188020721Y-122864194D02*
X188154252Y-122908704D01*
X188198763Y-122953215D01*
X188243273Y-123042236D01*
X188243273Y-123175767D01*
X188198763Y-123264788D01*
X188154252Y-123309299D01*
X188065231Y-123353809D01*
X187709148Y-123353809D01*
X187709148Y-122419089D01*
X188020721Y-122419089D01*
X188109742Y-122463600D01*
X188154252Y-122508110D01*
X188198763Y-122597131D01*
X188198763Y-122686152D01*
X188154252Y-122775173D01*
X188109742Y-122819683D01*
X188020721Y-122864194D01*
X187709148Y-122864194D01*
X188643868Y-123353809D02*
X188643868Y-122419089D01*
X188955441Y-123086746D01*
X189267014Y-122419089D01*
X189267014Y-123353809D01*
X189712119Y-122864194D02*
X190023692Y-122864194D01*
X190157224Y-123353809D02*
X189712119Y-123353809D01*
X189712119Y-122419089D01*
X190157224Y-122419089D01*
X190513308Y-122508110D02*
X190557818Y-122463600D01*
X190646839Y-122419089D01*
X190869391Y-122419089D01*
X190958412Y-122463600D01*
X191002923Y-122508110D01*
X191047433Y-122597131D01*
X191047433Y-122686152D01*
X191002923Y-122819683D01*
X190468797Y-123353809D01*
X191047433Y-123353809D01*
X191581559Y-122819683D02*
X191492538Y-122775173D01*
X191448028Y-122730662D01*
X191403517Y-122641641D01*
X191403517Y-122597131D01*
X191448028Y-122508110D01*
X191492538Y-122463600D01*
X191581559Y-122419089D01*
X191759601Y-122419089D01*
X191848622Y-122463600D01*
X191893132Y-122508110D01*
X191937643Y-122597131D01*
X191937643Y-122641641D01*
X191893132Y-122730662D01*
X191848622Y-122775173D01*
X191759601Y-122819683D01*
X191581559Y-122819683D01*
X191492538Y-122864194D01*
X191448028Y-122908704D01*
X191403517Y-122997725D01*
X191403517Y-123175767D01*
X191448028Y-123264788D01*
X191492538Y-123309299D01*
X191581559Y-123353809D01*
X191759601Y-123353809D01*
X191848622Y-123309299D01*
X191893132Y-123264788D01*
X191937643Y-123175767D01*
X191937643Y-122997725D01*
X191893132Y-122908704D01*
X191848622Y-122864194D01*
X191759601Y-122819683D01*
X192516279Y-122419089D02*
X192605300Y-122419089D01*
X192694321Y-122463600D01*
X192738831Y-122508110D01*
X192783342Y-122597131D01*
X192827852Y-122775173D01*
X192827852Y-122997725D01*
X192783342Y-123175767D01*
X192738831Y-123264788D01*
X192694321Y-123309299D01*
X192605300Y-123353809D01*
X192516279Y-123353809D01*
X192427258Y-123309299D01*
X192382748Y-123264788D01*
X192338237Y-123175767D01*
X192293727Y-122997725D01*
X192293727Y-122775173D01*
X192338237Y-122597131D01*
X192382748Y-122508110D01*
X192427258Y-122463600D01*
X192516279Y-122419089D01*
X193940614Y-122864194D02*
X194252188Y-122864194D01*
X194385719Y-123353809D02*
X193940614Y-123353809D01*
X193940614Y-122419089D01*
X194385719Y-122419089D01*
X194741803Y-123309299D02*
X194875334Y-123353809D01*
X195097887Y-123353809D01*
X195186908Y-123309299D01*
X195231418Y-123264788D01*
X195275928Y-123175767D01*
X195275928Y-123086746D01*
X195231418Y-122997725D01*
X195186908Y-122953215D01*
X195097887Y-122908704D01*
X194919845Y-122864194D01*
X194830824Y-122819683D01*
X194786313Y-122775173D01*
X194741803Y-122686152D01*
X194741803Y-122597131D01*
X194786313Y-122508110D01*
X194830824Y-122463600D01*
X194919845Y-122419089D01*
X195142397Y-122419089D01*
X195275928Y-122463600D01*
X195676523Y-123353809D02*
X195676523Y-122419089D01*
X196032607Y-122419089D01*
X196121628Y-122463600D01*
X196166138Y-122508110D01*
X196210648Y-122597131D01*
X196210648Y-122730662D01*
X196166138Y-122819683D01*
X196121628Y-122864194D01*
X196032607Y-122908704D01*
X195676523Y-122908704D01*
X196522222Y-122419089D02*
X197100858Y-122419089D01*
X196789285Y-122775173D01*
X196922816Y-122775173D01*
X197011837Y-122819683D01*
X197056348Y-122864194D01*
X197100858Y-122953215D01*
X197100858Y-123175767D01*
X197056348Y-123264788D01*
X197011837Y-123309299D01*
X196922816Y-123353809D01*
X196655753Y-123353809D01*
X196566732Y-123309299D01*
X196522222Y-123264788D01*
X197456942Y-122508110D02*
X197501452Y-122463600D01*
X197590473Y-122419089D01*
X197813026Y-122419089D01*
X197902047Y-122463600D01*
X197946557Y-122508110D01*
X197991068Y-122597131D01*
X197991068Y-122686152D01*
X197946557Y-122819683D01*
X197412431Y-123353809D01*
X197991068Y-123353809D01*
X198391662Y-122997725D02*
X199103829Y-122997725D01*
X199548934Y-123353809D02*
X199548934Y-122419089D01*
X199905018Y-122419089D01*
X199994039Y-122463600D01*
X200038549Y-122508110D01*
X200083060Y-122597131D01*
X200083060Y-122730662D01*
X200038549Y-122819683D01*
X199994039Y-122864194D01*
X199905018Y-122908704D01*
X199548934Y-122908704D01*
X200661696Y-122419089D02*
X200839738Y-122419089D01*
X200928759Y-122463600D01*
X201017780Y-122552620D01*
X201062290Y-122730662D01*
X201062290Y-123042236D01*
X201017780Y-123220278D01*
X200928759Y-123309299D01*
X200839738Y-123353809D01*
X200661696Y-123353809D01*
X200572675Y-123309299D01*
X200483654Y-123220278D01*
X200439144Y-123042236D01*
X200439144Y-122730662D01*
X200483654Y-122552620D01*
X200572675Y-122463600D01*
X200661696Y-122419089D01*
X201462885Y-122864194D02*
X201774458Y-122864194D01*
X201907989Y-123353809D02*
X201462885Y-123353809D01*
X201462885Y-122419089D01*
X201907989Y-122419089D01*
X203020751Y-123353809D02*
X203020751Y-122419089D01*
X203421346Y-123353809D02*
X203421346Y-122864194D01*
X203376835Y-122775173D01*
X203287814Y-122730662D01*
X203154283Y-122730662D01*
X203065262Y-122775173D01*
X203020751Y-122819683D01*
X204267045Y-123353809D02*
X204267045Y-122864194D01*
X204222534Y-122775173D01*
X204133513Y-122730662D01*
X203955471Y-122730662D01*
X203866450Y-122775173D01*
X204267045Y-123309299D02*
X204178024Y-123353809D01*
X203955471Y-123353809D01*
X203866450Y-123309299D01*
X203821940Y-123220278D01*
X203821940Y-123131257D01*
X203866450Y-123042236D01*
X203955471Y-122997725D01*
X204178024Y-122997725D01*
X204267045Y-122953215D01*
X204578618Y-122730662D02*
X204934702Y-122730662D01*
X204712149Y-122419089D02*
X204712149Y-123220278D01*
X204756660Y-123309299D01*
X204845681Y-123353809D01*
X204934702Y-123353809D01*
X205869422Y-122730662D02*
X206091974Y-123353809D01*
X206314527Y-122730662D01*
X207071205Y-122419089D02*
X206893163Y-122419089D01*
X206804142Y-122463600D01*
X206759631Y-122508110D01*
X206670610Y-122641641D01*
X206626100Y-122819683D01*
X206626100Y-123175767D01*
X206670610Y-123264788D01*
X206715121Y-123309299D01*
X206804142Y-123353809D01*
X206982184Y-123353809D01*
X207071205Y-123309299D01*
X207115715Y-123264788D01*
X207160226Y-123175767D01*
X207160226Y-122953215D01*
X207115715Y-122864194D01*
X207071205Y-122819683D01*
X206982184Y-122775173D01*
X206804142Y-122775173D01*
X206715121Y-122819683D01*
X206670610Y-122864194D01*
X206626100Y-122953215D01*
X98836241Y-122463600D02*
X98747220Y-122419089D01*
X98613688Y-122419089D01*
X98480157Y-122463600D01*
X98391136Y-122552620D01*
X98346626Y-122641641D01*
X98302115Y-122819683D01*
X98302115Y-122953215D01*
X98346626Y-123131257D01*
X98391136Y-123220278D01*
X98480157Y-123309299D01*
X98613688Y-123353809D01*
X98702709Y-123353809D01*
X98836241Y-123309299D01*
X98880751Y-123264788D01*
X98880751Y-122953215D01*
X98702709Y-122953215D01*
X99281346Y-123353809D02*
X99281346Y-122419089D01*
X99637429Y-122419089D01*
X99726450Y-122463600D01*
X99770961Y-122508110D01*
X99815471Y-122597131D01*
X99815471Y-122730662D01*
X99770961Y-122819683D01*
X99726450Y-122864194D01*
X99637429Y-122908704D01*
X99281346Y-122908704D01*
X100216066Y-123353809D02*
X100216066Y-122419089D01*
X100839212Y-122419089D02*
X101017254Y-122419089D01*
X101106275Y-122463600D01*
X101195296Y-122552620D01*
X101239807Y-122730662D01*
X101239807Y-123042236D01*
X101195296Y-123220278D01*
X101106275Y-123309299D01*
X101017254Y-123353809D01*
X100839212Y-123353809D01*
X100750191Y-123309299D01*
X100661170Y-123220278D01*
X100616660Y-123042236D01*
X100616660Y-122730662D01*
X100661170Y-122552620D01*
X100750191Y-122463600D01*
X100839212Y-122419089D01*
X101551380Y-122419089D02*
X102130016Y-122419089D01*
X101818443Y-122775173D01*
X101951974Y-122775173D01*
X102040995Y-122819683D01*
X102085506Y-122864194D01*
X102130016Y-122953215D01*
X102130016Y-123175767D01*
X102085506Y-123264788D01*
X102040995Y-123309299D01*
X101951974Y-123353809D01*
X101684911Y-123353809D01*
X101595890Y-123309299D01*
X101551380Y-123264788D01*
X102441589Y-122419089D02*
X103020226Y-122419089D01*
X102708652Y-122775173D01*
X102842184Y-122775173D01*
X102931205Y-122819683D01*
X102975715Y-122864194D01*
X103020226Y-122953215D01*
X103020226Y-123175767D01*
X102975715Y-123264788D01*
X102931205Y-123309299D01*
X102842184Y-123353809D01*
X102575121Y-123353809D01*
X102486100Y-123309299D01*
X102441589Y-123264788D01*
D10*
X149020884Y-121481466D02*
X149020884Y-119845706D01*
X149644030Y-119845706D01*
X149799817Y-119923600D01*
X149877710Y-120001493D01*
X149955604Y-120157280D01*
X149955604Y-120390960D01*
X149877710Y-120546746D01*
X149799817Y-120624640D01*
X149644030Y-120702533D01*
X149020884Y-120702533D01*
X150890324Y-121481466D02*
X150734537Y-121403573D01*
X150656644Y-121325680D01*
X150578750Y-121169893D01*
X150578750Y-120702533D01*
X150656644Y-120546746D01*
X150734537Y-120468853D01*
X150890324Y-120390960D01*
X151124004Y-120390960D01*
X151279790Y-120468853D01*
X151357684Y-120546746D01*
X151435577Y-120702533D01*
X151435577Y-121169893D01*
X151357684Y-121325680D01*
X151279790Y-121403573D01*
X151124004Y-121481466D01*
X150890324Y-121481466D01*
X152136617Y-121481466D02*
X152136617Y-120390960D01*
X152136617Y-120702533D02*
X152214510Y-120546746D01*
X152292404Y-120468853D01*
X152448190Y-120390960D01*
X152603977Y-120390960D01*
X152915550Y-120390960D02*
X153538697Y-120390960D01*
X153149230Y-119845706D02*
X153149230Y-121247786D01*
X153227124Y-121403573D01*
X153382910Y-121481466D01*
X153538697Y-121481466D01*
X156187070Y-121481466D02*
X155252350Y-121481466D01*
X155719710Y-121481466D02*
X155719710Y-119845706D01*
X155563924Y-120079386D01*
X155408137Y-120235173D01*
X155252350Y-120313066D01*
X131240884Y-121481466D02*
X131240884Y-119845706D01*
X131864030Y-119845706D01*
X132019817Y-119923600D01*
X132097710Y-120001493D01*
X132175604Y-120157280D01*
X132175604Y-120390960D01*
X132097710Y-120546746D01*
X132019817Y-120624640D01*
X131864030Y-120702533D01*
X131240884Y-120702533D01*
X133110324Y-121481466D02*
X132954537Y-121403573D01*
X132876644Y-121325680D01*
X132798750Y-121169893D01*
X132798750Y-120702533D01*
X132876644Y-120546746D01*
X132954537Y-120468853D01*
X133110324Y-120390960D01*
X133344004Y-120390960D01*
X133499790Y-120468853D01*
X133577684Y-120546746D01*
X133655577Y-120702533D01*
X133655577Y-121169893D01*
X133577684Y-121325680D01*
X133499790Y-121403573D01*
X133344004Y-121481466D01*
X133110324Y-121481466D01*
X134356617Y-121481466D02*
X134356617Y-120390960D01*
X134356617Y-120702533D02*
X134434510Y-120546746D01*
X134512404Y-120468853D01*
X134668190Y-120390960D01*
X134823977Y-120390960D01*
X135135550Y-120390960D02*
X135758697Y-120390960D01*
X135369230Y-119845706D02*
X135369230Y-121247786D01*
X135447124Y-121403573D01*
X135602910Y-121481466D01*
X135758697Y-121481466D01*
X137472350Y-120001493D02*
X137550244Y-119923600D01*
X137706030Y-119845706D01*
X138095497Y-119845706D01*
X138251284Y-119923600D01*
X138329177Y-120001493D01*
X138407070Y-120157280D01*
X138407070Y-120313066D01*
X138329177Y-120546746D01*
X137394457Y-121481466D01*
X138407070Y-121481466D01*
X113460884Y-121481466D02*
X113460884Y-119845706D01*
X114084030Y-119845706D01*
X114239817Y-119923600D01*
X114317710Y-120001493D01*
X114395604Y-120157280D01*
X114395604Y-120390960D01*
X114317710Y-120546746D01*
X114239817Y-120624640D01*
X114084030Y-120702533D01*
X113460884Y-120702533D01*
X115330324Y-121481466D02*
X115174537Y-121403573D01*
X115096644Y-121325680D01*
X115018750Y-121169893D01*
X115018750Y-120702533D01*
X115096644Y-120546746D01*
X115174537Y-120468853D01*
X115330324Y-120390960D01*
X115564004Y-120390960D01*
X115719790Y-120468853D01*
X115797684Y-120546746D01*
X115875577Y-120702533D01*
X115875577Y-121169893D01*
X115797684Y-121325680D01*
X115719790Y-121403573D01*
X115564004Y-121481466D01*
X115330324Y-121481466D01*
X116576617Y-121481466D02*
X116576617Y-120390960D01*
X116576617Y-120702533D02*
X116654510Y-120546746D01*
X116732404Y-120468853D01*
X116888190Y-120390960D01*
X117043977Y-120390960D01*
X117355550Y-120390960D02*
X117978697Y-120390960D01*
X117589230Y-119845706D02*
X117589230Y-121247786D01*
X117667124Y-121403573D01*
X117822910Y-121481466D01*
X117978697Y-121481466D01*
X119614457Y-119845706D02*
X120627070Y-119845706D01*
X120081817Y-120468853D01*
X120315497Y-120468853D01*
X120471284Y-120546746D01*
X120549177Y-120624640D01*
X120627070Y-120780426D01*
X120627070Y-121169893D01*
X120549177Y-121325680D01*
X120471284Y-121403573D01*
X120315497Y-121481466D01*
X119848137Y-121481466D01*
X119692350Y-121403573D01*
X119614457Y-121325680D01*
X95680884Y-121481466D02*
X95680884Y-119845706D01*
X96304030Y-119845706D01*
X96459817Y-119923600D01*
X96537710Y-120001493D01*
X96615604Y-120157280D01*
X96615604Y-120390960D01*
X96537710Y-120546746D01*
X96459817Y-120624640D01*
X96304030Y-120702533D01*
X95680884Y-120702533D01*
X97550324Y-121481466D02*
X97394537Y-121403573D01*
X97316644Y-121325680D01*
X97238750Y-121169893D01*
X97238750Y-120702533D01*
X97316644Y-120546746D01*
X97394537Y-120468853D01*
X97550324Y-120390960D01*
X97784004Y-120390960D01*
X97939790Y-120468853D01*
X98017684Y-120546746D01*
X98095577Y-120702533D01*
X98095577Y-121169893D01*
X98017684Y-121325680D01*
X97939790Y-121403573D01*
X97784004Y-121481466D01*
X97550324Y-121481466D01*
X98796617Y-121481466D02*
X98796617Y-120390960D01*
X98796617Y-120702533D02*
X98874510Y-120546746D01*
X98952404Y-120468853D01*
X99108190Y-120390960D01*
X99263977Y-120390960D01*
X99575550Y-120390960D02*
X100198697Y-120390960D01*
X99809230Y-119845706D02*
X99809230Y-121247786D01*
X99887124Y-121403573D01*
X100042910Y-121481466D01*
X100198697Y-121481466D01*
X102691284Y-120390960D02*
X102691284Y-121481466D01*
X102301817Y-119767813D02*
X101912350Y-120936213D01*
X102924964Y-120936213D01*
X196547840Y-113187350D02*
X196469946Y-113343137D01*
X196469946Y-113576817D01*
X196547840Y-113810497D01*
X196703626Y-113966284D01*
X196859413Y-114044177D01*
X197170986Y-114122070D01*
X197404666Y-114122070D01*
X197716240Y-114044177D01*
X197872026Y-113966284D01*
X198027813Y-113810497D01*
X198105706Y-113576817D01*
X198105706Y-113421030D01*
X198027813Y-113187350D01*
X197949920Y-113109457D01*
X197404666Y-113109457D01*
X197404666Y-113421030D01*
X198105706Y-112408417D02*
X196469946Y-112408417D01*
X198105706Y-111473697D01*
X196469946Y-111473697D01*
X198105706Y-110694764D02*
X196469946Y-110694764D01*
X196469946Y-110305297D01*
X196547840Y-110071617D01*
X196703626Y-109915830D01*
X196859413Y-109837937D01*
X197170986Y-109760044D01*
X197404666Y-109760044D01*
X197716240Y-109837937D01*
X197872026Y-109915830D01*
X198027813Y-110071617D01*
X198105706Y-110305297D01*
X198105706Y-110694764D01*
X193929946Y-114277857D02*
X195565706Y-113732604D01*
X193929946Y-113187350D01*
X195409920Y-111707377D02*
X195487813Y-111785270D01*
X195565706Y-112018950D01*
X195565706Y-112174737D01*
X195487813Y-112408417D01*
X195332026Y-112564204D01*
X195176240Y-112642097D01*
X194864666Y-112719990D01*
X194630986Y-112719990D01*
X194319413Y-112642097D01*
X194163626Y-112564204D01*
X194007840Y-112408417D01*
X193929946Y-112174737D01*
X193929946Y-112018950D01*
X194007840Y-111785270D01*
X194085733Y-111707377D01*
X195409920Y-110071617D02*
X195487813Y-110149510D01*
X195565706Y-110383190D01*
X195565706Y-110538977D01*
X195487813Y-110772657D01*
X195332026Y-110928444D01*
X195176240Y-111006337D01*
X194864666Y-111084230D01*
X194630986Y-111084230D01*
X194319413Y-111006337D01*
X194163626Y-110928444D01*
X194007840Y-110772657D01*
X193929946Y-110538977D01*
X193929946Y-110383190D01*
X194007840Y-110149510D01*
X194085733Y-110071617D01*
X200567813Y-114122070D02*
X200645706Y-113888390D01*
X200645706Y-113498924D01*
X200567813Y-113343137D01*
X200489920Y-113265244D01*
X200334133Y-113187350D01*
X200178346Y-113187350D01*
X200022560Y-113265244D01*
X199944666Y-113343137D01*
X199866773Y-113498924D01*
X199788880Y-113810497D01*
X199710986Y-113966284D01*
X199633093Y-114044177D01*
X199477306Y-114122070D01*
X199321520Y-114122070D01*
X199165733Y-114044177D01*
X199087840Y-113966284D01*
X199009946Y-113810497D01*
X199009946Y-113421030D01*
X199087840Y-113187350D01*
X200489920Y-111551590D02*
X200567813Y-111629484D01*
X200645706Y-111863164D01*
X200645706Y-112018950D01*
X200567813Y-112252630D01*
X200412026Y-112408417D01*
X200256240Y-112486310D01*
X199944666Y-112564204D01*
X199710986Y-112564204D01*
X199399413Y-112486310D01*
X199243626Y-112408417D01*
X199087840Y-112252630D01*
X199009946Y-112018950D01*
X199009946Y-111863164D01*
X199087840Y-111629484D01*
X199165733Y-111551590D01*
X200645706Y-110071617D02*
X200645706Y-110850550D01*
X199009946Y-110850550D01*
X203107813Y-114122070D02*
X203185706Y-113888390D01*
X203185706Y-113498924D01*
X203107813Y-113343137D01*
X203029920Y-113265244D01*
X202874133Y-113187350D01*
X202718346Y-113187350D01*
X202562560Y-113265244D01*
X202484666Y-113343137D01*
X202406773Y-113498924D01*
X202328880Y-113810497D01*
X202250986Y-113966284D01*
X202173093Y-114044177D01*
X202017306Y-114122070D01*
X201861520Y-114122070D01*
X201705733Y-114044177D01*
X201627840Y-113966284D01*
X201549946Y-113810497D01*
X201549946Y-113421030D01*
X201627840Y-113187350D01*
X203185706Y-112486310D02*
X201549946Y-112486310D01*
X201549946Y-112096844D01*
X201627840Y-111863164D01*
X201783626Y-111707377D01*
X201939413Y-111629484D01*
X202250986Y-111551590D01*
X202484666Y-111551590D01*
X202796240Y-111629484D01*
X202952026Y-111707377D01*
X203107813Y-111863164D01*
X203185706Y-112096844D01*
X203185706Y-112486310D01*
X202718346Y-110928444D02*
X202718346Y-110149510D01*
X203185706Y-111084230D02*
X201549946Y-110538977D01*
X203185706Y-109993724D01*
X205647813Y-114122070D02*
X205725706Y-113888390D01*
X205725706Y-113498924D01*
X205647813Y-113343137D01*
X205569920Y-113265244D01*
X205414133Y-113187350D01*
X205258346Y-113187350D01*
X205102560Y-113265244D01*
X205024666Y-113343137D01*
X204946773Y-113498924D01*
X204868880Y-113810497D01*
X204790986Y-113966284D01*
X204713093Y-114044177D01*
X204557306Y-114122070D01*
X204401520Y-114122070D01*
X204245733Y-114044177D01*
X204167840Y-113966284D01*
X204089946Y-113810497D01*
X204089946Y-113421030D01*
X204167840Y-113187350D01*
X205725706Y-112486310D02*
X204089946Y-112486310D01*
X204089946Y-112096844D01*
X204167840Y-111863164D01*
X204323626Y-111707377D01*
X204479413Y-111629484D01*
X204790986Y-111551590D01*
X205024666Y-111551590D01*
X205336240Y-111629484D01*
X205492026Y-111707377D01*
X205647813Y-111863164D01*
X205725706Y-112096844D01*
X205725706Y-112486310D01*
X204089946Y-110538977D02*
X204089946Y-110227404D01*
X204167840Y-110071617D01*
X204323626Y-109915830D01*
X204635200Y-109837937D01*
X205180453Y-109837937D01*
X205492026Y-109915830D01*
X205647813Y-110071617D01*
X205725706Y-110227404D01*
X205725706Y-110538977D01*
X205647813Y-110694764D01*
X205492026Y-110850550D01*
X205180453Y-110928444D01*
X204635200Y-110928444D01*
X204323626Y-110850550D01*
X204167840Y-110694764D01*
X204089946Y-110538977D01*
X208109920Y-113109457D02*
X208187813Y-113187350D01*
X208265706Y-113421030D01*
X208265706Y-113576817D01*
X208187813Y-113810497D01*
X208032026Y-113966284D01*
X207876240Y-114044177D01*
X207564666Y-114122070D01*
X207330986Y-114122070D01*
X207019413Y-114044177D01*
X206863626Y-113966284D01*
X206707840Y-113810497D01*
X206629946Y-113576817D01*
X206629946Y-113421030D01*
X206707840Y-113187350D01*
X206785733Y-113109457D01*
X208187813Y-112486310D02*
X208265706Y-112252630D01*
X208265706Y-111863164D01*
X208187813Y-111707377D01*
X208109920Y-111629484D01*
X207954133Y-111551590D01*
X207798346Y-111551590D01*
X207642560Y-111629484D01*
X207564666Y-111707377D01*
X207486773Y-111863164D01*
X207408880Y-112174737D01*
X207330986Y-112330524D01*
X207253093Y-112408417D01*
X207097306Y-112486310D01*
X206941520Y-112486310D01*
X206785733Y-112408417D01*
X206707840Y-112330524D01*
X206629946Y-112174737D01*
X206629946Y-111785270D01*
X206707840Y-111551590D01*
D14*
%TO.C,BME280*%
X194079595Y-121187250D02*
X194244695Y-121242283D01*
X194299728Y-121297316D01*
X194354761Y-121407383D01*
X194354761Y-121572483D01*
X194299728Y-121682550D01*
X194244695Y-121737583D01*
X194134628Y-121792616D01*
X193694361Y-121792616D01*
X193694361Y-120636916D01*
X194079595Y-120636916D01*
X194189661Y-120691950D01*
X194244695Y-120746983D01*
X194299728Y-120857050D01*
X194299728Y-120967116D01*
X194244695Y-121077183D01*
X194189661Y-121132216D01*
X194079595Y-121187250D01*
X193694361Y-121187250D01*
X194850061Y-121792616D02*
X194850061Y-120636916D01*
X195235295Y-121462416D01*
X195620528Y-120636916D01*
X195620528Y-121792616D01*
X196170861Y-121187250D02*
X196556095Y-121187250D01*
X196721195Y-121792616D02*
X196170861Y-121792616D01*
X196170861Y-120636916D01*
X196721195Y-120636916D01*
X197161461Y-120746983D02*
X197216495Y-120691950D01*
X197326561Y-120636916D01*
X197601728Y-120636916D01*
X197711795Y-120691950D01*
X197766828Y-120746983D01*
X197821861Y-120857050D01*
X197821861Y-120967116D01*
X197766828Y-121132216D01*
X197106428Y-121792616D01*
X197821861Y-121792616D01*
X198482261Y-121132216D02*
X198372195Y-121077183D01*
X198317161Y-121022150D01*
X198262128Y-120912083D01*
X198262128Y-120857050D01*
X198317161Y-120746983D01*
X198372195Y-120691950D01*
X198482261Y-120636916D01*
X198702395Y-120636916D01*
X198812461Y-120691950D01*
X198867495Y-120746983D01*
X198922528Y-120857050D01*
X198922528Y-120912083D01*
X198867495Y-121022150D01*
X198812461Y-121077183D01*
X198702395Y-121132216D01*
X198482261Y-121132216D01*
X198372195Y-121187250D01*
X198317161Y-121242283D01*
X198262128Y-121352350D01*
X198262128Y-121572483D01*
X198317161Y-121682550D01*
X198372195Y-121737583D01*
X198482261Y-121792616D01*
X198702395Y-121792616D01*
X198812461Y-121737583D01*
X198867495Y-121682550D01*
X198922528Y-121572483D01*
X198922528Y-121352350D01*
X198867495Y-121242283D01*
X198812461Y-121187250D01*
X198702395Y-121132216D01*
X199637961Y-120636916D02*
X199748028Y-120636916D01*
X199858095Y-120691950D01*
X199913128Y-120746983D01*
X199968161Y-120857050D01*
X200023195Y-121077183D01*
X200023195Y-121352350D01*
X199968161Y-121572483D01*
X199913128Y-121682550D01*
X199858095Y-121737583D01*
X199748028Y-121792616D01*
X199637961Y-121792616D01*
X199527895Y-121737583D01*
X199472861Y-121682550D01*
X199417828Y-121572483D01*
X199362795Y-121352350D01*
X199362795Y-121077183D01*
X199417828Y-120857050D01*
X199472861Y-120746983D01*
X199527895Y-120691950D01*
X199637961Y-120636916D01*
D15*
%TO.C,U$1*%
X187460684Y-97636886D02*
X187875212Y-97636886D01*
X187923980Y-97612502D01*
X187948364Y-97588118D01*
X187972748Y-97539350D01*
X187972748Y-97441814D01*
X187948364Y-97393046D01*
X187923980Y-97368662D01*
X187875212Y-97344278D01*
X187460684Y-97344278D01*
X187948364Y-97124822D02*
X187972748Y-97051670D01*
X187972748Y-96929750D01*
X187948364Y-96880982D01*
X187923980Y-96856598D01*
X187875212Y-96832214D01*
X187826444Y-96832214D01*
X187777676Y-96856598D01*
X187753292Y-96880982D01*
X187728908Y-96929750D01*
X187704524Y-97027286D01*
X187680140Y-97076054D01*
X187655756Y-97100438D01*
X187606988Y-97124822D01*
X187558220Y-97124822D01*
X187509452Y-97100438D01*
X187485068Y-97076054D01*
X187460684Y-97027286D01*
X187460684Y-96905366D01*
X187485068Y-96832214D01*
X187387532Y-96978518D02*
X188045900Y-96978518D01*
X187972748Y-96344534D02*
X187972748Y-96637142D01*
X187972748Y-96490838D02*
X187460684Y-96490838D01*
X187533836Y-96539606D01*
X187582604Y-96588374D01*
X187606988Y-96637142D01*
D16*
X161082061Y-93956817D02*
X161082061Y-93845540D01*
X161137700Y-93734264D01*
X161193338Y-93678626D01*
X161304614Y-93622988D01*
X161527166Y-93567350D01*
X161805357Y-93567350D01*
X162027909Y-93622988D01*
X162139185Y-93678626D01*
X162194823Y-93734264D01*
X162250461Y-93845540D01*
X162250461Y-93956817D01*
X162194823Y-94068093D01*
X162139185Y-94123731D01*
X162027909Y-94179369D01*
X161805357Y-94235007D01*
X161527166Y-94235007D01*
X161304614Y-94179369D01*
X161193338Y-94123731D01*
X161137700Y-94068093D01*
X161082061Y-93956817D01*
X162139185Y-93066607D02*
X162194823Y-93010969D01*
X162250461Y-93066607D01*
X162194823Y-93122245D01*
X162139185Y-93066607D01*
X162250461Y-93066607D01*
X162250461Y-92454588D02*
X162250461Y-92232036D01*
X162194823Y-92120760D01*
X162139185Y-92065121D01*
X161972271Y-91953845D01*
X161749719Y-91898207D01*
X161304614Y-91898207D01*
X161193338Y-91953845D01*
X161137700Y-92009483D01*
X161082061Y-92120760D01*
X161082061Y-92343312D01*
X161137700Y-92454588D01*
X161193338Y-92510226D01*
X161304614Y-92565864D01*
X161582804Y-92565864D01*
X161694080Y-92510226D01*
X161749719Y-92454588D01*
X161805357Y-92343312D01*
X161805357Y-92120760D01*
X161749719Y-92009483D01*
X161694080Y-91953845D01*
X161582804Y-91898207D01*
X161082061Y-90896721D02*
X161082061Y-91119274D01*
X161137700Y-91230550D01*
X161193338Y-91286188D01*
X161360252Y-91397464D01*
X161582804Y-91453102D01*
X162027909Y-91453102D01*
X162139185Y-91397464D01*
X162194823Y-91341826D01*
X162250461Y-91230550D01*
X162250461Y-91007998D01*
X162194823Y-90896721D01*
X162139185Y-90841083D01*
X162027909Y-90785445D01*
X161749719Y-90785445D01*
X161638442Y-90841083D01*
X161582804Y-90896721D01*
X161527166Y-91007998D01*
X161527166Y-91230550D01*
X161582804Y-91341826D01*
X161638442Y-91397464D01*
X161749719Y-91453102D01*
X162250461Y-89394493D02*
X161082061Y-89394493D01*
X161193338Y-88893750D02*
X161137700Y-88838112D01*
X161082061Y-88726836D01*
X161082061Y-88448645D01*
X161137700Y-88337369D01*
X161193338Y-88281731D01*
X161304614Y-88226093D01*
X161415890Y-88226093D01*
X161582804Y-88281731D01*
X162250461Y-88949388D01*
X162250461Y-88226093D01*
X162139185Y-87057693D02*
X162194823Y-87113331D01*
X162250461Y-87280245D01*
X162250461Y-87391521D01*
X162194823Y-87558436D01*
X162083547Y-87669712D01*
X161972271Y-87725350D01*
X161749719Y-87780988D01*
X161582804Y-87780988D01*
X161360252Y-87725350D01*
X161248976Y-87669712D01*
X161137700Y-87558436D01*
X161082061Y-87391521D01*
X161082061Y-87280245D01*
X161137700Y-87113331D01*
X161193338Y-87057693D01*
X161471528Y-85165998D02*
X162250461Y-85165998D01*
X161026423Y-85444188D02*
X161860995Y-85722379D01*
X161860995Y-84999083D01*
X161805357Y-84553979D02*
X161805357Y-83663769D01*
X162250461Y-83107388D02*
X161082061Y-83107388D01*
X161082061Y-82662283D01*
X161137700Y-82551007D01*
X161193338Y-82495369D01*
X161304614Y-82439731D01*
X161471528Y-82439731D01*
X161582804Y-82495369D01*
X161638442Y-82551007D01*
X161694080Y-82662283D01*
X161694080Y-83107388D01*
X162250461Y-81938988D02*
X161082061Y-81938988D01*
X162250461Y-81382607D02*
X161082061Y-81382607D01*
X162250461Y-80714950D01*
X161082061Y-80714950D01*
X161082061Y-79045807D02*
X161082061Y-78823255D01*
X161137700Y-78711979D01*
X161248976Y-78600702D01*
X161471528Y-78545064D01*
X161860995Y-78545064D01*
X162083547Y-78600702D01*
X162194823Y-78711979D01*
X162250461Y-78823255D01*
X162250461Y-79045807D01*
X162194823Y-79157083D01*
X162083547Y-79268360D01*
X161860995Y-79323998D01*
X161471528Y-79323998D01*
X161248976Y-79268360D01*
X161137700Y-79157083D01*
X161082061Y-79045807D01*
X162250461Y-77487940D02*
X162250461Y-78044321D01*
X161082061Y-78044321D01*
X161638442Y-77098474D02*
X161638442Y-76709007D01*
X162250461Y-76542093D02*
X162250461Y-77098474D01*
X161082061Y-77098474D01*
X161082061Y-76542093D01*
X162250461Y-76041350D02*
X161082061Y-76041350D01*
X161082061Y-75763160D01*
X161137700Y-75596245D01*
X161248976Y-75484969D01*
X161360252Y-75429331D01*
X161582804Y-75373693D01*
X161749719Y-75373693D01*
X161972271Y-75429331D01*
X162083547Y-75484969D01*
X162194823Y-75596245D01*
X162250461Y-75763160D01*
X162250461Y-76041350D01*
X182124692Y-109017323D02*
X182291606Y-109072961D01*
X182569797Y-109072961D01*
X182681073Y-109017323D01*
X182736711Y-108961685D01*
X182792349Y-108850409D01*
X182792349Y-108739133D01*
X182736711Y-108627857D01*
X182681073Y-108572219D01*
X182569797Y-108516580D01*
X182347244Y-108460942D01*
X182235968Y-108405304D01*
X182180330Y-108349666D01*
X182124692Y-108238390D01*
X182124692Y-108127114D01*
X182180330Y-108015838D01*
X182235968Y-107960200D01*
X182347244Y-107904561D01*
X182625435Y-107904561D01*
X182792349Y-107960200D01*
X183293092Y-109072961D02*
X183293092Y-107904561D01*
X183571282Y-107904561D01*
X183738197Y-107960200D01*
X183849473Y-108071476D01*
X183905111Y-108182752D01*
X183960749Y-108405304D01*
X183960749Y-108572219D01*
X183905111Y-108794771D01*
X183849473Y-108906047D01*
X183738197Y-109017323D01*
X183571282Y-109072961D01*
X183293092Y-109072961D01*
X184405854Y-108739133D02*
X184962235Y-108739133D01*
X184294578Y-109072961D02*
X184684044Y-107904561D01*
X185073511Y-109072961D01*
X182124692Y-106477323D02*
X182291606Y-106532961D01*
X182569797Y-106532961D01*
X182681073Y-106477323D01*
X182736711Y-106421685D01*
X182792349Y-106310409D01*
X182792349Y-106199133D01*
X182736711Y-106087857D01*
X182681073Y-106032219D01*
X182569797Y-105976580D01*
X182347244Y-105920942D01*
X182235968Y-105865304D01*
X182180330Y-105809666D01*
X182124692Y-105698390D01*
X182124692Y-105587114D01*
X182180330Y-105475838D01*
X182235968Y-105420200D01*
X182347244Y-105364561D01*
X182625435Y-105364561D01*
X182792349Y-105420200D01*
X183960749Y-106421685D02*
X183905111Y-106477323D01*
X183738197Y-106532961D01*
X183626920Y-106532961D01*
X183460006Y-106477323D01*
X183348730Y-106366047D01*
X183293092Y-106254771D01*
X183237454Y-106032219D01*
X183237454Y-105865304D01*
X183293092Y-105642752D01*
X183348730Y-105531476D01*
X183460006Y-105420200D01*
X183626920Y-105364561D01*
X183738197Y-105364561D01*
X183905111Y-105420200D01*
X183960749Y-105475838D01*
X185017873Y-106532961D02*
X184461492Y-106532961D01*
X184461492Y-105364561D01*
X182792349Y-100340200D02*
X182681073Y-100284561D01*
X182514159Y-100284561D01*
X182347244Y-100340200D01*
X182235968Y-100451476D01*
X182180330Y-100562752D01*
X182124692Y-100785304D01*
X182124692Y-100952219D01*
X182180330Y-101174771D01*
X182235968Y-101286047D01*
X182347244Y-101397323D01*
X182514159Y-101452961D01*
X182625435Y-101452961D01*
X182792349Y-101397323D01*
X182847987Y-101341685D01*
X182847987Y-100952219D01*
X182625435Y-100952219D01*
X183348730Y-101452961D02*
X183348730Y-100284561D01*
X184016387Y-101452961D01*
X184016387Y-100284561D01*
X184572768Y-101452961D02*
X184572768Y-100284561D01*
X184850959Y-100284561D01*
X185017873Y-100340200D01*
X185129149Y-100451476D01*
X185184787Y-100562752D01*
X185240425Y-100785304D01*
X185240425Y-100952219D01*
X185184787Y-101174771D01*
X185129149Y-101286047D01*
X185017873Y-101397323D01*
X184850959Y-101452961D01*
X184572768Y-101452961D01*
X182013416Y-102824561D02*
X182402882Y-103992961D01*
X182792349Y-102824561D01*
X183849473Y-103881685D02*
X183793835Y-103937323D01*
X183626920Y-103992961D01*
X183515644Y-103992961D01*
X183348730Y-103937323D01*
X183237454Y-103826047D01*
X183181816Y-103714771D01*
X183126178Y-103492219D01*
X183126178Y-103325304D01*
X183181816Y-103102752D01*
X183237454Y-102991476D01*
X183348730Y-102880200D01*
X183515644Y-102824561D01*
X183626920Y-102824561D01*
X183793835Y-102880200D01*
X183849473Y-102935838D01*
X185017873Y-103881685D02*
X184962235Y-103937323D01*
X184795320Y-103992961D01*
X184684044Y-103992961D01*
X184517130Y-103937323D01*
X184405854Y-103826047D01*
X184350216Y-103714771D01*
X184294578Y-103492219D01*
X184294578Y-103325304D01*
X184350216Y-103102752D01*
X184405854Y-102991476D01*
X184517130Y-102880200D01*
X184684044Y-102824561D01*
X184795320Y-102824561D01*
X184962235Y-102880200D01*
X185017873Y-102935838D01*
D17*
%TO.C,U2*%
X154604962Y-105690200D02*
X155144506Y-105690200D01*
X155207982Y-105658462D01*
X155239720Y-105626724D01*
X155271458Y-105563248D01*
X155271458Y-105436296D01*
X155239720Y-105372821D01*
X155207982Y-105341083D01*
X155144506Y-105309345D01*
X154604962Y-105309345D01*
X154668437Y-105023704D02*
X154636700Y-104991966D01*
X154604962Y-104928490D01*
X154604962Y-104769800D01*
X154636700Y-104706325D01*
X154668437Y-104674587D01*
X154731913Y-104642849D01*
X154795389Y-104642849D01*
X154890603Y-104674587D01*
X155271458Y-105055441D01*
X155271458Y-104642849D01*
D18*
%TO.C,C1*%
X156339313Y-105124039D02*
X156306321Y-105157031D01*
X156207345Y-105190023D01*
X156141361Y-105190023D01*
X156042385Y-105157031D01*
X155976401Y-105091047D01*
X155943409Y-105025063D01*
X155910417Y-104893095D01*
X155910417Y-104794120D01*
X155943409Y-104662152D01*
X155976401Y-104596168D01*
X156042385Y-104530184D01*
X156141361Y-104497192D01*
X156207345Y-104497192D01*
X156306321Y-104530184D01*
X156339313Y-104563176D01*
X156999152Y-105190023D02*
X156603248Y-105190023D01*
X156801200Y-105190023D02*
X156801200Y-104497192D01*
X156735216Y-104596168D01*
X156669232Y-104662152D01*
X156603248Y-104695144D01*
%TO.C,C2*%
X150839313Y-98124039D02*
X150806321Y-98157031D01*
X150707345Y-98190023D01*
X150641361Y-98190023D01*
X150542385Y-98157031D01*
X150476401Y-98091047D01*
X150443409Y-98025063D01*
X150410417Y-97893095D01*
X150410417Y-97794120D01*
X150443409Y-97662152D01*
X150476401Y-97596168D01*
X150542385Y-97530184D01*
X150641361Y-97497192D01*
X150707345Y-97497192D01*
X150806321Y-97530184D01*
X150839313Y-97563176D01*
X151103248Y-97563176D02*
X151136240Y-97530184D01*
X151202224Y-97497192D01*
X151367184Y-97497192D01*
X151433168Y-97530184D01*
X151466160Y-97563176D01*
X151499152Y-97629160D01*
X151499152Y-97695144D01*
X151466160Y-97794120D01*
X151070256Y-98190023D01*
X151499152Y-98190023D01*
%TO.C,C3*%
X144861539Y-101405386D02*
X144894531Y-101438378D01*
X144927523Y-101537354D01*
X144927523Y-101603338D01*
X144894531Y-101702314D01*
X144828547Y-101768298D01*
X144762563Y-101801290D01*
X144630595Y-101834282D01*
X144531620Y-101834282D01*
X144399652Y-101801290D01*
X144333668Y-101768298D01*
X144267684Y-101702314D01*
X144234692Y-101603338D01*
X144234692Y-101537354D01*
X144267684Y-101438378D01*
X144300676Y-101405386D01*
X144234692Y-101174443D02*
X144234692Y-100745547D01*
X144498628Y-100976491D01*
X144498628Y-100877515D01*
X144531620Y-100811531D01*
X144564612Y-100778539D01*
X144630595Y-100745547D01*
X144795555Y-100745547D01*
X144861539Y-100778539D01*
X144894531Y-100811531D01*
X144927523Y-100877515D01*
X144927523Y-101075467D01*
X144894531Y-101141451D01*
X144861539Y-101174443D01*
%TO.C,C4*%
X146615539Y-105332756D02*
X146648531Y-105365748D01*
X146681523Y-105464724D01*
X146681523Y-105530708D01*
X146648531Y-105629684D01*
X146582547Y-105695668D01*
X146516563Y-105728660D01*
X146384595Y-105761652D01*
X146285620Y-105761652D01*
X146153652Y-105728660D01*
X146087668Y-105695668D01*
X146021684Y-105629684D01*
X145988692Y-105530708D01*
X145988692Y-105464724D01*
X146021684Y-105365748D01*
X146054676Y-105332756D01*
X146219636Y-104738901D02*
X146681523Y-104738901D01*
X145955700Y-104903861D02*
X146450579Y-105068821D01*
X146450579Y-104639925D01*
%TO.C,C5*%
X146615539Y-109332756D02*
X146648531Y-109365748D01*
X146681523Y-109464724D01*
X146681523Y-109530708D01*
X146648531Y-109629684D01*
X146582547Y-109695668D01*
X146516563Y-109728660D01*
X146384595Y-109761652D01*
X146285620Y-109761652D01*
X146153652Y-109728660D01*
X146087668Y-109695668D01*
X146021684Y-109629684D01*
X145988692Y-109530708D01*
X145988692Y-109464724D01*
X146021684Y-109365748D01*
X146054676Y-109332756D01*
X145988692Y-108705909D02*
X145988692Y-109035829D01*
X146318612Y-109068821D01*
X146285620Y-109035829D01*
X146252628Y-108969845D01*
X146252628Y-108804885D01*
X146285620Y-108738901D01*
X146318612Y-108705909D01*
X146384595Y-108672917D01*
X146549555Y-108672917D01*
X146615539Y-108705909D01*
X146648531Y-108738901D01*
X146681523Y-108804885D01*
X146681523Y-108969845D01*
X146648531Y-109035829D01*
X146615539Y-109068821D01*
%TO.C,R1*%
X159181523Y-99332756D02*
X158851604Y-99563700D01*
X159181523Y-99728660D02*
X158488692Y-99728660D01*
X158488692Y-99464724D01*
X158521684Y-99398740D01*
X158554676Y-99365748D01*
X158620660Y-99332756D01*
X158719636Y-99332756D01*
X158785620Y-99365748D01*
X158818612Y-99398740D01*
X158851604Y-99464724D01*
X158851604Y-99728660D01*
X159181523Y-98672917D02*
X159181523Y-99068821D01*
X159181523Y-98870869D02*
X158488692Y-98870869D01*
X158587668Y-98936853D01*
X158653652Y-99002837D01*
X158686644Y-99068821D01*
%TO.C,R2*%
X144927523Y-99405386D02*
X144597604Y-99636330D01*
X144927523Y-99801290D02*
X144234692Y-99801290D01*
X144234692Y-99537354D01*
X144267684Y-99471370D01*
X144300676Y-99438378D01*
X144366660Y-99405386D01*
X144465636Y-99405386D01*
X144531620Y-99438378D01*
X144564612Y-99471370D01*
X144597604Y-99537354D01*
X144597604Y-99801290D01*
X144300676Y-99141451D02*
X144267684Y-99108459D01*
X144234692Y-99042475D01*
X144234692Y-98877515D01*
X144267684Y-98811531D01*
X144300676Y-98778539D01*
X144366660Y-98745547D01*
X144432644Y-98745547D01*
X144531620Y-98778539D01*
X144927523Y-99174443D01*
X144927523Y-98745547D01*
%TO.C,D1*%
X145554523Y-114169290D02*
X144861692Y-114169290D01*
X144861692Y-114004330D01*
X144894684Y-113905354D01*
X144960668Y-113839370D01*
X145026652Y-113806378D01*
X145158620Y-113773386D01*
X145257595Y-113773386D01*
X145389563Y-113806378D01*
X145455547Y-113839370D01*
X145521531Y-113905354D01*
X145554523Y-114004330D01*
X145554523Y-114169290D01*
X145554523Y-113113547D02*
X145554523Y-113509451D01*
X145554523Y-113311499D02*
X144861692Y-113311499D01*
X144960668Y-113377483D01*
X145026652Y-113443467D01*
X145059644Y-113509451D01*
%TO.C,D2*%
X149884039Y-115317023D02*
X149884039Y-114624192D01*
X150048999Y-114624192D01*
X150147975Y-114657184D01*
X150213959Y-114723168D01*
X150246951Y-114789152D01*
X150279943Y-114921120D01*
X150279943Y-115020095D01*
X150246951Y-115152063D01*
X150213959Y-115218047D01*
X150147975Y-115284031D01*
X150048999Y-115317023D01*
X149884039Y-115317023D01*
X150543878Y-114690176D02*
X150576870Y-114657184D01*
X150642854Y-114624192D01*
X150807814Y-114624192D01*
X150873798Y-114657184D01*
X150906790Y-114690176D01*
X150939782Y-114756160D01*
X150939782Y-114822144D01*
X150906790Y-114921120D01*
X150510886Y-115317023D01*
X150939782Y-115317023D01*
%TO.C,D3*%
X153384039Y-115317023D02*
X153384039Y-114624192D01*
X153548999Y-114624192D01*
X153647975Y-114657184D01*
X153713959Y-114723168D01*
X153746951Y-114789152D01*
X153779943Y-114921120D01*
X153779943Y-115020095D01*
X153746951Y-115152063D01*
X153713959Y-115218047D01*
X153647975Y-115284031D01*
X153548999Y-115317023D01*
X153384039Y-115317023D01*
X154010886Y-114624192D02*
X154439782Y-114624192D01*
X154208838Y-114888128D01*
X154307814Y-114888128D01*
X154373798Y-114921120D01*
X154406790Y-114954112D01*
X154439782Y-115020095D01*
X154439782Y-115185055D01*
X154406790Y-115251039D01*
X154373798Y-115284031D01*
X154307814Y-115317023D01*
X154109862Y-115317023D01*
X154043878Y-115284031D01*
X154010886Y-115251039D01*
%TO.C,R3*%
X155911943Y-115944023D02*
X155680999Y-115614104D01*
X155516039Y-115944023D02*
X155516039Y-115251192D01*
X155779975Y-115251192D01*
X155845959Y-115284184D01*
X155878951Y-115317176D01*
X155911943Y-115383160D01*
X155911943Y-115482136D01*
X155878951Y-115548120D01*
X155845959Y-115581112D01*
X155779975Y-115614104D01*
X155516039Y-115614104D01*
X156142886Y-115251192D02*
X156571782Y-115251192D01*
X156340838Y-115515128D01*
X156439814Y-115515128D01*
X156505798Y-115548120D01*
X156538790Y-115581112D01*
X156571782Y-115647095D01*
X156571782Y-115812055D01*
X156538790Y-115878039D01*
X156505798Y-115911031D01*
X156439814Y-115944023D01*
X156241862Y-115944023D01*
X156175878Y-115911031D01*
X156142886Y-115878039D01*
%TO.C,R4*%
X148411943Y-115944023D02*
X148180999Y-115614104D01*
X148016039Y-115944023D02*
X148016039Y-115251192D01*
X148279975Y-115251192D01*
X148345959Y-115284184D01*
X148378951Y-115317176D01*
X148411943Y-115383160D01*
X148411943Y-115482136D01*
X148378951Y-115548120D01*
X148345959Y-115581112D01*
X148279975Y-115614104D01*
X148016039Y-115614104D01*
X149005798Y-115482136D02*
X149005798Y-115944023D01*
X148840838Y-115218200D02*
X148675878Y-115713079D01*
X149104774Y-115713079D01*
%TO.C,R5*%
X151621523Y-111712756D02*
X151291604Y-111943700D01*
X151621523Y-112108660D02*
X150928692Y-112108660D01*
X150928692Y-111844724D01*
X150961684Y-111778740D01*
X150994676Y-111745748D01*
X151060660Y-111712756D01*
X151159636Y-111712756D01*
X151225620Y-111745748D01*
X151258612Y-111778740D01*
X151291604Y-111844724D01*
X151291604Y-112108660D01*
X150928692Y-111085909D02*
X150928692Y-111415829D01*
X151258612Y-111448821D01*
X151225620Y-111415829D01*
X151192628Y-111349845D01*
X151192628Y-111184885D01*
X151225620Y-111118901D01*
X151258612Y-111085909D01*
X151324595Y-111052917D01*
X151489555Y-111052917D01*
X151555539Y-111085909D01*
X151588531Y-111118901D01*
X151621523Y-111184885D01*
X151621523Y-111349845D01*
X151588531Y-111415829D01*
X151555539Y-111448821D01*
D17*
%TO.C,U1*%
X136604962Y-105690200D02*
X137144506Y-105690200D01*
X137207982Y-105658462D01*
X137239720Y-105626724D01*
X137271458Y-105563248D01*
X137271458Y-105436296D01*
X137239720Y-105372821D01*
X137207982Y-105341083D01*
X137144506Y-105309345D01*
X136604962Y-105309345D01*
X137271458Y-104642849D02*
X137271458Y-105023704D01*
X137271458Y-104833276D02*
X136604962Y-104833276D01*
X136700175Y-104896752D01*
X136763651Y-104960228D01*
X136795389Y-105023704D01*
D18*
%TO.C,C6*%
X138839313Y-105124039D02*
X138806321Y-105157031D01*
X138707345Y-105190023D01*
X138641361Y-105190023D01*
X138542385Y-105157031D01*
X138476401Y-105091047D01*
X138443409Y-105025063D01*
X138410417Y-104893095D01*
X138410417Y-104794120D01*
X138443409Y-104662152D01*
X138476401Y-104596168D01*
X138542385Y-104530184D01*
X138641361Y-104497192D01*
X138707345Y-104497192D01*
X138806321Y-104530184D01*
X138839313Y-104563176D01*
X139433168Y-104497192D02*
X139301200Y-104497192D01*
X139235216Y-104530184D01*
X139202224Y-104563176D01*
X139136240Y-104662152D01*
X139103248Y-104794120D01*
X139103248Y-105058055D01*
X139136240Y-105124039D01*
X139169232Y-105157031D01*
X139235216Y-105190023D01*
X139367184Y-105190023D01*
X139433168Y-105157031D01*
X139466160Y-105124039D01*
X139499152Y-105058055D01*
X139499152Y-104893095D01*
X139466160Y-104827112D01*
X139433168Y-104794120D01*
X139367184Y-104761128D01*
X139235216Y-104761128D01*
X139169232Y-104794120D01*
X139136240Y-104827112D01*
X139103248Y-104893095D01*
%TO.C,C7*%
X132839313Y-98124039D02*
X132806321Y-98157031D01*
X132707345Y-98190023D01*
X132641361Y-98190023D01*
X132542385Y-98157031D01*
X132476401Y-98091047D01*
X132443409Y-98025063D01*
X132410417Y-97893095D01*
X132410417Y-97794120D01*
X132443409Y-97662152D01*
X132476401Y-97596168D01*
X132542385Y-97530184D01*
X132641361Y-97497192D01*
X132707345Y-97497192D01*
X132806321Y-97530184D01*
X132839313Y-97563176D01*
X133070256Y-97497192D02*
X133532144Y-97497192D01*
X133235216Y-98190023D01*
D17*
%TO.C,C8*%
X126352292Y-101947882D02*
X126320554Y-101979620D01*
X126225341Y-102011358D01*
X126161865Y-102011358D01*
X126066651Y-101979620D01*
X126003175Y-101916144D01*
X125971437Y-101852668D01*
X125939699Y-101725716D01*
X125939699Y-101630503D01*
X125971437Y-101503551D01*
X126003175Y-101440075D01*
X126066651Y-101376600D01*
X126161865Y-101344862D01*
X126225341Y-101344862D01*
X126320554Y-101376600D01*
X126352292Y-101408337D01*
X126733147Y-101630503D02*
X126669671Y-101598765D01*
X126637933Y-101567027D01*
X126606195Y-101503551D01*
X126606195Y-101471813D01*
X126637933Y-101408337D01*
X126669671Y-101376600D01*
X126733147Y-101344862D01*
X126860099Y-101344862D01*
X126923574Y-101376600D01*
X126955312Y-101408337D01*
X126987050Y-101471813D01*
X126987050Y-101503551D01*
X126955312Y-101567027D01*
X126923574Y-101598765D01*
X126860099Y-101630503D01*
X126733147Y-101630503D01*
X126669671Y-101662241D01*
X126637933Y-101693979D01*
X126606195Y-101757454D01*
X126606195Y-101884406D01*
X126637933Y-101947882D01*
X126669671Y-101979620D01*
X126733147Y-102011358D01*
X126860099Y-102011358D01*
X126923574Y-101979620D01*
X126955312Y-101947882D01*
X126987050Y-101884406D01*
X126987050Y-101757454D01*
X126955312Y-101693979D01*
X126923574Y-101662241D01*
X126860099Y-101630503D01*
D18*
%TO.C,C9*%
X128615539Y-105332756D02*
X128648531Y-105365748D01*
X128681523Y-105464724D01*
X128681523Y-105530708D01*
X128648531Y-105629684D01*
X128582547Y-105695668D01*
X128516563Y-105728660D01*
X128384595Y-105761652D01*
X128285620Y-105761652D01*
X128153652Y-105728660D01*
X128087668Y-105695668D01*
X128021684Y-105629684D01*
X127988692Y-105530708D01*
X127988692Y-105464724D01*
X128021684Y-105365748D01*
X128054676Y-105332756D01*
X128681523Y-105002837D02*
X128681523Y-104870869D01*
X128648531Y-104804885D01*
X128615539Y-104771893D01*
X128516563Y-104705909D01*
X128384595Y-104672917D01*
X128120660Y-104672917D01*
X128054676Y-104705909D01*
X128021684Y-104738901D01*
X127988692Y-104804885D01*
X127988692Y-104936853D01*
X128021684Y-105002837D01*
X128054676Y-105035829D01*
X128120660Y-105068821D01*
X128285620Y-105068821D01*
X128351604Y-105035829D01*
X128384595Y-105002837D01*
X128417587Y-104936853D01*
X128417587Y-104804885D01*
X128384595Y-104738901D01*
X128351604Y-104705909D01*
X128285620Y-104672917D01*
%TO.C,C10*%
X128635539Y-109152756D02*
X128668531Y-109185748D01*
X128701523Y-109284724D01*
X128701523Y-109350708D01*
X128668531Y-109449684D01*
X128602547Y-109515668D01*
X128536563Y-109548660D01*
X128404595Y-109581652D01*
X128305620Y-109581652D01*
X128173652Y-109548660D01*
X128107668Y-109515668D01*
X128041684Y-109449684D01*
X128008692Y-109350708D01*
X128008692Y-109284724D01*
X128041684Y-109185748D01*
X128074676Y-109152756D01*
X128701523Y-108492917D02*
X128701523Y-108888821D01*
X128701523Y-108690869D02*
X128008692Y-108690869D01*
X128107668Y-108756853D01*
X128173652Y-108822837D01*
X128206644Y-108888821D01*
X128008692Y-108064022D02*
X128008692Y-107998038D01*
X128041684Y-107932054D01*
X128074676Y-107899062D01*
X128140660Y-107866070D01*
X128272628Y-107833078D01*
X128437587Y-107833078D01*
X128569555Y-107866070D01*
X128635539Y-107899062D01*
X128668531Y-107932054D01*
X128701523Y-107998038D01*
X128701523Y-108064022D01*
X128668531Y-108130006D01*
X128635539Y-108162998D01*
X128569555Y-108195990D01*
X128437587Y-108228982D01*
X128272628Y-108228982D01*
X128140660Y-108195990D01*
X128074676Y-108162998D01*
X128041684Y-108130006D01*
X128008692Y-108064022D01*
%TO.C,R6*%
X141681523Y-99332756D02*
X141351604Y-99563700D01*
X141681523Y-99728660D02*
X140988692Y-99728660D01*
X140988692Y-99464724D01*
X141021684Y-99398740D01*
X141054676Y-99365748D01*
X141120660Y-99332756D01*
X141219636Y-99332756D01*
X141285620Y-99365748D01*
X141318612Y-99398740D01*
X141351604Y-99464724D01*
X141351604Y-99728660D01*
X140988692Y-98738901D02*
X140988692Y-98870869D01*
X141021684Y-98936853D01*
X141054676Y-98969845D01*
X141153652Y-99035829D01*
X141285620Y-99068821D01*
X141549555Y-99068821D01*
X141615539Y-99035829D01*
X141648531Y-99002837D01*
X141681523Y-98936853D01*
X141681523Y-98804885D01*
X141648531Y-98738901D01*
X141615539Y-98705909D01*
X141549555Y-98672917D01*
X141384595Y-98672917D01*
X141318612Y-98705909D01*
X141285620Y-98738901D01*
X141252628Y-98804885D01*
X141252628Y-98936853D01*
X141285620Y-99002837D01*
X141318612Y-99035829D01*
X141384595Y-99068821D01*
%TO.C,R7*%
X127681523Y-99332756D02*
X127351604Y-99563700D01*
X127681523Y-99728660D02*
X126988692Y-99728660D01*
X126988692Y-99464724D01*
X127021684Y-99398740D01*
X127054676Y-99365748D01*
X127120660Y-99332756D01*
X127219636Y-99332756D01*
X127285620Y-99365748D01*
X127318612Y-99398740D01*
X127351604Y-99464724D01*
X127351604Y-99728660D01*
X126988692Y-99101813D02*
X126988692Y-98639925D01*
X127681523Y-98936853D01*
%TO.C,D4*%
X127054523Y-114169290D02*
X126361692Y-114169290D01*
X126361692Y-114004330D01*
X126394684Y-113905354D01*
X126460668Y-113839370D01*
X126526652Y-113806378D01*
X126658620Y-113773386D01*
X126757595Y-113773386D01*
X126889563Y-113806378D01*
X126955547Y-113839370D01*
X127021531Y-113905354D01*
X127054523Y-114004330D01*
X127054523Y-114169290D01*
X126592636Y-113179531D02*
X127054523Y-113179531D01*
X126328700Y-113344491D02*
X126823579Y-113509451D01*
X126823579Y-113080555D01*
%TO.C,D5*%
X131884039Y-115317023D02*
X131884039Y-114624192D01*
X132048999Y-114624192D01*
X132147975Y-114657184D01*
X132213959Y-114723168D01*
X132246951Y-114789152D01*
X132279943Y-114921120D01*
X132279943Y-115020095D01*
X132246951Y-115152063D01*
X132213959Y-115218047D01*
X132147975Y-115284031D01*
X132048999Y-115317023D01*
X131884039Y-115317023D01*
X132906790Y-114624192D02*
X132576870Y-114624192D01*
X132543878Y-114954112D01*
X132576870Y-114921120D01*
X132642854Y-114888128D01*
X132807814Y-114888128D01*
X132873798Y-114921120D01*
X132906790Y-114954112D01*
X132939782Y-115020095D01*
X132939782Y-115185055D01*
X132906790Y-115251039D01*
X132873798Y-115284031D01*
X132807814Y-115317023D01*
X132642854Y-115317023D01*
X132576870Y-115284031D01*
X132543878Y-115251039D01*
%TO.C,D6*%
X135384039Y-115317023D02*
X135384039Y-114624192D01*
X135548999Y-114624192D01*
X135647975Y-114657184D01*
X135713959Y-114723168D01*
X135746951Y-114789152D01*
X135779943Y-114921120D01*
X135779943Y-115020095D01*
X135746951Y-115152063D01*
X135713959Y-115218047D01*
X135647975Y-115284031D01*
X135548999Y-115317023D01*
X135384039Y-115317023D01*
X136373798Y-114624192D02*
X136241830Y-114624192D01*
X136175846Y-114657184D01*
X136142854Y-114690176D01*
X136076870Y-114789152D01*
X136043878Y-114921120D01*
X136043878Y-115185055D01*
X136076870Y-115251039D01*
X136109862Y-115284031D01*
X136175846Y-115317023D01*
X136307814Y-115317023D01*
X136373798Y-115284031D01*
X136406790Y-115251039D01*
X136439782Y-115185055D01*
X136439782Y-115020095D01*
X136406790Y-114954112D01*
X136373798Y-114921120D01*
X136307814Y-114888128D01*
X136175846Y-114888128D01*
X136109862Y-114921120D01*
X136076870Y-114954112D01*
X136043878Y-115020095D01*
%TO.C,R8*%
X137911943Y-115944023D02*
X137680999Y-115614104D01*
X137516039Y-115944023D02*
X137516039Y-115251192D01*
X137779975Y-115251192D01*
X137845959Y-115284184D01*
X137878951Y-115317176D01*
X137911943Y-115383160D01*
X137911943Y-115482136D01*
X137878951Y-115548120D01*
X137845959Y-115581112D01*
X137779975Y-115614104D01*
X137516039Y-115614104D01*
X138307846Y-115548120D02*
X138241862Y-115515128D01*
X138208870Y-115482136D01*
X138175878Y-115416152D01*
X138175878Y-115383160D01*
X138208870Y-115317176D01*
X138241862Y-115284184D01*
X138307846Y-115251192D01*
X138439814Y-115251192D01*
X138505798Y-115284184D01*
X138538790Y-115317176D01*
X138571782Y-115383160D01*
X138571782Y-115416152D01*
X138538790Y-115482136D01*
X138505798Y-115515128D01*
X138439814Y-115548120D01*
X138307846Y-115548120D01*
X138241862Y-115581112D01*
X138208870Y-115614104D01*
X138175878Y-115680087D01*
X138175878Y-115812055D01*
X138208870Y-115878039D01*
X138241862Y-115911031D01*
X138307846Y-115944023D01*
X138439814Y-115944023D01*
X138505798Y-115911031D01*
X138538790Y-115878039D01*
X138571782Y-115812055D01*
X138571782Y-115680087D01*
X138538790Y-115614104D01*
X138505798Y-115581112D01*
X138439814Y-115548120D01*
%TO.C,R9*%
X129911943Y-115944023D02*
X129680999Y-115614104D01*
X129516039Y-115944023D02*
X129516039Y-115251192D01*
X129779975Y-115251192D01*
X129845959Y-115284184D01*
X129878951Y-115317176D01*
X129911943Y-115383160D01*
X129911943Y-115482136D01*
X129878951Y-115548120D01*
X129845959Y-115581112D01*
X129779975Y-115614104D01*
X129516039Y-115614104D01*
X130241862Y-115944023D02*
X130373830Y-115944023D01*
X130439814Y-115911031D01*
X130472806Y-115878039D01*
X130538790Y-115779063D01*
X130571782Y-115647095D01*
X130571782Y-115383160D01*
X130538790Y-115317176D01*
X130505798Y-115284184D01*
X130439814Y-115251192D01*
X130307846Y-115251192D01*
X130241862Y-115284184D01*
X130208870Y-115317176D01*
X130175878Y-115383160D01*
X130175878Y-115548120D01*
X130208870Y-115614104D01*
X130241862Y-115647095D01*
X130307846Y-115680087D01*
X130439814Y-115680087D01*
X130505798Y-115647095D01*
X130538790Y-115614104D01*
X130571782Y-115548120D01*
D17*
%TO.C,R10*%
X126717534Y-112011358D02*
X126495369Y-111693979D01*
X126336679Y-112011358D02*
X126336679Y-111344862D01*
X126590582Y-111344862D01*
X126654058Y-111376600D01*
X126685796Y-111408337D01*
X126717534Y-111471813D01*
X126717534Y-111567027D01*
X126685796Y-111630503D01*
X126654058Y-111662241D01*
X126590582Y-111693979D01*
X126336679Y-111693979D01*
X127352292Y-112011358D02*
X126971437Y-112011358D01*
X127161865Y-112011358D02*
X127161865Y-111344862D01*
X127098389Y-111440075D01*
X127034913Y-111503551D01*
X126971437Y-111535289D01*
X127764885Y-111344862D02*
X127828361Y-111344862D01*
X127891837Y-111376600D01*
X127923574Y-111408337D01*
X127955312Y-111471813D01*
X127987050Y-111598765D01*
X127987050Y-111757454D01*
X127955312Y-111884406D01*
X127923574Y-111947882D01*
X127891837Y-111979620D01*
X127828361Y-112011358D01*
X127764885Y-112011358D01*
X127701409Y-111979620D01*
X127669671Y-111947882D01*
X127637933Y-111884406D01*
X127606195Y-111757454D01*
X127606195Y-111598765D01*
X127637933Y-111471813D01*
X127669671Y-111408337D01*
X127701409Y-111376600D01*
X127764885Y-111344862D01*
%TO.C,U3*%
X118604962Y-105690200D02*
X119144506Y-105690200D01*
X119207982Y-105658462D01*
X119239720Y-105626724D01*
X119271458Y-105563248D01*
X119271458Y-105436296D01*
X119239720Y-105372821D01*
X119207982Y-105341083D01*
X119144506Y-105309345D01*
X118604962Y-105309345D01*
X118604962Y-105055441D02*
X118604962Y-104642849D01*
X118858865Y-104865014D01*
X118858865Y-104769800D01*
X118890603Y-104706325D01*
X118922341Y-104674587D01*
X118985816Y-104642849D01*
X119144506Y-104642849D01*
X119207982Y-104674587D01*
X119239720Y-104706325D01*
X119271458Y-104769800D01*
X119271458Y-104960228D01*
X119239720Y-105023704D01*
X119207982Y-105055441D01*
D18*
%TO.C,C11*%
X120179474Y-105124039D02*
X120146482Y-105157031D01*
X120047506Y-105190023D01*
X119981522Y-105190023D01*
X119882546Y-105157031D01*
X119816562Y-105091047D01*
X119783570Y-105025063D01*
X119750578Y-104893095D01*
X119750578Y-104794120D01*
X119783570Y-104662152D01*
X119816562Y-104596168D01*
X119882546Y-104530184D01*
X119981522Y-104497192D01*
X120047506Y-104497192D01*
X120146482Y-104530184D01*
X120179474Y-104563176D01*
X120839313Y-105190023D02*
X120443409Y-105190023D01*
X120641361Y-105190023D02*
X120641361Y-104497192D01*
X120575377Y-104596168D01*
X120509393Y-104662152D01*
X120443409Y-104695144D01*
X121499152Y-105190023D02*
X121103248Y-105190023D01*
X121301200Y-105190023D02*
X121301200Y-104497192D01*
X121235216Y-104596168D01*
X121169232Y-104662152D01*
X121103248Y-104695144D01*
%TO.C,C12*%
X114679474Y-98124039D02*
X114646482Y-98157031D01*
X114547506Y-98190023D01*
X114481522Y-98190023D01*
X114382546Y-98157031D01*
X114316562Y-98091047D01*
X114283570Y-98025063D01*
X114250578Y-97893095D01*
X114250578Y-97794120D01*
X114283570Y-97662152D01*
X114316562Y-97596168D01*
X114382546Y-97530184D01*
X114481522Y-97497192D01*
X114547506Y-97497192D01*
X114646482Y-97530184D01*
X114679474Y-97563176D01*
X115339313Y-98190023D02*
X114943409Y-98190023D01*
X115141361Y-98190023D02*
X115141361Y-97497192D01*
X115075377Y-97596168D01*
X115009393Y-97662152D01*
X114943409Y-97695144D01*
X115603248Y-97563176D02*
X115636240Y-97530184D01*
X115702224Y-97497192D01*
X115867184Y-97497192D01*
X115933168Y-97530184D01*
X115966160Y-97563176D01*
X115999152Y-97629160D01*
X115999152Y-97695144D01*
X115966160Y-97794120D01*
X115570256Y-98190023D01*
X115999152Y-98190023D01*
D17*
%TO.C,C13*%
X107717534Y-101947882D02*
X107685796Y-101979620D01*
X107590582Y-102011358D01*
X107527107Y-102011358D01*
X107431893Y-101979620D01*
X107368417Y-101916144D01*
X107336679Y-101852668D01*
X107304941Y-101725716D01*
X107304941Y-101630503D01*
X107336679Y-101503551D01*
X107368417Y-101440075D01*
X107431893Y-101376600D01*
X107527107Y-101344862D01*
X107590582Y-101344862D01*
X107685796Y-101376600D01*
X107717534Y-101408337D01*
X108352292Y-102011358D02*
X107971437Y-102011358D01*
X108161865Y-102011358D02*
X108161865Y-101344862D01*
X108098389Y-101440075D01*
X108034913Y-101503551D01*
X107971437Y-101535289D01*
X108574458Y-101344862D02*
X108987050Y-101344862D01*
X108764885Y-101598765D01*
X108860099Y-101598765D01*
X108923574Y-101630503D01*
X108955312Y-101662241D01*
X108987050Y-101725716D01*
X108987050Y-101884406D01*
X108955312Y-101947882D01*
X108923574Y-101979620D01*
X108860099Y-102011358D01*
X108669671Y-102011358D01*
X108606195Y-101979620D01*
X108574458Y-101947882D01*
D18*
%TO.C,C14*%
X110615539Y-105332756D02*
X110648531Y-105365748D01*
X110681523Y-105464724D01*
X110681523Y-105530708D01*
X110648531Y-105629684D01*
X110582547Y-105695668D01*
X110516563Y-105728660D01*
X110384595Y-105761652D01*
X110285620Y-105761652D01*
X110153652Y-105728660D01*
X110087668Y-105695668D01*
X110021684Y-105629684D01*
X109988692Y-105530708D01*
X109988692Y-105464724D01*
X110021684Y-105365748D01*
X110054676Y-105332756D01*
X110681523Y-104672917D02*
X110681523Y-105068821D01*
X110681523Y-104870869D02*
X109988692Y-104870869D01*
X110087668Y-104936853D01*
X110153652Y-105002837D01*
X110186644Y-105068821D01*
X110219636Y-104079062D02*
X110681523Y-104079062D01*
X109955700Y-104244022D02*
X110450579Y-104408982D01*
X110450579Y-103980086D01*
%TO.C,C15*%
X110615539Y-109332756D02*
X110648531Y-109365748D01*
X110681523Y-109464724D01*
X110681523Y-109530708D01*
X110648531Y-109629684D01*
X110582547Y-109695668D01*
X110516563Y-109728660D01*
X110384595Y-109761652D01*
X110285620Y-109761652D01*
X110153652Y-109728660D01*
X110087668Y-109695668D01*
X110021684Y-109629684D01*
X109988692Y-109530708D01*
X109988692Y-109464724D01*
X110021684Y-109365748D01*
X110054676Y-109332756D01*
X110681523Y-108672917D02*
X110681523Y-109068821D01*
X110681523Y-108870869D02*
X109988692Y-108870869D01*
X110087668Y-108936853D01*
X110153652Y-109002837D01*
X110186644Y-109068821D01*
X109988692Y-108046070D02*
X109988692Y-108375990D01*
X110318612Y-108408982D01*
X110285620Y-108375990D01*
X110252628Y-108310006D01*
X110252628Y-108145046D01*
X110285620Y-108079062D01*
X110318612Y-108046070D01*
X110384595Y-108013078D01*
X110549555Y-108013078D01*
X110615539Y-108046070D01*
X110648531Y-108079062D01*
X110681523Y-108145046D01*
X110681523Y-108310006D01*
X110648531Y-108375990D01*
X110615539Y-108408982D01*
%TO.C,R11*%
X123181523Y-99832756D02*
X122851604Y-100063700D01*
X123181523Y-100228660D02*
X122488692Y-100228660D01*
X122488692Y-99964724D01*
X122521684Y-99898740D01*
X122554676Y-99865748D01*
X122620660Y-99832756D01*
X122719636Y-99832756D01*
X122785620Y-99865748D01*
X122818612Y-99898740D01*
X122851604Y-99964724D01*
X122851604Y-100228660D01*
X123181523Y-99172917D02*
X123181523Y-99568821D01*
X123181523Y-99370869D02*
X122488692Y-99370869D01*
X122587668Y-99436853D01*
X122653652Y-99502837D01*
X122686644Y-99568821D01*
X123181523Y-98513078D02*
X123181523Y-98908982D01*
X123181523Y-98711030D02*
X122488692Y-98711030D01*
X122587668Y-98777014D01*
X122653652Y-98842998D01*
X122686644Y-98908982D01*
%TO.C,R12*%
X109681523Y-99832756D02*
X109351604Y-100063700D01*
X109681523Y-100228660D02*
X108988692Y-100228660D01*
X108988692Y-99964724D01*
X109021684Y-99898740D01*
X109054676Y-99865748D01*
X109120660Y-99832756D01*
X109219636Y-99832756D01*
X109285620Y-99865748D01*
X109318612Y-99898740D01*
X109351604Y-99964724D01*
X109351604Y-100228660D01*
X109681523Y-99172917D02*
X109681523Y-99568821D01*
X109681523Y-99370869D02*
X108988692Y-99370869D01*
X109087668Y-99436853D01*
X109153652Y-99502837D01*
X109186644Y-99568821D01*
X109054676Y-98908982D02*
X109021684Y-98875990D01*
X108988692Y-98810006D01*
X108988692Y-98645046D01*
X109021684Y-98579062D01*
X109054676Y-98546070D01*
X109120660Y-98513078D01*
X109186644Y-98513078D01*
X109285620Y-98546070D01*
X109681523Y-98941974D01*
X109681523Y-98513078D01*
%TO.C,D7*%
X108714523Y-114149290D02*
X108021692Y-114149290D01*
X108021692Y-113984330D01*
X108054684Y-113885354D01*
X108120668Y-113819370D01*
X108186652Y-113786378D01*
X108318620Y-113753386D01*
X108417595Y-113753386D01*
X108549563Y-113786378D01*
X108615547Y-113819370D01*
X108681531Y-113885354D01*
X108714523Y-113984330D01*
X108714523Y-114149290D01*
X108021692Y-113522443D02*
X108021692Y-113060555D01*
X108714523Y-113357483D01*
%TO.C,D8*%
X114384039Y-115317023D02*
X114384039Y-114624192D01*
X114548999Y-114624192D01*
X114647975Y-114657184D01*
X114713959Y-114723168D01*
X114746951Y-114789152D01*
X114779943Y-114921120D01*
X114779943Y-115020095D01*
X114746951Y-115152063D01*
X114713959Y-115218047D01*
X114647975Y-115284031D01*
X114548999Y-115317023D01*
X114384039Y-115317023D01*
X115175846Y-114921120D02*
X115109862Y-114888128D01*
X115076870Y-114855136D01*
X115043878Y-114789152D01*
X115043878Y-114756160D01*
X115076870Y-114690176D01*
X115109862Y-114657184D01*
X115175846Y-114624192D01*
X115307814Y-114624192D01*
X115373798Y-114657184D01*
X115406790Y-114690176D01*
X115439782Y-114756160D01*
X115439782Y-114789152D01*
X115406790Y-114855136D01*
X115373798Y-114888128D01*
X115307814Y-114921120D01*
X115175846Y-114921120D01*
X115109862Y-114954112D01*
X115076870Y-114987104D01*
X115043878Y-115053087D01*
X115043878Y-115185055D01*
X115076870Y-115251039D01*
X115109862Y-115284031D01*
X115175846Y-115317023D01*
X115307814Y-115317023D01*
X115373798Y-115284031D01*
X115406790Y-115251039D01*
X115439782Y-115185055D01*
X115439782Y-115053087D01*
X115406790Y-114987104D01*
X115373798Y-114954112D01*
X115307814Y-114921120D01*
%TO.C,D9*%
X117384039Y-115317023D02*
X117384039Y-114624192D01*
X117548999Y-114624192D01*
X117647975Y-114657184D01*
X117713959Y-114723168D01*
X117746951Y-114789152D01*
X117779943Y-114921120D01*
X117779943Y-115020095D01*
X117746951Y-115152063D01*
X117713959Y-115218047D01*
X117647975Y-115284031D01*
X117548999Y-115317023D01*
X117384039Y-115317023D01*
X118109862Y-115317023D02*
X118241830Y-115317023D01*
X118307814Y-115284031D01*
X118340806Y-115251039D01*
X118406790Y-115152063D01*
X118439782Y-115020095D01*
X118439782Y-114756160D01*
X118406790Y-114690176D01*
X118373798Y-114657184D01*
X118307814Y-114624192D01*
X118175846Y-114624192D01*
X118109862Y-114657184D01*
X118076870Y-114690176D01*
X118043878Y-114756160D01*
X118043878Y-114921120D01*
X118076870Y-114987104D01*
X118109862Y-115020095D01*
X118175846Y-115053087D01*
X118307814Y-115053087D01*
X118373798Y-115020095D01*
X118406790Y-114987104D01*
X118439782Y-114921120D01*
%TO.C,R13*%
X119911943Y-115944023D02*
X119680999Y-115614104D01*
X119516039Y-115944023D02*
X119516039Y-115251192D01*
X119779975Y-115251192D01*
X119845959Y-115284184D01*
X119878951Y-115317176D01*
X119911943Y-115383160D01*
X119911943Y-115482136D01*
X119878951Y-115548120D01*
X119845959Y-115581112D01*
X119779975Y-115614104D01*
X119516039Y-115614104D01*
X120571782Y-115944023D02*
X120175878Y-115944023D01*
X120373830Y-115944023D02*
X120373830Y-115251192D01*
X120307846Y-115350168D01*
X120241862Y-115416152D01*
X120175878Y-115449144D01*
X120802725Y-115251192D02*
X121231621Y-115251192D01*
X121000677Y-115515128D01*
X121099653Y-115515128D01*
X121165637Y-115548120D01*
X121198629Y-115581112D01*
X121231621Y-115647095D01*
X121231621Y-115812055D01*
X121198629Y-115878039D01*
X121165637Y-115911031D01*
X121099653Y-115944023D01*
X120901701Y-115944023D01*
X120835717Y-115911031D01*
X120802725Y-115878039D01*
%TO.C,R14*%
X111911943Y-115944023D02*
X111680999Y-115614104D01*
X111516039Y-115944023D02*
X111516039Y-115251192D01*
X111779975Y-115251192D01*
X111845959Y-115284184D01*
X111878951Y-115317176D01*
X111911943Y-115383160D01*
X111911943Y-115482136D01*
X111878951Y-115548120D01*
X111845959Y-115581112D01*
X111779975Y-115614104D01*
X111516039Y-115614104D01*
X112571782Y-115944023D02*
X112175878Y-115944023D01*
X112373830Y-115944023D02*
X112373830Y-115251192D01*
X112307846Y-115350168D01*
X112241862Y-115416152D01*
X112175878Y-115449144D01*
X113165637Y-115482136D02*
X113165637Y-115944023D01*
X113000677Y-115218200D02*
X112835717Y-115713079D01*
X113264613Y-115713079D01*
D17*
%TO.C,R15*%
X108737534Y-112211358D02*
X108515369Y-111893979D01*
X108356679Y-112211358D02*
X108356679Y-111544862D01*
X108610582Y-111544862D01*
X108674058Y-111576600D01*
X108705796Y-111608337D01*
X108737534Y-111671813D01*
X108737534Y-111767027D01*
X108705796Y-111830503D01*
X108674058Y-111862241D01*
X108610582Y-111893979D01*
X108356679Y-111893979D01*
X109372292Y-112211358D02*
X108991437Y-112211358D01*
X109181865Y-112211358D02*
X109181865Y-111544862D01*
X109118389Y-111640075D01*
X109054913Y-111703551D01*
X108991437Y-111735289D01*
X109975312Y-111544862D02*
X109657933Y-111544862D01*
X109626195Y-111862241D01*
X109657933Y-111830503D01*
X109721409Y-111798765D01*
X109880099Y-111798765D01*
X109943574Y-111830503D01*
X109975312Y-111862241D01*
X110007050Y-111925716D01*
X110007050Y-112084406D01*
X109975312Y-112147882D01*
X109943574Y-112179620D01*
X109880099Y-112211358D01*
X109721409Y-112211358D01*
X109657933Y-112179620D01*
X109626195Y-112147882D01*
%TO.C,U4*%
X100604962Y-105690200D02*
X101144506Y-105690200D01*
X101207982Y-105658462D01*
X101239720Y-105626724D01*
X101271458Y-105563248D01*
X101271458Y-105436296D01*
X101239720Y-105372821D01*
X101207982Y-105341083D01*
X101144506Y-105309345D01*
X100604962Y-105309345D01*
X100827127Y-104706325D02*
X101271458Y-104706325D01*
X100573224Y-104865014D02*
X101049292Y-105023704D01*
X101049292Y-104611111D01*
D18*
%TO.C,C16*%
X102179474Y-105124039D02*
X102146482Y-105157031D01*
X102047506Y-105190023D01*
X101981522Y-105190023D01*
X101882546Y-105157031D01*
X101816562Y-105091047D01*
X101783570Y-105025063D01*
X101750578Y-104893095D01*
X101750578Y-104794120D01*
X101783570Y-104662152D01*
X101816562Y-104596168D01*
X101882546Y-104530184D01*
X101981522Y-104497192D01*
X102047506Y-104497192D01*
X102146482Y-104530184D01*
X102179474Y-104563176D01*
X102839313Y-105190023D02*
X102443409Y-105190023D01*
X102641361Y-105190023D02*
X102641361Y-104497192D01*
X102575377Y-104596168D01*
X102509393Y-104662152D01*
X102443409Y-104695144D01*
X103433168Y-104497192D02*
X103301200Y-104497192D01*
X103235216Y-104530184D01*
X103202224Y-104563176D01*
X103136240Y-104662152D01*
X103103248Y-104794120D01*
X103103248Y-105058055D01*
X103136240Y-105124039D01*
X103169232Y-105157031D01*
X103235216Y-105190023D01*
X103367184Y-105190023D01*
X103433168Y-105157031D01*
X103466160Y-105124039D01*
X103499152Y-105058055D01*
X103499152Y-104893095D01*
X103466160Y-104827112D01*
X103433168Y-104794120D01*
X103367184Y-104761128D01*
X103235216Y-104761128D01*
X103169232Y-104794120D01*
X103136240Y-104827112D01*
X103103248Y-104893095D01*
%TO.C,C17*%
X96679474Y-98124039D02*
X96646482Y-98157031D01*
X96547506Y-98190023D01*
X96481522Y-98190023D01*
X96382546Y-98157031D01*
X96316562Y-98091047D01*
X96283570Y-98025063D01*
X96250578Y-97893095D01*
X96250578Y-97794120D01*
X96283570Y-97662152D01*
X96316562Y-97596168D01*
X96382546Y-97530184D01*
X96481522Y-97497192D01*
X96547506Y-97497192D01*
X96646482Y-97530184D01*
X96679474Y-97563176D01*
X97339313Y-98190023D02*
X96943409Y-98190023D01*
X97141361Y-98190023D02*
X97141361Y-97497192D01*
X97075377Y-97596168D01*
X97009393Y-97662152D01*
X96943409Y-97695144D01*
X97570256Y-97497192D02*
X98032144Y-97497192D01*
X97735216Y-98190023D01*
%TO.C,C18*%
X95361539Y-102065225D02*
X95394531Y-102098217D01*
X95427523Y-102197193D01*
X95427523Y-102263177D01*
X95394531Y-102362153D01*
X95328547Y-102428137D01*
X95262563Y-102461129D01*
X95130595Y-102494121D01*
X95031620Y-102494121D01*
X94899652Y-102461129D01*
X94833668Y-102428137D01*
X94767684Y-102362153D01*
X94734692Y-102263177D01*
X94734692Y-102197193D01*
X94767684Y-102098217D01*
X94800676Y-102065225D01*
X95427523Y-101405386D02*
X95427523Y-101801290D01*
X95427523Y-101603338D02*
X94734692Y-101603338D01*
X94833668Y-101669322D01*
X94899652Y-101735306D01*
X94932644Y-101801290D01*
X95031620Y-101009483D02*
X94998628Y-101075467D01*
X94965636Y-101108459D01*
X94899652Y-101141451D01*
X94866660Y-101141451D01*
X94800676Y-101108459D01*
X94767684Y-101075467D01*
X94734692Y-101009483D01*
X94734692Y-100877515D01*
X94767684Y-100811531D01*
X94800676Y-100778539D01*
X94866660Y-100745547D01*
X94899652Y-100745547D01*
X94965636Y-100778539D01*
X94998628Y-100811531D01*
X95031620Y-100877515D01*
X95031620Y-101009483D01*
X95064612Y-101075467D01*
X95097604Y-101108459D01*
X95163587Y-101141451D01*
X95295555Y-101141451D01*
X95361539Y-101108459D01*
X95394531Y-101075467D01*
X95427523Y-101009483D01*
X95427523Y-100877515D01*
X95394531Y-100811531D01*
X95361539Y-100778539D01*
X95295555Y-100745547D01*
X95163587Y-100745547D01*
X95097604Y-100778539D01*
X95064612Y-100811531D01*
X95031620Y-100877515D01*
%TO.C,C19*%
X91861539Y-105565225D02*
X91894531Y-105598217D01*
X91927523Y-105697193D01*
X91927523Y-105763177D01*
X91894531Y-105862153D01*
X91828547Y-105928137D01*
X91762563Y-105961129D01*
X91630595Y-105994121D01*
X91531620Y-105994121D01*
X91399652Y-105961129D01*
X91333668Y-105928137D01*
X91267684Y-105862153D01*
X91234692Y-105763177D01*
X91234692Y-105697193D01*
X91267684Y-105598217D01*
X91300676Y-105565225D01*
X91927523Y-104905386D02*
X91927523Y-105301290D01*
X91927523Y-105103338D02*
X91234692Y-105103338D01*
X91333668Y-105169322D01*
X91399652Y-105235306D01*
X91432644Y-105301290D01*
X91927523Y-104575467D02*
X91927523Y-104443499D01*
X91894531Y-104377515D01*
X91861539Y-104344523D01*
X91762563Y-104278539D01*
X91630595Y-104245547D01*
X91366660Y-104245547D01*
X91300676Y-104278539D01*
X91267684Y-104311531D01*
X91234692Y-104377515D01*
X91234692Y-104509483D01*
X91267684Y-104575467D01*
X91300676Y-104608459D01*
X91366660Y-104641451D01*
X91531620Y-104641451D01*
X91597604Y-104608459D01*
X91630595Y-104575467D01*
X91663587Y-104509483D01*
X91663587Y-104377515D01*
X91630595Y-104311531D01*
X91597604Y-104278539D01*
X91531620Y-104245547D01*
%TO.C,C20*%
X92615539Y-109332756D02*
X92648531Y-109365748D01*
X92681523Y-109464724D01*
X92681523Y-109530708D01*
X92648531Y-109629684D01*
X92582547Y-109695668D01*
X92516563Y-109728660D01*
X92384595Y-109761652D01*
X92285620Y-109761652D01*
X92153652Y-109728660D01*
X92087668Y-109695668D01*
X92021684Y-109629684D01*
X91988692Y-109530708D01*
X91988692Y-109464724D01*
X92021684Y-109365748D01*
X92054676Y-109332756D01*
X92054676Y-109068821D02*
X92021684Y-109035829D01*
X91988692Y-108969845D01*
X91988692Y-108804885D01*
X92021684Y-108738901D01*
X92054676Y-108705909D01*
X92120660Y-108672917D01*
X92186644Y-108672917D01*
X92285620Y-108705909D01*
X92681523Y-109101813D01*
X92681523Y-108672917D01*
X91988692Y-108244022D02*
X91988692Y-108178038D01*
X92021684Y-108112054D01*
X92054676Y-108079062D01*
X92120660Y-108046070D01*
X92252628Y-108013078D01*
X92417587Y-108013078D01*
X92549555Y-108046070D01*
X92615539Y-108079062D01*
X92648531Y-108112054D01*
X92681523Y-108178038D01*
X92681523Y-108244022D01*
X92648531Y-108310006D01*
X92615539Y-108342998D01*
X92549555Y-108375990D01*
X92417587Y-108408982D01*
X92252628Y-108408982D01*
X92120660Y-108375990D01*
X92054676Y-108342998D01*
X92021684Y-108310006D01*
X91988692Y-108244022D01*
%TO.C,R16*%
X105181523Y-99832756D02*
X104851604Y-100063700D01*
X105181523Y-100228660D02*
X104488692Y-100228660D01*
X104488692Y-99964724D01*
X104521684Y-99898740D01*
X104554676Y-99865748D01*
X104620660Y-99832756D01*
X104719636Y-99832756D01*
X104785620Y-99865748D01*
X104818612Y-99898740D01*
X104851604Y-99964724D01*
X104851604Y-100228660D01*
X105181523Y-99172917D02*
X105181523Y-99568821D01*
X105181523Y-99370869D02*
X104488692Y-99370869D01*
X104587668Y-99436853D01*
X104653652Y-99502837D01*
X104686644Y-99568821D01*
X104488692Y-98579062D02*
X104488692Y-98711030D01*
X104521684Y-98777014D01*
X104554676Y-98810006D01*
X104653652Y-98875990D01*
X104785620Y-98908982D01*
X105049555Y-98908982D01*
X105115539Y-98875990D01*
X105148531Y-98842998D01*
X105181523Y-98777014D01*
X105181523Y-98645046D01*
X105148531Y-98579062D01*
X105115539Y-98546070D01*
X105049555Y-98513078D01*
X104884595Y-98513078D01*
X104818612Y-98546070D01*
X104785620Y-98579062D01*
X104752628Y-98645046D01*
X104752628Y-98777014D01*
X104785620Y-98842998D01*
X104818612Y-98875990D01*
X104884595Y-98908982D01*
%TO.C,R17*%
X92411943Y-98944023D02*
X92180999Y-98614104D01*
X92016039Y-98944023D02*
X92016039Y-98251192D01*
X92279975Y-98251192D01*
X92345959Y-98284184D01*
X92378951Y-98317176D01*
X92411943Y-98383160D01*
X92411943Y-98482136D01*
X92378951Y-98548120D01*
X92345959Y-98581112D01*
X92279975Y-98614104D01*
X92016039Y-98614104D01*
X93071782Y-98944023D02*
X92675878Y-98944023D01*
X92873830Y-98944023D02*
X92873830Y-98251192D01*
X92807846Y-98350168D01*
X92741862Y-98416152D01*
X92675878Y-98449144D01*
X93302725Y-98251192D02*
X93764613Y-98251192D01*
X93467685Y-98944023D01*
%TO.C,D10*%
X92054523Y-114360660D02*
X91361692Y-114360660D01*
X91361692Y-114195700D01*
X91394684Y-114096724D01*
X91460668Y-114030740D01*
X91526652Y-113997748D01*
X91658620Y-113964756D01*
X91757595Y-113964756D01*
X91889563Y-113997748D01*
X91955547Y-114030740D01*
X92021531Y-114096724D01*
X92054523Y-114195700D01*
X92054523Y-114360660D01*
X92054523Y-113304917D02*
X92054523Y-113700821D01*
X92054523Y-113502869D02*
X91361692Y-113502869D01*
X91460668Y-113568853D01*
X91526652Y-113634837D01*
X91559644Y-113700821D01*
X91361692Y-112876022D02*
X91361692Y-112810038D01*
X91394684Y-112744054D01*
X91427676Y-112711062D01*
X91493660Y-112678070D01*
X91625628Y-112645078D01*
X91790587Y-112645078D01*
X91922555Y-112678070D01*
X91988539Y-112711062D01*
X92021531Y-112744054D01*
X92054523Y-112810038D01*
X92054523Y-112876022D01*
X92021531Y-112942006D01*
X91988539Y-112974998D01*
X91922555Y-113007990D01*
X91790587Y-113040982D01*
X91625628Y-113040982D01*
X91493660Y-113007990D01*
X91427676Y-112974998D01*
X91394684Y-112942006D01*
X91361692Y-112876022D01*
%TO.C,D11*%
X96384039Y-115317023D02*
X96384039Y-114624192D01*
X96548999Y-114624192D01*
X96647975Y-114657184D01*
X96713959Y-114723168D01*
X96746951Y-114789152D01*
X96779943Y-114921120D01*
X96779943Y-115020095D01*
X96746951Y-115152063D01*
X96713959Y-115218047D01*
X96647975Y-115284031D01*
X96548999Y-115317023D01*
X96384039Y-115317023D01*
X97439782Y-115317023D02*
X97043878Y-115317023D01*
X97241830Y-115317023D02*
X97241830Y-114624192D01*
X97175846Y-114723168D01*
X97109862Y-114789152D01*
X97043878Y-114822144D01*
X98099621Y-115317023D02*
X97703717Y-115317023D01*
X97901669Y-115317023D02*
X97901669Y-114624192D01*
X97835685Y-114723168D01*
X97769701Y-114789152D01*
X97703717Y-114822144D01*
%TO.C,D12*%
X99384039Y-115317023D02*
X99384039Y-114624192D01*
X99548999Y-114624192D01*
X99647975Y-114657184D01*
X99713959Y-114723168D01*
X99746951Y-114789152D01*
X99779943Y-114921120D01*
X99779943Y-115020095D01*
X99746951Y-115152063D01*
X99713959Y-115218047D01*
X99647975Y-115284031D01*
X99548999Y-115317023D01*
X99384039Y-115317023D01*
X100439782Y-115317023D02*
X100043878Y-115317023D01*
X100241830Y-115317023D02*
X100241830Y-114624192D01*
X100175846Y-114723168D01*
X100109862Y-114789152D01*
X100043878Y-114822144D01*
X100703717Y-114690176D02*
X100736709Y-114657184D01*
X100802693Y-114624192D01*
X100967653Y-114624192D01*
X101033637Y-114657184D01*
X101066629Y-114690176D01*
X101099621Y-114756160D01*
X101099621Y-114822144D01*
X101066629Y-114921120D01*
X100670725Y-115317023D01*
X101099621Y-115317023D01*
D17*
%TO.C,R18*%
X101582362Y-118900958D02*
X101264983Y-119123123D01*
X101582362Y-119281812D02*
X100915866Y-119281812D01*
X100915866Y-119027909D01*
X100947604Y-118964433D01*
X100979341Y-118932695D01*
X101042817Y-118900958D01*
X101138031Y-118900958D01*
X101201507Y-118932695D01*
X101233245Y-118964433D01*
X101264983Y-119027909D01*
X101264983Y-119281812D01*
X101582362Y-118266199D02*
X101582362Y-118647054D01*
X101582362Y-118456627D02*
X100915866Y-118456627D01*
X101011079Y-118520103D01*
X101074555Y-118583578D01*
X101106293Y-118647054D01*
X101201507Y-117885345D02*
X101169769Y-117948820D01*
X101138031Y-117980558D01*
X101074555Y-118012296D01*
X101042817Y-118012296D01*
X100979341Y-117980558D01*
X100947604Y-117948820D01*
X100915866Y-117885345D01*
X100915866Y-117758393D01*
X100947604Y-117694917D01*
X100979341Y-117663179D01*
X101042817Y-117631441D01*
X101074555Y-117631441D01*
X101138031Y-117663179D01*
X101169769Y-117694917D01*
X101201507Y-117758393D01*
X101201507Y-117885345D01*
X101233245Y-117948820D01*
X101264983Y-117980558D01*
X101328458Y-118012296D01*
X101455410Y-118012296D01*
X101518886Y-117980558D01*
X101550624Y-117948820D01*
X101582362Y-117885345D01*
X101582362Y-117758393D01*
X101550624Y-117694917D01*
X101518886Y-117663179D01*
X101455410Y-117631441D01*
X101328458Y-117631441D01*
X101264983Y-117663179D01*
X101233245Y-117694917D01*
X101201507Y-117758393D01*
%TO.C,R19*%
X94082362Y-118900958D02*
X93764983Y-119123123D01*
X94082362Y-119281812D02*
X93415866Y-119281812D01*
X93415866Y-119027909D01*
X93447604Y-118964433D01*
X93479341Y-118932695D01*
X93542817Y-118900958D01*
X93638031Y-118900958D01*
X93701507Y-118932695D01*
X93733245Y-118964433D01*
X93764983Y-119027909D01*
X93764983Y-119281812D01*
X94082362Y-118266199D02*
X94082362Y-118647054D01*
X94082362Y-118456627D02*
X93415866Y-118456627D01*
X93511079Y-118520103D01*
X93574555Y-118583578D01*
X93606293Y-118647054D01*
X94082362Y-117948820D02*
X94082362Y-117821869D01*
X94050624Y-117758393D01*
X94018886Y-117726655D01*
X93923672Y-117663179D01*
X93796720Y-117631441D01*
X93542817Y-117631441D01*
X93479341Y-117663179D01*
X93447604Y-117694917D01*
X93415866Y-117758393D01*
X93415866Y-117885345D01*
X93447604Y-117948820D01*
X93479341Y-117980558D01*
X93542817Y-118012296D01*
X93701507Y-118012296D01*
X93764983Y-117980558D01*
X93796720Y-117948820D01*
X93828458Y-117885345D01*
X93828458Y-117758393D01*
X93796720Y-117694917D01*
X93764983Y-117663179D01*
X93701507Y-117631441D01*
%TO.C,R20*%
X90717534Y-112011358D02*
X90495369Y-111693979D01*
X90336679Y-112011358D02*
X90336679Y-111344862D01*
X90590582Y-111344862D01*
X90654058Y-111376600D01*
X90685796Y-111408337D01*
X90717534Y-111471813D01*
X90717534Y-111567027D01*
X90685796Y-111630503D01*
X90654058Y-111662241D01*
X90590582Y-111693979D01*
X90336679Y-111693979D01*
X90971437Y-111408337D02*
X91003175Y-111376600D01*
X91066651Y-111344862D01*
X91225341Y-111344862D01*
X91288816Y-111376600D01*
X91320554Y-111408337D01*
X91352292Y-111471813D01*
X91352292Y-111535289D01*
X91320554Y-111630503D01*
X90939699Y-112011358D01*
X91352292Y-112011358D01*
X91764885Y-111344862D02*
X91828361Y-111344862D01*
X91891837Y-111376600D01*
X91923574Y-111408337D01*
X91955312Y-111471813D01*
X91987050Y-111598765D01*
X91987050Y-111757454D01*
X91955312Y-111884406D01*
X91923574Y-111947882D01*
X91891837Y-111979620D01*
X91828361Y-112011358D01*
X91764885Y-112011358D01*
X91701409Y-111979620D01*
X91669671Y-111947882D01*
X91637933Y-111884406D01*
X91606195Y-111757454D01*
X91606195Y-111598765D01*
X91637933Y-111471813D01*
X91669671Y-111408337D01*
X91701409Y-111376600D01*
X91764885Y-111344862D01*
D18*
%TO.C,J1*%
X144181991Y-98234192D02*
X144181991Y-98729071D01*
X144148999Y-98828047D01*
X144083015Y-98894031D01*
X143984039Y-98927023D01*
X143918055Y-98927023D01*
X144874822Y-98927023D02*
X144478918Y-98927023D01*
X144676870Y-98927023D02*
X144676870Y-98234192D01*
X144610886Y-98333168D01*
X144544902Y-98399152D01*
X144478918Y-98432144D01*
%TO.C,J2*%
X126181991Y-98234192D02*
X126181991Y-98729071D01*
X126148999Y-98828047D01*
X126083015Y-98894031D01*
X125984039Y-98927023D01*
X125918055Y-98927023D01*
X126478918Y-98300176D02*
X126511910Y-98267184D01*
X126577894Y-98234192D01*
X126742854Y-98234192D01*
X126808838Y-98267184D01*
X126841830Y-98300176D01*
X126874822Y-98366160D01*
X126874822Y-98432144D01*
X126841830Y-98531120D01*
X126445926Y-98927023D01*
X126874822Y-98927023D01*
%TO.C,J3*%
X107681991Y-98234192D02*
X107681991Y-98729071D01*
X107648999Y-98828047D01*
X107583015Y-98894031D01*
X107484039Y-98927023D01*
X107418055Y-98927023D01*
X107945926Y-98234192D02*
X108374822Y-98234192D01*
X108143878Y-98498128D01*
X108242854Y-98498128D01*
X108308838Y-98531120D01*
X108341830Y-98564112D01*
X108374822Y-98630095D01*
X108374822Y-98795055D01*
X108341830Y-98861039D01*
X108308838Y-98894031D01*
X108242854Y-98927023D01*
X108044902Y-98927023D01*
X107978918Y-98894031D01*
X107945926Y-98861039D01*
%TO.C,J4*%
X105681991Y-98234192D02*
X105681991Y-98729071D01*
X105648999Y-98828047D01*
X105583015Y-98894031D01*
X105484039Y-98927023D01*
X105418055Y-98927023D01*
X106308838Y-98465136D02*
X106308838Y-98927023D01*
X106143878Y-98201200D02*
X105978918Y-98696079D01*
X106407814Y-98696079D01*
D19*
%TO.C,BME280*%
X208026100Y-118653600D02*
X206756100Y-118653600D01*
X206121100Y-118018600D02*
X206756100Y-118653600D01*
X206756100Y-116113600D02*
X206121100Y-116748600D01*
X208661100Y-118018600D02*
X208026100Y-118653600D01*
X208661100Y-116748600D02*
X208661100Y-118018600D01*
X208026100Y-116113600D02*
X208661100Y-116748600D01*
X206756100Y-116113600D02*
X208026100Y-116113600D01*
X195326100Y-118653600D02*
X194056100Y-118653600D01*
X193421100Y-118018600D02*
X194056100Y-118653600D01*
X194056100Y-116113600D02*
X193421100Y-116748600D01*
X193421100Y-116748600D02*
X193421100Y-118018600D01*
X196596100Y-118653600D02*
X195961100Y-118018600D01*
X197866100Y-118653600D02*
X196596100Y-118653600D01*
X198501100Y-118018600D02*
X197866100Y-118653600D01*
X198501100Y-116748600D02*
X198501100Y-118018600D01*
X197866100Y-116113600D02*
X198501100Y-116748600D01*
X196596100Y-116113600D02*
X197866100Y-116113600D01*
X195961100Y-116748600D02*
X196596100Y-116113600D01*
X195961100Y-118018600D02*
X195326100Y-118653600D01*
X195961100Y-116748600D02*
X195961100Y-118018600D01*
X195326100Y-116113600D02*
X195961100Y-116748600D01*
X194056100Y-116113600D02*
X195326100Y-116113600D01*
X202946100Y-118653600D02*
X201676100Y-118653600D01*
X201041100Y-118018600D02*
X201676100Y-118653600D01*
X201676100Y-116113600D02*
X201041100Y-116748600D01*
X199136100Y-118653600D02*
X198501100Y-118018600D01*
X200406100Y-118653600D02*
X199136100Y-118653600D01*
X201041100Y-118018600D02*
X200406100Y-118653600D01*
X201041100Y-116748600D02*
X201041100Y-118018600D01*
X200406100Y-116113600D02*
X201041100Y-116748600D01*
X199136100Y-116113600D02*
X200406100Y-116113600D01*
X198501100Y-116748600D02*
X199136100Y-116113600D01*
X204216100Y-118653600D02*
X203581100Y-118018600D01*
X205486100Y-118653600D02*
X204216100Y-118653600D01*
X206121100Y-118018600D02*
X205486100Y-118653600D01*
X206121100Y-116748600D02*
X206121100Y-118018600D01*
X205486100Y-116113600D02*
X206121100Y-116748600D01*
X204216100Y-116113600D02*
X205486100Y-116113600D01*
X203581100Y-116748600D02*
X204216100Y-116113600D01*
X203581100Y-118018600D02*
X202946100Y-118653600D01*
X203581100Y-116748600D02*
X203581100Y-118018600D01*
X202946100Y-116113600D02*
X203581100Y-116748600D01*
X201676100Y-116113600D02*
X202946100Y-116113600D01*
D20*
%TO.C,U$1*%
X189541100Y-118333600D02*
X161741100Y-118333600D01*
X189541100Y-109763600D02*
X189541100Y-118333600D01*
X189541100Y-91033600D02*
X161741100Y-91033600D01*
X161741100Y-91033600D02*
X161741100Y-118333600D01*
X189541100Y-91033600D02*
X189541100Y-99603600D01*
X189956100Y-107223600D02*
X186146100Y-107223600D01*
X189956100Y-104683600D02*
X186146100Y-104683600D01*
X189956100Y-102143600D02*
X186146100Y-102143600D01*
X185511100Y-109128600D02*
X186146100Y-109763600D01*
X185511100Y-107858600D02*
X185511100Y-109128600D01*
X186146100Y-107223600D02*
X185511100Y-107858600D01*
X185511100Y-106588600D02*
X186146100Y-107223600D01*
X185511100Y-105318600D02*
X185511100Y-106588600D01*
X186146100Y-104683600D02*
X185511100Y-105318600D01*
X185511100Y-104048600D02*
X186146100Y-104683600D01*
X185511100Y-102778600D02*
X185511100Y-104048600D01*
X186146100Y-102143600D02*
X185511100Y-102778600D01*
X185511100Y-101508600D02*
X186146100Y-102143600D01*
X185511100Y-100238600D02*
X185511100Y-101508600D01*
X186146100Y-99603600D02*
X185511100Y-100238600D01*
X189541100Y-109763600D02*
X186146100Y-109763600D01*
X189956100Y-109763600D02*
X189541100Y-109763600D01*
X190591100Y-109128600D02*
X189956100Y-109763600D01*
X190591100Y-107858600D02*
X190591100Y-109128600D01*
X189956100Y-107223600D02*
X190591100Y-107858600D01*
X190591100Y-106588600D02*
X189956100Y-107223600D01*
X190591100Y-105318600D02*
X190591100Y-106588600D01*
X189956100Y-104683600D02*
X190591100Y-105318600D01*
X190591100Y-104048600D02*
X189956100Y-104683600D01*
X190591100Y-102778600D02*
X190591100Y-104048600D01*
X189956100Y-102143600D02*
X190591100Y-102778600D01*
X190591100Y-101508600D02*
X189956100Y-102143600D01*
X190591100Y-100238600D02*
X190591100Y-101508600D01*
X189956100Y-99603600D02*
X190591100Y-100238600D01*
X189541100Y-99603600D02*
X189956100Y-99603600D01*
X186146100Y-99603600D02*
X189541100Y-99603600D01*
%TO.C,U2*%
X153823900Y-105284400D02*
G75*
G03*
X153823900Y-105284400I-457200J0D01*
G01*
X154255700Y-104220800D02*
X154255700Y-108786400D01*
X149226500Y-108786400D02*
X149226500Y-104220800D01*
D21*
%TO.C,C1*%
X155733100Y-103003600D02*
X156749100Y-103003600D01*
%TO.C,C2*%
X151741100Y-100011600D02*
X151741100Y-98995600D01*
%TO.C,C3*%
X147241100Y-102011600D02*
X147241100Y-100995600D01*
%TO.C,C4*%
X147749100Y-104503600D02*
X146733100Y-104503600D01*
%TO.C,C5*%
X146733100Y-108503600D02*
X147749100Y-108503600D01*
%TO.C,R1*%
X156241100Y-100011600D02*
X156241100Y-98995600D01*
%TO.C,R2*%
X147241100Y-98995600D02*
X147241100Y-100011600D01*
%TO.C,D1*%
G36*
X148542700Y-113893441D02*
G01*
X147957938Y-113503600D01*
X148542700Y-113113759D01*
X148542700Y-113893441D01*
G37*
G36*
X147991100Y-114003600D02*
G01*
X147791100Y-114003600D01*
X147791100Y-113003600D01*
X147991100Y-113003600D01*
X147991100Y-114003600D01*
G37*
D20*
X148591100Y-113903600D02*
X147991100Y-113503600D01*
X148591100Y-113103600D02*
X148591100Y-113903600D01*
X147991100Y-113503600D02*
X148591100Y-113103600D01*
X149241100Y-114203600D02*
X147241100Y-114203600D01*
X147241100Y-112803600D02*
X149241100Y-112803600D01*
%TO.C,D2*%
G36*
X150241100Y-117786762D02*
G01*
X149851259Y-117202000D01*
X150630941Y-117202000D01*
X150241100Y-117786762D01*
G37*
G36*
X150741100Y-117953600D02*
G01*
X149741100Y-117953600D01*
X149741100Y-117753600D01*
X150741100Y-117753600D01*
X150741100Y-117953600D01*
G37*
X150641100Y-117153600D02*
X150241100Y-117753600D01*
X149841100Y-117153600D02*
X150641100Y-117153600D01*
X150241100Y-117753600D02*
X149841100Y-117153600D01*
X150941100Y-116503600D02*
X150941100Y-118503600D01*
X149541100Y-118503600D02*
X149541100Y-116503600D01*
%TO.C,D3*%
G36*
X153741100Y-117786762D02*
G01*
X153351259Y-117202000D01*
X154130941Y-117202000D01*
X153741100Y-117786762D01*
G37*
G36*
X154241100Y-117953600D02*
G01*
X153241100Y-117953600D01*
X153241100Y-117753600D01*
X154241100Y-117753600D01*
X154241100Y-117953600D01*
G37*
X154141100Y-117153600D02*
X153741100Y-117753600D01*
X153341100Y-117153600D02*
X154141100Y-117153600D01*
X153741100Y-117753600D02*
X153341100Y-117153600D01*
X154441100Y-116503600D02*
X154441100Y-118503600D01*
X153041100Y-118503600D02*
X153041100Y-116503600D01*
D21*
%TO.C,R3*%
X156249100Y-117503600D02*
X155233100Y-117503600D01*
%TO.C,R4*%
X148749100Y-117503600D02*
X147733100Y-117503600D01*
%TO.C,R5*%
X148621100Y-112071600D02*
X148621100Y-111055600D01*
D20*
%TO.C,U1*%
X135823900Y-105284400D02*
G75*
G03*
X135823900Y-105284400I-457200J0D01*
G01*
X136255700Y-104220800D02*
X136255700Y-108786400D01*
X131226500Y-108786400D02*
X131226500Y-104220800D01*
D21*
%TO.C,C6*%
X138233100Y-103003600D02*
X139249100Y-103003600D01*
%TO.C,C7*%
X133741100Y-100011600D02*
X133741100Y-98995600D01*
%TO.C,C8*%
X129241100Y-102011600D02*
X129241100Y-100995600D01*
%TO.C,C9*%
X129749100Y-104503600D02*
X128733100Y-104503600D01*
%TO.C,C10*%
X128753100Y-108323600D02*
X129769100Y-108323600D01*
%TO.C,R6*%
X138741100Y-100011600D02*
X138741100Y-98995600D01*
%TO.C,R7*%
X129241100Y-98995600D02*
X129241100Y-100011600D01*
%TO.C,D4*%
G36*
X130042700Y-113893441D02*
G01*
X129457938Y-113503600D01*
X130042700Y-113113759D01*
X130042700Y-113893441D01*
G37*
G36*
X129491100Y-114003600D02*
G01*
X129291100Y-114003600D01*
X129291100Y-113003600D01*
X129491100Y-113003600D01*
X129491100Y-114003600D01*
G37*
D20*
X130091100Y-113903600D02*
X129491100Y-113503600D01*
X130091100Y-113103600D02*
X130091100Y-113903600D01*
X129491100Y-113503600D02*
X130091100Y-113103600D01*
X130741100Y-114203600D02*
X128741100Y-114203600D01*
X128741100Y-112803600D02*
X130741100Y-112803600D01*
%TO.C,D5*%
G36*
X132241100Y-117786762D02*
G01*
X131851259Y-117202000D01*
X132630941Y-117202000D01*
X132241100Y-117786762D01*
G37*
G36*
X132741100Y-117953600D02*
G01*
X131741100Y-117953600D01*
X131741100Y-117753600D01*
X132741100Y-117753600D01*
X132741100Y-117953600D01*
G37*
X132641100Y-117153600D02*
X132241100Y-117753600D01*
X131841100Y-117153600D02*
X132641100Y-117153600D01*
X132241100Y-117753600D02*
X131841100Y-117153600D01*
X132941100Y-116503600D02*
X132941100Y-118503600D01*
X131541100Y-118503600D02*
X131541100Y-116503600D01*
%TO.C,D6*%
G36*
X135741100Y-117786762D02*
G01*
X135351259Y-117202000D01*
X136130941Y-117202000D01*
X135741100Y-117786762D01*
G37*
G36*
X136241100Y-117953600D02*
G01*
X135241100Y-117953600D01*
X135241100Y-117753600D01*
X136241100Y-117753600D01*
X136241100Y-117953600D01*
G37*
X136141100Y-117153600D02*
X135741100Y-117753600D01*
X135341100Y-117153600D02*
X136141100Y-117153600D01*
X135741100Y-117753600D02*
X135341100Y-117153600D01*
X136441100Y-116503600D02*
X136441100Y-118503600D01*
X135041100Y-118503600D02*
X135041100Y-116503600D01*
D21*
%TO.C,R8*%
X138249100Y-117503600D02*
X137233100Y-117503600D01*
%TO.C,R9*%
X130249100Y-117503600D02*
X129233100Y-117503600D01*
%TO.C,R10*%
X130241100Y-112011600D02*
X130241100Y-110995600D01*
D20*
%TO.C,U3*%
X117823900Y-105284400D02*
G75*
G03*
X117823900Y-105284400I-457200J0D01*
G01*
X118255700Y-104220800D02*
X118255700Y-108786400D01*
X113226500Y-108786400D02*
X113226500Y-104220800D01*
D21*
%TO.C,C11*%
X119733100Y-103003600D02*
X120749100Y-103003600D01*
%TO.C,C12*%
X115741100Y-100011600D02*
X115741100Y-98995600D01*
%TO.C,C13*%
X111241100Y-102011600D02*
X111241100Y-100995600D01*
%TO.C,C14*%
X111749100Y-104503600D02*
X110733100Y-104503600D01*
%TO.C,C15*%
X110733100Y-108503600D02*
X111749100Y-108503600D01*
%TO.C,R11*%
X120241100Y-100011600D02*
X120241100Y-98995600D01*
%TO.C,R12*%
X111241100Y-98995600D02*
X111241100Y-100011600D01*
%TO.C,D7*%
G36*
X112022700Y-114233441D02*
G01*
X111437938Y-113843600D01*
X112022700Y-113453759D01*
X112022700Y-114233441D01*
G37*
G36*
X111471100Y-114343600D02*
G01*
X111271100Y-114343600D01*
X111271100Y-113343600D01*
X111471100Y-113343600D01*
X111471100Y-114343600D01*
G37*
D20*
X112071100Y-114243600D02*
X111471100Y-113843600D01*
X112071100Y-113443600D02*
X112071100Y-114243600D01*
X111471100Y-113843600D02*
X112071100Y-113443600D01*
X112721100Y-114543600D02*
X110721100Y-114543600D01*
X110721100Y-113143600D02*
X112721100Y-113143600D01*
%TO.C,D8*%
G36*
X114241100Y-117786762D02*
G01*
X113851259Y-117202000D01*
X114630941Y-117202000D01*
X114241100Y-117786762D01*
G37*
G36*
X114741100Y-117953600D02*
G01*
X113741100Y-117953600D01*
X113741100Y-117753600D01*
X114741100Y-117753600D01*
X114741100Y-117953600D01*
G37*
X114641100Y-117153600D02*
X114241100Y-117753600D01*
X113841100Y-117153600D02*
X114641100Y-117153600D01*
X114241100Y-117753600D02*
X113841100Y-117153600D01*
X114941100Y-116503600D02*
X114941100Y-118503600D01*
X113541100Y-118503600D02*
X113541100Y-116503600D01*
%TO.C,D9*%
G36*
X117741100Y-117786762D02*
G01*
X117351259Y-117202000D01*
X118130941Y-117202000D01*
X117741100Y-117786762D01*
G37*
G36*
X118241100Y-117953600D02*
G01*
X117241100Y-117953600D01*
X117241100Y-117753600D01*
X118241100Y-117753600D01*
X118241100Y-117953600D01*
G37*
X118141100Y-117153600D02*
X117741100Y-117753600D01*
X117341100Y-117153600D02*
X118141100Y-117153600D01*
X117741100Y-117753600D02*
X117341100Y-117153600D01*
X118441100Y-116503600D02*
X118441100Y-118503600D01*
X117041100Y-118503600D02*
X117041100Y-116503600D01*
D21*
%TO.C,R13*%
X120249100Y-117503600D02*
X119233100Y-117503600D01*
%TO.C,R14*%
X112249100Y-117503600D02*
X111233100Y-117503600D01*
%TO.C,R15*%
X112261100Y-112211600D02*
X112261100Y-111195600D01*
D20*
%TO.C,U4*%
X99823900Y-105284400D02*
G75*
G03*
X99823900Y-105284400I-457200J0D01*
G01*
X100255700Y-104220800D02*
X100255700Y-108786400D01*
X95226500Y-108786400D02*
X95226500Y-104220800D01*
D21*
%TO.C,C16*%
X101733100Y-103003600D02*
X102749100Y-103003600D01*
%TO.C,C17*%
X97741100Y-100011600D02*
X97741100Y-98995600D01*
%TO.C,C18*%
X93241100Y-102011600D02*
X93241100Y-100995600D01*
%TO.C,C19*%
X93749100Y-104503600D02*
X92733100Y-104503600D01*
%TO.C,C20*%
X92733100Y-108503600D02*
X93749100Y-108503600D01*
%TO.C,R16*%
X102241100Y-100011600D02*
X102241100Y-98995600D01*
%TO.C,R17*%
X93241100Y-98995600D02*
X93241100Y-100011600D01*
%TO.C,D10*%
G36*
X94542700Y-113893441D02*
G01*
X93957938Y-113503600D01*
X94542700Y-113113759D01*
X94542700Y-113893441D01*
G37*
G36*
X93991100Y-114003600D02*
G01*
X93791100Y-114003600D01*
X93791100Y-113003600D01*
X93991100Y-113003600D01*
X93991100Y-114003600D01*
G37*
D20*
X94591100Y-113903600D02*
X93991100Y-113503600D01*
X94591100Y-113103600D02*
X94591100Y-113903600D01*
X93991100Y-113503600D02*
X94591100Y-113103600D01*
X95241100Y-114203600D02*
X93241100Y-114203600D01*
X93241100Y-112803600D02*
X95241100Y-112803600D01*
%TO.C,D11*%
G36*
X96241100Y-117786762D02*
G01*
X95851259Y-117202000D01*
X96630941Y-117202000D01*
X96241100Y-117786762D01*
G37*
G36*
X96741100Y-117953600D02*
G01*
X95741100Y-117953600D01*
X95741100Y-117753600D01*
X96741100Y-117753600D01*
X96741100Y-117953600D01*
G37*
X96641100Y-117153600D02*
X96241100Y-117753600D01*
X95841100Y-117153600D02*
X96641100Y-117153600D01*
X96241100Y-117753600D02*
X95841100Y-117153600D01*
X96941100Y-116503600D02*
X96941100Y-118503600D01*
X95541100Y-118503600D02*
X95541100Y-116503600D01*
%TO.C,D12*%
G36*
X99741100Y-117786762D02*
G01*
X99351259Y-117202000D01*
X100130941Y-117202000D01*
X99741100Y-117786762D01*
G37*
G36*
X100241100Y-117953600D02*
G01*
X99241100Y-117953600D01*
X99241100Y-117753600D01*
X100241100Y-117753600D01*
X100241100Y-117953600D01*
G37*
X100141100Y-117153600D02*
X99741100Y-117753600D01*
X99341100Y-117153600D02*
X100141100Y-117153600D01*
X99741100Y-117753600D02*
X99341100Y-117153600D01*
X100441100Y-116503600D02*
X100441100Y-118503600D01*
X99041100Y-118503600D02*
X99041100Y-116503600D01*
D21*
%TO.C,R18*%
X102249100Y-117503600D02*
X101233100Y-117503600D01*
%TO.C,R19*%
X94749100Y-117503600D02*
X93733100Y-117503600D01*
%TO.C,R20*%
X94241100Y-112011600D02*
X94241100Y-110995600D01*
D20*
%TO.C,J1*%
X143521100Y-97503600D02*
X159961100Y-97503600D01*
X143521100Y-85503600D02*
X143521100Y-97503600D01*
X159961100Y-85503600D02*
X143521100Y-85503600D01*
X159961100Y-97503600D02*
X159961100Y-85503600D01*
%TO.C,J2*%
X125521100Y-97503600D02*
X141961100Y-97503600D01*
X125521100Y-85503600D02*
X125521100Y-97503600D01*
X141961100Y-85503600D02*
X125521100Y-85503600D01*
X141961100Y-97503600D02*
X141961100Y-85503600D01*
%TO.C,J3*%
X107521100Y-97503600D02*
X123961100Y-97503600D01*
X107521100Y-85503600D02*
X107521100Y-97503600D01*
X123961100Y-85503600D02*
X107521100Y-85503600D01*
X123961100Y-97503600D02*
X123961100Y-85503600D01*
%TO.C,J4*%
X89521100Y-97503600D02*
X105961100Y-97503600D01*
X89521100Y-85503600D02*
X89521100Y-97503600D01*
X105961100Y-85503600D02*
X89521100Y-85503600D01*
X105961100Y-97503600D02*
X105961100Y-85503600D01*
%TD*%
%LPC*%
D22*
X88574322Y-117710246D02*
X88646168Y-117638400D01*
X88718014Y-117710246D01*
X88646168Y-117782091D01*
X88574322Y-117710246D01*
X88718014Y-117710246D01*
X87784020Y-117710246D02*
X87855865Y-117638400D01*
X87927711Y-117710246D01*
X87855865Y-117782091D01*
X87784020Y-117710246D01*
X87927711Y-117710246D01*
X88574322Y-116991788D02*
X88646168Y-116919943D01*
X88718014Y-116991788D01*
X88646168Y-117063634D01*
X88574322Y-116991788D01*
X88718014Y-116991788D01*
X87784020Y-116991788D02*
X87855865Y-116919943D01*
X87927711Y-116991788D01*
X87855865Y-117063634D01*
X87784020Y-116991788D01*
X87927711Y-116991788D01*
X87137408Y-115195646D02*
X89077242Y-116488868D01*
X88143248Y-114692726D02*
X88143248Y-113543194D01*
X88718014Y-112034434D02*
X88718014Y-112896583D01*
X88718014Y-112465508D02*
X87209254Y-112465508D01*
X87424791Y-112609200D01*
X87568482Y-112752891D01*
X87640328Y-112896583D01*
X88143248Y-110238291D02*
X88143248Y-109088760D01*
X88718014Y-107220771D02*
X87209254Y-107220771D01*
X87712174Y-106502314D02*
X88718014Y-106502314D01*
X87855865Y-106502314D02*
X87784020Y-106430468D01*
X87712174Y-106286777D01*
X87712174Y-106071240D01*
X87784020Y-105927548D01*
X87927711Y-105855703D01*
X88718014Y-105855703D01*
X87712174Y-105280937D02*
X88718014Y-104921708D01*
X87712174Y-104562480D01*
X88718014Y-103341103D02*
X87927711Y-103341103D01*
X87784020Y-103412948D01*
X87712174Y-103556640D01*
X87712174Y-103844023D01*
X87784020Y-103987714D01*
X88646168Y-103341103D02*
X88718014Y-103484794D01*
X88718014Y-103844023D01*
X88646168Y-103987714D01*
X88502477Y-104059560D01*
X88358785Y-104059560D01*
X88215094Y-103987714D01*
X88143248Y-103844023D01*
X88143248Y-103484794D01*
X88071402Y-103341103D01*
X88718014Y-102407108D02*
X88646168Y-102550800D01*
X88502477Y-102622646D01*
X87209254Y-102622646D01*
X88718014Y-101832343D02*
X87712174Y-101832343D01*
X87209254Y-101832343D02*
X87281100Y-101904188D01*
X87352945Y-101832343D01*
X87281100Y-101760497D01*
X87209254Y-101832343D01*
X87352945Y-101832343D01*
X88718014Y-100467274D02*
X87209254Y-100467274D01*
X88646168Y-100467274D02*
X88718014Y-100610966D01*
X88718014Y-100898348D01*
X88646168Y-101042040D01*
X88574322Y-101113886D01*
X88430631Y-101185731D01*
X87999557Y-101185731D01*
X87855865Y-101113886D01*
X87784020Y-101042040D01*
X87712174Y-100898348D01*
X87712174Y-100610966D01*
X87784020Y-100467274D01*
X88574322Y-99748817D02*
X88646168Y-99676971D01*
X88718014Y-99748817D01*
X88646168Y-99820663D01*
X88574322Y-99748817D01*
X88718014Y-99748817D01*
X88718014Y-99030360D02*
X87209254Y-99030360D01*
X88718014Y-98168211D01*
X87209254Y-98168211D01*
X88646168Y-96874988D02*
X88718014Y-97018680D01*
X88718014Y-97306063D01*
X88646168Y-97449754D01*
X88502477Y-97521600D01*
X87927711Y-97521600D01*
X87784020Y-97449754D01*
X87712174Y-97306063D01*
X87712174Y-97018680D01*
X87784020Y-96874988D01*
X87927711Y-96803143D01*
X88071402Y-96803143D01*
X88215094Y-97521600D01*
X87712174Y-96372068D02*
X87712174Y-95797303D01*
X87209254Y-96156531D02*
X88502477Y-96156531D01*
X88646168Y-96084686D01*
X88718014Y-95940994D01*
X88718014Y-95797303D01*
X87712174Y-95438074D02*
X88718014Y-95150691D01*
X87999557Y-94863308D01*
X88718014Y-94575926D01*
X87712174Y-94288543D01*
X88718014Y-93498240D02*
X88646168Y-93641931D01*
X88574322Y-93713777D01*
X88430631Y-93785623D01*
X87999557Y-93785623D01*
X87855865Y-93713777D01*
X87784020Y-93641931D01*
X87712174Y-93498240D01*
X87712174Y-93282703D01*
X87784020Y-93139011D01*
X87855865Y-93067166D01*
X87999557Y-92995320D01*
X88430631Y-92995320D01*
X88574322Y-93067166D01*
X88646168Y-93139011D01*
X88718014Y-93282703D01*
X88718014Y-93498240D01*
X88718014Y-92348708D02*
X87712174Y-92348708D01*
X87999557Y-92348708D02*
X87855865Y-92276863D01*
X87784020Y-92205017D01*
X87712174Y-92061326D01*
X87712174Y-91917634D01*
X88718014Y-91414714D02*
X87209254Y-91414714D01*
X88143248Y-91271023D02*
X88718014Y-90839948D01*
X87712174Y-90839948D02*
X88286940Y-91414714D01*
D23*
%TO.C,BME280*%
X207391100Y-117383600D03*
X204851100Y-117383600D03*
X202311100Y-117383600D03*
X199771100Y-117383600D03*
X197231100Y-117383600D03*
X194691100Y-117383600D03*
%TD*%
%TO.C,JP1*%
X187071100Y-117383600D03*
X184531100Y-117383600D03*
X181991100Y-117383600D03*
X179451100Y-117383600D03*
X176911100Y-117383600D03*
X174371100Y-117383600D03*
X171831100Y-117383600D03*
X169291100Y-117383600D03*
X166751100Y-117383600D03*
X164211100Y-117383600D03*
%TD*%
%TO.C,JP2*%
X187071100Y-91983600D03*
X184531100Y-91983600D03*
X181991100Y-91983600D03*
X179451100Y-91983600D03*
X176911100Y-91983600D03*
X174371100Y-91983600D03*
X171831100Y-91983600D03*
X169291100Y-91983600D03*
X166751100Y-91983600D03*
X164211100Y-91983600D03*
%TD*%
D24*
%TO.C,U$1*%
X188041100Y-108493600D03*
X188041100Y-105953600D03*
X188041100Y-103413600D03*
X188041100Y-100873600D03*
%TD*%
D25*
%TO.C,U2*%
X153691100Y-109421400D03*
X153041100Y-109421400D03*
X152391100Y-109421400D03*
X151741100Y-109421400D03*
X151091100Y-109421400D03*
X150441100Y-109421400D03*
X149791100Y-109421400D03*
X149791100Y-103585800D03*
X150441100Y-103585800D03*
X151091100Y-103585800D03*
X151741100Y-103585800D03*
X152391100Y-103585800D03*
X153041100Y-103585800D03*
X153691100Y-103585800D03*
%TD*%
D26*
%TO.C,C1*%
X156241100Y-101953600D03*
X156241100Y-104053600D03*
%TD*%
D27*
%TO.C,C2*%
X150791100Y-99503600D03*
X152691100Y-99503600D03*
%TD*%
%TO.C,C3*%
X146291100Y-101503600D03*
X148191100Y-101503600D03*
%TD*%
D28*
%TO.C,C4*%
X147241100Y-105453600D03*
X147241100Y-103553600D03*
%TD*%
D29*
%TO.C,C5*%
X147241100Y-107553600D03*
X147241100Y-109453600D03*
%TD*%
D27*
%TO.C,R1*%
X155291100Y-99503600D03*
X157191100Y-99503600D03*
%TD*%
D30*
%TO.C,R2*%
X148191100Y-99503600D03*
X146291100Y-99503600D03*
%TD*%
D31*
%TO.C,D1*%
X149511100Y-113503600D03*
X146971100Y-113503600D03*
%TD*%
D32*
%TO.C,D2*%
X150241100Y-116233600D03*
X150241100Y-118773600D03*
%TD*%
%TO.C,D3*%
X153741100Y-116233600D03*
X153741100Y-118773600D03*
%TD*%
D28*
%TO.C,R3*%
X155741100Y-118453600D03*
X155741100Y-116553600D03*
%TD*%
%TO.C,R4*%
X148241100Y-118453600D03*
X148241100Y-116553600D03*
%TD*%
D27*
%TO.C,R5*%
X147671100Y-111563600D03*
X149571100Y-111563600D03*
%TD*%
D25*
%TO.C,U1*%
X135691100Y-109421400D03*
X135041100Y-109421400D03*
X134391100Y-109421400D03*
X133741100Y-109421400D03*
X133091100Y-109421400D03*
X132441100Y-109421400D03*
X131791100Y-109421400D03*
X131791100Y-103585800D03*
X132441100Y-103585800D03*
X133091100Y-103585800D03*
X133741100Y-103585800D03*
X134391100Y-103585800D03*
X135041100Y-103585800D03*
X135691100Y-103585800D03*
%TD*%
D26*
%TO.C,C6*%
X138741100Y-101953600D03*
X138741100Y-104053600D03*
%TD*%
D27*
%TO.C,C7*%
X132791100Y-99503600D03*
X134691100Y-99503600D03*
%TD*%
%TO.C,C8*%
X128291100Y-101503600D03*
X130191100Y-101503600D03*
%TD*%
D28*
%TO.C,C9*%
X129241100Y-105453600D03*
X129241100Y-103553600D03*
%TD*%
D29*
%TO.C,C10*%
X129261100Y-107373600D03*
X129261100Y-109273600D03*
%TD*%
D27*
%TO.C,R6*%
X137791100Y-99503600D03*
X139691100Y-99503600D03*
%TD*%
D30*
%TO.C,R7*%
X130191100Y-99503600D03*
X128291100Y-99503600D03*
%TD*%
D31*
%TO.C,D4*%
X131011100Y-113503600D03*
X128471100Y-113503600D03*
%TD*%
D32*
%TO.C,D5*%
X132241100Y-116233600D03*
X132241100Y-118773600D03*
%TD*%
%TO.C,D6*%
X135741100Y-116233600D03*
X135741100Y-118773600D03*
%TD*%
D28*
%TO.C,R8*%
X137741100Y-118453600D03*
X137741100Y-116553600D03*
%TD*%
%TO.C,R9*%
X129741100Y-118453600D03*
X129741100Y-116553600D03*
%TD*%
D27*
%TO.C,R10*%
X129291100Y-111503600D03*
X131191100Y-111503600D03*
%TD*%
D25*
%TO.C,U3*%
X117691100Y-109421400D03*
X117041100Y-109421400D03*
X116391100Y-109421400D03*
X115741100Y-109421400D03*
X115091100Y-109421400D03*
X114441100Y-109421400D03*
X113791100Y-109421400D03*
X113791100Y-103585800D03*
X114441100Y-103585800D03*
X115091100Y-103585800D03*
X115741100Y-103585800D03*
X116391100Y-103585800D03*
X117041100Y-103585800D03*
X117691100Y-103585800D03*
%TD*%
D26*
%TO.C,C11*%
X120241100Y-101953600D03*
X120241100Y-104053600D03*
%TD*%
D27*
%TO.C,C12*%
X114791100Y-99503600D03*
X116691100Y-99503600D03*
%TD*%
%TO.C,C13*%
X110291100Y-101503600D03*
X112191100Y-101503600D03*
%TD*%
D28*
%TO.C,C14*%
X111241100Y-105453600D03*
X111241100Y-103553600D03*
%TD*%
D29*
%TO.C,C15*%
X111241100Y-107553600D03*
X111241100Y-109453600D03*
%TD*%
D27*
%TO.C,R11*%
X119291100Y-99503600D03*
X121191100Y-99503600D03*
%TD*%
D30*
%TO.C,R12*%
X112191100Y-99503600D03*
X110291100Y-99503600D03*
%TD*%
D31*
%TO.C,D7*%
X112991100Y-113843600D03*
X110451100Y-113843600D03*
%TD*%
D32*
%TO.C,D8*%
X114241100Y-116233600D03*
X114241100Y-118773600D03*
%TD*%
%TO.C,D9*%
X117741100Y-116233600D03*
X117741100Y-118773600D03*
%TD*%
D28*
%TO.C,R13*%
X119741100Y-118453600D03*
X119741100Y-116553600D03*
%TD*%
%TO.C,R14*%
X111741100Y-118453600D03*
X111741100Y-116553600D03*
%TD*%
D27*
%TO.C,R15*%
X111311100Y-111703600D03*
X113211100Y-111703600D03*
%TD*%
D25*
%TO.C,U4*%
X99691100Y-109421400D03*
X99041100Y-109421400D03*
X98391100Y-109421400D03*
X97741100Y-109421400D03*
X97091100Y-109421400D03*
X96441100Y-109421400D03*
X95791100Y-109421400D03*
X95791100Y-103585800D03*
X96441100Y-103585800D03*
X97091100Y-103585800D03*
X97741100Y-103585800D03*
X98391100Y-103585800D03*
X99041100Y-103585800D03*
X99691100Y-103585800D03*
%TD*%
D26*
%TO.C,C16*%
X102241100Y-101953600D03*
X102241100Y-104053600D03*
%TD*%
D27*
%TO.C,C17*%
X96791100Y-99503600D03*
X98691100Y-99503600D03*
%TD*%
%TO.C,C18*%
X92291100Y-101503600D03*
X94191100Y-101503600D03*
%TD*%
D28*
%TO.C,C19*%
X93241100Y-105453600D03*
X93241100Y-103553600D03*
%TD*%
D29*
%TO.C,C20*%
X93241100Y-107553600D03*
X93241100Y-109453600D03*
%TD*%
D27*
%TO.C,R16*%
X101291100Y-99503600D03*
X103191100Y-99503600D03*
%TD*%
D30*
%TO.C,R17*%
X94191100Y-99503600D03*
X92291100Y-99503600D03*
%TD*%
D31*
%TO.C,D10*%
X95511100Y-113503600D03*
X92971100Y-113503600D03*
%TD*%
D32*
%TO.C,D11*%
X96241100Y-116233600D03*
X96241100Y-118773600D03*
%TD*%
%TO.C,D12*%
X99741100Y-116233600D03*
X99741100Y-118773600D03*
%TD*%
D28*
%TO.C,R18*%
X101741100Y-118453600D03*
X101741100Y-116553600D03*
%TD*%
%TO.C,R19*%
X94241100Y-118453600D03*
X94241100Y-116553600D03*
%TD*%
D27*
%TO.C,R20*%
X93291100Y-111503600D03*
X95191100Y-111503600D03*
%TD*%
D33*
%TO.C,J1*%
X155551100Y-95503600D03*
X147931100Y-95503600D03*
%TD*%
%TO.C,J2*%
X137551100Y-95503600D03*
X129931100Y-95503600D03*
%TD*%
%TO.C,J3*%
X119551100Y-95503600D03*
X111931100Y-95503600D03*
%TD*%
%TO.C,J4*%
X101551100Y-95503600D03*
X93931100Y-95503600D03*
%TD*%
M02*
