%TF.GenerationSoftware,KiCad,Pcbnew,(6.0.9)*%
%TF.CreationDate,2022-12-27T14:58:47-08:00*%
%TF.ProjectId,esp32-poe-thermocouple-hat-prod-onboard,65737033-322d-4706-9f65-2d746865726d,rev?*%
%TF.SameCoordinates,Original*%
%TF.FileFunction,Soldermask,Top*%
%TF.FilePolarity,Negative*%
%FSLAX46Y46*%
G04 Gerber Fmt 4.6, Leading zero omitted, Abs format (unit mm)*
G04 Created by KiCad (PCBNEW (6.0.9)) date 2022-12-27 14:58:47*
%MOMM*%
%LPD*%
G01*
G04 APERTURE LIST*
G04 Aperture macros list*
%AMRoundRect*
0 Rectangle with rounded corners*
0 $1 Rounding radius*
0 $2 $3 $4 $5 $6 $7 $8 $9 X,Y pos of 4 corners*
0 Add a 4 corners polygon primitive as box body*
4,1,4,$2,$3,$4,$5,$6,$7,$8,$9,$2,$3,0*
0 Add four circle primitives for the rounded corners*
1,1,$1+$1,$2,$3*
1,1,$1+$1,$4,$5*
1,1,$1+$1,$6,$7*
1,1,$1+$1,$8,$9*
0 Add four rect primitives between the rounded corners*
20,1,$1+$1,$2,$3,$4,$5,0*
20,1,$1+$1,$4,$5,$6,$7,0*
20,1,$1+$1,$6,$7,$8,$9,0*
20,1,$1+$1,$8,$9,$2,$3,0*%
G04 Aperture macros list end*
%ADD10C,0.167640*%
%ADD11O,1.828800X5.080000*%
%ADD12O,5.842000X2.082800*%
%ADD13RoundRect,0.101600X0.152400X0.495300X-0.152400X0.495300X-0.152400X-0.495300X0.152400X-0.495300X0*%
%ADD14RoundRect,0.101600X0.750000X-0.600000X0.750000X0.600000X-0.750000X0.600000X-0.750000X-0.600000X0*%
%ADD15RoundRect,0.101600X0.650000X0.750000X-0.650000X0.750000X-0.650000X-0.750000X0.650000X-0.750000X0*%
%ADD16RoundRect,0.101600X-0.750000X0.650000X-0.750000X-0.650000X0.750000X-0.650000X0.750000X0.650000X0*%
%ADD17RoundRect,0.101600X0.750000X-0.650000X0.750000X0.650000X-0.750000X0.650000X-0.750000X-0.650000X0*%
%ADD18RoundRect,0.101600X-0.650000X-0.750000X0.650000X-0.750000X0.650000X0.750000X-0.650000X0.750000X0*%
%ADD19RoundRect,0.101600X-0.675000X-0.400000X0.675000X-0.400000X0.675000X0.400000X-0.675000X0.400000X0*%
%ADD20RoundRect,0.101600X0.400000X-0.675000X0.400000X0.675000X-0.400000X0.675000X-0.400000X-0.675000X0*%
%ADD21C,2.703200*%
G04 APERTURE END LIST*
D10*
X88574322Y-117710246D02*
X88646168Y-117638400D01*
X88718014Y-117710246D01*
X88646168Y-117782091D01*
X88574322Y-117710246D01*
X88718014Y-117710246D01*
X87784020Y-117710246D02*
X87855865Y-117638400D01*
X87927711Y-117710246D01*
X87855865Y-117782091D01*
X87784020Y-117710246D01*
X87927711Y-117710246D01*
X88574322Y-116991788D02*
X88646168Y-116919943D01*
X88718014Y-116991788D01*
X88646168Y-117063634D01*
X88574322Y-116991788D01*
X88718014Y-116991788D01*
X87784020Y-116991788D02*
X87855865Y-116919943D01*
X87927711Y-116991788D01*
X87855865Y-117063634D01*
X87784020Y-116991788D01*
X87927711Y-116991788D01*
X87137408Y-115195646D02*
X89077242Y-116488868D01*
X88143248Y-114692726D02*
X88143248Y-113543194D01*
X88718014Y-112034434D02*
X88718014Y-112896583D01*
X88718014Y-112465508D02*
X87209254Y-112465508D01*
X87424791Y-112609200D01*
X87568482Y-112752891D01*
X87640328Y-112896583D01*
X88143248Y-110238291D02*
X88143248Y-109088760D01*
X88718014Y-107220771D02*
X87209254Y-107220771D01*
X87712174Y-106502314D02*
X88718014Y-106502314D01*
X87855865Y-106502314D02*
X87784020Y-106430468D01*
X87712174Y-106286777D01*
X87712174Y-106071240D01*
X87784020Y-105927548D01*
X87927711Y-105855703D01*
X88718014Y-105855703D01*
X87712174Y-105280937D02*
X88718014Y-104921708D01*
X87712174Y-104562480D01*
X88718014Y-103341103D02*
X87927711Y-103341103D01*
X87784020Y-103412948D01*
X87712174Y-103556640D01*
X87712174Y-103844023D01*
X87784020Y-103987714D01*
X88646168Y-103341103D02*
X88718014Y-103484794D01*
X88718014Y-103844023D01*
X88646168Y-103987714D01*
X88502477Y-104059560D01*
X88358785Y-104059560D01*
X88215094Y-103987714D01*
X88143248Y-103844023D01*
X88143248Y-103484794D01*
X88071402Y-103341103D01*
X88718014Y-102407108D02*
X88646168Y-102550800D01*
X88502477Y-102622646D01*
X87209254Y-102622646D01*
X88718014Y-101832343D02*
X87712174Y-101832343D01*
X87209254Y-101832343D02*
X87281100Y-101904188D01*
X87352945Y-101832343D01*
X87281100Y-101760497D01*
X87209254Y-101832343D01*
X87352945Y-101832343D01*
X88718014Y-100467274D02*
X87209254Y-100467274D01*
X88646168Y-100467274D02*
X88718014Y-100610966D01*
X88718014Y-100898348D01*
X88646168Y-101042040D01*
X88574322Y-101113886D01*
X88430631Y-101185731D01*
X87999557Y-101185731D01*
X87855865Y-101113886D01*
X87784020Y-101042040D01*
X87712174Y-100898348D01*
X87712174Y-100610966D01*
X87784020Y-100467274D01*
X88574322Y-99748817D02*
X88646168Y-99676971D01*
X88718014Y-99748817D01*
X88646168Y-99820663D01*
X88574322Y-99748817D01*
X88718014Y-99748817D01*
X88718014Y-99030360D02*
X87209254Y-99030360D01*
X88718014Y-98168211D01*
X87209254Y-98168211D01*
X88646168Y-96874988D02*
X88718014Y-97018680D01*
X88718014Y-97306063D01*
X88646168Y-97449754D01*
X88502477Y-97521600D01*
X87927711Y-97521600D01*
X87784020Y-97449754D01*
X87712174Y-97306063D01*
X87712174Y-97018680D01*
X87784020Y-96874988D01*
X87927711Y-96803143D01*
X88071402Y-96803143D01*
X88215094Y-97521600D01*
X87712174Y-96372068D02*
X87712174Y-95797303D01*
X87209254Y-96156531D02*
X88502477Y-96156531D01*
X88646168Y-96084686D01*
X88718014Y-95940994D01*
X88718014Y-95797303D01*
X87712174Y-95438074D02*
X88718014Y-95150691D01*
X87999557Y-94863308D01*
X88718014Y-94575926D01*
X87712174Y-94288543D01*
X88718014Y-93498240D02*
X88646168Y-93641931D01*
X88574322Y-93713777D01*
X88430631Y-93785623D01*
X87999557Y-93785623D01*
X87855865Y-93713777D01*
X87784020Y-93641931D01*
X87712174Y-93498240D01*
X87712174Y-93282703D01*
X87784020Y-93139011D01*
X87855865Y-93067166D01*
X87999557Y-92995320D01*
X88430631Y-92995320D01*
X88574322Y-93067166D01*
X88646168Y-93139011D01*
X88718014Y-93282703D01*
X88718014Y-93498240D01*
X88718014Y-92348708D02*
X87712174Y-92348708D01*
X87999557Y-92348708D02*
X87855865Y-92276863D01*
X87784020Y-92205017D01*
X87712174Y-92061326D01*
X87712174Y-91917634D01*
X88718014Y-91414714D02*
X87209254Y-91414714D01*
X88143248Y-91271023D02*
X88718014Y-90839948D01*
X87712174Y-90839948D02*
X88286940Y-91414714D01*
X88574322Y-117710246D02*
X88646168Y-117638400D01*
X88718014Y-117710246D01*
X88646168Y-117782091D01*
X88574322Y-117710246D01*
X88718014Y-117710246D01*
X87784020Y-117710246D02*
X87855865Y-117638400D01*
X87927711Y-117710246D01*
X87855865Y-117782091D01*
X87784020Y-117710246D01*
X87927711Y-117710246D01*
X88574322Y-116991788D02*
X88646168Y-116919943D01*
X88718014Y-116991788D01*
X88646168Y-117063634D01*
X88574322Y-116991788D01*
X88718014Y-116991788D01*
X87784020Y-116991788D02*
X87855865Y-116919943D01*
X87927711Y-116991788D01*
X87855865Y-117063634D01*
X87784020Y-116991788D01*
X87927711Y-116991788D01*
X87137408Y-115195646D02*
X89077242Y-116488868D01*
X88143248Y-114692726D02*
X88143248Y-113543194D01*
X88718014Y-112034434D02*
X88718014Y-112896583D01*
X88718014Y-112465508D02*
X87209254Y-112465508D01*
X87424791Y-112609200D01*
X87568482Y-112752891D01*
X87640328Y-112896583D01*
X88143248Y-110238291D02*
X88143248Y-109088760D01*
X88718014Y-107220771D02*
X87209254Y-107220771D01*
X87712174Y-106502314D02*
X88718014Y-106502314D01*
X87855865Y-106502314D02*
X87784020Y-106430468D01*
X87712174Y-106286777D01*
X87712174Y-106071240D01*
X87784020Y-105927548D01*
X87927711Y-105855703D01*
X88718014Y-105855703D01*
X87712174Y-105280937D02*
X88718014Y-104921708D01*
X87712174Y-104562480D01*
X88718014Y-103341103D02*
X87927711Y-103341103D01*
X87784020Y-103412948D01*
X87712174Y-103556640D01*
X87712174Y-103844023D01*
X87784020Y-103987714D01*
X88646168Y-103341103D02*
X88718014Y-103484794D01*
X88718014Y-103844023D01*
X88646168Y-103987714D01*
X88502477Y-104059560D01*
X88358785Y-104059560D01*
X88215094Y-103987714D01*
X88143248Y-103844023D01*
X88143248Y-103484794D01*
X88071402Y-103341103D01*
X88718014Y-102407108D02*
X88646168Y-102550800D01*
X88502477Y-102622646D01*
X87209254Y-102622646D01*
X88718014Y-101832343D02*
X87712174Y-101832343D01*
X87209254Y-101832343D02*
X87281100Y-101904188D01*
X87352945Y-101832343D01*
X87281100Y-101760497D01*
X87209254Y-101832343D01*
X87352945Y-101832343D01*
X88718014Y-100467274D02*
X87209254Y-100467274D01*
X88646168Y-100467274D02*
X88718014Y-100610966D01*
X88718014Y-100898348D01*
X88646168Y-101042040D01*
X88574322Y-101113886D01*
X88430631Y-101185731D01*
X87999557Y-101185731D01*
X87855865Y-101113886D01*
X87784020Y-101042040D01*
X87712174Y-100898348D01*
X87712174Y-100610966D01*
X87784020Y-100467274D01*
X88574322Y-99748817D02*
X88646168Y-99676971D01*
X88718014Y-99748817D01*
X88646168Y-99820663D01*
X88574322Y-99748817D01*
X88718014Y-99748817D01*
X88718014Y-99030360D02*
X87209254Y-99030360D01*
X88718014Y-98168211D01*
X87209254Y-98168211D01*
X88646168Y-96874988D02*
X88718014Y-97018680D01*
X88718014Y-97306063D01*
X88646168Y-97449754D01*
X88502477Y-97521600D01*
X87927711Y-97521600D01*
X87784020Y-97449754D01*
X87712174Y-97306063D01*
X87712174Y-97018680D01*
X87784020Y-96874988D01*
X87927711Y-96803143D01*
X88071402Y-96803143D01*
X88215094Y-97521600D01*
X87712174Y-96372068D02*
X87712174Y-95797303D01*
X87209254Y-96156531D02*
X88502477Y-96156531D01*
X88646168Y-96084686D01*
X88718014Y-95940994D01*
X88718014Y-95797303D01*
X87712174Y-95438074D02*
X88718014Y-95150691D01*
X87999557Y-94863308D01*
X88718014Y-94575926D01*
X87712174Y-94288543D01*
X88718014Y-93498240D02*
X88646168Y-93641931D01*
X88574322Y-93713777D01*
X88430631Y-93785623D01*
X87999557Y-93785623D01*
X87855865Y-93713777D01*
X87784020Y-93641931D01*
X87712174Y-93498240D01*
X87712174Y-93282703D01*
X87784020Y-93139011D01*
X87855865Y-93067166D01*
X87999557Y-92995320D01*
X88430631Y-92995320D01*
X88574322Y-93067166D01*
X88646168Y-93139011D01*
X88718014Y-93282703D01*
X88718014Y-93498240D01*
X88718014Y-92348708D02*
X87712174Y-92348708D01*
X87999557Y-92348708D02*
X87855865Y-92276863D01*
X87784020Y-92205017D01*
X87712174Y-92061326D01*
X87712174Y-91917634D01*
X88718014Y-91414714D02*
X87209254Y-91414714D01*
X88143248Y-91271023D02*
X88718014Y-90839948D01*
X87712174Y-90839948D02*
X88286940Y-91414714D01*
D11*
%TO.C,BME280*%
X207391100Y-117383600D03*
X204851100Y-117383600D03*
X202311100Y-117383600D03*
X199771100Y-117383600D03*
X197231100Y-117383600D03*
X194691100Y-117383600D03*
%TD*%
%TO.C,JP1*%
X187071100Y-117383600D03*
X184531100Y-117383600D03*
X181991100Y-117383600D03*
X179451100Y-117383600D03*
X176911100Y-117383600D03*
X174371100Y-117383600D03*
X171831100Y-117383600D03*
X169291100Y-117383600D03*
X166751100Y-117383600D03*
X164211100Y-117383600D03*
%TD*%
%TO.C,JP2*%
X187071100Y-91983600D03*
X184531100Y-91983600D03*
X181991100Y-91983600D03*
X179451100Y-91983600D03*
X176911100Y-91983600D03*
X174371100Y-91983600D03*
X171831100Y-91983600D03*
X169291100Y-91983600D03*
X166751100Y-91983600D03*
X164211100Y-91983600D03*
%TD*%
D12*
%TO.C,U$1*%
X188041100Y-108493600D03*
X188041100Y-105953600D03*
X188041100Y-103413600D03*
X188041100Y-100873600D03*
%TD*%
D13*
%TO.C,U2*%
X153691100Y-109421400D03*
X153041100Y-109421400D03*
X152391100Y-109421400D03*
X151741100Y-109421400D03*
X151091100Y-109421400D03*
X150441100Y-109421400D03*
X149791100Y-109421400D03*
X149791100Y-103585800D03*
X150441100Y-103585800D03*
X151091100Y-103585800D03*
X151741100Y-103585800D03*
X152391100Y-103585800D03*
X153041100Y-103585800D03*
X153691100Y-103585800D03*
%TD*%
D14*
%TO.C,C1*%
X156241100Y-101953600D03*
X156241100Y-104053600D03*
%TD*%
D15*
%TO.C,C2*%
X150791100Y-99503600D03*
X152691100Y-99503600D03*
%TD*%
%TO.C,C3*%
X146291100Y-101503600D03*
X148191100Y-101503600D03*
%TD*%
D16*
%TO.C,C4*%
X147241100Y-105453600D03*
X147241100Y-103553600D03*
%TD*%
D17*
%TO.C,C5*%
X147241100Y-107553600D03*
X147241100Y-109453600D03*
%TD*%
D15*
%TO.C,R1*%
X155291100Y-99503600D03*
X157191100Y-99503600D03*
%TD*%
D18*
%TO.C,R2*%
X148191100Y-99503600D03*
X146291100Y-99503600D03*
%TD*%
D19*
%TO.C,D1*%
X149511100Y-113503600D03*
X146971100Y-113503600D03*
%TD*%
D20*
%TO.C,D2*%
X150241100Y-116233600D03*
X150241100Y-118773600D03*
%TD*%
%TO.C,D3*%
X153741100Y-116233600D03*
X153741100Y-118773600D03*
%TD*%
D16*
%TO.C,R3*%
X155741100Y-118453600D03*
X155741100Y-116553600D03*
%TD*%
%TO.C,R4*%
X148241100Y-118453600D03*
X148241100Y-116553600D03*
%TD*%
D15*
%TO.C,R5*%
X147671100Y-111563600D03*
X149571100Y-111563600D03*
%TD*%
D13*
%TO.C,U1*%
X135691100Y-109421400D03*
X135041100Y-109421400D03*
X134391100Y-109421400D03*
X133741100Y-109421400D03*
X133091100Y-109421400D03*
X132441100Y-109421400D03*
X131791100Y-109421400D03*
X131791100Y-103585800D03*
X132441100Y-103585800D03*
X133091100Y-103585800D03*
X133741100Y-103585800D03*
X134391100Y-103585800D03*
X135041100Y-103585800D03*
X135691100Y-103585800D03*
%TD*%
D14*
%TO.C,C6*%
X138741100Y-101953600D03*
X138741100Y-104053600D03*
%TD*%
D15*
%TO.C,C7*%
X132791100Y-99503600D03*
X134691100Y-99503600D03*
%TD*%
%TO.C,C8*%
X128291100Y-101503600D03*
X130191100Y-101503600D03*
%TD*%
D16*
%TO.C,C9*%
X129241100Y-105453600D03*
X129241100Y-103553600D03*
%TD*%
D17*
%TO.C,C10*%
X129261100Y-107373600D03*
X129261100Y-109273600D03*
%TD*%
D15*
%TO.C,R6*%
X137791100Y-99503600D03*
X139691100Y-99503600D03*
%TD*%
D18*
%TO.C,R7*%
X130191100Y-99503600D03*
X128291100Y-99503600D03*
%TD*%
D19*
%TO.C,D4*%
X131011100Y-113503600D03*
X128471100Y-113503600D03*
%TD*%
D20*
%TO.C,D5*%
X132241100Y-116233600D03*
X132241100Y-118773600D03*
%TD*%
%TO.C,D6*%
X135741100Y-116233600D03*
X135741100Y-118773600D03*
%TD*%
D16*
%TO.C,R8*%
X137741100Y-118453600D03*
X137741100Y-116553600D03*
%TD*%
%TO.C,R9*%
X129741100Y-118453600D03*
X129741100Y-116553600D03*
%TD*%
D15*
%TO.C,R10*%
X129291100Y-111503600D03*
X131191100Y-111503600D03*
%TD*%
D13*
%TO.C,U3*%
X117691100Y-109421400D03*
X117041100Y-109421400D03*
X116391100Y-109421400D03*
X115741100Y-109421400D03*
X115091100Y-109421400D03*
X114441100Y-109421400D03*
X113791100Y-109421400D03*
X113791100Y-103585800D03*
X114441100Y-103585800D03*
X115091100Y-103585800D03*
X115741100Y-103585800D03*
X116391100Y-103585800D03*
X117041100Y-103585800D03*
X117691100Y-103585800D03*
%TD*%
D14*
%TO.C,C11*%
X120241100Y-101953600D03*
X120241100Y-104053600D03*
%TD*%
D15*
%TO.C,C12*%
X114791100Y-99503600D03*
X116691100Y-99503600D03*
%TD*%
%TO.C,C13*%
X110291100Y-101503600D03*
X112191100Y-101503600D03*
%TD*%
D16*
%TO.C,C14*%
X111241100Y-105453600D03*
X111241100Y-103553600D03*
%TD*%
D17*
%TO.C,C15*%
X111241100Y-107553600D03*
X111241100Y-109453600D03*
%TD*%
D15*
%TO.C,R11*%
X119291100Y-99503600D03*
X121191100Y-99503600D03*
%TD*%
D18*
%TO.C,R12*%
X112191100Y-99503600D03*
X110291100Y-99503600D03*
%TD*%
D19*
%TO.C,D7*%
X112991100Y-113843600D03*
X110451100Y-113843600D03*
%TD*%
D20*
%TO.C,D8*%
X114241100Y-116233600D03*
X114241100Y-118773600D03*
%TD*%
%TO.C,D9*%
X117741100Y-116233600D03*
X117741100Y-118773600D03*
%TD*%
D16*
%TO.C,R13*%
X119741100Y-118453600D03*
X119741100Y-116553600D03*
%TD*%
%TO.C,R14*%
X111741100Y-118453600D03*
X111741100Y-116553600D03*
%TD*%
D15*
%TO.C,R15*%
X111311100Y-111703600D03*
X113211100Y-111703600D03*
%TD*%
D13*
%TO.C,U4*%
X99691100Y-109421400D03*
X99041100Y-109421400D03*
X98391100Y-109421400D03*
X97741100Y-109421400D03*
X97091100Y-109421400D03*
X96441100Y-109421400D03*
X95791100Y-109421400D03*
X95791100Y-103585800D03*
X96441100Y-103585800D03*
X97091100Y-103585800D03*
X97741100Y-103585800D03*
X98391100Y-103585800D03*
X99041100Y-103585800D03*
X99691100Y-103585800D03*
%TD*%
D14*
%TO.C,C16*%
X102241100Y-101953600D03*
X102241100Y-104053600D03*
%TD*%
D15*
%TO.C,C17*%
X96791100Y-99503600D03*
X98691100Y-99503600D03*
%TD*%
%TO.C,C18*%
X92291100Y-101503600D03*
X94191100Y-101503600D03*
%TD*%
D16*
%TO.C,C19*%
X93241100Y-105453600D03*
X93241100Y-103553600D03*
%TD*%
D17*
%TO.C,C20*%
X93241100Y-107553600D03*
X93241100Y-109453600D03*
%TD*%
D15*
%TO.C,R16*%
X101291100Y-99503600D03*
X103191100Y-99503600D03*
%TD*%
D18*
%TO.C,R17*%
X94191100Y-99503600D03*
X92291100Y-99503600D03*
%TD*%
D19*
%TO.C,D10*%
X95511100Y-113503600D03*
X92971100Y-113503600D03*
%TD*%
D20*
%TO.C,D11*%
X96241100Y-116233600D03*
X96241100Y-118773600D03*
%TD*%
%TO.C,D12*%
X99741100Y-116233600D03*
X99741100Y-118773600D03*
%TD*%
D16*
%TO.C,R18*%
X101741100Y-118453600D03*
X101741100Y-116553600D03*
%TD*%
%TO.C,R19*%
X94241100Y-118453600D03*
X94241100Y-116553600D03*
%TD*%
D15*
%TO.C,R20*%
X93291100Y-111503600D03*
X95191100Y-111503600D03*
%TD*%
D21*
%TO.C,J1*%
X155551100Y-95503600D03*
X147931100Y-95503600D03*
%TD*%
%TO.C,J2*%
X137551100Y-95503600D03*
X129931100Y-95503600D03*
%TD*%
%TO.C,J3*%
X119551100Y-95503600D03*
X111931100Y-95503600D03*
%TD*%
%TO.C,J4*%
X101551100Y-95503600D03*
X93931100Y-95503600D03*
%TD*%
M02*
