%TF.GenerationSoftware,KiCad,Pcbnew,(6.0.9)*%
%TF.CreationDate,2022-12-27T14:58:47-08:00*%
%TF.ProjectId,esp32-poe-thermocouple-hat-prod-onboard,65737033-322d-4706-9f65-2d746865726d,rev?*%
%TF.SameCoordinates,Original*%
%TF.FileFunction,Copper,L2,Bot*%
%TF.FilePolarity,Positive*%
%FSLAX46Y46*%
G04 Gerber Fmt 4.6, Leading zero omitted, Abs format (unit mm)*
G04 Created by KiCad (PCBNEW (6.0.9)) date 2022-12-27 14:58:47*
%MOMM*%
%LPD*%
G01*
G04 APERTURE LIST*
%TA.AperFunction,ComponentPad*%
%ADD10O,1.625600X4.876800*%
%TD*%
%TA.AperFunction,ComponentPad*%
%ADD11O,5.638800X1.879600*%
%TD*%
%TA.AperFunction,SMDPad,CuDef*%
%ADD12R,0.635000X1.270000*%
%TD*%
%TA.AperFunction,ComponentPad*%
%ADD13C,2.500000*%
%TD*%
%TA.AperFunction,ViaPad*%
%ADD14C,1.108000*%
%TD*%
%TA.AperFunction,Conductor*%
%ADD15C,0.609600*%
%TD*%
%TA.AperFunction,Conductor*%
%ADD16C,0.812800*%
%TD*%
%TA.AperFunction,Conductor*%
%ADD17C,0.610000*%
%TD*%
G04 APERTURE END LIST*
%TO.C,JP3*%
G36*
X177939800Y-108303100D02*
G01*
X177533400Y-108303100D01*
X177533400Y-108049100D01*
X177939800Y-108049100D01*
X177939800Y-108303100D01*
G37*
%TO.C,JP4*%
G36*
X176923800Y-112113100D02*
G01*
X176517400Y-112113100D01*
X176517400Y-111859100D01*
X176923800Y-111859100D01*
X176923800Y-112113100D01*
G37*
%TD*%
D10*
%TO.P,BME280,6*%
%TO.N,SDO*%
X207391100Y-117383600D03*
%TO.P,BME280,5*%
%TO.N,CSB*%
X204851100Y-117383600D03*
%TO.P,BME280,4*%
%TO.N,GPIO5/SDA*%
X202311100Y-117383600D03*
%TO.P,BME280,3*%
%TO.N,GPIO4/SCL*%
X199771100Y-117383600D03*
%TO.P,BME280,2*%
%TO.N,GND*%
X197231100Y-117383600D03*
%TO.P,BME280,1*%
%TO.N,3.3V*%
X194691100Y-117383600D03*
%TD*%
%TO.P,JP1,10*%
%TO.N,GPIO5/SDA*%
X187071100Y-117383600D03*
%TO.P,JP1,9*%
%TO.N,GPIO4/SCL*%
X184531100Y-117383600D03*
%TO.P,JP1,8*%
%TO.N,GPIO03*%
X181991100Y-117383600D03*
%TO.P,JP1,7*%
%TO.N,GPIO02/CS1*%
X179451100Y-117383600D03*
%TO.P,JP1,6*%
%TO.N,GPIO01*%
X176911100Y-117383600D03*
%TO.P,JP1,5*%
%TO.N,GPIO00*%
X174371100Y-117383600D03*
%TO.P,JP1,4*%
%TO.N,ESP_EN*%
X171831100Y-117383600D03*
%TO.P,JP1,3*%
%TO.N,GND*%
X169291100Y-117383600D03*
%TO.P,JP1,2*%
%TO.N,3.3V*%
X166751100Y-117383600D03*
%TO.P,JP1,1*%
%TO.N,5V*%
X164211100Y-117383600D03*
%TD*%
%TO.P,JP2,10*%
%TO.N,GPIO13/SCK*%
X187071100Y-91983600D03*
%TO.P,JP2,9*%
%TO.N,GPIO14/MISO*%
X184531100Y-91983600D03*
%TO.P,JP2,8*%
%TO.N,GPIO15/MOSI*%
X181991100Y-91983600D03*
%TO.P,JP2,7*%
%TO.N,GPIO16/CS4*%
X179451100Y-91983600D03*
%TO.P,JP2,6*%
%TO.N,GPIO32/CS3*%
X176911100Y-91983600D03*
%TO.P,JP2,5*%
%TO.N,GPIO33/CS2*%
X174371100Y-91983600D03*
%TO.P,JP2,4*%
%TO.N,GPIO34*%
X171831100Y-91983600D03*
%TO.P,JP2,3*%
%TO.N,GPIO35*%
X169291100Y-91983600D03*
%TO.P,JP2,2*%
%TO.N,GPIO36*%
X166751100Y-91983600D03*
%TO.P,JP2,1*%
%TO.N,GPIO39*%
X164211100Y-91983600D03*
%TD*%
D11*
%TO.P,U$1,4*%
%TO.N,GPIO5/SDA*%
X188041100Y-108493600D03*
%TO.P,U$1,3*%
%TO.N,GPIO4/SCL*%
X188041100Y-105953600D03*
%TO.P,U$1,2*%
%TO.N,OLED_P2*%
X188041100Y-103413600D03*
%TO.P,U$1,1*%
%TO.N,OLED_P1*%
X188041100Y-100873600D03*
%TD*%
D12*
%TO.P,JP3,3*%
%TO.N,GND*%
X178244600Y-108176100D03*
%TO.P,JP3,2*%
%TO.N,OLED_P1*%
X177228600Y-108176100D03*
%TO.P,JP3,1*%
%TO.N,3.3V*%
X176212600Y-108176100D03*
%TD*%
%TO.P,JP4,3*%
%TO.N,3.3V*%
X176212600Y-111986100D03*
%TO.P,JP4,2*%
%TO.N,OLED_P2*%
X177228600Y-111986100D03*
%TO.P,JP4,1*%
%TO.N,GND*%
X178244600Y-111986100D03*
%TD*%
D13*
%TO.P,J1,2*%
%TO.N,THERM-1*%
X155551100Y-95503600D03*
%TO.P,J1,1*%
%TO.N,THERM+1*%
X147931100Y-95503600D03*
%TD*%
%TO.P,J2,2*%
%TO.N,THERM-2*%
X137551100Y-95503600D03*
%TO.P,J2,1*%
%TO.N,THERM+2*%
X129931100Y-95503600D03*
%TD*%
%TO.P,J3,2*%
%TO.N,THERM-3*%
X119551100Y-95503600D03*
%TO.P,J3,1*%
%TO.N,THERM+3*%
X111931100Y-95503600D03*
%TD*%
%TO.P,J4,2*%
%TO.N,THERM-4*%
X101551100Y-95503600D03*
%TO.P,J4,1*%
%TO.N,THERM+4*%
X93931100Y-95503600D03*
%TD*%
D14*
%TO.N,GPIO33/CS2*%
X126741100Y-113003600D03*
%TO.N,GPIO02/CS1*%
X145741100Y-111503600D03*
X156741100Y-108003600D03*
X172741100Y-112003600D03*
%TO.N,GPIO16/CS4*%
X92241100Y-117003600D03*
%TO.N,GPIO32/CS3*%
X109741100Y-115003600D03*
%TO.N,3.3V*%
X175958600Y-110081100D03*
%TO.N,OLED_P2*%
X177546100Y-110081100D03*
%TO.N,GPIO13/SCK*%
X96241100Y-123003600D03*
X114241100Y-123003600D03*
X132241100Y-123003600D03*
X150241100Y-123003600D03*
%TO.N,GPIO14/MISO*%
X99741100Y-121003600D03*
X117741100Y-121003600D03*
X135741100Y-121003600D03*
X153741100Y-121003600D03*
%TO.N,GPIO15/MOSI*%
X97741100Y-119003600D03*
X115741100Y-119003600D03*
X133741100Y-119003600D03*
X151741100Y-119003600D03*
%TO.N,GND*%
X90241100Y-105503600D03*
X90241100Y-101503600D03*
X104241100Y-104003600D03*
X101241100Y-109503600D03*
X108741100Y-103003600D03*
X122241100Y-104003600D03*
X108741100Y-105503600D03*
X118741100Y-109503600D03*
X136741100Y-109503600D03*
X126741100Y-103003600D03*
X126741100Y-105503600D03*
X140741100Y-104003600D03*
X155241100Y-107503600D03*
X158241100Y-104003600D03*
X144741100Y-103003600D03*
X145241100Y-107503600D03*
%TD*%
D15*
%TO.N,GPIO33/CS2*%
X153741100Y-113003600D02*
X126741100Y-113003600D01*
X160741100Y-106003600D02*
X153741100Y-113003600D01*
X162741100Y-106003600D02*
X160741100Y-106003600D01*
X174371100Y-94373600D02*
X162741100Y-106003600D01*
X174371100Y-91983600D02*
X174371100Y-94373600D01*
%TO.N,GPIO02/CS1*%
X153241100Y-111503600D02*
X145741100Y-111503600D01*
X156741100Y-108003600D02*
X153241100Y-111503600D01*
X174741100Y-114003600D02*
X172741100Y-112003600D01*
X178741100Y-114003600D02*
X174741100Y-114003600D01*
X179451100Y-114713600D02*
X178741100Y-114003600D01*
X179451100Y-117383600D02*
X179451100Y-114713600D01*
%TO.N,GPIO16/CS4*%
X153741100Y-117003600D02*
X92241100Y-117003600D01*
X161741100Y-109003600D02*
X153741100Y-117003600D01*
X164741100Y-109003600D02*
X161741100Y-109003600D01*
X179451100Y-94293600D02*
X164741100Y-109003600D01*
X179451100Y-91983600D02*
X179451100Y-94293600D01*
%TO.N,GPIO32/CS3*%
X153741100Y-115003600D02*
X109741100Y-115003600D01*
X161741100Y-107003600D02*
X153741100Y-115003600D01*
X163741100Y-107003600D02*
X161741100Y-107003600D01*
X176911100Y-93833600D02*
X163741100Y-107003600D01*
X176911100Y-91983600D02*
X176911100Y-93833600D01*
D16*
%TO.N,3.3V*%
X176212600Y-109827100D02*
X175958600Y-110081100D01*
X176212600Y-108176100D02*
X176212600Y-109827100D01*
D17*
X176212600Y-110335100D02*
X175958600Y-110081100D01*
X176212600Y-111986100D02*
X176212600Y-110335100D01*
%TO.N,OLED_P1*%
X177228600Y-106588600D02*
X182943600Y-100873600D01*
X177228600Y-108176100D02*
X177228600Y-106588600D01*
X182943600Y-100873600D02*
X188041100Y-100873600D01*
%TO.N,OLED_P2*%
X177228600Y-110398600D02*
X177546100Y-110081100D01*
X177228600Y-111986100D02*
X177228600Y-110398600D01*
D15*
%TO.N,GPIO13/SCK*%
X114241100Y-123003600D02*
X96241100Y-123003600D01*
X132241100Y-123003600D02*
X114241100Y-123003600D01*
X150241100Y-123003600D02*
X132241100Y-123003600D01*
X157741100Y-123003600D02*
X150241100Y-123003600D01*
X160741100Y-120003600D02*
X157741100Y-123003600D01*
X160741100Y-116003600D02*
X160741100Y-120003600D01*
X162741100Y-114003600D02*
X160741100Y-116003600D01*
X167741100Y-114003600D02*
X162741100Y-114003600D01*
X187071100Y-94673600D02*
X167741100Y-114003600D01*
X187071100Y-94523600D02*
X187071100Y-94673600D01*
D17*
X187071100Y-94523600D02*
X187071100Y-91983600D01*
D15*
%TO.N,GPIO14/MISO*%
X117741100Y-121003600D02*
X99741100Y-121003600D01*
X135741100Y-121003600D02*
X117741100Y-121003600D01*
X153741100Y-121003600D02*
X135741100Y-121003600D01*
X157741100Y-121003600D02*
X153741100Y-121003600D01*
X158741100Y-120003600D02*
X157741100Y-121003600D01*
X158741100Y-116003600D02*
X158741100Y-120003600D01*
X162123600Y-112621100D02*
X158741100Y-116003600D01*
X166433600Y-112621100D02*
X162123600Y-112621100D01*
D17*
X184531100Y-94523600D02*
X184531100Y-91983600D01*
X166433600Y-112621100D02*
X184531100Y-94523600D01*
D15*
%TO.N,GPIO15/MOSI*%
X115741100Y-119003600D02*
X97741100Y-119003600D01*
X133741100Y-119003600D02*
X115741100Y-119003600D01*
X151741100Y-119003600D02*
X133741100Y-119003600D01*
X155741100Y-119003600D02*
X151741100Y-119003600D01*
X156741100Y-118003600D02*
X155741100Y-119003600D01*
X156741100Y-116003600D02*
X156741100Y-118003600D01*
X161741100Y-111003600D02*
X156741100Y-116003600D01*
X165741100Y-111003600D02*
X161741100Y-111003600D01*
X181991100Y-94753600D02*
X165741100Y-111003600D01*
X181991100Y-91983600D02*
X181991100Y-94753600D01*
D17*
%TO.N,GPIO5/SDA*%
X187071100Y-109463600D02*
X188041100Y-108493600D01*
X187071100Y-117383600D02*
X187071100Y-109463600D01*
%TO.N,GPIO4/SCL*%
X184213600Y-105953600D02*
X188041100Y-105953600D01*
X183261100Y-106906100D02*
X184213600Y-105953600D01*
X183261100Y-112303600D02*
X183261100Y-106906100D01*
X184531100Y-113573600D02*
X183261100Y-112303600D01*
X184531100Y-117383600D02*
X184531100Y-113573600D01*
D15*
X199771100Y-119923600D02*
X199771100Y-117383600D01*
X198501100Y-121193600D02*
X199771100Y-119923600D01*
X185801100Y-121193600D02*
X198501100Y-121193600D01*
X184531100Y-119923600D02*
X185801100Y-121193600D01*
X184531100Y-117383600D02*
X184531100Y-119923600D01*
%TD*%
%TA.AperFunction,Conductor*%
%TO.N,GND*%
G36*
X194108631Y-85023813D02*
G01*
X194145176Y-85074113D01*
X194150100Y-85105200D01*
X194150100Y-109573402D01*
X194150018Y-109573600D01*
X194150100Y-109573798D01*
X194150335Y-109574365D01*
X194151100Y-109574682D01*
X194151298Y-109574600D01*
X209829500Y-109574600D01*
X209888631Y-109593813D01*
X209925176Y-109644113D01*
X209930100Y-109675200D01*
X209930100Y-124902000D01*
X209910887Y-124961131D01*
X209860587Y-124997676D01*
X209829500Y-125002600D01*
X87172700Y-125002600D01*
X87113569Y-124983387D01*
X87077024Y-124933087D01*
X87072100Y-124902000D01*
X87072100Y-122996411D01*
X95554633Y-122996411D01*
X95555298Y-123002433D01*
X95572067Y-123154336D01*
X95572068Y-123154340D01*
X95572733Y-123160364D01*
X95629420Y-123315267D01*
X95632806Y-123320306D01*
X95712710Y-123439216D01*
X95721419Y-123452177D01*
X95725905Y-123456259D01*
X95725906Y-123456260D01*
X95739115Y-123468279D01*
X95843421Y-123563189D01*
X95988381Y-123641896D01*
X95994251Y-123643436D01*
X96142064Y-123682214D01*
X96142065Y-123682214D01*
X96147931Y-123683753D01*
X96226671Y-123684990D01*
X96306796Y-123686249D01*
X96306798Y-123686249D01*
X96312859Y-123686344D01*
X96318770Y-123684990D01*
X96318772Y-123684990D01*
X96467735Y-123650873D01*
X96467738Y-123650872D01*
X96473645Y-123649519D01*
X96494560Y-123639000D01*
X96615587Y-123578131D01*
X96615590Y-123578129D01*
X96621006Y-123575405D01*
X96746434Y-123468279D01*
X96747033Y-123467446D01*
X96799494Y-123437885D01*
X96819379Y-123435900D01*
X113664612Y-123435900D01*
X113723743Y-123455113D01*
X113732314Y-123462090D01*
X113843421Y-123563189D01*
X113988381Y-123641896D01*
X113994251Y-123643436D01*
X114142064Y-123682214D01*
X114142065Y-123682214D01*
X114147931Y-123683753D01*
X114226671Y-123684990D01*
X114306796Y-123686249D01*
X114306798Y-123686249D01*
X114312859Y-123686344D01*
X114318770Y-123684990D01*
X114318772Y-123684990D01*
X114467735Y-123650873D01*
X114467738Y-123650872D01*
X114473645Y-123649519D01*
X114494560Y-123639000D01*
X114615587Y-123578131D01*
X114615590Y-123578129D01*
X114621006Y-123575405D01*
X114746434Y-123468279D01*
X114747033Y-123467446D01*
X114799494Y-123437885D01*
X114819379Y-123435900D01*
X131664612Y-123435900D01*
X131723743Y-123455113D01*
X131732314Y-123462090D01*
X131843421Y-123563189D01*
X131988381Y-123641896D01*
X131994251Y-123643436D01*
X132142064Y-123682214D01*
X132142065Y-123682214D01*
X132147931Y-123683753D01*
X132226671Y-123684990D01*
X132306796Y-123686249D01*
X132306798Y-123686249D01*
X132312859Y-123686344D01*
X132318770Y-123684990D01*
X132318772Y-123684990D01*
X132467735Y-123650873D01*
X132467738Y-123650872D01*
X132473645Y-123649519D01*
X132494560Y-123639000D01*
X132615587Y-123578131D01*
X132615590Y-123578129D01*
X132621006Y-123575405D01*
X132746434Y-123468279D01*
X132747033Y-123467446D01*
X132799494Y-123437885D01*
X132819379Y-123435900D01*
X149664612Y-123435900D01*
X149723743Y-123455113D01*
X149732314Y-123462090D01*
X149843421Y-123563189D01*
X149988381Y-123641896D01*
X149994251Y-123643436D01*
X150142064Y-123682214D01*
X150142065Y-123682214D01*
X150147931Y-123683753D01*
X150226671Y-123684990D01*
X150306796Y-123686249D01*
X150306798Y-123686249D01*
X150312859Y-123686344D01*
X150318770Y-123684990D01*
X150318772Y-123684990D01*
X150467735Y-123650873D01*
X150467738Y-123650872D01*
X150473645Y-123649519D01*
X150494560Y-123639000D01*
X150615587Y-123578131D01*
X150615590Y-123578129D01*
X150621006Y-123575405D01*
X150746434Y-123468279D01*
X150747033Y-123467446D01*
X150799494Y-123437885D01*
X150819379Y-123435900D01*
X157709466Y-123435900D01*
X157721290Y-123436597D01*
X157747369Y-123439684D01*
X157747372Y-123439684D01*
X157754833Y-123440567D01*
X157776571Y-123436597D01*
X157810532Y-123430395D01*
X157813647Y-123429876D01*
X157869649Y-123421456D01*
X157875895Y-123418457D01*
X157882711Y-123417212D01*
X157932993Y-123391093D01*
X157935744Y-123389719D01*
X157986833Y-123365186D01*
X157991264Y-123361089D01*
X157992991Y-123359926D01*
X157998070Y-123357288D01*
X158002907Y-123353158D01*
X158038944Y-123317121D01*
X158041791Y-123314383D01*
X158076769Y-123282050D01*
X158076771Y-123282048D01*
X158082291Y-123276945D01*
X158085705Y-123271067D01*
X158091778Y-123264287D01*
X161024415Y-120331650D01*
X161033269Y-120323782D01*
X161053887Y-120307528D01*
X161059793Y-120302872D01*
X161090245Y-120258812D01*
X161091996Y-120256278D01*
X161093795Y-120253760D01*
X161127467Y-120208171D01*
X161129763Y-120201633D01*
X161133702Y-120195934D01*
X161150787Y-120141913D01*
X161151768Y-120138972D01*
X161153438Y-120134219D01*
X161170540Y-120085520D01*
X161170777Y-120079481D01*
X161171171Y-120077459D01*
X161172901Y-120071990D01*
X161173400Y-120065649D01*
X161173400Y-120014684D01*
X161173478Y-120010735D01*
X161175348Y-119963143D01*
X161175348Y-119963141D01*
X161175643Y-119955625D01*
X161173900Y-119949052D01*
X161173400Y-119939960D01*
X161173400Y-119058475D01*
X163270800Y-119058475D01*
X163286282Y-119205776D01*
X163347362Y-119393761D01*
X163349998Y-119398327D01*
X163349999Y-119398329D01*
X163390459Y-119468407D01*
X163446191Y-119564939D01*
X163578451Y-119711828D01*
X163582710Y-119714923D01*
X163582713Y-119714925D01*
X163666051Y-119775473D01*
X163738360Y-119828009D01*
X163918931Y-119908404D01*
X163924081Y-119909499D01*
X163924082Y-119909499D01*
X164107117Y-119948405D01*
X164107122Y-119948406D01*
X164112271Y-119949500D01*
X164309929Y-119949500D01*
X164315078Y-119948406D01*
X164315083Y-119948405D01*
X164498118Y-119909499D01*
X164498119Y-119909499D01*
X164503269Y-119908404D01*
X164683839Y-119828009D01*
X164843749Y-119711828D01*
X164976009Y-119564939D01*
X165031742Y-119468407D01*
X165072201Y-119398329D01*
X165072202Y-119398327D01*
X165074838Y-119393761D01*
X165135918Y-119205776D01*
X165151400Y-119058475D01*
X165810800Y-119058475D01*
X165826282Y-119205776D01*
X165887362Y-119393761D01*
X165889998Y-119398327D01*
X165889999Y-119398329D01*
X165930459Y-119468407D01*
X165986191Y-119564939D01*
X166118451Y-119711828D01*
X166122710Y-119714923D01*
X166122713Y-119714925D01*
X166206051Y-119775473D01*
X166278360Y-119828009D01*
X166458931Y-119908404D01*
X166464081Y-119909499D01*
X166464082Y-119909499D01*
X166647117Y-119948405D01*
X166647122Y-119948406D01*
X166652271Y-119949500D01*
X166849929Y-119949500D01*
X166855078Y-119948406D01*
X166855083Y-119948405D01*
X167038118Y-119909499D01*
X167038119Y-119909499D01*
X167043269Y-119908404D01*
X167223839Y-119828009D01*
X167383749Y-119711828D01*
X167516009Y-119564939D01*
X167571742Y-119468407D01*
X167612201Y-119398329D01*
X167612202Y-119398327D01*
X167614838Y-119393761D01*
X167675918Y-119205776D01*
X167690774Y-119064432D01*
X168021900Y-119064432D01*
X168022100Y-119068916D01*
X168036512Y-119230407D01*
X168038091Y-119239179D01*
X168095512Y-119449081D01*
X168098619Y-119457435D01*
X168192301Y-119653840D01*
X168196847Y-119661528D01*
X168323823Y-119838234D01*
X168329654Y-119844990D01*
X168485922Y-119996423D01*
X168492859Y-120002040D01*
X168673467Y-120123405D01*
X168681287Y-120127704D01*
X168880537Y-120215168D01*
X168889003Y-120218017D01*
X169047405Y-120256046D01*
X169060312Y-120255030D01*
X169062900Y-120245853D01*
X169062900Y-120244197D01*
X169519300Y-120244197D01*
X169523488Y-120257087D01*
X169525194Y-120258326D01*
X169530193Y-120258812D01*
X169551601Y-120256221D01*
X169560327Y-120254367D01*
X169768307Y-120190384D01*
X169776579Y-120187008D01*
X169969934Y-120087209D01*
X169977481Y-120082420D01*
X170150111Y-119949957D01*
X170156674Y-119943922D01*
X170303129Y-119782970D01*
X170308519Y-119775869D01*
X170424158Y-119591525D01*
X170428207Y-119583578D01*
X170509371Y-119381676D01*
X170511948Y-119373140D01*
X170556237Y-119159282D01*
X170557198Y-119151981D01*
X170560217Y-119099618D01*
X170560300Y-119096729D01*
X170560300Y-119058475D01*
X170890800Y-119058475D01*
X170906282Y-119205776D01*
X170967362Y-119393761D01*
X170969998Y-119398327D01*
X170969999Y-119398329D01*
X171010459Y-119468407D01*
X171066191Y-119564939D01*
X171198451Y-119711828D01*
X171202710Y-119714923D01*
X171202713Y-119714925D01*
X171286051Y-119775473D01*
X171358360Y-119828009D01*
X171538931Y-119908404D01*
X171544081Y-119909499D01*
X171544082Y-119909499D01*
X171727117Y-119948405D01*
X171727122Y-119948406D01*
X171732271Y-119949500D01*
X171929929Y-119949500D01*
X171935078Y-119948406D01*
X171935083Y-119948405D01*
X172118118Y-119909499D01*
X172118119Y-119909499D01*
X172123269Y-119908404D01*
X172303839Y-119828009D01*
X172463749Y-119711828D01*
X172596009Y-119564939D01*
X172651742Y-119468407D01*
X172692201Y-119398329D01*
X172692202Y-119398327D01*
X172694838Y-119393761D01*
X172755918Y-119205776D01*
X172771400Y-119058475D01*
X173430800Y-119058475D01*
X173446282Y-119205776D01*
X173507362Y-119393761D01*
X173509998Y-119398327D01*
X173509999Y-119398329D01*
X173550459Y-119468407D01*
X173606191Y-119564939D01*
X173738451Y-119711828D01*
X173742710Y-119714923D01*
X173742713Y-119714925D01*
X173826051Y-119775473D01*
X173898360Y-119828009D01*
X174078931Y-119908404D01*
X174084081Y-119909499D01*
X174084082Y-119909499D01*
X174267117Y-119948405D01*
X174267122Y-119948406D01*
X174272271Y-119949500D01*
X174469929Y-119949500D01*
X174475078Y-119948406D01*
X174475083Y-119948405D01*
X174658118Y-119909499D01*
X174658119Y-119909499D01*
X174663269Y-119908404D01*
X174843839Y-119828009D01*
X175003749Y-119711828D01*
X175136009Y-119564939D01*
X175191742Y-119468407D01*
X175232201Y-119398329D01*
X175232202Y-119398327D01*
X175234838Y-119393761D01*
X175295918Y-119205776D01*
X175311400Y-119058475D01*
X175970800Y-119058475D01*
X175986282Y-119205776D01*
X176047362Y-119393761D01*
X176049998Y-119398327D01*
X176049999Y-119398329D01*
X176090459Y-119468407D01*
X176146191Y-119564939D01*
X176278451Y-119711828D01*
X176282710Y-119714923D01*
X176282713Y-119714925D01*
X176366051Y-119775473D01*
X176438360Y-119828009D01*
X176618931Y-119908404D01*
X176624081Y-119909499D01*
X176624082Y-119909499D01*
X176807117Y-119948405D01*
X176807122Y-119948406D01*
X176812271Y-119949500D01*
X177009929Y-119949500D01*
X177015078Y-119948406D01*
X177015083Y-119948405D01*
X177198118Y-119909499D01*
X177198119Y-119909499D01*
X177203269Y-119908404D01*
X177383839Y-119828009D01*
X177543749Y-119711828D01*
X177676009Y-119564939D01*
X177731742Y-119468407D01*
X177772201Y-119398329D01*
X177772202Y-119398327D01*
X177774838Y-119393761D01*
X177835918Y-119205776D01*
X177851400Y-119058475D01*
X177851400Y-115708725D01*
X177837674Y-115578131D01*
X177836469Y-115566665D01*
X177836469Y-115566664D01*
X177835918Y-115561424D01*
X177774838Y-115373439D01*
X177770073Y-115365186D01*
X177678645Y-115206826D01*
X177678643Y-115206823D01*
X177676009Y-115202261D01*
X177543749Y-115055372D01*
X177539488Y-115052276D01*
X177539487Y-115052275D01*
X177428762Y-114971829D01*
X177383840Y-114939191D01*
X177203269Y-114858796D01*
X177198119Y-114857701D01*
X177198118Y-114857701D01*
X177015083Y-114818795D01*
X177015078Y-114818794D01*
X177009929Y-114817700D01*
X176812271Y-114817700D01*
X176807122Y-114818794D01*
X176807117Y-114818795D01*
X176624082Y-114857701D01*
X176624081Y-114857701D01*
X176618931Y-114858796D01*
X176438361Y-114939191D01*
X176278451Y-115055372D01*
X176146191Y-115202261D01*
X176143557Y-115206823D01*
X176143555Y-115206826D01*
X176052127Y-115365186D01*
X176047362Y-115373439D01*
X175986282Y-115561424D01*
X175985731Y-115566664D01*
X175985731Y-115566665D01*
X175984526Y-115578131D01*
X175970800Y-115708725D01*
X175970800Y-119058475D01*
X175311400Y-119058475D01*
X175311400Y-115708725D01*
X175297674Y-115578131D01*
X175296469Y-115566665D01*
X175296469Y-115566664D01*
X175295918Y-115561424D01*
X175234838Y-115373439D01*
X175230073Y-115365186D01*
X175138645Y-115206826D01*
X175138643Y-115206823D01*
X175136009Y-115202261D01*
X175003749Y-115055372D01*
X174999488Y-115052276D01*
X174999487Y-115052275D01*
X174888762Y-114971829D01*
X174843840Y-114939191D01*
X174663269Y-114858796D01*
X174658119Y-114857701D01*
X174658118Y-114857701D01*
X174475083Y-114818795D01*
X174475078Y-114818794D01*
X174469929Y-114817700D01*
X174272271Y-114817700D01*
X174267122Y-114818794D01*
X174267117Y-114818795D01*
X174084082Y-114857701D01*
X174084081Y-114857701D01*
X174078931Y-114858796D01*
X173898361Y-114939191D01*
X173738451Y-115055372D01*
X173606191Y-115202261D01*
X173603557Y-115206823D01*
X173603555Y-115206826D01*
X173512127Y-115365186D01*
X173507362Y-115373439D01*
X173446282Y-115561424D01*
X173445731Y-115566664D01*
X173445731Y-115566665D01*
X173444526Y-115578131D01*
X173430800Y-115708725D01*
X173430800Y-119058475D01*
X172771400Y-119058475D01*
X172771400Y-115708725D01*
X172757674Y-115578131D01*
X172756469Y-115566665D01*
X172756469Y-115566664D01*
X172755918Y-115561424D01*
X172694838Y-115373439D01*
X172690073Y-115365186D01*
X172598645Y-115206826D01*
X172598643Y-115206823D01*
X172596009Y-115202261D01*
X172463749Y-115055372D01*
X172459488Y-115052276D01*
X172459487Y-115052275D01*
X172348762Y-114971829D01*
X172303840Y-114939191D01*
X172123269Y-114858796D01*
X172118119Y-114857701D01*
X172118118Y-114857701D01*
X171935083Y-114818795D01*
X171935078Y-114818794D01*
X171929929Y-114817700D01*
X171732271Y-114817700D01*
X171727122Y-114818794D01*
X171727117Y-114818795D01*
X171544082Y-114857701D01*
X171544081Y-114857701D01*
X171538931Y-114858796D01*
X171358361Y-114939191D01*
X171198451Y-115055372D01*
X171066191Y-115202261D01*
X171063557Y-115206823D01*
X171063555Y-115206826D01*
X170972127Y-115365186D01*
X170967362Y-115373439D01*
X170906282Y-115561424D01*
X170905731Y-115566664D01*
X170905731Y-115566665D01*
X170904526Y-115578131D01*
X170890800Y-115708725D01*
X170890800Y-119058475D01*
X170560300Y-119058475D01*
X170560300Y-117627733D01*
X170556112Y-117614843D01*
X170551923Y-117611800D01*
X169535233Y-117611800D01*
X169522343Y-117615988D01*
X169519300Y-117620177D01*
X169519300Y-120244197D01*
X169062900Y-120244197D01*
X169062900Y-117627733D01*
X169058712Y-117614843D01*
X169054523Y-117611800D01*
X168037833Y-117611800D01*
X168024943Y-117615988D01*
X168021900Y-117620177D01*
X168021900Y-119064432D01*
X167690774Y-119064432D01*
X167691400Y-119058475D01*
X167691400Y-117139467D01*
X168021900Y-117139467D01*
X168026088Y-117152357D01*
X168030277Y-117155400D01*
X169046967Y-117155400D01*
X169059857Y-117151212D01*
X169062900Y-117147023D01*
X169062900Y-117139467D01*
X169519300Y-117139467D01*
X169523488Y-117152357D01*
X169527677Y-117155400D01*
X170544367Y-117155400D01*
X170557257Y-117151212D01*
X170560300Y-117147023D01*
X170560300Y-115702768D01*
X170560100Y-115698284D01*
X170545688Y-115536793D01*
X170544109Y-115528021D01*
X170486688Y-115318119D01*
X170483581Y-115309765D01*
X170389899Y-115113360D01*
X170385353Y-115105672D01*
X170258377Y-114928966D01*
X170252546Y-114922210D01*
X170096278Y-114770777D01*
X170089341Y-114765160D01*
X169908733Y-114643795D01*
X169900913Y-114639496D01*
X169701663Y-114552032D01*
X169693197Y-114549183D01*
X169534795Y-114511154D01*
X169521888Y-114512170D01*
X169519300Y-114521347D01*
X169519300Y-117139467D01*
X169062900Y-117139467D01*
X169062900Y-114523003D01*
X169058712Y-114510113D01*
X169057006Y-114508874D01*
X169052007Y-114508388D01*
X169030599Y-114510979D01*
X169021873Y-114512833D01*
X168813893Y-114576816D01*
X168805621Y-114580192D01*
X168612266Y-114679991D01*
X168604719Y-114684780D01*
X168432089Y-114817243D01*
X168425526Y-114823278D01*
X168279071Y-114984230D01*
X168273681Y-114991331D01*
X168158042Y-115175675D01*
X168153993Y-115183622D01*
X168072829Y-115385524D01*
X168070252Y-115394060D01*
X168025963Y-115607918D01*
X168025002Y-115615219D01*
X168021983Y-115667582D01*
X168021900Y-115670471D01*
X168021900Y-117139467D01*
X167691400Y-117139467D01*
X167691400Y-115708725D01*
X167677674Y-115578131D01*
X167676469Y-115566665D01*
X167676469Y-115566664D01*
X167675918Y-115561424D01*
X167614838Y-115373439D01*
X167610073Y-115365186D01*
X167518645Y-115206826D01*
X167518643Y-115206823D01*
X167516009Y-115202261D01*
X167383749Y-115055372D01*
X167379488Y-115052276D01*
X167379487Y-115052275D01*
X167268762Y-114971829D01*
X167223840Y-114939191D01*
X167043269Y-114858796D01*
X167038119Y-114857701D01*
X167038118Y-114857701D01*
X166855083Y-114818795D01*
X166855078Y-114818794D01*
X166849929Y-114817700D01*
X166652271Y-114817700D01*
X166647122Y-114818794D01*
X166647117Y-114818795D01*
X166464082Y-114857701D01*
X166464081Y-114857701D01*
X166458931Y-114858796D01*
X166278361Y-114939191D01*
X166118451Y-115055372D01*
X165986191Y-115202261D01*
X165983557Y-115206823D01*
X165983555Y-115206826D01*
X165892127Y-115365186D01*
X165887362Y-115373439D01*
X165826282Y-115561424D01*
X165825731Y-115566664D01*
X165825731Y-115566665D01*
X165824526Y-115578131D01*
X165810800Y-115708725D01*
X165810800Y-119058475D01*
X165151400Y-119058475D01*
X165151400Y-115708725D01*
X165137674Y-115578131D01*
X165136469Y-115566665D01*
X165136469Y-115566664D01*
X165135918Y-115561424D01*
X165074838Y-115373439D01*
X165070073Y-115365186D01*
X164978645Y-115206826D01*
X164978643Y-115206823D01*
X164976009Y-115202261D01*
X164843749Y-115055372D01*
X164839488Y-115052276D01*
X164839487Y-115052275D01*
X164728762Y-114971829D01*
X164683840Y-114939191D01*
X164503269Y-114858796D01*
X164498119Y-114857701D01*
X164498118Y-114857701D01*
X164315083Y-114818795D01*
X164315078Y-114818794D01*
X164309929Y-114817700D01*
X164112271Y-114817700D01*
X164107122Y-114818794D01*
X164107117Y-114818795D01*
X163924082Y-114857701D01*
X163924081Y-114857701D01*
X163918931Y-114858796D01*
X163738361Y-114939191D01*
X163578451Y-115055372D01*
X163446191Y-115202261D01*
X163443557Y-115206823D01*
X163443555Y-115206826D01*
X163352127Y-115365186D01*
X163347362Y-115373439D01*
X163286282Y-115561424D01*
X163285731Y-115566664D01*
X163285731Y-115566665D01*
X163284526Y-115578131D01*
X163270800Y-115708725D01*
X163270800Y-119058475D01*
X161173400Y-119058475D01*
X161173400Y-116224335D01*
X161192613Y-116165204D01*
X161202865Y-116153200D01*
X162890700Y-114465365D01*
X162946098Y-114437139D01*
X162961835Y-114435900D01*
X167709466Y-114435900D01*
X167721290Y-114436597D01*
X167747369Y-114439684D01*
X167747372Y-114439684D01*
X167754833Y-114440567D01*
X167777064Y-114436507D01*
X167810532Y-114430395D01*
X167813647Y-114429876D01*
X167869649Y-114421456D01*
X167875895Y-114418457D01*
X167882711Y-114417212D01*
X167932993Y-114391093D01*
X167935744Y-114389719D01*
X167986833Y-114365186D01*
X167991264Y-114361089D01*
X167992991Y-114359926D01*
X167998070Y-114357288D01*
X168002907Y-114353158D01*
X168038944Y-114317121D01*
X168041791Y-114314383D01*
X168076769Y-114282050D01*
X168076771Y-114282048D01*
X168082291Y-114276945D01*
X168085705Y-114271067D01*
X168091778Y-114264287D01*
X170359654Y-111996411D01*
X172054633Y-111996411D01*
X172057378Y-112021279D01*
X172072067Y-112154336D01*
X172072068Y-112154340D01*
X172072733Y-112160364D01*
X172129420Y-112315267D01*
X172132806Y-112320306D01*
X172216426Y-112444746D01*
X172221419Y-112452177D01*
X172225905Y-112456259D01*
X172225906Y-112456260D01*
X172328493Y-112549606D01*
X172343421Y-112563189D01*
X172348748Y-112566081D01*
X172348749Y-112566082D01*
X172380356Y-112583243D01*
X172488381Y-112641896D01*
X172494251Y-112643436D01*
X172642064Y-112682214D01*
X172642065Y-112682214D01*
X172647931Y-112683753D01*
X172745365Y-112685284D01*
X172771731Y-112685698D01*
X172830553Y-112705838D01*
X172841286Y-112715151D01*
X174413050Y-114286915D01*
X174420918Y-114295769D01*
X174441828Y-114322293D01*
X174448018Y-114326571D01*
X174488422Y-114354496D01*
X174490940Y-114356295D01*
X174536529Y-114389967D01*
X174543066Y-114392263D01*
X174548766Y-114396202D01*
X174585811Y-114407918D01*
X174602770Y-114413282D01*
X174605766Y-114414282D01*
X174652085Y-114430548D01*
X174652086Y-114430548D01*
X174659179Y-114433039D01*
X174665212Y-114433276D01*
X174667240Y-114433671D01*
X174672710Y-114435401D01*
X174679051Y-114435900D01*
X174730041Y-114435900D01*
X174733990Y-114435978D01*
X174781555Y-114437847D01*
X174781558Y-114437847D01*
X174789074Y-114438142D01*
X174795646Y-114436399D01*
X174804728Y-114435900D01*
X178520365Y-114435900D01*
X178579496Y-114455113D01*
X178591500Y-114465365D01*
X178945442Y-114819307D01*
X178973668Y-114874705D01*
X178963942Y-114936113D01*
X178933438Y-114971829D01*
X178822713Y-115052275D01*
X178822712Y-115052276D01*
X178818451Y-115055372D01*
X178686191Y-115202261D01*
X178683557Y-115206823D01*
X178683555Y-115206826D01*
X178592127Y-115365186D01*
X178587362Y-115373439D01*
X178526282Y-115561424D01*
X178525731Y-115566664D01*
X178525731Y-115566665D01*
X178524526Y-115578131D01*
X178510800Y-115708725D01*
X178510800Y-119058475D01*
X178526282Y-119205776D01*
X178587362Y-119393761D01*
X178589998Y-119398327D01*
X178589999Y-119398329D01*
X178630459Y-119468407D01*
X178686191Y-119564939D01*
X178818451Y-119711828D01*
X178822710Y-119714923D01*
X178822713Y-119714925D01*
X178906051Y-119775473D01*
X178978360Y-119828009D01*
X179158931Y-119908404D01*
X179164081Y-119909499D01*
X179164082Y-119909499D01*
X179347117Y-119948405D01*
X179347122Y-119948406D01*
X179352271Y-119949500D01*
X179549929Y-119949500D01*
X179555078Y-119948406D01*
X179555083Y-119948405D01*
X179738118Y-119909499D01*
X179738119Y-119909499D01*
X179743269Y-119908404D01*
X179923839Y-119828009D01*
X180083749Y-119711828D01*
X180216009Y-119564939D01*
X180271742Y-119468407D01*
X180312201Y-119398329D01*
X180312202Y-119398327D01*
X180314838Y-119393761D01*
X180375918Y-119205776D01*
X180391400Y-119058475D01*
X181050800Y-119058475D01*
X181066282Y-119205776D01*
X181127362Y-119393761D01*
X181129998Y-119398327D01*
X181129999Y-119398329D01*
X181170459Y-119468407D01*
X181226191Y-119564939D01*
X181358451Y-119711828D01*
X181362710Y-119714923D01*
X181362713Y-119714925D01*
X181446051Y-119775473D01*
X181518360Y-119828009D01*
X181698931Y-119908404D01*
X181704081Y-119909499D01*
X181704082Y-119909499D01*
X181887117Y-119948405D01*
X181887122Y-119948406D01*
X181892271Y-119949500D01*
X182089929Y-119949500D01*
X182095078Y-119948406D01*
X182095083Y-119948405D01*
X182278118Y-119909499D01*
X182278119Y-119909499D01*
X182283269Y-119908404D01*
X182463839Y-119828009D01*
X182623749Y-119711828D01*
X182756009Y-119564939D01*
X182811742Y-119468407D01*
X182852201Y-119398329D01*
X182852202Y-119398327D01*
X182854838Y-119393761D01*
X182915918Y-119205776D01*
X182931400Y-119058475D01*
X182931400Y-115708725D01*
X182917674Y-115578131D01*
X182916469Y-115566665D01*
X182916469Y-115566664D01*
X182915918Y-115561424D01*
X182854838Y-115373439D01*
X182850073Y-115365186D01*
X182758645Y-115206826D01*
X182758643Y-115206823D01*
X182756009Y-115202261D01*
X182623749Y-115055372D01*
X182619488Y-115052276D01*
X182619487Y-115052275D01*
X182508762Y-114971829D01*
X182463840Y-114939191D01*
X182283269Y-114858796D01*
X182278119Y-114857701D01*
X182278118Y-114857701D01*
X182095083Y-114818795D01*
X182095078Y-114818794D01*
X182089929Y-114817700D01*
X181892271Y-114817700D01*
X181887122Y-114818794D01*
X181887117Y-114818795D01*
X181704082Y-114857701D01*
X181704081Y-114857701D01*
X181698931Y-114858796D01*
X181518361Y-114939191D01*
X181358451Y-115055372D01*
X181226191Y-115202261D01*
X181223557Y-115206823D01*
X181223555Y-115206826D01*
X181132127Y-115365186D01*
X181127362Y-115373439D01*
X181066282Y-115561424D01*
X181065731Y-115566664D01*
X181065731Y-115566665D01*
X181064526Y-115578131D01*
X181050800Y-115708725D01*
X181050800Y-119058475D01*
X180391400Y-119058475D01*
X180391400Y-115708725D01*
X180377674Y-115578131D01*
X180376469Y-115566665D01*
X180376469Y-115566664D01*
X180375918Y-115561424D01*
X180314838Y-115373439D01*
X180310073Y-115365186D01*
X180218645Y-115206826D01*
X180218643Y-115206823D01*
X180216009Y-115202261D01*
X180083749Y-115055372D01*
X180079488Y-115052276D01*
X180079487Y-115052275D01*
X179968762Y-114971829D01*
X179924868Y-114939938D01*
X179888324Y-114889639D01*
X179883400Y-114858552D01*
X179883400Y-114745242D01*
X179884097Y-114733417D01*
X179887185Y-114707332D01*
X179887185Y-114707329D01*
X179888068Y-114699868D01*
X179883385Y-114674228D01*
X179877894Y-114644158D01*
X179877375Y-114641043D01*
X179870073Y-114592482D01*
X179868956Y-114585051D01*
X179865957Y-114578805D01*
X179864712Y-114571989D01*
X179838600Y-114521721D01*
X179837194Y-114518906D01*
X179815943Y-114474649D01*
X179815942Y-114474647D01*
X179812686Y-114467867D01*
X179808592Y-114463438D01*
X179807430Y-114461713D01*
X179804789Y-114456630D01*
X179800658Y-114451793D01*
X179764621Y-114415756D01*
X179761883Y-114412909D01*
X179729550Y-114377931D01*
X179729548Y-114377929D01*
X179724445Y-114372409D01*
X179718567Y-114368995D01*
X179711787Y-114362922D01*
X179069150Y-113720285D01*
X179061282Y-113711431D01*
X179045028Y-113690813D01*
X179040372Y-113684907D01*
X178993778Y-113652704D01*
X178991260Y-113650905D01*
X178945671Y-113617233D01*
X178939134Y-113614937D01*
X178933434Y-113610998D01*
X178879378Y-113593902D01*
X178876495Y-113592940D01*
X178823020Y-113574161D01*
X178816988Y-113573924D01*
X178814960Y-113573529D01*
X178809490Y-113571799D01*
X178803149Y-113571300D01*
X178752174Y-113571300D01*
X178748224Y-113571222D01*
X178700645Y-113569352D01*
X178700642Y-113569352D01*
X178693126Y-113569057D01*
X178686551Y-113570800D01*
X178677464Y-113571300D01*
X174961834Y-113571300D01*
X174902703Y-113552087D01*
X174890699Y-113541835D01*
X173455447Y-112106582D01*
X173427221Y-112051184D01*
X173427011Y-112024546D01*
X173426740Y-112024525D01*
X173426985Y-112021300D01*
X173426985Y-112021279D01*
X173426989Y-112021253D01*
X173426990Y-112021235D01*
X173427454Y-112017977D01*
X173427605Y-112003600D01*
X173423347Y-111968407D01*
X173408518Y-111845868D01*
X173408517Y-111845866D01*
X173407789Y-111839846D01*
X173400406Y-111820306D01*
X173351628Y-111691221D01*
X173351627Y-111691220D01*
X173349483Y-111685545D01*
X173256055Y-111549606D01*
X173132898Y-111439877D01*
X172987121Y-111362692D01*
X172910667Y-111343488D01*
X172833028Y-111323986D01*
X172833024Y-111323986D01*
X172827142Y-111322508D01*
X172821077Y-111322476D01*
X172821075Y-111322476D01*
X172746189Y-111322084D01*
X172662195Y-111321645D01*
X172612015Y-111333692D01*
X172507709Y-111358733D01*
X172507706Y-111358734D01*
X172501804Y-111360151D01*
X172496410Y-111362935D01*
X172380862Y-111422574D01*
X172355227Y-111435805D01*
X172230927Y-111544238D01*
X172183504Y-111611715D01*
X172139569Y-111674228D01*
X172139567Y-111674232D01*
X172136081Y-111679192D01*
X172133878Y-111684841D01*
X172133877Y-111684844D01*
X172078368Y-111827217D01*
X172076163Y-111832873D01*
X172068496Y-111891112D01*
X172058337Y-111968279D01*
X172054633Y-111996411D01*
X170359654Y-111996411D01*
X172282154Y-110073911D01*
X175272133Y-110073911D01*
X175272798Y-110079933D01*
X175289567Y-110231836D01*
X175289568Y-110231840D01*
X175290233Y-110237864D01*
X175346920Y-110392767D01*
X175350306Y-110397806D01*
X175355947Y-110406200D01*
X175438919Y-110529677D01*
X175443405Y-110533759D01*
X175443406Y-110533760D01*
X175502375Y-110587417D01*
X175560921Y-110640689D01*
X175566248Y-110643581D01*
X175566249Y-110643582D01*
X175700550Y-110716502D01*
X175700553Y-110716503D01*
X175705881Y-110719396D01*
X175711749Y-110720935D01*
X175716532Y-110722829D01*
X175764439Y-110762460D01*
X175780100Y-110816365D01*
X175780100Y-111274074D01*
X175774687Y-111301290D01*
X175774998Y-111301352D01*
X175767600Y-111338542D01*
X175767600Y-112633658D01*
X175774998Y-112670848D01*
X175780501Y-112679083D01*
X175780501Y-112679084D01*
X175785348Y-112686338D01*
X175803178Y-112713022D01*
X175845352Y-112741202D01*
X175855065Y-112743134D01*
X175855067Y-112743135D01*
X175870333Y-112746171D01*
X175882542Y-112748600D01*
X176542658Y-112748600D01*
X176554867Y-112746171D01*
X176570133Y-112743135D01*
X176570135Y-112743134D01*
X176579848Y-112741202D01*
X176622022Y-112713022D01*
X176627525Y-112704786D01*
X176627529Y-112704782D01*
X176636955Y-112690675D01*
X176685781Y-112652184D01*
X176747908Y-112649743D01*
X176799603Y-112684286D01*
X176804245Y-112690675D01*
X176813671Y-112704782D01*
X176813675Y-112704786D01*
X176819178Y-112713022D01*
X176861352Y-112741202D01*
X176871065Y-112743134D01*
X176871067Y-112743135D01*
X176886333Y-112746171D01*
X176898542Y-112748600D01*
X177416829Y-112748600D01*
X177475960Y-112767813D01*
X177511746Y-112815866D01*
X177516703Y-112829980D01*
X177523662Y-112843124D01*
X177596264Y-112941421D01*
X177606779Y-112951936D01*
X177705076Y-113024538D01*
X177718222Y-113031498D01*
X177834829Y-113072449D01*
X177846714Y-113075057D01*
X177870200Y-113077277D01*
X177874941Y-113077500D01*
X178000467Y-113077500D01*
X178013357Y-113073312D01*
X178016400Y-113069123D01*
X178016400Y-113061566D01*
X178472800Y-113061566D01*
X178476988Y-113074456D01*
X178481177Y-113077499D01*
X178614276Y-113077499D01*
X178618984Y-113077277D01*
X178642480Y-113075057D01*
X178654375Y-113072447D01*
X178770978Y-113031498D01*
X178784124Y-113024538D01*
X178882421Y-112951936D01*
X178892936Y-112941421D01*
X178965538Y-112843124D01*
X178972498Y-112829978D01*
X179013449Y-112713371D01*
X179016057Y-112701486D01*
X179018277Y-112678000D01*
X179018500Y-112673259D01*
X179018500Y-112317338D01*
X182823931Y-112317338D01*
X182834108Y-112373062D01*
X182834627Y-112376179D01*
X182843050Y-112432209D01*
X182846051Y-112438458D01*
X182847296Y-112445277D01*
X182850762Y-112451949D01*
X182873416Y-112495560D01*
X182874828Y-112498387D01*
X182895692Y-112541835D01*
X182899347Y-112549447D01*
X182903449Y-112553885D01*
X182904606Y-112555601D01*
X182907248Y-112560688D01*
X182911387Y-112565534D01*
X182947431Y-112601578D01*
X182950169Y-112604426D01*
X182987628Y-112644949D01*
X182993509Y-112648365D01*
X183000297Y-112654444D01*
X184069135Y-113723283D01*
X184097361Y-113778681D01*
X184098600Y-113794418D01*
X184098600Y-114858698D01*
X184079387Y-114917829D01*
X184057132Y-114940084D01*
X183898451Y-115055372D01*
X183766191Y-115202261D01*
X183763557Y-115206823D01*
X183763555Y-115206826D01*
X183672127Y-115365186D01*
X183667362Y-115373439D01*
X183606282Y-115561424D01*
X183605731Y-115566664D01*
X183605731Y-115566665D01*
X183604526Y-115578131D01*
X183590800Y-115708725D01*
X183590800Y-119058475D01*
X183606282Y-119205776D01*
X183667362Y-119393761D01*
X183669998Y-119398327D01*
X183669999Y-119398329D01*
X183710459Y-119468407D01*
X183766191Y-119564939D01*
X183898451Y-119711828D01*
X183902710Y-119714923D01*
X183902713Y-119714925D01*
X183974475Y-119767063D01*
X184055514Y-119825941D01*
X184092058Y-119876240D01*
X184096285Y-119919151D01*
X184094133Y-119937333D01*
X184095484Y-119944730D01*
X184104305Y-119993032D01*
X184104823Y-119996144D01*
X184113244Y-120052149D01*
X184116243Y-120058395D01*
X184117488Y-120065211D01*
X184143607Y-120115493D01*
X184144981Y-120118244D01*
X184169514Y-120169333D01*
X184173611Y-120173764D01*
X184174774Y-120175491D01*
X184177412Y-120180570D01*
X184181542Y-120185407D01*
X184217579Y-120221444D01*
X184220317Y-120224291D01*
X184251779Y-120258326D01*
X184257755Y-120264791D01*
X184263633Y-120268205D01*
X184270413Y-120274278D01*
X185473050Y-121476915D01*
X185480918Y-121485769D01*
X185501828Y-121512293D01*
X185508018Y-121516571D01*
X185548422Y-121544496D01*
X185550940Y-121546295D01*
X185596529Y-121579967D01*
X185603066Y-121582263D01*
X185608766Y-121586202D01*
X185645811Y-121597918D01*
X185662770Y-121603282D01*
X185665766Y-121604282D01*
X185712085Y-121620548D01*
X185712086Y-121620548D01*
X185719179Y-121623039D01*
X185725212Y-121623276D01*
X185727240Y-121623671D01*
X185732710Y-121625401D01*
X185739051Y-121625900D01*
X185790041Y-121625900D01*
X185793990Y-121625978D01*
X185841555Y-121627847D01*
X185841558Y-121627847D01*
X185849074Y-121628142D01*
X185855646Y-121626399D01*
X185864728Y-121625900D01*
X198469466Y-121625900D01*
X198481290Y-121626597D01*
X198507369Y-121629684D01*
X198507372Y-121629684D01*
X198514833Y-121630567D01*
X198537064Y-121626507D01*
X198570532Y-121620395D01*
X198573647Y-121619876D01*
X198629649Y-121611456D01*
X198635895Y-121608457D01*
X198642711Y-121607212D01*
X198692993Y-121581093D01*
X198695744Y-121579719D01*
X198746833Y-121555186D01*
X198751264Y-121551089D01*
X198752991Y-121549926D01*
X198758070Y-121547288D01*
X198762907Y-121543158D01*
X198798944Y-121507121D01*
X198801791Y-121504383D01*
X198836769Y-121472050D01*
X198836771Y-121472048D01*
X198842291Y-121466945D01*
X198845705Y-121461067D01*
X198851778Y-121454287D01*
X200054415Y-120251650D01*
X200063269Y-120243782D01*
X200083887Y-120227528D01*
X200089793Y-120222872D01*
X200114720Y-120186806D01*
X200121996Y-120176278D01*
X200123795Y-120173760D01*
X200157467Y-120128171D01*
X200159763Y-120121634D01*
X200163702Y-120115934D01*
X200179912Y-120064680D01*
X200180782Y-120061930D01*
X200181782Y-120058934D01*
X200198048Y-120012615D01*
X200198048Y-120012614D01*
X200200539Y-120005521D01*
X200200776Y-119999488D01*
X200201171Y-119997460D01*
X200202901Y-119991990D01*
X200203400Y-119985649D01*
X200203400Y-119934659D01*
X200203478Y-119930710D01*
X200204530Y-119903934D01*
X200226049Y-119845602D01*
X200245921Y-119826496D01*
X200403749Y-119711828D01*
X200536009Y-119564939D01*
X200591742Y-119468407D01*
X200632201Y-119398329D01*
X200632202Y-119398327D01*
X200634838Y-119393761D01*
X200695918Y-119205776D01*
X200711400Y-119058475D01*
X201370800Y-119058475D01*
X201386282Y-119205776D01*
X201447362Y-119393761D01*
X201449998Y-119398327D01*
X201449999Y-119398329D01*
X201490459Y-119468407D01*
X201546191Y-119564939D01*
X201678451Y-119711828D01*
X201682710Y-119714923D01*
X201682713Y-119714925D01*
X201766051Y-119775473D01*
X201838360Y-119828009D01*
X202018931Y-119908404D01*
X202024081Y-119909499D01*
X202024082Y-119909499D01*
X202207117Y-119948405D01*
X202207122Y-119948406D01*
X202212271Y-119949500D01*
X202409929Y-119949500D01*
X202415078Y-119948406D01*
X202415083Y-119948405D01*
X202598118Y-119909499D01*
X202598119Y-119909499D01*
X202603269Y-119908404D01*
X202783839Y-119828009D01*
X202943749Y-119711828D01*
X203076009Y-119564939D01*
X203131742Y-119468407D01*
X203172201Y-119398329D01*
X203172202Y-119398327D01*
X203174838Y-119393761D01*
X203235918Y-119205776D01*
X203251400Y-119058475D01*
X203910800Y-119058475D01*
X203926282Y-119205776D01*
X203987362Y-119393761D01*
X203989998Y-119398327D01*
X203989999Y-119398329D01*
X204030459Y-119468407D01*
X204086191Y-119564939D01*
X204218451Y-119711828D01*
X204222710Y-119714923D01*
X204222713Y-119714925D01*
X204306051Y-119775473D01*
X204378360Y-119828009D01*
X204558931Y-119908404D01*
X204564081Y-119909499D01*
X204564082Y-119909499D01*
X204747117Y-119948405D01*
X204747122Y-119948406D01*
X204752271Y-119949500D01*
X204949929Y-119949500D01*
X204955078Y-119948406D01*
X204955083Y-119948405D01*
X205138118Y-119909499D01*
X205138119Y-119909499D01*
X205143269Y-119908404D01*
X205323839Y-119828009D01*
X205483749Y-119711828D01*
X205616009Y-119564939D01*
X205671742Y-119468407D01*
X205712201Y-119398329D01*
X205712202Y-119398327D01*
X205714838Y-119393761D01*
X205775918Y-119205776D01*
X205791400Y-119058475D01*
X206450800Y-119058475D01*
X206466282Y-119205776D01*
X206527362Y-119393761D01*
X206529998Y-119398327D01*
X206529999Y-119398329D01*
X206570459Y-119468407D01*
X206626191Y-119564939D01*
X206758451Y-119711828D01*
X206762710Y-119714923D01*
X206762713Y-119714925D01*
X206846051Y-119775473D01*
X206918360Y-119828009D01*
X207098931Y-119908404D01*
X207104081Y-119909499D01*
X207104082Y-119909499D01*
X207287117Y-119948405D01*
X207287122Y-119948406D01*
X207292271Y-119949500D01*
X207489929Y-119949500D01*
X207495078Y-119948406D01*
X207495083Y-119948405D01*
X207678118Y-119909499D01*
X207678119Y-119909499D01*
X207683269Y-119908404D01*
X207863839Y-119828009D01*
X208023749Y-119711828D01*
X208156009Y-119564939D01*
X208211742Y-119468407D01*
X208252201Y-119398329D01*
X208252202Y-119398327D01*
X208254838Y-119393761D01*
X208315918Y-119205776D01*
X208331400Y-119058475D01*
X208331400Y-115708725D01*
X208317674Y-115578131D01*
X208316469Y-115566665D01*
X208316469Y-115566664D01*
X208315918Y-115561424D01*
X208254838Y-115373439D01*
X208250073Y-115365186D01*
X208158645Y-115206826D01*
X208158643Y-115206823D01*
X208156009Y-115202261D01*
X208023749Y-115055372D01*
X208019488Y-115052276D01*
X208019487Y-115052275D01*
X207908762Y-114971829D01*
X207863840Y-114939191D01*
X207683269Y-114858796D01*
X207678119Y-114857701D01*
X207678118Y-114857701D01*
X207495083Y-114818795D01*
X207495078Y-114818794D01*
X207489929Y-114817700D01*
X207292271Y-114817700D01*
X207287122Y-114818794D01*
X207287117Y-114818795D01*
X207104082Y-114857701D01*
X207104081Y-114857701D01*
X207098931Y-114858796D01*
X206918361Y-114939191D01*
X206758451Y-115055372D01*
X206626191Y-115202261D01*
X206623557Y-115206823D01*
X206623555Y-115206826D01*
X206532127Y-115365186D01*
X206527362Y-115373439D01*
X206466282Y-115561424D01*
X206465731Y-115566664D01*
X206465731Y-115566665D01*
X206464526Y-115578131D01*
X206450800Y-115708725D01*
X206450800Y-119058475D01*
X205791400Y-119058475D01*
X205791400Y-115708725D01*
X205777674Y-115578131D01*
X205776469Y-115566665D01*
X205776469Y-115566664D01*
X205775918Y-115561424D01*
X205714838Y-115373439D01*
X205710073Y-115365186D01*
X205618645Y-115206826D01*
X205618643Y-115206823D01*
X205616009Y-115202261D01*
X205483749Y-115055372D01*
X205479488Y-115052276D01*
X205479487Y-115052275D01*
X205368762Y-114971829D01*
X205323840Y-114939191D01*
X205143269Y-114858796D01*
X205138119Y-114857701D01*
X205138118Y-114857701D01*
X204955083Y-114818795D01*
X204955078Y-114818794D01*
X204949929Y-114817700D01*
X204752271Y-114817700D01*
X204747122Y-114818794D01*
X204747117Y-114818795D01*
X204564082Y-114857701D01*
X204564081Y-114857701D01*
X204558931Y-114858796D01*
X204378361Y-114939191D01*
X204218451Y-115055372D01*
X204086191Y-115202261D01*
X204083557Y-115206823D01*
X204083555Y-115206826D01*
X203992127Y-115365186D01*
X203987362Y-115373439D01*
X203926282Y-115561424D01*
X203925731Y-115566664D01*
X203925731Y-115566665D01*
X203924526Y-115578131D01*
X203910800Y-115708725D01*
X203910800Y-119058475D01*
X203251400Y-119058475D01*
X203251400Y-115708725D01*
X203237674Y-115578131D01*
X203236469Y-115566665D01*
X203236469Y-115566664D01*
X203235918Y-115561424D01*
X203174838Y-115373439D01*
X203170073Y-115365186D01*
X203078645Y-115206826D01*
X203078643Y-115206823D01*
X203076009Y-115202261D01*
X202943749Y-115055372D01*
X202939488Y-115052276D01*
X202939487Y-115052275D01*
X202828762Y-114971829D01*
X202783840Y-114939191D01*
X202603269Y-114858796D01*
X202598119Y-114857701D01*
X202598118Y-114857701D01*
X202415083Y-114818795D01*
X202415078Y-114818794D01*
X202409929Y-114817700D01*
X202212271Y-114817700D01*
X202207122Y-114818794D01*
X202207117Y-114818795D01*
X202024082Y-114857701D01*
X202024081Y-114857701D01*
X202018931Y-114858796D01*
X201838361Y-114939191D01*
X201678451Y-115055372D01*
X201546191Y-115202261D01*
X201543557Y-115206823D01*
X201543555Y-115206826D01*
X201452127Y-115365186D01*
X201447362Y-115373439D01*
X201386282Y-115561424D01*
X201385731Y-115566664D01*
X201385731Y-115566665D01*
X201384526Y-115578131D01*
X201370800Y-115708725D01*
X201370800Y-119058475D01*
X200711400Y-119058475D01*
X200711400Y-115708725D01*
X200697674Y-115578131D01*
X200696469Y-115566665D01*
X200696469Y-115566664D01*
X200695918Y-115561424D01*
X200634838Y-115373439D01*
X200630073Y-115365186D01*
X200538645Y-115206826D01*
X200538643Y-115206823D01*
X200536009Y-115202261D01*
X200403749Y-115055372D01*
X200399488Y-115052276D01*
X200399487Y-115052275D01*
X200288762Y-114971829D01*
X200243840Y-114939191D01*
X200063269Y-114858796D01*
X200058119Y-114857701D01*
X200058118Y-114857701D01*
X199875083Y-114818795D01*
X199875078Y-114818794D01*
X199869929Y-114817700D01*
X199672271Y-114817700D01*
X199667122Y-114818794D01*
X199667117Y-114818795D01*
X199484082Y-114857701D01*
X199484081Y-114857701D01*
X199478931Y-114858796D01*
X199298361Y-114939191D01*
X199138451Y-115055372D01*
X199006191Y-115202261D01*
X199003557Y-115206823D01*
X199003555Y-115206826D01*
X198912127Y-115365186D01*
X198907362Y-115373439D01*
X198846282Y-115561424D01*
X198845731Y-115566664D01*
X198845731Y-115566665D01*
X198844526Y-115578131D01*
X198830800Y-115708725D01*
X198830800Y-119058475D01*
X198846282Y-119205776D01*
X198907362Y-119393761D01*
X198909998Y-119398327D01*
X198909999Y-119398329D01*
X198950459Y-119468407D01*
X199006191Y-119564939D01*
X199138451Y-119711828D01*
X199178144Y-119740667D01*
X199214689Y-119790965D01*
X199214690Y-119853139D01*
X199190148Y-119893188D01*
X198761690Y-120321645D01*
X198351500Y-120731835D01*
X198296102Y-120760061D01*
X198280365Y-120761300D01*
X186021834Y-120761300D01*
X185962703Y-120742087D01*
X185950699Y-120731835D01*
X185112052Y-119893188D01*
X185083826Y-119837790D01*
X185093552Y-119776382D01*
X185124055Y-119740667D01*
X185163749Y-119711828D01*
X185296009Y-119564939D01*
X185351742Y-119468407D01*
X185392201Y-119398329D01*
X185392202Y-119398327D01*
X185394838Y-119393761D01*
X185455918Y-119205776D01*
X185471400Y-119058475D01*
X185471400Y-115708725D01*
X185457674Y-115578131D01*
X185456469Y-115566665D01*
X185456469Y-115566664D01*
X185455918Y-115561424D01*
X185394838Y-115373439D01*
X185390073Y-115365186D01*
X185298645Y-115206826D01*
X185298643Y-115206823D01*
X185296009Y-115202261D01*
X185163749Y-115055372D01*
X185159488Y-115052276D01*
X185159487Y-115052275D01*
X185026869Y-114955923D01*
X185005069Y-114940084D01*
X184968524Y-114889784D01*
X184963600Y-114858697D01*
X184963600Y-113605243D01*
X184964297Y-113593418D01*
X184964356Y-113592924D01*
X184965338Y-113584626D01*
X184967386Y-113567325D01*
X184967386Y-113567322D01*
X184968269Y-113559861D01*
X184958094Y-113504144D01*
X184957575Y-113501028D01*
X184950268Y-113452426D01*
X184950268Y-113452425D01*
X184949150Y-113444991D01*
X184946149Y-113438742D01*
X184944904Y-113431923D01*
X184918781Y-113381634D01*
X184917369Y-113378807D01*
X184910338Y-113364166D01*
X184892853Y-113327753D01*
X184888752Y-113323317D01*
X184887597Y-113321603D01*
X184884952Y-113316511D01*
X184880813Y-113311666D01*
X184844769Y-113275622D01*
X184842031Y-113272774D01*
X184809676Y-113237773D01*
X184804572Y-113232251D01*
X184798691Y-113228835D01*
X184791903Y-113222756D01*
X183723065Y-112153917D01*
X183694839Y-112098519D01*
X183693600Y-112082782D01*
X183693600Y-108486113D01*
X185089062Y-108486113D01*
X185089508Y-108491014D01*
X185089508Y-108491017D01*
X185107284Y-108686344D01*
X185108032Y-108694560D01*
X185167129Y-108895352D01*
X185264100Y-109080842D01*
X185395254Y-109243964D01*
X185555593Y-109378505D01*
X185559907Y-109380877D01*
X185559909Y-109380878D01*
X185635754Y-109422574D01*
X185739011Y-109479340D01*
X185743697Y-109480827D01*
X185743703Y-109480829D01*
X185933828Y-109541139D01*
X185938522Y-109542628D01*
X185943413Y-109543177D01*
X185943415Y-109543177D01*
X186098632Y-109560587D01*
X186098633Y-109560587D01*
X186101423Y-109560900D01*
X186538000Y-109560900D01*
X186597131Y-109580113D01*
X186633676Y-109630413D01*
X186638600Y-109661500D01*
X186638600Y-114858698D01*
X186619387Y-114917829D01*
X186597132Y-114940084D01*
X186438451Y-115055372D01*
X186306191Y-115202261D01*
X186303557Y-115206823D01*
X186303555Y-115206826D01*
X186212127Y-115365186D01*
X186207362Y-115373439D01*
X186146282Y-115561424D01*
X186145731Y-115566664D01*
X186145731Y-115566665D01*
X186144526Y-115578131D01*
X186130800Y-115708725D01*
X186130800Y-119058475D01*
X186146282Y-119205776D01*
X186207362Y-119393761D01*
X186209998Y-119398327D01*
X186209999Y-119398329D01*
X186250459Y-119468407D01*
X186306191Y-119564939D01*
X186438451Y-119711828D01*
X186442710Y-119714923D01*
X186442713Y-119714925D01*
X186526051Y-119775473D01*
X186598360Y-119828009D01*
X186778931Y-119908404D01*
X186784081Y-119909499D01*
X186784082Y-119909499D01*
X186967117Y-119948405D01*
X186967122Y-119948406D01*
X186972271Y-119949500D01*
X187169929Y-119949500D01*
X187175078Y-119948406D01*
X187175083Y-119948405D01*
X187358118Y-119909499D01*
X187358119Y-119909499D01*
X187363269Y-119908404D01*
X187543839Y-119828009D01*
X187703749Y-119711828D01*
X187836009Y-119564939D01*
X187891742Y-119468407D01*
X187932201Y-119398329D01*
X187932202Y-119398327D01*
X187934838Y-119393761D01*
X187995918Y-119205776D01*
X188011400Y-119058475D01*
X193750800Y-119058475D01*
X193766282Y-119205776D01*
X193827362Y-119393761D01*
X193829998Y-119398327D01*
X193829999Y-119398329D01*
X193870459Y-119468407D01*
X193926191Y-119564939D01*
X194058451Y-119711828D01*
X194062710Y-119714923D01*
X194062713Y-119714925D01*
X194146051Y-119775473D01*
X194218360Y-119828009D01*
X194398931Y-119908404D01*
X194404081Y-119909499D01*
X194404082Y-119909499D01*
X194587117Y-119948405D01*
X194587122Y-119948406D01*
X194592271Y-119949500D01*
X194789929Y-119949500D01*
X194795078Y-119948406D01*
X194795083Y-119948405D01*
X194978118Y-119909499D01*
X194978119Y-119909499D01*
X194983269Y-119908404D01*
X195163839Y-119828009D01*
X195323749Y-119711828D01*
X195456009Y-119564939D01*
X195511742Y-119468407D01*
X195552201Y-119398329D01*
X195552202Y-119398327D01*
X195554838Y-119393761D01*
X195615918Y-119205776D01*
X195630774Y-119064432D01*
X195961900Y-119064432D01*
X195962100Y-119068916D01*
X195976512Y-119230407D01*
X195978091Y-119239179D01*
X196035512Y-119449081D01*
X196038619Y-119457435D01*
X196132301Y-119653840D01*
X196136847Y-119661528D01*
X196263823Y-119838234D01*
X196269654Y-119844990D01*
X196425922Y-119996423D01*
X196432859Y-120002040D01*
X196613467Y-120123405D01*
X196621287Y-120127704D01*
X196820537Y-120215168D01*
X196829003Y-120218017D01*
X196987405Y-120256046D01*
X197000312Y-120255030D01*
X197002900Y-120245853D01*
X197002900Y-120244197D01*
X197459300Y-120244197D01*
X197463488Y-120257087D01*
X197465194Y-120258326D01*
X197470193Y-120258812D01*
X197491601Y-120256221D01*
X197500327Y-120254367D01*
X197708307Y-120190384D01*
X197716579Y-120187008D01*
X197909934Y-120087209D01*
X197917481Y-120082420D01*
X198090111Y-119949957D01*
X198096674Y-119943922D01*
X198243129Y-119782970D01*
X198248519Y-119775869D01*
X198364158Y-119591525D01*
X198368207Y-119583578D01*
X198449371Y-119381676D01*
X198451948Y-119373140D01*
X198496237Y-119159282D01*
X198497198Y-119151981D01*
X198500217Y-119099618D01*
X198500300Y-119096729D01*
X198500300Y-117627733D01*
X198496112Y-117614843D01*
X198491923Y-117611800D01*
X197475233Y-117611800D01*
X197462343Y-117615988D01*
X197459300Y-117620177D01*
X197459300Y-120244197D01*
X197002900Y-120244197D01*
X197002900Y-117627733D01*
X196998712Y-117614843D01*
X196994523Y-117611800D01*
X195977833Y-117611800D01*
X195964943Y-117615988D01*
X195961900Y-117620177D01*
X195961900Y-119064432D01*
X195630774Y-119064432D01*
X195631400Y-119058475D01*
X195631400Y-117139467D01*
X195961900Y-117139467D01*
X195966088Y-117152357D01*
X195970277Y-117155400D01*
X196986967Y-117155400D01*
X196999857Y-117151212D01*
X197002900Y-117147023D01*
X197002900Y-117139467D01*
X197459300Y-117139467D01*
X197463488Y-117152357D01*
X197467677Y-117155400D01*
X198484367Y-117155400D01*
X198497257Y-117151212D01*
X198500300Y-117147023D01*
X198500300Y-115702768D01*
X198500100Y-115698284D01*
X198485688Y-115536793D01*
X198484109Y-115528021D01*
X198426688Y-115318119D01*
X198423581Y-115309765D01*
X198329899Y-115113360D01*
X198325353Y-115105672D01*
X198198377Y-114928966D01*
X198192546Y-114922210D01*
X198036278Y-114770777D01*
X198029341Y-114765160D01*
X197848733Y-114643795D01*
X197840913Y-114639496D01*
X197641663Y-114552032D01*
X197633197Y-114549183D01*
X197474795Y-114511154D01*
X197461888Y-114512170D01*
X197459300Y-114521347D01*
X197459300Y-117139467D01*
X197002900Y-117139467D01*
X197002900Y-114523003D01*
X196998712Y-114510113D01*
X196997006Y-114508874D01*
X196992007Y-114508388D01*
X196970599Y-114510979D01*
X196961873Y-114512833D01*
X196753893Y-114576816D01*
X196745621Y-114580192D01*
X196552266Y-114679991D01*
X196544719Y-114684780D01*
X196372089Y-114817243D01*
X196365526Y-114823278D01*
X196219071Y-114984230D01*
X196213681Y-114991331D01*
X196098042Y-115175675D01*
X196093993Y-115183622D01*
X196012829Y-115385524D01*
X196010252Y-115394060D01*
X195965963Y-115607918D01*
X195965002Y-115615219D01*
X195961983Y-115667582D01*
X195961900Y-115670471D01*
X195961900Y-117139467D01*
X195631400Y-117139467D01*
X195631400Y-115708725D01*
X195617674Y-115578131D01*
X195616469Y-115566665D01*
X195616469Y-115566664D01*
X195615918Y-115561424D01*
X195554838Y-115373439D01*
X195550073Y-115365186D01*
X195458645Y-115206826D01*
X195458643Y-115206823D01*
X195456009Y-115202261D01*
X195323749Y-115055372D01*
X195319488Y-115052276D01*
X195319487Y-115052275D01*
X195208762Y-114971829D01*
X195163840Y-114939191D01*
X194983269Y-114858796D01*
X194978119Y-114857701D01*
X194978118Y-114857701D01*
X194795083Y-114818795D01*
X194795078Y-114818794D01*
X194789929Y-114817700D01*
X194592271Y-114817700D01*
X194587122Y-114818794D01*
X194587117Y-114818795D01*
X194404082Y-114857701D01*
X194404081Y-114857701D01*
X194398931Y-114858796D01*
X194218361Y-114939191D01*
X194058451Y-115055372D01*
X193926191Y-115202261D01*
X193923557Y-115206823D01*
X193923555Y-115206826D01*
X193832127Y-115365186D01*
X193827362Y-115373439D01*
X193766282Y-115561424D01*
X193765731Y-115566664D01*
X193765731Y-115566665D01*
X193764526Y-115578131D01*
X193750800Y-115708725D01*
X193750800Y-119058475D01*
X188011400Y-119058475D01*
X188011400Y-115708725D01*
X187997674Y-115578131D01*
X187996469Y-115566665D01*
X187996469Y-115566664D01*
X187995918Y-115561424D01*
X187934838Y-115373439D01*
X187930073Y-115365186D01*
X187838645Y-115206826D01*
X187838643Y-115206823D01*
X187836009Y-115202261D01*
X187703749Y-115055372D01*
X187699488Y-115052276D01*
X187699487Y-115052275D01*
X187566869Y-114955923D01*
X187545069Y-114940084D01*
X187508524Y-114889784D01*
X187503600Y-114858697D01*
X187503600Y-109684417D01*
X187522813Y-109625286D01*
X187533065Y-109613282D01*
X187555982Y-109590365D01*
X187611380Y-109562139D01*
X187627117Y-109560900D01*
X189973366Y-109560900D01*
X190129009Y-109545639D01*
X190133719Y-109544217D01*
X190133724Y-109544216D01*
X190324669Y-109486566D01*
X190324673Y-109486564D01*
X190329384Y-109485142D01*
X190514193Y-109386878D01*
X190676395Y-109254589D01*
X190722258Y-109199150D01*
X190806680Y-109097102D01*
X190806683Y-109097097D01*
X190809813Y-109093314D01*
X190875512Y-108971807D01*
X190907028Y-108913520D01*
X190907030Y-108913516D01*
X190909365Y-108909197D01*
X190911168Y-108903371D01*
X190969804Y-108713950D01*
X190969804Y-108713948D01*
X190971259Y-108709249D01*
X190993138Y-108501087D01*
X190991776Y-108486113D01*
X190974614Y-108297539D01*
X190974614Y-108297537D01*
X190974168Y-108292640D01*
X190915071Y-108091848D01*
X190818100Y-107906358D01*
X190686946Y-107743236D01*
X190526607Y-107608695D01*
X190507181Y-107598015D01*
X190347505Y-107510233D01*
X190343189Y-107507860D01*
X190338503Y-107506373D01*
X190338497Y-107506371D01*
X190148372Y-107446061D01*
X190143678Y-107444572D01*
X190138787Y-107444023D01*
X190138785Y-107444023D01*
X189983568Y-107426613D01*
X189983567Y-107426613D01*
X189980777Y-107426300D01*
X186108834Y-107426300D01*
X185953191Y-107441561D01*
X185948481Y-107442983D01*
X185948476Y-107442984D01*
X185757531Y-107500634D01*
X185757527Y-107500636D01*
X185752816Y-107502058D01*
X185568007Y-107600322D01*
X185405805Y-107732611D01*
X185393845Y-107747068D01*
X185275520Y-107890098D01*
X185275517Y-107890103D01*
X185272387Y-107893886D01*
X185270049Y-107898210D01*
X185176881Y-108070521D01*
X185172835Y-108078003D01*
X185110941Y-108277951D01*
X185089062Y-108486113D01*
X183693600Y-108486113D01*
X183693600Y-107126917D01*
X183712813Y-107067786D01*
X183723065Y-107055782D01*
X184363282Y-106415565D01*
X184418680Y-106387339D01*
X184434417Y-106386100D01*
X185122278Y-106386100D01*
X185181409Y-106405313D01*
X185211430Y-106440093D01*
X185249843Y-106513570D01*
X185264100Y-106540842D01*
X185395254Y-106703964D01*
X185555593Y-106838505D01*
X185559907Y-106840877D01*
X185559909Y-106840878D01*
X185647302Y-106888922D01*
X185739011Y-106939340D01*
X185743697Y-106940827D01*
X185743703Y-106940829D01*
X185933828Y-107001139D01*
X185938522Y-107002628D01*
X185943413Y-107003177D01*
X185943415Y-107003177D01*
X186098632Y-107020587D01*
X186098633Y-107020587D01*
X186101423Y-107020900D01*
X189973366Y-107020900D01*
X190129009Y-107005639D01*
X190133719Y-107004217D01*
X190133724Y-107004216D01*
X190324669Y-106946566D01*
X190324673Y-106946564D01*
X190329384Y-106945142D01*
X190514193Y-106846878D01*
X190676395Y-106714589D01*
X190727117Y-106653276D01*
X190806680Y-106557102D01*
X190806683Y-106557097D01*
X190809813Y-106553314D01*
X190837674Y-106501787D01*
X190907028Y-106373520D01*
X190907030Y-106373516D01*
X190909365Y-106369197D01*
X190919305Y-106337087D01*
X190969804Y-106173950D01*
X190969804Y-106173948D01*
X190971259Y-106169249D01*
X190993138Y-105961087D01*
X190974168Y-105752640D01*
X190915071Y-105551848D01*
X190818100Y-105366358D01*
X190686946Y-105203236D01*
X190526607Y-105068695D01*
X190507181Y-105058015D01*
X190347505Y-104970233D01*
X190343189Y-104967860D01*
X190338503Y-104966373D01*
X190338497Y-104966371D01*
X190148372Y-104906061D01*
X190143678Y-104904572D01*
X190138787Y-104904023D01*
X190138785Y-104904023D01*
X189983568Y-104886613D01*
X189983567Y-104886613D01*
X189980777Y-104886300D01*
X186108834Y-104886300D01*
X185953191Y-104901561D01*
X185948481Y-104902983D01*
X185948476Y-104902984D01*
X185757531Y-104960634D01*
X185757527Y-104960636D01*
X185752816Y-104962058D01*
X185568007Y-105060322D01*
X185405805Y-105192611D01*
X185272387Y-105353886D01*
X185222057Y-105446968D01*
X185210497Y-105468348D01*
X185165472Y-105511225D01*
X185122005Y-105521100D01*
X184245243Y-105521100D01*
X184233418Y-105520403D01*
X184207325Y-105517314D01*
X184207322Y-105517314D01*
X184199861Y-105516431D01*
X184174295Y-105521100D01*
X184144144Y-105526606D01*
X184141028Y-105527125D01*
X184092426Y-105534432D01*
X184092425Y-105534432D01*
X184084991Y-105535550D01*
X184078742Y-105538551D01*
X184071923Y-105539796D01*
X184065247Y-105543264D01*
X184065244Y-105543265D01*
X184021662Y-105565905D01*
X184018834Y-105567318D01*
X184013122Y-105570061D01*
X183967753Y-105591847D01*
X183963314Y-105595950D01*
X183961598Y-105597107D01*
X183956511Y-105599749D01*
X183951665Y-105603887D01*
X183915609Y-105639943D01*
X183912761Y-105642681D01*
X183872251Y-105680128D01*
X183868835Y-105686010D01*
X183862758Y-105692794D01*
X182977646Y-106577906D01*
X182968791Y-106585774D01*
X182948168Y-106602031D01*
X182948166Y-106602033D01*
X182942260Y-106606689D01*
X182937983Y-106612876D01*
X182937983Y-106612877D01*
X182910061Y-106653276D01*
X182908225Y-106655846D01*
X182874554Y-106701434D01*
X182872257Y-106707975D01*
X182868316Y-106713677D01*
X182866051Y-106720839D01*
X182866047Y-106720847D01*
X182851224Y-106767718D01*
X182850224Y-106770715D01*
X182831462Y-106824142D01*
X182831225Y-106830176D01*
X182830828Y-106832215D01*
X182829100Y-106837678D01*
X182828600Y-106844031D01*
X182828600Y-106895018D01*
X182828522Y-106898968D01*
X182826652Y-106946566D01*
X182826356Y-106954096D01*
X182828100Y-106960672D01*
X182828600Y-106969769D01*
X182828600Y-112271954D01*
X182827903Y-112283778D01*
X182824851Y-112309567D01*
X182823931Y-112317338D01*
X179018500Y-112317338D01*
X179018500Y-112230233D01*
X179014312Y-112217343D01*
X179010123Y-112214300D01*
X178488733Y-112214300D01*
X178475843Y-112218488D01*
X178472800Y-112222677D01*
X178472800Y-113061566D01*
X178016400Y-113061566D01*
X178016400Y-111741967D01*
X178472800Y-111741967D01*
X178476988Y-111754857D01*
X178481177Y-111757900D01*
X179002566Y-111757900D01*
X179015456Y-111753712D01*
X179018499Y-111749523D01*
X179018499Y-111298924D01*
X179018277Y-111294216D01*
X179016057Y-111270720D01*
X179013447Y-111258825D01*
X178972498Y-111142222D01*
X178965538Y-111129076D01*
X178892936Y-111030779D01*
X178882421Y-111020264D01*
X178784124Y-110947662D01*
X178770978Y-110940702D01*
X178654371Y-110899751D01*
X178642486Y-110897143D01*
X178619000Y-110894923D01*
X178614259Y-110894700D01*
X178488733Y-110894700D01*
X178475843Y-110898888D01*
X178472800Y-110903077D01*
X178472800Y-111741967D01*
X178016400Y-111741967D01*
X178016400Y-110910634D01*
X178012212Y-110897744D01*
X178008023Y-110894701D01*
X177874927Y-110894701D01*
X177873548Y-110894766D01*
X177873310Y-110894701D01*
X177872564Y-110894701D01*
X177872564Y-110894497D01*
X177813578Y-110878360D01*
X177774704Y-110829837D01*
X177771776Y-110767731D01*
X177805911Y-110715766D01*
X177823609Y-110704405D01*
X177920586Y-110655631D01*
X177926006Y-110652905D01*
X178014774Y-110577090D01*
X178046825Y-110549716D01*
X178046827Y-110549714D01*
X178051434Y-110545779D01*
X178116623Y-110455059D01*
X178144152Y-110416749D01*
X178144154Y-110416746D01*
X178147689Y-110411826D01*
X178209213Y-110258781D01*
X178210067Y-110252781D01*
X178210068Y-110252777D01*
X178231989Y-110098742D01*
X178232454Y-110095477D01*
X178232605Y-110081100D01*
X178231016Y-110067963D01*
X178213518Y-109923368D01*
X178213517Y-109923366D01*
X178212789Y-109917346D01*
X178208437Y-109905827D01*
X178156628Y-109768721D01*
X178156627Y-109768720D01*
X178154483Y-109763045D01*
X178061055Y-109627106D01*
X177969320Y-109545373D01*
X177942427Y-109521412D01*
X177942426Y-109521411D01*
X177937898Y-109517377D01*
X177823722Y-109456924D01*
X177780454Y-109412275D01*
X177771694Y-109350721D01*
X177800787Y-109295774D01*
X177856621Y-109268421D01*
X177872563Y-109267668D01*
X177872563Y-109267500D01*
X178000467Y-109267500D01*
X178013357Y-109263312D01*
X178016400Y-109259123D01*
X178016400Y-109251566D01*
X178472800Y-109251566D01*
X178476988Y-109264456D01*
X178481177Y-109267499D01*
X178614276Y-109267499D01*
X178618984Y-109267277D01*
X178642480Y-109265057D01*
X178654375Y-109262447D01*
X178770978Y-109221498D01*
X178784124Y-109214538D01*
X178882421Y-109141936D01*
X178892936Y-109131421D01*
X178965538Y-109033124D01*
X178972498Y-109019978D01*
X179013449Y-108903371D01*
X179016057Y-108891486D01*
X179018277Y-108868000D01*
X179018500Y-108863259D01*
X179018500Y-108420233D01*
X179014312Y-108407343D01*
X179010123Y-108404300D01*
X178488733Y-108404300D01*
X178475843Y-108408488D01*
X178472800Y-108412677D01*
X178472800Y-109251566D01*
X178016400Y-109251566D01*
X178016400Y-108449188D01*
X178032487Y-108394618D01*
X178038155Y-108385840D01*
X178046686Y-108374477D01*
X178051151Y-108369331D01*
X178060622Y-108358417D01*
X178062000Y-108348911D01*
X178067211Y-108340841D01*
X178067300Y-108340227D01*
X178067300Y-108319613D01*
X178068341Y-108305178D01*
X178069283Y-108298680D01*
X178071357Y-108284377D01*
X178069590Y-108280490D01*
X178070469Y-108275454D01*
X178067300Y-108275454D01*
X178067300Y-108065613D01*
X178068341Y-108051178D01*
X178069283Y-108044679D01*
X178071357Y-108030377D01*
X178062555Y-108011019D01*
X178057607Y-107997712D01*
X178055690Y-107991176D01*
X178055689Y-107991175D01*
X178051622Y-107977311D01*
X178044368Y-107971016D01*
X178040392Y-107962272D01*
X178034827Y-107958678D01*
X178032903Y-107955682D01*
X178036822Y-107953166D01*
X178024049Y-107931967D01*
X178472800Y-107931967D01*
X178476988Y-107944857D01*
X178481177Y-107947900D01*
X179002566Y-107947900D01*
X179015456Y-107943712D01*
X179018499Y-107939523D01*
X179018499Y-107488924D01*
X179018277Y-107484216D01*
X179016057Y-107460720D01*
X179013447Y-107448825D01*
X178972498Y-107332222D01*
X178965538Y-107319076D01*
X178892936Y-107220779D01*
X178882421Y-107210264D01*
X178784124Y-107137662D01*
X178770978Y-107130702D01*
X178654371Y-107089751D01*
X178642486Y-107087143D01*
X178619000Y-107084923D01*
X178614259Y-107084700D01*
X178488733Y-107084700D01*
X178475843Y-107088888D01*
X178472800Y-107093077D01*
X178472800Y-107931967D01*
X178024049Y-107931967D01*
X178019006Y-107923598D01*
X178016400Y-107900848D01*
X178016400Y-107100634D01*
X178012212Y-107087744D01*
X178008023Y-107084701D01*
X177874924Y-107084701D01*
X177870216Y-107084923D01*
X177846720Y-107087143D01*
X177834825Y-107089753D01*
X177795033Y-107103727D01*
X177732876Y-107105192D01*
X177681729Y-107069843D01*
X177661100Y-107008810D01*
X177661100Y-106809417D01*
X177680313Y-106750286D01*
X177690565Y-106738282D01*
X181022734Y-103406113D01*
X185089062Y-103406113D01*
X185089508Y-103411014D01*
X185089508Y-103411017D01*
X185090870Y-103425984D01*
X185108032Y-103614560D01*
X185167129Y-103815352D01*
X185264100Y-104000842D01*
X185395254Y-104163964D01*
X185555593Y-104298505D01*
X185559907Y-104300877D01*
X185559909Y-104300878D01*
X185647302Y-104348922D01*
X185739011Y-104399340D01*
X185743697Y-104400827D01*
X185743703Y-104400829D01*
X185933828Y-104461139D01*
X185938522Y-104462628D01*
X185943413Y-104463177D01*
X185943415Y-104463177D01*
X186098632Y-104480587D01*
X186098633Y-104480587D01*
X186101423Y-104480900D01*
X189973366Y-104480900D01*
X190129009Y-104465639D01*
X190133719Y-104464217D01*
X190133724Y-104464216D01*
X190324669Y-104406566D01*
X190324673Y-104406564D01*
X190329384Y-104405142D01*
X190514193Y-104306878D01*
X190676395Y-104174589D01*
X190722258Y-104119150D01*
X190806680Y-104017102D01*
X190806683Y-104017097D01*
X190809813Y-104013314D01*
X190909365Y-103829197D01*
X190971259Y-103629249D01*
X190993138Y-103421087D01*
X190991776Y-103406113D01*
X190974614Y-103217539D01*
X190974614Y-103217537D01*
X190974168Y-103212640D01*
X190915071Y-103011848D01*
X190818100Y-102826358D01*
X190686946Y-102663236D01*
X190526607Y-102528695D01*
X190507181Y-102518015D01*
X190347505Y-102430233D01*
X190343189Y-102427860D01*
X190338503Y-102426373D01*
X190338497Y-102426371D01*
X190148372Y-102366061D01*
X190143678Y-102364572D01*
X190138787Y-102364023D01*
X190138785Y-102364023D01*
X189983568Y-102346613D01*
X189983567Y-102346613D01*
X189980777Y-102346300D01*
X186108834Y-102346300D01*
X185953191Y-102361561D01*
X185948481Y-102362983D01*
X185948476Y-102362984D01*
X185757531Y-102420634D01*
X185757527Y-102420636D01*
X185752816Y-102422058D01*
X185568007Y-102520322D01*
X185405805Y-102652611D01*
X185393845Y-102667068D01*
X185275520Y-102810098D01*
X185275517Y-102810103D01*
X185272387Y-102813886D01*
X185172835Y-102998003D01*
X185110941Y-103197951D01*
X185089062Y-103406113D01*
X181022734Y-103406113D01*
X183093282Y-101335565D01*
X183148680Y-101307339D01*
X183164417Y-101306100D01*
X185122278Y-101306100D01*
X185181409Y-101325313D01*
X185211430Y-101360093D01*
X185264100Y-101460842D01*
X185395254Y-101623964D01*
X185555593Y-101758505D01*
X185559907Y-101760877D01*
X185559909Y-101760878D01*
X185647302Y-101808922D01*
X185739011Y-101859340D01*
X185743697Y-101860827D01*
X185743703Y-101860829D01*
X185933828Y-101921139D01*
X185938522Y-101922628D01*
X185943413Y-101923177D01*
X185943415Y-101923177D01*
X186098632Y-101940587D01*
X186098633Y-101940587D01*
X186101423Y-101940900D01*
X189973366Y-101940900D01*
X190129009Y-101925639D01*
X190133719Y-101924217D01*
X190133724Y-101924216D01*
X190324669Y-101866566D01*
X190324673Y-101866564D01*
X190329384Y-101865142D01*
X190514193Y-101766878D01*
X190676395Y-101634589D01*
X190722258Y-101579150D01*
X190806680Y-101477102D01*
X190806683Y-101477097D01*
X190809813Y-101473314D01*
X190909365Y-101289197D01*
X190971259Y-101089249D01*
X190993138Y-100881087D01*
X190974168Y-100672640D01*
X190915071Y-100471848D01*
X190818100Y-100286358D01*
X190686946Y-100123236D01*
X190526607Y-99988695D01*
X190507181Y-99978015D01*
X190347505Y-99890233D01*
X190343189Y-99887860D01*
X190338503Y-99886373D01*
X190338497Y-99886371D01*
X190148372Y-99826061D01*
X190143678Y-99824572D01*
X190138787Y-99824023D01*
X190138785Y-99824023D01*
X189983568Y-99806613D01*
X189983567Y-99806613D01*
X189980777Y-99806300D01*
X186108834Y-99806300D01*
X185953191Y-99821561D01*
X185948481Y-99822983D01*
X185948476Y-99822984D01*
X185757531Y-99880634D01*
X185757527Y-99880636D01*
X185752816Y-99882058D01*
X185568007Y-99980322D01*
X185405805Y-100112611D01*
X185272387Y-100273886D01*
X185222058Y-100366968D01*
X185210497Y-100388348D01*
X185165472Y-100431225D01*
X185122005Y-100441100D01*
X182975252Y-100441100D01*
X182963427Y-100440403D01*
X182937326Y-100437313D01*
X182937323Y-100437313D01*
X182929862Y-100436430D01*
X182874102Y-100446614D01*
X182871017Y-100447127D01*
X182814991Y-100455550D01*
X182808742Y-100458551D01*
X182801924Y-100459796D01*
X182795251Y-100463262D01*
X182795249Y-100463263D01*
X182751647Y-100485913D01*
X182748820Y-100487325D01*
X182704533Y-100508591D01*
X182704532Y-100508592D01*
X182697753Y-100511847D01*
X182693315Y-100515949D01*
X182691599Y-100517106D01*
X182686512Y-100519748D01*
X182681666Y-100523887D01*
X182645622Y-100559931D01*
X182642774Y-100562669D01*
X182602251Y-100600128D01*
X182598835Y-100606009D01*
X182592756Y-100612797D01*
X176945146Y-106260406D01*
X176936291Y-106268274D01*
X176915668Y-106284531D01*
X176915666Y-106284533D01*
X176909760Y-106289189D01*
X176905483Y-106295376D01*
X176905483Y-106295377D01*
X176877561Y-106335776D01*
X176875725Y-106338346D01*
X176842054Y-106383934D01*
X176839757Y-106390475D01*
X176835816Y-106396177D01*
X176833551Y-106403339D01*
X176833547Y-106403347D01*
X176818724Y-106450218D01*
X176817724Y-106453215D01*
X176813457Y-106465365D01*
X176798962Y-106506642D01*
X176798725Y-106512676D01*
X176798328Y-106514715D01*
X176796600Y-106520178D01*
X176796100Y-106526531D01*
X176796100Y-106577518D01*
X176796022Y-106581468D01*
X176794226Y-106627186D01*
X176793856Y-106636596D01*
X176795600Y-106643172D01*
X176796100Y-106652269D01*
X176796100Y-107383119D01*
X176776887Y-107442250D01*
X176726587Y-107478795D01*
X176664413Y-107478795D01*
X176626141Y-107455342D01*
X176622022Y-107449178D01*
X176597848Y-107433025D01*
X176588084Y-107426501D01*
X176588083Y-107426501D01*
X176579848Y-107420998D01*
X176570135Y-107419066D01*
X176570133Y-107419065D01*
X176554867Y-107416029D01*
X176542658Y-107413600D01*
X175882542Y-107413600D01*
X175870333Y-107416029D01*
X175855067Y-107419065D01*
X175855065Y-107419066D01*
X175845352Y-107420998D01*
X175837117Y-107426501D01*
X175837116Y-107426501D01*
X175827352Y-107433025D01*
X175803178Y-107449178D01*
X175774998Y-107491352D01*
X175773066Y-107501065D01*
X175773065Y-107501067D01*
X175772010Y-107506371D01*
X175767600Y-107528542D01*
X175767600Y-107851912D01*
X175752499Y-107904924D01*
X175720272Y-107956901D01*
X175679461Y-108097373D01*
X175678700Y-108107736D01*
X175678700Y-109397322D01*
X175659487Y-109456453D01*
X175624240Y-109486717D01*
X175572727Y-109513305D01*
X175448427Y-109621738D01*
X175433662Y-109642747D01*
X175357069Y-109751728D01*
X175357067Y-109751732D01*
X175353581Y-109756692D01*
X175351378Y-109762341D01*
X175351377Y-109762344D01*
X175332730Y-109810172D01*
X175293663Y-109910373D01*
X175272133Y-110073911D01*
X172282154Y-110073911D01*
X187354415Y-95001650D01*
X187363269Y-94993782D01*
X187383887Y-94977528D01*
X187389793Y-94972872D01*
X187409786Y-94943945D01*
X187421996Y-94926278D01*
X187423795Y-94923760D01*
X187457467Y-94878171D01*
X187459763Y-94871634D01*
X187463702Y-94865934D01*
X187479606Y-94815649D01*
X187480782Y-94811930D01*
X187481782Y-94808934D01*
X187498048Y-94762615D01*
X187498048Y-94762614D01*
X187500539Y-94755521D01*
X187500776Y-94749488D01*
X187501171Y-94747460D01*
X187502901Y-94741990D01*
X187503400Y-94735649D01*
X187503400Y-94684659D01*
X187503478Y-94680710D01*
X187505347Y-94633145D01*
X187505347Y-94633142D01*
X187505642Y-94625626D01*
X187503899Y-94619054D01*
X187503400Y-94609972D01*
X187503400Y-94590762D01*
X187503466Y-94587369D01*
X187503600Y-94585669D01*
X187503600Y-94508502D01*
X187522813Y-94449371D01*
X187545069Y-94427115D01*
X187703749Y-94311828D01*
X187836009Y-94164939D01*
X187857199Y-94128238D01*
X187932201Y-93998329D01*
X187932202Y-93998327D01*
X187934838Y-93993761D01*
X187995918Y-93805776D01*
X188011400Y-93658475D01*
X188011400Y-90308725D01*
X187995918Y-90161424D01*
X187934838Y-89973439D01*
X187836009Y-89802261D01*
X187703749Y-89655372D01*
X187699488Y-89652276D01*
X187699487Y-89652275D01*
X187616149Y-89591727D01*
X187543840Y-89539191D01*
X187363269Y-89458796D01*
X187358119Y-89457701D01*
X187358118Y-89457701D01*
X187175083Y-89418795D01*
X187175078Y-89418794D01*
X187169929Y-89417700D01*
X186972271Y-89417700D01*
X186967122Y-89418794D01*
X186967117Y-89418795D01*
X186784082Y-89457701D01*
X186784081Y-89457701D01*
X186778931Y-89458796D01*
X186598361Y-89539191D01*
X186438451Y-89655372D01*
X186306191Y-89802261D01*
X186207362Y-89973439D01*
X186146282Y-90161424D01*
X186130800Y-90308725D01*
X186130800Y-93658475D01*
X186146282Y-93805776D01*
X186207362Y-93993761D01*
X186209998Y-93998327D01*
X186209999Y-93998329D01*
X186285002Y-94128238D01*
X186306191Y-94164939D01*
X186438451Y-94311828D01*
X186504900Y-94360106D01*
X186565023Y-94403788D01*
X186601567Y-94454088D01*
X186601567Y-94516262D01*
X186577026Y-94556310D01*
X167591500Y-113541835D01*
X167536102Y-113570061D01*
X167520365Y-113571300D01*
X162772734Y-113571300D01*
X162760910Y-113570603D01*
X162734831Y-113567516D01*
X162734828Y-113567516D01*
X162727367Y-113566633D01*
X162719969Y-113567984D01*
X162719970Y-113567984D01*
X162671668Y-113576805D01*
X162668556Y-113577323D01*
X162612551Y-113585744D01*
X162606305Y-113588743D01*
X162599489Y-113589988D01*
X162549207Y-113616107D01*
X162546456Y-113617481D01*
X162495367Y-113642014D01*
X162490932Y-113646114D01*
X162489216Y-113647271D01*
X162484130Y-113649912D01*
X162479293Y-113654043D01*
X162443269Y-113690067D01*
X162440422Y-113692805D01*
X162415234Y-113716089D01*
X162399909Y-113730255D01*
X162396494Y-113736133D01*
X162390419Y-113742917D01*
X160457785Y-115675550D01*
X160448931Y-115683418D01*
X160430074Y-115698284D01*
X160422407Y-115704328D01*
X160402414Y-115733255D01*
X160390204Y-115750922D01*
X160388405Y-115753440D01*
X160354733Y-115799029D01*
X160352437Y-115805566D01*
X160348498Y-115811266D01*
X160331402Y-115865322D01*
X160330440Y-115868205D01*
X160311661Y-115921680D01*
X160311424Y-115927712D01*
X160311029Y-115929740D01*
X160309299Y-115935210D01*
X160308800Y-115941551D01*
X160308800Y-115992526D01*
X160308722Y-115996476D01*
X160306557Y-116051574D01*
X160308300Y-116058149D01*
X160308800Y-116067236D01*
X160308800Y-119782865D01*
X160289587Y-119841996D01*
X160279335Y-119854000D01*
X157591500Y-122541835D01*
X157536102Y-122570061D01*
X157520365Y-122571300D01*
X150818719Y-122571300D01*
X150759588Y-122552087D01*
X150751797Y-122545812D01*
X150637427Y-122443912D01*
X150637426Y-122443911D01*
X150632898Y-122439877D01*
X150487121Y-122362692D01*
X150434720Y-122349530D01*
X150333028Y-122323986D01*
X150333024Y-122323986D01*
X150327142Y-122322508D01*
X150321077Y-122322476D01*
X150321075Y-122322476D01*
X150246189Y-122322084D01*
X150162195Y-122321645D01*
X150086437Y-122339833D01*
X150007709Y-122358733D01*
X150007706Y-122358734D01*
X150001804Y-122360151D01*
X149855227Y-122435805D01*
X149730927Y-122544238D01*
X149729522Y-122542628D01*
X149683662Y-122569103D01*
X149662750Y-122571300D01*
X132818719Y-122571300D01*
X132759588Y-122552087D01*
X132751797Y-122545812D01*
X132637427Y-122443912D01*
X132637426Y-122443911D01*
X132632898Y-122439877D01*
X132487121Y-122362692D01*
X132434720Y-122349530D01*
X132333028Y-122323986D01*
X132333024Y-122323986D01*
X132327142Y-122322508D01*
X132321077Y-122322476D01*
X132321075Y-122322476D01*
X132246189Y-122322084D01*
X132162195Y-122321645D01*
X132086437Y-122339833D01*
X132007709Y-122358733D01*
X132007706Y-122358734D01*
X132001804Y-122360151D01*
X131855227Y-122435805D01*
X131730927Y-122544238D01*
X131729522Y-122542628D01*
X131683662Y-122569103D01*
X131662750Y-122571300D01*
X114818719Y-122571300D01*
X114759588Y-122552087D01*
X114751797Y-122545812D01*
X114637427Y-122443912D01*
X114637426Y-122443911D01*
X114632898Y-122439877D01*
X114487121Y-122362692D01*
X114434720Y-122349530D01*
X114333028Y-122323986D01*
X114333024Y-122323986D01*
X114327142Y-122322508D01*
X114321077Y-122322476D01*
X114321075Y-122322476D01*
X114246189Y-122322084D01*
X114162195Y-122321645D01*
X114086437Y-122339833D01*
X114007709Y-122358733D01*
X114007706Y-122358734D01*
X114001804Y-122360151D01*
X113855227Y-122435805D01*
X113730927Y-122544238D01*
X113729522Y-122542628D01*
X113683662Y-122569103D01*
X113662750Y-122571300D01*
X96818719Y-122571300D01*
X96759588Y-122552087D01*
X96751797Y-122545812D01*
X96637427Y-122443912D01*
X96637426Y-122443911D01*
X96632898Y-122439877D01*
X96487121Y-122362692D01*
X96434720Y-122349530D01*
X96333028Y-122323986D01*
X96333024Y-122323986D01*
X96327142Y-122322508D01*
X96321077Y-122322476D01*
X96321075Y-122322476D01*
X96246189Y-122322084D01*
X96162195Y-122321645D01*
X96086437Y-122339833D01*
X96007709Y-122358733D01*
X96007706Y-122358734D01*
X96001804Y-122360151D01*
X95855227Y-122435805D01*
X95730927Y-122544238D01*
X95725411Y-122552087D01*
X95639569Y-122674228D01*
X95639567Y-122674232D01*
X95636081Y-122679192D01*
X95576163Y-122832873D01*
X95554633Y-122996411D01*
X87072100Y-122996411D01*
X87072100Y-120996411D01*
X99054633Y-120996411D01*
X99055298Y-121002433D01*
X99072067Y-121154336D01*
X99072068Y-121154340D01*
X99072733Y-121160364D01*
X99129420Y-121315267D01*
X99132806Y-121320306D01*
X99212710Y-121439216D01*
X99221419Y-121452177D01*
X99225905Y-121456259D01*
X99225906Y-121456260D01*
X99278793Y-121504383D01*
X99343421Y-121563189D01*
X99488381Y-121641896D01*
X99494251Y-121643436D01*
X99642064Y-121682214D01*
X99642065Y-121682214D01*
X99647931Y-121683753D01*
X99726671Y-121684990D01*
X99806796Y-121686249D01*
X99806798Y-121686249D01*
X99812859Y-121686344D01*
X99818770Y-121684990D01*
X99818772Y-121684990D01*
X99967735Y-121650873D01*
X99967738Y-121650872D01*
X99973645Y-121649519D01*
X100013083Y-121629684D01*
X100115587Y-121578131D01*
X100115590Y-121578129D01*
X100121006Y-121575405D01*
X100246434Y-121468279D01*
X100247033Y-121467446D01*
X100299494Y-121437885D01*
X100319379Y-121435900D01*
X117164612Y-121435900D01*
X117223743Y-121455113D01*
X117232314Y-121462090D01*
X117343421Y-121563189D01*
X117488381Y-121641896D01*
X117494251Y-121643436D01*
X117642064Y-121682214D01*
X117642065Y-121682214D01*
X117647931Y-121683753D01*
X117726671Y-121684990D01*
X117806796Y-121686249D01*
X117806798Y-121686249D01*
X117812859Y-121686344D01*
X117818770Y-121684990D01*
X117818772Y-121684990D01*
X117967735Y-121650873D01*
X117967738Y-121650872D01*
X117973645Y-121649519D01*
X118013083Y-121629684D01*
X118115587Y-121578131D01*
X118115590Y-121578129D01*
X118121006Y-121575405D01*
X118246434Y-121468279D01*
X118247033Y-121467446D01*
X118299494Y-121437885D01*
X118319379Y-121435900D01*
X135164612Y-121435900D01*
X135223743Y-121455113D01*
X135232314Y-121462090D01*
X135343421Y-121563189D01*
X135488381Y-121641896D01*
X135494251Y-121643436D01*
X135642064Y-121682214D01*
X135642065Y-121682214D01*
X135647931Y-121683753D01*
X135726671Y-121684990D01*
X135806796Y-121686249D01*
X135806798Y-121686249D01*
X135812859Y-121686344D01*
X135818770Y-121684990D01*
X135818772Y-121684990D01*
X135967735Y-121650873D01*
X135967738Y-121650872D01*
X135973645Y-121649519D01*
X136013083Y-121629684D01*
X136115587Y-121578131D01*
X136115590Y-121578129D01*
X136121006Y-121575405D01*
X136246434Y-121468279D01*
X136247033Y-121467446D01*
X136299494Y-121437885D01*
X136319379Y-121435900D01*
X153164612Y-121435900D01*
X153223743Y-121455113D01*
X153232314Y-121462090D01*
X153343421Y-121563189D01*
X153488381Y-121641896D01*
X153494251Y-121643436D01*
X153642064Y-121682214D01*
X153642065Y-121682214D01*
X153647931Y-121683753D01*
X153726671Y-121684990D01*
X153806796Y-121686249D01*
X153806798Y-121686249D01*
X153812859Y-121686344D01*
X153818770Y-121684990D01*
X153818772Y-121684990D01*
X153967735Y-121650873D01*
X153967738Y-121650872D01*
X153973645Y-121649519D01*
X154013083Y-121629684D01*
X154115587Y-121578131D01*
X154115590Y-121578129D01*
X154121006Y-121575405D01*
X154246434Y-121468279D01*
X154247033Y-121467446D01*
X154299494Y-121437885D01*
X154319379Y-121435900D01*
X157709466Y-121435900D01*
X157721290Y-121436597D01*
X157747369Y-121439684D01*
X157747372Y-121439684D01*
X157754833Y-121440567D01*
X157776571Y-121436597D01*
X157810532Y-121430395D01*
X157813647Y-121429876D01*
X157869649Y-121421456D01*
X157875895Y-121418457D01*
X157882711Y-121417212D01*
X157932993Y-121391093D01*
X157935744Y-121389719D01*
X157986833Y-121365186D01*
X157991264Y-121361089D01*
X157992991Y-121359926D01*
X157998070Y-121357288D01*
X158002907Y-121353158D01*
X158038944Y-121317121D01*
X158041791Y-121314383D01*
X158076769Y-121282050D01*
X158076771Y-121282048D01*
X158082291Y-121276945D01*
X158085705Y-121271067D01*
X158091778Y-121264287D01*
X159024415Y-120331650D01*
X159033269Y-120323782D01*
X159053887Y-120307528D01*
X159059793Y-120302872D01*
X159090245Y-120258812D01*
X159091996Y-120256278D01*
X159093795Y-120253760D01*
X159127467Y-120208171D01*
X159129763Y-120201633D01*
X159133702Y-120195934D01*
X159150787Y-120141913D01*
X159151768Y-120138972D01*
X159153438Y-120134219D01*
X159170540Y-120085520D01*
X159170777Y-120079481D01*
X159171171Y-120077459D01*
X159172901Y-120071990D01*
X159173400Y-120065649D01*
X159173400Y-120014684D01*
X159173478Y-120010735D01*
X159175348Y-119963143D01*
X159175348Y-119963141D01*
X159175643Y-119955625D01*
X159173900Y-119949052D01*
X159173400Y-119939960D01*
X159173400Y-116224335D01*
X159192613Y-116165204D01*
X159202865Y-116153200D01*
X162273199Y-113082865D01*
X162328597Y-113054639D01*
X162344334Y-113053400D01*
X166400265Y-113053400D01*
X166412089Y-113054097D01*
X166439874Y-113057386D01*
X166439877Y-113057386D01*
X166447338Y-113058269D01*
X166509348Y-113046944D01*
X166512445Y-113046429D01*
X166523810Y-113044720D01*
X166554709Y-113040075D01*
X166554712Y-113040074D01*
X166562149Y-113038956D01*
X166567518Y-113036378D01*
X166567874Y-113036256D01*
X166575277Y-113034904D01*
X166631192Y-113005858D01*
X166634019Y-113004446D01*
X166672553Y-112985942D01*
X166672555Y-112985941D01*
X166679333Y-112982686D01*
X166682984Y-112979311D01*
X166683584Y-112978953D01*
X166685595Y-112977598D01*
X166690688Y-112974952D01*
X166695534Y-112970813D01*
X166735174Y-112931173D01*
X166738021Y-112928435D01*
X166774791Y-112894445D01*
X166777957Y-112888994D01*
X166783140Y-112883207D01*
X184814554Y-94851794D01*
X184823409Y-94843926D01*
X184844032Y-94827669D01*
X184844034Y-94827667D01*
X184849940Y-94823011D01*
X184854366Y-94816608D01*
X184882139Y-94776424D01*
X184883975Y-94773854D01*
X184913179Y-94734314D01*
X184917646Y-94728266D01*
X184919943Y-94721725D01*
X184923884Y-94716023D01*
X184926149Y-94708861D01*
X184926153Y-94708853D01*
X184940976Y-94661982D01*
X184941976Y-94658985D01*
X184951889Y-94630757D01*
X184960738Y-94605558D01*
X184960975Y-94599524D01*
X184961372Y-94597485D01*
X184963100Y-94592022D01*
X184963600Y-94585669D01*
X184963600Y-94534682D01*
X184963678Y-94530732D01*
X184964737Y-94503783D01*
X184986257Y-94445452D01*
X185006128Y-94426346D01*
X185039359Y-94402202D01*
X185163749Y-94311828D01*
X185296009Y-94164939D01*
X185317199Y-94128238D01*
X185392201Y-93998329D01*
X185392202Y-93998327D01*
X185394838Y-93993761D01*
X185455918Y-93805776D01*
X185471400Y-93658475D01*
X185471400Y-90308725D01*
X185455918Y-90161424D01*
X185394838Y-89973439D01*
X185296009Y-89802261D01*
X185163749Y-89655372D01*
X185159488Y-89652276D01*
X185159487Y-89652275D01*
X185076149Y-89591727D01*
X185003840Y-89539191D01*
X184823269Y-89458796D01*
X184818119Y-89457701D01*
X184818118Y-89457701D01*
X184635083Y-89418795D01*
X184635078Y-89418794D01*
X184629929Y-89417700D01*
X184432271Y-89417700D01*
X184427122Y-89418794D01*
X184427117Y-89418795D01*
X184244082Y-89457701D01*
X184244081Y-89457701D01*
X184238931Y-89458796D01*
X184058361Y-89539191D01*
X183898451Y-89655372D01*
X183766191Y-89802261D01*
X183667362Y-89973439D01*
X183606282Y-90161424D01*
X183590800Y-90308725D01*
X183590800Y-93658475D01*
X183606282Y-93805776D01*
X183667362Y-93993761D01*
X183669998Y-93998327D01*
X183669999Y-93998329D01*
X183745002Y-94128238D01*
X183766191Y-94164939D01*
X183898451Y-94311828D01*
X183937982Y-94340549D01*
X183974525Y-94390846D01*
X183974526Y-94453020D01*
X183949984Y-94493069D01*
X166283717Y-112159335D01*
X166228319Y-112187561D01*
X166212582Y-112188800D01*
X162155234Y-112188800D01*
X162143410Y-112188103D01*
X162117331Y-112185016D01*
X162117328Y-112185016D01*
X162109867Y-112184133D01*
X162102469Y-112185484D01*
X162102470Y-112185484D01*
X162054168Y-112194305D01*
X162051056Y-112194823D01*
X161995051Y-112203244D01*
X161988805Y-112206243D01*
X161981989Y-112207488D01*
X161975316Y-112210954D01*
X161975314Y-112210955D01*
X161931764Y-112233577D01*
X161928938Y-112234989D01*
X161884649Y-112256256D01*
X161884642Y-112256261D01*
X161877867Y-112259514D01*
X161873437Y-112263609D01*
X161871713Y-112264771D01*
X161866629Y-112267412D01*
X161861793Y-112271543D01*
X161825769Y-112307567D01*
X161822922Y-112310305D01*
X161809756Y-112322476D01*
X161782409Y-112347755D01*
X161778994Y-112353633D01*
X161772919Y-112360417D01*
X158457785Y-115675550D01*
X158448931Y-115683418D01*
X158430074Y-115698284D01*
X158422407Y-115704328D01*
X158402414Y-115733255D01*
X158390204Y-115750922D01*
X158388405Y-115753440D01*
X158354733Y-115799029D01*
X158352437Y-115805566D01*
X158348498Y-115811266D01*
X158331402Y-115865322D01*
X158330440Y-115868205D01*
X158311661Y-115921680D01*
X158311424Y-115927712D01*
X158311029Y-115929740D01*
X158309299Y-115935210D01*
X158308800Y-115941551D01*
X158308800Y-115992526D01*
X158308722Y-115996476D01*
X158306557Y-116051574D01*
X158308300Y-116058149D01*
X158308800Y-116067236D01*
X158308800Y-119782865D01*
X158289587Y-119841996D01*
X158279335Y-119854000D01*
X157591500Y-120541835D01*
X157536102Y-120570061D01*
X157520365Y-120571300D01*
X154318719Y-120571300D01*
X154259588Y-120552087D01*
X154251797Y-120545812D01*
X154137427Y-120443912D01*
X154137426Y-120443911D01*
X154132898Y-120439877D01*
X153987121Y-120362692D01*
X153934720Y-120349530D01*
X153833028Y-120323986D01*
X153833024Y-120323986D01*
X153827142Y-120322508D01*
X153821077Y-120322476D01*
X153821075Y-120322476D01*
X153746189Y-120322084D01*
X153662195Y-120321645D01*
X153620521Y-120331650D01*
X153507709Y-120358733D01*
X153507706Y-120358734D01*
X153501804Y-120360151D01*
X153355227Y-120435805D01*
X153230927Y-120544238D01*
X153229522Y-120542628D01*
X153183662Y-120569103D01*
X153162750Y-120571300D01*
X136318719Y-120571300D01*
X136259588Y-120552087D01*
X136251797Y-120545812D01*
X136137427Y-120443912D01*
X136137426Y-120443911D01*
X136132898Y-120439877D01*
X135987121Y-120362692D01*
X135934720Y-120349530D01*
X135833028Y-120323986D01*
X135833024Y-120323986D01*
X135827142Y-120322508D01*
X135821077Y-120322476D01*
X135821075Y-120322476D01*
X135746189Y-120322084D01*
X135662195Y-120321645D01*
X135620521Y-120331650D01*
X135507709Y-120358733D01*
X135507706Y-120358734D01*
X135501804Y-120360151D01*
X135355227Y-120435805D01*
X135230927Y-120544238D01*
X135229522Y-120542628D01*
X135183662Y-120569103D01*
X135162750Y-120571300D01*
X118318719Y-120571300D01*
X118259588Y-120552087D01*
X118251797Y-120545812D01*
X118137427Y-120443912D01*
X118137426Y-120443911D01*
X118132898Y-120439877D01*
X117987121Y-120362692D01*
X117934720Y-120349530D01*
X117833028Y-120323986D01*
X117833024Y-120323986D01*
X117827142Y-120322508D01*
X117821077Y-120322476D01*
X117821075Y-120322476D01*
X117746189Y-120322084D01*
X117662195Y-120321645D01*
X117620521Y-120331650D01*
X117507709Y-120358733D01*
X117507706Y-120358734D01*
X117501804Y-120360151D01*
X117355227Y-120435805D01*
X117230927Y-120544238D01*
X117229522Y-120542628D01*
X117183662Y-120569103D01*
X117162750Y-120571300D01*
X100318719Y-120571300D01*
X100259588Y-120552087D01*
X100251797Y-120545812D01*
X100137427Y-120443912D01*
X100137426Y-120443911D01*
X100132898Y-120439877D01*
X99987121Y-120362692D01*
X99934720Y-120349530D01*
X99833028Y-120323986D01*
X99833024Y-120323986D01*
X99827142Y-120322508D01*
X99821077Y-120322476D01*
X99821075Y-120322476D01*
X99746189Y-120322084D01*
X99662195Y-120321645D01*
X99620521Y-120331650D01*
X99507709Y-120358733D01*
X99507706Y-120358734D01*
X99501804Y-120360151D01*
X99355227Y-120435805D01*
X99230927Y-120544238D01*
X99225411Y-120552087D01*
X99139569Y-120674228D01*
X99139567Y-120674232D01*
X99136081Y-120679192D01*
X99076163Y-120832873D01*
X99054633Y-120996411D01*
X87072100Y-120996411D01*
X87072100Y-118996411D01*
X97054633Y-118996411D01*
X97055298Y-119002433D01*
X97072067Y-119154336D01*
X97072068Y-119154340D01*
X97072733Y-119160364D01*
X97129420Y-119315267D01*
X97132806Y-119320306D01*
X97212710Y-119439216D01*
X97221419Y-119452177D01*
X97225905Y-119456259D01*
X97225906Y-119456260D01*
X97239115Y-119468279D01*
X97343421Y-119563189D01*
X97488381Y-119641896D01*
X97494251Y-119643436D01*
X97642064Y-119682214D01*
X97642065Y-119682214D01*
X97647931Y-119683753D01*
X97726671Y-119684990D01*
X97806796Y-119686249D01*
X97806798Y-119686249D01*
X97812859Y-119686344D01*
X97818770Y-119684990D01*
X97818772Y-119684990D01*
X97967735Y-119650873D01*
X97967738Y-119650872D01*
X97973645Y-119649519D01*
X98088955Y-119591525D01*
X98115587Y-119578131D01*
X98115590Y-119578129D01*
X98121006Y-119575405D01*
X98246434Y-119468279D01*
X98247033Y-119467446D01*
X98299494Y-119437885D01*
X98319379Y-119435900D01*
X115164612Y-119435900D01*
X115223743Y-119455113D01*
X115232314Y-119462090D01*
X115343421Y-119563189D01*
X115488381Y-119641896D01*
X115494251Y-119643436D01*
X115642064Y-119682214D01*
X115642065Y-119682214D01*
X115647931Y-119683753D01*
X115726671Y-119684990D01*
X115806796Y-119686249D01*
X115806798Y-119686249D01*
X115812859Y-119686344D01*
X115818770Y-119684990D01*
X115818772Y-119684990D01*
X115967735Y-119650873D01*
X115967738Y-119650872D01*
X115973645Y-119649519D01*
X116088955Y-119591525D01*
X116115587Y-119578131D01*
X116115590Y-119578129D01*
X116121006Y-119575405D01*
X116246434Y-119468279D01*
X116247033Y-119467446D01*
X116299494Y-119437885D01*
X116319379Y-119435900D01*
X133164612Y-119435900D01*
X133223743Y-119455113D01*
X133232314Y-119462090D01*
X133343421Y-119563189D01*
X133488381Y-119641896D01*
X133494251Y-119643436D01*
X133642064Y-119682214D01*
X133642065Y-119682214D01*
X133647931Y-119683753D01*
X133726671Y-119684990D01*
X133806796Y-119686249D01*
X133806798Y-119686249D01*
X133812859Y-119686344D01*
X133818770Y-119684990D01*
X133818772Y-119684990D01*
X133967735Y-119650873D01*
X133967738Y-119650872D01*
X133973645Y-119649519D01*
X134088955Y-119591525D01*
X134115587Y-119578131D01*
X134115590Y-119578129D01*
X134121006Y-119575405D01*
X134246434Y-119468279D01*
X134247033Y-119467446D01*
X134299494Y-119437885D01*
X134319379Y-119435900D01*
X151164612Y-119435900D01*
X151223743Y-119455113D01*
X151232314Y-119462090D01*
X151343421Y-119563189D01*
X151488381Y-119641896D01*
X151494251Y-119643436D01*
X151642064Y-119682214D01*
X151642065Y-119682214D01*
X151647931Y-119683753D01*
X151726671Y-119684990D01*
X151806796Y-119686249D01*
X151806798Y-119686249D01*
X151812859Y-119686344D01*
X151818770Y-119684990D01*
X151818772Y-119684990D01*
X151967735Y-119650873D01*
X151967738Y-119650872D01*
X151973645Y-119649519D01*
X152088955Y-119591525D01*
X152115587Y-119578131D01*
X152115590Y-119578129D01*
X152121006Y-119575405D01*
X152246434Y-119468279D01*
X152247033Y-119467446D01*
X152299494Y-119437885D01*
X152319379Y-119435900D01*
X155709466Y-119435900D01*
X155721290Y-119436597D01*
X155747369Y-119439684D01*
X155747372Y-119439684D01*
X155754833Y-119440567D01*
X155776571Y-119436597D01*
X155810532Y-119430395D01*
X155813647Y-119429876D01*
X155869649Y-119421456D01*
X155875895Y-119418457D01*
X155882711Y-119417212D01*
X155932993Y-119391093D01*
X155935744Y-119389719D01*
X155986833Y-119365186D01*
X155991264Y-119361089D01*
X155992991Y-119359926D01*
X155998070Y-119357288D01*
X156002907Y-119353158D01*
X156038944Y-119317121D01*
X156041791Y-119314383D01*
X156076769Y-119282050D01*
X156076771Y-119282048D01*
X156082291Y-119276945D01*
X156085705Y-119271067D01*
X156091778Y-119264287D01*
X157024415Y-118331650D01*
X157033269Y-118323782D01*
X157053887Y-118307528D01*
X157059793Y-118302872D01*
X157091996Y-118256278D01*
X157093795Y-118253760D01*
X157127467Y-118208171D01*
X157129763Y-118201633D01*
X157133702Y-118195934D01*
X157150787Y-118141913D01*
X157151768Y-118138972D01*
X157168049Y-118092614D01*
X157168049Y-118092612D01*
X157170540Y-118085520D01*
X157170777Y-118079481D01*
X157171171Y-118077459D01*
X157172901Y-118071990D01*
X157173400Y-118065649D01*
X157173400Y-118014684D01*
X157173478Y-118010735D01*
X157175348Y-117963143D01*
X157175348Y-117963141D01*
X157175643Y-117955625D01*
X157173900Y-117949052D01*
X157173400Y-117939960D01*
X157173400Y-116224335D01*
X157192613Y-116165204D01*
X157202865Y-116153200D01*
X161890700Y-111465365D01*
X161946098Y-111437139D01*
X161961835Y-111435900D01*
X165709466Y-111435900D01*
X165721290Y-111436597D01*
X165747369Y-111439684D01*
X165747372Y-111439684D01*
X165754833Y-111440567D01*
X165776571Y-111436597D01*
X165810532Y-111430395D01*
X165813647Y-111429876D01*
X165869649Y-111421456D01*
X165875895Y-111418457D01*
X165882711Y-111417212D01*
X165932993Y-111391093D01*
X165935744Y-111389719D01*
X165986833Y-111365186D01*
X165991264Y-111361089D01*
X165992991Y-111359926D01*
X165998070Y-111357288D01*
X166002907Y-111353158D01*
X166038944Y-111317121D01*
X166041791Y-111314383D01*
X166076769Y-111282050D01*
X166076771Y-111282048D01*
X166082291Y-111276945D01*
X166085705Y-111271067D01*
X166091778Y-111264287D01*
X182274411Y-95081653D01*
X182283265Y-95073785D01*
X182298015Y-95062157D01*
X182309793Y-95052872D01*
X182341994Y-95006280D01*
X182343827Y-95003714D01*
X182363169Y-94977528D01*
X182377466Y-94958171D01*
X182379761Y-94951636D01*
X182383702Y-94945934D01*
X182400782Y-94891928D01*
X182401769Y-94888968D01*
X182420539Y-94835521D01*
X182420776Y-94829489D01*
X182421171Y-94827459D01*
X182422901Y-94821990D01*
X182423400Y-94815649D01*
X182423400Y-94764659D01*
X182423478Y-94760710D01*
X182425347Y-94713145D01*
X182425347Y-94713142D01*
X182425642Y-94705626D01*
X182423899Y-94699054D01*
X182423400Y-94689972D01*
X182423400Y-94508648D01*
X182442613Y-94449517D01*
X182464869Y-94427261D01*
X182619487Y-94314925D01*
X182619490Y-94314922D01*
X182623749Y-94311828D01*
X182756009Y-94164939D01*
X182777199Y-94128238D01*
X182852201Y-93998329D01*
X182852202Y-93998327D01*
X182854838Y-93993761D01*
X182915918Y-93805776D01*
X182931400Y-93658475D01*
X182931400Y-90308725D01*
X182915918Y-90161424D01*
X182854838Y-89973439D01*
X182756009Y-89802261D01*
X182623749Y-89655372D01*
X182619488Y-89652276D01*
X182619487Y-89652275D01*
X182536149Y-89591727D01*
X182463840Y-89539191D01*
X182283269Y-89458796D01*
X182278119Y-89457701D01*
X182278118Y-89457701D01*
X182095083Y-89418795D01*
X182095078Y-89418794D01*
X182089929Y-89417700D01*
X181892271Y-89417700D01*
X181887122Y-89418794D01*
X181887117Y-89418795D01*
X181704082Y-89457701D01*
X181704081Y-89457701D01*
X181698931Y-89458796D01*
X181518361Y-89539191D01*
X181358451Y-89655372D01*
X181226191Y-89802261D01*
X181127362Y-89973439D01*
X181066282Y-90161424D01*
X181050800Y-90308725D01*
X181050800Y-93658475D01*
X181066282Y-93805776D01*
X181127362Y-93993761D01*
X181129998Y-93998327D01*
X181129999Y-93998329D01*
X181205002Y-94128238D01*
X181226191Y-94164939D01*
X181358451Y-94311828D01*
X181362710Y-94314923D01*
X181362713Y-94314925D01*
X181411433Y-94350322D01*
X181517332Y-94427262D01*
X181553876Y-94477561D01*
X181558800Y-94508648D01*
X181558800Y-94532866D01*
X181539587Y-94591997D01*
X181529335Y-94604001D01*
X165591500Y-110541835D01*
X165536102Y-110570061D01*
X165520365Y-110571300D01*
X161772734Y-110571300D01*
X161760910Y-110570603D01*
X161734831Y-110567516D01*
X161734828Y-110567516D01*
X161727367Y-110566633D01*
X161719969Y-110567984D01*
X161719970Y-110567984D01*
X161671668Y-110576805D01*
X161668556Y-110577323D01*
X161612551Y-110585744D01*
X161606305Y-110588743D01*
X161599489Y-110589988D01*
X161549221Y-110616100D01*
X161546406Y-110617506D01*
X161502149Y-110638757D01*
X161502147Y-110638758D01*
X161495367Y-110642014D01*
X161490938Y-110646108D01*
X161489213Y-110647270D01*
X161484130Y-110649911D01*
X161479293Y-110654042D01*
X161443256Y-110690079D01*
X161440409Y-110692817D01*
X161405431Y-110725150D01*
X161405429Y-110725152D01*
X161399909Y-110730255D01*
X161396495Y-110736133D01*
X161390422Y-110742913D01*
X156457785Y-115675550D01*
X156448931Y-115683418D01*
X156430074Y-115698284D01*
X156422407Y-115704328D01*
X156402414Y-115733255D01*
X156390204Y-115750922D01*
X156388405Y-115753440D01*
X156354733Y-115799029D01*
X156352437Y-115805566D01*
X156348498Y-115811266D01*
X156331402Y-115865322D01*
X156330440Y-115868205D01*
X156311661Y-115921680D01*
X156311424Y-115927712D01*
X156311029Y-115929740D01*
X156309299Y-115935210D01*
X156308800Y-115941551D01*
X156308800Y-115992526D01*
X156308722Y-115996476D01*
X156306557Y-116051574D01*
X156308300Y-116058149D01*
X156308800Y-116067236D01*
X156308800Y-117782865D01*
X156289587Y-117841996D01*
X156279335Y-117854000D01*
X155591500Y-118541835D01*
X155536102Y-118570061D01*
X155520365Y-118571300D01*
X152318719Y-118571300D01*
X152259588Y-118552087D01*
X152251797Y-118545812D01*
X152137427Y-118443912D01*
X152137426Y-118443911D01*
X152132898Y-118439877D01*
X151987121Y-118362692D01*
X151934720Y-118349530D01*
X151833028Y-118323986D01*
X151833024Y-118323986D01*
X151827142Y-118322508D01*
X151821077Y-118322476D01*
X151821075Y-118322476D01*
X151746189Y-118322084D01*
X151662195Y-118321645D01*
X151620521Y-118331650D01*
X151507709Y-118358733D01*
X151507706Y-118358734D01*
X151501804Y-118360151D01*
X151355227Y-118435805D01*
X151230927Y-118544238D01*
X151229522Y-118542628D01*
X151183662Y-118569103D01*
X151162750Y-118571300D01*
X134318719Y-118571300D01*
X134259588Y-118552087D01*
X134251797Y-118545812D01*
X134137427Y-118443912D01*
X134137426Y-118443911D01*
X134132898Y-118439877D01*
X133987121Y-118362692D01*
X133934720Y-118349530D01*
X133833028Y-118323986D01*
X133833024Y-118323986D01*
X133827142Y-118322508D01*
X133821077Y-118322476D01*
X133821075Y-118322476D01*
X133746189Y-118322084D01*
X133662195Y-118321645D01*
X133620521Y-118331650D01*
X133507709Y-118358733D01*
X133507706Y-118358734D01*
X133501804Y-118360151D01*
X133355227Y-118435805D01*
X133230927Y-118544238D01*
X133229522Y-118542628D01*
X133183662Y-118569103D01*
X133162750Y-118571300D01*
X116318719Y-118571300D01*
X116259588Y-118552087D01*
X116251797Y-118545812D01*
X116137427Y-118443912D01*
X116137426Y-118443911D01*
X116132898Y-118439877D01*
X115987121Y-118362692D01*
X115934720Y-118349530D01*
X115833028Y-118323986D01*
X115833024Y-118323986D01*
X115827142Y-118322508D01*
X115821077Y-118322476D01*
X115821075Y-118322476D01*
X115746189Y-118322084D01*
X115662195Y-118321645D01*
X115620521Y-118331650D01*
X115507709Y-118358733D01*
X115507706Y-118358734D01*
X115501804Y-118360151D01*
X115355227Y-118435805D01*
X115230927Y-118544238D01*
X115229522Y-118542628D01*
X115183662Y-118569103D01*
X115162750Y-118571300D01*
X98318719Y-118571300D01*
X98259588Y-118552087D01*
X98251797Y-118545812D01*
X98137427Y-118443912D01*
X98137426Y-118443911D01*
X98132898Y-118439877D01*
X97987121Y-118362692D01*
X97934720Y-118349530D01*
X97833028Y-118323986D01*
X97833024Y-118323986D01*
X97827142Y-118322508D01*
X97821077Y-118322476D01*
X97821075Y-118322476D01*
X97746189Y-118322084D01*
X97662195Y-118321645D01*
X97620521Y-118331650D01*
X97507709Y-118358733D01*
X97507706Y-118358734D01*
X97501804Y-118360151D01*
X97355227Y-118435805D01*
X97230927Y-118544238D01*
X97225411Y-118552087D01*
X97139569Y-118674228D01*
X97139567Y-118674232D01*
X97136081Y-118679192D01*
X97076163Y-118832873D01*
X97054633Y-118996411D01*
X87072100Y-118996411D01*
X87072100Y-116996411D01*
X91554633Y-116996411D01*
X91555298Y-117002433D01*
X91572067Y-117154336D01*
X91572068Y-117154340D01*
X91572733Y-117160364D01*
X91629420Y-117315267D01*
X91632806Y-117320306D01*
X91712710Y-117439216D01*
X91721419Y-117452177D01*
X91843421Y-117563189D01*
X91988381Y-117641896D01*
X91994251Y-117643436D01*
X92142064Y-117682214D01*
X92142065Y-117682214D01*
X92147931Y-117683753D01*
X92226671Y-117684990D01*
X92306796Y-117686249D01*
X92306798Y-117686249D01*
X92312859Y-117686344D01*
X92318770Y-117684990D01*
X92318772Y-117684990D01*
X92467735Y-117650873D01*
X92467738Y-117650872D01*
X92473645Y-117649519D01*
X92540315Y-117615988D01*
X92615587Y-117578131D01*
X92615590Y-117578129D01*
X92621006Y-117575405D01*
X92746434Y-117468279D01*
X92747033Y-117467446D01*
X92799494Y-117437885D01*
X92819379Y-117435900D01*
X153709466Y-117435900D01*
X153721290Y-117436597D01*
X153747369Y-117439684D01*
X153747372Y-117439684D01*
X153754833Y-117440567D01*
X153776571Y-117436597D01*
X153810532Y-117430395D01*
X153813647Y-117429876D01*
X153869649Y-117421456D01*
X153875895Y-117418457D01*
X153882711Y-117417212D01*
X153932993Y-117391093D01*
X153935744Y-117389719D01*
X153986833Y-117365186D01*
X153991264Y-117361089D01*
X153992991Y-117359926D01*
X153998070Y-117357288D01*
X154002907Y-117353158D01*
X154038944Y-117317121D01*
X154041791Y-117314383D01*
X154076769Y-117282050D01*
X154076771Y-117282048D01*
X154082291Y-117276945D01*
X154085705Y-117271067D01*
X154091778Y-117264287D01*
X157990879Y-113365186D01*
X161890699Y-109465365D01*
X161946097Y-109437139D01*
X161961834Y-109435900D01*
X164709466Y-109435900D01*
X164721290Y-109436597D01*
X164747369Y-109439684D01*
X164747372Y-109439684D01*
X164754833Y-109440567D01*
X164778564Y-109436233D01*
X164810532Y-109430395D01*
X164813647Y-109429876D01*
X164869649Y-109421456D01*
X164875895Y-109418457D01*
X164882711Y-109417212D01*
X164932993Y-109391093D01*
X164935744Y-109389719D01*
X164986833Y-109365186D01*
X164991264Y-109361089D01*
X164992991Y-109359926D01*
X164998070Y-109357288D01*
X165002907Y-109353158D01*
X165038944Y-109317121D01*
X165041791Y-109314383D01*
X165076769Y-109282050D01*
X165076771Y-109282048D01*
X165082291Y-109276945D01*
X165085705Y-109271067D01*
X165091778Y-109264287D01*
X179734411Y-94621653D01*
X179743265Y-94613785D01*
X179763887Y-94597528D01*
X179769793Y-94592872D01*
X179788411Y-94565934D01*
X179801992Y-94546284D01*
X179803830Y-94543713D01*
X179832998Y-94504222D01*
X179832999Y-94504220D01*
X179837467Y-94498171D01*
X179839763Y-94491633D01*
X179843691Y-94485949D01*
X179843777Y-94486008D01*
X179889511Y-94443293D01*
X179923839Y-94428009D01*
X180083749Y-94311828D01*
X180216009Y-94164939D01*
X180237199Y-94128238D01*
X180312201Y-93998329D01*
X180312202Y-93998327D01*
X180314838Y-93993761D01*
X180375918Y-93805776D01*
X180391400Y-93658475D01*
X180391400Y-90308725D01*
X180375918Y-90161424D01*
X180314838Y-89973439D01*
X180216009Y-89802261D01*
X180083749Y-89655372D01*
X180079488Y-89652276D01*
X180079487Y-89652275D01*
X179996149Y-89591727D01*
X179923840Y-89539191D01*
X179743269Y-89458796D01*
X179738119Y-89457701D01*
X179738118Y-89457701D01*
X179555083Y-89418795D01*
X179555078Y-89418794D01*
X179549929Y-89417700D01*
X179352271Y-89417700D01*
X179347122Y-89418794D01*
X179347117Y-89418795D01*
X179164082Y-89457701D01*
X179164081Y-89457701D01*
X179158931Y-89458796D01*
X178978361Y-89539191D01*
X178818451Y-89655372D01*
X178686191Y-89802261D01*
X178587362Y-89973439D01*
X178526282Y-90161424D01*
X178510800Y-90308725D01*
X178510800Y-93658475D01*
X178526282Y-93805776D01*
X178587362Y-93993761D01*
X178589998Y-93998327D01*
X178589999Y-93998329D01*
X178665002Y-94128238D01*
X178686191Y-94164939D01*
X178689718Y-94168856D01*
X178689722Y-94168861D01*
X178756019Y-94242492D01*
X178781308Y-94299291D01*
X178768381Y-94360106D01*
X178752394Y-94380941D01*
X164591500Y-108541835D01*
X164536102Y-108570061D01*
X164520365Y-108571300D01*
X161772734Y-108571300D01*
X161760910Y-108570603D01*
X161734831Y-108567516D01*
X161734828Y-108567516D01*
X161727367Y-108566633D01*
X161719969Y-108567984D01*
X161719970Y-108567984D01*
X161671668Y-108576805D01*
X161668556Y-108577323D01*
X161612551Y-108585744D01*
X161606305Y-108588743D01*
X161599489Y-108589988D01*
X161592816Y-108593454D01*
X161592814Y-108593455D01*
X161549264Y-108616077D01*
X161546438Y-108617489D01*
X161502149Y-108638756D01*
X161502142Y-108638761D01*
X161495367Y-108642014D01*
X161490937Y-108646109D01*
X161489213Y-108647271D01*
X161484129Y-108649912D01*
X161479293Y-108654043D01*
X161443269Y-108690067D01*
X161440422Y-108692805D01*
X161417548Y-108713950D01*
X161399909Y-108730255D01*
X161396494Y-108736133D01*
X161390419Y-108742917D01*
X153591500Y-116541835D01*
X153536102Y-116570061D01*
X153520365Y-116571300D01*
X92818719Y-116571300D01*
X92759588Y-116552087D01*
X92751797Y-116545812D01*
X92637427Y-116443912D01*
X92637426Y-116443911D01*
X92632898Y-116439877D01*
X92487121Y-116362692D01*
X92434720Y-116349530D01*
X92333028Y-116323986D01*
X92333024Y-116323986D01*
X92327142Y-116322508D01*
X92321077Y-116322476D01*
X92321075Y-116322476D01*
X92246189Y-116322084D01*
X92162195Y-116321645D01*
X92086437Y-116339833D01*
X92007709Y-116358733D01*
X92007706Y-116358734D01*
X92001804Y-116360151D01*
X91855227Y-116435805D01*
X91730927Y-116544238D01*
X91725411Y-116552087D01*
X91639569Y-116674228D01*
X91639567Y-116674232D01*
X91636081Y-116679192D01*
X91576163Y-116832873D01*
X91554633Y-116996411D01*
X87072100Y-116996411D01*
X87072100Y-114996411D01*
X109054633Y-114996411D01*
X109055298Y-115002433D01*
X109072067Y-115154336D01*
X109072068Y-115154340D01*
X109072733Y-115160364D01*
X109129420Y-115315267D01*
X109132806Y-115320306D01*
X109212710Y-115439216D01*
X109221419Y-115452177D01*
X109343421Y-115563189D01*
X109488381Y-115641896D01*
X109494251Y-115643436D01*
X109642064Y-115682214D01*
X109642065Y-115682214D01*
X109647931Y-115683753D01*
X109726671Y-115684990D01*
X109806796Y-115686249D01*
X109806798Y-115686249D01*
X109812859Y-115686344D01*
X109818770Y-115684990D01*
X109818772Y-115684990D01*
X109967735Y-115650873D01*
X109967738Y-115650872D01*
X109973645Y-115649519D01*
X110041844Y-115615219D01*
X110115587Y-115578131D01*
X110115590Y-115578129D01*
X110121006Y-115575405D01*
X110246434Y-115468279D01*
X110247033Y-115467446D01*
X110299494Y-115437885D01*
X110319379Y-115435900D01*
X153709466Y-115435900D01*
X153721290Y-115436597D01*
X153747369Y-115439684D01*
X153747372Y-115439684D01*
X153754833Y-115440567D01*
X153776571Y-115436597D01*
X153810532Y-115430395D01*
X153813647Y-115429876D01*
X153869649Y-115421456D01*
X153875895Y-115418457D01*
X153882711Y-115417212D01*
X153932993Y-115391093D01*
X153935744Y-115389719D01*
X153986833Y-115365186D01*
X153991264Y-115361089D01*
X153992991Y-115359926D01*
X153998070Y-115357288D01*
X154002907Y-115353158D01*
X154038944Y-115317121D01*
X154041791Y-115314383D01*
X154076769Y-115282050D01*
X154076771Y-115282048D01*
X154082291Y-115276945D01*
X154085705Y-115271067D01*
X154091778Y-115264287D01*
X157990879Y-111365186D01*
X161890699Y-107465365D01*
X161946097Y-107437139D01*
X161961834Y-107435900D01*
X163709466Y-107435900D01*
X163721290Y-107436597D01*
X163747369Y-107439684D01*
X163747372Y-107439684D01*
X163754833Y-107440567D01*
X163776571Y-107436597D01*
X163810532Y-107430395D01*
X163813647Y-107429876D01*
X163869649Y-107421456D01*
X163875895Y-107418457D01*
X163882711Y-107417212D01*
X163932993Y-107391093D01*
X163935744Y-107389719D01*
X163986833Y-107365186D01*
X163991264Y-107361089D01*
X163992991Y-107359926D01*
X163998070Y-107357288D01*
X164002907Y-107353158D01*
X164038944Y-107317121D01*
X164041791Y-107314383D01*
X164076769Y-107282050D01*
X164076771Y-107282048D01*
X164082291Y-107276945D01*
X164085705Y-107271067D01*
X164091778Y-107264287D01*
X176777100Y-94578965D01*
X176832498Y-94550739D01*
X176848235Y-94549500D01*
X177009929Y-94549500D01*
X177015078Y-94548406D01*
X177015083Y-94548405D01*
X177198118Y-94509499D01*
X177198119Y-94509499D01*
X177203269Y-94508404D01*
X177383839Y-94428009D01*
X177390683Y-94423037D01*
X177484491Y-94354881D01*
X177543749Y-94311828D01*
X177676009Y-94164939D01*
X177697199Y-94128238D01*
X177772201Y-93998329D01*
X177772202Y-93998327D01*
X177774838Y-93993761D01*
X177835918Y-93805776D01*
X177851400Y-93658475D01*
X177851400Y-90308725D01*
X177835918Y-90161424D01*
X177774838Y-89973439D01*
X177676009Y-89802261D01*
X177543749Y-89655372D01*
X177539488Y-89652276D01*
X177539487Y-89652275D01*
X177456149Y-89591727D01*
X177383840Y-89539191D01*
X177203269Y-89458796D01*
X177198119Y-89457701D01*
X177198118Y-89457701D01*
X177015083Y-89418795D01*
X177015078Y-89418794D01*
X177009929Y-89417700D01*
X176812271Y-89417700D01*
X176807122Y-89418794D01*
X176807117Y-89418795D01*
X176624082Y-89457701D01*
X176624081Y-89457701D01*
X176618931Y-89458796D01*
X176438361Y-89539191D01*
X176278451Y-89655372D01*
X176146191Y-89802261D01*
X176047362Y-89973439D01*
X175986282Y-90161424D01*
X175970800Y-90308725D01*
X175970800Y-93658475D01*
X175986282Y-93805776D01*
X175987911Y-93810789D01*
X175987911Y-93810790D01*
X176045733Y-93988749D01*
X176045735Y-93988753D01*
X176047362Y-93993761D01*
X176048194Y-93995203D01*
X176054562Y-94055825D01*
X176027297Y-94106038D01*
X163591500Y-106541835D01*
X163536102Y-106570061D01*
X163520365Y-106571300D01*
X162999501Y-106571300D01*
X162940370Y-106552087D01*
X162903825Y-106501787D01*
X162903825Y-106439613D01*
X162940370Y-106389313D01*
X162955954Y-106380014D01*
X162980048Y-106368444D01*
X162986833Y-106365186D01*
X162991264Y-106361089D01*
X162992991Y-106359926D01*
X162998070Y-106357288D01*
X163002907Y-106353158D01*
X163038944Y-106317121D01*
X163041791Y-106314383D01*
X163076769Y-106282050D01*
X163076771Y-106282048D01*
X163082291Y-106276945D01*
X163085705Y-106271067D01*
X163091778Y-106264287D01*
X174654415Y-94701650D01*
X174663269Y-94693782D01*
X174683887Y-94677528D01*
X174689793Y-94672872D01*
X174721996Y-94626278D01*
X174723795Y-94623760D01*
X174757467Y-94578171D01*
X174759763Y-94571633D01*
X174763702Y-94565934D01*
X174780786Y-94511914D01*
X174781769Y-94508971D01*
X174789596Y-94486685D01*
X174827317Y-94437261D01*
X174834660Y-94433138D01*
X174834458Y-94432788D01*
X174839016Y-94430156D01*
X174843839Y-94428009D01*
X175003749Y-94311828D01*
X175136009Y-94164939D01*
X175157199Y-94128238D01*
X175232201Y-93998329D01*
X175232202Y-93998327D01*
X175234838Y-93993761D01*
X175295918Y-93805776D01*
X175311400Y-93658475D01*
X175311400Y-90308725D01*
X175295918Y-90161424D01*
X175234838Y-89973439D01*
X175136009Y-89802261D01*
X175003749Y-89655372D01*
X174999488Y-89652276D01*
X174999487Y-89652275D01*
X174916149Y-89591727D01*
X174843840Y-89539191D01*
X174663269Y-89458796D01*
X174658119Y-89457701D01*
X174658118Y-89457701D01*
X174475083Y-89418795D01*
X174475078Y-89418794D01*
X174469929Y-89417700D01*
X174272271Y-89417700D01*
X174267122Y-89418794D01*
X174267117Y-89418795D01*
X174084082Y-89457701D01*
X174084081Y-89457701D01*
X174078931Y-89458796D01*
X173898361Y-89539191D01*
X173738451Y-89655372D01*
X173606191Y-89802261D01*
X173507362Y-89973439D01*
X173446282Y-90161424D01*
X173430800Y-90308725D01*
X173430800Y-93658475D01*
X173446282Y-93805776D01*
X173507362Y-93993761D01*
X173509998Y-93998327D01*
X173509999Y-93998329D01*
X173585002Y-94128238D01*
X173606191Y-94164939D01*
X173663059Y-94228097D01*
X173713923Y-94284587D01*
X173739212Y-94341386D01*
X173726285Y-94402202D01*
X173710298Y-94423037D01*
X162591500Y-105541835D01*
X162536102Y-105570061D01*
X162520365Y-105571300D01*
X160772734Y-105571300D01*
X160760910Y-105570603D01*
X160734831Y-105567516D01*
X160734828Y-105567516D01*
X160727367Y-105566633D01*
X160719969Y-105567984D01*
X160719970Y-105567984D01*
X160671668Y-105576805D01*
X160668556Y-105577323D01*
X160612551Y-105585744D01*
X160606305Y-105588743D01*
X160599489Y-105589988D01*
X160549207Y-105616107D01*
X160546456Y-105617481D01*
X160495367Y-105642014D01*
X160490936Y-105646111D01*
X160489209Y-105647274D01*
X160484130Y-105649912D01*
X160479293Y-105654042D01*
X160443256Y-105690079D01*
X160440409Y-105692817D01*
X160405431Y-105725150D01*
X160405429Y-105725152D01*
X160399909Y-105730255D01*
X160396495Y-105736133D01*
X160390422Y-105742913D01*
X153591500Y-112541835D01*
X153536102Y-112570061D01*
X153520365Y-112571300D01*
X127318719Y-112571300D01*
X127259588Y-112552087D01*
X127251797Y-112545812D01*
X127137427Y-112443912D01*
X127137426Y-112443911D01*
X127132898Y-112439877D01*
X126987121Y-112362692D01*
X126934720Y-112349530D01*
X126833028Y-112323986D01*
X126833024Y-112323986D01*
X126827142Y-112322508D01*
X126821077Y-112322476D01*
X126821075Y-112322476D01*
X126746189Y-112322084D01*
X126662195Y-112321645D01*
X126586437Y-112339833D01*
X126507709Y-112358733D01*
X126507706Y-112358734D01*
X126501804Y-112360151D01*
X126355227Y-112435805D01*
X126230927Y-112544238D01*
X126212779Y-112570061D01*
X126139569Y-112674228D01*
X126139567Y-112674232D01*
X126136081Y-112679192D01*
X126133878Y-112684841D01*
X126133877Y-112684844D01*
X126109396Y-112747635D01*
X126076163Y-112832873D01*
X126068452Y-112891446D01*
X126056450Y-112982613D01*
X126054633Y-112996411D01*
X126055298Y-113002433D01*
X126072067Y-113154336D01*
X126072068Y-113154340D01*
X126072733Y-113160364D01*
X126129420Y-113315267D01*
X126132806Y-113320306D01*
X126212710Y-113439216D01*
X126221419Y-113452177D01*
X126225905Y-113456259D01*
X126225906Y-113456260D01*
X126319953Y-113541835D01*
X126343421Y-113563189D01*
X126348748Y-113566081D01*
X126348749Y-113566082D01*
X126369023Y-113577090D01*
X126488381Y-113641896D01*
X126494251Y-113643436D01*
X126642064Y-113682214D01*
X126642065Y-113682214D01*
X126647931Y-113683753D01*
X126726671Y-113684990D01*
X126806796Y-113686249D01*
X126806798Y-113686249D01*
X126812859Y-113686344D01*
X126818770Y-113684990D01*
X126818772Y-113684990D01*
X126967735Y-113650873D01*
X126967738Y-113650872D01*
X126973645Y-113649519D01*
X127036046Y-113618135D01*
X127115587Y-113578131D01*
X127115590Y-113578129D01*
X127121006Y-113575405D01*
X127246434Y-113468279D01*
X127247033Y-113467446D01*
X127299494Y-113437885D01*
X127319379Y-113435900D01*
X153709466Y-113435900D01*
X153721290Y-113436597D01*
X153747369Y-113439684D01*
X153747372Y-113439684D01*
X153754833Y-113440567D01*
X153776571Y-113436597D01*
X153810532Y-113430395D01*
X153813647Y-113429876D01*
X153869649Y-113421456D01*
X153875895Y-113418457D01*
X153882711Y-113417212D01*
X153932993Y-113391093D01*
X153935744Y-113389719D01*
X153986833Y-113365186D01*
X153991264Y-113361089D01*
X153992991Y-113359926D01*
X153998070Y-113357288D01*
X154002907Y-113353158D01*
X154038944Y-113317121D01*
X154041791Y-113314383D01*
X154076769Y-113282050D01*
X154076771Y-113282048D01*
X154082291Y-113276945D01*
X154085705Y-113271067D01*
X154091778Y-113264287D01*
X160890700Y-106465365D01*
X160946098Y-106437139D01*
X160961835Y-106435900D01*
X161482697Y-106435900D01*
X161541828Y-106455113D01*
X161578373Y-106505413D01*
X161578373Y-106567587D01*
X161541828Y-106617887D01*
X161526244Y-106627186D01*
X161502149Y-106638756D01*
X161502142Y-106638761D01*
X161495367Y-106642014D01*
X161490937Y-106646109D01*
X161489213Y-106647271D01*
X161484129Y-106649912D01*
X161479293Y-106654043D01*
X161443269Y-106690067D01*
X161440422Y-106692805D01*
X161419797Y-106711871D01*
X161399909Y-106730255D01*
X161396494Y-106736133D01*
X161390419Y-106742917D01*
X153591500Y-114541835D01*
X153536102Y-114570061D01*
X153520365Y-114571300D01*
X110318719Y-114571300D01*
X110259588Y-114552087D01*
X110251797Y-114545812D01*
X110137427Y-114443912D01*
X110137426Y-114443911D01*
X110132898Y-114439877D01*
X110084688Y-114414351D01*
X109992483Y-114365531D01*
X109987121Y-114362692D01*
X109934720Y-114349530D01*
X109833028Y-114323986D01*
X109833024Y-114323986D01*
X109827142Y-114322508D01*
X109821077Y-114322476D01*
X109821075Y-114322476D01*
X109746189Y-114322084D01*
X109662195Y-114321645D01*
X109586437Y-114339833D01*
X109507709Y-114358733D01*
X109507706Y-114358734D01*
X109501804Y-114360151D01*
X109496410Y-114362935D01*
X109380862Y-114422574D01*
X109355227Y-114435805D01*
X109350662Y-114439787D01*
X109350661Y-114439788D01*
X109333094Y-114455113D01*
X109230927Y-114544238D01*
X109197021Y-114592482D01*
X109139569Y-114674228D01*
X109139567Y-114674232D01*
X109136081Y-114679192D01*
X109133878Y-114684841D01*
X109133877Y-114684844D01*
X109114939Y-114733417D01*
X109076163Y-114832873D01*
X109064525Y-114921275D01*
X109056237Y-114984230D01*
X109054633Y-114996411D01*
X87072100Y-114996411D01*
X87072100Y-111496411D01*
X145054633Y-111496411D01*
X145055298Y-111502433D01*
X145072067Y-111654336D01*
X145072068Y-111654340D01*
X145072733Y-111660364D01*
X145129420Y-111815267D01*
X145132806Y-111820306D01*
X145212710Y-111939216D01*
X145221419Y-111952177D01*
X145225905Y-111956259D01*
X145225906Y-111956260D01*
X145338937Y-112059109D01*
X145343421Y-112063189D01*
X145488381Y-112141896D01*
X145494251Y-112143436D01*
X145642064Y-112182214D01*
X145642065Y-112182214D01*
X145647931Y-112183753D01*
X145726671Y-112184990D01*
X145806796Y-112186249D01*
X145806798Y-112186249D01*
X145812859Y-112186344D01*
X145818770Y-112184990D01*
X145818772Y-112184990D01*
X145967735Y-112150873D01*
X145967738Y-112150872D01*
X145973645Y-112149519D01*
X146059017Y-112106582D01*
X146115587Y-112078131D01*
X146115590Y-112078129D01*
X146121006Y-112075405D01*
X146246434Y-111968279D01*
X146247033Y-111967446D01*
X146299494Y-111937885D01*
X146319379Y-111935900D01*
X153209466Y-111935900D01*
X153221290Y-111936597D01*
X153247369Y-111939684D01*
X153247372Y-111939684D01*
X153254833Y-111940567D01*
X153276571Y-111936597D01*
X153310532Y-111930395D01*
X153313647Y-111929876D01*
X153369649Y-111921456D01*
X153375895Y-111918457D01*
X153382711Y-111917212D01*
X153432993Y-111891093D01*
X153435744Y-111889719D01*
X153486833Y-111865186D01*
X153491264Y-111861089D01*
X153492991Y-111859926D01*
X153498070Y-111857288D01*
X153502907Y-111853158D01*
X153538944Y-111817121D01*
X153541791Y-111814383D01*
X153576769Y-111782050D01*
X153576771Y-111782048D01*
X153582291Y-111776945D01*
X153585705Y-111771067D01*
X153591778Y-111764287D01*
X155112504Y-110243561D01*
X156641812Y-108714252D01*
X156697210Y-108686026D01*
X156714525Y-108684799D01*
X156749840Y-108685354D01*
X156806796Y-108686249D01*
X156806798Y-108686249D01*
X156812859Y-108686344D01*
X156818770Y-108684990D01*
X156818772Y-108684990D01*
X156967735Y-108650873D01*
X156967738Y-108650872D01*
X156973645Y-108649519D01*
X156995045Y-108638756D01*
X157115587Y-108578131D01*
X157115590Y-108578129D01*
X157121006Y-108575405D01*
X157213763Y-108496183D01*
X157241825Y-108472216D01*
X157241827Y-108472214D01*
X157246434Y-108468279D01*
X157289398Y-108408488D01*
X157339152Y-108339249D01*
X157339154Y-108339246D01*
X157342689Y-108334326D01*
X157354407Y-108305178D01*
X157401951Y-108186907D01*
X157404213Y-108181281D01*
X157405067Y-108175281D01*
X157405068Y-108175277D01*
X157419976Y-108070521D01*
X157427454Y-108017977D01*
X157427605Y-108003600D01*
X157426893Y-107997712D01*
X157408518Y-107845868D01*
X157408517Y-107845866D01*
X157407789Y-107839846D01*
X157366093Y-107729500D01*
X157351628Y-107691221D01*
X157351627Y-107691220D01*
X157349483Y-107685545D01*
X157256055Y-107549606D01*
X157152581Y-107457414D01*
X157137427Y-107443912D01*
X157137426Y-107443911D01*
X157132898Y-107439877D01*
X156987121Y-107362692D01*
X156934720Y-107349530D01*
X156833028Y-107323986D01*
X156833024Y-107323986D01*
X156827142Y-107322508D01*
X156821077Y-107322476D01*
X156821075Y-107322476D01*
X156746189Y-107322084D01*
X156662195Y-107321645D01*
X156586437Y-107339833D01*
X156507709Y-107358733D01*
X156507706Y-107358734D01*
X156501804Y-107360151D01*
X156496410Y-107362935D01*
X156373178Y-107426540D01*
X156355227Y-107435805D01*
X156230927Y-107544238D01*
X156191511Y-107600322D01*
X156139569Y-107674228D01*
X156139567Y-107674232D01*
X156136081Y-107679192D01*
X156133878Y-107684841D01*
X156133877Y-107684844D01*
X156113776Y-107736401D01*
X156076163Y-107832873D01*
X156054633Y-107996411D01*
X156055298Y-108002435D01*
X156055298Y-108002438D01*
X156055791Y-108006899D01*
X156057375Y-108021242D01*
X156057514Y-108022504D01*
X156044907Y-108083386D01*
X156028657Y-108104679D01*
X154559933Y-109573402D01*
X153091500Y-111041835D01*
X153036102Y-111070061D01*
X153020365Y-111071300D01*
X146318719Y-111071300D01*
X146259588Y-111052087D01*
X146251797Y-111045812D01*
X146137427Y-110943912D01*
X146137426Y-110943911D01*
X146132898Y-110939877D01*
X145987121Y-110862692D01*
X145934720Y-110849530D01*
X145833028Y-110823986D01*
X145833024Y-110823986D01*
X145827142Y-110822508D01*
X145821077Y-110822476D01*
X145821075Y-110822476D01*
X145746189Y-110822084D01*
X145662195Y-110821645D01*
X145586437Y-110839833D01*
X145507709Y-110858733D01*
X145507706Y-110858734D01*
X145501804Y-110860151D01*
X145496410Y-110862935D01*
X145434865Y-110894701D01*
X145355227Y-110935805D01*
X145230927Y-111044238D01*
X145225411Y-111052087D01*
X145139569Y-111174228D01*
X145139567Y-111174232D01*
X145136081Y-111179192D01*
X145133878Y-111184841D01*
X145133877Y-111184844D01*
X145080204Y-111322508D01*
X145076163Y-111332873D01*
X145054633Y-111496411D01*
X87072100Y-111496411D01*
X87072100Y-95469829D01*
X92549292Y-95469829D01*
X92562331Y-95695968D01*
X92612129Y-95916940D01*
X92697349Y-96126812D01*
X92699500Y-96130322D01*
X92699503Y-96130328D01*
X92813547Y-96316431D01*
X92813552Y-96316438D01*
X92815703Y-96319948D01*
X92964011Y-96491159D01*
X93138291Y-96635849D01*
X93202572Y-96673412D01*
X93330298Y-96748050D01*
X93330304Y-96748053D01*
X93333862Y-96750132D01*
X93337713Y-96751602D01*
X93337716Y-96751604D01*
X93434883Y-96788708D01*
X93545473Y-96830938D01*
X93549516Y-96831761D01*
X93549521Y-96831762D01*
X93763394Y-96875275D01*
X93763396Y-96875275D01*
X93767440Y-96876098D01*
X93993802Y-96884398D01*
X94218480Y-96855616D01*
X94435440Y-96790525D01*
X94439149Y-96788708D01*
X94635144Y-96692691D01*
X94635149Y-96692688D01*
X94638856Y-96690872D01*
X94823265Y-96559335D01*
X94983714Y-96399445D01*
X95115895Y-96215496D01*
X95216257Y-96012429D01*
X95244107Y-95920766D01*
X95280904Y-95799651D01*
X95282105Y-95795698D01*
X95311671Y-95571121D01*
X95313321Y-95503600D01*
X95310545Y-95469829D01*
X100169292Y-95469829D01*
X100182331Y-95695968D01*
X100232129Y-95916940D01*
X100317349Y-96126812D01*
X100319500Y-96130322D01*
X100319503Y-96130328D01*
X100433547Y-96316431D01*
X100433552Y-96316438D01*
X100435703Y-96319948D01*
X100584011Y-96491159D01*
X100758291Y-96635849D01*
X100822572Y-96673412D01*
X100950298Y-96748050D01*
X100950304Y-96748053D01*
X100953862Y-96750132D01*
X100957713Y-96751602D01*
X100957716Y-96751604D01*
X101054883Y-96788708D01*
X101165473Y-96830938D01*
X101169516Y-96831761D01*
X101169521Y-96831762D01*
X101383394Y-96875275D01*
X101383396Y-96875275D01*
X101387440Y-96876098D01*
X101613802Y-96884398D01*
X101838480Y-96855616D01*
X102055440Y-96790525D01*
X102059149Y-96788708D01*
X102255144Y-96692691D01*
X102255149Y-96692688D01*
X102258856Y-96690872D01*
X102443265Y-96559335D01*
X102603714Y-96399445D01*
X102735895Y-96215496D01*
X102836257Y-96012429D01*
X102864107Y-95920766D01*
X102900904Y-95799651D01*
X102902105Y-95795698D01*
X102931671Y-95571121D01*
X102933321Y-95503600D01*
X102930545Y-95469829D01*
X110549292Y-95469829D01*
X110562331Y-95695968D01*
X110612129Y-95916940D01*
X110697349Y-96126812D01*
X110699500Y-96130322D01*
X110699503Y-96130328D01*
X110813547Y-96316431D01*
X110813552Y-96316438D01*
X110815703Y-96319948D01*
X110964011Y-96491159D01*
X111138291Y-96635849D01*
X111202572Y-96673412D01*
X111330298Y-96748050D01*
X111330304Y-96748053D01*
X111333862Y-96750132D01*
X111337713Y-96751602D01*
X111337716Y-96751604D01*
X111434883Y-96788708D01*
X111545473Y-96830938D01*
X111549516Y-96831761D01*
X111549521Y-96831762D01*
X111763394Y-96875275D01*
X111763396Y-96875275D01*
X111767440Y-96876098D01*
X111993802Y-96884398D01*
X112218480Y-96855616D01*
X112435440Y-96790525D01*
X112439149Y-96788708D01*
X112635144Y-96692691D01*
X112635149Y-96692688D01*
X112638856Y-96690872D01*
X112823265Y-96559335D01*
X112983714Y-96399445D01*
X113115895Y-96215496D01*
X113216257Y-96012429D01*
X113244107Y-95920766D01*
X113280904Y-95799651D01*
X113282105Y-95795698D01*
X113311671Y-95571121D01*
X113313321Y-95503600D01*
X113310545Y-95469829D01*
X118169292Y-95469829D01*
X118182331Y-95695968D01*
X118232129Y-95916940D01*
X118317349Y-96126812D01*
X118319500Y-96130322D01*
X118319503Y-96130328D01*
X118433547Y-96316431D01*
X118433552Y-96316438D01*
X118435703Y-96319948D01*
X118584011Y-96491159D01*
X118758291Y-96635849D01*
X118822572Y-96673412D01*
X118950298Y-96748050D01*
X118950304Y-96748053D01*
X118953862Y-96750132D01*
X118957713Y-96751602D01*
X118957716Y-96751604D01*
X119054883Y-96788708D01*
X119165473Y-96830938D01*
X119169516Y-96831761D01*
X119169521Y-96831762D01*
X119383394Y-96875275D01*
X119383396Y-96875275D01*
X119387440Y-96876098D01*
X119613802Y-96884398D01*
X119838480Y-96855616D01*
X120055440Y-96790525D01*
X120059149Y-96788708D01*
X120255144Y-96692691D01*
X120255149Y-96692688D01*
X120258856Y-96690872D01*
X120443265Y-96559335D01*
X120603714Y-96399445D01*
X120735895Y-96215496D01*
X120836257Y-96012429D01*
X120864107Y-95920766D01*
X120900904Y-95799651D01*
X120902105Y-95795698D01*
X120931671Y-95571121D01*
X120933321Y-95503600D01*
X120930545Y-95469829D01*
X128549292Y-95469829D01*
X128562331Y-95695968D01*
X128612129Y-95916940D01*
X128697349Y-96126812D01*
X128699500Y-96130322D01*
X128699503Y-96130328D01*
X128813547Y-96316431D01*
X128813552Y-96316438D01*
X128815703Y-96319948D01*
X128964011Y-96491159D01*
X129138291Y-96635849D01*
X129202572Y-96673412D01*
X129330298Y-96748050D01*
X129330304Y-96748053D01*
X129333862Y-96750132D01*
X129337713Y-96751602D01*
X129337716Y-96751604D01*
X129434883Y-96788708D01*
X129545473Y-96830938D01*
X129549516Y-96831761D01*
X129549521Y-96831762D01*
X129763394Y-96875275D01*
X129763396Y-96875275D01*
X129767440Y-96876098D01*
X129993802Y-96884398D01*
X130218480Y-96855616D01*
X130435440Y-96790525D01*
X130439149Y-96788708D01*
X130635144Y-96692691D01*
X130635149Y-96692688D01*
X130638856Y-96690872D01*
X130823265Y-96559335D01*
X130983714Y-96399445D01*
X131115895Y-96215496D01*
X131216257Y-96012429D01*
X131244107Y-95920766D01*
X131280904Y-95799651D01*
X131282105Y-95795698D01*
X131311671Y-95571121D01*
X131313321Y-95503600D01*
X131310545Y-95469829D01*
X136169292Y-95469829D01*
X136182331Y-95695968D01*
X136232129Y-95916940D01*
X136317349Y-96126812D01*
X136319500Y-96130322D01*
X136319503Y-96130328D01*
X136433547Y-96316431D01*
X136433552Y-96316438D01*
X136435703Y-96319948D01*
X136584011Y-96491159D01*
X136758291Y-96635849D01*
X136822572Y-96673412D01*
X136950298Y-96748050D01*
X136950304Y-96748053D01*
X136953862Y-96750132D01*
X136957713Y-96751602D01*
X136957716Y-96751604D01*
X137054883Y-96788708D01*
X137165473Y-96830938D01*
X137169516Y-96831761D01*
X137169521Y-96831762D01*
X137383394Y-96875275D01*
X137383396Y-96875275D01*
X137387440Y-96876098D01*
X137613802Y-96884398D01*
X137838480Y-96855616D01*
X138055440Y-96790525D01*
X138059149Y-96788708D01*
X138255144Y-96692691D01*
X138255149Y-96692688D01*
X138258856Y-96690872D01*
X138443265Y-96559335D01*
X138603714Y-96399445D01*
X138735895Y-96215496D01*
X138836257Y-96012429D01*
X138864107Y-95920766D01*
X138900904Y-95799651D01*
X138902105Y-95795698D01*
X138931671Y-95571121D01*
X138933321Y-95503600D01*
X138930545Y-95469829D01*
X146549292Y-95469829D01*
X146562331Y-95695968D01*
X146612129Y-95916940D01*
X146697349Y-96126812D01*
X146699500Y-96130322D01*
X146699503Y-96130328D01*
X146813547Y-96316431D01*
X146813552Y-96316438D01*
X146815703Y-96319948D01*
X146964011Y-96491159D01*
X147138291Y-96635849D01*
X147202572Y-96673412D01*
X147330298Y-96748050D01*
X147330304Y-96748053D01*
X147333862Y-96750132D01*
X147337713Y-96751602D01*
X147337716Y-96751604D01*
X147434883Y-96788708D01*
X147545473Y-96830938D01*
X147549516Y-96831761D01*
X147549521Y-96831762D01*
X147763394Y-96875275D01*
X147763396Y-96875275D01*
X147767440Y-96876098D01*
X147993802Y-96884398D01*
X148218480Y-96855616D01*
X148435440Y-96790525D01*
X148439149Y-96788708D01*
X148635144Y-96692691D01*
X148635149Y-96692688D01*
X148638856Y-96690872D01*
X148823265Y-96559335D01*
X148983714Y-96399445D01*
X149115895Y-96215496D01*
X149216257Y-96012429D01*
X149244107Y-95920766D01*
X149280904Y-95799651D01*
X149282105Y-95795698D01*
X149311671Y-95571121D01*
X149313321Y-95503600D01*
X149310545Y-95469829D01*
X154169292Y-95469829D01*
X154182331Y-95695968D01*
X154232129Y-95916940D01*
X154317349Y-96126812D01*
X154319500Y-96130322D01*
X154319503Y-96130328D01*
X154433547Y-96316431D01*
X154433552Y-96316438D01*
X154435703Y-96319948D01*
X154584011Y-96491159D01*
X154758291Y-96635849D01*
X154822572Y-96673412D01*
X154950298Y-96748050D01*
X154950304Y-96748053D01*
X154953862Y-96750132D01*
X154957713Y-96751602D01*
X154957716Y-96751604D01*
X155054883Y-96788708D01*
X155165473Y-96830938D01*
X155169516Y-96831761D01*
X155169521Y-96831762D01*
X155383394Y-96875275D01*
X155383396Y-96875275D01*
X155387440Y-96876098D01*
X155613802Y-96884398D01*
X155838480Y-96855616D01*
X156055440Y-96790525D01*
X156059149Y-96788708D01*
X156255144Y-96692691D01*
X156255149Y-96692688D01*
X156258856Y-96690872D01*
X156443265Y-96559335D01*
X156603714Y-96399445D01*
X156735895Y-96215496D01*
X156836257Y-96012429D01*
X156864107Y-95920766D01*
X156900904Y-95799651D01*
X156902105Y-95795698D01*
X156931671Y-95571121D01*
X156933321Y-95503600D01*
X156914761Y-95277847D01*
X156907441Y-95248705D01*
X156860583Y-95062157D01*
X156860581Y-95062151D01*
X156859578Y-95058158D01*
X156769256Y-94850430D01*
X156747920Y-94817449D01*
X156648456Y-94663703D01*
X156646219Y-94660245D01*
X156493772Y-94492708D01*
X156485289Y-94486008D01*
X156319253Y-94354881D01*
X156316009Y-94352319D01*
X156312395Y-94350324D01*
X156312392Y-94350322D01*
X156121317Y-94244842D01*
X156121312Y-94244840D01*
X156117704Y-94242848D01*
X155904182Y-94167236D01*
X155681178Y-94127513D01*
X155677050Y-94127463D01*
X155677044Y-94127462D01*
X155567929Y-94126129D01*
X155454681Y-94124746D01*
X155450599Y-94125371D01*
X155450594Y-94125371D01*
X155276867Y-94151956D01*
X155230773Y-94159009D01*
X155015468Y-94229381D01*
X155011800Y-94231290D01*
X155011801Y-94231290D01*
X154851140Y-94314925D01*
X154814547Y-94333974D01*
X154811253Y-94336447D01*
X154811247Y-94336451D01*
X154636710Y-94467498D01*
X154633407Y-94469978D01*
X154630559Y-94472958D01*
X154630557Y-94472960D01*
X154479763Y-94630757D01*
X154479760Y-94630761D01*
X154476913Y-94633740D01*
X154474588Y-94637148D01*
X154474585Y-94637152D01*
X154408734Y-94733686D01*
X154349266Y-94820863D01*
X154347528Y-94824607D01*
X154347527Y-94824609D01*
X154325699Y-94871634D01*
X154253895Y-95026322D01*
X154193362Y-95244598D01*
X154169292Y-95469829D01*
X149310545Y-95469829D01*
X149294761Y-95277847D01*
X149287441Y-95248705D01*
X149240583Y-95062157D01*
X149240581Y-95062151D01*
X149239578Y-95058158D01*
X149149256Y-94850430D01*
X149127920Y-94817449D01*
X149028456Y-94663703D01*
X149026219Y-94660245D01*
X148873772Y-94492708D01*
X148865289Y-94486008D01*
X148699253Y-94354881D01*
X148696009Y-94352319D01*
X148692395Y-94350324D01*
X148692392Y-94350322D01*
X148501317Y-94244842D01*
X148501312Y-94244840D01*
X148497704Y-94242848D01*
X148284182Y-94167236D01*
X148061178Y-94127513D01*
X148057050Y-94127463D01*
X148057044Y-94127462D01*
X147947929Y-94126129D01*
X147834681Y-94124746D01*
X147830599Y-94125371D01*
X147830594Y-94125371D01*
X147656867Y-94151956D01*
X147610773Y-94159009D01*
X147395468Y-94229381D01*
X147391800Y-94231290D01*
X147391801Y-94231290D01*
X147231140Y-94314925D01*
X147194547Y-94333974D01*
X147191253Y-94336447D01*
X147191247Y-94336451D01*
X147016710Y-94467498D01*
X147013407Y-94469978D01*
X147010559Y-94472958D01*
X147010557Y-94472960D01*
X146859763Y-94630757D01*
X146859760Y-94630761D01*
X146856913Y-94633740D01*
X146854588Y-94637148D01*
X146854585Y-94637152D01*
X146788734Y-94733686D01*
X146729266Y-94820863D01*
X146727528Y-94824607D01*
X146727527Y-94824609D01*
X146705699Y-94871634D01*
X146633895Y-95026322D01*
X146573362Y-95244598D01*
X146549292Y-95469829D01*
X138930545Y-95469829D01*
X138914761Y-95277847D01*
X138907441Y-95248705D01*
X138860583Y-95062157D01*
X138860581Y-95062151D01*
X138859578Y-95058158D01*
X138769256Y-94850430D01*
X138747920Y-94817449D01*
X138648456Y-94663703D01*
X138646219Y-94660245D01*
X138493772Y-94492708D01*
X138485289Y-94486008D01*
X138319253Y-94354881D01*
X138316009Y-94352319D01*
X138312395Y-94350324D01*
X138312392Y-94350322D01*
X138121317Y-94244842D01*
X138121312Y-94244840D01*
X138117704Y-94242848D01*
X137904182Y-94167236D01*
X137681178Y-94127513D01*
X137677050Y-94127463D01*
X137677044Y-94127462D01*
X137567929Y-94126129D01*
X137454681Y-94124746D01*
X137450599Y-94125371D01*
X137450594Y-94125371D01*
X137276867Y-94151956D01*
X137230773Y-94159009D01*
X137015468Y-94229381D01*
X137011800Y-94231290D01*
X137011801Y-94231290D01*
X136851140Y-94314925D01*
X136814547Y-94333974D01*
X136811253Y-94336447D01*
X136811247Y-94336451D01*
X136636710Y-94467498D01*
X136633407Y-94469978D01*
X136630559Y-94472958D01*
X136630557Y-94472960D01*
X136479763Y-94630757D01*
X136479760Y-94630761D01*
X136476913Y-94633740D01*
X136474588Y-94637148D01*
X136474585Y-94637152D01*
X136408734Y-94733686D01*
X136349266Y-94820863D01*
X136347528Y-94824607D01*
X136347527Y-94824609D01*
X136325699Y-94871634D01*
X136253895Y-95026322D01*
X136193362Y-95244598D01*
X136169292Y-95469829D01*
X131310545Y-95469829D01*
X131294761Y-95277847D01*
X131287441Y-95248705D01*
X131240583Y-95062157D01*
X131240581Y-95062151D01*
X131239578Y-95058158D01*
X131149256Y-94850430D01*
X131127920Y-94817449D01*
X131028456Y-94663703D01*
X131026219Y-94660245D01*
X130873772Y-94492708D01*
X130865289Y-94486008D01*
X130699253Y-94354881D01*
X130696009Y-94352319D01*
X130692395Y-94350324D01*
X130692392Y-94350322D01*
X130501317Y-94244842D01*
X130501312Y-94244840D01*
X130497704Y-94242848D01*
X130284182Y-94167236D01*
X130061178Y-94127513D01*
X130057050Y-94127463D01*
X130057044Y-94127462D01*
X129947929Y-94126129D01*
X129834681Y-94124746D01*
X129830599Y-94125371D01*
X129830594Y-94125371D01*
X129656867Y-94151956D01*
X129610773Y-94159009D01*
X129395468Y-94229381D01*
X129391800Y-94231290D01*
X129391801Y-94231290D01*
X129231140Y-94314925D01*
X129194547Y-94333974D01*
X129191253Y-94336447D01*
X129191247Y-94336451D01*
X129016710Y-94467498D01*
X129013407Y-94469978D01*
X129010559Y-94472958D01*
X129010557Y-94472960D01*
X128859763Y-94630757D01*
X128859760Y-94630761D01*
X128856913Y-94633740D01*
X128854588Y-94637148D01*
X128854585Y-94637152D01*
X128788734Y-94733686D01*
X128729266Y-94820863D01*
X128727528Y-94824607D01*
X128727527Y-94824609D01*
X128705699Y-94871634D01*
X128633895Y-95026322D01*
X128573362Y-95244598D01*
X128549292Y-95469829D01*
X120930545Y-95469829D01*
X120914761Y-95277847D01*
X120907441Y-95248705D01*
X120860583Y-95062157D01*
X120860581Y-95062151D01*
X120859578Y-95058158D01*
X120769256Y-94850430D01*
X120747920Y-94817449D01*
X120648456Y-94663703D01*
X120646219Y-94660245D01*
X120493772Y-94492708D01*
X120485289Y-94486008D01*
X120319253Y-94354881D01*
X120316009Y-94352319D01*
X120312395Y-94350324D01*
X120312392Y-94350322D01*
X120121317Y-94244842D01*
X120121312Y-94244840D01*
X120117704Y-94242848D01*
X119904182Y-94167236D01*
X119681178Y-94127513D01*
X119677050Y-94127463D01*
X119677044Y-94127462D01*
X119567929Y-94126129D01*
X119454681Y-94124746D01*
X119450599Y-94125371D01*
X119450594Y-94125371D01*
X119276867Y-94151956D01*
X119230773Y-94159009D01*
X119015468Y-94229381D01*
X119011800Y-94231290D01*
X119011801Y-94231290D01*
X118851140Y-94314925D01*
X118814547Y-94333974D01*
X118811253Y-94336447D01*
X118811247Y-94336451D01*
X118636710Y-94467498D01*
X118633407Y-94469978D01*
X118630559Y-94472958D01*
X118630557Y-94472960D01*
X118479763Y-94630757D01*
X118479760Y-94630761D01*
X118476913Y-94633740D01*
X118474588Y-94637148D01*
X118474585Y-94637152D01*
X118408734Y-94733686D01*
X118349266Y-94820863D01*
X118347528Y-94824607D01*
X118347527Y-94824609D01*
X118325699Y-94871634D01*
X118253895Y-95026322D01*
X118193362Y-95244598D01*
X118169292Y-95469829D01*
X113310545Y-95469829D01*
X113294761Y-95277847D01*
X113287441Y-95248705D01*
X113240583Y-95062157D01*
X113240581Y-95062151D01*
X113239578Y-95058158D01*
X113149256Y-94850430D01*
X113127920Y-94817449D01*
X113028456Y-94663703D01*
X113026219Y-94660245D01*
X112873772Y-94492708D01*
X112865289Y-94486008D01*
X112699253Y-94354881D01*
X112696009Y-94352319D01*
X112692395Y-94350324D01*
X112692392Y-94350322D01*
X112501317Y-94244842D01*
X112501312Y-94244840D01*
X112497704Y-94242848D01*
X112284182Y-94167236D01*
X112061178Y-94127513D01*
X112057050Y-94127463D01*
X112057044Y-94127462D01*
X111947929Y-94126129D01*
X111834681Y-94124746D01*
X111830599Y-94125371D01*
X111830594Y-94125371D01*
X111656867Y-94151956D01*
X111610773Y-94159009D01*
X111395468Y-94229381D01*
X111391800Y-94231290D01*
X111391801Y-94231290D01*
X111231140Y-94314925D01*
X111194547Y-94333974D01*
X111191253Y-94336447D01*
X111191247Y-94336451D01*
X111016710Y-94467498D01*
X111013407Y-94469978D01*
X111010559Y-94472958D01*
X111010557Y-94472960D01*
X110859763Y-94630757D01*
X110859760Y-94630761D01*
X110856913Y-94633740D01*
X110854588Y-94637148D01*
X110854585Y-94637152D01*
X110788734Y-94733686D01*
X110729266Y-94820863D01*
X110727528Y-94824607D01*
X110727527Y-94824609D01*
X110705699Y-94871634D01*
X110633895Y-95026322D01*
X110573362Y-95244598D01*
X110549292Y-95469829D01*
X102930545Y-95469829D01*
X102914761Y-95277847D01*
X102907441Y-95248705D01*
X102860583Y-95062157D01*
X102860581Y-95062151D01*
X102859578Y-95058158D01*
X102769256Y-94850430D01*
X102747920Y-94817449D01*
X102648456Y-94663703D01*
X102646219Y-94660245D01*
X102493772Y-94492708D01*
X102485289Y-94486008D01*
X102319253Y-94354881D01*
X102316009Y-94352319D01*
X102312395Y-94350324D01*
X102312392Y-94350322D01*
X102121317Y-94244842D01*
X102121312Y-94244840D01*
X102117704Y-94242848D01*
X101904182Y-94167236D01*
X101681178Y-94127513D01*
X101677050Y-94127463D01*
X101677044Y-94127462D01*
X101567929Y-94126129D01*
X101454681Y-94124746D01*
X101450599Y-94125371D01*
X101450594Y-94125371D01*
X101276867Y-94151956D01*
X101230773Y-94159009D01*
X101015468Y-94229381D01*
X101011800Y-94231290D01*
X101011801Y-94231290D01*
X100851140Y-94314925D01*
X100814547Y-94333974D01*
X100811253Y-94336447D01*
X100811247Y-94336451D01*
X100636710Y-94467498D01*
X100633407Y-94469978D01*
X100630559Y-94472958D01*
X100630557Y-94472960D01*
X100479763Y-94630757D01*
X100479760Y-94630761D01*
X100476913Y-94633740D01*
X100474588Y-94637148D01*
X100474585Y-94637152D01*
X100408734Y-94733686D01*
X100349266Y-94820863D01*
X100347528Y-94824607D01*
X100347527Y-94824609D01*
X100325699Y-94871634D01*
X100253895Y-95026322D01*
X100193362Y-95244598D01*
X100169292Y-95469829D01*
X95310545Y-95469829D01*
X95294761Y-95277847D01*
X95287441Y-95248705D01*
X95240583Y-95062157D01*
X95240581Y-95062151D01*
X95239578Y-95058158D01*
X95149256Y-94850430D01*
X95127920Y-94817449D01*
X95028456Y-94663703D01*
X95026219Y-94660245D01*
X94873772Y-94492708D01*
X94865289Y-94486008D01*
X94699253Y-94354881D01*
X94696009Y-94352319D01*
X94692395Y-94350324D01*
X94692392Y-94350322D01*
X94501317Y-94244842D01*
X94501312Y-94244840D01*
X94497704Y-94242848D01*
X94284182Y-94167236D01*
X94061178Y-94127513D01*
X94057050Y-94127463D01*
X94057044Y-94127462D01*
X93947929Y-94126129D01*
X93834681Y-94124746D01*
X93830599Y-94125371D01*
X93830594Y-94125371D01*
X93656867Y-94151956D01*
X93610773Y-94159009D01*
X93395468Y-94229381D01*
X93391800Y-94231290D01*
X93391801Y-94231290D01*
X93231140Y-94314925D01*
X93194547Y-94333974D01*
X93191253Y-94336447D01*
X93191247Y-94336451D01*
X93016710Y-94467498D01*
X93013407Y-94469978D01*
X93010559Y-94472958D01*
X93010557Y-94472960D01*
X92859763Y-94630757D01*
X92859760Y-94630761D01*
X92856913Y-94633740D01*
X92854588Y-94637148D01*
X92854585Y-94637152D01*
X92788734Y-94733686D01*
X92729266Y-94820863D01*
X92727528Y-94824607D01*
X92727527Y-94824609D01*
X92705699Y-94871634D01*
X92633895Y-95026322D01*
X92573362Y-95244598D01*
X92549292Y-95469829D01*
X87072100Y-95469829D01*
X87072100Y-93658475D01*
X163270800Y-93658475D01*
X163286282Y-93805776D01*
X163347362Y-93993761D01*
X163349998Y-93998327D01*
X163349999Y-93998329D01*
X163425002Y-94128238D01*
X163446191Y-94164939D01*
X163578451Y-94311828D01*
X163582710Y-94314923D01*
X163582713Y-94314925D01*
X163631433Y-94350322D01*
X163738360Y-94428009D01*
X163918931Y-94508404D01*
X163924081Y-94509499D01*
X163924082Y-94509499D01*
X164107117Y-94548405D01*
X164107122Y-94548406D01*
X164112271Y-94549500D01*
X164309929Y-94549500D01*
X164315078Y-94548406D01*
X164315083Y-94548405D01*
X164498118Y-94509499D01*
X164498119Y-94509499D01*
X164503269Y-94508404D01*
X164683839Y-94428009D01*
X164690683Y-94423037D01*
X164784491Y-94354881D01*
X164843749Y-94311828D01*
X164976009Y-94164939D01*
X164997199Y-94128238D01*
X165072201Y-93998329D01*
X165072202Y-93998327D01*
X165074838Y-93993761D01*
X165135918Y-93805776D01*
X165151400Y-93658475D01*
X165810800Y-93658475D01*
X165826282Y-93805776D01*
X165887362Y-93993761D01*
X165889998Y-93998327D01*
X165889999Y-93998329D01*
X165965002Y-94128238D01*
X165986191Y-94164939D01*
X166118451Y-94311828D01*
X166122710Y-94314923D01*
X166122713Y-94314925D01*
X166171433Y-94350322D01*
X166278360Y-94428009D01*
X166458931Y-94508404D01*
X166464081Y-94509499D01*
X166464082Y-94509499D01*
X166647117Y-94548405D01*
X166647122Y-94548406D01*
X166652271Y-94549500D01*
X166849929Y-94549500D01*
X166855078Y-94548406D01*
X166855083Y-94548405D01*
X167038118Y-94509499D01*
X167038119Y-94509499D01*
X167043269Y-94508404D01*
X167223839Y-94428009D01*
X167230683Y-94423037D01*
X167324491Y-94354881D01*
X167383749Y-94311828D01*
X167516009Y-94164939D01*
X167537199Y-94128238D01*
X167612201Y-93998329D01*
X167612202Y-93998327D01*
X167614838Y-93993761D01*
X167675918Y-93805776D01*
X167691400Y-93658475D01*
X168350800Y-93658475D01*
X168366282Y-93805776D01*
X168427362Y-93993761D01*
X168429998Y-93998327D01*
X168429999Y-93998329D01*
X168505002Y-94128238D01*
X168526191Y-94164939D01*
X168658451Y-94311828D01*
X168662710Y-94314923D01*
X168662713Y-94314925D01*
X168711433Y-94350322D01*
X168818360Y-94428009D01*
X168998931Y-94508404D01*
X169004081Y-94509499D01*
X169004082Y-94509499D01*
X169187117Y-94548405D01*
X169187122Y-94548406D01*
X169192271Y-94549500D01*
X169389929Y-94549500D01*
X169395078Y-94548406D01*
X169395083Y-94548405D01*
X169578118Y-94509499D01*
X169578119Y-94509499D01*
X169583269Y-94508404D01*
X169763839Y-94428009D01*
X169770683Y-94423037D01*
X169864491Y-94354881D01*
X169923749Y-94311828D01*
X170056009Y-94164939D01*
X170077199Y-94128238D01*
X170152201Y-93998329D01*
X170152202Y-93998327D01*
X170154838Y-93993761D01*
X170215918Y-93805776D01*
X170231400Y-93658475D01*
X170890800Y-93658475D01*
X170906282Y-93805776D01*
X170967362Y-93993761D01*
X170969998Y-93998327D01*
X170969999Y-93998329D01*
X171045002Y-94128238D01*
X171066191Y-94164939D01*
X171198451Y-94311828D01*
X171202710Y-94314923D01*
X171202713Y-94314925D01*
X171251433Y-94350322D01*
X171358360Y-94428009D01*
X171538931Y-94508404D01*
X171544081Y-94509499D01*
X171544082Y-94509499D01*
X171727117Y-94548405D01*
X171727122Y-94548406D01*
X171732271Y-94549500D01*
X171929929Y-94549500D01*
X171935078Y-94548406D01*
X171935083Y-94548405D01*
X172118118Y-94509499D01*
X172118119Y-94509499D01*
X172123269Y-94508404D01*
X172303839Y-94428009D01*
X172310683Y-94423037D01*
X172404491Y-94354881D01*
X172463749Y-94311828D01*
X172596009Y-94164939D01*
X172617199Y-94128238D01*
X172692201Y-93998329D01*
X172692202Y-93998327D01*
X172694838Y-93993761D01*
X172755918Y-93805776D01*
X172771400Y-93658475D01*
X172771400Y-90308725D01*
X172755918Y-90161424D01*
X172694838Y-89973439D01*
X172596009Y-89802261D01*
X172463749Y-89655372D01*
X172459488Y-89652276D01*
X172459487Y-89652275D01*
X172376149Y-89591727D01*
X172303840Y-89539191D01*
X172123269Y-89458796D01*
X172118119Y-89457701D01*
X172118118Y-89457701D01*
X171935083Y-89418795D01*
X171935078Y-89418794D01*
X171929929Y-89417700D01*
X171732271Y-89417700D01*
X171727122Y-89418794D01*
X171727117Y-89418795D01*
X171544082Y-89457701D01*
X171544081Y-89457701D01*
X171538931Y-89458796D01*
X171358361Y-89539191D01*
X171198451Y-89655372D01*
X171066191Y-89802261D01*
X170967362Y-89973439D01*
X170906282Y-90161424D01*
X170890800Y-90308725D01*
X170890800Y-93658475D01*
X170231400Y-93658475D01*
X170231400Y-90308725D01*
X170215918Y-90161424D01*
X170154838Y-89973439D01*
X170056009Y-89802261D01*
X169923749Y-89655372D01*
X169919488Y-89652276D01*
X169919487Y-89652275D01*
X169836149Y-89591727D01*
X169763840Y-89539191D01*
X169583269Y-89458796D01*
X169578119Y-89457701D01*
X169578118Y-89457701D01*
X169395083Y-89418795D01*
X169395078Y-89418794D01*
X169389929Y-89417700D01*
X169192271Y-89417700D01*
X169187122Y-89418794D01*
X169187117Y-89418795D01*
X169004082Y-89457701D01*
X169004081Y-89457701D01*
X168998931Y-89458796D01*
X168818361Y-89539191D01*
X168658451Y-89655372D01*
X168526191Y-89802261D01*
X168427362Y-89973439D01*
X168366282Y-90161424D01*
X168350800Y-90308725D01*
X168350800Y-93658475D01*
X167691400Y-93658475D01*
X167691400Y-90308725D01*
X167675918Y-90161424D01*
X167614838Y-89973439D01*
X167516009Y-89802261D01*
X167383749Y-89655372D01*
X167379488Y-89652276D01*
X167379487Y-89652275D01*
X167296149Y-89591727D01*
X167223840Y-89539191D01*
X167043269Y-89458796D01*
X167038119Y-89457701D01*
X167038118Y-89457701D01*
X166855083Y-89418795D01*
X166855078Y-89418794D01*
X166849929Y-89417700D01*
X166652271Y-89417700D01*
X166647122Y-89418794D01*
X166647117Y-89418795D01*
X166464082Y-89457701D01*
X166464081Y-89457701D01*
X166458931Y-89458796D01*
X166278361Y-89539191D01*
X166118451Y-89655372D01*
X165986191Y-89802261D01*
X165887362Y-89973439D01*
X165826282Y-90161424D01*
X165810800Y-90308725D01*
X165810800Y-93658475D01*
X165151400Y-93658475D01*
X165151400Y-90308725D01*
X165135918Y-90161424D01*
X165074838Y-89973439D01*
X164976009Y-89802261D01*
X164843749Y-89655372D01*
X164839488Y-89652276D01*
X164839487Y-89652275D01*
X164756149Y-89591727D01*
X164683840Y-89539191D01*
X164503269Y-89458796D01*
X164498119Y-89457701D01*
X164498118Y-89457701D01*
X164315083Y-89418795D01*
X164315078Y-89418794D01*
X164309929Y-89417700D01*
X164112271Y-89417700D01*
X164107122Y-89418794D01*
X164107117Y-89418795D01*
X163924082Y-89457701D01*
X163924081Y-89457701D01*
X163918931Y-89458796D01*
X163738361Y-89539191D01*
X163578451Y-89655372D01*
X163446191Y-89802261D01*
X163347362Y-89973439D01*
X163286282Y-90161424D01*
X163270800Y-90308725D01*
X163270800Y-93658475D01*
X87072100Y-93658475D01*
X87072100Y-85105200D01*
X87091313Y-85046069D01*
X87141613Y-85009524D01*
X87172700Y-85004600D01*
X194049500Y-85004600D01*
X194108631Y-85023813D01*
G37*
%TD.AperFunction*%
%TD*%
M02*
